<svg width="11" height="8" viewBox="0 0 11 8" fill="none" xmlns="http://www.w3.org/2000/svg">
<path fill-rule="evenodd" clip-rule="evenodd" d="M4.50837 5.29662V2.38887C5.54478 2.8746 6.34747 3.34382 7.29682 3.8497C6.51381 4.28221 5.54478 4.76749 4.50837 5.29662ZM10.2843 0.942707C10.1055 0.70811 9.80079 0.525496 9.4764 0.465038C8.5229 0.284697 2.57444 0.284184 1.62146 0.465038C1.36132 0.51361 1.12968 0.631014 0.930689 0.813423C0.092235 1.58852 0.354967 5.74513 0.557066 6.41843C0.642051 6.70987 0.751915 6.92006 0.890276 7.05802C1.06854 7.24043 1.31261 7.36602 1.59296 7.42235C2.37803 7.58409 6.42261 7.67452 9.45981 7.44663C9.73964 7.39806 9.98733 7.26842 10.1827 7.07826C10.9579 6.30626 10.9051 1.91623 10.2843 0.942707Z" fill="white"/>
</svg>
