<svg width="48" height="48" viewBox="0 0 48 48" fill="none" xmlns="http://www.w3.org/2000/svg">
<path d="M42.75 30.8255V17.1745C44.4596 16.8262 45.75 15.311 45.75 13.5C45.75 11.4323 44.0677 9.75 42 9.75C40.8904 9.75 39.8921 10.2349 39.2049 11.0034L27.7101 4.29403C27.736 4.11628 27.75 3.93478 27.75 3.75C27.75 1.68225 26.0677 0 24 0C21.9323 0 20.25 1.68225 20.25 3.75C20.25 3.93478 20.264 4.11628 20.2899 4.29403L8.79506 11.0034C8.10788 10.2349 7.10972 9.75 6 9.75C3.93225 9.75 2.25 11.4323 2.25 13.5C2.25 15.311 3.54037 16.8262 5.25 17.1745V30.8255C3.54037 31.1738 2.25 32.689 2.25 34.5C2.25 36.5678 3.93225 38.25 6 38.25C7.10991 38.25 8.10825 37.7648 8.79553 36.996L20.29 43.7052C20.2641 43.8832 20.25 44.0649 20.25 44.2499C20.25 46.3177 21.9323 47.9999 24 47.9999C26.0677 47.9999 27.75 46.3177 27.75 44.2499C27.75 44.0648 27.736 43.8832 27.71 43.7052L39.2045 36.996C39.8918 37.7648 40.8901 38.25 42 38.25C44.0677 38.25 45.75 36.5678 45.75 34.5C45.75 32.689 44.4596 31.1738 42.75 30.8255ZM40.7905 30.9513L33.8621 19.1147L39.2048 15.9966C39.733 16.5873 40.4448 17.0105 41.2499 17.1746V30.8256C41.093 30.8574 40.9399 30.9003 40.7905 30.9513ZM24.75 33.75V27.6745C25.5551 27.5105 26.2669 27.0872 26.7951 26.4965L38.4487 33.2978C38.3989 33.4448 38.3569 33.5955 38.3255 33.7499H24.75V33.75ZM9.67453 33.75C9.64303 33.5955 9.60112 33.4449 9.55125 33.2979L21.2049 26.4966C21.7331 27.0873 22.4449 27.5105 23.25 27.6746V33.75H9.67453ZM6.75 30.8255V17.1745C7.55513 17.0105 8.26688 16.5872 8.79506 15.9965L14.1378 19.1146L7.20947 30.9513C7.06012 30.9003 6.90703 30.8574 6.75 30.8255ZM15.4327 19.8704L20.4487 22.7979C20.3206 23.1756 20.25 23.5796 20.25 24C20.25 24.4204 20.3206 24.8244 20.4487 25.2021L8.79506 32.0034C8.70291 31.9004 8.60531 31.8023 8.50247 31.71L15.4327 19.8704ZM23.25 7.42453V20.3255C22.4449 20.4895 21.7331 20.9128 21.2049 21.5035L16.19 18.5767L22.7912 7.299C22.9403 7.34991 23.0932 7.39256 23.25 7.42453ZM25.2088 7.29891L31.81 18.5766L26.7951 21.5034C26.2669 20.9127 25.5551 20.4895 24.75 20.3254V7.42453C24.9068 7.39256 25.0598 7.34991 25.2088 7.29891ZM24 26.25C23.1968 26.25 22.4908 25.8264 22.0927 25.1913C22.0829 25.1705 22.0724 25.1498 22.0605 25.1295C22.0479 25.1081 22.0344 25.0877 22.0202 25.0681C21.848 24.7501 21.75 24.3863 21.75 24C21.75 23.6093 21.8503 23.2417 22.0262 22.9211C22.0378 22.9044 22.05 22.8884 22.0605 22.8705C22.0721 22.8505 22.0824 22.8302 22.0921 22.8096C22.4902 22.1739 23.1964 21.75 24 21.75C24.8038 21.75 25.5102 22.1741 25.9083 22.81C25.9178 22.8304 25.928 22.8506 25.9395 22.8705C25.9497 22.888 25.9618 22.9038 25.9733 22.9202C26.1495 23.2409 26.25 23.6089 26.25 24C26.25 24.3855 26.1524 24.7486 25.9807 25.0661C25.9661 25.0864 25.9522 25.1075 25.9395 25.1295C25.9279 25.1495 25.9176 25.1698 25.9079 25.1904C25.5098 25.8261 24.8036 26.25 24 26.25ZM39.2049 32.0034L27.5513 25.2021C27.6794 24.8244 27.75 24.4204 27.75 24C27.75 23.5796 27.6794 23.1756 27.5513 22.7979L32.5673 19.8704L39.4975 31.7101C39.3947 31.8024 39.2971 31.9004 39.2049 32.0034ZM42 11.25C43.2405 11.25 44.25 12.2595 44.25 13.5C44.25 14.7405 43.2405 15.75 42 15.75C41.1962 15.75 40.4898 15.3259 40.0918 14.69C40.0822 14.6695 40.0721 14.6494 40.0605 14.6295C40.0478 14.6078 40.0342 14.5871 40.0198 14.5673C39.8478 14.2494 39.75 13.886 39.75 13.5C39.75 13.1093 39.8503 12.7417 40.0262 12.4211C40.0378 12.4044 40.05 12.3884 40.0605 12.3705C40.0721 12.3505 40.0824 12.3302 40.0921 12.3096C40.4902 11.6739 41.1964 11.25 42 11.25ZM38.4487 12.2978C38.3206 12.6755 38.25 13.0795 38.25 13.5C38.25 13.9205 38.3206 14.3244 38.4487 14.7021L33.1048 17.8209L26.502 6.54038C26.7669 6.30263 26.9977 6.02775 27.1865 5.72409L38.4487 12.2978ZM24 1.5C25.2405 1.5 26.25 2.5095 26.25 3.75C26.25 3.98428 26.2139 4.21031 26.1471 4.42294C26.1468 4.42388 26.1464 4.42472 26.1461 4.42566C25.9788 4.956 25.6198 5.40188 25.151 5.68228C25.1458 5.68509 25.1406 5.68734 25.1355 5.69025C25.1315 5.69259 25.1278 5.69541 25.1239 5.69784C24.7928 5.88966 24.4092 6 24 6C23.5909 6 23.2073 5.88966 22.8763 5.69794C22.8723 5.6955 22.8686 5.69259 22.8645 5.69025C22.8591 5.68706 22.8534 5.68472 22.8479 5.68163C22.3792 5.40103 22.0205 4.95488 21.8534 4.42453L21.8533 4.42434C21.7863 4.21134 21.75 3.98484 21.75 3.75C21.75 2.5095 22.7595 1.5 24 1.5ZM20.8136 5.72409C21.0024 6.02775 21.2332 6.30263 21.4981 6.54038L14.8951 17.8209L9.55116 14.7021C9.67931 14.3244 9.74991 13.9204 9.74991 13.5C9.74991 13.0795 9.67931 12.6756 9.55116 12.2978L20.8136 5.72409ZM3.75 13.5C3.75 12.2595 4.7595 11.25 6 11.25C6.80381 11.25 7.51022 11.6741 7.90828 12.31C7.91784 12.3304 7.92797 12.3506 7.9395 12.3705C7.94972 12.388 7.96181 12.4038 7.97325 12.4202C8.1495 12.741 8.25 13.109 8.25 13.5C8.25 13.8855 8.15241 14.2485 7.98084 14.566C7.96622 14.5863 7.95234 14.6074 7.9395 14.6295C7.92788 14.6495 7.91756 14.6698 7.90791 14.6904C7.50984 15.3261 6.80363 15.75 6 15.75C4.7595 15.75 3.75 14.7405 3.75 13.5ZM6 36.75C4.7595 36.75 3.75 35.7405 3.75 34.5C3.75 33.2595 4.7595 32.25 6 32.25C6.41166 32.25 6.79763 32.3618 7.12997 32.5556C7.13212 32.5569 7.13409 32.5584 7.13625 32.5597C7.13831 32.561 7.14056 32.5617 7.14263 32.5629C7.45369 32.7472 7.71666 33.0039 7.90819 33.31C7.91775 33.3305 7.92788 33.3506 7.9395 33.3705C7.94981 33.388 7.96181 33.4039 7.97325 33.4203C8.1495 33.741 8.25 34.109 8.25 34.5C8.25 34.8845 8.15287 35.2466 7.98216 35.5635C7.96697 35.5843 7.95272 35.6061 7.9395 35.6288C7.92713 35.65 7.91597 35.6717 7.90594 35.6935C7.5075 36.3275 6.80222 36.75 6 36.75ZM9.55144 35.7015C9.60122 35.5547 9.64313 35.4043 9.67453 35.25H23.25V40.5755C22.2241 40.7845 21.3497 41.4142 20.814 42.2753L9.55144 35.7015ZM24 46.5C22.7595 46.5 21.75 45.4905 21.75 44.25C21.75 43.0095 22.7595 42 24 42C25.2405 42 26.25 43.0095 26.25 44.25C26.25 45.4905 25.2405 46.5 24 46.5ZM27.186 42.2753C26.6503 41.4142 25.7759 40.7845 24.75 40.5755V35.25H38.3255C38.3569 35.4043 38.3988 35.5547 38.4486 35.7015L27.186 42.2753ZM42 36.75C41.1975 36.75 40.4921 36.3273 40.0938 35.6931C40.0837 35.6713 40.0728 35.6498 40.0605 35.6288C40.0474 35.6063 40.0332 35.5848 40.0182 35.5642C39.8472 35.2471 39.75 34.8848 39.75 34.5C39.75 34.1093 39.8503 33.7417 40.0263 33.421C40.0379 33.4043 40.0501 33.3883 40.0605 33.3705C40.0721 33.3505 40.0824 33.3302 40.0921 33.3096C40.2836 33.0037 40.5465 32.7471 40.8574 32.5629C40.8594 32.5617 40.8617 32.561 40.8638 32.5597C40.8659 32.5585 40.8678 32.5569 40.8699 32.5557C41.2023 32.3618 41.5882 32.25 42 32.25C43.2405 32.25 44.25 33.2595 44.25 34.5C44.25 35.7405 43.2405 36.75 42 36.75Z" fill="#22409A"/>
</svg>
