<svg width="22" height="18" viewBox="0 0 22 18" fill="none" xmlns="http://www.w3.org/2000/svg">
<path d="M1.23096 4.52897L7.22127 8.52254C8.63152 9.46265 9.33668 9.93276 10.0987 10.1154C10.7723 10.2768 11.4744 10.2768 12.148 10.1154C12.91 9.93276 13.6153 9.46265 15.0255 8.52254L21.0158 4.52897M4.74826 16.6197H17.4985C18.7296 16.6197 19.3453 16.6197 19.8155 16.3801C20.2291 16.1694 20.5654 15.833 20.7761 15.4194C21.0158 14.9492 21.0158 14.3336 21.0158 13.1024V4.74881C21.0158 3.51764 21.0158 2.90205 20.7761 2.43181C20.5654 2.01816 20.2291 1.68186 19.8155 1.47111C19.3453 1.23151 18.7296 1.23151 17.4985 1.23151H4.74826C3.51709 1.23151 2.9015 1.23151 2.43126 1.47111C2.01761 1.68186 1.68131 2.01816 1.47056 2.43181C1.23096 2.90205 1.23096 3.51763 1.23096 4.74881V13.1024C1.23096 14.3336 1.23096 14.9492 1.47056 15.4194C1.68131 15.833 2.01761 16.1694 2.43126 16.3801C2.9015 16.6197 3.51708 16.6197 4.74826 16.6197Z" stroke="white" stroke-width="1.5" stroke-linecap="round" stroke-linejoin="round"/>
</svg>
