<?xml version="1.0" standalone="no"?>
<!DOCTYPE svg PUBLIC "-//W3C//DTD SVG 1.1//EN" "http://www.w3.org/Graphics/SVG/1.1/DTD/svg11.dtd" >
<svg xmlns="http://www.w3.org/2000/svg" xmlns:xlink="http://www.w3.org/1999/xlink" version="1.1" viewBox="-10 0 954 1000">
   <path fill="currentColor"
d="M0 662q2 -109 63 -193q64 -86 162 -125q43 -10 56 25q6 18 -1 33t-24 20q-78 33 -123 95q-45 69 -47 145q4 107 78 180q82 74 186 74q86 -2 152 -47q70 -49 98 -121q5 -16 9 -31q12 -41 51 -32q41 12 33 49q-5 24 -13 41q-39 104 -127 164q-96 61 -203 61
q-145 -4 -246 -100q-102 -101 -104 -238zM264 100q2 -43 30 -72t69 -28q43 2 72 30t27.5 70.5t-30.5 70.5t-69 28q-43 -2 -71 -30t-28 -69zM311 309h2q-8 -36 21 -65q23 -21 59 -21q27 0 46 15q10 8 17 16t11 19t5 18l4 22q3 15 4 23h166q32 2 42 31q3 24 -10 39t-37 14
h-143l22 105h181q47 2 65 39l162 284q15 33 -10 58q-22 20 -48 15t-38 -30l-141 -245q-48 -2 -144 -1l-109 1q-59 -4 -69 -54z" />
</svg>
