<?xml version="1.0" standalone="no"?>
<!DOCTYPE svg PUBLIC "-//W3C//DTD SVG 1.1//EN" "http://www.w3.org/Graphics/SVG/1.1/DTD/svg11.dtd" >
<svg xmlns="http://www.w3.org/2000/svg" xmlns:xlink="http://www.w3.org/1999/xlink" version="1.1" viewBox="-10 0 1019 1000">
   <path fill="currentColor"
d="M0 958q0 -51 61 -106t123 -89l15 22q-44 32 -90 83t-59 89q87 -27 265 -379q65 -131 103 -261q-33 -107 -33 -202q0 -115 47 -115q23 0 34 2t21 13t9 34q0 15 -3 28l-27 -1q-2 -26 -17 -41q-12 20 -12 69q0 38 9 94l18 -107l26 3q-2 152 -14 218q36 107 87 174t142 119
q68 -7 116 -7q178 0 178 70q0 11 -5 24l-3 -1q-5 42 -67 42q-104 0 -240 -72q-220 22 -389 82q-147 257 -235 257q-7 0 -14 -2t-12 -4t-14 -7l-12 -7q-8 -8 -8 -22zM318 703q134 -54 298 -85q-103 -73 -164 -209q-36 121 -134 294zM804 653q90 35 142 35q15 0 22 -3
q0 -32 -145 -32h-19z" />
</svg>
