<?xml version="1.0" standalone="no"?>
<!DOCTYPE svg PUBLIC "-//W3C//DTD SVG 1.1//EN" "http://www.w3.org/Graphics/SVG/1.1/DTD/svg11.dtd" >
<svg xmlns="http://www.w3.org/2000/svg" xmlns:xlink="http://www.w3.org/1999/xlink" version="1.1" viewBox="-11 0 950 1000">
   <path fill="currentColor"
d="M670 691q0 -32 -3 -60t-12 -56t-22 -48t-35 -32t-51 -13l-19 12q-16 10 -23 13t-23 11t-27 10t-26 3t-26 -3l-28 -10q-17 -6 -22 -11t-24 -13t-19 -12q-28 0 -50 13t-36 32t-22 48t-12 56t-3 60q0 41 23 68t58 27h321q34 0 58 -27t23 -68zM574 359q0 -60 -43 -102
t-102 -43t-103 43t-42 102q0 60 42 102t103 43t102 -43t43 -102zM929 661v107q0 8 -5 13t-13 5h-54v125q0 37 -26 63t-63 26h-679q-36 0 -63 -26t-26 -63v-822q0 -37 26 -63t63 -26h679q37 0 63 26t26 63v125h54q8 0 13 5t5 13v107q0 8 -5 13t-13 5h-54v72h54q8 0 13 5t5 12
v108q0 7 -5 12t-13 5h-54v72h54q8 0 13 5t5 13z" />
</svg>
