<?xml version="1.0" standalone="no"?>
<!DOCTYPE svg PUBLIC "-//W3C//DTD SVG 1.1//EN" "http://www.w3.org/Graphics/SVG/1.1/DTD/svg11.dtd" >
<svg xmlns="http://www.w3.org/2000/svg" xmlns:xlink="http://www.w3.org/1999/xlink" version="1.1" viewBox="-11 0 1165 1000">
   <path fill="currentColor"
d="M571 631q0 -36 -5 -65t-16 -58t-34 -43t-54 -16l-38 22q-7 4 -19 9t-24 9t-24 2t-23 -2t-24 -9t-20 -9t-21 -12t-17 -10q-32 0 -54 16t-34 43t-16 58t-5 65t21 60t50 23h286q30 0 51 -23t20 -60zM484 341q0 -53 -37 -90t-90 -37t-89 37t-37 90t37 89t89 38t90 -38t37 -89
zM1000 625v-36q0 -8 -5 -13t-13 -5h-321q-8 0 -13 5t-5 13v36q0 8 5 13t13 5h321q8 0 13 -5t5 -13zM1000 480v-31q0 -9 -6 -15t-14 -5h-317q-8 0 -14 5t-6 15v31q0 8 6 14t14 6h317q8 0 14 -6t6 -14zM1000 339v-35q0 -8 -5 -13t-13 -5h-321q-8 0 -13 5t-5 13v35q0 8 5 13
t13 5h321q8 0 13 -5t5 -13zM1143 161v678q0 37 -26 63t-63 27h-197v-54q0 -8 -5 -13t-13 -5h-35q-8 0 -13 5t-5 13v54h-429v-54q0 -8 -5 -13t-13 -5h-35q-8 0 -13 5t-5 13v54h-197q-36 0 -63 -27t-26 -63v-678q0 -37 26 -63t63 -27h965q36 0 63 27t26 63z" />
</svg>
