<?xml version="1.0" standalone="no"?>
<!DOCTYPE svg PUBLIC "-//W3C//DTD SVG 1.1//EN" "http://www.w3.org/Graphics/SVG/1.1/DTD/svg11.dtd" >
<svg xmlns="http://www.w3.org/2000/svg" xmlns:xlink="http://www.w3.org/1999/xlink" version="1.1" viewBox="-11 0 1165 1000">
   <path fill="currentColor"
d="M571 631q0 36 -20 60t-51 23h-286q-30 0 -50 -23t-21 -60t5 -65t16 -58t34 -43t54 -16q4 2 17 10t21 12t20 9t24 9t23 2t24 -2t24 -9t19 -9t21 -12t17 -10q32 0 54 16t34 43t16 58t5 65zM484 341q0 52 -37 89t-90 38t-89 -38t-37 -89t37 -90t89 -37t90 37t37 90z
M1000 589v36q0 8 -5 13t-13 5h-321q-8 0 -13 -5t-5 -13v-36q0 -8 5 -13t13 -5h321q8 0 13 5t5 13zM1000 449v31q0 8 -6 14t-14 6h-317q-8 0 -14 -6t-6 -14v-31q0 -9 6 -15t14 -5h317q8 0 14 5t6 15zM1000 304v35q0 8 -5 13t-13 5h-321q-8 0 -13 -5t-5 -13v-35q0 -8 5 -13
t13 -5h321q8 0 13 5t5 13zM1071 839v-678q0 -8 -5 -13t-12 -5h-965q-7 0 -12 5t-6 13v678q0 7 6 13t12 5h197v-53q0 -8 5 -13t13 -5h35q8 0 13 5t5 13v53h429v-53q0 -8 5 -13t13 -5h35q8 0 13 5t5 13v53h197q7 0 12 -5t5 -13zM1143 161v678q0 37 -26 63t-63 27h-965
q-36 0 -63 -27t-26 -63v-678q0 -37 26 -63t63 -27h965q36 0 63 27t26 63z" />
</svg>
