<?xml version="1.0" standalone="no"?>
<!DOCTYPE svg PUBLIC "-//W3C//DTD SVG 1.1//EN" "http://www.w3.org/Graphics/SVG/1.1/DTD/svg11.dtd" >
<svg xmlns="http://www.w3.org/2000/svg" xmlns:xlink="http://www.w3.org/1999/xlink" version="1.1" viewBox="-11 0 950 1000">
   <path fill="currentColor"
d="M574 359q0 60 -43 102t-102 43t-103 -43t-42 -102q0 -60 42 -102t103 -43t102 43t43 102zM547 482q26 0 46 10t33 26t22 37t14 46t6 46l2 44q0 37 -22 66t-59 29h-321q-37 0 -59 -29t-22 -66q0 -27 3 -52t10 -55t20 -51t35 -36t53 -15h2q4 2 18 11t20 12l18 9q12 6 21 9
t20 5t22 3t22 -3t19 -5t21 -9t18 -9t20 -12t18 -11zM929 339q0 7 -6 13t-12 5h-54v72h54q7 0 12 5t6 12v108q0 7 -6 12t-12 5h-54v72h54q7 0 12 5t6 13v107q0 7 -6 12t-12 6h-54v125q0 37 -26 63t-63 26h-679q-36 0 -63 -26t-26 -63v-822q0 -37 26 -63t63 -26h679
q37 0 63 26t26 63v125h54q7 0 12 6t6 12v107zM786 911v-822q0 -7 -6 -12t-12 -6h-679q-7 0 -12 6t-6 12v822q0 7 6 12t12 6h679q7 0 12 -6t6 -12z" />
</svg>
