<?xml version="1.0" standalone="no"?>
<!DOCTYPE svg PUBLIC "-//W3C//DTD SVG 1.1//EN" "http://www.w3.org/Graphics/SVG/1.1/DTD/svg11.dtd" >
<svg xmlns="http://www.w3.org/2000/svg" xmlns:xlink="http://www.w3.org/1999/xlink" version="1.1" viewBox="-10 0 1314 1000">
   <path fill="currentColor"
d="M0 418q0 -105 53 -188t136 -132t181 -73t194 -25q29 0 43 1q115 6 226 41q87 28 166 74t147 109t108 147t40 176q0 13 -1 19q-11 152 -120 256t-269 147q-107 30 -229 30h-8q-201 0 -315 -53q-6 -2 -7 -6q0 -2 3 -2l4 1q3 1 3 0q50 12 89 12q24 0 47 -4t44 -20t20 -40
q0 -12 -6 -24q-9 -16 -58 -34t-114 -33t-76 -20q-80 -26 -139 -66q0 -1 4 -10l6 -14q2 -5 7 -12t8 -6h179q9 0 17 21t21 44t35 22q18 0 31 -12t13 -29q0 -11 -84 -199t-106 -231q-6 -15 -15 -15t-14 9l-3 6q-8 15 -52 114l-114 253q-95 -109 -95 -234zM218 584
q0 -10 54 -129l5 -3q6 0 33 63t26 70q0 4 -5 4h-108q-5 0 -5 -5zM525 707q0 45 47 45t47 -45v-388q0 -45 -47 -45t-47 45v388zM710 707q0 45 47 45t47 -45v-181l92 185q13 29 41 29q32 0 46 -29l91 -185v181q0 45 47.5 45t47.5 -45v-388q0 -45 -47 -45q-35 0 -47 29
l-138 302l-133 -302q-14 -29 -48 -29q-46 0 -46 45v388z" />
</svg>
