<?xml version="1.0" standalone="no"?>
<!DOCTYPE svg PUBLIC "-//W3C//DTD SVG 1.1//EN" "http://www.w3.org/Graphics/SVG/1.1/DTD/svg11.dtd" >
<svg xmlns="http://www.w3.org/2000/svg" xmlns:xlink="http://www.w3.org/1999/xlink" version="1.1" viewBox="-10 0 926 1000">
   <path fill="currentColor"
d="M85 316q-16 14 -36 12t-34 -17t-12 -37t18 -36q48 -40 79 -60t89 -40t129 -4t159 66t155 53t100 -16t89 -67q38 -30 70 6q32 40 -6 72q-122 110 -234 110q-100 0 -222 -70q-68 -38 -119 -52t-93 0t-65 29t-67 51zM821 426q38 -32 70 7t-6 71q-40 34 -65 53t-72 38t-97 19
q-96 0 -222 -70q-68 -38 -119 -52t-93 0t-65 29t-67 51q-14 14 -35 12t-35 -18q-32 -40 6 -73t60 -49t69 -38t88 -23t105 15t134 56q68 38 119 52t93 0t65 -29t67 -51zM821 682q38 -32 70 6q14 14 12 36t-18 36q-40 34 -65 53t-72 38t-97 19q-96 0 -222 -70
q-68 -38 -119 -52t-93 -1t-66 29t-66 52q-14 14 -35 12t-35 -18q-32 -40 6 -73t60 -49t69 -38t88 -23t105 15t134 56q68 38 119 52t93 0t65 -29t67 -51z" />
</svg>
