<?xml version="1.0" standalone="no"?>
<!DOCTYPE svg PUBLIC "-//W3C//DTD SVG 1.1//EN" "http://www.w3.org/Graphics/SVG/1.1/DTD/svg11.dtd" >
<svg xmlns="http://www.w3.org/2000/svg" xmlns:xlink="http://www.w3.org/1999/xlink" version="1.1" viewBox="-10 0 922 1000">
   <path fill="currentColor"
d="M885 616q20 16 16 33t-28 23l-78 22q-24 6 -40 28t-14 48l4 82q2 24 -14 34t-38 0l-86 -44q-22 -12 -47 -4t-35 30l-46 88q-12 22 -29 23t-33 -19l-50 -78q-34 -48 -88 -20l-122 70q-22 14 -32 6t-2 -32l54 -164q8 -24 -4 -44t-36 -22l-106 -12q-24 -4 -29 -18t15 -30
l86 -76q20 -16 20 -41t-20 -41l-86 -76q-20 -16 -16 -33t28 -23l78 -22q24 -6 41 -28t15 -48l-6 -82q0 -26 15 -36t37 0l80 38q24 10 49 2t37 -30l46 -80q12 -22 30 -21t30 23l50 86q12 22 35 29t45 -7l136 -84q22 -14 30 -6t0 32l-60 170q-10 22 2 41t38 21l114 12
q26 2 30 16t-16 30l-86 76q-18 16 -18 41t18 41zM501 708v-104h-100v104h100zM501 548v-260h-100v260h100z" />
</svg>
