<?xml version="1.0" standalone="no"?>
<!DOCTYPE svg PUBLIC "-//W3C//DTD SVG 1.1//EN" "http://www.w3.org/Graphics/SVG/1.1/DTD/svg11.dtd" >
<svg xmlns="http://www.w3.org/2000/svg" xmlns:xlink="http://www.w3.org/1999/xlink" version="1.1" viewBox="-10 0 1010 1000">
   <path fill="currentColor"
d="M866 824q8 -4 14 -2t6 10t-7.5 17.5t-25.5 25.5t-53 38t-79 41t-105 32t-127.5 13.5t-132.5 -16.5t-117 -43t-96 -58t-74 -59t-47 -48q-5 -6 -6 -10t1 -6l4 -4q2 -2 7 -1t6 2q107 65 168 93q217 98 445 50q106 -22 219 -75zM981 759q6 9 1 39t-15 58q-19 46 -48 69
q-9 8 -14 5t0 -14q11 -25 24 -68t4 -55q-3 -3 -9 -6t-15 -3t-16 -2t-20 0t-17 1t-18 2t-12 1q-3 1 -7 1t-6 1t-5 0t-4 0h-7q-1 0 -1 -1l-1 -1q-4 -9 26 -23t57 -16q26 -4 61 -1t42 13zM761 512q0 18 8 36t18 32t21 26t18 18l7 6l-126 125q-23 -21 -45 -42t-32 -33l-11 -11
q-6 -6 -13 -18q-22 33 -55 57t-71 35t-78 13t-77 -12t-65 -36t-47 -63t-17 -91q0 -47 16 -86t40 -65t59 -46t69 -32t72 -19t67 -11t55 -3v-71q0 -36 -11 -54q-19 -30 -68 -30q-3 0 -9 1t-23 6t-31 17t-31 33t-27 54l-164 -15q0 -34 12 -67t38 -63t60 -53t84 -36t107 -14
q55 0 101 14t72 34t45 47t25 48t7 41v328zM386 524q0 48 39 74q37 25 78 12q47 -14 63 -68q8 -25 8 -57v-90q-33 1 -62 7t-59 18t-49 40t-18 64z" />
</svg>
