<?xml version="1.0" standalone="no"?>
<!DOCTYPE svg PUBLIC "-//W3C//DTD SVG 1.1//EN" "http://www.w3.org/Graphics/SVG/1.1/DTD/svg11.dtd" >
<svg xmlns="http://www.w3.org/2000/svg" xmlns:xlink="http://www.w3.org/1999/xlink" version="1.1" viewBox="-10 0 1120 1000">
   <path fill="currentColor"
d="M2 776q5 -8 16 -1q250 145 544 145q196 0 387 -73l15 -6q10 -4 13 -6q15 -6 24 6t-6 22q-18 13 -46 30q-86 51 -192 79t-207 28q-156 0 -295 -54t-249 -154q-6 -5 -6 -9t2 -7zM303 491q0 -69 34 -118t93 -74q54 -23 133 -33q27 -3 88 -8v-17q0 -64 -14 -86
q-21 -30 -66 -30h-8q-33 3 -57 21t-31 50q-4 20 -20 23l-115 -14q-17 -4 -17 -18q0 -3 1 -7q17 -89 84 -132t155 -48h25q114 0 178 59q10 10 19 21t13 21t9 26t6 23l3 28q2 21 1 26v242q0 26 8 47t14 31t23 31q6 9 6 16.5t-8 13.5l-90 78q-12 9 -29 2q-14 -12 -24 -23
l-15 -16q-5 -5 -15 -20t-14 -19q-56 61 -110 76q-34 10 -84 10q-77 0 -126 -48t-50 -134zM475 471q0 39 20 62t52 24q3 0 9 -1l7 -1q42 -11 65 -54q11 -19 17 -42t6 -36v-71q-58 0 -88 8q-88 25 -88 111zM895 793q2 -4 6 -8q25 -17 48 -23q38 -10 74 -11q10 -1 19 1
q45 4 54 15q4 6 4 18v7q0 35 -19 83t-53 76q-5 4 -8 4t-5 -1q-6 -3 -3 -11q37 -87 37 -121q0 -11 -4 -16q-10 -12 -56 -12q-17 0 -40 2l-46 6q-6 0 -8 -2t-1.5 -3.5t1.5 -3.5z" />
</svg>
