<?xml version="1.0" standalone="no"?>
<!DOCTYPE svg PUBLIC "-//W3C//DTD SVG 1.1//EN" "http://www.w3.org/Graphics/SVG/1.1/DTD/svg11.dtd" >
<svg xmlns="http://www.w3.org/2000/svg" xmlns:xlink="http://www.w3.org/1999/xlink" version="1.1" viewBox="-10 0 1092 1000">
   <path fill="currentColor"
d="M357 786q0 -30 -21 -51t-50 -21t-51 21t-21 51t21 50t51 21t50 -21t21 -50zM143 500h214v-143h-88q-8 1 -12 5l-109 109q-4 7 -5 12v17zM857 786q0 -30 -21 -51t-50 -21t-51 21t-21 51t21 50t51 21t50 -21t21 -50zM929 411v-107q0 -8 -5 -13t-13 -5h-125v-125
q0 -8 -5 -13t-13 -5h-107q-8 0 -13 5t-5 13v125h-125q-8 0 -13 5t-5 13v107q0 7 5 12t13 6h125v125q0 7 5 12t13 5h107q8 0 13 -5t5 -12v-125h125q8 0 13 -6t5 -12zM1071 107v643q0 14 -10 25t-25 11h-107q0 59 -42 101t-101 42t-101 -42t-42 -101h-214q0 59 -42 101
t-101 42t-101 -42t-42 -101h-72q-14 0 -25 -11t-10 -25t10 -25t25 -11v-232q0 -14 8 -32t18 -29l110 -110q11 -11 29 -18t32 -7h89v-179q0 -14 11 -25t25 -11h643q14 0 25 11t10 25z" />
</svg>
