<?xml version="1.0" standalone="no"?>
<!DOCTYPE svg PUBLIC "-//W3C//DTD SVG 1.1//EN" "http://www.w3.org/Graphics/SVG/1.1/DTD/svg11.dtd" >
<svg xmlns="http://www.w3.org/2000/svg" xmlns:xlink="http://www.w3.org/1999/xlink" version="1.1" viewBox="-10 0 1306 1000">
   <path fill="currentColor"
d="M576 536q-33 -1 -47 -31q-9 -19 -27 -30t-38 -11q-29 0 -50 21t-21 51.5t20 48.5l6 5q19 17 45 17q21 0 38 -11t27 -30q14 -29 47 -30zM893 464q0 -31 -20 -49l-6 -5q-19 -17 -46 -17q-20 0 -37 11t-27 30q-14 29 -47 30q33 1 47 31q9 19 27 30t37 11q30 0 51 -21t21 -51
zM655 341q-9 19 -31 27t-40 -3q-35 -17 -75 -17q-28 0 -55 10l5 -1q4 -1 5 0q52 0 95 28t67 74q9 20 2 41t-28 31q-10 5 -22 5q12 0 22 5q20 9 28 30t-2 41q-23 46 -67 74t-95 28l-28 -2l-161 -15l-134 67q-8 4 -16 4q-22 0 -32 -20l-89 -178q-6 -13 -2 -27t16 -21l117 -66
l82 -149q10 -87 51 -163t109 -132q18 -14 40 -12t36 19t12 40t-20 36q-39 33 -65 71q69 -47 149 -56q22 -3 40 10t20.5 36t-11.5 40t-36 20q-46 5 -88 31q25 -6 55 -6q64 0 122 28q20 10 27 31t-3 41zM1193 252l89 178q6 13 2 27t-16 21l-117 66l-82 149q-10 87 -51 163
t-109 132q-15 12 -35 12q-25 0 -41 -19q-14 -18 -12 -40t19 -36q40 -33 66 -71q-69 47 -149 56q-2 1 -7 1q-20 0 -35 -14t-18 -33q-3 -23 11 -40t35 -20q47 -6 89 -31q-26 6 -55 6q-64 0 -122 -28q-20 -10 -27 -31t2.5 -41t30.5 -27t41 2q35 18 75 18q28 0 55 -10q-2 0 -5 1
t-6 0q-51 0 -95 -28t-66 -74q-9 -20 -2 -41t28 -31q10 -5 22 -5q-12 0 -22 -5q-20 -9 -28 -30t2 -41q23 -47 66 -74t95 -28h4q8 1 24 2l162 15l134 -67q7 -4 16 -4q22 0 32 20z" />
</svg>
