<?xml version="1.0" standalone="no"?>
<!DOCTYPE svg PUBLIC "-//W3C//DTD SVG 1.1//EN" "http://www.w3.org/Graphics/SVG/1.1/DTD/svg11.dtd" >
<svg xmlns="http://www.w3.org/2000/svg" xmlns:xlink="http://www.w3.org/1999/xlink" version="1.1" viewBox="-10 0 1020 1000">
   <path fill="currentColor"
d="M47 186q-19 0 -33 13.5t-14 32.5v535q0 19 14 33t33 14h907q19 0 32.5 -14t13.5 -33v-535q0 -19 -13.5 -32.5t-32.5 -13.5h-907zM37 318h73l10 19v-19h85l19 42l18 -42h271q22 0 32 9v-9h74v9q17 -9 47 -9h107l10 19v-19h80l11 19v-19h77v164h-78l-15 -25v25h-98l-10 -27
h-24l-11 27h-51q-25 0 -45 -10v10h-121v-38q0 -4 -0.5 -4.5t-3.5 -0.5h-4v43h-234v-21l-8 21h-49l-8 -20v20h-94l-11 -27h-24l-11 27h-48v-86zM3 459h31l11 -26h58l10 26h57v-92l41 92h24l41 -92v92h29v-118h-47l-33 80l-37 -80h-46v112l-47 -112h-42zM326 341v118h93v-24
h-66v-24h64v-24h-64v-21h66v-25h-93zM439 341v118h28v-43h30q15 0 20 5.5t5 22.5v15h28v-23q0 -15 -5 -22q-3 -5 -13 -10q7 -3 12 -10q7 -8 7 -21q0 -18 -14 -26q-11 -6 -34 -6h-64zM567 341v118h29v-118h-29zM667 341q-29 0 -43 14q-15 16 -15 46t15 45q13 13 41 13h32
l11 -26h58l11 26h57v-88l53 88h39v-118h-28v82l-49 -82h-43v112l-47 -112h-42l-40 93h-12q-12 0 -20 -6q-7 -8 -7 -28t8 -26q4 -4 8.5 -5.5t12.5 -1.5h27v-26h-27zM73 361l19 47h-37zM737 361l20 47h-39zM467 366h34q10 0 13 2q6 3 6 10.5t-6 10.5q-3 3 -13 3h-34v-26z
M201 519h150l22 25l23 -25h101q28 0 39 10v-10h90q24 0 38 10v-10h136v10q10 -10 34 -10h76v10q13 -10 35 -10h52v24h-56q-20 0 -31 11q-9 10 -9 24q0 17 10 26q7 6 22 8q5 1 27 2q7 0 10 2t3 7.5t-3 8.5t-11 3h-54v25h54q28 0 38 -15v31q-15 7 -41 7h-73v-10q-13 10 -38 10
h-228v-38q0 -3 -0.5 -4t-4.5 -1h-3v43h-76v-44q-14 6 -39 6h-8v38h-92l-22 -25l-24 25h-147v-164zM226 543v118h110l36 -39l35 39h54v-40h35q49 0 49 -39t-48 -39h-89l-35 39l-35 -39h-112zM557 543v118h28v-43h30q15 0 21 5q3 3 4 11v27h28v-24q0 -14 -4 -21t-14 -10
q7 -3 13 -10q7 -9 7 -21q0 -18 -15 -26q-11 -6 -33 -6h-65zM685 543v118h94v-25h-66v-23h64v-24h-64v-22h66v-24h-94zM832 543q-20 0 -31 11q-9 10 -9 24q0 17 10 26q7 6 22 8q5 1 27 2q7 0 10 3t3 8t-2.5 7.5t-12.5 2.5h-54v26h55q44 0 44 -38q0 -17 -9 -24q-9 -10 -32 -10
h-15q-5 0 -11 -2t-6 -8.5t5 -8.5q2 -2 11 -2h51v-25h-56zM433 556v94l-43 -48zM253 567h71l30 35l-32 34h-69v-23h62v-24h-62v-22zM461 567h36q17 0 17 15.5t-17 15.5h-36v-31zM586 567h34q10 0 14.5 2.5t4.5 10.5t-4.5 10.5t-14.5 2.5h-34v-26zM946 568h51v34l-3 -3
q-4 -5 -11.5 -7t-20.5 -3h-15q-8 0 -10 -1q-7 -4 -7 -9.5t5 -8.5q2 -2 11 -2z" />
</svg>
