<?xml version="1.0" standalone="no"?>
<!DOCTYPE svg PUBLIC "-//W3C//DTD SVG 1.1//EN" "http://www.w3.org/Graphics/SVG/1.1/DTD/svg11.dtd" >
<svg xmlns="http://www.w3.org/2000/svg" xmlns:xlink="http://www.w3.org/1999/xlink" version="1.1" viewBox="-10 0 958 1000">
   <path fill="currentColor"
d="M416 174q0 -52 53 -52t52 52t-52 53t-53 -53zM53 434q0 -63 46 -110t110 -46h21q-21 -47 -21 -104q0 -107 76 -183t184 -77t184 77t76 183q0 57 -21 104h21q45 0 80 23t56 56q20 35 20 77q0 33 -10 58q63 46 63 125q0 134 -67 240t-167 166q-110 63 -235 63
q-99 0 -185 -39t-146 -99t-99 -146t-39 -185q0 -79 63 -125q-10 -25 -10 -58zM156 564q-21 0 -37 16t-15 37q0 150 107 258t258 107t257 -107t108 -258q0 -21 -16 -37t-37 -16t-37 16t-15 37q0 95 -61 166t-147 89v-385h208q21 0 37 -16t15 -37t-15 -36t-37 -15h-208v-62
q45 -17 75 -55t29 -92q0 -65 -46 -110t-110 -46t-111 46t-45 110q0 52 30 91t73 56v62h-207q-21 0 -37 15t-16 36t16 37t37 16h207v385q-86 -17 -147 -89t-60 -166q0 -21 -16 -37t-37 -16zM225 539q35 32 35 78q0 119 105 180v-258h-140zM573 797q45 -26 75 -73t30 -107
q0 -46 35 -78h-140v258zM416 174q0 -52 53 -52t52 52t-52 53t-53 -53z" />
</svg>
