<?xml version="1.0" standalone="no"?>
<!DOCTYPE svg PUBLIC "-//W3C//DTD SVG 1.1//EN" "http://www.w3.org/Graphics/SVG/1.1/DTD/svg11.dtd" >
<svg xmlns="http://www.w3.org/2000/svg" xmlns:xlink="http://www.w3.org/1999/xlink" version="1.1" viewBox="-11 0 836 1000">
   <path fill="currentColor"
d="M-1 648q0 -8 5 -13l102 -123l22 28l78 96q5 6 4 14t-7 12q-11 8 -23 0l-23 -19q16 60 63 101t113 54q6 1 11 0t10 -7t6 -20v-389q0 -10 -6 -16t-11 -7l-6 -1h-40q-19 0 -33 -13t-14 -34t14 -33t33 -13h42q2 -1 3 -1t5 -2t5 -3l4 -4q3 -3 3 -6t1 -8v-10q-31 -14 -49 -43
t-19 -64q0 -47 34 -81t81 -34t82 34t34 81q0 36 -19 64t-50 43v10q0 5 1 8t4 6l4 4q1 1 5 3t4 1t3 2h43q19 0 33 13t14 32.5t-14 33.5t-33 14h-41q-2 0 -6 1t-11 7t-6 15v390q0 13 6 20t11 7h10q67 -14 114 -54t63 -101l-23 19q-6 5 -13 4t-13 -7q-8 -12 0 -23l78 -96
l21 -28l103 123q4 6 4 15t-6.5 14t-14.5 5t-13 -5l-30 -25q-17 102 -87 179t-171 102q-1 1 -2 1q-14 3 -24 13t-14 21q-4 16 -17 26t-29 10t-29 -10t-16 -26q-3 -12 -14 -21t-24 -13q-2 0 -3 -1q-100 -26 -170 -102t-88 -179l-29 25q-6 6 -15 5t-14.5 -7.5t-5.5 -13.5z
M350 124q0 20 10 35v-5q0 -20 14 -33t33 -14t33 13t14 34v5q11 -16 11 -35q0 -23 -17 -40t-41 -16t-40 16t-17 40z" />
</svg>
