<?xml version="1.0" standalone="no"?>
<!DOCTYPE svg PUBLIC "-//W3C//DTD SVG 1.1//EN" "http://www.w3.org/Graphics/SVG/1.1/DTD/svg11.dtd" >
<svg xmlns="http://www.w3.org/2000/svg" xmlns:xlink="http://www.w3.org/1999/xlink" version="1.1" viewBox="-10 0 941 1000">
   <path fill="currentColor"
d="M0 649v-269q0 -26 19 -45t44.5 -18.5t44.5 18.5t18 45v269q0 26 -18 44t-45 19t-44 -19t-19 -44zM173 749v-418h574v418q0 26 -18 44t-45 19h-448q-26 0 -44 -19t-19 -44zM173 284h574q0 -115 -85 -189t-202 -74t-202 74t-85 189zM274 -32q0 -8 7 -8q3 0 7 2l49 89l-15 8
q-48 -88 -48 -91zM289 775q0 -27 19 -45t47 -18q25 0 44 19t19 44v202q0 28 -19 46t-47 17q-26 0 -44 -18t-19 -45v-202zM294 155q0 -16 12 -28t28 -11t28 11t11.5 27.5t-11.5 28.5t-29 12q-16 0 -27 -12t-12 -28zM502 775q0 -27 20 -45t46 -18t45 18t18 45v202q0 28 -19 46
t-47 17q-26 0 -44 -18t-19 -45v-202zM547 155q0 -16 12 -28t28 -11t28 11t11.5 27.5t-12.5 28.5t-28 12t-27 -12t-12 -28zM583 51q2 -3 14 -29t24 -44t18 -18t7 9v2l-48 89zM794 649v-268q0 -26 19 -45t44 -19t45 19t18 45v268q0 26 -18 44t-45 19t-45 -19t-18 -44z" />
</svg>
