<?xml version="1.0" standalone="no"?>
<!DOCTYPE svg PUBLIC "-//W3C//DTD SVG 1.1//EN" "http://www.w3.org/Graphics/SVG/1.1/DTD/svg11.dtd" >
<svg xmlns="http://www.w3.org/2000/svg" xmlns:xlink="http://www.w3.org/1999/xlink" version="1.1" viewBox="-10 0 728 1000">
   <path fill="currentColor"
d="M532 211l-64 183l66 12q92 -252 92 -289q0 -32 -22 -32q-31 0 -72 126zM365 594l18 49q21 -23 40 -37l-40 -7q-22 -4 -18 -5zM202 94q0 55 89 291q9 -6 27 -6q9 0 42 3l-68 -196q-41 -122 -68 -122q-11 0 -16 9t-6 21zM158 518q0 20 29 66t65 86t56 39q8 0 14 -8t7 -15
q0 -13 -18 -57q-7 -17 -18 -40t-26 -49t-35 -46t-34 -17q-12 0 -26 15t-14 26zM70 705q0 23 14 58q33 81 102 127t157 45q127 0 212.5 -94.5t85.5 -238.5v-37q0 -13 -7 -35t-17 -31q-31 -28 -118 -42t-151 -15q-20 0 -27 6q-7 3 -7 21t12 32t31 22t43 14t49 6t48 2t39 0h13
q13 0 21.5 10.5t11.5 30.5q-16 16 -54 31q-34 12 -52 25q-36 26 -60 64t-25 76q0 18 10 50t10 49l-1 6q-3 7 -3 8q-76 -5 -81 -120q-5 1 -23 1q1 4 1 11q0 30 -22 50t-53 21q-46 0 -93 -44t-47 -89q0 -19 18 -37l34 42q43 58 74 58q7 0 15 -4t8 -12q0 -19 -49 -81t-65 -62
q-24 0 -39 25t-15 51zM6 710q0 -57 24 -91t76 -49q-16 -42 -16 -58q0 -35 34 -69t69 -34q16 0 39 8q-91 -257 -91 -316q0 -45 23 -73t66 -28q73 0 181 324l5 13l40 -110q11 -31 30 -72t36 -68t40 -49t42 -20q40 0 63 28t23 68q0 60 -89 307q34 8 56 25t33 44t14 52t4 62
q0 83 -26 156t-74 126t-117 83t-156 31q-62 0 -124 -23q-83 -32 -144 -107t-61 -160z" />
</svg>
