<?xml version="1.0" standalone="no"?>
<!DOCTYPE svg PUBLIC "-//W3C//DTD SVG 1.1//EN" "http://www.w3.org/Graphics/SVG/1.1/DTD/svg11.dtd" >
<svg xmlns="http://www.w3.org/2000/svg" xmlns:xlink="http://www.w3.org/1999/xlink" version="1.1" viewBox="-10 0 736 1000">
   <path fill="currentColor"
d="M0 714q0 -63 28 -98q23 -31 74 -45q-16 -40 -16 -59q0 -33 35 -70q37 -35 69 -35q17 0 40 9q-48 -137 -69 -208q-24 -81 -24 -115q0 -48 24.5 -75.5t66.5 -27.5q72 0 173 295l17 49q6 -15 12 -33q100 -292 180 -292q40 0 63.5 27t23.5 70q0 28 -24 113q-21 73 -66 200
q57 14 82 54q27 43 27 133q0 178 -107 291t-273 113q-66 0 -127 -24q-59 -21 -107 -66q-51 -48 -76 -99q-26 -54 -26 -107zM65 709q0 25 14 59q13 32 39 67q41 53 97.5 81t128.5 28q129 0 216.5 -96.5t87.5 -243.5q0 -46 -6 -71q-5 -22 -19 -34q-27 -23 -106 -40.5
t-168 -17.5q-22 0 -28 6q-7 3 -7 20q0 41 46 58q50 21 165 21h28q16 0 23 11q8 8 11 31q-17 17 -55 31q-36 13 -53 26q-40 29 -63.5 68.5t-23.5 74.5q0 21 10 51q11 33 11 43v6l-4 15q-44 -3 -64 -41q-17 -32 -19 -82q-3 1 -12 1h-11q1 5 1 12q0 30 -23 51t-54 21
q-47 0 -95 -45.5t-48 -89.5q0 -8 3 -16q1 -7 16 -22q25 31 34 43q42 59 76 59q9 0 16 -6t7 -10q0 -8 -12 -29q-8 -15 -37 -53q-28 -36 -44 -50t-23 -14q-19 0 -37 22t-18 55zM155 518q0 13 16 45q14 27 45 67.5t56 62.5q24 20 36 20q7 0 14 -7.5t7 -15.5q0 -12 -18 -58
q-21 -51 -46 -92q-22 -35 -38.5 -49.5t-31.5 -14.5q-11 0 -25.5 15t-14.5 27zM200 86q0 34 24 107q22 71 66 190q10 -6 28 -6h7q6 0 10 0.5t26 2.5l-69 -200q-28 -80 -44 -104q-13 -21 -26 -21q-9 0 -15.5 8.5t-6.5 22.5zM366 596q9 23 19 50q20 -23 40 -38l-15 -3
q-10 -2 -15 -2q-20 -4 -29 -7zM471 392l67 12q45 -124 69 -199q25 -81 25 -96.5t-7 -24.5q-4 -7 -15 -7q-14 0 -31 27q-19 29 -43 101z" />
</svg>
