<?xml version="1.0" standalone="no"?>
<!DOCTYPE svg PUBLIC "-//W3C//DTD SVG 1.1//EN" "http://www.w3.org/Graphics/SVG/1.1/DTD/svg11.dtd" >
<svg xmlns="http://www.w3.org/2000/svg" xmlns:xlink="http://www.w3.org/1999/xlink" version="1.1" viewBox="-10 0 652 1000">
   <path fill="currentColor"
d="M600 732q0 7 -6 13l-28 28q-5 5 -12 5t-13 -5l-220 -219l-219 219q-5 5 -13 5t-12 -5l-28 -28q-6 -6 -6 -13t6 -13l260 -260q5 -5 12 -5t13 5l260 260q6 6 6 13zM600 518q0 7 -6 13l-28 28q-5 5 -12 5t-13 -5l-220 -220l-219 220q-5 5 -13 5t-12 -5l-28 -28q-6 -6 -6 -13
t6 -13l260 -260q5 -6 12 -6t13 6l260 260q6 6 6 13z" />
</svg>
