<?xml version="1.0" standalone="no"?>
<!DOCTYPE svg PUBLIC "-//W3C//DTD SVG 1.1//EN" "http://www.w3.org/Graphics/SVG/1.1/DTD/svg11.dtd" >
<svg xmlns="http://www.w3.org/2000/svg" xmlns:xlink="http://www.w3.org/1999/xlink" version="1.1" viewBox="-10 0 584 1000">
   <path fill="currentColor"
d="M350 768q0 7 -6 13l-28 28q-5 5 -12 5t-13 -5l-260 -261q-6 -5 -6 -12t6 -13l260 -260q5 -6 13 -6t12 6l28 28q6 5 6 13t-6 12l-219 220l219 219q6 6 6 13zM564 768q0 7 -5 13l-28 28q-6 5 -13 5t-13 -5l-260 -261q-6 -5 -6 -12t6 -13l260 -260q6 -6 13 -6t13 6l28 28
q5 5 5 13t-5 12l-220 220l220 219q5 6 5 13z" />
</svg>
