<?xml version="1.0" standalone="no"?>
<!DOCTYPE svg PUBLIC "-//W3C//DTD SVG 1.1//EN" "http://www.w3.org/Graphics/SVG/1.1/DTD/svg11.dtd" >
<svg xmlns="http://www.w3.org/2000/svg" xmlns:xlink="http://www.w3.org/1999/xlink" version="1.1" viewBox="-11 0 879 1000">
   <path fill="currentColor"
d="M454 725l253 -254q11 -10 11 -25t-11 -25l-57 -57q-10 -10 -25 -10t-25 10l-171 172l-172 -172q-10 -10 -25 -10t-25 10l-57 57q-10 11 -10 25t10 25l254 254q10 10 25 10t25 -10zM857 500q0 117 -57 215t-156 156t-215 58t-216 -58t-155 -156t-58 -215t58 -215t155 -156
t216 -58t215 58t156 156t57 215z" />
</svg>
