<?xml version="1.0" standalone="no"?>
<!DOCTYPE svg PUBLIC "-//W3C//DTD SVG 1.1//EN" "http://www.w3.org/Graphics/SVG/1.1/DTD/svg11.dtd" >
<svg xmlns="http://www.w3.org/2000/svg" xmlns:xlink="http://www.w3.org/1999/xlink" version="1.1" viewBox="-11 0 879 1000">
   <path fill="currentColor"
d="M650 636l57 -57q11 -11 11 -25t-11 -26l-253 -253q-11 -11 -25 -11t-25 11l-254 253q-10 11 -10 26t10 25l57 57q11 10 25 10t25 -10l172 -172l171 172q11 10 25 10t25 -10zM857 500q0 117 -57 215t-156 156t-215 58t-216 -58t-155 -156t-58 -215t58 -215t155 -156
t216 -58t215 58t156 156t57 215z" />
</svg>
