<?xml version="1.0" standalone="no"?>
<!DOCTYPE svg PUBLIC "-//W3C//DTD SVG 1.1//EN" "http://www.w3.org/Graphics/SVG/1.1/DTD/svg11.dtd" >
<svg xmlns="http://www.w3.org/2000/svg" xmlns:xlink="http://www.w3.org/1999/xlink" version="1.1" viewBox="-10 0 581 1000">
   <path fill="currentColor"
d="M332 536q0 7 -5 12l-261 261q-5 5 -12 5t-13 -5l-28 -28q-6 -6 -6 -13t6 -13l219 -219l-219 -220q-6 -5 -6 -12t6 -13l28 -28q5 -6 13 -6t12 6l261 260q5 5 5 13zM546 536q0 7 -5 12l-260 261q-6 5 -13 5t-13 -5l-28 -28q-5 -6 -5 -13t5 -13l219 -219l-219 -220
q-5 -5 -5 -12t5 -13l28 -28q6 -6 13 -6t13 6l260 260q5 5 5 13z" />
</svg>
