<?xml version="1.0" standalone="no"?>
<!DOCTYPE svg PUBLIC "-//W3C//DTD SVG 1.1//EN" "http://www.w3.org/Graphics/SVG/1.1/DTD/svg11.dtd" >
<svg xmlns="http://www.w3.org/2000/svg" xmlns:xlink="http://www.w3.org/1999/xlink" version="1.1" viewBox="-10 0 938 1000">
   <path fill="currentColor"
d="M608 443l-225 -382q47 -8 81 -8q177 0 304 120zM575 611l233 -395q103 125 103 283q0 53 -16 112h-320zM479 331h-427q37 -91 109 -158t167 -97zM455 666h423q-37 90 -108 157t-165 99zM356 388l-234 396q-104 -126 -104 -285q0 -52 16 -111h322zM323 553l227 385
q-48 9 -86 9q-172 0 -302 -121z" />
</svg>
