<?xml version="1.0" standalone="no"?>
<!DOCTYPE svg PUBLIC "-//W3C//DTD SVG 1.1//EN" "http://www.w3.org/Graphics/SVG/1.1/DTD/svg11.dtd" >
<svg xmlns="http://www.w3.org/2000/svg" xmlns:xlink="http://www.w3.org/1999/xlink" version="1.1" viewBox="-10 0 938 1000">
   <path fill="currentColor"
d="M864 303q47 97 47 196q0 36 -9 82h-316zM606 478v-400q145 48 228 172zM485 640h401q-50 146 -172 230zM547 381l-281 -280q96 -48 198 -48q38 0 83 8v320zM383 621l277 279q-97 47 -196 47q-34 0 -81 -9v-317zM323 521v401q-145 -48 -228 -173zM26 417h317l-278 278
q-47 -97 -47 -196q0 -36 8 -82zM214 130l228 228h-399q48 -145 171 -228z" />
</svg>
