<?xml version="1.0" standalone="no"?>
<!DOCTYPE svg PUBLIC "-//W3C//DTD SVG 1.1//EN" "http://www.w3.org/Graphics/SVG/1.1/DTD/svg11.dtd" >
<svg xmlns="http://www.w3.org/2000/svg" xmlns:xlink="http://www.w3.org/1999/xlink" version="1.1" viewBox="-10 0 1147 1000">
   <path fill="currentColor"
d="M2 436q9 -158 74 -265q49 -80 96 -114t138 -49q30 -5 57 -6t51 4t44 12t39 20t33 25t30 32l27 34q11 14 24 39t21 39t20 41q7 14 14 30l28 66q8 -48 57 -188t67 -145q91 -21 145 0q4 2 9 8l7 8q-1 18 -6 38l-8 33q-3 13 -13 36t-12 31l-160 439q-7 34 19 90t67 93t74 22
q10 -5 18 -21t14 -21q18 -15 71 -16t67 19q16 29 11 62t-31 67t-59 57t-74 36t-74 5q-29 -6 -54 -18t-41 -26t-34 -36t-27 -39t-27 -45t-26 -44q-4 2 -6 4q-24 58 -81 107t-127 75t-150 19t-145 -54q-85 -62 -131 -204t-36 -300zM154 424q-13 108 9 211t73 141q28 21 56 30
t52 12t49 -10t43 -21t41 -35t35 -39t33 -46t28 -43t24 -42l8 -14q-38 -161 -64 -223q-73 -173 -202 -155q-56 8 -81 22t-50 49q-41 55 -54 163z" />
</svg>
