<?xml version="1.0" standalone="no"?>
<!DOCTYPE svg PUBLIC "-//W3C//DTD SVG 1.1//EN" "http://www.w3.org/Graphics/SVG/1.1/DTD/svg11.dtd" >
<svg xmlns="http://www.w3.org/2000/svg" xmlns:xlink="http://www.w3.org/1999/xlink" version="1.1" viewBox="-10 0 880 1000">
   <path fill="currentColor"
d="M1 499q-1 18 -1 36q0 68 20 144q26 97 83 184q89 136 172 137q30 0 78 -21t95 -21h4q46 0 91 20q47 22 76 22q49 -1 91 -41t85 -104q31 -48 65 -121q-50 -19 -85 -57t-48 -85q-10 -35 -9 -70v-24q4 -48 34 -92t78 -70q-38 -48 -89 -75t-103 -27q-48 0 -105 21t-86.5 21.5
t-89.5 -21.5t-102 -21q-58 0 -114 33t-96 93q-37 56 -44 139zM416 241q-3 -15 -3 -30q0 -65 53 -129q27 -33 70 -56t82 -26q2 15 2 30q0 69 -50 132q-28 36 -69.5 58t-80.5 21h-4z" />
</svg>
