<?xml version="1.0" standalone="no"?>
<!DOCTYPE svg PUBLIC "-//W3C//DTD SVG 1.1//EN" "http://www.w3.org/Graphics/SVG/1.1/DTD/svg11.dtd" >
<svg xmlns="http://www.w3.org/2000/svg" xmlns:xlink="http://www.w3.org/1999/xlink" version="1.1" viewBox="-10 0 1010 1000">
   <path fill="currentColor"
d="M286 5q0 -64 47 -110t110 -47q65 0 111 47l241 241q31 11 56 36q139 139 139 326q0 205 -145 350q-67 67 -147 103q5 19 5 44q0 64 -46 110t-110 46t-111 -46l-243 -244q-30 -11 -54 -35q-139 -139 -139 -326q0 -205 145 -350q68 -68 148 -103q-7 -22 -7 -42zM514 889
q149 -5 257 -114q114 -114 114 -277q0 -145 -107 -252q-15 -15 -37 -15t-37 15t-15 37t15 37q42 42 60 83t17 95q0 119 -83 203q-75 75 -179 82l65 -65q15 -15 15 -36t-15 -37t-36 -15q-23 0 -38 15l-192 193l192 193q15 15 37 15t37 -15t15 -37t-15 -37zM474 110
q-149 7 -255 113q-115 115 -115 277q0 145 107 252q15 15 37 15t37 -15t15 -37t-15 -37q-42 -42 -59 -82t-17 -96q0 -119 84 -203q76 -76 180 -84l-67 68q-15 15 -15 36t15 36q17 17 37.5 17t36.5 -17l193 -192l-193 -193q-16 -16 -36.5 -16t-37.5 16q-15 15 -15 37t15 36z
M339 325q-79 71 -79 175q0 45 14 75t49 66q37 37 28 89l123 -122q31 -31 73 -31t72 28t32 68q78 -71 78 -175q0 -45 -13 -76t-48 -66t-29 -88l-123 123q-30 30 -72.5 30t-72.5 -28t-32 -68z" />
</svg>
