<?xml version="1.0" standalone="no"?>
<!DOCTYPE svg PUBLIC "-//W3C//DTD SVG 1.1//EN" "http://www.w3.org/Graphics/SVG/1.1/DTD/svg11.dtd" >
<svg xmlns="http://www.w3.org/2000/svg" xmlns:xlink="http://www.w3.org/1999/xlink" version="1.1" viewBox="-10 0 801 1000">
   <path fill="currentColor"
d="M781 498q0 162 -115 277q-108 109 -256 114l70 68q15 15 15 37t-15 37t-37 15t-37 -15l-193 -193l193 -193q15 -15 37 -15t37 15t15 37t-15 36l-65 65q104 -7 179 -82q84 -84 84 -203q0 -55 -18 -95t-60 -83q-15 -15 -15 -37t15 -37t37 -15t37 15q107 107 107 252z
M104 500q0 55 17 95t60 83q15 15 15 37t-15 37t-36.5 15t-36.5 -15q-108 -107 -108 -252q0 -162 115 -277q106 -106 255 -113l-69 -69q-15 -15 -15 -36t15 -37t37 -15t37 15l194 193l-194 192q-16 17 -36.5 17t-37.5 -17q-15 -15 -15 -36t15 -36l67 -68q-104 8 -180 84
q-84 84 -84 203z" />
</svg>
