<?xml version="1.0" standalone="no"?>
<!DOCTYPE svg PUBLIC "-//W3C//DTD SVG 1.1//EN" "http://www.w3.org/Graphics/SVG/1.1/DTD/svg11.dtd" >
<svg xmlns="http://www.w3.org/2000/svg" xmlns:xlink="http://www.w3.org/1999/xlink" version="1.1" viewBox="-10 0 878 1000">
   <path fill="currentColor"
d="M843 589v4q-36 150 -150 243t-267 93q-81 0 -157 -31t-136 -88l-72 72q-11 11 -25 11t-25 -11t-11 -25v-250q0 -14 11 -25t25 -11h250q14 0 25 11t10 25t-10 25l-77 77q40 36 90 57t105 20q74 0 139 -37t104 -99q6 -10 30 -66q4 -13 16 -13h107q8 0 13 6t5 12zM857 143
v250q0 14 -10 25t-26 11h-250q-14 0 -25 -11t-10 -25t10 -25l77 -77q-82 -77 -194 -77q-75 0 -140 37t-104 99q-6 10 -29 66q-5 13 -17 13h-111q-7 0 -13 -6t-5 -12v-4q36 -150 151 -243t268 -93q81 0 158 31t137 88l72 -72q11 -11 25 -11t26 11t10 25z" />
</svg>
