<?xml version="1.0" standalone="no"?>
<!DOCTYPE svg PUBLIC "-//W3C//DTD SVG 1.1//EN" "http://www.w3.org/Graphics/SVG/1.1/DTD/svg11.dtd" >
<svg xmlns="http://www.w3.org/2000/svg" xmlns:xlink="http://www.w3.org/1999/xlink" version="1.1" viewBox="-11 0 842 1000">
   <path fill="currentColor"
d="M186 710l116 -116v292l-276 -16l88 -86q-116 -122 -114 -290t120 -288q100 -100 240 -116l4 102q-100 16 -172 88q-88 88 -90 213t84 217zM518 112l276 16l-88 86q116 122 114 290t-120 288q-96 98 -240 118l-2 -104q98 -16 170 -88q88 -88 90 -213t-84 -217l-114 116z
" />
</svg>
