<?xml version="1.0" standalone="no"?>
<!DOCTYPE svg PUBLIC "-//W3C//DTD SVG 1.1//EN" "http://www.w3.org/Graphics/SVG/1.1/DTD/svg11.dtd" >
<svg xmlns="http://www.w3.org/2000/svg" xmlns:xlink="http://www.w3.org/1999/xlink" version="1.1" viewBox="-10 0 970 1000">
   <path fill="currentColor"
d="M400 125q-88 0 -168 33q-70 29 -126 79q-50 46 -79 99q-27 50 -27 89q0 78 38 125q40 50 112 50q78 0 113 22q37 23 37 78q0 49 23 89t63 63t89 23q155 0 268 -52q101 -47 156 -129q51 -78 51 -169q0 -211 -162 -313q-140 -87 -388 -87zM338 225q26 0 44 18t18 44
t-18 44.5t-44 18.5t-44.5 -18.5t-18.5 -44.5t18.5 -44t44.5 -18zM538 225q26 0 44 18t18 44t-18 44.5t-44 18.5t-44.5 -18.5t-18.5 -44.5t18.5 -44t44.5 -18zM738 325q26 0 44 18t18 44t-18 44.5t-44 18.5t-44.5 -18.5t-18.5 -44.5t18.5 -44t44.5 -18zM163 375q26 0 44 18
t18 44t-18 44.5t-44 18.5t-44.5 -18.5t-18.5 -44.5t18.5 -44t44.5 -18zM475 625q31 0 53 22t22 53t-22 53t-53 22t-53 -22t-22 -53t22 -53t53 -22z" />
</svg>
