<?xml version="1.0" standalone="no"?>
<!DOCTYPE svg PUBLIC "-//W3C//DTD SVG 1.1//EN" "http://www.w3.org/Graphics/SVG/1.1/DTD/svg11.dtd" >
<svg xmlns="http://www.w3.org/2000/svg" xmlns:xlink="http://www.w3.org/1999/xlink" version="1.1" viewBox="-10 0 938 1000">
   <path fill="currentColor"
d="M911 165h-893v-112h893v112zM576 388h-558v-112h558v112zM911 613h-893v-111h893v111zM18 890q0 -56 56 -56t56 56.5t-56 56.5t-56 -57zM298 834q22 0 39 17t16 39t-16 40t-39 17.5t-40 -17.5t-17 -40t17 -39t40 -17zM464 890q0 -56 56 -56t56 56.5t-56 56.5t-56 -57z
" />
</svg>
