<?xml version="1.0" standalone="no"?>
<!DOCTYPE svg PUBLIC "-//W3C//DTD SVG 1.1//EN" "http://www.w3.org/Graphics/SVG/1.1/DTD/svg11.dtd" >
<svg xmlns="http://www.w3.org/2000/svg" xmlns:xlink="http://www.w3.org/1999/xlink" version="1.1" viewBox="-10 0 1020 1000">
   <path fill="currentColor"
d="M589 464q0 15 11 25t25 11t25 -11t11 -25q0 -81 -58 -139t-139 -57t-139 57t-57 139q0 15 11 25t25 11t25 -11t10 -25q0 -52 37 -88t88 -37t89 37t36 88zM466 143q-65 0 -125 25t-102 69t-69 103t-25 124q0 15 10 25t25 11t25 -11t11 -25q0 -103 73 -176t177 -74t177 74
t73 176q0 31 -10 58t-21 42t-33 40q-19 22 -29 35t-24 37t-21 51t-7 59q0 59 -41 101t-101 42q-15 0 -25 10t-11 25t11 25t25 11q88 0 151 -63t63 -151q0 -23 4 -42t15 -35l19 -28q8 -12 25 -30l30 -36q11 -13 24 -38t21 -52t6 -61q0 -65 -25 -124t-69 -103t-102 -69
t-125 -25zM330 544l126 126l-323 323q-7 7 -16 7t-17 -7l-93 -93q-7 -7 -7 -17t7 -16zM900 7l93 93q7 7 7 17t-7 16l-184 184q-37 -85 -109 -144l167 -166q7 -7 16 -7t17 7z" />
</svg>
