<?xml version="1.0" standalone="no"?>
<!DOCTYPE svg PUBLIC "-//W3C//DTD SVG 1.1//EN" "http://www.w3.org/Graphics/SVG/1.1/DTD/svg11.dtd" >
<svg xmlns="http://www.w3.org/2000/svg" xmlns:xlink="http://www.w3.org/1999/xlink" version="1.1" viewBox="-11 0 1022 1000">
   <path fill="currentColor"
d="M71 964q0 15 -10 25t-25 11t-25 -11t-11 -25t11 -25t25 -10t25 10t10 25zM179 857q0 15 -11 25t-25 11t-25 -11t-11 -25t11 -25t25 -11t25 11t11 25zM204 653l143 143l-51 50l-142 -142zM393 643q0 14 -11 25t-25 11t-25 -11t-11 -25t11 -25t25 -11t25 11t11 25zM787 464
q0 33 -6 61t-21 52l-24 38q-9 14 -30 36q-17 19 -25 30t-19 28t-15 35t-4 42q0 88 -63 151t-151 63q-15 0 -25 -11t-11 -25t11 -25t25 -10q59 0 101 -42t41 -101q0 -32 7 -59t21 -51t24 -37t29 -35q22 -26 33 -40t21 -42t10 -58q0 -103 -73 -176t-177 -74t-177 74t-73 176
q0 15 -11 25t-25 11t-25 -11t-10 -25q0 -65 25 -124t69 -103t102 -69t125 -25t125 25t102 69t69 103t25 124zM500 536q0 14 -11 25t-25 10t-25 -10t-10 -25t10 -25t25 -11t25 11t11 25zM661 464q0 15 -11 25t-25 11t-25 -11t-11 -25q0 -52 -36 -88t-89 -37q-51 0 -88 37
t-37 88q0 15 -10 25t-25 11t-25 -11t-11 -25q0 -81 57 -139t139 -57t139 57t58 139zM881 303q5 14 -1 27t-20 19q-5 3 -14 3t-19 -7t-13 -16q-38 -100 -125 -165q-11 -9 -14 -23t7 -27q9 -11 24 -14t26 7q102 77 149 196zM998 258q5 14 -1 27t-20 19q-6 2 -13 2
q-24 0 -33 -23q-51 -132 -166 -219q-12 -9 -14 -23t7 -26.5t23 -14.5t27 7q131 98 190 251z" />
</svg>
