<?xml version="1.0" standalone="no"?>
<!DOCTYPE svg PUBLIC "-//W3C//DTD SVG 1.1//EN" "http://www.w3.org/Graphics/SVG/1.1/DTD/svg11.dtd" >
<svg xmlns="http://www.w3.org/2000/svg" xmlns:xlink="http://www.w3.org/1999/xlink" version="1.1" viewBox="-10 0 854 1000">
   <path fill="currentColor"
d="M416 83q173 0 295 122t123 295v26q0 65 -46 111t-110 45q-78 0 -125 -62q-57 62 -137 62q-75 0 -128 -54t-53 -128t53 -129t128 -54q59 0 108 36q12 -36 49 -36q21 0 36 16t16 37v156q0 21 16 36t37 15t36 -15t15 -36v-26q0 -130 -92 -222t-221 -91t-220 91t-92 222
t92 221t220 91q98 0 177 -54q17 -12 38 -8t34 22t8 39t-22 34q-103 71 -235 71q-172 0 -294 -122t-122 -294t122 -295t294 -122zM416 577q33 0 56 -23t23 -54t-23 -55t-56 -23q-31 0 -54 23t-23 55t23 55t54 22z" />
</svg>
