<?xml version="1.0" standalone="no"?>
<!DOCTYPE svg PUBLIC "-//W3C//DTD SVG 1.1//EN" "http://www.w3.org/Graphics/SVG/1.1/DTD/svg11.dtd" >
<svg xmlns="http://www.w3.org/2000/svg" xmlns:xlink="http://www.w3.org/1999/xlink" version="1.1" viewBox="-10 0 815 1000">
   <path fill="currentColor"
d="M770 302q25 64 25 138q0 51 -12 98t-34 84q-59 92 -163 92q-43 0 -70 -21q-20 -15 -30 -36q-20 25 -50 40t-63 15q-81 0 -123 -58q-41 -53 -41 -141q0 -44 12.5 -82t36.5 -66q25 -31 61 -47t80 -16q25 0 48.5 10t41.5 27l7 -26h85l-17 259q-2 34 9 43q5 8 20 8
q35 0 60 -34q21 -28 32 -75q10 -39 10 -74q0 -53 -17 -98t-50 -78q-75 -76 -209 -76q-63 0 -117.5 19.5t-96.5 56.5q-49 45 -75 107t-26 138q0 64 22 121.5t63 99.5q39 40 91 61t114 21q71 0 128.5 -11t112.5 -36l15 -7v96l-6 3q-101 50 -251 50q-81 0 -149 -24.5
t-120 -72.5q-60 -54 -92 -134t-32 -174q0 -89 29.5 -163.5t87.5 -130.5t132 -84q77 -31 169 -31q85 0 158.5 27.5t124.5 78.5q47 45 69 103zM386 619q46 0 69 -40q10 -17 14 -43q4 -21 4 -42q0 -43 -17 -74q-18 -28 -60 -28q-44 0 -63 38q-19 32 -19 83q0 39 12 65
q18 41 60 41z" />
</svg>
