<?xml version="1.0" standalone="no"?>
<!DOCTYPE svg PUBLIC "-//W3C//DTD SVG 1.1//EN" "http://www.w3.org/Graphics/SVG/1.1/DTD/svg11.dtd" >
<svg xmlns="http://www.w3.org/2000/svg" xmlns:xlink="http://www.w3.org/1999/xlink" version="1.1" viewBox="-11 0 960 1000">
   <path fill="currentColor"
d="M460 265q96 0 163 68t66 167v12q0 39 -24 65t-60 26t-64 -31q-28 31 -75 31q-43 0 -73 -30t-30 -73.5t30 -73.5t72 -30q28 0 53 15q6 -15 21 -15q20 0 20 26v90q0 16 11 28t28 12t27 -12t11 -28v-12q0 -75 -50 -129t-125 -54t-125 53t-51 130q0 75 54 128t129 54
q55 0 102 -31q13 -9 25 -1t14 20t-11 23q-62 42 -133 42q-96 0 -166 -70t-69 -165q0 -98 67 -167t163 -68zM468 552q21 0 36 -15t15 -37t-15 -37t-36 -16t-37 16t-16 37t16 37t37 15zM469 969q-194 0 -331 -138t-138 -331t138 -332t331 -137t331 137t138 332t-138 331
t-331 138zM469 135q-151 0 -258 107t-107 258t107 258t258 107t258 -107t107 -258t-107 -258t-258 -107z" />
</svg>
