<?xml version="1.0" standalone="no"?>
<!DOCTYPE svg PUBLIC "-//W3C//DTD SVG 1.1//EN" "http://www.w3.org/Graphics/SVG/1.1/DTD/svg11.dtd" >
<svg xmlns="http://www.w3.org/2000/svg" xmlns:xlink="http://www.w3.org/1999/xlink" version="1.1" viewBox="-11 0 878 1000">
   <path fill="currentColor"
d="M542 432q0 -60 -29 -94t-83 -34q-35 0 -69 17t-61 47t-45 77t-17 100q0 63 30 97t84 34t98 -37t69 -93t23 -114zM857 500q0 62 -20 110t-55 75t-74 42t-81 15h-8q-5 0 -10 1q-53 0 -79 -30q-15 -18 -18 -46q-29 37 -74 61t-96 25q-90 0 -140 -54t-49 -150q0 -88 37 -162
t100 -117t137 -43q48 0 86 19t60 56l1 -11l6 -31q0 -3 3 -7t5 -3h66q3 0 7 6q3 3 2 9l-67 343q-3 13 -3 26q0 22 7 29t25 8q16 -1 32 -3t41 -14t43 -28t31 -50t14 -76q0 -163 -97 -260t-260 -97q-73 0 -139 28t-114 76t-76 114t-29 139t29 139t76 113t114 77t139 28
q127 0 226 -80q6 -5 13 -5t12 7l23 27q4 7 3 14t-6 12q-57 46 -127 72t-144 25q-87 0 -167 -34t-136 -92t-92 -137t-34 -166t34 -166t92 -137t136 -92t167 -34q192 0 310 119t118 310z" />
</svg>
