<?xml version="1.0" standalone="no"?>
<!DOCTYPE svg PUBLIC "-//W3C//DTD SVG 1.1//EN" "http://www.w3.org/Graphics/SVG/1.1/DTD/svg11.dtd" >
<svg xmlns="http://www.w3.org/2000/svg" xmlns:xlink="http://www.w3.org/1999/xlink" version="1.1" viewBox="-10 0 1020 1000">
   <path fill="currentColor"
d="M0 751q0 -91 64 -155l456 -451q82 -82 199 -82t199 82t82 199t-82 199l-344 342q-21 23 -44 1t1 -44l338 -340q65 -63 65 -153t-65 -156t-155 -64t-153 64l-454 448q-44 45 -44 109t45 110t111 46t109 -45l457 -451q27 -27 27 -66t-27 -67t-66 -27t-67 27l-341 344
q-24 22 -45 -1t0 -44l341 -344q47 -44 112 -44t110 45t46 111t-45 111l-457 449q-64 65 -155 65t-154 -64t-64 -154z" />
</svg>
