<?xml version="1.0" standalone="no"?>
<!DOCTYPE svg PUBLIC "-//W3C//DTD SVG 1.1//EN" "http://www.w3.org/Graphics/SVG/1.1/DTD/svg11.dtd" >
<svg xmlns="http://www.w3.org/2000/svg" xmlns:xlink="http://www.w3.org/1999/xlink" version="1.1" viewBox="-10 0 804 1000">
   <path fill="currentColor"
d="M784 773q0 65 -45 109t-109 44q-75 0 -131 -55l-434 -434q-63 -64 -63 -152t62 -149t150 -61.5t152 62.5l338 338q5 5 5 13t-17 25t-25 17t-13 -5l-339 -339q-44 -43 -102 -43t-99 42t-40.5 100.5t42.5 101.5l433 433q35 36 81 36q36 0 59 -24t24 -59q0 -46 -35 -81
l-325 -324q-14 -14 -33 -14q-16 0 -27 11t-11 28t14 32l229 228q6 6 6 14t-18 25t-25 17t-13 -5l-229 -229q-35 -34 -35 -83q0 -46 32 -78t77 -32q49 0 84 35l324 325q56 54 56 131z" />
</svg>
