<?xml version="1.0" standalone="no"?>
<!DOCTYPE svg PUBLIC "-//W3C//DTD SVG 1.1//EN" "http://www.w3.org/Graphics/SVG/1.1/DTD/svg11.dtd" >
<svg xmlns="http://www.w3.org/2000/svg" xmlns:xlink="http://www.w3.org/1999/xlink" version="1.1" viewBox="-10 0 1134 1000">
   <path fill="currentColor"
d="M1113 294q0 67 -26 129t-74 110l-448 444l-62 -61l448 -444q74 -72 74 -178q0 -89 -58 -148t-148 -58q-102 0 -180 75l-493 489q-59 59 -59 133q0 57 37 94t94 36q75 0 134 -59l377 -372q53 -55 53 -97q0 -21 -16 -33t-38 -12q-48 0 -86 40l-340 336l-61 -61l339 -336
q66 -66 148 -66q58 0 100 37t42 94q0 78 -79 159l-377 372q-84 84 -196 84q-93 0 -155 -61t-63 -155q0 -110 84 -194l493 -489q104 -101 242 -101q125 0 210 84t84 209z" />
</svg>
