<?xml version="1.0" standalone="no"?>
<!DOCTYPE svg PUBLIC "-//W3C//DTD SVG 1.1//EN" "http://www.w3.org/Graphics/SVG/1.1/DTD/svg11.dtd" >
<svg xmlns="http://www.w3.org/2000/svg" xmlns:xlink="http://www.w3.org/1999/xlink" version="1.1" viewBox="-11 0 960 1000">
   <path fill="currentColor"
d="M244 990q-102 0 -170 -72q-72 -70 -74 -166t84 -190l496 -496q80 -80 174 -54q44 12 79 47t47 79q26 96 -54 176l-474 474q-40 40 -88 45t-80 -27q-30 -24 -27 -74t47 -92l332 -334q24 -26 50 0t0 50l-332 332q-44 44 -20 70q12 8 24 6q24 -4 46 -26l474 -474
q50 -50 34 -109t-76 -75q-54 -14 -108 36l-494 494q-66 76 -64 143t52 116t117 51t141 -62l496 -494q24 -24 50 -1t0 49l-496 496q-82 82 -186 82z" />
</svg>
