<?xml version="1.0" standalone="no"?>
<!DOCTYPE svg PUBLIC "-//W3C//DTD SVG 1.1//EN" "http://www.w3.org/Graphics/SVG/1.1/DTD/svg11.dtd" >
<svg xmlns="http://www.w3.org/2000/svg" xmlns:xlink="http://www.w3.org/1999/xlink" version="1.1" viewBox="-11 0 1022 1000">
   <path fill="currentColor"
d="M571 767v-106q0 -8 -5 -13t-12 -5h-108q-7 0 -12 5t-5 13v106q0 8 5 13t12 6h108q7 0 12 -6t5 -13zM570 559l10 -257q0 -6 -5 -10q-7 -6 -14 -6h-122q-6 0 -14 6q-5 4 -5 12l9 255q0 5 6 9t13 3h103q8 0 14 -3t5 -9zM563 37l428 786q20 35 -1 70q-9 17 -26 26t-35 10
h-858q-18 0 -35 -10t-26 -26q-21 -35 -1 -70l429 -786q9 -17 26 -27t36 -10t36 10t27 27z" />
</svg>
