<?xml version="1.0" standalone="no"?>
<!DOCTYPE svg PUBLIC "-//W3C//DTD SVG 1.1//EN" "http://www.w3.org/Graphics/SVG/1.1/DTD/svg11.dtd" >
<svg xmlns="http://www.w3.org/2000/svg" xmlns:xlink="http://www.w3.org/1999/xlink" version="1.1" viewBox="-11 0 1048 1000">
   <path fill="currentColor"
d="M991 664q64 107 12 199.5t-177 92.5h-625q-126 0 -177 -93q-53 -92 11 -199l309 -513q62 -107 169 -107t170 107zM514 302q-34 0 -58 24t-23 57t23 57t58 23t57 -23t23 -57t-23 -57t-57 -24zM601 743q8 -9 0 -17t-16 -4q-29 11 -36 11q-28 0 -13 -45l20 -64
q17 -51 -3 -88t-64 -40q-31 -2 -60 10t-41 23l-15 14q-8 9 0 17t16 3q25 -10 37 -10q28 0 13 45l-21 64q-18 54 4 91t72 38q30 0 57 -12t38 -22t12 -14z" />
</svg>
