<?xml version="1.0" standalone="no"?>
<!DOCTYPE svg PUBLIC "-//W3C//DTD SVG 1.1//EN" "http://www.w3.org/Graphics/SVG/1.1/DTD/svg11.dtd" >
<svg xmlns="http://www.w3.org/2000/svg" xmlns:xlink="http://www.w3.org/1999/xlink" version="1.1" viewBox="-10 0 1133 1000">
   <path fill="currentColor"
d="M1113 920q0 39 -27 60t-68 20h-923q-40 0 -67 -21t-28 -59q0 -30 18 -61l461 -804q33 -55 78 -55t76 55l462 805q18 32 18 60zM626 409v-146h-139v146q0 14 2 26t6 28t5 27l26 162h59l27 -162l6 -26q4 -16 6 -29t2 -26zM626 796q0 -29 -20 -49t-49 -20t-49 20t-21 49
t21 49t48 21q29 0 50 -21t20 -49z" />
</svg>
