<?xml version="1.0" standalone="no"?>
<!DOCTYPE svg PUBLIC "-//W3C//DTD SVG 1.1//EN" "http://www.w3.org/Graphics/SVG/1.1/DTD/svg11.dtd" >
<svg xmlns="http://www.w3.org/2000/svg" xmlns:xlink="http://www.w3.org/1999/xlink" version="1.1" viewBox="-10 0 367 1000">
   <path fill="currentColor"
d="M286 696v125q0 15 -11 25t-25 11h-143q-14 0 -25 -11t-11 -25v-125q0 -14 11 -25t25 -10h143q15 0 25 10t11 25zM303 107l-16 429q-1 14 -12 25t-25 10h-143q-14 0 -25 -10t-12 -25l-15 -429q-1 -14 10 -25t24 -11h179q14 0 25 11t10 25z" />
</svg>
