<?xml version="1.0" standalone="no"?>
<!DOCTYPE svg PUBLIC "-//W3C//DTD SVG 1.1//EN" "http://www.w3.org/Graphics/SVG/1.1/DTD/svg11.dtd" >
<svg xmlns="http://www.w3.org/2000/svg" xmlns:xlink="http://www.w3.org/1999/xlink" version="1.1" viewBox="-10 0 936 1000">
   <path fill="currentColor"
d="M905 773q11 19 11 45q0 39 -26.5 65t-63.5 26h-735q-37 0 -64 -26.5t-27 -64.5q0 -25 13 -45l368 -637q11 -21 32 -33t45.5 -12t45 12t32.5 33zM393 301v299h133v-299h-133zM460 670q-32 0 -53.5 21.5t-21.5 53.5t22 53.5t53 21.5t53 -21.5t22 -53t-21.5 -53.5t-53.5 -22
z" />
</svg>
