<?xml version="1.0" standalone="no"?>
<!DOCTYPE svg PUBLIC "-//W3C//DTD SVG 1.1//EN" "http://www.w3.org/Graphics/SVG/1.1/DTD/svg11.dtd" >
<svg xmlns="http://www.w3.org/2000/svg" xmlns:xlink="http://www.w3.org/1999/xlink" version="1.1" viewBox="-11 0 878 1000">
   <path fill="currentColor"
d="M429 71q116 0 215 58t156 156t57 215t-57 215t-156 156t-215 58t-216 -58t-155 -156t-58 -215t58 -215t155 -156t216 -58zM500 767v-106q0 -8 -5 -13t-12 -5h-107q-8 0 -13 5t-6 13v106q0 8 6 13t13 6h107q7 0 12 -6t5 -13zM499 575l10 -346q0 -7 -6 -10q-5 -5 -13 -5
h-123q-8 0 -13 5q-6 3 -6 10l10 346q0 6 5 10t14 4h103q8 0 13 -4t6 -10z" />
</svg>
