<?xml version="1.0" standalone="no"?>
<!DOCTYPE svg PUBLIC "-//W3C//DTD SVG 1.1//EN" "http://www.w3.org/Graphics/SVG/1.1/DTD/svg11.dtd" >
<svg xmlns="http://www.w3.org/2000/svg" xmlns:xlink="http://www.w3.org/1999/xlink" version="1.1" viewBox="-11 0 1307 1000">
   <path fill="currentColor"
d="M281 555h96l-1 -148zM854 499q0 -48 -28 -78t-82 -29h-30v216h29q51 0 81 -32t30 -77zM534 289v422q0 8 -5 13t-13 6h-121q-8 0 -13 -6t-5 -13v-35h-163l-30 45q-6 9 -16 9h-149q-12 0 -17 -10t2 -20l310 -422q5 -8 15 -8h186q7 0 13 6t6 13zM995 499q0 108 -70 169
t-181 62h-151q-8 0 -13 -6t-6 -13v-422q0 -8 6 -13t13 -6h150q111 0 182 61t70 168zM1082 500v16t-5 40t-12 57t-24 60t-42 57h-28q21 -25 37 -58t23 -62t12 -55t5 -41l1 -15q0 -4 -1 -12l-4 -34q-3 -26 -11 -51t-23 -62t-37 -69h24q23 26 40 59t26 63t13 53t6 39v15z
M1185 500q0 6 -1 16l-4 40q-3 30 -12 57t-25 60t-41 57h-29q21 -25 37 -58t23 -62t12 -55t5 -41l1 -15q0 -4 -1 -12l-4 -34q-3 -26 -11 -51t-22 -62t-37 -69h24q23 26 40 59t26 63t12 53t6 39zM1286 500q0 6 -1 16l-4 40q-3 30 -12 57t-25 60t-41 57h-28q21 -25 37 -58
t22 -62t12 -55t5 -41l1 -15q0 -4 -1 -12l-4 -34q-3 -26 -11 -51t-22 -62t-37 -69h24q23 26 40 59t26 63t12 53t6 39z" />
</svg>
