<?xml version="1.0" standalone="no"?>
<!DOCTYPE svg PUBLIC "-//W3C//DTD SVG 1.1//EN" "http://www.w3.org/Graphics/SVG/1.1/DTD/svg11.dtd" >
<svg xmlns="http://www.w3.org/2000/svg" xmlns:xlink="http://www.w3.org/1999/xlink" version="1.1" viewBox="-10 0 636 1000">
   <path fill="currentColor"
d="M496 619h3l117 223l-125 11l-78 92l-104 -164l-104 164l-84 -94l-121 -9l119 -225q1 9 10.5 23t38.5 29q18 7 37 7q22 0 33 -7q16 13 9 8q6 4 11 7q21 12 47 12q24 0 46 -12q5 -3 10 -7l8 -8q15 7 35 7q16 0 36 -7q27 -13 39 -29q10 -16 7 -11q4 -6 5 -12q2 2 5 2z
M596 324q8 11 8 31q0 17 -8 30q-2 5 -15 7q-10 3 -28 3q-13 1 -30 0q-22 0 -19 0l26 11q24 9 36 16q19 9 20 15.5t-0.5 14t-5.5 18.5q-7 18 -20 27q-10 7 -20 7q-4 0 -34 -17q-24 -13 -31 -18l-4 -2l2 2q-6 -6 20 18q18 18 28 30q14 16 12 22q-4 14 -17 27q-18 19 -37 19
q-4 0 -18 -14q-10 -10 -26 -28l-19 -21v4q11 21 19 43q15 37 10 43q-10 14 -26 19q-13 6 -25 6q-7 0 -19 -19q-7 -12 -18 -36l-13 -27q0 -36 1 28q0 24 -2 39q-2 21 -8 24q-10 9 -30 9t-31 -9q-6 -3 -8 -24q-2 -15 -2 -39q1 -64 1 -28v-3l-1 3q-34 82 -50 82q-10 0 -25 -5.5
t-25 -19.5q-6 -6 8 -43q9 -23 19 -43l3 -4l-5 2l-30 33q-26 28 -30 28q-18 0 -36 -19q-14 -15 -17 -27q-2 -8 25 -37q18 -20 33 -33l4 -2l-5 2q-6 4 -31 18q-29 17 -32 17q-27 0 -42 -34q-8 -20 -5 -33q0 -6 19 -15q13 -7 37 -16l26 -11q4 0 -18 0q-17 1 -30 0q-18 0 -28 -3
q-14 -2 -16 -7q-8 -9 -8 -31t8 -30q3 -5 24 -7q16 -2 40 -2q52 1 28 1h3l-3 -1q25 10 -26 -10q-24 -10 -37 -17q-19 -10 -19 -17q-3 -13 5 -31q14 -33 42 -33q3 0 32 17q25 14 31 18l5 2l-4 -4q34 34 -19 -19q-17 -17 -27 -28q-13 -17 -12 -23q3 -12 17 -28q17 -16 36 -16
q8 0 60 59l5 4l-3 -5q-10 -21 -19 -43q-14 -37 -8 -45q8 -9 25 -17q13 -5 24.5 -5t30.5 36q12 24 20 46l1 3v-3q0 36 -1 -29q0 -25 2 -40q2 -21 8 -25q10 -7 30.5 -7t30.5 7q6 4 8 25q2 15 2 40q-1 65 -1 29v0q-3 6 13 -27q10 -24 18 -37q12 -18 19 -18q14 0 25 5
q18 7 26 17q5 8 -10 45q-8 20 -19 43v5l2 -4q8 -11 30 -33q26 -26 31 -26q20 0 37 16q12 14 17 28q2 6 -12 23q-9 11 -28 28l-20 19l-2 4l4 -2q7 -5 31 -18q30 -17 34 -17q11 0 20 6q13 8 20 27q9 19 5 31q0 5 -11 12q-9 6 -25 14q-12 5 -27 11q-21 8 -18 7l-3 1h3
q-23 0 29 -1q25 0 40 2q20 2 23 7zM305 549q52 0 96.5 -26.5t70.5 -71t26 -97t-26 -97.5t-70.5 -71t-97 -26t-97.5 26t-71.5 71t-26.5 97.5t26.5 97t71.5 71t98 26.5zM305 504q-41 0 -76 -20t-55 -54.5t-20 -75t20 -75t55 -54.5t76 -20t75 20t53.5 54.5t19.5 75t-19.5 75
t-53.5 54.5t-75 20z" />
</svg>
