<?xml version="1.0" standalone="no"?>
<!DOCTYPE svg PUBLIC "-//W3C//DTD SVG 1.1//EN" "http://www.w3.org/Graphics/SVG/1.1/DTD/svg11.dtd" >
<svg xmlns="http://www.w3.org/2000/svg" xmlns:xlink="http://www.w3.org/1999/xlink" version="1.1" viewBox="-10 0 880 1000">
   <path fill="currentColor"
d="M835 182q28 26 24 60l-98 648q-8 30 -38 30h-586q-28 0 -40 -30q-94 -620 -96 -648q-5 -34 22 -60q6 -6 54 -43l56 -43q18 -16 56 -16h480q38 0 56 16q78 58 110 86zM429 618q56 0 98 -34t63 -89t30 -89t13 -66h-92q-38 188 -112 188t-112 -188h-92q46 278 204 278z
M77 250h704l-110 -116h-484z" />
</svg>
