<?xml version="1.0" standalone="no"?>
<!DOCTYPE svg PUBLIC "-//W3C//DTD SVG 1.1//EN" "http://www.w3.org/Graphics/SVG/1.1/DTD/svg11.dtd" >
<svg xmlns="http://www.w3.org/2000/svg" xmlns:xlink="http://www.w3.org/1999/xlink" version="1.1" viewBox="-11 0 1296 1000">
   <path fill="currentColor"
d="M964 250l-214 393h429zM250 250l-214 393h428zM708 143q-8 22 -25 40t-40 25v721h339q8 0 13 5t5 12v36q0 8 -5 13t-13 5h-750q-8 0 -13 -5t-5 -13v-36q0 -7 5 -12t13 -5h339v-721q-22 -8 -39 -25t-26 -40h-274q-8 0 -13 -5t-5 -13v-36q0 -8 5 -13t13 -5h274
q12 -31 39 -51t62 -20t62 20t39 51h274q8 0 13 5t5 13v36q0 8 -5 13t-13 5h-274zM607 152q19 0 32 -13t13 -32t-13 -31t-32 -14t-31 14t-13 31t13 32t31 13zM1214 643q0 41 -26 73t-65 51t-81 27t-78 10t-78 -10t-80 -27t-66 -51t-26 -73q0 -6 20 -45l51 -98q31 -59 60 -109
t57 -103t31 -55q10 -19 31 -19t32 19l31 55q29 51 57 103l59 109q31 57 52 98t19 45zM500 643q0 41 -26 73t-65 51t-81 27t-78 10t-78 -10t-80 -27t-66 -51t-26 -73q0 -6 20 -45l51 -98q31 -59 60 -109t57 -103t31 -55q10 -19 31 -19t31 19q3 4 32 55t56 103t60 109t52 98
t19 45z" />
</svg>
