<?xml version="1.0" standalone="no"?>
<!DOCTYPE svg PUBLIC "-//W3C//DTD SVG 1.1//EN" "http://www.w3.org/Graphics/SVG/1.1/DTD/svg11.dtd" >
<svg xmlns="http://www.w3.org/2000/svg" xmlns:xlink="http://www.w3.org/1999/xlink" version="1.1" viewBox="-10 0 1152 1000">
   <path fill="currentColor"
d="M536 0l535 214v72h-71q0 14 -11 25t-27 10h-852q-16 0 -27 -10t-12 -25h-71v-72zM143 357h143v429h71v-429h143v429h71v-429h143v429h72v-429h143v429h33q15 0 27 10t11 25v36h-929v-36q0 -14 12 -25t27 -10h33v-429zM1033 893q16 0 27 11t11 25v71h-1071v-71
q0 -15 11 -25t28 -11h994z" />
</svg>
