<?xml version="1.0" standalone="no"?>
<!DOCTYPE svg PUBLIC "-//W3C//DTD SVG 1.1//EN" "http://www.w3.org/Graphics/SVG/1.1/DTD/svg11.dtd" >
<svg xmlns="http://www.w3.org/2000/svg" xmlns:xlink="http://www.w3.org/1999/xlink" version="1.1" viewBox="-10 0 870 1000">
   <path fill="currentColor"
d="M50 75q-25 0 -34 1q-16 3 -16 10t5 14q3 6 10 14l10 11l325 391v309l-150 50q-21 7 -34 19q-16 14 -16 31h550q0 -17 -16 -31q-13 -12 -34 -19l-150 -50v-309l325 -391l10 -11q7 -8 10 -14q5 -7 5 -14t-16 -10q-9 -1 -34 -1h-750z" />
</svg>
