<?xml version="1.0" standalone="no"?>
<!DOCTYPE svg PUBLIC "-//W3C//DTD SVG 1.1//EN" "http://www.w3.org/Graphics/SVG/1.1/DTD/svg11.dtd" >
<svg xmlns="http://www.w3.org/2000/svg" xmlns:xlink="http://www.w3.org/1999/xlink" version="1.1" viewBox="-10 0 1020 1000">
   <path fill="currentColor"
d="M35 857h-35v-786h35v786zM70 857h-17v-786h17v786zM123 857h-17v-786h17v786zM210 857h-17v-786h17v786zM298 857h-35v-786h35v786zM368 857h-17v-786h17v786zM404 857h-18v-786h18v786zM439 857h-18v-786h18v786zM526 857h-35v-786h35v786zM614 857h-35v-786h35v786z
M684 857h-35v-786h35v786zM755 857h-36v-786h36v786zM807 857h-35v-786h35v786zM912 857h-52v-786h52v786zM948 857h-18v-786h18v786zM1000 857h-35v-786h35v786z" />
</svg>
