<?xml version="1.0" standalone="no"?>
<!DOCTYPE svg PUBLIC "-//W3C//DTD SVG 1.1//EN" "http://www.w3.org/Graphics/SVG/1.1/DTD/svg11.dtd" >
<svg xmlns="http://www.w3.org/2000/svg" xmlns:xlink="http://www.w3.org/1999/xlink" version="1.1" viewBox="-10 0 1020 1000">
   <path fill="currentColor"
d="M0 932v-864h84v864h-84zM123 932v-864h20v864h-20zM193 932v-864h63v864h-63zM285 932v-864h28v864h-28zM389 932v-864h41v864h-41zM445 932v-864h18v864h-18zM506 932v-864h19v864h-19zM551 932v-864h82v864h-82zM662 932v-864h43v864h-43zM764 932v-864h9v864h-9z
M789 932v-864h27v864h-27zM857 932v-864h20v864h-20zM918 932v-864h82v864h-82z" />
</svg>
