<?xml version="1.0" standalone="no"?>
<!DOCTYPE svg PUBLIC "-//W3C//DTD SVG 1.1//EN" "http://www.w3.org/Graphics/SVG/1.1/DTD/svg11.dtd" >
<svg xmlns="http://www.w3.org/2000/svg" xmlns:xlink="http://www.w3.org/1999/xlink" version="1.1" viewBox="-10 0 870 1000">
   <path fill="currentColor"
d="M100 75q-47 0 -73.5 26.5t-26.5 73.5q0 23 28 56q19 25 61 63q55 50 61 56q33 33 86 74q18 15 104 78q69 52 115 90q66 54 120 108l150 150l-25 25q0 19 15.5 34.5t34.5 15.5l100 -100q0 -19 -15.5 -34.5t-34.5 -15.5l-25 25l-150 -150q-48 -48 -101 -113
q-36 -43 -90 -116q-63 -83 -82 -108q-44 -55 -77 -88q-6 -6 -56 -61q-38 -42 -63 -61q-33 -28 -56 -28zM275 575q-31 0 -53 22t-22 53t22 53t53 22t53 -22t22 -53t-22 -53t-53 -22z" />
</svg>
