<?xml version="1.0" standalone="no"?>
<!DOCTYPE svg PUBLIC "-//W3C//DTD SVG 1.1//EN" "http://www.w3.org/Graphics/SVG/1.1/DTD/svg11.dtd" >
<svg xmlns="http://www.w3.org/2000/svg" xmlns:xlink="http://www.w3.org/1999/xlink" version="1.1" viewBox="-11 0 950 1000">
   <path fill="currentColor"
d="M357 857q0 29 -21 50t-50 22t-50 -22t-22 -50t22 -50t50 -21t50 21t21 50zM857 857q0 29 -21 50t-50 22t-50 -22t-22 -50t22 -50t50 -21t50 21t21 50zM929 250v286q0 13 -10 23t-22 12l-583 68q7 34 7 41t-13 34h513q15 0 26 11t10 25t-10 25t-26 11h-571q-14 0 -25 -11
t-11 -25q0 -6 5 -18t9 -20t12 -22t8 -17l-98 -459h-114q-15 0 -25 -10t-11 -25t11 -26t25 -10h143q9 0 16 3t10 9t8 14t4 14t3 17t3 14h670q14 0 25 11t11 25z" />
</svg>
