<?xml version="1.0" standalone="no"?>
<!DOCTYPE svg PUBLIC "-//W3C//DTD SVG 1.1//EN" "http://www.w3.org/Graphics/SVG/1.1/DTD/svg11.dtd" >
<svg xmlns="http://www.w3.org/2000/svg" xmlns:xlink="http://www.w3.org/1999/xlink" version="1.1" viewBox="-11 0 1015 1000">
   <path fill="currentColor"
d="M2 59q8 -20 27 -29t38 -4l150 48q32 10 35 43l10 84l686 77q23 5 35 22t10 38l-43 238q-8 43 -49 43h-608l-11 69h578q21 0 36 14t14 36t-16 37t-34 14h-641q-25 -2 -39 -19t-12 -41l28 -149l-41 -418l-119 -39q-45 -17 -34 -64zM219 898q0 -32 24 -56t55 -23t56 23
t23 56t-23 55t-56 24t-55 -24t-24 -55zM688 898q0 -32 23 -56t56 -23t56 23t23 56t-23 55t-56 24t-56 -24t-23 -55z" />
</svg>
