<?xml version="1.0" standalone="no"?>
<!DOCTYPE svg PUBLIC "-//W3C//DTD SVG 1.1//EN" "http://www.w3.org/Graphics/SVG/1.1/DTD/svg11.dtd" >
<svg xmlns="http://www.w3.org/2000/svg" xmlns:xlink="http://www.w3.org/1999/xlink" version="1.1" viewBox="-54 0 875 1000">
   <path fill="currentColor"
d="M139 774q34 0 56.5 23t22.5 55.5t-22.5 55.5t-55.5 23t-56 -23t-23 -55.5t23 -55.5t55 -23zM669 774q33 0 55 23t22 56t-22 55.5t-55 22.5t-56 -23t-23 -55.5t23 -55.5t56 -23zM191 186h565q27 0 41 14t14 36v233q0 20 -13 34t-33 16l-505 57q-20 2 -28.5 16.5t0 28
t31.5 13.5h478q19 0 30 12t11 29t-11 29t-30 12h-488q-40 0 -69 -20q-27 -19 -37.5 -49t-0.5 -61q11 -32 42 -55l43 -33l-155 -339h-76q-21 0 -32.5 -13.5t-11.5 -31.5t11.5 -31.5t32.5 -13.5h89q31 0 47 15q11 10 24 39zM536 256h-130l27 85h123zM224 256l39 85h126
l-28 -85h-137zM333 497l100 -10l-33 -101h-119zM476 482l113 -11l-25 -85h-119zM743 453v-67h-133l20 78zM743 341v-85h-162l19 85h143z" />
</svg>
