<?xml version="1.0" standalone="no"?>
<!DOCTYPE svg PUBLIC "-//W3C//DTD SVG 1.1//EN" "http://www.w3.org/Graphics/SVG/1.1/DTD/svg11.dtd" >
<svg xmlns="http://www.w3.org/2000/svg" xmlns:xlink="http://www.w3.org/1999/xlink" version="1.1" viewBox="-10 0 826 1000">
   <path fill="currentColor"
d="M359 791q0 34 -24.5 59t-59 25t-59.5 -25t-25 -59.5t25 -59t59.5 -24.5t59 24.5t24.5 59.5zM764 791q0 34 -24.5 59t-59 25t-58.5 -24.5t-24 -59.5t24 -59.5t58 -24.5t58.5 24.5t25.5 59.5zM758 266q20 1 34 15.5t14 34.5v281q0 22 -14.5 37t-36.5 15h-477
q-18 0 -32 -12.5t-17 -30.5l-89 -317l-5 -15q-6 -18 -14 -30q-10 -17 -21.5 -20t-33.5 -4q-24 -2 -32 -3q-16 -4 -24 -13q-10 -12 -10 -35q0 -19 10 -30q7 -8 19 -11l10 -2l19 -1q53 0 91 21q48 26 67 81zM716 434v-82l-113 -8v90h113zM438 434h125v-93l-125 -9v102z
M563 462h-125v97h125v-97zM398 330l-160 -10l37 114h123v-104zM285 462l30 97h83v-97h-113zM603 559h113v-97h-113v97z" />
</svg>
