<?xml version="1.0" standalone="no"?>
<!DOCTYPE svg PUBLIC "-//W3C//DTD SVG 1.1//EN" "http://www.w3.org/Graphics/SVG/1.1/DTD/svg11.dtd" >
<svg xmlns="http://www.w3.org/2000/svg" xmlns:xlink="http://www.w3.org/1999/xlink" version="1.1" viewBox="-10 0 1020 1000">
   <path fill="currentColor"
d="M929 607v107q0 95 -72 160v108q0 8 -5 13t-13 5h-35q-8 0 -13 -5t-5 -13v-66q-35 13 -72 13h-428q-37 0 -72 -13v62q0 9 -5 16t-13 6h-35q-7 0 -13 -6t-5 -16v-104q-72 -65 -72 -160v-107h858zM393 375q0 8 -5 13t-13 5t-13 -5t-5 -13t5 -13t13 -5t13 5t5 13zM429 339
q0 8 -5 13t-13 5t-13 -5t-5 -13t5 -13t13 -5t13 5t5 13zM393 304q0 7 -5 12t-13 5t-13 -5t-5 -12t5 -13t13 -5t13 5t5 13zM464 304q0 7 -5 12t-13 5t-12 -5t-5 -12t5 -13t12 -5t13 5t5 13zM429 268q0 8 -5 13t-13 5t-13 -5t-5 -13t5 -13t13 -5t13 5t5 13zM393 232q0 8 -5 13
t-13 5t-13 -5t-5 -13t5 -13t13 -5t13 5t5 13zM1000 518v36q0 7 -5 12t-13 5h-964q-8 0 -13 -5t-5 -12v-36q0 -8 5 -13t13 -5h53v-357q0 -59 42 -101t102 -42t102 43q26 -10 55 -6t52 22l12 -13q6 -6 12 0l24 24q6 6 0 12l-176 175q-6 6 -12 0l-23 -23q-6 -6 0 -13l12 -12
q-20 -25 -23 -58t13 -60q-20 -20 -49 -20t-50 21t-21 51v357h839q8 0 13 5t5 13zM500 268q0 8 -5 13t-13 5t-13 -5t-5 -13t5 -13t13 -5t13 5t5 13zM464 232q0 8 -5 13t-13 5t-12 -5t-5 -13t5 -13t12 -5t13 5t5 13zM429 196q0 8 -5 13t-13 5t-13 -5t-5 -13t5 -12t13 -5t13 5
t5 12zM536 232q0 8 -5 13t-13 5t-13 -5t-5 -13t5 -13t13 -5t13 5t5 13zM500 196q0 8 -5 13t-13 5t-13 -5t-5 -13t5 -12t13 -5t13 5t5 12zM464 161q0 7 -5 12t-13 6t-12 -6t-5 -12t5 -13t12 -5t13 5t5 13zM571 196q0 8 -5 13t-12 5t-13 -5t-5 -13t5 -12t13 -5t12 5t5 12z
M536 161q0 7 -5 12t-13 6t-13 -6t-5 -12t5 -13t13 -5l13 5q5 2 5 13zM607 161q0 7 -5 12t-13 6t-12 -6t-6 -12t6 -13t12 -5t13 5t5 13z" />
</svg>
