<?xml version="1.0" standalone="no"?>
<!DOCTYPE svg PUBLIC "-//W3C//DTD SVG 1.1//EN" "http://www.w3.org/Graphics/SVG/1.1/DTD/svg11.dtd" >
<svg xmlns="http://www.w3.org/2000/svg" xmlns:xlink="http://www.w3.org/1999/xlink" version="1.1" viewBox="-11 0 1307 1000">
   <path fill="currentColor"
d="M1214 321q30 0 51 21t21 51v214q0 30 -21 51t-51 21v89q0 37 -26 63t-63 26h-1036q-36 0 -63 -26t-26 -63v-536q0 -37 26 -63t63 -26h1036q37 0 63 26t26 63v89zM1214 607v-214h-71v-161q0 -8 -5 -13t-13 -5h-1036q-7 0 -12 5t-6 13v536q0 8 6 13t12 5h1036q8 0 13 -5
t5 -13v-161h71z" />
</svg>
