<?xml version="1.0" standalone="no"?>
<!DOCTYPE svg PUBLIC "-//W3C//DTD SVG 1.1//EN" "http://www.w3.org/Graphics/SVG/1.1/DTD/svg11.dtd" >
<svg xmlns="http://www.w3.org/2000/svg" xmlns:xlink="http://www.w3.org/1999/xlink" version="1.1" viewBox="-10 0 1020 1000">
   <path fill="currentColor"
d="M770 500q0 98 36 157t78 59h66q-30 46 -64 65t-118 19h-500q-130 0 -199 -94t-69 -205t69 -206t199 -95h500q84 0 118 19t64 65h-66q-42 0 -78 60t-36 156zM634 590q10 -12 -8 -26q-136 -134 -178 -164q-16 -10 -26 -13t-18 5t-10 12l-8 18l-22 56l-148 -66
q-26 -12 -34 1t8 27q136 132 180 162q34 16 42 11t18 -31l24 -58l146 68q26 12 34 -2zM944 398q22 0 39 27t17 71t-17 72t-39 28h-38q-22 0 -38 -28t-16 -72t16 -71t38 -27h38z" />
</svg>
