<?xml version="1.0" standalone="no"?>
<!DOCTYPE svg PUBLIC "-//W3C//DTD SVG 1.1//EN" "http://www.w3.org/Graphics/SVG/1.1/DTD/svg11.dtd" >
<svg xmlns="http://www.w3.org/2000/svg" xmlns:xlink="http://www.w3.org/1999/xlink" version="1.1" viewBox="-11 0 1021 1000">
   <path fill="currentColor"
d="M2 496q10 -49 55 -68l424 -170q-12 -20 -12 -41q0 -33 23 -57l43 -43q24 -23 56 -23t56 23l240 240q23 24 23 56t-23 56l-43 45q-24 21 -55 21q-23 0 -43 -12l-168 418q-17 47 -68 57q-8 2 -18 2h-4q-37 0 -62 -27l-398 -393q-36 -35 -26 -84zM64 507q-3 16 8 28l397 393
q10 10 21 10h8q16 -4 24 -20l146 -371q-58 -61 -123 -85t-146 -33t-123 -23l-194 78q-15 6 -18 23zM250 531q0 -25 19 -44t44 -18t44 18t18 44t-18 44t-44 19t-44 -19t-19 -44zM281 531q0 14 9 23t23 8t22 -8t9 -23t-9 -22t-22 -9t-23 9t-9 22zM324 387q30 6 80 13
q59 6 93 13t87 33t98 70l41 -102l55 55q11 11 21 0l45 -45q12 -10 0 -22l-242 -242q-10 -10 -22 0l-45 45q-9 12 0 22l55 54zM375 719q0 -14 9 -23t22 -9t23 9t9 23t-9 22t-23 9t-22 -9t-9 -22zM438 578q0 -33 22 -56t56 -22t55 22t23 56t-23 56t-55 22t-56 -22t-22 -56z
M469 578q0 20 14 33t33 14t33 -14t14 -33t-14 -33t-33 -14t-33 14t-14 33zM844 78q0 -33 22 -56t56 -22t56 22t22 56t-22 56t-56 22t-56 -22t-22 -56zM875 250q0 -14 9 -22t22 -9t23 9t9 22t-9 22t-23 9t-22 -9t-9 -22zM875 78q0 20 14 33t33 14t33 -14t14 -33t-14 -33
t-33 -14t-33 14t-14 33z" />
</svg>
