<?xml version="1.0" standalone="no"?>
<!DOCTYPE svg PUBLIC "-//W3C//DTD SVG 1.1//EN" "http://www.w3.org/Graphics/SVG/1.1/DTD/svg11.dtd" >
<svg xmlns="http://www.w3.org/2000/svg" xmlns:xlink="http://www.w3.org/1999/xlink" version="1.1" viewBox="-10 0 905 1000">
   <path fill="currentColor"
d="M260 735q0 10 -7 17t-18 8t-18 -8t-8 -17v-313q0 -10 8 -18t18 -8t18 8t7 18v313zM365 735q0 10 -8 17t-18 8t-18 -8t-8 -17v-313q0 -10 8 -18t18 -8t18 8t8 18v313zM469 735q0 10 -8 17t-18 8t-19 -8t-8 -17v-313q0 -10 8 -18t19 -8t18 8t8 18v313zM703 187q75 0 128 54
t54 129v260q0 75 -54 128t-128 54h-25q0 65 -46 111t-111 46h-365q-65 0 -110 -46t-46 -111v-677q0 -43 30 -73t74 -31h469q43 0 74 31t31 73v52h25zM104 135v78q0 32 23 55t56 23q45 0 67 -40l9 -16l19 3q17 3 34 -6t23 -27l6 -18h232v-52h-469zM573 812v-572h-197
q-31 51 -90 51q-40 52 -103 52q-45 0 -79 -26v495q0 21 15 37t37 16h365q22 0 37 -16t15 -37zM781 630v-260q0 -33 -23 -56t-55 -23h-78v417h78q32 0 55 -23t23 -55z" />
</svg>
