<?xml version="1.0" standalone="no"?>
<!DOCTYPE svg PUBLIC "-//W3C//DTD SVG 1.1//EN" "http://www.w3.org/Graphics/SVG/1.1/DTD/svg11.dtd" >
<svg xmlns="http://www.w3.org/2000/svg" xmlns:xlink="http://www.w3.org/1999/xlink" version="1.1" viewBox="-11 0 928 1000">
   <path fill="currentColor"
d="M0 410q1 -22 15 -42q15 -22 39 -34t49 -10l8 1q41 3 75 -7q92 -30 239 -176q54 -55 126 -74t145 0t126 74t74 126t0 145t-74 126q-40 41 -71 77t-51 63t-33 52t-19 41t-9 33t-2 27l3 29q2 25 -10 49t-35 40q-20 13 -42 14t-46 -6l-10 -2q-10 -2 -21 -6l-28 -10
q-17 -6 -38 -16t-44 -24t-51 -33t-56 -44t-61 -57q-28 -27 -51 -54t-41 -52t-32 -46t-24 -42t-18 -36t-12 -31t-7 -24t-5 -16l-2 -9q-7 -25 -6 -46zM98 475q5 30 24 67t52 83t77 88q88 87 170 129t110 14q21 -23 2 -77t-70 -120q-8 11 -14 17q-33 33 -81 33t-80.5 -33
t-32.5 -81t33 -81q6 -5 17 -13q-67 -52 -120 -71t-77 2q-15 14 -10 43z" />
</svg>
