<?xml version="1.0" standalone="no"?>
<!DOCTYPE svg PUBLIC "-//W3C//DTD SVG 1.1//EN" "http://www.w3.org/Graphics/SVG/1.1/DTD/svg11.dtd" >
<svg xmlns="http://www.w3.org/2000/svg" xmlns:xlink="http://www.w3.org/1999/xlink" version="1.1" viewBox="-10 0 731 1000">
   <path fill="currentColor"
d="M355 760q-23 0 -39.5 -18.5t-16.5 -44.5q0 -8 56 -8t56 8q0 26 -16.5 44.5t-39.5 18.5zM695 715q16 18 16 37q0 41 -63 72q-53 27 -142 42q-78 14 -151 14t-151 -14q-88 -15 -142 -42q-62 -31 -62 -72q0 -21 15 -37q33 -68 56 -134q18 -52 32 -108l19 -86q10 -46 19 -71
q12 -33 30 -59q23 -32 51 -51q30 -20 71 -29q2 -24 19.5 -40.5t42.5 -16.5t43 16.5t20 40.5q41 9 70 29q28 19 51 51q18 26 30 59q9 25 19 71l19 86q14 56 32 108q23 66 56 134zM355 802q93 0 159 -14q89 -18 124 -61q-35 -41 -124 -59q-66 -14 -158.5 -14t-158.5 14
q-90 18 -124 59q35 42 124 61q70 16 158 14z" />
</svg>
