<?xml version="1.0" standalone="no"?>
<!DOCTYPE svg PUBLIC "-//W3C//DTD SVG 1.1//EN" "http://www.w3.org/Graphics/SVG/1.1/DTD/svg11.dtd" >
<svg xmlns="http://www.w3.org/2000/svg" xmlns:xlink="http://www.w3.org/1999/xlink" version="1.1" viewBox="-11 0 822 1000">
   <path fill="currentColor"
d="M632 424q16 34 40 52t45 22t44 23t35 55q22 62 -74 161t-252 157q-164 58 -297 45t-155 -75q-20 -54 12 -111t18 -111q-56 -192 -47 -300t113 -192q26 -22 29 -51t29 -39q24 -8 46 12t56 18q132 -2 198 66t160 268zM446 828q88 -32 159 -85t100 -91t25 -50
q-8 -22 -49 -33t-124 -1t-186 48t-174 87t-94 84t-17 53q4 12 50 22t134 4t176 -38zM384 654q8 -2 21 -7t17 -7l2 2q14 40 -17 83t-89 63q-96 36 -152 -14q78 -68 218 -120z" />
</svg>
