<?xml version="1.0" standalone="no"?>
<!DOCTYPE svg PUBLIC "-//W3C//DTD SVG 1.1//EN" "http://www.w3.org/Graphics/SVG/1.1/DTD/svg11.dtd" >
<svg xmlns="http://www.w3.org/2000/svg" xmlns:xlink="http://www.w3.org/1999/xlink" version="1.1" viewBox="-10 0 1155 1000">
   <path fill="currentColor"
d="M869 475q35 199 167 311q0 29 -21 50t-51 21h-250q0 59 -42 101t-101 42t-100 -42t-42 -100zM571 955q9 0 9 -9t-9 -8q-32 0 -56 -24t-24 -57q0 -9 -9 -9t-9 9q0 41 29 70t69 28zM1131 62q4 6 4 14t-6 12l-1045 905q-5 5 -13 4t-12 -6l-47 -53q-4 -6 -4 -14t6 -12
l104 -90q-11 -17 -11 -36q28 -24 51 -49t47 -67t42 -89t28 -115t11 -145q0 -84 65 -157t171 -89q-4 -10 -4 -21q0 -23 16 -38t37 -16t38 16t16 38q0 11 -4 21q69 10 122 46t82 88l234 -202q5 -5 13 -4t12 6z" />
</svg>
