<?xml version="1.0" standalone="no"?>
<!DOCTYPE svg PUBLIC "-//W3C//DTD SVG 1.1//EN" "http://www.w3.org/Graphics/SVG/1.1/DTD/svg11.dtd" >
<svg xmlns="http://www.w3.org/2000/svg" xmlns:xlink="http://www.w3.org/1999/xlink" version="1.1" viewBox="-11 0 1307 1000">
   <path fill="currentColor"
d="M425 643h-175q-22 0 -32 -20t4 -37l105 -140q-37 -17 -77 -17q-74 0 -126 52t-53 126t53 126t126 53q64 0 113 -41t62 -102zM321 571h104q-10 -47 -42 -82zM589 571l161 -214h-268l-55 74q59 57 70 140h92zM1214 607q0 -74 -52 -126t-126 -52q-34 0 -68 13l97 145
q9 13 6 27t-15 23q-9 6 -20 6q-20 0 -30 -16l-97 -145q-52 53 -52 126t53 125t126 53t126 -53t52 -126zM1286 607q0 103 -74 177t-176 73t-177 -73t-73 -177q0 -54 22 -102t61 -84l-36 -54l-197 261q-10 15 -29 15h-110q-13 91 -83 153t-164 61q-103 0 -177 -73t-73 -177
t73 -177t177 -73q64 0 120 31l76 -102h-125q-14 0 -25 -11t-10 -25t10 -25t25 -11h215v72h243l-48 -72h-124q-14 0 -25 -10t-11 -25t11 -26t25 -10h143q18 0 30 15l149 224q50 -25 107 -25q103 0 176 73t74 177z" />
</svg>
