<?xml version="1.0" standalone="no"?>
<!DOCTYPE svg PUBLIC "-//W3C//DTD SVG 1.1//EN" "http://www.w3.org/Graphics/SVG/1.1/DTD/svg11.dtd" >
<svg xmlns="http://www.w3.org/2000/svg" xmlns:xlink="http://www.w3.org/1999/xlink" version="1.1" viewBox="-10 0 970 1000">
   <path fill="currentColor"
d="M625 150l-25 50l100 37v113h-350v-50h50v-25q0 -9 -8 -17t-17 -8h-125q-11 0 -18 6q-4 5 -6 13l-1 6v25h75v50l-53 106q-30 -6 -47 -6q-54 0 -100 27t-73 72.5t-27 100.5t27 100.5t73 72.5t100 27t100 -27t73 -73t27 -100h75q11 0 18 -6q4 -5 6 -13l1 -6q4 -53 30 -98
q23 -41 62 -71q49 -37 108 -50v52q-65 17 -107.5 70t-42.5 122q0 54 27 100t73 73t100 27t100 -27t73 -73t27 -100q0 -67 -41 -120t-104 -71l-55 -109v-125q0 -11 -7.5 -21.5t-17.5 -14.5zM350 400h225q-24 12 -55 52q-28 37 -49 80.5t-21 67.5h-58q-9 -37 -30.5 -67
t-52.5 -50zM200 525q34 0 62.5 17t45.5 45.5t17 62.5t-17 62.5t-45.5 45.5t-62.5 17t-62.5 -17t-45.5 -45.5t-17 -62.5t17 -62.5t45.5 -45.5t62.5 -17zM750 525q34 0 62.5 17t45.5 45.5t17 62.5t-17 62.5t-45.5 45.5t-62.5 17t-62.5 -17t-45.5 -45.5t-17 -62.5t17 -62.5
t45.5 -45.5t62.5 -17z" />
</svg>
