<?xml version="1.0" standalone="no"?>
<!DOCTYPE svg PUBLIC "-//W3C//DTD SVG 1.1//EN" "http://www.w3.org/Graphics/SVG/1.1/DTD/svg11.dtd" >
<svg xmlns="http://www.w3.org/2000/svg" xmlns:xlink="http://www.w3.org/1999/xlink" version="1.1" viewBox="-10 0 1020 1000">
   <path fill="currentColor"
d="M393 179v428q0 15 -11 25t-25 11v321q0 15 -10 25t-26 11h-285q-15 0 -25 -11t-11 -25v-285l139 -488q4 -12 17 -12h237zM571 179v392h-142v-392h142zM1000 679v285q0 15 -11 25t-25 11h-285q-15 0 -25 -11t-11 -25v-321q-15 0 -25 -11t-11 -25v-428h237q13 0 17 12z
M411 18v125h-197v-125q0 -8 5 -13t13 -5h161q8 0 13 5t5 13zM786 18v125h-197v-125q0 -8 5 -13t13 -5h161q8 0 13 5t5 13z" />
</svg>
