<?xml version="1.0" standalone="no"?>
<!DOCTYPE svg PUBLIC "-//W3C//DTD SVG 1.1//EN" "http://www.w3.org/Graphics/SVG/1.1/DTD/svg11.dtd" >
<svg xmlns="http://www.w3.org/2000/svg" xmlns:xlink="http://www.w3.org/1999/xlink" version="1.1" viewBox="-10 0 1020 1000">
   <path fill="currentColor"
d="M1000 786v214h-1000v-214q25 0 47 -8t33 -15t27 -21.5t28 -21.5t32 -6q13 0 24 4t18 9t18 15q16 14 26 21t33 15t48 8t47 -8t33 -15t26 -21q12 -11 18 -15t18 -9t24 -4q20 0 32 6t28 22q16 13 27 21t32 15t48 8t47 -8l33 -15q13 -6 26 -21q17 -15 29 -22t31.5 -6.5
t31.5 6.5t28 22q16 13 27 21t33 15t47 8zM1000 607v107q-13 0 -25 -4t-17 -8l-18 -15q-16 -14 -26 -21t-33 -15t-48 -8t-47 8t-33 15t-26 21l-18 15q-6 5 -18 8t-24 4q-20 0 -32 -6t-28.5 -20.5t-26.5 -21.5t-32 -15t-47.5 -8t-47.5 8t-33 15t-27 21q-11 10 -18 15t-17 8
t-24 4q-20 0 -32 -6t-29 -21q-15 -14 -26 -21t-33 -15t-47.5 -8t-47.5 8t-32 15t-26.5 21.5t-28.5 20.5t-32 6v-107q0 -45 31 -76t76 -31h36v-250h143v250h143v-250h142v250h143v-250h143v250h36q45 0 76 31t31 76zM286 125q0 43 -20 66t-52 23q-29 0 -50 -21t-21 -50
q0 -16 5 -29t13 -19t18 -15t17 -18t13 -25t5 -37q22 0 47 41t25 84zM571 125q0 43 -20 66t-50.5 23t-50.5 -21t-21 -50q0 -16 5 -29t13 -19t17 -15l18 -18q9 -9 13 -25t5 -37q21 0 46 41t25 84zM857 125q0 43 -20 66t-50.5 23t-51.5 -21t-21 -50q0 -16 6 -29t13 -19l17 -15
q10 -9 17 -18t13 -25t6 -37q21 0 46 41t25 84z" />
</svg>
