<?xml version="1.0" standalone="no"?>
<!DOCTYPE svg PUBLIC "-//W3C//DTD SVG 1.1//EN" "http://www.w3.org/Graphics/SVG/1.1/DTD/svg11.dtd" >
<svg xmlns="http://www.w3.org/2000/svg" xmlns:xlink="http://www.w3.org/1999/xlink" version="1.1" viewBox="-10 0 806 1000">
   <path fill="currentColor"
d="M455 479q4 35 -28 57t-63 3q-21 -9 -29 -32t-1 -46t29 -32q20 -11 41 -7t36 20t15 37zM517 468q-8 -60 -63 -92t-110 -7q-35 15 -56 49t-20 72q3 51 44 87t92 31.5t85 -47.5t28 -93zM650 165q-11 -15 -31 -25t-32 -12l-40 -7q-162 -26 -316 1q-24 4 -37 7t-30 12t-28 24
q16 16 42 26t41 12l49 6q127 16 250 1l50 -7q15 -2 40 -12t42 -26zM682 743q-4 14 -9 42t-7 47t-16 39t-33 32q-48 27 -106 40t-112 12t-113 -10q-25 -5 -45 -10t-43 -15t-41 -25t-29 -34q-14 -54 -31 -163l3 -9l10 -5q124 83 283 83t283 -83q12 3 13 13t-3 25t-4 21z
M783 206q-15 94 -62 366q-3 17 -15 31t-24 23t-31 17q-140 70 -340 49q-139 -15 -220 -78q-8 -6 -14 -14t-10 -20t-5 -19l-6 -42l-31 -173q-6 -34 -13 -83t-12 -88q2 -14 10 -27t17 -21t26 -17t25 -12l27 -10q70 -26 175 -36q211 -21 377 28q86 25 120 68q9 11 9 28t-3 30z
" />
</svg>
