<?xml version="1.0" standalone="no"?>
<!DOCTYPE svg PUBLIC "-//W3C//DTD SVG 1.1//EN" "http://www.w3.org/Graphics/SVG/1.1/DTD/svg11.dtd" >
<svg xmlns="http://www.w3.org/2000/svg" xmlns:xlink="http://www.w3.org/1999/xlink" version="1.1" viewBox="-10 0 877 1000">
   <path fill="currentColor"
d="M473 485q0 -24 -23 -36t-43 -1q-24 11 -23 41t24 39q22 13 45 -2t20 -41zM518 477q4 36 -20 67t-62 34t-66 -22t-31 -63q-1 -28 14 -52t40 -36q40 -17 79 6t46 66zM614 258q-11 12 -30 19t-30 9t-35 5q-86 11 -181 0l-35 -6q-11 -2 -29 -9t-31 -18q8 -10 20 -17t23 -9
t26 -4q110 -20 228 -1l28 5q10 2 24 9t22 17zM637 675q0 -4 3 -15t2 -18t-10 -9q-90 59 -203 59t-205 -59l-6 3l-3 7q14 86 23 117q26 45 114 60q139 26 238 -29q19 -11 28 -29t12 -48t7 -39zM710 288q5 -30 -5 -42q-24 -31 -86 -49q-121 -35 -272 -20q-74 7 -126 26l-33 13
q-12 5 -26 19t-17 31q5 38 11 77t16 95t13 76q1 3 3 18t4 20t7 15t12 16q59 44 158 55q145 16 246 -35q13 -7 22 -13t17 -16t11 -22q27 -149 45 -264zM857 232v536q0 66 -47 113t-114 48h-535q-67 0 -114 -48t-47 -113v-536q0 -66 47 -113t114 -48h535q67 0 114 48t47 113z
" />
</svg>
