<?xml version="1.0" standalone="no"?>
<!DOCTYPE svg PUBLIC "-//W3C//DTD SVG 1.1//EN" "http://www.w3.org/Graphics/SVG/1.1/DTD/svg11.dtd" >
<svg xmlns="http://www.w3.org/2000/svg" xmlns:xlink="http://www.w3.org/1999/xlink" version="1.1" viewBox="-10 0 1022 1000">
   <path fill="currentColor"
d="M16 379q33 -132 125 -227t221 -133t260 -4t227 126t133 220t4 260t-126 228t-220 132t-260 4t-228 -125t-132 -221t-4 -260zM244 650l72 18q7 1 20 5t19 5l-23 91l55 14l22 -90l21 6q15 4 23 5l-22 90l55 13l22 -91q48 8 85 8t66 -21t43 -61q32 -90 -51 -133
q60 -13 70 -80q13 -86 -110 -126l23 -91l-55 -13l-22 88l-23 -5q-15 -3 -21 -6l22 -88l-55 -14l-22 90q-15 -2 -35 -8l-76 -19l-14 59l39 9q28 7 26 32l-26 103q2 0 6 2q-1 -1 -3 -1t-3 -1l-36 144q-5 18 -25 13l-40 -10zM427 627l30 -121l19 4q18 4 28 7l28 9q18 6 29 13
t21 17t14 22t0 27q-3 11 -9 19t-15 12t-19 7t-23 3t-23 -2t-24 -4t-22 -4zM471 451l27 -110l29 7l18 5l19 6q9 3 18 9t15 11t11 13t6 17t-1 19q-3 13 -11 22t-19 11t-22 5t-27 -1t-24 -4t-23 -6t-16 -4z" />
</svg>
