<?xml version="1.0" standalone="no"?>
<!DOCTYPE svg PUBLIC "-//W3C//DTD SVG 1.1//EN" "http://www.w3.org/Graphics/SVG/1.1/DTD/svg11.dtd" >
<svg xmlns="http://www.w3.org/2000/svg" xmlns:xlink="http://www.w3.org/1999/xlink" version="1.1" viewBox="-10 0 795 1000">
   <path fill="currentColor"
d="M204 173q-35 0 -61 -25t-26 -61t26 -62t61 -25t61 25t26 61t-26 62t-61 25zM512 532q0 28 -17 37t-35 4t-27 -19l-205 -244q-4 -7 -8 -9t-6 -1l-1 2q-4 4 2 12l68 77l1 198l-90 255q-38 107 -52 130q-8 15 -15 18q-28 15 -58 1q-16 -7 -23 -24t-5 -32q1 -9 110 -345
l3 -232l-48 91l20 124q2 14 -1 24t-8 15t-10 9t-10 4l-4 1q-10 2 -19 -1t-13 -9l-8 -13q-4 -7 -4 -10t-2 -6l-25 -167l118 -212q12 -19 63 -19q41 0 59 22l237 291q4 3 8 9l1 2v1q4 7 4 16zM287 615q24 64 49 126t39 94l13 31q21 51 24 69q6 39 -20 54q-20 13 -37 9t-28 -12
t-17 -19v0q-4 -9 -5 -14l-69 -196zM747 946q17 27 17 31t-2 5q-5 2 -8 -1t-8 -14t-9 -17q-64 -96 -236 -369l4 -1q3 -1 3 -2l2 -1q6 -5 6 -10z" />
</svg>
