<?xml version="1.0" standalone="no"?>
<!DOCTYPE svg PUBLIC "-//W3C//DTD SVG 1.1//EN" "http://www.w3.org/Graphics/SVG/1.1/DTD/svg11.dtd" >
<svg xmlns="http://www.w3.org/2000/svg" xmlns:xlink="http://www.w3.org/1999/xlink" version="1.1" viewBox="-10 0 931 1000">
   <path fill="currentColor"
d="M5 944q-12 -24 5 -51l129 -166l51 -184v-150l-27 37l-10 107q-4 26 -25 34t-37 -5t-14 -37l13 -115q0 -9 6 -17l104 -141q19 -31 56 -35t65 21l113 143l111 23q22 4 30 30t-22 37l356 488q5 10 -4 15t-16 -3l-381 -502l-103 -20q-14 -4 -22 -13l-43 -55v158l112 127
q5 6 7 18l55 244q4 27 -17 44t-48 10t-34 -37l-49 -232l-92 -104l-41 145l-8 18l-135 173q-21 20 -47 19t-38 -24zM184 109q0 -40 28 -69t69 -28t68 28t28 69t-28 68t-68 28t-69 -28t-28 -68z" />
</svg>
