<?xml version="1.0" standalone="no"?>
<!DOCTYPE svg PUBLIC "-//W3C//DTD SVG 1.1//EN" "http://www.w3.org/Graphics/SVG/1.1/DTD/svg11.dtd" >
<svg xmlns="http://www.w3.org/2000/svg" xmlns:xlink="http://www.w3.org/1999/xlink" version="1.1" viewBox="-11 0 878 1000">
   <path fill="currentColor"
d="M732 498q0 -90 -48 -164l-421 420q76 50 166 50q62 0 118 -25t96 -65t65 -97t24 -119zM175 665l421 -421q-75 -50 -167 -50q-83 0 -153 40t-110 111t-41 153q0 91 50 167zM857 498q0 88 -34 168t-91 137t-137 92t-166 34t-167 -34t-137 -92t-91 -137t-34 -168t34 -167
t91 -137t137 -91t167 -34t166 34t137 91t91 137t34 167z" />
</svg>
