<?xml version="1.0" standalone="no"?>
<!DOCTYPE svg PUBLIC "-//W3C//DTD SVG 1.1//EN" "http://www.w3.org/Graphics/SVG/1.1/DTD/svg11.dtd" >
<svg xmlns="http://www.w3.org/2000/svg" xmlns:xlink="http://www.w3.org/1999/xlink" version="1.1" viewBox="-10 0 1011 1000">
   <path fill="currentColor"
d="M550 0l-300 1q-66 9 -119 38q-55 30 -88 78q-35 50 -39 115q-2 8 -2 19q0 -6 0 18q-1 37 -1 91v91v131q-1 75 0 113q1 155 90 231q88 75 258 71q93 -2 192 1l67 1q37 1 58 1q30 -1 52 -4q149 -21 216 -116q48 -69 57 -183v-137q-4 -95 -67 -142q-49 -36 -127 -39
q15 -59 3 -146q-5 -63 -36 -113.5t-84 -81.5q-56 -32 -130 -38zM299 187h245q48 6 75 34q25 24 24 57t-26 59q-27 27 -73 35h-245q-48 -6 -75 -34q-25 -24 -24 -57t26 -59q27 -27 73 -35zM243 591l450 2q49 6 77 36q25 27 25.5 64t-23.5 65q-27 31 -74 38l-450 -2
q-50 -6 -78 -36q-26 -27 -26 -64t25 -65q27 -31 74 -38z" />
</svg>
