<?xml version="1.0" standalone="no"?>
<!DOCTYPE svg PUBLIC "-//W3C//DTD SVG 1.1//EN" "http://www.w3.org/Graphics/SVG/1.1/DTD/svg11.dtd" >
<svg xmlns="http://www.w3.org/2000/svg" xmlns:xlink="http://www.w3.org/1999/xlink" version="1.1" viewBox="-10 0 1020 1000">
   <path fill="currentColor"
d="M196 0q-53 0 -98 26.5t-71.5 71.5t-26.5 98v608q0 53 26.5 98t71.5 71.5t98 26.5h608q53 0 98 -26.5t71.5 -71.5t26.5 -98v-608q0 -53 -26.5 -98t-71.5 -71.5t-98 -26.5h-608zM534 187q69 5 111 46q39 40 44 100q7 57 -2 91q48 2 79 25q38 29 41 88v86q-5 71 -35 115
q-42 60 -134 73q-19 2 -50 2q-72 -1 -60 -1q-45 -1 -119 -1q-106 2 -161 -45t-55 -144q-1 -26 0 -70v-82v-58q-1 -35 0 -57q1 -4 1 -11.5v-11.5q4 -60 49 -99q41 -36 104 -45zM378 304q-29 5 -45 21.5t-16.5 37.5t15.5 37t46 20h152q29 -5 45 -21.5t16.5 -37.5t-15.5 -37
t-46 -20h-152zM343 557q-29 5 -45.5 23t-16 41t16.5 40q17 19 48 23l279 1q29 -4 45 -22.5t16 -41.5t-16 -40q-18 -19 -48 -23z" />
</svg>
