<?xml version="1.0" standalone="no"?>
<!DOCTYPE svg PUBLIC "-//W3C//DTD SVG 1.1//EN" "http://www.w3.org/Graphics/SVG/1.1/DTD/svg11.dtd" >
<svg xmlns="http://www.w3.org/2000/svg" xmlns:xlink="http://www.w3.org/1999/xlink" version="1.1" viewBox="-10 0 1020 1000">
   <path fill="currentColor"
d="M319 329q-6 -14 -19 -20t-28 0q-60 25 -106 71t-71 107q-6 14 0 27t19 19q8 3 14 3q23 0 33 -23q19 -47 55 -83t83 -54q14 -7 20 -20t0 -27zM844 130l26 26l-136 135l38 38q10 11 10 26t-10 25l-36 36q50 90 50 191q0 80 -31 153t-84 125t-125 84t-153 31t-153 -31
t-125 -84t-84 -125t-31 -153t31 -153t84 -125t125 -84t153 -31q101 0 191 50l36 -36q11 -10 25 -10t26 10l38 38zM849 99q-6 5 -13 5t-12 -5l-51 -51q-5 -5 -5 -12t5.5 -12.5t12.5 -5.5t13 5l50 51q5 5 5 12t-5 13zM977 227q-6 5 -13 5t-12 -5l-51 -51q-5 -5 -5 -12t5 -12.5
t13 -5.5t12 5l51 50q5 6 5 13t-5 13zM1000 125q0 8 -5 13t-13 5h-53q-8 0 -13 -5t-5 -13t5 -13t13 -5h53q8 0 13 5t5 13zM893 18v53q0 8 -5 13t-13 5t-13 -5t-5 -13v-53q0 -8 5 -13t13 -5t13 5t5 13zM977 48l-51 51q-5 5 -12 5t-12.5 -5t-5.5 -13t5 -12l51 -51q5 -5 12 -5
t12.5 5t5.5 13t-5 12z" />
</svg>
