<?xml version="1.0" standalone="no"?>
<!DOCTYPE svg PUBLIC "-//W3C//DTD SVG 1.1//EN" "http://www.w3.org/Graphics/SVG/1.1/DTD/svg11.dtd" >
<svg xmlns="http://www.w3.org/2000/svg" xmlns:xlink="http://www.w3.org/1999/xlink" version="1.1" viewBox="-11 0 951 1000">
   <path fill="currentColor"
d="M915 267q22 31 10 72l-154 505q-10 36 -42 60t-69 25h-515q-43 0 -83 -30t-55 -74q-14 -37 -1 -71l1 -15q1 -13 3 -20q0 -5 -2 -12t-2 -11q1 -6 5 -12l18 -26q13 -21 25 -51t17 -51q2 -6 0 -17t0 -16.5t9 -14.5l10 -13q12 -20 23 -51t14 -51q1 -5 -1 -17t0 -16
q2 -7 12 -17l13 -13q10 -14 23 -47t16 -54q0 -4 -2 -14t-1 -14.5t5 -10.5t10 -13l10 -11l9 -17q5 -10 8 -20t9 -20l11 -18q5 -8 15 -13t20 -6t26 3v1q21 -5 28 -5h425q41 0 64 32t10 72l-153 506q-20 66 -40 85t-72 20h-485q-15 0 -21 8.5t-1 23.5q14 39 81 39h515
q16 0 31 -9t20 -23l167 -550q4 -13 3 -32q21 8 33 24zM321 268q-2 7 1 12t11 6h339q8 0 15 -6t9 -12l12 -36q2 -7 -1 -12t-12 -6h-339q-7 0 -14 6t-9 12zM275 411q-3 7 1 12t11 6h339q7 0 14 -6t10 -12l11 -36q3 -7 -1 -13t-11 -5h-339q-7 0 -14 5t-10 13z" />
</svg>
