<?xml version="1.0" standalone="no"?>
<!DOCTYPE svg PUBLIC "-//W3C//DTD SVG 1.1//EN" "http://www.w3.org/Graphics/SVG/1.1/DTD/svg11.dtd" >
<svg xmlns="http://www.w3.org/2000/svg" xmlns:xlink="http://www.w3.org/1999/xlink" version="1.1" viewBox="-10 0 720 1000">
   <path fill="currentColor"
d="M682 256q18 8 18 28v562q0 14 -12 25t-28 11q-46 0 -46 -36v-522q0 -12 -12 -18l-404 -216q-32 -10 -68 10q-44 20 -56 44l408 228q18 8 18 28v550q0 22 -18 28q-6 4 -16 4q-14 0 -20 -4q-8 -6 -202 -127t-212 -131q-26 -18 -26 -34l-6 -524q0 -28 14 -52q28 -46 102 -77
t116 -9z" />
</svg>
