<?xml version="1.0" standalone="no"?>
<!DOCTYPE svg PUBLIC "-//W3C//DTD SVG 1.1//EN" "http://www.w3.org/Graphics/SVG/1.1/DTD/svg11.dtd" >
<svg xmlns="http://www.w3.org/2000/svg" xmlns:xlink="http://www.w3.org/1999/xlink" version="1.1" viewBox="-10 0 666 1000">
   <path fill="currentColor"
d="M0 876q0 -52 36 -88t87 -36t88 36t37 88t-37 88t-88 36t-87 -36t-36 -88zM0 500q0 -51 36 -88t87 -37t88 37t37 88t-37 88t-88 37t-87 -37t-36 -88zM0 124q0 -52 36 -88t87 -36t88 36t37 88t-37 88t-88 36t-87 -36t-36 -88zM397 876q0 -52 37 -88t88 -36t86 36t37 88
t-37 88t-86 36t-88 -36t-37 -88zM397 500q0 -51 37 -88t88 -37t86 37t37 88t-37 88t-86 37t-88 -37t-37 -88zM397 124q0 -52 37 -88t88 -36t86 36t37 88t-37 88t-86 36t-88 -36t-37 -88z" />
</svg>
