<?xml version="1.0" standalone="no"?>
<!DOCTYPE svg PUBLIC "-//W3C//DTD SVG 1.1//EN" "http://www.w3.org/Graphics/SVG/1.1/DTD/svg11.dtd" >
<svg xmlns="http://www.w3.org/2000/svg" xmlns:xlink="http://www.w3.org/1999/xlink" version="1.1" viewBox="-11 0 983 1000">
   <path fill="currentColor"
d="M118 680q38 -34 85 -29t88 45t47 87t-30 83q-86 84 -228 102q-84 12 -80 -14q0 -4 6 -10q52 -60 64 -145t48 -119zM958 34q26 26 -148 248t-292 338q-38 38 -124 104q-8 6 -16 -8q-18 -34 -48 -64q-32 -32 -66 -48q-16 -6 -8 -16q64 -84 104 -122q118 -116 344 -287
t254 -145z" />
</svg>
