<?xml version="1.0" standalone="no"?>
<!DOCTYPE svg PUBLIC "-//W3C//DTD SVG 1.1//EN" "http://www.w3.org/Graphics/SVG/1.1/DTD/svg11.dtd" >
<svg xmlns="http://www.w3.org/2000/svg" xmlns:xlink="http://www.w3.org/1999/xlink" version="1.1" viewBox="-11 0 963 1000">
   <path fill="currentColor"
d="M909 60q49 49 24 112q-135 339 -487 548q-17 10 -29 12q-16 104 -95 171t-184 67q-24 0 -46 -4l-76 -11l-12 -76q-20 -127 55 -223q68 -86 180 -104q5 -17 10 -27q209 -353 548 -488q19 -7 39 -7q43 0 73 30zM138 865q71 0 121 -44t58 -114l-54 -53q-77 8 -123 68
t-33 142q10 1 31 1zM393 631q38 -21 93 -61q-84 -84 -85 -86q-35 48 -62 93zM528 539q213 -165 309 -405q-243 96 -406 310z" />
</svg>
