<?xml version="1.0" standalone="no"?>
<!DOCTYPE svg PUBLIC "-//W3C//DTD SVG 1.1//EN" "http://www.w3.org/Graphics/SVG/1.1/DTD/svg11.dtd" >
<svg xmlns="http://www.w3.org/2000/svg" xmlns:xlink="http://www.w3.org/1999/xlink" version="1.1" viewBox="-11 0 1021 1000">
   <path fill="currentColor"
d="M901 0q39 0 69 26t29 65q0 35 -25 84q-185 351 -260 420q-54 51 -121 51q-71 0 -121 -52t-50.5 -123t51.5 -118l356 -323q33 -30 72 -30zM394 577q22 42 59 73t84 42l1 40q2 118 -72 193t-195 75q-68 0 -121 -26t-85 -71t-49 -102t-16 -123l23 17q19 14 35 25t32 20t26 9
q23 0 31 -20q14 -37 32 -63t39 -42t49 -27t57 -14t70 -6z" />
</svg>
