<?xml version="1.0" standalone="no"?>
<!DOCTYPE svg PUBLIC "-//W3C//DTD SVG 1.1//EN" "http://www.w3.org/Graphics/SVG/1.1/DTD/svg11.dtd" >
<svg xmlns="http://www.w3.org/2000/svg" xmlns:xlink="http://www.w3.org/1999/xlink" version="1.1" viewBox="-10 0 806 1000">
   <path fill="currentColor"
d="M214 732v36q0 7 -5 12t-13 6h-35q-7 0 -13 -6t-5 -12v-36q0 -7 5 -12t13 -6h35q8 0 13 6t5 12zM214 589v36q0 7 -5 13t-13 5h-35q-7 0 -13 -5t-5 -13v-36q0 -7 5 -12t13 -6h35q8 0 13 6t5 12zM357 589v36q0 7 -5 13t-13 5h-35q-8 0 -13 -5t-5 -13v-36q0 -7 5 -12t13 -6
h35q8 0 13 6t5 12zM214 446v36q0 7 -5 13t-13 5h-35q-7 0 -13 -5t-5 -13v-36q0 -7 5 -12t13 -5h35q8 0 13 5t5 12zM643 732v36q0 7 -5 12t-13 6h-36q-7 0 -12 -6t-6 -12v-36q0 -7 6 -12t12 -6h36q7 0 13 6t5 12zM500 589v36q0 7 -5 13t-13 5h-36q-7 0 -12 -5t-5 -13v-36
q0 -7 5 -12t12 -6h36q7 0 13 6t5 12zM357 446v36q0 7 -5 13t-13 5h-35q-8 0 -13 -5t-5 -13v-36q0 -7 5 -12t13 -5h35q8 0 13 5t5 12zM214 304v35q0 7 -5 13t-13 5h-35q-7 0 -13 -5t-5 -13v-35q0 -8 5 -13t13 -5h35q8 0 13 5t5 13zM643 589v36q0 7 -5 13t-13 5h-36
q-7 0 -12 -5t-6 -13v-36q0 -7 6 -12t12 -6h36q7 0 13 6t5 12zM500 446v36q0 7 -5 13t-13 5h-36q-7 0 -12 -5t-5 -13v-36q0 -7 5 -12t12 -5h36q7 0 13 5t5 12zM357 304v35q0 7 -5 13t-13 5h-35q-8 0 -13 -5t-5 -13v-35q0 -8 5 -13t13 -5h35q8 0 13 5t5 13zM214 161v35
q0 8 -5 13t-13 5h-35q-7 0 -13 -5t-5 -13v-35q0 -8 5 -13t13 -5h35q8 0 13 5t5 13zM643 446v36q0 7 -5 13t-13 5h-36q-7 0 -12 -5t-6 -13v-36q0 -7 6 -12t12 -5h36q7 0 13 5t5 12zM500 304v35q0 7 -5 13t-13 5h-36q-7 0 -12 -5t-5 -13v-35q0 -8 5 -13t12 -5h36q7 0 13 5
t5 13zM357 161v35q0 8 -5 13t-13 5h-35q-8 0 -13 -5t-5 -13v-35q0 -8 5 -13t13 -5h35q8 0 13 5t5 13zM643 304v35q0 7 -5 13t-13 5h-36q-7 0 -12 -5t-6 -13v-35q0 -8 6 -13t12 -5h36q7 0 13 5t5 13zM500 161v35q0 8 -5 13t-13 5h-36q-7 0 -12 -5t-5 -13v-35q0 -8 5 -13
t12 -5h36q7 0 13 5t5 13zM643 161v35q0 8 -5 13t-13 5h-36q-7 0 -12 -5t-6 -13v-35q0 -8 6 -13t12 -5h36q7 0 13 5t5 13zM500 929h214v-858h-643v858h215v-125q0 -8 5 -13t13 -5h178q7 0 13 5t5 13v125zM786 36v928q0 15 -11 25t-25 11h-714q-15 0 -25 -11t-11 -25v-928
q0 -15 11 -25t25 -11h714q15 0 25 11t11 25z" />
</svg>
