<?xml version="1.0" standalone="no"?>
<!DOCTYPE svg PUBLIC "-//W3C//DTD SVG 1.1//EN" "http://www.w3.org/Graphics/SVG/1.1/DTD/svg11.dtd" >
<svg xmlns="http://www.w3.org/2000/svg" xmlns:xlink="http://www.w3.org/1999/xlink" version="1.1" viewBox="-10 0 867 1000">
   <path fill="currentColor"
d="M750 0q15 0 25 11t11 25v928q0 15 -11 25t-25 11h-714q-15 0 -25 -11t-11 -25v-928q0 -15 11 -25t25 -11h714zM286 161v35q0 8 5 13t13 5h35q8 0 13 -5t5 -13v-35q0 -8 -5 -13t-13 -5h-35q-8 0 -13 5t-5 13zM286 304v35q0 8 5 13t13 5h35q8 0 13 -5t5 -13v-35
q0 -8 -5 -13t-13 -5h-35q-8 0 -13 5t-5 13zM286 446v36q0 8 5 13t13 5h35q8 0 13 -5t5 -13v-36q0 -7 -5 -12t-13 -5h-35q-8 0 -13 5t-5 12zM286 589v36q0 8 5 13t13 5h35q8 0 13 -5t5 -13v-36q0 -8 -5 -13t-13 -5h-35q-8 0 -13 5t-5 13zM214 768v-36q0 -8 -5 -13t-13 -5h-35
q-8 0 -13 5t-5 13v36q0 8 5 13t13 5h35q8 0 13 -5t5 -13zM214 625v-36q0 -8 -5 -13t-13 -5h-35q-8 0 -13 5t-5 13v36q0 8 5 13t13 5h35q8 0 13 -5t5 -13zM214 482v-36q0 -7 -5 -12t-13 -5h-35q-8 0 -13 5t-5 12v36q0 8 5 13t13 5h35q8 0 13 -5t5 -13zM214 339v-35
q0 -8 -5 -13t-13 -5h-35q-8 0 -13 5t-5 13v35q0 8 5 13t13 5h35q8 0 13 -5t5 -13zM214 196v-35q0 -8 -5 -13t-13 -5h-35q-8 0 -13 5t-5 13v35q0 8 5 13t13 5h35q8 0 13 -5t5 -13zM500 911v-107q0 -8 -5 -13t-13 -5h-178q-8 0 -13 5t-5 13v107q0 8 5 13t13 5h178q8 0 13 -5
t5 -13zM500 625v-36q0 -8 -5 -13t-13 -5h-36q-7 0 -12 5t-5 13v36q0 8 5 13t12 5h36q8 0 13 -5t5 -13zM500 482v-36q0 -7 -5 -12t-13 -5h-36q-7 0 -12 5t-5 12v36q0 8 5 13t12 5h36q8 0 13 -5t5 -13zM500 339v-35q0 -8 -5 -13t-13 -5h-36q-7 0 -12 5t-5 13v35q0 8 5 13t12 5
h36q8 0 13 -5t5 -13zM500 196v-35q0 -8 -5 -13t-13 -5h-36q-7 0 -12 5t-5 13v35q0 8 5 13t12 5h36q8 0 13 -5t5 -13zM643 768v-36q0 -8 -5 -13t-13 -5h-36q-7 0 -12 5t-6 13v36q0 8 6 13t12 5h36q8 0 13 -5t5 -13zM643 625v-36q0 -8 -5 -13t-13 -5h-36q-7 0 -12 5t-6 13v36
q0 8 6 13t12 5h36q8 0 13 -5t5 -13zM643 482v-36q0 -7 -5 -12t-13 -5h-36q-7 0 -12 5t-6 12v36q0 8 6 13t12 5h36q8 0 13 -5t5 -13zM643 339v-35q0 -8 -5 -13t-13 -5h-36q-7 0 -12 5t-6 13v35q0 8 6 13t12 5h36q8 0 13 -5t5 -13zM643 196v-35q0 -8 -5 -13t-13 -5h-36
q-7 0 -12 5t-6 13v35q0 8 6 13t12 5h36q8 0 13 -5t5 -13z" />
</svg>
