<?xml version="1.0" standalone="no"?>
<!DOCTYPE svg PUBLIC "-//W3C//DTD SVG 1.1//EN" "http://www.w3.org/Graphics/SVG/1.1/DTD/svg11.dtd" >
<svg xmlns="http://www.w3.org/2000/svg" xmlns:xlink="http://www.w3.org/1999/xlink" version="1.1" viewBox="-10 0 1233 1000">
   <path fill="currentColor"
d="M251 430q7 0 11.5 -5.5t4.5 -12.5t-4.5 -11.5t-11.5 -4.5h-100q-7 0 -12.5 4.5t-5.5 11.5t5.5 12.5t12.5 5.5h100zM251 502q7 0 11.5 -5.5t4.5 -11.5t-4.5 -11.5t-11.5 -5.5h-100q-7 0 -12.5 5t-5.5 12t5.5 12t12.5 5h100zM461 516q88 0 160 31q70 30 130 90v-376
q-60 63 -130 94q-72 32 -160 32v129zM958 296l-33 -34l137 -136l34 32zM983 471v-48h230v48h-230zM925 642l33 -34l138 138l-34 32zM797 126q15 0 25.5 10t10.5 24v577q0 14 -10.5 24t-25.5 10t-25 -10t-10 -24q-57 -69 -122 -110q-91 -55 -195 -55h-64l140 236l-85 62
q-14 8 -31 1q-15 -6 -25 -19l-174 -280h-94l-14 -9q-16 -11 -29 -24q-20 -18 -30 -38q-14 -25 -14 -51t14 -50q10 -20 30 -37q13 -13 29 -23l14 -8h333q104 0 195 -58q66 -42 122 -114q0 -14 10 -24t25 -10z" />
</svg>
