<?xml version="1.0" standalone="no"?>
<!DOCTYPE svg PUBLIC "-//W3C//DTD SVG 1.1//EN" "http://www.w3.org/Graphics/SVG/1.1/DTD/svg11.dtd" >
<svg xmlns="http://www.w3.org/2000/svg" xmlns:xlink="http://www.w3.org/1999/xlink" version="1.1" viewBox="-10 0 670 1000">
   <path fill="currentColor"
d="M150 75v50h-100q-19 0 -34.5 15.5t-15.5 34.5v650h50v100h100v-100h350v100h100v-100h50v-650q0 -19 -15.5 -34.5t-34.5 -15.5h-100v-50h-350zM100 225h450v250h-450v-100v-150zM150 625q21 0 35.5 14.5t14.5 35.5t-14.5 35.5t-35.5 14.5t-35.5 -14.5t-14.5 -35.5
t14.5 -35.5t35.5 -14.5zM500 625q21 0 35.5 14.5t14.5 35.5t-14.5 35.5t-35.5 14.5t-35.5 -14.5t-14.5 -35.5t14.5 -35.5t35.5 -14.5z" />
</svg>
