<?xml version="1.0" standalone="no"?>
<!DOCTYPE svg PUBLIC "-//W3C//DTD SVG 1.1//EN" "http://www.w3.org/Graphics/SVG/1.1/DTD/svg11.dtd" >
<svg xmlns="http://www.w3.org/2000/svg" xmlns:xlink="http://www.w3.org/1999/xlink" version="1.1" viewBox="-10 0 1163 1000">
   <path fill="currentColor"
d="M268 607q0 -37 -26 -63t-63 -26t-63 26t-27 63t27 63t63 26t63 -26t26 -63zM288 429h567l-50 -200q-1 -4 -8 -9t-11 -6h-429q-5 0 -12 6t-7 9zM1054 607q0 -37 -27 -63t-63 -26t-63 26t-26 63t26 63t63 26t63 -26t27 -63zM1143 554v214q0 8 -5 13t-13 5h-54v71
q0 45 -31 76t-76 31t-76 -31t-31 -76v-71h-571v71q0 45 -31 76t-76 31t-76 -31t-32 -76v-71h-53q-8 0 -13 -5t-5 -13v-214q0 -52 37 -89t88 -36h16l58 -234q13 -53 58 -88t100 -36h429q54 0 100 36t58 88l58 234h16q52 0 88 36t37 89z" />
</svg>
