<?xml version="1.0" standalone="no"?>
<!DOCTYPE svg PUBLIC "-//W3C//DTD SVG 1.1//EN" "http://www.w3.org/Graphics/SVG/1.1/DTD/svg11.dtd" >
<svg xmlns="http://www.w3.org/2000/svg" xmlns:xlink="http://www.w3.org/1999/xlink" version="1.1" viewBox="-10 0 749 1000">
   <path fill="currentColor"
d="M573 969h-417q-65 0 -110 -46t-46 -111v-625q0 -65 46 -110t110 -46h417q65 0 110 46t46 110v625q0 65 -46 111t-110 46zM156 135q-21 0 -37 15t-15 37v625q0 21 15 37t37 16h417q21 0 36 -16t16 -37v-625q0 -21 -16 -37t-36 -15h-417zM156 447q0 -51 52 -51t52 52
t-52 52t-52 -53zM313 447q0 -51 51.5 -51t51.5 52t-51.5 52t-51.5 -53zM469 447q0 -51 52 -51t52 52t-52 52t-52 -53zM156 603q0 -51 52 -51t52 52t-52 52t-52 -53zM313 603q0 -51 51.5 -51t51.5 52t-51.5 52t-51.5 -53zM469 603q0 -51 52 -51t52 52t-52 52t-52 -53z
M156 760q0 -52 52 -52t52 52t-52 52t-52 -52zM313 760q0 -52 51.5 -52t51.5 52t-51.5 52t-51.5 -52zM469 760q0 -52 52 -52t52 52t-52 52t-52 -52zM521 240h-312v51h312v-51zM573 187v156h-417v-156h417z" />
</svg>
