<?xml version="1.0" standalone="no"?>
<!DOCTYPE svg PUBLIC "-//W3C//DTD SVG 1.1//EN" "http://www.w3.org/Graphics/SVG/1.1/DTD/svg11.dtd" >
<svg xmlns="http://www.w3.org/2000/svg" xmlns:xlink="http://www.w3.org/1999/xlink" version="1.1" viewBox="-10 0 1010 1000">
   <path fill="currentColor"
d="M214 857q0 -29 -21 -50t-50 -21t-51 21t-21 50t21 51t51 21t50 -21t21 -51zM429 857q0 -29 -21 -50t-51 -21t-50 21t-21 50t21 51t50 21t51 -21t21 -51zM214 643q0 -30 -21 -51t-50 -21t-51 21t-21 51t21 50t51 21t50 -21t21 -50zM643 857q0 -29 -21 -50t-51 -21t-50 21
t-21 50t21 51t50 21t51 -21t21 -51zM429 643q0 -30 -21 -51t-51 -21t-50 21t-21 51t21 50t50 21t51 -21t21 -50zM214 429q0 -30 -21 -51t-50 -21t-51 21t-21 51t21 50t51 21t50 -21t21 -50zM643 643q0 -30 -21 -51t-51 -21t-50 21t-21 51t21 50t50 21t51 -21t21 -50z
M429 429q0 -30 -21 -51t-51 -21t-50 21t-21 51t21 50t50 21t51 -21t21 -50zM857 857v-214q0 -29 -21 -50t-50 -22t-50 22t-22 50v214q0 29 22 50t50 22t50 -22t21 -50zM643 429q0 -30 -21 -51t-51 -21t-50 21t-21 51t21 50t50 21t51 -21t21 -50zM857 250v-143q0 -14 -10 -25
t-26 -11h-714q-14 0 -25 11t-11 25v143q0 14 11 25t25 11h714q15 0 26 -11t10 -25zM857 429q0 -30 -21 -51t-50 -21t-51 21t-21 51t21 50t51 21t50 -21t21 -50zM929 71v858q0 29 -22 50t-50 21h-786q-29 0 -50 -21t-21 -50v-858q0 -29 21 -50t50 -21h786q29 0 50 21t22 50z
" />
</svg>
