<?xml version="1.0" standalone="no"?>
<!DOCTYPE svg PUBLIC "-//W3C//DTD SVG 1.1//EN" "http://www.w3.org/Graphics/SVG/1.1/DTD/svg11.dtd" >
<svg xmlns="http://www.w3.org/2000/svg" xmlns:xlink="http://www.w3.org/1999/xlink" version="1.1" viewBox="-10 0 796 1000">
   <path fill="currentColor"
d="M0 952v-775h92q0 -29 1 -39l4 -32q3 -22 11 -30t25 -16t40 -8t41 8t24 16t11 30t4 32v39h55v-39l4 -32q4 -32 12 -30t24 -16t40 -8q18 0 31 4t22 8t14 17t9 19t4 24t1 25v28h54v-28l2 -25q2 -25 4 -24t8 -19t15 -17t21 -8t31 -4q24 0 41 8t24 16t11 30t4 32v39h92v775
h-776zM65 775v112h139v-112h-139zM65 753h139v-119h-139v119zM65 612h139v-130h-139v130zM65 461h139v-112h-139v112zM136 258q0 33 37 33t37 -33v-130q0 -33 -37 -33t-37 33v130zM225 775v112h152v-112h-152zM225 753h152v-119h-152v119zM225 612h152v-130h-152v130z
M225 461h152v-112h-152v112zM351 258q0 33 37.5 33t37.5 -33v-130q0 -33 -37.5 -33t-37.5 33v130zM398 775v112h152v-112h-152zM398 753h152v-119h-152v119zM398 612h152v-130h-152v130zM398 461h152v-112h-152v112zM566 258q0 33 37.5 33t37.5 -33v-130q0 -33 -37.5 -33
t-37.5 33v130zM571 775v112h140v-112h-140zM571 753h140v-119h-140v119zM571 612h140v-130h-140v130zM571 461h140v-112h-140v112z" />
</svg>
