<?xml version="1.0" standalone="no"?>
<!DOCTYPE svg PUBLIC "-//W3C//DTD SVG 1.1//EN" "http://www.w3.org/Graphics/SVG/1.1/DTD/svg11.dtd" >
<svg xmlns="http://www.w3.org/2000/svg" xmlns:xlink="http://www.w3.org/1999/xlink" version="1.1" viewBox="-10 0 949 1000">
   <path fill="currentColor"
d="M71 929h161v-161h-161v161zM268 929h178v-161h-178v161zM71 732h161v-178h-161v178zM268 732h178v-178h-178v178zM71 518h161v-161h-161v161zM482 929h179v-161h-179v161zM268 518h178v-161h-178v161zM696 929h161v-161h-161v161zM482 732h179v-178h-179v178zM286 250
v-161q0 -7 -6 -12t-12 -6h-36q-7 0 -12 6t-6 12v161q0 7 6 13t12 5h36q7 0 12 -5t6 -13zM696 732h161v-178h-161v178zM482 518h179v-161h-179v161zM696 518h161v-161h-161v161zM714 250v-161q0 -7 -5 -12t-13 -6h-35q-7 0 -13 6t-5 12v161q0 7 5 13t13 5h35q8 0 13 -5t5 -13
zM929 214v715q0 29 -22 50t-50 21h-786q-29 0 -50 -21t-21 -50v-715q0 -29 21 -50t50 -21h72v-54q0 -37 26 -63t63 -26h36q37 0 63 26t26 63v54h214v-54q0 -37 27 -63t63 -26h35q37 0 64 26t26 63v54h71q29 0 50 21t22 50z" />
</svg>
