<?xml version="1.0" standalone="no"?>
<!DOCTYPE svg PUBLIC "-//W3C//DTD SVG 1.1//EN" "http://www.w3.org/Graphics/SVG/1.1/DTD/svg11.dtd" >
<svg xmlns="http://www.w3.org/2000/svg" xmlns:xlink="http://www.w3.org/1999/xlink" version="1.1" viewBox="-10 0 1001 1000">
   <path fill="currentColor"
d="M693 127h222q27 0 46.5 19.5t19.5 46.5v110q0 27 -19.5 46.5t-46.5 19.5h-100v489q0 35 -17 52t-53 17h-509q-34 0 -52 -17.5t-18 -51.5v-489h-100q-27 0 -46.5 -19.5t-19.5 -46.5v-110q0 -27 19.5 -46.5t46.5 -19.5h223v-5q0 -20 14.5 -34.5t35.5 -14.5h11q21 0 35 14.5
t14 34.5v5h185v-5q0 -20 14 -34.5t33 -14.5h13q20 0 34.5 14.5t14.5 34.5v5zM371 848q18 0 31 -13t13 -31.5t-13 -31.5t-31.5 -13t-32 13t-13.5 31.5t13.5 31.5t32.5 13zM371 734q18 0 31 -13t13 -31.5t-13 -31.5t-31.5 -13t-32 13t-13.5 31.5t13.5 31.5t32.5 13zM371 619
q18 0 31 -13t13 -31.5t-13 -31.5t-31.5 -13t-32 13t-13.5 31.5t13 31.5t33 13zM371 504q18 0 31 -13t13 -31.5t-13 -31.5t-31.5 -13t-32 13t-13.5 31.5t13.5 31.5t32.5 13zM491 848q18 0 31 -13t13 -31.5t-13 -31.5t-31.5 -13t-31.5 13t-13 31.5t13 31.5t32 13zM491 734
q18 0 31 -13t13 -31.5t-13 -31.5t-31.5 -13t-31.5 13t-13 31.5t13 31.5t32 13zM491 619q18 0 31 -13t13 -31.5t-13 -31.5t-31.5 -13t-31.5 13t-13 31.5t13 31.5t32 13zM491 504q18 0 31 -13t13 -31.5t-13 -31.5t-31.5 -13t-31.5 13t-13 31.5t13 31.5t32 13zM611 848
q20 0 32.5 -13t12.5 -31.5t-12.5 -31.5t-32 -13t-32.5 13t-13 31.5t13 31.5t32 13zM611 734q20 0 32.5 -13t12.5 -31.5t-12.5 -31.5t-32 -13t-32.5 13t-13 31.5t13 31.5t32 13zM611 619q20 0 32.5 -12.5t12.5 -31.5t-12.5 -32t-32 -13t-32.5 13t-13 31.5t13 31.5t32 13z
M611 504q20 0 32.5 -13t12.5 -31.5t-12.5 -31.5t-32 -13t-32.5 13t-13 31.5t13 31.5t32 13z" />
</svg>
