<?xml version="1.0" standalone="no"?>
<!DOCTYPE svg PUBLIC "-//W3C//DTD SVG 1.1//EN" "http://www.w3.org/Graphics/SVG/1.1/DTD/svg11.dtd" >
<svg xmlns="http://www.w3.org/2000/svg" xmlns:xlink="http://www.w3.org/1999/xlink" version="1.1" viewBox="-10 0 786 1000">
   <path fill="currentColor"
d="M210 335h-210v-185h210v185zM25 499v-69h160v69h-160zM25 674v-69h160v69h-160zM25 849v-69h160v69h-160zM488 335h-210v-185h210v185zM303 499v-69h160v69h-160zM303 674v-69h160v69h-160zM303 849v-69h160v69h-160zM766 335h-210v-185h210v185zM581 499v-69h160v69
h-160zM581 674v-69h160v69h-160zM581 849v-69h160v69h-160z" />
</svg>
