<?xml version="1.0" standalone="no"?>
<!DOCTYPE svg PUBLIC "-//W3C//DTD SVG 1.1//EN" "http://www.w3.org/Graphics/SVG/1.1/DTD/svg11.dtd" >
<svg xmlns="http://www.w3.org/2000/svg" xmlns:xlink="http://www.w3.org/1999/xlink" version="1.1" viewBox="-10 0 821 1000">
   <path fill="currentColor"
d="M2 257q2 -17 15 -32l120 -120q14 -12 21 4l97 182q8 16 -5 31l-44 44q-12 12 -14 31q0 30 31 77t61 80l31 32q14 14 36 34t72 54t80 34q19 0 32 -13l52 -52q14 -14 30 -4l175 103q7 4 8 10t-4 12l-120 120q-15 13 -32 15q-49 7 -111 -14t-114 -54t-97 -69t-72 -60
l-26 -25l-27 -28q-17 -18 -57 -69t-71 -100t-52 -112t-15 -111z" />
</svg>
