<?xml version="1.0" standalone="no"?>
<!DOCTYPE svg PUBLIC "-//W3C//DTD SVG 1.1//EN" "http://www.w3.org/Graphics/SVG/1.1/DTD/svg11.dtd" >
<svg xmlns="http://www.w3.org/2000/svg" xmlns:xlink="http://www.w3.org/1999/xlink" version="1.1" viewBox="-10 0 931 1000">
   <path fill="currentColor"
d="M554 575q0 40 -28.5 69t-69 29t-69.5 -29t-29 -69t29 -68.5t69 -28.5t69 28.5t29 68.5zM233 213h678v634h-911v-634h143v-60h90v60zM625 575q0 -46 -23 -85t-61.5 -62t-84.5 -23t-85 23t-62 62t-23 85t23 85t62 62t85 23t84.5 -23t61.5 -62t23 -85zM865 449v-190h-819
v190h250q29 -36 70.5 -56.5t89 -20.5t89.5 20.5t70 56.5h250z" />
</svg>
