<?xml version="1.0" standalone="no"?>
<!DOCTYPE svg PUBLIC "-//W3C//DTD SVG 1.1//EN" "http://www.w3.org/Graphics/SVG/1.1/DTD/svg11.dtd" >
<svg xmlns="http://www.w3.org/2000/svg" xmlns:xlink="http://www.w3.org/1999/xlink" version="1.1" viewBox="-10 0 938 1000">
   <path fill="currentColor"
d="M464 611q0 -112 112 -112t112 112t-112 112t-112 -112zM18 388q0 -46 33 -79t79 -33h223l96 -185q13 -38 53 -38h153q40 0 53 37l91 186q46 0 79 33t33 79v559h-893v-559zM130 443q0 23 17 40t39 16t39 -16t16 -40t-16 -39t-39 -16t-39 16t-17 39zM353 611q0 92 66 158
t157 65t157 -65t66 -158t-66 -157t-157 -66t-157 66t-66 157z" />
</svg>
