<?xml version="1.0" standalone="no"?>
<!DOCTYPE svg PUBLIC "-//W3C//DTD SVG 1.1//EN" "http://www.w3.org/Graphics/SVG/1.1/DTD/svg11.dtd" >
<svg xmlns="http://www.w3.org/2000/svg" xmlns:xlink="http://www.w3.org/1999/xlink" version="1.1" viewBox="-11 0 879 1000">
   <path fill="currentColor"
d="M641 626q0 -14 -10 -25l-101 -101l101 -101q10 -11 10 -25.5t-10 -25.5l-51 -50q-10 -11 -25 -11t-25 11l-101 101l-101 -101q-11 -11 -26 -11t-25 11l-50 50q-11 11 -11 25.5t11 25.5l101 101l-101 101q-11 11 -11 25.5t11 25.5l50 50q10 11 25 11t26 -11l101 -101
l101 101q10 11 25 11t25 -11l51 -50q10 -11 10 -26zM857 500q0 117 -57 215t-156 156t-215 58t-216 -58t-155 -156t-58 -215t58 -215t155 -156t216 -58t215 58t156 156t57 215z" />
</svg>
