<?xml version="1.0" standalone="no"?>
<!DOCTYPE svg PUBLIC "-//W3C//DTD SVG 1.1//EN" "http://www.w3.org/Graphics/SVG/1.1/DTD/svg11.dtd" >
<svg xmlns="http://www.w3.org/2000/svg" xmlns:xlink="http://www.w3.org/1999/xlink" version="1.1" viewBox="-10 0 831 1000">
   <path fill="currentColor"
d="M406 95q112 0 206 55q91 53 144 145q55 94 55 204.5t-55 205.5q-53 92 -144 145q-94 55 -205.5 55t-205.5 -55q-92 -54 -146 -145q-55 -95 -55 -205.5t55 -204.5q54 -92 146 -145q94 -55 205 -55zM490 499l125 -125l-85 -84l-124 125l-126 -126l-84 85l127 125l-127 125
l84 85l126 -127l124 125l85 -83z" />
</svg>
