<?xml version="1.0" standalone="no"?>
<!DOCTYPE svg PUBLIC "-//W3C//DTD SVG 1.1//EN" "http://www.w3.org/Graphics/SVG/1.1/DTD/svg11.dtd" >
<svg xmlns="http://www.w3.org/2000/svg" xmlns:xlink="http://www.w3.org/1999/xlink" version="1.1" viewBox="-10 0 490 1000">
   <path fill="currentColor"
d="M452 656q18 18 18 43t-18 42t-43 17t-43 -16l-132 -152l-132 152q-18 16 -43 16t-43 -16q-16 -18 -16 -43t16 -43l138 -156l-138 -158q-16 -18 -16 -43t16 -43q18 -16 43 -16t43 16l132 152l132 -152q18 -16 43 -16t43 17t18 42t-18 43l-138 158z" />
</svg>
