<?xml version="1.0" standalone="no"?>
<!DOCTYPE svg PUBLIC "-//W3C//DTD SVG 1.1//EN" "http://www.w3.org/Graphics/SVG/1.1/DTD/svg11.dtd" >
<svg xmlns="http://www.w3.org/2000/svg" xmlns:xlink="http://www.w3.org/1999/xlink" version="1.1" viewBox="-11 0 856 1000">
   <path fill="currentColor"
d="M416 83q173 0 295 122t123 295t-123 294t-295 122t-294 -122t-122 -294t122 -295t294 -122zM610 620l-120 -120l120 -120q15 -15 15 -37t-15 -36t-37 -15t-37 15l-120 119l-118 -119q-15 -15 -37 -15t-37 15t-15 36t15 37l119 120l-119 120q-15 15 -15 36t15.5 36.5
t36 15.5t37.5 -16l118 -119l120 119q17 16 37.5 16t36 -15.5t15.5 -36.5t-15 -36z" />
</svg>
