<?xml version="1.0" standalone="no"?>
<!DOCTYPE svg PUBLIC "-//W3C//DTD SVG 1.1//EN" "http://www.w3.org/Graphics/SVG/1.1/DTD/svg11.dtd" >
<svg xmlns="http://www.w3.org/2000/svg" xmlns:xlink="http://www.w3.org/1999/xlink" version="1.1" viewBox="-10 0 648 1000">
   <path fill="currentColor"
d="M596 218q32 31 32 74t-32 74l-135 135l135 135q32 31 32 73t-32 74q-30 30 -73 30t-74 -30l-135 -135l-135 135q-30 30 -74 30t-74.5 -30.5t-30.5 -73.5t31 -73l135 -135l-135 -135q-31 -32 -31 -74t30.5 -73.5t74.5 -31.5t74 31l135 135l135 -135q30 -31 74 -31t73 31z
" />
</svg>
