<?xml version="1.0" standalone="no"?>
<!DOCTYPE svg PUBLIC "-//W3C//DTD SVG 1.1//EN" "http://www.w3.org/Graphics/SVG/1.1/DTD/svg11.dtd" >
<svg xmlns="http://www.w3.org/2000/svg" xmlns:xlink="http://www.w3.org/1999/xlink" version="1.1" viewBox="-10 0 958 1000">
   <path fill="currentColor"
d="M0 500q0 -95 37 -182t100 -149t150 -100t182 -37t182 37t149 100t100 149t37 182t-37 182t-100 150t-149 100t-182 37t-182 -37t-150 -100t-100 -150t-37 -182zM261 655q0 22 15 37.5t37 15.5t37 -15l119 -119l118 119q15 15 37 15t37 -15.5t15 -37.5t-15 -37l-118 -118
l118 -119q15 -15 15 -37t-15 -37t-37 -15t-37 15l-118 119l-119 -119q-15 -15 -37 -15t-37 15t-15 37t15 37l118 119l-118 118q-15 15 -15 37z" />
</svg>
