<?xml version="1.0" standalone="no"?>
<!DOCTYPE svg PUBLIC "-//W3C//DTD SVG 1.1//EN" "http://www.w3.org/Graphics/SVG/1.1/DTD/svg11.dtd" >
<svg xmlns="http://www.w3.org/2000/svg" xmlns:xlink="http://www.w3.org/1999/xlink" version="1.1" viewBox="-10 0 706 1000">
   <path fill="currentColor"
d="M0 760q0 -36 26 -62l195 -195l-195 -196q-26 -25 -26 -61t26 -61t61 -25t61 25l196 196l195 -196q25 -25 61 -25t61 25t25 61t-25 61l-195 196l195 195q25 26 25 62t-25 61t-61 25t-61 -25l-195 -195l-196 195q-25 25 -61 25t-61.5 -25.5t-25.5 -60.5z" />
</svg>
