<?xml version="1.0" standalone="no"?>
<!DOCTYPE svg PUBLIC "-//W3C//DTD SVG 1.1//EN" "http://www.w3.org/Graphics/SVG/1.1/DTD/svg11.dtd" >
<svg xmlns="http://www.w3.org/2000/svg" xmlns:xlink="http://www.w3.org/1999/xlink" version="1.1" viewBox="-10 0 1021 1000">
   <path fill="currentColor"
d="M0 500q0 -207 147 -354t353 -146t354 146t146 354t-146 354t-354 146t-353 -146t-147 -354zM109 500q0 162 115 276t276 115t276 -115t115 -276t-115 -276t-276 -115t-276 115t-115 276zM254 637l137 -137l-137 -137l109 -109l137 137l137 -137l109 109l-137 137l137 137
l-109 109l-137 -137l-137 137z" />
</svg>
