<?xml version="1.0" standalone="no"?>
<!DOCTYPE svg PUBLIC "-//W3C//DTD SVG 1.1//EN" "http://www.w3.org/Graphics/SVG/1.1/DTD/svg11.dtd" >
<svg xmlns="http://www.w3.org/2000/svg" xmlns:xlink="http://www.w3.org/1999/xlink" version="1.1" viewBox="-11 0 950 1000">
   <path fill="currentColor"
d="M679 393q0 -15 -11 -25t-25 -11h-72v-71q0 -15 -10 -25t-25 -11t-25 11t-11 25v71h-71q-15 0 -25 11t-11 25t11 25t25 11h71v71q0 14 11 25t25 11t25 -11t10 -25v-71h72q14 0 25 -11t11 -25zM357 857q0 30 -21 51t-50 21t-51 -21t-21 -51t21 -50t51 -21t50 21t21 50z
M857 857q0 30 -21 51t-50 21t-51 -21t-21 -51t21 -50t51 -21t50 21t21 50zM929 250v286q0 13 -9 23t-23 12l-583 68l3 12q2 8 3 15t1 14t-13 34h513q15 0 26 11t10 25t-10 25t-26 11h-571q-14 0 -25 -11t-11 -25q0 -8 6 -22t17 -33t11 -22l-98 -459h-114q-15 0 -25 -10
t-11 -25t11 -26t25 -10h143q9 0 16 3t11 9t7 14t4 15t3 16l3 14h670q14 0 25 11t11 25z" />
</svg>
