<?xml version="1.0" standalone="no"?>
<!DOCTYPE svg PUBLIC "-//W3C//DTD SVG 1.1//EN" "http://www.w3.org/Graphics/SVG/1.1/DTD/svg11.dtd" >
<svg xmlns="http://www.w3.org/2000/svg" xmlns:xlink="http://www.w3.org/1999/xlink" version="1.1" viewBox="-10 0 1140 1000">
   <path fill="currentColor"
d="M0 146q0 -20 13 -33t33 -13h235q16 0 29 9t16 26l24 98h674l7 -21q10 -32 43 -32q9 0 13 2q15 4 24 16t9 27q0 5 -2 13l-118 393q-4 15 -16 24t-27 9h-559q-16 0 -28 -10t-17 -25l-108 -438h-199q-19 0 -32 -13t-14 -32zM372 324l62 248h489l2 -9l72 -239h-625zM414 808
q0 -38 28 -65t65 -27t65 27t27 65t-27 65t-65 27t-65 -27t-28 -65zM479 402h166v92h-146zM724 494l1 -92h162l-24 92h-139zM761 808q0 -38 28 -65t65 -27t65 27t27 65t-27 65t-65 27t-65 -27t-28 -65z" />
</svg>
