<?xml version="1.0" standalone="no"?>
<!DOCTYPE svg PUBLIC "-//W3C//DTD SVG 1.1//EN" "http://www.w3.org/Graphics/SVG/1.1/DTD/svg11.dtd" >
<svg xmlns="http://www.w3.org/2000/svg" xmlns:xlink="http://www.w3.org/1999/xlink" version="1.1" viewBox="-10 0 1163 1000">
   <path fill="currentColor"
d="M438 562h116q-8 89 -55 139t-120 51q-90 0 -142 -65t-52 -175t52 -175t130 -66q83 0 130 49t54 138h-113q-3 -36 -20 -56t-46 -19q-32 0 -49 34t-18 99q0 26 3 46t10 39t22 29t37 10q53 0 61 -78zM835 562h115q-7 89 -54 139t-120 51q-90 0 -142 -65t-51 -176
q0 -109 52 -174t130 -66q82 0 129 49t54 138h-114q-2 -36 -19 -56t-45 -19q-32 0 -50 34t-17 99q0 26 2 46t10 39t22 29t37 10q27 0 43 -21t18 -57zM1036 496q0 -115 -9 -171t-34 -90q-3 -5 -7 -8l-21 -14q-48 -36 -389 -36q-349 0 -396 36l-10 6q-7 4 -12 8t-8 8
q-25 33 -33 89t-8.5 172t8.5 172t33 89q4 5 9 9t11 7t10 7q24 18 133 27t263 9q340 0 389 -36l21 -14q6 -4 7 -9q26 -33 34 -89t9 -172zM1143 71v858h-1143v-858h1143z" />
</svg>
