<?xml version="1.0" standalone="no"?>
<!DOCTYPE svg PUBLIC "-//W3C//DTD SVG 1.1//EN" "http://www.w3.org/Graphics/SVG/1.1/DTD/svg11.dtd" >
<svg xmlns="http://www.w3.org/2000/svg" xmlns:xlink="http://www.w3.org/1999/xlink" version="1.1" viewBox="-11 0 982 1000">
   <path fill="currentColor"
d="M474 20q198 -2 340 136t146 336q2 200 -136 342t-338 146q-198 2 -341 -137t-145 -337q-4 -200 135 -342t339 -144zM486 878q156 -2 266 -114t108 -270t-115 -267t-270 -107t-266 114t-107 270t114 267t270 107zM362 580q40 0 58 -40l56 30q-20 36 -50 52q-32 20 -70 20
q-62 0 -100 -37t-38 -105t38 -106t96 -38q86 0 124 66l-62 32q-10 -20 -24 -28t-28 -8q-60 0 -60 82q0 38 14 58q18 22 46 22zM628 580q42 0 56 -40l58 30q-18 32 -50 52t-70 20q-64 0 -100 -38q-38 -36 -38 -104q0 -64 38 -106q38 -38 98 -38q84 0 120 66l-60 32
q-10 -20 -24 -28t-28 -8q-62 0 -62 82q0 36 16 58t46 22z" />
</svg>
