<?xml version="1.0" standalone="no"?>
<!DOCTYPE svg PUBLIC "-//W3C//DTD SVG 1.1//EN" "http://www.w3.org/Graphics/SVG/1.1/DTD/svg11.dtd" >
<svg xmlns="http://www.w3.org/2000/svg" xmlns:xlink="http://www.w3.org/1999/xlink" version="1.1" viewBox="-10 0 1020 1000">
   <path fill="currentColor"
d="M0 500q0 -98 38 -191q37 -90 110 -163q144 -146 352 -146t356 146q71 71 107 162q37 89 37 192.5t-36 192t-107 158.5q-74 72 -166 111q-94 38 -191.5 38t-190.5 -38q-89 -37 -162 -110t-110 -162t-37 -190zM90 500q0 79 31.5 154.5t91.5 134.5t133 88q72 31 154 31
t156.5 -31t136.5 -90q117 -114 117 -287q0 -85 -31 -157q-30 -76 -88 -132q-120 -121 -290.5 -121t-287.5 120q-59 59 -91 134.5t-32 155.5zM215 500q0 -71 41.5 -113t105.5 -42q92 0 133 72l-67 35q-11 -24 -27 -31q-15 -9 -29 -9q-67 0 -67 88q0 39 17.5 63.5t49.5 24.5
q44 0 62 -42l62 31q-21 36 -55.5 57t-76.5 21q-67 0 -108 -41t-41 -114zM504 500q0 -71 42 -113t105 -42q93 0 132 72l-66 35q-11 -23 -26 -31q-17 -9 -30 -9q-67 0 -67 88q0 41 17 64.5t50 23.5q43 0 61 -42l63 31q-22 37 -56.5 57.5t-74.5 20.5q-69 0 -109.5 -41
t-40.5 -114z" />
</svg>
