<?xml version="1.0" standalone="no"?>
<!DOCTYPE svg PUBLIC "-//W3C//DTD SVG 1.1//EN" "http://www.w3.org/Graphics/SVG/1.1/DTD/svg11.dtd" >
<svg xmlns="http://www.w3.org/2000/svg" xmlns:xlink="http://www.w3.org/1999/xlink" version="1.1" viewBox="-10 0 1306 1000">
   <path fill="currentColor"
d="M66 381h50l-25 -61zM413 674l41 -44l-39 -44h-91v27h80v31h-80v30h89zM501 631l55 61v-121zM662 604q0 -18 -22 -18h-47v38h46q23 0 23 -20zM823 602q0 -16 -23 -16h-46v34h45q24 0 24 -18zM668 342q0 -16 -23 -16h-46v33h45q24 0 24 -17zM924 381h50l-25 -61zM390 294
v151h-37v-118l-52 118h-32l-52 -118v118h-74l-14 -33h-75l-14 33h-39l64 -151h54l61 143v-143h59l48 103l43 -103h60zM700 604q0 11 -3 20t-7 14t-13 9t-15 6t-17 2t-18 1t-18 -1t-16 0v51h-71l-44 -50l-47 50h-142v-151h145l44 49l46 -49h116q60 0 60 49zM538 414v31h-121
v-151h121v32h-85v27h83v31h-83v30h85zM1286 726v128q0 31 -22 53t-52 22h-1138q-31 0 -52 -22t-22 -53v-379h62l14 -34h31l14 34h121v-25l11 25h63l11 -26v26h302v-55h6q5 0 5 7v48h156v-12q13 6 31 10t29 3t35 0t29 -1l14 -34h31l14 34h127v-32l18 32h102v-211h-100v25
l-14 -25h-104v25l-12 -25h-139q-39 0 -61 13v-13h-96v13q-14 -13 -41 -13h-350l-24 55l-24 -55h-111v25l-12 -25h-94l-44 100v-218q0 -31 22 -53t52 -22h1138q31 0 52 22t22 53v379h-67q-29 0 -45 12v-12h-99q-31 0 -44 12v-12h-176v12q-17 -12 -49 -12h-116v12
q-13 -12 -51 -12h-131l-30 32l-28 -32h-194v210h191l31 -32l29 32h117v-49h12q33 0 50 -7v56h98v-55h4q4 0 6 1t1 6v48h295q32 0 49 -13v13h94q33 0 53 -9zM863 595q0 13 -7 24t-19 17q14 5 19 14t5 26v30h-36v-25q0 -19 -7 -25t-26 -5h-38v55h-36v-151h86q26 0 43 8t16 32z
M708 335q0 13 -7 24t-18 17q14 5 19 14t5 26v29h-37q0 -5 1 -15t0 -13t-2 -11t-5 -9t-10 -4t-16 -2h-39v54h-36v-151l85 1q28 0 44 8t16 32zM1003 675v31h-120v-151h120v31h-84v27h83v31h-83v30zM766 294v151h-37v-151h37zM1152 658q0 48 -57 48h-70v-33h70q19 0 19 -13
q0 -9 -9 -12t-23 -3t-28 -2t-23 -12t-9.5 -31.5t14.5 -33.5t37 -11h72v31h-66q-20 0 -20 14q0 9 9 12t24 2t27 1t24 12t9 31zM1286 630v56q-14 20 -49 20h-70v-33h70q18 0 18 -13q0 -8 -7 -11t-17 -3t-23 -1t-22 -5t-17 -13t-7 -27q0 -22 15 -34t37 -11h72v31h-66
q-20 0 -20 13t16 14l38 2q22 1 32 15zM1194 295v150h-52l-68 -113v113h-73l-15 -33h-75l-14 33h-41q-72 0 -72 -74q0 -77 74 -77h35v33l-16 -1q-12 -1 -16 0t-12 1t-12 4t-9 7t-6 13l-2 19q0 21 8 32t28 11h16l51 -118h54l61 142v-142h55l64 105v-105h37z" />
</svg>
