<?xml version="1.0" standalone="no"?>
<!DOCTYPE svg PUBLIC "-//W3C//DTD SVG 1.1//EN" "http://www.w3.org/Graphics/SVG/1.1/DTD/svg11.dtd" >
<svg xmlns="http://www.w3.org/2000/svg" xmlns:xlink="http://www.w3.org/1999/xlink" version="1.1" viewBox="-10 0 1306 1000">
   <path fill="currentColor"
d="M175 434q0 28 -20 46q-17 15 -50 15h-10v-123h10q34 0 50 15q20 18 20 47zM1166 397q0 29 -36 29h-11v-56h12q35 0 35 27zM212 434q0 -42 -28 -68t-72 -26h-53v186h53q42 0 67 -21q33 -28 33 -71zM229 526h36v-186h-36v186zM407 470q0 -23 -11 -35t-42 -23
q-16 -6 -22 -11t-6 -13.5t7 -13.5t20 -6q16 0 29 15l19 -25q-23 -20 -54 -20q-25 0 -42 15t-16 38q0 19 10 31t35 20q21 7 25 11q11 6 11 18t-8 19t-20 8q-27 0 -39 -25l-24 22q25 36 64 36q29 0 47 -17t17 -44zM563 520v-43q-21 21 -44 21q-27 0 -45 -18t-17.5 -45.5
t17.5 -46.5t42 -19t47 22v-43q-23 -12 -45 -12q-41 0 -70 29t-29 69t29 68t69 29q24 0 46 -11zM1250 857v-294q-36 22 -81 47t-132 65t-184 77t-233 75t-281 66h875q15 0 25 -11t11 -25zM775 435q0 -42 -29 -72t-72 -29t-71 29t-30 72t30 71t71 30t72 -30t29 -71zM860 531
l80 -191h-39l-51 125l-49 -125h-40l79 191h20zM957 526h102v-31h-66v-50h64v-32h-64v-41h66v-32h-102v186zM1175 526h44l-58 -78q42 -9 42 -52q0 -27 -17 -41t-49 -15h-54v186h36v-74h5zM1286 146v708q0 31 -22 53t-52 22h-1138q-31 0 -52 -22t-22 -53v-708q0 -31 22 -53
t52 -22h1138q31 0 52 22t22 53z" />
</svg>
