<?xml version="1.0" standalone="no"?>
<!DOCTYPE svg PUBLIC "-//W3C//DTD SVG 1.1//EN" "http://www.w3.org/Graphics/SVG/1.1/DTD/svg11.dtd" >
<svg xmlns="http://www.w3.org/2000/svg" xmlns:xlink="http://www.w3.org/1999/xlink" version="1.1" viewBox="-10 0 1307 1000">
   <path fill="currentColor"
d="M624 190q-71 -47 -156 -47q-58 0 -111 22t-90 61t-61 90t-22 110q0 58 22 111t61 90t90 61t111 22q85 0 156 -47q-73 -60 -99 -148t0 -177t99 -148zM643 204q-70 55 -96 139t0 168t96 139q71 -56 96 -139t0 -168t-96 -139zM661 190q73 60 99 148t1 177t-100 148
q72 47 157 47q58 0 111 -22t90 -61t61 -90t22 -111q0 -57 -22 -110t-61 -90t-91 -61t-110 -22q-85 0 -157 47zM1075 593h4v-2h-10v2h4v10h2v-10zM1091 603h2v-12h-3l-3 8l-3 -8h-3v12h2v-9l3 8h2l3 -8v9zM1087 848v1h-3v-1h3zM1087 853h1l-2 -3h2v-4h-6v7h2v-3zM382 815
q0 -10 6 -17t16.5 -7t16.5 7t6.5 17.5t-6.5 17.5t-16.5 6.5t-16.5 -6.5t-6 -18zM646 791q17 0 20 18h-39q3 -18 19 -18zM845 815q0 -10 6 -17t16 -7t17 7t6.5 17.5t-6.5 17.5t-16.5 6.5t-16.5 -6.5t-6 -18zM997 815q0 -10 6 -17t17 -7t16 7t5.5 17.5t-5.5 17.5t-16 6t-17 -7
t-6 -17zM1085 856q-1 0 -2 -0.5t-2 -1.5t-1.5 -2t-0.5 -2.5t1 -1.5q0 -2 1 -3h1q1 0 1 -1h4l2 1l1 3q1 1 1 2h-1v3l-1 1l-1.5 1.5t-2.5 0.5zM334 853h17v-47q0 -14 -8 -22t-22 -8q-18 0 -26 13q-8 -13 -25 -13q-14 0 -22 11v-9h-17v75h17v-42q0 -20 17.5 -20t17.5 20v42h16
v-42q0 -20 19 -20q16 0 16 20v42zM427 853h16v-75h-16v9q-10 -11 -25 -11t-26 11t-10 28t10 29t27 11q16 0 24 -11v9zM526 830q0 -19 -26 -22l-8 -1q-13 -2 -13 -9t13.5 -7t24.5 6l7 -14q-12 -7 -31 -7q-14 0 -23 6t-8 18q0 19 26 22l8 1q13 2 13 8q0 9 -17 9q-14 0 -25 -7
l-8 12q14 10 33 10q16 0 25 -7t9 -18zM599 849l-5 -14q-7 4 -14 4q-11 0 -11 -12v-34h27v-15h-27v-23h-16v23h-16v15h16v34q0 28 26 28q11 0 20 -6zM647 776q-16 0 -27 11t-11 28.5t11 28.5t28.5 11t30.5 -11l-8 -12q-10 8 -22 8q-19 0 -23 -18h57v-7q0 -18 -11 -28t-25 -11
zM736 776q-13 0 -20 11v-9h-17v75h17v-42q0 -20 16 -20q6 0 10 2l5 -15q-5 -2 -11 -2zM752 815q0 18 11 29t28.5 11t27.5 -9l-8 -13q-10 7 -19.5 6.5t-16.5 -6.5t-6 -18t6 -17t17 -7q11 0 19 7l8 -13q-11 -9 -28 -9t-28 11t-11 28zM889 853h17v-75h-17v9q-8 -11 -24 -11
t-27 11t-10 28t10 29t28 11q15 0 23 -11v9zM963 776q-13 0 -19 11v-9h-16v75h16v-42q0 -20 16 -20q5 0 10 2l5 -15q-5 -2 -12 -2zM1041 853h17v-106h-17v40q-8 -11 -24 -11t-26 11t-11 28t11 28t26 12q17 0 24 -11v9zM1085 842l-1 1h-2q-1 0 -2.5 1t-1.5 2v7q0 1 2 2l2 2
q1 1 3 0h3q0 -1 1 -1l3 -3q1 -1 1 -3t-1 -4l-3 -3h-1l-1 -1q-1 -1 -2 0zM1286 143v714q0 29 -21 50t-51 22h-1143q-29 0 -50 -22t-21 -50v-714q0 -29 21 -50t50 -22h1143q29 0 51 22t21 50z" />
</svg>
