<?xml version="1.0" standalone="no"?>
<!DOCTYPE svg PUBLIC "-//W3C//DTD SVG 1.1//EN" "http://www.w3.org/Graphics/SVG/1.1/DTD/svg11.dtd" >
<svg xmlns="http://www.w3.org/2000/svg" xmlns:xlink="http://www.w3.org/1999/xlink" version="1.1" viewBox="-10 0 1307 1000">
   <path fill="currentColor"
d="M416 506q0 20 -14 34t-35 14q-17 0 -26 -9t-10 -25q0 -21 14 -35t35 -14q15 0 25 9t11 26zM854 422q0 24 -12 32t-37 9h-18l9 -60q1 -6 8 -6h10q12 0 19 1t14 7t7 17zM1050 506q0 20 -15 34t-34 14q-16 0 -26 -9t-10 -25q0 -21 14 -35t34 -14q16 0 26 9t11 26zM286 410
q0 -33 -21 -48t-56 -14h-90q-10 0 -11 10l-37 228q0 3 2 6t6 3h42q11 0 12 -11l10 -61q1 -5 4 -7t9 -4t9 -1t11 1h8q48 0 75 -27t27 -75zM459 584l23 -145q0 -4 -2 -7t-6 -2h-42q-8 0 -10 18q-15 -22 -54 -22t-67 30t-28 71q0 33 19 52t52 20q15 0 32 -7t27 -18q-2 7 -2 12
q0 9 7 9h38q11 0 13 -11zM708 437q0 -2 -2 -5t-5 -2h-43q-6 0 -10 5l-59 87l-25 -83q-3 -9 -12 -9h-42q-3 0 -5 2t-2 4.5t11 33.5t23 69t13 39q-45 63 -45 67q0 7 7 7h43q6 0 10 -5l142 -206q1 -1 1 -4zM920 410q0 -33 -21 -48t-56 -14h-89q-11 0 -12 10l-37 228q0 3 2 6
t6 3h45q7 0 9 -7l10 -65q1 -5 4 -7t9 -4t9 -1t11 1h8q48 0 75 -27t27 -75zM1093 584l23 -145q0 -4 -2 -7t-6 -2h-42q-8 0 -10 18q-14 -22 -53.5 -22t-67.5 30t-28 71q0 33 19 52t52 20q16 0 33 -7t26 -18l-1 5q-1 4 -1 7q0 9 7 9h38q11 0 13 -11zM1214 356v-1q0 -7 -7 -7
h-41q-6 0 -7 6l-37 233q0 3 2 5t6 3h36q11 0 12 -11zM219 431q-3 19 -15 25t-33 7h-19l10 -60q1 -6 7 -6h11q22 0 32 7t7 27zM1286 143v714q0 29 -21 50t-51 22h-1143q-29 0 -50 -22t-21 -50v-714q0 -29 21 -50t50 -22h1143q29 0 51 22t21 50z" />
</svg>
