<?xml version="1.0" standalone="no"?>
<!DOCTYPE svg PUBLIC "-//W3C//DTD SVG 1.1//EN" "http://www.w3.org/Graphics/SVG/1.1/DTD/svg11.dtd" >
<svg xmlns="http://www.w3.org/2000/svg" xmlns:xlink="http://www.w3.org/1999/xlink" version="1.1" viewBox="-10 0 1307 1000">
   <path fill="currentColor"
d="M891 504q0 38 -11 58.5t-30 20.5q-12 0 -22 -5v-125q16 -17 31 -17q32 0 32 68zM1136 484h-62q4 -55 32 -55t30 55zM266 559q0 -33 -19 -51t-56 -32q-20 -7 -29 -13t-9 -14q0 -15 21 -15q33 0 69 19l10 -63q-37 -18 -83 -18q-43 0 -68 21q-27 22 -27 61q0 33 18 51t55 31
q22 8 31 14t9 16q0 17 -27 17q-16 0 -39 -7t-40 -17l-11 63q41 23 94 23q45 0 72 -21q29 -22 29 -65zM430 439l11 -62h-54v-75l-72 12l-10 63l-25 5l-10 57h35v122q0 47 24 67q21 17 62 17q18 0 44 -6v-66q-18 4 -24 4q-24 0 -24 -28v-110h43zM607 453v-77q-9 -2 -16 -2
q-18 0 -31 9t-19 25l-5 -31h-73v263h83v-171q15 -17 46 -17q9 0 15 1zM627 640h84v-263h-84v263zM974 501q0 -68 -25 -100q-22 -29 -62 -29q-35 0 -65 31l-4 -26h-74v360l84 -14v-84q20 6 38 6q46 0 74 -31q34 -36 34 -113zM713 307q0 -19 -13 -31t-31 -13t-31 13t-13 31
t13 31t31 14t31 -14t13 -31zM1214 506q0 -63 -26 -98q-28 -36 -81 -36t-84 37t-31 100q0 72 35 105q31 31 90 31q56 0 89 -22l-9 -58q-32 18 -71 18q-24 0 -36 -11t-15 -37h138q1 -8 1 -29zM1286 143v714q0 29 -21 50t-51 22h-1143q-29 0 -50 -22t-21 -50v-714q0 -29 21 -50
t50 -22h1143q29 0 51 22t21 50z" />
</svg>
