<?xml version="1.0" standalone="no"?>
<!DOCTYPE svg PUBLIC "-//W3C//DTD SVG 1.1//EN" "http://www.w3.org/Graphics/SVG/1.1/DTD/svg11.dtd" >
<svg xmlns="http://www.w3.org/2000/svg" xmlns:xlink="http://www.w3.org/1999/xlink" version="1.1" viewBox="-10 0 1307 1000">
   <path fill="currentColor"
d="M1102 552h-77q8 -20 37 -99l12 -35l7 31zM296 516l-32 -164q-6 -31 -42 -31h-149l-2 8q174 44 225 187zM396 321l-90 245l-10 -50q-14 -39 -47 -72t-73 -50l75 285h98l145 -358h-98zM474 680h92l58 -359h-92zM902 330q-38 -15 -83 -15q-68 0 -112 33t-44 86q-1 56 81 97
q27 12 37 23t11 21q0 17 -17 26t-38 9q-48 0 -87 -19l-13 -6l-13 81q42 19 104 19q72 0 116 -33t45 -90q0 -59 -78 -97q-27 -14 -40 -23t-12.5 -21.5t14.5 -21.5t39 -9q39 -1 69 13l9 5zM1140 321h-72q-36 0 -48 31l-138 328h97l20 -54h118q3 12 11 54h86zM1286 143v714
q0 29 -21 50t-51 22h-1143q-29 0 -50 -22t-21 -50v-714q0 -29 21 -50t50 -22h1143q29 0 51 22t21 50z" />
</svg>
