<?xml version="1.0" standalone="no"?>
<!DOCTYPE svg PUBLIC "-//W3C//DTD SVG 1.1//EN" "http://www.w3.org/Graphics/SVG/1.1/DTD/svg11.dtd" >
<svg xmlns="http://www.w3.org/2000/svg" xmlns:xlink="http://www.w3.org/1999/xlink" version="1.1" viewBox="-10 0 1039 1000">
   <path fill="currentColor"
d="M2 411q5 -8 20 -8h69q17 -79 59 -147t103 -118t136 -78t161 -28q95 0 181 37t150 99t100 149t37 182t-37 182t-100 150t-150 100t-181 38q-162 0 -289 -100q-24 -18 -27 -48t15 -54t48 -27t53 14q89 69 200 69q87 0 162 -44t117 -117t43 -163q0 -65 -26 -125t-68 -103
t-103 -69t-125 -25q-107 0 -192 63t-116 163h43q15 0 20 8t-3 20l-135 222q-6 8 -14 8q-3 0 -6 -2t-5 -4l-137 -224q-8 -12 -3 -20z" />
</svg>
