<?xml version="1.0" standalone="no"?>
<!DOCTYPE svg PUBLIC "-//W3C//DTD SVG 1.1//EN" "http://www.w3.org/Graphics/SVG/1.1/DTD/svg11.dtd" >
<svg xmlns="http://www.w3.org/2000/svg" xmlns:xlink="http://www.w3.org/1999/xlink" version="1.1" viewBox="-10 0 829 1000">
   <path fill="currentColor"
d="M405 575q-30 0 -52.5 -22.5t-22.5 -53.5t22 -53.5t53.5 -22.5t53.5 22.5t22 53.5t-22 53.5t-54 22.5zM405 461q-16 0 -26.5 11t-10.5 28t10 27t27 10t28 -10.5t11 -27t-11 -27.5t-28 -11zM404 96q110 0 205 55q91 54 145 145q55 94 55 204t-55 204q-54 91 -145 145
q-95 55 -205 55t-204 -55q-91 -54 -145 -145q-55 -94 -55 -204t55 -204q54 -91 145 -145q94 -55 204 -55zM110 725q13 17 33 37q32 34 80 60l91 -172q41 25 90.5 25t89.5 -23.5t63 -63.5t23 -88q0 -35 -13 -67t-36 -56l165 -105q-13 -20 -30 -34q-37 -37 -81 -62l-91 172
q-38 -23 -89 -23q-48 0 -88 23.5t-63.5 63.5t-23.5 88q0 34 12 64.5t34 55.5z" />
</svg>
