<?xml version="1.0" standalone="no"?>
<!DOCTYPE svg PUBLIC "-//W3C//DTD SVG 1.1//EN" "http://www.w3.org/Graphics/SVG/1.1/DTD/svg11.dtd" >
<svg xmlns="http://www.w3.org/2000/svg" xmlns:xlink="http://www.w3.org/1999/xlink" version="1.1" viewBox="-10 0 1019 1000">
   <path fill="currentColor"
d="M5 574q-18 -127 29 -260q51 -126 158 -209t234 -99t258 29q127 51 210 158t100 234t-30 259q-51 126 -157 210t-234 99t-260 -30q-127 -51 -209 -157t-99 -234zM94 338q-68 168 4 335t239 233t335 -5t233 -239t-5 -334t-239 -233t-334 4t-233 239zM151 361
q57 -144 200 -205q15 -8 21 7t-8 21q-131 56 -183 189q-6 14 -21 8t-9 -20zM210 385q47 -121 166 -172q14 -6 20 9t-8 20q-106 45 -151 154q-6 14 -19 8t-8 -19zM267 406q39 -94 132 -135l2 -1q14 -6 20 8t-8 21q-84 35 -117 119q-6 16 -21 10t-8 -22zM325 430
q29 -73 101 -103t143 -1t103 101t1 143t-101 103t-143 1t-103 -101t-1 -143zM383 454q-19 48 2 96t68 66t96 -2t66 -68t-2 -96t-68 -66t-96 2t-66 68zM440 477q10 -24 35 -35t47 -1t35 35t1 47t-35 35t-47 1t-35 -35t-1 -47zM471 512q5 11 16 16t24 0t16 -16t0 -24t-16 -16
t-24 0t-16 16t0 24zM577 722q-6 -15 8 -21q84 -35 117 -119q6 -16 21 -10t8 22q-39 95 -132 136h-2q-14 6 -20 -8zM601 779q-6 -13 9 -21q108 -45 151 -153q6 -15 20 -9t9 21q-49 119 -168 170q-14 6 -21 -8zM626 837q-6 -15 8 -21q131 -56 183 -189q6 -14 21 -8t9 20
q-57 144 -200 205v2q-15 6 -21 -9z" />
</svg>
