<?xml version="1.0" standalone="no"?>
<!DOCTYPE svg PUBLIC "-//W3C//DTD SVG 1.1//EN" "http://www.w3.org/Graphics/SVG/1.1/DTD/svg11.dtd" >
<svg xmlns="http://www.w3.org/2000/svg" xmlns:xlink="http://www.w3.org/1999/xlink" version="1.1" viewBox="-11 0 879 1000">
   <path fill="currentColor"
d="M768 500l77 75q17 16 10.5 39t-28.5 29l-105 27l30 103q6 23 -11 39q-16 18 -39 11l-104 -30l-27 105q-5 23 -28 30q-7 1 -11 1q-17 0 -28 -13l-75 -77l-76 77q-15 17 -39 12q-23 -7 -28 -30l-27 -105l-104 30q-23 7 -39 -11q-17 -16 -10 -39l29 -103l-105 -27
q-22 -6 -28.5 -29t10.5 -39l77 -75l-77 -75q-17 -16 -10.5 -39t28.5 -29l105 -27l-29 -103q-7 -23 9.5 -40t39.5 -10l104 29l27 -104q5 -23 28 -29.5t39 11.5l76 77l75 -77q16 -17 39 -11t28 29l27 104l104 -29q23 -7 39.5 10t10.5 40l-30 103l105 27q22 6 28.5 29t-10.5 39
z" />
</svg>
