<?xml version="1.0" standalone="no"?>
<!DOCTYPE svg PUBLIC "-//W3C//DTD SVG 1.1//EN" "http://www.w3.org/Graphics/SVG/1.1/DTD/svg11.dtd" >
<svg xmlns="http://www.w3.org/2000/svg" xmlns:xlink="http://www.w3.org/1999/xlink" version="1.1" viewBox="-10 0 1061 1000">
   <path fill="currentColor"
d="M1019 455q22 15 22 44t-22 43l-96 64l51 104q14 26 -3 49t-41 26l-115 7l-7 117q-3 25 -25 40t-50 2l-104 -51l-65 96q-16 24 -43 24t-43 -24l-64 -96l-104 51q-26 14 -49 -2t-26 -40l-7 -117l-117 -7q-25 -3 -40 -25t-2 -50l51 -104l-96 -64q-24 -16 -24 -43t24 -44
l96 -64l-51 -104q-14 -27 2 -50t40 -25l117 -7l7 -115q3 -25 26 -41t49 -3l104 51l64 -96q13 -21 43 -21t43 21l65 96l104 -51q26 -14 50 3t25 41l7 115l115 7q25 3 41 25t3 50l-51 104zM809 611q-9 -17 -4 -36t21 -30l70 -46l-70 -47q-36 -26 -17 -66l37 -75l-83 -5
q-20 -1 -34 -15t-15 -34l-5 -83l-75 37q-40 19 -66 -17l-47 -70l-46 70q-26 36 -66 17l-75 -37l-5 83q-1 20 -15 34t-34 15l-84 5l38 75q9 18 3 36t-22 30l-69 47l69 46q16 11 22 30t-3 36l-38 75l84 5q20 1 33 15t15 34l6 84l75 -38q10 -5 22 -5q29 0 44 23l46 70l47 -69
q11 -16 30 -22t36 3l75 38l5 -84q1 -20 15 -34t34 -15l82 -5z" />
</svg>
