<?xml version="1.0" standalone="no"?>
<!DOCTYPE svg PUBLIC "-//W3C//DTD SVG 1.1//EN" "http://www.w3.org/Graphics/SVG/1.1/DTD/svg11.dtd" >
<svg xmlns="http://www.w3.org/2000/svg" xmlns:xlink="http://www.w3.org/1999/xlink" version="1.1" viewBox="-10 0 1163 1000">
   <path fill="currentColor"
d="M1143 857v72h-1143v-858h71v786h1072zM1071 161v242q0 12 -10 17t-20 -4l-68 -68l-353 353q-6 6 -13 6t-13 -6l-130 -130l-232 233l-107 -108l327 -326q5 -6 12 -6t13 6l130 130l259 -259l-67 -68q-9 -8 -5 -19t17 -11h243q7 0 12 5t5 13z" />
</svg>
