<?xml version="1.0" standalone="no"?>
<!DOCTYPE svg PUBLIC "-//W3C//DTD SVG 1.1//EN" "http://www.w3.org/Graphics/SVG/1.1/DTD/svg11.dtd" >
<svg xmlns="http://www.w3.org/2000/svg" xmlns:xlink="http://www.w3.org/1999/xlink" version="1.1" viewBox="-10 0 864 1000">
   <path fill="currentColor"
d="M449 599l292 -292q103 128 103 293q0 137 -73 250q-11 18 -32 20t-35 -13zM313 622l270 271q-97 72 -218 72q-151 0 -258 -107t-107 -259q0 -137 90 -240t223 -121v384zM694 195l-278 279v-394q0 -21 16 -35t37 -10q122 23 221 92q18 12 18 33t-14 35z" />
</svg>
