<?xml version="1.0" standalone="no"?>
<!DOCTYPE svg PUBLIC "-//W3C//DTD SVG 1.1//EN" "http://www.w3.org/Graphics/SVG/1.1/DTD/svg11.dtd" >
<svg xmlns="http://www.w3.org/2000/svg" xmlns:xlink="http://www.w3.org/1999/xlink" version="1.1" viewBox="-10 0 958 1000">
   <path fill="currentColor"
d="M156 734q-46 0 -84 -26t-56 -62t-15 -83t33 -83l208 -260q39 -48 104 -56t113 28l86 65l114 -141q47 -59 122 -59q63 0 108 44t48 99t-33 111l-209 260q-39 48 -103 56t-113 -28l-88 -65l-114 141q-47 59 -121 59zM365 265q-25 0 -41 20l-209 260q-20 27 -4 56t45 29
q25 0 41 -20l177 -221l167 126q16 12 38 10t35 -19l208 -260q20 -27 5 -56t-46 -29q-25 0 -41 20l-176 220l-168 -125q-12 -11 -31 -11zM834 943h-730q-22 0 -37 -16t-15 -37t15 -36t37 -15h730q21 0 36 15t15 36t-15 37t-36 16z" />
</svg>
