<?xml version="1.0" standalone="no"?>
<!DOCTYPE svg PUBLIC "-//W3C//DTD SVG 1.1//EN" "http://www.w3.org/Graphics/SVG/1.1/DTD/svg11.dtd" >
<svg xmlns="http://www.w3.org/2000/svg" xmlns:xlink="http://www.w3.org/1999/xlink" version="1.1" viewBox="-10 0 957 1000">
   <path fill="currentColor"
d="M0 900v-557q0 -21 15 -36t36 -15h122q21 0 36 15t15 36v557q0 21 -15 37t-36 15h-122q-21 0 -36 -15t-15 -37zM362 900v-379q0 -21 15 -36t36 -15h122q21 0 36 15t15 36v379q0 21 -15 36t-36 15h-122q-21 0 -36 -15t-15 -36zM714 900v-801q0 -21 14 -36t36 -15h122
q21 0 36 15t15 36v801q0 22 -15 37t-36 15h-122q-21 0 -36 -15t-14 -37z" />
</svg>
