<?xml version="1.0" standalone="no"?>
<!DOCTYPE svg PUBLIC "-//W3C//DTD SVG 1.1//EN" "http://www.w3.org/Graphics/SVG/1.1/DTD/svg11.dtd" >
<svg xmlns="http://www.w3.org/2000/svg" xmlns:xlink="http://www.w3.org/1999/xlink" version="1.1" viewBox="-10 0 923 1000">
   <path fill="currentColor"
d="M330 71q0 -43 31 -73t73 -31h10q217 19 389 161q33 29 36 75t-29 79l-30 29q93 135 93 297q0 184 -115 328q-33 39 -82 39q-23 0 -46 -12q-107 70 -231 70q-178 0 -303 -126t-126 -304q0 -149 93 -265t237 -151v-116zM429 930q106 0 194 -65l-240 -248v-334
q-119 18 -199 108t-80 212q0 135 95 231t230 96zM434 541l331 -333q-145 -121 -331 -137v470zM445 607l261 264q93 -117 93 -263.5t-93 -263.5z" />
</svg>
