<?xml version="1.0" standalone="no"?>
<!DOCTYPE svg PUBLIC "-//W3C//DTD SVG 1.1//EN" "http://www.w3.org/Graphics/SVG/1.1/DTD/svg11.dtd" >
<svg xmlns="http://www.w3.org/2000/svg" xmlns:xlink="http://www.w3.org/1999/xlink" version="1.1" viewBox="-10 0 855 1000">
   <path fill="currentColor"
d="M40 633q-34 -28 -39 -70t22 -76l209 -260q26 -33 68 -38t76 19l127 96l145 -181q28 -34 70 -39t77 23t38 70t-22 76l-208 260q-26 32 -68 38t-75 -19l-128 -97l-146 182q-30 40 -81 40q-35 0 -65 -24zM53 917q-21 0 -37 -16t-15 -37t15 -36t37 -15h729q21 0 37 15t16 36
t-16 37t-37 16h-729z" />
</svg>
