<?xml version="1.0" standalone="no"?>
<!DOCTYPE svg PUBLIC "-//W3C//DTD SVG 1.1//EN" "http://www.w3.org/Graphics/SVG/1.1/DTD/svg11.dtd" >
<svg xmlns="http://www.w3.org/2000/svg" xmlns:xlink="http://www.w3.org/1999/xlink" version="1.1" viewBox="-10 0 1010 1000">
   <path fill="currentColor"
d="M834 83q65 0 110 46t46 110v365q0 65 -46 111t-110 45h-469l-156 157v-157h-53q-65 0 -110 -45t-46 -111v-365q0 -65 46 -110t110 -46h678zM885 604v-365q0 -21 -15 -37t-36 -15h-678q-21 0 -37 15t-15 37v365q0 21 15 36t37 15h678q21 0 36 -15t15 -36zM260 525
q-42 0 -73 -30t-31 -73t31 -74t73 -30q44 0 74 31t31 73t-31 73t-74 30zM260 369q-21 0 -36 16t-15 37t15 36t36 15t37 -15t16 -36t-16 -37t-37 -16zM495 525q-44 0 -74 -30t-31 -73t31 -73t74.5 -30.5t72.5 29.5t31 74t-31 73t-73 30zM495 369q-21 0 -37 16t-15 37t15 36
t37 15t37 -15t16 -36t-16 -37t-37 -16zM729 525q-44 0 -74 -30t-30 -73t30 -74t74 -30t74 31t31 73t-31 73t-74 30zM729 369q-21 0 -36 16t-15 37t15 36t36 15t37 -15t15 -36t-15 -37t-37 -16z" />
</svg>
