<?xml version="1.0" standalone="no"?>
<!DOCTYPE svg PUBLIC "-//W3C//DTD SVG 1.1//EN" "http://www.w3.org/Graphics/SVG/1.1/DTD/svg11.dtd" >
<svg xmlns="http://www.w3.org/2000/svg" xmlns:xlink="http://www.w3.org/1999/xlink" version="1.1" viewBox="-10 0 1020 1000">
   <path fill="currentColor"
d="M786 429q0 77 -53 143t-143 104t-197 38q-48 0 -98 -9q-70 49 -155 72q-21 5 -48 9h-2q-6 0 -12 -5t-6 -12q-1 -1 -1 -3t1 -4t1 -3l1 -3l4 -6l3 -3q3 -3 2 -2l28 -30q5 -5 12 -17t14 -21t11 -25q-69 -40 -108 -98t-40 -125q0 -78 53 -144t143 -104t197 -38t197 38
t143 104t53 144zM1000 571q0 67 -40 126t-108 98q5 14 11 25t14 21l27 33q9 11 13 14l5 5l4 6l3 10q0 1 -1 3q-2 8 -7 13t-12 4q-28 -4 -48 -9q-86 -23 -156 -72q-50 9 -98 9q-151 0 -263 -74q32 3 49 3q90 0 172 -25t148 -72q69 -52 107 -119t37 -141q0 -43 -13 -85
q72 39 114 99t42 128z" />
</svg>
