<?xml version="1.0" standalone="no"?>
<!DOCTYPE svg PUBLIC "-//W3C//DTD SVG 1.1//EN" "http://www.w3.org/Graphics/SVG/1.1/DTD/svg11.dtd" >
<svg xmlns="http://www.w3.org/2000/svg" xmlns:xlink="http://www.w3.org/1999/xlink" version="1.1" viewBox="-10 0 1314 1000">
   <path fill="currentColor"
d="M0 370q0 -107 68 -199t186 -145t255 -53q104 0 198 32t162 84t108 127t41 154q0 65 -26 126t-73 109t-109 86t-140 57t-161 20q-103 0 -194 -30l-116 81q-65 42 -91 25t-11 -97l23 -121q-57 -53 -88 -119t-32 -137zM650 838q118 -23 215 -82t158 -145t75 -186
q89 35 142 102t54 147q0 49 -22 96t-62 83l17 86q10 55 -8 67t-64 -17l-82 -57q-63 21 -136 21q-87 0 -163 -31t-124 -84z" />
</svg>
