<?xml version="1.0" standalone="no"?>
<!DOCTYPE svg PUBLIC "-//W3C//DTD SVG 1.1//EN" "http://www.w3.org/Graphics/SVG/1.1/DTD/svg11.dtd" >
<svg xmlns="http://www.w3.org/2000/svg" xmlns:xlink="http://www.w3.org/1999/xlink" version="1.1" viewBox="-10 0 1020 1000">
   <path fill="currentColor"
d="M393 214q-85 0 -160 29t-118 79t-44 107q0 45 30 88t83 73l54 32l-19 46q19 -11 34 -21l25 -18l30 6q43 8 85 8q85 0 160 -29t118 -79t43 -106t-43 -107t-118 -79t-160 -29zM393 143q106 0 197 38t143 104t53 144t-53 143t-143 104t-197 38q-48 0 -98 -9q-70 49 -155 72
q-21 5 -48 9h-2q-6 0 -12 -5t-6 -12q-1 -1 -1 -3t1 -4t1 -3l1 -3l4 -6l3 -3q3 -3 2 -2l28 -30q5 -5 12 -17t14 -21t11 -25q-69 -40 -108 -98t-40 -125q0 -78 53 -144t143 -104t197 -38zM852 795q5 14 11 25t14 21l27 33q9 11 13 14l5 5l4 6l3 10q0 1 -1 3q-2 8 -7 13t-12 4
q-28 -4 -48 -9q-86 -23 -156 -72q-50 9 -98 9q-151 0 -263 -74q32 3 49 3q90 0 172 -25t148 -72q69 -52 107 -119t37 -141q0 -43 -13 -85q72 39 114 99t42 127.5t-40 126.5t-108 98z" />
</svg>
