<?xml version="1.0" standalone="no"?>
<!DOCTYPE svg PUBLIC "-//W3C//DTD SVG 1.1//EN" "http://www.w3.org/Graphics/SVG/1.1/DTD/svg11.dtd" >
<svg xmlns="http://www.w3.org/2000/svg" xmlns:xlink="http://www.w3.org/1999/xlink" version="1.1" viewBox="-10 0 938 1000">
   <path fill="currentColor"
d="M688 388q0 92 -65 158t-159 65q0 -46 -33 -79t-78 -33h-112q-93 0 -158 -55t-65 -168.5t65 -167.5t158 -55h223q92 0 158 58t66 165v112zM353 388zM353 388zM743 394q74 14 121 68t47 149q0 113 -65 168t-158 55h-112q-46 0 -79 34t-33 79q-92 0 -157 -66t-66 -158v-112
q0 -29 6 -56h106q24 0 40 17t16 39v55h55q113 0 195 -79t84 -193z" />
</svg>
