<?xml version="1.0" standalone="no"?>
<!DOCTYPE svg PUBLIC "-//W3C//DTD SVG 1.1//EN" "http://www.w3.org/Graphics/SVG/1.1/DTD/svg11.dtd" >
<svg xmlns="http://www.w3.org/2000/svg" xmlns:xlink="http://www.w3.org/1999/xlink" version="1.1" viewBox="-10 0 938 1000">
   <path fill="currentColor"
d="M743 394q74 14 121 68t47 149q0 113 -65 168t-158 55h-112q-46 0 -79 34t-33 79q-92 0 -157 -66t-66 -158v-112q0 -29 6 -56h106q2 0 5 1l4 1q-9 23 -9 54v112q0 56 44 88q67 -88 179 -88h112q111 0 111 -112q0 -96 -80 -109q21 -48 24 -108zM464 165h-223q-39 0 -64 11
t-34 33t-11 35t-2 32q0 112 111 112h112q111 0 179 89q44 -33 44 -89v-112q0 -65 -34 -88t-78 -23zM464 53q92 0 158 58t66 165v112q0 92 -65 158t-159 65q0 -46 -33 -79t-78 -33h-112q-93 0 -158 -55t-65 -168.5t65 -167.5t158 -55h223z" />
</svg>
