<?xml version="1.0" standalone="no"?>
<!DOCTYPE svg PUBLIC "-//W3C//DTD SVG 1.1//EN" "http://www.w3.org/Graphics/SVG/1.1/DTD/svg11.dtd" >
<svg xmlns="http://www.w3.org/2000/svg" xmlns:xlink="http://www.w3.org/1999/xlink" version="1.1" viewBox="-10 0 749 1000">
   <path fill="currentColor"
d="M573 865h-417q-65 0 -110 -46t-46 -110v-418q0 -65 46 -110t110 -46h260q22 0 37 16t16 36t-16 37t-37 16h-260q-21 0 -37 15t-15 36v418q0 21 15 36t37 15h417q21 0 36 -15t16 -36v-157q0 -21 16 -36t37 -16t36 16t15 36v157q0 65 -46 110t-110 46zM425 647
q-29 0 -49 -20l-138 -138q-20 -22 -20 -50t20 -49t48 -20t49 20l75 74l180 -284q14 -25 42 -33t53 5t33 42t-7 53l-225 364q-18 36 -61 36z" />
</svg>
