<?xml version="1.0" standalone="no"?>
<!DOCTYPE svg PUBLIC "-//W3C//DTD SVG 1.1//EN" "http://www.w3.org/Graphics/SVG/1.1/DTD/svg11.dtd" >
<svg xmlns="http://www.w3.org/2000/svg" xmlns:xlink="http://www.w3.org/1999/xlink" version="1.1" viewBox="-10 0 948 1000">
   <path fill="currentColor"
d="M786 519v177q0 67 -47 114t-114 47h-464q-67 0 -114 -47t-47 -114v-464q0 -66 47 -113t114 -48h464q35 0 65 14q9 4 10.5 13.5t-5.5 15.5l-27 28q-6 5 -13 5l-5 -1q-13 -3 -25 -3h-464q-37 0 -63 26t-27 63v464q0 37 27 63t63 27h464q37 0 63 -27t26 -63v-141q0 -8 5 -13
l36 -35q6 -6 13 -6q3 0 7 2q11 4 11 16zM915 246l-455 454q-13 14 -31 14t-32 -14l-240 -240q-14 -13 -14 -31t14 -32l61 -62q14 -13 32 -13t32 13l147 147l361 -361q13 -13 31 -13t32 13l62 61q13 14 13 32t-13 32z" />
</svg>
