<?xml version="1.0" standalone="no"?>
<!DOCTYPE svg PUBLIC "-//W3C//DTD SVG 1.1//EN" "http://www.w3.org/Graphics/SVG/1.1/DTD/svg11.dtd" >
<svg xmlns="http://www.w3.org/2000/svg" xmlns:xlink="http://www.w3.org/1999/xlink" version="1.1" viewBox="-10 0 1021 1000">
   <path fill="currentColor"
d="M498 0q134 -1 252 67q130 75 196 208l-414 -22q-89 -5 -164 41t-103 128l-154 -236q72 -89 174 -137t213 -49zM82 226l188 370q40 80 117 121t164 25l-129 252q-118 -19 -214 -88t-152 -176t-56 -230q0 -149 82 -274zM967 320q32 84 33 174t-27 170t-86 152t-137 117
q-128 74 -278 66l226 -347q49 -73 46 -162t-59 -155zM500 331q70 0 119 50t50 119t-50 119t-119 49t-119 -49t-49 -119t49 -119t119 -50z" />
</svg>
