<?xml version="1.0" standalone="no"?>
<!DOCTYPE svg PUBLIC "-//W3C//DTD SVG 1.1//EN" "http://www.w3.org/Graphics/SVG/1.1/DTD/svg11.dtd" >
<svg xmlns="http://www.w3.org/2000/svg" xmlns:xlink="http://www.w3.org/1999/xlink" version="1.1" viewBox="-10 0 1021 1000">
   <path fill="currentColor"
d="M498 0q-112 1 -213 49q-103 49 -174 137l154 237q19 -55 60 -95.5t95 -60.5t112 -14l414 22q-32 -64 -81 -116q-50 -54 -115 -92q-115 -67 -252 -67zM82 226q-40 60 -60 129q-22 70 -22 145q0 123 56 231q55 105 151.5 175t215.5 88l128 -252q-57 11 -113 -4t-100 -52
t-68 -90zM967 320l-282 15q38 44 52.5 100t4.5 113t-44 104l-226 347q72 5 142.5 -11.5t135.5 -54.5q106 -61 172 -164q63 -100 75.5 -218.5t-30.5 -230.5zM500 331q-46 0 -84.5 23t-61.5 61.5t-23 84.5t23 84.5t61.5 61.5t84.5 23t84.5 -23t61.5 -61.5t23 -84.5t-23 -84.5
t-61.5 -61.5t-84.5 -23z" />
</svg>
