<?xml version="1.0" standalone="no"?>
<!DOCTYPE svg PUBLIC "-//W3C//DTD SVG 1.1//EN" "http://www.w3.org/Graphics/SVG/1.1/DTD/svg11.dtd" >
<svg xmlns="http://www.w3.org/2000/svg" xmlns:xlink="http://www.w3.org/1999/xlink" version="1.1" viewBox="-10 0 820 1000">
   <path fill="currentColor"
d="M700 75l-112 33l54 148l108 -31zM519 127l-147 42l3 6l28 77l25 65l147 -42zM305 187l-130 38l56 148l130 -37l-33 -84zM108 244l-108 31l50 150l113 -33zM50 425v450q0 21 14.5 35.5t35.5 14.5h650q21 0 35.5 -14.5t14.5 -35.5v-450h-750zM150 525h550v150h-550v-150z
" />
</svg>
