<?xml version="1.0" standalone="no"?>
<!DOCTYPE svg PUBLIC "-//W3C//DTD SVG 1.1//EN" "http://www.w3.org/Graphics/SVG/1.1/DTD/svg11.dtd" >
<svg xmlns="http://www.w3.org/2000/svg" xmlns:xlink="http://www.w3.org/1999/xlink" version="1.1" viewBox="-10 0 708 1000">
   <path fill="currentColor"
d="M0 500q0 -121 86 -213l43 -236q4 -22 21 -36t41 -15h250q22 0 39 15t22 36l45 244q57 64 72 144l2 -1q2 -1 4 -1q25 0 44 19t19 44t-19 44t-44 18h-4l-2 -1q-17 84 -76 148l-45 240q-4 22 -20 36t-40 15h-250q-24 0 -40 -15t-21 -36l-45 -240q-82 -90 -82 -209zM63 500
q0 103 73 177t177 73t176 -73t74 -177t-74 -177t-176 -73t-177 73t-73 177zM94 500q0 -14 9 -22t22 -9t23 9t8 22t-8 22t-23 9t-22 -9t-9 -22zM148 632q0 -13 9 -22t23 -8t22 8t9 22t-9 22t-22 10t-23 -10t-9 -22zM148 367q0 -13 9 -22t23 -9t22 9t9 22t-9 23t-22 8t-23 -8
t-9 -23zM156 769l32 169h250l31 -169q-74 43 -156 43t-157 -43zM160 230q74 -42 156 -42t157 42l-32 -167h-250zM281 687q0 -13 9 -22t23 -9t22 9t9 22t-9 23t-22 9t-23 -9t-9 -23zM281 500q0 -14 10 -22l162 -134q8 -6 14 1t2 14l-76 94l-59 70q-8 8 -21 8t-23 -9t-9 -22z
M281 312q0 -13 9 -22t23 -9t22 9t9 22t-9 23t-22 9t-23 -9t-9 -23zM414 632q0 -13 9 -22t21 -8t23 8t10 23q0 12 -10 21t-23 10t-21 -10t-9 -22zM469 500q0 -14 9 -22t22 -9t22 9t9 22t-9 22t-22 9t-22 -9t-9 -22z" />
</svg>
