<?xml version="1.0" standalone="no"?>
<!DOCTYPE svg PUBLIC "-//W3C//DTD SVG 1.1//EN" "http://www.w3.org/Graphics/SVG/1.1/DTD/svg11.dtd" >
<svg xmlns="http://www.w3.org/2000/svg" xmlns:xlink="http://www.w3.org/1999/xlink" version="1.1" viewBox="-10 0 833 1000">
   <path fill="currentColor"
d="M406 93q110 0 205 56q92 53 146 145q56 95 56 205.5t-56 204.5q-54 92 -146 146q-95 56 -205.5 56t-204.5 -56q-92 -54 -146 -146q-55 -94 -55 -204.5t55 -205.5q54 -92 146 -145q94 -56 205 -56zM406 816q86 0 160 -44q72 -42 114 -114q43 -74 43 -160t-43 -160
q-42 -71 -114 -113q-74 -43 -160 -43t-160 43q-72 42 -114 113q-43 74 -43 160t43 160q42 72 114 114q74 44 160 44zM514 548h-115q-21 0 -33 -15l-131 -143q-14 -15 -12 -32t15 -29.5t30.5 -13.5t31.5 13l118 130h96q22 0 33 13.5t10.5 31.5t-12 31.5t-31.5 13.5z" />
</svg>
