<?xml version="1.0" standalone="no"?>
<!DOCTYPE svg PUBLIC "-//W3C//DTD SVG 1.1//EN" "http://www.w3.org/Graphics/SVG/1.1/DTD/svg11.dtd" >
<svg xmlns="http://www.w3.org/2000/svg" xmlns:xlink="http://www.w3.org/1999/xlink" version="1.1" viewBox="-10 0 1020 1000">
   <path fill="currentColor"
d="M1000 501q0 136 -67 251t-182 182t-251 67t-251 -67t-182 -182t-67 -251t67 -251t182 -182t251 -67t251 67t182 182t67 251zM883 501q0 -158 -112 -271t-271 -112q-126 0 -226 74l2 2q-48 35 -83 83l-2 -2q-74 100 -74 226q0 158 113 270t270 113q126 0 226 -74l-2 -2
q48 -35 83 -83l2 2q74 -100 74 -226zM680 701q0 25 -17 42t-43 17.5t-42 -17.5l-120 -120q-18 -18 -18 -62v-320q0 -25 18 -43t42 -17t43 17t17 43v315l102 103q18 16 18 42z" />
</svg>
