<?xml version="1.0" standalone="no"?>
<!DOCTYPE svg PUBLIC "-//W3C//DTD SVG 1.1//EN" "http://www.w3.org/Graphics/SVG/1.1/DTD/svg11.dtd" >
<svg xmlns="http://www.w3.org/2000/svg" xmlns:xlink="http://www.w3.org/1999/xlink" version="1.1" viewBox="-10 0 833 1000">
   <path fill="currentColor"
d="M406 93q110 0 205 56q92 53 146 145q56 95 56 205.5t-56 204.5q-54 92 -146 146q-95 56 -205.5 56t-204.5 -56q-92 -54 -146 -146q-55 -94 -55 -204.5t55 -205.5q54 -92 146 -145q94 -56 205 -56zM406 816q86 0 160 -44q72 -42 114 -114q43 -74 43 -160t-43 -160
q-42 -71 -114 -113q-74 -43 -160 -43t-160 43q-72 42 -114 113q-43 74 -43 160t43 160q42 72 114 114q74 44 160 44zM526 548h-127q-21 0 -33 -15l-143 -156q-14 -15 -12 -32t15 -29t30.5 -13t31.5 13l130 142h108q22 0 33.5 13.5t10.5 31.5t-12.5 31.5t-31.5 13.5zM381 261
q0 -10 7.5 -17t16.5 -7t16.5 7t7.5 17t-7 17t-17 7t-17 -7.5t-7 -16.5zM548 326q0 -10 7 -17t16 -7t16.5 7t7.5 17t-7 17t-16.5 7t-16.5 -7.5t-7 -16.5zM621 497q0 -9 7.5 -16.5t16.5 -7.5t16.5 7.5t7.5 16.5t-7 16.5t-17 7.5t-17 -7t-7 -17zM555 665q0 -10 7 -17t17 -7
t17 7t7 16.5t-7.5 16.5t-16.5 7t-16.5 -7t-7.5 -16zM380 737q0 -9 7 -16.5t17 -7.5t17 7.5t7 16.5t-7.5 16.5t-16.5 7.5t-16.5 -7t-7.5 -17zM218 672q0 -9 7 -16.5t16 -7.5t16.5 7.5t7.5 16.5t-7 16.5t-17 7.5t-16.5 -7t-6.5 -17zM143 497q0 -9 7 -16.5t16 -7.5t16.5 7.5
t7.5 16.5t-7 16.5t-17 7.5t-16.5 -7t-6.5 -17z" />
</svg>
