<?xml version="1.0" standalone="no"?>
<!DOCTYPE svg PUBLIC "-//W3C//DTD SVG 1.1//EN" "http://www.w3.org/Graphics/SVG/1.1/DTD/svg11.dtd" >
<svg xmlns="http://www.w3.org/2000/svg" xmlns:xlink="http://www.w3.org/1999/xlink" version="1.1" viewBox="-11 0 1021 1000">
   <path fill="currentColor"
d="M929 911v-607q0 -8 -6 -13t-12 -5h-607q-8 0 -13 5t-5 13v607q0 7 5 12t13 6h607q7 0 12 -6t6 -12zM1000 304v607q0 37 -26 63t-63 26h-607q-37 0 -63 -26t-27 -63v-607q0 -37 27 -64t63 -26h607q37 0 63 26t26 64zM786 89v90h-72v-90q0 -7 -5 -12t-13 -6h-607
q-7 0 -12 6t-6 12v607q0 8 6 13t12 5h90v72h-90q-36 0 -63 -27t-26 -63v-607q0 -37 26 -63t63 -26h607q37 0 64 26t26 63z" />
</svg>
