<?xml version="1.0" standalone="no"?>
<!DOCTYPE svg PUBLIC "-//W3C//DTD SVG 1.1//EN" "http://www.w3.org/Graphics/SVG/1.1/DTD/svg11.dtd" >
<svg xmlns="http://www.w3.org/2000/svg" xmlns:xlink="http://www.w3.org/1999/xlink" version="1.1" viewBox="-10 0 1062 1000">
   <path fill="currentColor"
d="M146 721q-11 0 -21 -4q-57 -25 -91 -76t-34 -115q0 -72 44 -128t112 -73v-8q0 -128 92 -220t221 -92q115 0 202 74t105 187q4 21 -8 39t-33.5 21t-39.5 -9t-21 -33q-14 -75 -71 -125t-134 -49q-86 0 -148 61t-61 146q0 15 5 43l13 66l-74 -5q-40 0 -70 31t-30 74
q0 31 17 57t45 38q25 11 30 36t-9 44t-41 20zM885 266q65 0 111 46t45 110t-45 111t-111 46h-114q10 26 10 51q0 65 -45 111t-111 45h-260q-21 0 -37 16t-15 37t15 37t37 15t36 15t15 37t-15 36t-36 16q-65 0 -111 -46t-45 -110t45 -111t111 -46h260q21 0 37 -15t16 -37
t-16 -36t-37 -15h-240q-21 0 -36 -16t-15 -37t15 -37t36 -15h500q21 0 37 -15t16 -37t-16 -36t-37 -16t-36 -16t-15 -37t15 -36t36 -15z" />
</svg>
