<?xml version="1.0" standalone="no"?>
<!DOCTYPE svg PUBLIC "-//W3C//DTD SVG 1.1//EN" "http://www.w3.org/Graphics/SVG/1.1/DTD/svg11.dtd" >
<svg xmlns="http://www.w3.org/2000/svg" xmlns:xlink="http://www.w3.org/1999/xlink" version="1.1" viewBox="-11 0 1021 1000">
   <path fill="currentColor"
d="M0 514q0 -90 64 -154t155 -65q17 0 31 2q1 -4 4 -4q-4 -18 -4 -29q0 -72 51 -123t123 -51h13q73 -89 188 -89t187 89h14q72 0 123 51t50 123q0 66 -46 117q46 59 46 133q0 90 -64 154t-154 65q-42 0 -78 -14q-82 72 -193 74l-10 20l62 62l-187 125l62 -125l-62 -62
l45 -30q-72 -19 -123 -64q-37 14 -78 14q-90 0 -155 -65t-64 -154zM63 514q0 64 45 110t111 46q48 0 89 -29q74 89 188 92l47 -6q89 -15 148 -86q41 29 90 29q64 0 110 -46t46 -110q0 -52 -33 -96q-23 -29 -56 -44t-67 -16l-26 2q-18 3 -33 9q-32 -62 -91 -99t-131 -37
q-104 0 -178 76q-24 24 -41 55q-1 3 -4 5q-27 -11 -58 -11q-65 0 -111 46t-45 110zM318 229q82 -59 182 -59q73 0 140 34q66 32 110 93q13 -2 31 -2q70 0 129 41q27 -31 27 -72q0 -47 -32 -79t-79 -32q-23 0 -43 8q-22 -45 -65 -72t-93 -26t-94 26t-64 72q-21 -8 -43 -8
q-37 0 -65.5 21t-40.5 55z" />
</svg>
