<?xml version="1.0" standalone="no"?>
<!DOCTYPE svg PUBLIC "-//W3C//DTD SVG 1.1//EN" "http://www.w3.org/Graphics/SVG/1.1/DTD/svg11.dtd" >
<svg xmlns="http://www.w3.org/2000/svg" xmlns:xlink="http://www.w3.org/1999/xlink" version="1.1" viewBox="-11 0 1163 1000">
   <path fill="currentColor"
d="M703 42l-52 156l-52 -156q-8 -22 3 -42t32 -28q29 -10 54 12t15 58zM983 200l-148 74l74 -147q10 -20 32 -27t42 3q31 16 30 49t-30 48zM1068 510l-157 -52l157 -51q21 -8 41 2t29 31q10 29 -13 55t-57 15zM394 127l74 147l-148 -74q-21 -10 -28 -31t3 -42q16 -32 50 -30
t49 30zM874 528q75 29 121 94t46 148q0 108 -76 185t-184 77h-572q-86 0 -148 -62t-61 -147q0 -73 44 -128t112 -73v-8q0 -62 23 -117q-30 -28 -9 -67t66 -23q95 -105 233 -105h4q3 0 3 1q69 -79 175 -79q97 0 165 69t69 165q0 36 -11 70zM651 328q-55 0 -95 42
q110 39 154 152q26 -8 59 -10q12 -28 12 -54q0 -54 -38 -92t-92 -38zM781 614q-7 0 -27 4t-30 5q-39 0 -49 -38q-1 -1 -2 -5t0 -5q-14 -72 -70 -120t-130 -50h-2q-1 2 -2 2q-86 0 -148 60t-61 147q0 15 5 43l13 62l-74 -1q-40 0 -70 31t-30 74t30 73t75 31h572q65 0 111 -46
t46 -111t-46 -110t-111 -46z" />
</svg>
