<?xml version="1.0" standalone="no"?>
<!DOCTYPE svg PUBLIC "-//W3C//DTD SVG 1.1//EN" "http://www.w3.org/Graphics/SVG/1.1/DTD/svg11.dtd" >
<svg xmlns="http://www.w3.org/2000/svg" xmlns:xlink="http://www.w3.org/1999/xlink" version="1.1" viewBox="-11 0 1021 1000">
   <path fill="currentColor"
d="M0 719q0 -90 64 -154t155 -65q17 0 31 2q1 -4 4 -4q-4 -18 -4 -29q0 -72 51 -123t123 -51h13q73 -90 188 -90t187 90h14q72 0 123 51t50 123q0 66 -46 117q46 61 46 133q0 90 -64 154t-154 65q-42 0 -78 -14q-88 76 -203 76t-203 -76q-37 14 -78 14q-90 0 -155 -65
t-64 -154zM63 719q0 64 45 110t111 46q48 0 89 -29q77 92 192 92t191 -92q41 29 90 29q64 0 110 -46t46 -110q0 -52 -33 -96q-23 -29 -56 -44t-67 -16l-26 2q-18 3 -33 9q-32 -62 -91 -99t-131 -37q-104 0 -178 76q-24 26 -41 55q0 5 -4 5q-27 -11 -58 -11q-65 0 -111 46
t-45 110zM318 434q82 -59 182 -59q73 0 139.5 33t110.5 94q13 -2 31 -2q71 0 129 43q27 -33 27 -74q0 -47 -32 -79t-79 -32q-23 0 -43 8q-22 -43 -65 -70.5t-93 -27.5t-93.5 27.5t-64.5 70.5q-21 -8 -43 -8q-37 0 -65.5 21t-40.5 55z" />
</svg>
