<?xml version="1.0" standalone="no"?>
<!DOCTYPE svg PUBLIC "-//W3C//DTD SVG 1.1//EN" "http://www.w3.org/Graphics/SVG/1.1/DTD/svg11.dtd" >
<svg xmlns="http://www.w3.org/2000/svg" xmlns:xlink="http://www.w3.org/1999/xlink" version="1.1" viewBox="-11 0 1062 1000">
   <path fill="currentColor"
d="M781 865h-572q-86 0 -148 -61t-61 -148q0 -72 44 -128t112 -73v-8q0 -130 92 -221t221 -91q100 0 180 58t114 152q115 -9 196 68t82 191q0 107 -76 184t-184 77zM204 551q-40 0 -70 31t-30 74t30 73t75 31h572q65 0 111 -46t46 -110t-46 -111t-111 -46q-18 0 -42 8
l-56 16l-9 -57q-14 -75 -71 -125t-134 -49q-86 0 -148 61t-61 146q0 15 5 43l13 62z" />
</svg>
