<?xml version="1.0" standalone="no"?>
<!DOCTYPE svg PUBLIC "-//W3C//DTD SVG 1.1//EN" "http://www.w3.org/Graphics/SVG/1.1/DTD/svg11.dtd" >
<svg xmlns="http://www.w3.org/2000/svg" xmlns:xlink="http://www.w3.org/1999/xlink" version="1.1" viewBox="-11 0 1021 1000">
   <path fill="currentColor"
d="M0 514q0 -90 64 -154t155 -65q17 0 31 2q1 -4 4 -4q-4 -18 -4 -29q0 -72 51 -123t123 -51h13q73 -89 188 -89t187 89h14q72 0 123 51t50 123q0 66 -46 117q46 59 46 133q0 90 -64 154t-154 65q-42 0 -78 -14q-82 72 -193 74l-10 20l62 62l-187 125l62 -125l-62 -62
l45 -30q-72 -19 -123 -64q-37 14 -78 14q-90 0 -155 -65t-64 -154z" />
</svg>
