<?xml version="1.0" standalone="no"?>
<!DOCTYPE svg PUBLIC "-//W3C//DTD SVG 1.1//EN" "http://www.w3.org/Graphics/SVG/1.1/DTD/svg11.dtd" >
<svg xmlns="http://www.w3.org/2000/svg" xmlns:xlink="http://www.w3.org/1999/xlink" version="1.1" viewBox="-11 0 1226 1000">
   <path fill="currentColor"
d="M0 593q-2 -44 10 -86t35 -78t57 -64t77 -45q77 -30 156 -13q36 -81 111 -130t166 -49q62 0 118 25t97 64t65 98t25 118q0 9 -2 27q1 0 3 -1t3 -1q81 -31 159 3t110 116q20 55 12 108t-43 97t-88 64q-37 14 -73 14h-718q-86 0 -158 -49t-103 -130q-17 -43 -19 -88z" />
</svg>
