<?xml version="1.0" standalone="no"?>
<!DOCTYPE svg PUBLIC "-//W3C//DTD SVG 1.1//EN" "http://www.w3.org/Graphics/SVG/1.1/DTD/svg11.dtd" >
<svg xmlns="http://www.w3.org/2000/svg" xmlns:xlink="http://www.w3.org/1999/xlink" version="1.1" viewBox="-10 0 1021 1000">
   <path fill="currentColor"
d="M2 616q0 -90 64 -155t155 -64q14 0 31 4q0 -1 1 -3t1 -3q-2 -16 -2 -29q0 -70 50.5 -122t123.5 -52q8 0 13 2q72 -90 188 -90t187 90q5 -2 14 -2q72 0 122.5 52t50.5 121t-46 118q46 60 46 132q0 92 -64 155.5t-154 63.5q-42 0 -78 -14q-88 77 -203 77t-203 -77
q-37 14 -78 14q-91 0 -155 -63.5t-64 -154.5z" />
</svg>
