<?xml version="1.0" standalone="no"?>
<!DOCTYPE svg PUBLIC "-//W3C//DTD SVG 1.1//EN" "http://www.w3.org/Graphics/SVG/1.1/DTD/svg11.dtd" >
<svg xmlns="http://www.w3.org/2000/svg" xmlns:xlink="http://www.w3.org/1999/xlink" version="1.1" viewBox="-10 0 1456 1000">
   <path fill="currentColor"
d="M1435 718q0 111 -75 193t-186 89v1h-870v-1q-7 1 -21 1q-117 0 -200 -83t-83 -200q0 -74 37 -139t101 -103q-8 -32 -8 -62q0 -117 83 -200t200 -83q103 0 186 70q43 -91 129 -146t185 -54q144 0 246 102t102 246q0 55 -16 103q85 29 138 103t52 163z" />
</svg>
