<?xml version="1.0" standalone="no"?>
<!DOCTYPE svg PUBLIC "-//W3C//DTD SVG 1.1//EN" "http://www.w3.org/Graphics/SVG/1.1/DTD/svg11.dtd" >
<svg xmlns="http://www.w3.org/2000/svg" xmlns:xlink="http://www.w3.org/1999/xlink" version="1.1" viewBox="-10 0 1021 1000">
   <path fill="currentColor"
d="M2 719q0 -90 64 -154t155 -65q17 0 31 2q78 -107 211 -125q-10 -31 -10 -64q0 -30 9 -63q16 -66 63 -113q39 -39 94 -58q7 -3 13 -3q11 0 20 9q10 11 10 22q0 5 -2 11q-12 32 -12 65q0 20 4 39q12 52 50 91t91 51q20 4 39 4q33 0 66 -12q5 -2 10 -2q12 0 22 9.5t10 20.5
q0 6 -3 13q-20 54 -59 93q-7 8 -27 22q66 21 108 78t42 129q0 90 -64 154t-154 65q-42 0 -78 -14q-88 76 -203 76t-203 -76q-37 14 -78 14q-90 0 -155 -65t-64 -154zM64 719q0 64 46 110t111 46q48 0 89 -29q77 92 192 92t191 -92q41 29 90 29q64 0 110 -46t46 -110
t-46 -110t-110 -46q-31 0 -59 11l-5 -6q-3 -4 -3 -7q-25 -40 -58 -69q-38 -28 -84 -43q-35 -11 -72 -11q-14 0 -14 2q-69 2 -123 39t-86 95q-27 -11 -58 -11q-65 0 -111 46t-46 110zM519 274q-4 20 -4 40q0 33 12 63q134 10 219 117q65 -15 103 -64h-15q-101 0 -175 -73
t-74 -171q0 -10 1 -20q-8 6 -16 14q-39 39 -51 94z" />
</svg>
