<?xml version="1.0" standalone="no"?>
<!DOCTYPE svg PUBLIC "-//W3C//DTD SVG 1.1//EN" "http://www.w3.org/Graphics/SVG/1.1/DTD/svg11.dtd" >
<svg xmlns="http://www.w3.org/2000/svg" xmlns:xlink="http://www.w3.org/1999/xlink" version="1.1" viewBox="-11 0 1020 1000">
   <path fill="currentColor"
d="M0 344q0 -90 64 -154t155 -65q17 0 31 2q43 -61 109 -93q68 -33 141 -33t139.5 32.5t110.5 93.5q13 -2 31 -2q90 0 154 65t64 154t-64 154t-154 65q-42 0 -78 -14q-76 66 -182 74l-21 65l62 62l-187 188l62 -188l-62 -62l68 -69q-84 -15 -146 -70q-37 14 -78 14
q-90 0 -155 -65t-64 -154zM63 344q0 64 45 110t111 46q48 0 89 -29q77 92 192 92l43 -6q89 -15 148 -86q41 29 90 29q64 0 110 -46t46 -110t-46 -110t-110 -46q-31 0 -59 12q-32 -62 -91 -99.5t-131 -37.5t-131 37.5t-92 99.5q-27 -12 -58 -12q-65 0 -111 46t-45 110z" />
</svg>
