<?xml version="1.0" standalone="no"?>
<!DOCTYPE svg PUBLIC "-//W3C//DTD SVG 1.1//EN" "http://www.w3.org/Graphics/SVG/1.1/DTD/svg11.dtd" >
<svg xmlns="http://www.w3.org/2000/svg" xmlns:xlink="http://www.w3.org/1999/xlink" version="1.1" viewBox="-11 0 1020 1000">
   <path fill="currentColor"
d="M0 531q0 -89 64 -154t155 -64q17 0 31 2q43 -61 110 -94t140 -33t139.5 33t110.5 94q13 -2 31 -2q90 0 154 64t64 154t-64 155t-154 64q-42 0 -78 -14q-88 77 -203 77t-203 -77q-37 14 -78 14q-90 0 -155 -64t-64 -155zM63 531q0 65 45 111t111 46q48 0 89 -30
q77 92 192 92t191 -92q41 30 90 30q64 0 110 -46t46 -111t-46 -110t-110 -46q-31 0 -59 12q-32 -62 -91 -99.5t-131 -37.5t-131 37.5t-92 99.5q-27 -12 -58 -12q-65 0 -111 46t-45 110z" />
</svg>
