<?xml version="1.0" standalone="no"?>
<!DOCTYPE svg PUBLIC "-//W3C//DTD SVG 1.1//EN" "http://www.w3.org/Graphics/SVG/1.1/DTD/svg11.dtd" >
<svg xmlns="http://www.w3.org/2000/svg" xmlns:xlink="http://www.w3.org/1999/xlink" version="1.1" viewBox="-11 0 1020 1000">
   <path fill="currentColor"
d="M0 719q0 -88 62 -151t149 -68q-24 -45 -24 -93q0 -90 65 -155t154 -64.5t152.5 62.5t66.5 153q75 32 125 99q13 -2 31 -2q90 0 154 65t64 154t-64 154t-154 65q-42 0 -78 -14q-88 76 -203 76t-203 -76q-37 14 -78 14q-90 0 -155 -65t-64 -154zM0 407q0 -14 9 -23t22 -9
h63q13 0 22 9t9 23t-9 22t-22 9h-63q-13 0 -22 -9t-9 -22zM119 164q-21 -23 0 -44t45 0l43 44q21 22 0 43t-43 0zM250 407q0 37 19 72q92 -104 231 -104q27 0 60 6q-9 -56 -52 -94t-102 -37q-64 0 -110 46t-46 111zM375 94v-62q0 -14 9 -23t22 -8t23 8t8 23v62q0 14 -8 23
t-23 8t-22 -8t-9 -23zM605 207q-21 -21 0 -43l43 -44q24 -22 45 0t0 44l-45 43q-21 22 -43 0zM687 407q0 -14 9 -23t22 -9h63q14 0 22 9t9 23t-9 22t-22 9h-63q-13 0 -22 -9t-9 -22z" />
</svg>
