<?xml version="1.0" standalone="no"?>
<!DOCTYPE svg PUBLIC "-//W3C//DTD SVG 1.1//EN" "http://www.w3.org/Graphics/SVG/1.1/DTD/svg11.dtd" >
<svg xmlns="http://www.w3.org/2000/svg" xmlns:xlink="http://www.w3.org/1999/xlink" version="1.1" viewBox="-11 0 1020 1000">
   <path fill="currentColor"
d="M0 719q0 -88 62 -151t149 -68q-24 -45 -24 -93q0 -90 65 -155t154 -64.5t152.5 62.5t66.5 153q75 32 125 99q13 -2 31 -2q90 0 154 65t64 154t-64 154t-154 65q-42 0 -78 -14q-88 76 -203 76t-203 -76q-37 14 -78 14q-90 0 -155 -65t-64 -154zM0 407q0 -14 9 -23t22 -9
h63q13 0 22 9t9 23t-9 22t-22 9h-63q-13 0 -22 -9t-9 -22zM63 719q0 64 45 110t111 46q48 0 89 -29q77 92 192 92t191 -92q41 29 90 29q64 0 110 -46t46 -110t-46 -110t-110 -46q-31 0 -59 11q-37 -70 -107 -107q-28 -16 -59 -21q-28 -8 -56 -8q-115 0 -192 90
q-19 23 -31 46l-15 -3q-23 -8 -43 -8q-65 0 -111 46t-45 110zM119 164q-11 -11 -11 -22t11 -22t22 -11t23 11l43 44q11 11 11 22t-11 21t-22 11l-21 -11zM250 407q0 37 19 72q92 -104 231 -104q27 0 60 6q-9 -56 -52 -94t-102 -37q-64 0 -110 46t-46 111zM375 94v-62
q0 -14 9 -23t22 -8t23 8t8 23v62q0 14 -8 23t-23 8t-22 -8t-9 -23zM605 207q-11 -10 -11 -21t11 -22l43 -44q12 -11 23 -11t22 11t11 22t-11 22l-45 43q-11 11 -21 11zM687 407q0 -14 9 -23t22 -9h63q14 0 22 9t9 23t-9 22t-22 9h-63q-13 0 -22 -9t-9 -22z" />
</svg>
