<?xml version="1.0" standalone="no"?>
<!DOCTYPE svg PUBLIC "-//W3C//DTD SVG 1.1//EN" "http://www.w3.org/Graphics/SVG/1.1/DTD/svg11.dtd" >
<svg xmlns="http://www.w3.org/2000/svg" xmlns:xlink="http://www.w3.org/1999/xlink" version="1.1" viewBox="-10 0 1020 1000">
   <path fill="currentColor"
d="M760 356q100 0 170 68t70 166t-70 166t-170 68h-578q-74 0 -128 -52t-54 -125t53 -125t129 -52l20 2q-2 -12 -2 -38q0 -108 78 -184t188 -76q90 0 160 52t94 134q28 -4 40 -4zM568 572q14 -16 14 -30q0 -20 -30 -32h-4q-26 -14 -38 -16l50 -116q6 0 6 -20q0 -14 -8 -18
q-16 -10 -34 8l-91 98q-33 36 -45 53t-12 29q0 22 30 30l4 2q8 4 38 16l-52 114l-2 8q-2 8 -2 14q0 10 8 18q18 10 34 -10q100 -100 134 -148z" />
</svg>
