<?xml version="1.0" standalone="no"?>
<!DOCTYPE svg PUBLIC "-//W3C//DTD SVG 1.1//EN" "http://www.w3.org/Graphics/SVG/1.1/DTD/svg11.dtd" >
<svg xmlns="http://www.w3.org/2000/svg" xmlns:xlink="http://www.w3.org/1999/xlink" version="1.1" viewBox="-10 0 1026 1000">
   <path fill="currentColor"
d="M304 761q-44 0 -74 -30l-230 -230l230 -230q31 -32 74 -32t74 31.5t31 73.5t-31 74l-83 83l83 82q31 31 31 74t-30.5 73.5t-74.5 30.5zM703 761q-44 0 -74 -30q-31 -32 -31 -74t31 -74l82 -82l-82 -83q-31 -31 -31 -74t31 -73q30 -32 73 -32t74 32l230 230l-230 230
q-30 30 -73 30z" />
</svg>
