<?xml version="1.0" standalone="no"?>
<!DOCTYPE svg PUBLIC "-//W3C//DTD SVG 1.1//EN" "http://www.w3.org/Graphics/SVG/1.1/DTD/svg11.dtd" >
<svg xmlns="http://www.w3.org/2000/svg" xmlns:xlink="http://www.w3.org/1999/xlink" version="1.1" viewBox="-11 0 985 1000">
   <path fill="currentColor"
d="M560 109h-156l-45 178l-176 -51l-79 136l133 128l-133 127l79 135l176 -50l45 178h156l44 -178l178 50l77 -135l-132 -127l132 -128l-77 -136l-178 51zM560 5q35 0 63 22t37 57l19 73l74 -21q15 -4 29 -4q60 0 90 53l77 135q18 31 13 66t-30 60l-55 54l55 52q25 25 30 60
t-13 67l-77 136q-30 51 -90 51q-14 0 -29 -3l-74 -21l-17 74q-9 35 -37 57t-65 22h-156q-36 0 -64 -22t-37 -57l-19 -74l-72 22q-15 4 -29 4q-60 0 -90 -53l-79 -135q-18 -31 -13 -67t31 -61l55 -52l-55 -53q-25 -25 -30 -60t12 -67l79 -135q30 -53 90 -53q14 0 29 4l72 21
l19 -73q9 -35 37 -57t64 -22h156zM482 396q-44 0 -74 30t-30 74t30 74t74 30t74 -31t31 -73t-31 -73t-74 -31zM482 344q65 0 110 45t46 111t-46 111t-110 45t-111 -45t-46 -111t46 -111t111 -45z" />
</svg>
