<?xml version="1.0" standalone="no"?>
<!DOCTYPE svg PUBLIC "-//W3C//DTD SVG 1.1//EN" "http://www.w3.org/Graphics/SVG/1.1/DTD/svg11.dtd" >
<svg xmlns="http://www.w3.org/2000/svg" xmlns:xlink="http://www.w3.org/1999/xlink" version="1.1" viewBox="-10 0 1091 1000">
   <path fill="currentColor"
d="M500 500q0 -59 -42 -101t-101 -42t-101 42t-42 101t42 101t101 42t101 -42t42 -101zM929 786q0 -29 -22 -51t-50 -21t-50 21t-21 51q0 29 21 50t50 21t51 -21t21 -50zM929 214q0 -29 -22 -50t-50 -21t-50 21t-21.5 50.5t21.5 50.5t50 21t51 -21t21 -51zM714 449v103
q0 6 -4 11t-8 6l-87 14q-6 19 -18 42q19 27 50 64q4 6 4 12t-4 10q-12 17 -46 50t-42 33t-13 -4l-64 -50q-21 11 -43 17q-6 60 -13 87q-4 13 -17 13h-104q-6 0 -11 -4t-5 -10l-13 -85q-19 -6 -42 -18l-66 50q-4 4 -10.5 4t-12.5 -4q-80 -75 -80 -90q0 -5 4 -10q5 -8 23 -30
t26 -34q-13 -24 -20 -46l-85 -13q-5 -1 -9 -5t-4 -11v-104q0 -5 4 -10t9 -6l86 -14q7 -19 18 -42q-19 -27 -50 -64q-4 -6 -4 -12t4 -11q12 -16 46 -49t44 -33q6 0 12 4l64 50q19 -10 43 -18q6 -60 13 -86q3 -13 16 -13h104q6 0 11 4t6 10l13 85q19 6 42 17l65 -49
q5 -4 11.5 -4t11.5 4q81 75 81 90q0 4 -4 10l-24 30q-17 21 -25 34q13 27 19 46l85 12q6 2 9 6t4 11zM1071 747v78q0 9 -83 17q-6 15 -16 29q28 63 28 77q0 2 -2 4q-68 40 -69 40q-5 0 -26 -27l-29 -37q-11 1 -17 1t-17 -1q-7 11 -29 37t-25 27q-1 0 -69 -40q-3 -2 -3 -4
q0 -14 29 -77q-10 -14 -17 -29q-83 -8 -83 -17v-78q0 -9 83 -18q7 -16 17 -29q-29 -63 -29 -77q0 -2 3 -4l52 -30q16 -9 17 -9q4 0 25 26t29 38l17 -1l17 1q28 -40 51 -63l4 -1q2 0 69 39q2 2 2 4q0 14 -28 77q9 13 16 29q83 9 83 18zM1071 175v78q0 9 -83 18q-6 15 -16 29
q28 63 28 77q0 2 -2 4q-68 39 -69 39q-5 0 -26 -26t-29 -38q-11 1 -17 1t-17 -1q-7 12 -29 38t-24 26t-70 -39q-3 -2 -3 -4q0 -14 29 -77q-10 -14 -17 -29q-83 -9 -83 -18v-78q0 -9 83 -17q7 -16 17 -29q-29 -63 -29 -77q0 -2 3 -4l52 -30q16 -9 17 -9q4 0 25 26t29 37
l17 -1l17 1q28 -39 51 -62l4 -1q2 0 69 39q2 2 2 4q0 14 -28 77q9 13 16 29q83 8 83 17z" />
</svg>
