<?xml version="1.0" standalone="no"?>
<!DOCTYPE svg PUBLIC "-//W3C//DTD SVG 1.1//EN" "http://www.w3.org/Graphics/SVG/1.1/DTD/svg11.dtd" >
<svg xmlns="http://www.w3.org/2000/svg" xmlns:xlink="http://www.w3.org/1999/xlink" version="1.1" viewBox="-10 0 1020 1000">
   <path fill="currentColor"
d="M0 543v-86q0 -21 15 -39t36 -22l96 -19q5 -20 15 -41l-53 -80q-13 -20 -10 -42t18 -38l59 -59q19 -19 45 -19q19 0 35 11l80 53q21 -10 41 -16l20 -95q3 -22 21 -36t39 -15h86q21 0 39 15t22 36l19 95q20 6 41 16l80 -53q16 -11 35 -11q26 0 45 19l59 59q17 15 19 38
t-11 42l-53 80q10 21 16 41l95 19q22 4 36 22t15 39v86q0 21 -15 39t-36 21l-95 20q-6 20 -16 41l53 80q13 20 11 42t-19 38l-59 59q-19 19 -45 19q-19 0 -35 -11l-80 -53q-21 10 -41 16l-19 95q-4 22 -22 36t-39 15h-86q-21 0 -39 -14t-21 -37l-20 -95q-20 -6 -41 -16
l-80 53q-16 11 -35 11q-26 0 -45 -19l-59 -59q-15 -15 -18 -38t10 -42l53 -80q-10 -21 -15 -41l-96 -20q-22 -3 -36 -21t-15 -39zM63 543l95 19q35 6 47 40q6 17 14 35q15 31 -4 60l-55 82l61 61l82 -55q15 -10 32 -10t28 6q18 8 35 14q34 12 40 47l19 96h86l20 -96
q5 -35 39 -47q17 -6 35 -14q11 -6 28 -6t32 10l82 55l61 -61l-55 -82q-19 -29 -4 -60q8 -18 14 -35q12 -34 47 -40l95 -19v-86l-95 -20q-35 -5 -47 -39q-6 -17 -14 -35q-15 -31 4 -60l55 -82l-61 -61l-82 55q-15 10 -32 10t-28 -6q-18 -8 -35 -14q-34 -12 -39 -47l-20 -95
h-86l-19 95q-6 35 -40 47q-17 6 -35 14q-11 6 -28 6t-32 -10l-82 -55l-61 61l55 82q19 29 4 60q-8 18 -14 35q-12 34 -47 39l-95 20v86zM281 500q0 -90 65 -154t154 -65t154 65t65 154t-65 154t-154 65t-154 -65t-65 -154zM309 500q0 80 55 136t136 55t136 -55t55 -136
t-55 -136t-136 -55t-136 55t-55 136zM375 500q0 -53 36 -89t89 -36t89 37t36 89t-36 88t-89 36t-89 -36t-36 -89zM406 500q0 39 28 66t66 28t66 -28t28 -66t-28 -66t-66 -28t-66 28t-28 66z" />
</svg>
