<?xml version="1.0" standalone="no"?>
<!DOCTYPE svg PUBLIC "-//W3C//DTD SVG 1.1//EN" "http://www.w3.org/Graphics/SVG/1.1/DTD/svg11.dtd" >
<svg xmlns="http://www.w3.org/2000/svg" xmlns:xlink="http://www.w3.org/1999/xlink" version="1.1" viewBox="-10 0 1020 1000">
   <path fill="currentColor"
d="M0 605v-97l94 -8q8 -30 23 -55l-60 -74l68 -69l74 61q26 -16 55 -23l8 -94h97l10 94q29 7 55 23l74 -61l68 69l-60 74q16 25 23 55l94 8v97l-94 10q-7 29 -23 55l60 72l-68 70l-74 -60q-26 15 -55 23l-10 94h-97l-8 -94q-29 -8 -55 -23l-74 60l-68 -70l60 -72
q-15 -26 -23 -55zM221 556q0 37 26 64t64 26t63 -26t26 -64t-26 -63t-63 -26t-64 26t-26 63zM539 318l8 -72l70 2q8 -22 20 -39l-37 -57l54 -45l49 49q20 -10 41 -14l14 -66l72 8l-2 68q22 8 39 22l57 -39l45 54l-49 49q10 20 12 43l68 14l-8 70h-68q-8 20 -22 37l39 59
l-56 45l-47 -49q-22 8 -43 12l-14 66l-70 -6v-70q-20 -8 -37 -20l-59 37l-45 -54l49 -49q-8 -20 -12 -41zM570 763l6 -50h49q6 -16 14 -28l-26 -43l37 -33l36 37q13 -8 29 -10l10 -48l48 5v49q16 6 28 16l41 -27l31 41l-35 35q6 13 10 29l47 12l-6 51h-49q-4 15 -14 27
l28 43l-40 33l-35 -37q-13 8 -29 10l-10 49l-49 -6v-51q-13 -4 -27 -14l-41 28l-31 -41l35 -36q-6 -13 -8 -29zM688 750q-4 21 8 36t32 17t34 -9t17 -34t-10 -35t-31 -18h-6q-17 0 -31 12t-13 31zM705 299q-4 27 14 48t45 25t48 -15t23 -45t-14 -48t-44 -24h-7q-26 0 -44 17
t-21 42z" />
</svg>
