<?xml version="1.0" standalone="no"?>
<!DOCTYPE svg PUBLIC "-//W3C//DTD SVG 1.1//EN" "http://www.w3.org/Graphics/SVG/1.1/DTD/svg11.dtd" >
<svg xmlns="http://www.w3.org/2000/svg" xmlns:xlink="http://www.w3.org/1999/xlink" version="1.1" viewBox="-10 0 877 1000">
   <path fill="currentColor"
d="M571 321v358q0 14 -10 25t-25 10q-11 0 -21 -6l-250 -179q-15 -11 -15 -29t15 -29l250 -179q10 -6 21 -6q14 0 25 10t10 25zM714 768v-536q0 -7 -5 -12t-13 -6h-535q-7 0 -13 6t-5 12v536q0 7 5 12t13 6h535q8 0 13 -6t5 -12zM857 232v536q0 66 -47 113t-114 48h-535
q-67 0 -114 -48t-47 -113v-536q0 -66 47 -113t114 -48h535q67 0 114 48t47 113z" />
</svg>
