<?xml version="1.0" standalone="no"?>
<!DOCTYPE svg PUBLIC "-//W3C//DTD SVG 1.1//EN" "http://www.w3.org/Graphics/SVG/1.1/DTD/svg11.dtd" >
<svg xmlns="http://www.w3.org/2000/svg" xmlns:xlink="http://www.w3.org/1999/xlink" version="1.1" viewBox="-10 0 958 1000">
   <path fill="currentColor"
d="M0 500q0 -95 37 -182t100 -149t150 -100t182 -37t182 37t149 100t100 149t37 182t-37 182t-100 150t-149 100t-182 37t-182 -37t-150 -100t-100 -150t-37 -182zM397 726q0 46 32 79t79 32l11 1q81 -12 148 -60t105 -120t39 -158q0 -90 -44 -167t-118 -123t-164 -51
q60 95 60 209q0 81 -31 153t-85 128q-32 33 -32 77z" />
</svg>
