<?xml version="1.0" standalone="no"?>
<!DOCTYPE svg PUBLIC "-//W3C//DTD SVG 1.1//EN" "http://www.w3.org/Graphics/SVG/1.1/DTD/svg11.dtd" >
<svg xmlns="http://www.w3.org/2000/svg" xmlns:xlink="http://www.w3.org/1999/xlink" version="1.1" viewBox="-10 0 938 1000">
   <path fill="currentColor"
d="M464 276q-260 0 -316 137q-44 103 9 247q46 -31 97 -40t155 -9h370q20 -64 20 -112t-9 -81t-41 -69t-102 -54t-183 -19zM464 165q74 0 134 8t120 30t101 58t66 97t26 141q0 50 -14 106t-29 86l-15 32h-444q-126 0 -160 14t-119 97q-26 -25 -50 -72t-41 -109t-21 -129
t18 -131t69 -115t139 -82t220 -31z" />
</svg>
