<?xml version="1.0" standalone="no"?>
<!DOCTYPE svg PUBLIC "-//W3C//DTD SVG 1.1//EN" "http://www.w3.org/Graphics/SVG/1.1/DTD/svg11.dtd" >
<svg xmlns="http://www.w3.org/2000/svg" xmlns:xlink="http://www.w3.org/1999/xlink" version="1.1" viewBox="-10 0 938 1000">
   <path fill="currentColor"
d="M576 221h-278q-70 0 -119 49t-49 119v278q0 58 44 90q68 -90 179 -90h223q92 0 158 -65t65 -158t-65 -157t-158 -66zM576 109q139 0 237 99t98 236t-98 237t-237 98h-223q-46 0 -79 33t-33 79q-92 0 -157 -66t-66 -158v-278q0 -115 82 -197t198 -83h278z" />
</svg>
