<?xml version="1.0" standalone="no"?>
<!DOCTYPE svg PUBLIC "-//W3C//DTD SVG 1.1//EN" "http://www.w3.org/Graphics/SVG/1.1/DTD/svg11.dtd" >
<svg xmlns="http://www.w3.org/2000/svg" xmlns:xlink="http://www.w3.org/1999/xlink" version="1.1" viewBox="-10 0 958 1000">
   <path fill="currentColor"
d="M781 188h-625q-21 0 -37 15t-15 36v365q0 21 15 37t37 16h157v8l8 -8h460q22 0 37 -16t16 -37v-365q0 -21 -16 -36t-37 -15zM781 83q65 0 111 46t46 110v365q0 65 -46 111t-111 45h-416l-156 157v-157h-53q-65 0 -110 -45t-46 -111v-365q0 -65 46 -110t110 -46h625z" />
</svg>
