<?xml version="1.0" standalone="no"?>
<!DOCTYPE svg PUBLIC "-//W3C//DTD SVG 1.1//EN" "http://www.w3.org/Graphics/SVG/1.1/DTD/svg11.dtd" >
<svg xmlns="http://www.w3.org/2000/svg" xmlns:xlink="http://www.w3.org/1999/xlink" version="1.1" viewBox="-10 0 827 1000">
   <path fill="currentColor"
d="M409 165q-115 0 -197 82t-82 196t80 197l32 32v65l28 -17q18 -11 26 -18l47 12q34 9 66 9q115 0 197 -82t82 -198t-82 -196t-197 -82zM409 53q162 0 276 114t114 276t-114 277t-276 114q-42 0 -92 -12l-187 125l1 -229q-113 -115 -113 -276t115 -275t276 -114z" />
</svg>
