<?xml version="1.0" standalone="no"?>
<!DOCTYPE svg PUBLIC "-//W3C//DTD SVG 1.1//EN" "http://www.w3.org/Graphics/SVG/1.1/DTD/svg11.dtd" >
<svg xmlns="http://www.w3.org/2000/svg" xmlns:xlink="http://www.w3.org/1999/xlink" version="1.1" viewBox="-10 0 1021 1000">
   <path fill="currentColor"
d="M0 437q0 -156 147 -265t353 -109t354 109t146 265t-146 266t-354 109q-47 0 -96 -7q-29 35 -89 78t-122 55h-9q-12 0 -20 -8t-8 -20q0 -6 2 -12q0 -1 13 -21t18 -29t13 -30t13 -36t4 -32v-2q-102 -53 -160 -134t-59 -177zM63 437q0 75 48 143t137 111q33 18 33 57v6
q0 41 -21 92q60 -37 95 -80q18 -24 49 -24q4 0 8 2q45 6 88 6q182 0 310 -92t127 -221t-127 -220t-310 -92t-310 92t-127 220zM156 437q0 -89 102 -154t242 -64q16 0 16 15t-16 16q-125 0 -219 57t-93 130q0 16 -16 16t-16 -16z" />
</svg>
