<?xml version="1.0" standalone="no"?>
<!DOCTYPE svg PUBLIC "-//W3C//DTD SVG 1.1//EN" "http://www.w3.org/Graphics/SVG/1.1/DTD/svg11.dtd" >
<svg xmlns="http://www.w3.org/2000/svg" xmlns:xlink="http://www.w3.org/1999/xlink" version="1.1" viewBox="-11 0 982 1000">
   <path fill="currentColor"
d="M474 20q198 -2 340 136t146 336q2 200 -136 342t-338 146q-198 2 -341 -137t-145 -337q-4 -200 135 -342t339 -144zM486 878q156 -2 266 -114t108 -270t-115 -267t-270 -107t-266 114t-107 270t114 267t270 107zM252 724q4 -26 12 -66t41 -128t77 -132t125 -76t141 -42
l60 -10q-4 26 -12 66t-41 128t-77 132q-42 42 -124 74t-142 42zM432 448q-22 20 -22 48t21 50t50 22t49 -22q52 -52 88 -186q-136 36 -186 88z" />
</svg>
