<?xml version="1.0" standalone="no"?>
<!DOCTYPE svg PUBLIC "-//W3C//DTD SVG 1.1//EN" "http://www.w3.org/Graphics/SVG/1.1/DTD/svg11.dtd" >
<svg xmlns="http://www.w3.org/2000/svg" xmlns:xlink="http://www.w3.org/1999/xlink" version="1.1" viewBox="-10 0 938 1000">
   <path fill="currentColor"
d="M464 165q-138 0 -236 98t-98 237t98 237t236 97t237 -97t98 -237t-98 -237t-237 -98zM465 53q184 0 315 131t131 316t-131 315t-315 132t-316 -132t-131 -315t131 -316t316 -131zM525 441q-34 -34 -80 -22l243 -143l-144 246q14 -48 -19 -81zM406 558q34 35 81 21
l-246 144l144 -244q-12 47 21 79z" />
</svg>
