<?xml version="1.0" standalone="no"?>
<!DOCTYPE svg PUBLIC "-//W3C//DTD SVG 1.1//EN" "http://www.w3.org/Graphics/SVG/1.1/DTD/svg11.dtd" >
<svg xmlns="http://www.w3.org/2000/svg" xmlns:xlink="http://www.w3.org/1999/xlink" version="1.1" viewBox="-10 0 1163 1000">
   <path fill="currentColor"
d="M1143 499q0 12 -7 21t-19 11l-114 198q2 5 2 10q0 12 -7 20t-19 11l-107 188q1 5 1 9q0 13 -9 22t-22.5 9.5t-22.5 -9.5h-224q-9 11 -24 11t-24 -11h-222q-10 11 -23.5 11t-22.5 -9t-10 -23q0 -4 2 -11l-107 -187q-12 -2 -19 -11t-7 -20q0 -5 2 -10l-115 -198
q-11 -3 -18 -12t-7 -20t8 -20t18 -11l111 -192v-3q0 -20 19 -29l116 -202q-2 -6 -2 -10q0 -14 10 -23t23 -9t24 12h220q9 -12 24 -12t24 12h223q10 -12 23.5 -12t22.5 9t10 23q0 3 -2 10l115 200q13 0 22 9t9 22q0 7 -4 15l104 181q11 2 18 11t7 19zM593 945h217l-191 -197
h-79l-191 197h201q10 -9 21 -9t22 9zM63 492v7.5t-1 8.5l116 201l8 3l105 -111v-194l-104 -108q-7 5 -16 6zM550 55h-216l106 111l309 -111h-156q-9 9 -22 9t-21 -9zM943 731q0 -3 2 -6l-35 -38l-10 44h43zM883 731l13 -59l-141 -148l-165 171l35 36h258zM834 936l9 -15
l37 -173h-239l186 191zM323 945h2l191 -197h-208v187l2 3q8 3 13 7zM308 731h224l36 -37l-172 -179l-88 93v123zM200 731h91v-105l-93 98q2 5 2 7zM200 271v1v1q0 9 -4 16l95 99v-150zM308 232v173l85 88l166 -176l-124 -131zM310 62l-2 4v148l114 -42l-106 -112zM808 55h-9
l-347 125l119 125zM571 329l-166 176l174 178l165 -171zM384 503l-76 -78v158zM579 706l-23 25h47zM767 512l133 140l73 -348l-1 -3h-1zM959 289q-5 -7 -5 -16v-1l-120 -210l-7 -3l-244 258l173 183zM291 220v-125l-91 158zM291 748h-91l91 158v-158zM897 748l-27 126
l73 -126h-46zM965 709l115 -202q-1 -5 -1 -8l2 -9l-95 -165l-72 342l43 46q2 -2 8 -4z" />
</svg>
