<?xml version="1.0" standalone="no"?>
<!DOCTYPE svg PUBLIC "-//W3C//DTD SVG 1.1//EN" "http://www.w3.org/Graphics/SVG/1.1/DTD/svg11.dtd" >
<svg xmlns="http://www.w3.org/2000/svg" xmlns:xlink="http://www.w3.org/1999/xlink" version="1.1" viewBox="-11 0 1022 1000">
   <path fill="currentColor"
d="M338 688q85 0 143 -58q8 -10 2 -20l-25 -46q-4 -7 -13.5 -8.5t-15.5 5.5l-2 1q-2 3 -6 6l-10 8q-6 5 -13 8l-16 7q-9 4 -19 5l-21 2q-42 0 -70 -28t-27.5 -70.5t27.5 -70.5t68 -27q21 0 40 8t28 15l9 8q6 6 14 6q9 -2 14 -8l29 -44q8 -11 -1 -22q-1 -2 -6 -6l-17 -13
q-12 -9 -27 -16t-37 -13t-48 -5q-83 0 -138 54t-54.5 134.5t54.5 134.5t138 53zM689 688q86 0 144 -58q7 -10 2 -20l-25 -46q-5 -8 -14 -9t-15 6l-2 1q-3 3 -7 6l-10 8q-6 5 -13 8l-16 7q-9 4 -18 5l-21 2q-43 0 -70 -28t-27 -70.5t26 -70.5t68 -27q21 0 40 8t29 15l8 8
q7 6 15 6q9 -2 13 -8l30 -44q7 -11 -1 -22l-6 -6q-4 -4 -17 -13t-27 -16t-38 -13t-48 -5q-82 0 -137 54t-55 134.5t54 134.5t138 53zM500 89q-84 0 -160 33t-130 87t-88 131t-33 160t33 160t88 130t130 88t160 33t160 -33t131 -88t87 -130t33 -160t-33 -160t-87 -131
t-131 -87t-160 -33zM500 0q102 0 194 40t160 106t106 160t40 194t-40 194t-106 160t-160 106t-194 40t-194 -40t-160 -106t-106 -160t-40 -194t40 -194t106 -160t160 -106t194 -40z" />
</svg>
