<?xml version="1.0" standalone="no"?>
<!DOCTYPE svg PUBLIC "-//W3C//DTD SVG 1.1//EN" "http://www.w3.org/Graphics/SVG/1.1/DTD/svg11.dtd" >
<svg xmlns="http://www.w3.org/2000/svg" xmlns:xlink="http://www.w3.org/1999/xlink" version="1.1" viewBox="-11 0 1092 1000">
   <path fill="currentColor"
d="M982 71q37 0 63 27t26 63v678q0 37 -26 63t-63 27h-893q-36 0 -63 -27t-26 -63v-678q0 -37 26 -63t63 -27h893zM89 143q-7 0 -12 5t-6 13v125h929v-125q0 -8 -5 -13t-13 -5h-893zM982 857q7 0 13 -5t5 -13v-339h-929v339q0 7 6 13t12 5h893zM143 786v-72h143v72h-143z
M357 786v-72h214v72h-214z" />
</svg>
