<?xml version="1.0" standalone="no"?>
<!DOCTYPE svg PUBLIC "-//W3C//DTD SVG 1.1//EN" "http://www.w3.org/Graphics/SVG/1.1/DTD/svg11.dtd" >
<svg xmlns="http://www.w3.org/2000/svg" xmlns:xlink="http://www.w3.org/1999/xlink" version="1.1" viewBox="-10 0 1020 1000">
   <path fill="currentColor"
d="M0 832v-664h1000v664h-1000zM63 769h874v-296h-874v296zM63 330h874v-100h-874v100zM123 691q0 -13 5 -21t15 -8t14 8t5 21t-5 22t-14 8t-15 -8t-5 -22zM131 691q0 12 3 18t9 6t8 -6t3 -18t-3 -17t-8 -6t-9 6t-3 17zM174 691q0 -13 5 -21t14 -8t15 8t5 21t-5 22t-15 8
t-14 -8t-5 -22zM182 691q0 12 3 18t8 6t9 -6t3 -18t-3 -17t-9 -6t-8 6zM223 691q0 -13 5 -21t14 -8t15 8t5 21t-5 22t-15 8t-14 -8t-5 -22zM231 691q0 12 2 18t9 6t9 -6t3 -18t-3 -17t-9 -6t-9 6t-2 17zM273 691q0 -13 5 -21t15 -8t15 8t5 21t-5 22t-15 8t-15 -8t-5 -22z
M281 691q0 12 3 18t9 6t9 -6t3 -18t-3 -17t-9 -6t-9 6t-3 17zM320 701v-6h22v6h-22zM352 691q0 -13 4 -21t15 -8t15 8t5 21t-5 22t-15 8t-15 -8t-4 -22zM359 691q0 12 3 18t9 6t9 -6t3 -18t-3 -17t-9 -6t-9 6t-3 17zM400 691q0 -13 5 -21t15 -8t15 8t4 21t-4 22t-15 8
t-15 -8t-5 -22zM408 691q0 12 3 18t9 6t9 -6t3 -18t-3 -17t-9 -6t-9 6t-3 17zM449 691q0 -13 6 -21t15 -8t14 8t6 21t-6 22t-14 8t-15 -8t-6 -22zM457 691q0 12 4 18t10 6t9 -6t2 -18t-2 -17t-9 -6t-10 6t-4 17zM500 691q0 -13 5 -21t15 -8t14 8t5 21t-5 22t-14 8t-15 -8
t-5 -22zM508 691q0 12 3 18t9 6t8 -6t3 -18t-3 -17t-8 -6t-9 6t-3 17z" />
</svg>
