<?xml version="1.0" standalone="no"?>
<!DOCTYPE svg PUBLIC "-//W3C//DTD SVG 1.1//EN" "http://www.w3.org/Graphics/SVG/1.1/DTD/svg11.dtd" >
<svg xmlns="http://www.w3.org/2000/svg" xmlns:xlink="http://www.w3.org/1999/xlink" version="1.1" viewBox="-10 0 949 1000">
   <path fill="currentColor"
d="M311 714h332v-332zM286 689l332 -332h-332v332zM929 732v107q0 8 -5 13t-13 5h-125v125q0 8 -5 13t-13 5h-107q-8 0 -13 -5t-5 -13v-125h-482q-8 0 -13 -5t-5 -13v-482h-125q-8 0 -13 -5t-5 -13v-107q0 -8 5 -13t13 -5h125v-125q0 -8 5 -13t13 -5h107q8 0 13 5t5 13v125
h475l137 -138q6 -5 13 -5t12.5 5.5t5.5 12.5t-5 13l-138 137v475h125q8 0 13 5t5 13z" />
</svg>
