<?xml version="1.0" standalone="no"?>
<!DOCTYPE svg PUBLIC "-//W3C//DTD SVG 1.1//EN" "http://www.w3.org/Graphics/SVG/1.1/DTD/svg11.dtd" >
<svg xmlns="http://www.w3.org/2000/svg" xmlns:xlink="http://www.w3.org/1999/xlink" version="1.1" viewBox="-10 0 873 1000">
   <path fill="currentColor"
d="M419 28q-29 0 -50 21t-21 51t21 51t50.5 21t51.5 -21t22 -51t-22 -51t-52 -21zM371 250q-14 41 -33 74q-15 26 -32 46q-13 14 -26 24l-10 7l-16 -41q-19 -49 -39 -92q-29 -60 -54 -98q-19 43 -38 64q-23 26 -58 36q0 15 8 52q3 18 18 79q13 55 19 85q9 46 10 74h601
q1 -34 15 -103q5 -24 26 -114q14 -59 14 -71q-33 -14 -58 -38q-30 -29 -38 -64q-28 38 -56 98q-20 43 -39 92l-14 41l-10 -7q-13 -10 -25 -24q-18 -20 -33 -46q-19 -33 -33 -74q-20 10 -51 10t-48 -10zM74 28q-30 0 -52 21t-22 51t22 51t51.5 21t50 -21t20.5 -51t-20.5 -51
t-49.5 -21zM121 631v119h230v-110h370v-9h-600zM765 28q-30 0 -51 21t-21 51t21 51t51 21t51 -21t21 -51t-21 -51t-51 -21zM423 844v-143h430v143h-430z" />
</svg>
