<?xml version="1.0" standalone="no"?>
<!DOCTYPE svg PUBLIC "-//W3C//DTD SVG 1.1//EN" "http://www.w3.org/Graphics/SVG/1.1/DTD/svg11.dtd" >
<svg xmlns="http://www.w3.org/2000/svg" xmlns:xlink="http://www.w3.org/1999/xlink" version="1.1" viewBox="-10 0 1020 1000">
   <path fill="currentColor"
d="M0 793v-774h1000v774l-500 187zM109 457q0 57 35 94t96 37q119 0 121 -108h-76q0 45 -47 47q-23 0 -35 -16t-12 -42q0 -49 12 -67q20 -25 55 -11q25 9 25 44h78q0 -52 -33 -80t-88.5 -28.5t-93.5 34.5t-37 96zM393 498q0 88 125 90q109 0 111 -88q-2 -57 -76 -72
q-2 0 -17 -3l-25 -5q-10 -2 -21 -8t-10 -14q0 -15 34 -17q31 0 33 25v2h74v-4q0 -39 -33 -58t-78 -20q-110 0 -113 80q0 59 74 76q4 2 18 5t26 5t20 8t10 14q0 15 -35 15q-41 0 -41 -31h-76zM658 498q0 88 125 90q110 0 112 -88q0 -18 -8 -29q-16 -30 -69 -43q-2 0 -17 -3
l-26 -5q-11 -2 -19 -8t-12 -14q2 -15 35 -16t32 26h76q0 -41 -33 -61t-79 -21q-109 0 -113 80q0 59 74 76q4 2 19 5l24 5l21 8q21 8 11 14q0 19 -53 15q-24 -6 -24 -31h-76z" />
</svg>
