<?xml version="1.0" standalone="no"?>
<!DOCTYPE svg PUBLIC "-//W3C//DTD SVG 1.1//EN" "http://www.w3.org/Graphics/SVG/1.1/DTD/svg11.dtd" >
<svg xmlns="http://www.w3.org/2000/svg" xmlns:xlink="http://www.w3.org/1999/xlink" version="1.1" viewBox="-11 0 702 1000">
   <path fill="currentColor"
d="M340 90q152 0 249 41t91 87l-72 594q-2 14 -34 36t-97 42t-137 20t-136 -20t-97 -42t-35 -36l-72 -594q-4 -28 36 -57t121 -50t183 -21zM340 306q72 0 137 -15t98 -33t33 -30t-33 -29t-98 -32t-137 -15t-137 15t-98 32t-33 29t33 30t98 33t137 15z" />
</svg>
