<?xml version="1.0" standalone="no"?>
<!DOCTYPE svg PUBLIC "-//W3C//DTD SVG 1.1//EN" "http://www.w3.org/Graphics/SVG/1.1/DTD/svg11.dtd" >
<svg xmlns="http://www.w3.org/2000/svg" xmlns:xlink="http://www.w3.org/1999/xlink" version="1.1" viewBox="-10 0 854 1000">
   <path fill="currentColor"
d="M696 83q54 0 95 41t43 119v257q0 180 -123 299t-295 118t-294 -122t-122 -295t122 -295t294 -122q93 0 179 40q49 -40 101 -40zM225 509q0 -74 54 -127t127 -54q58 0 100 27l-76 74q-31 31 -21 51t54 20h266v-257q0 -55 -33 -55q-20 0 -43 24l-60 60q-82 -64 -187 -64
q-125 0 -213 88t-88 214t88 214.5t213 88.5t214 -89q25 -25 41 -50q19 -29 2 -61t-53 -33q-32 0 -50 28q-24 36 -66 60t-88 24q-73 0 -127 -55t-54 -128zM278 509q0 54 37 91t90.5 37.5t92.5 -38.5q10 -10 18 -22t12 -19l2 -6h-67q-82 0 -102.5 -48.5t33.5 -101.5l12 -7
q-60 0 -91 32q-37 36 -37 82z" />
</svg>
