<?xml version="1.0" standalone="no"?>
<!DOCTYPE svg PUBLIC "-//W3C//DTD SVG 1.1//EN" "http://www.w3.org/Graphics/SVG/1.1/DTD/svg11.dtd" >
<svg xmlns="http://www.w3.org/2000/svg" xmlns:xlink="http://www.w3.org/1999/xlink" version="1.1" viewBox="-11 0 958 1000">
   <path fill="currentColor"
d="M0 500q0 -95 37 -182t100 -149t149 -100t183 -37q84 0 161 28t140 82q41 31 71 75q96 126 96 283q0 95 -37 182t-100 150t-149 100t-182 37t-183 -37t-149 -100t-100 -150t-37 -182zM94 438q50 -14 102 -14h6l1 5q1 4 2 6q-70 71 -103 164q11 43 33 84q22 -119 107 -208
q17 10 37 10q40 0 65 -33q67 26 121 74t89 112q-25 24 -25 58q0 29 19 52q-54 80 -137 128q29 4 58 4q17 0 34 -1q56 -46 93 -104h3q5 31 5 56l-2 25q31 -12 57 -27q0 -32 -6 -66q37 -26 37 -66t-32 -64q14 -55 14 -110q0 -67 -21 -137q7 -7 12 -16q111 37 186 128
q0 -45 -11 -90q-72 -62 -162 -91q-3 -30 -25 -51t-54 -21q-9 0 -18 2q-59 -79 -143 -126q-44 4 -89 19q114 41 187 136q-6 8 -11 19q-104 2 -194 48q-22 -18 -50 -18q-24 0 -43 12t-29 32h-11q-41 0 -88 9q-9 28 -14 60zM358 391q80 -39 163 -41q8 24 29 40t47 16h2
q18 60 18 117q0 48 -12 93q-39 -74 -103 -130t-143 -86v-5q0 -3 -1 -4z" />
</svg>
