<?xml version="1.0" standalone="no"?>
<!DOCTYPE svg PUBLIC "-//W3C//DTD SVG 1.1//EN" "http://www.w3.org/Graphics/SVG/1.1/DTD/svg11.dtd" >
<svg xmlns="http://www.w3.org/2000/svg" xmlns:xlink="http://www.w3.org/1999/xlink" version="1.1" viewBox="-11 0 959 1000">
   <path fill="currentColor"
d="M0 500q0 -95 37 -182t100 -149t149 -100t183 -37q95 0 182 37t149 100t100 149t37.5 181.5t-37.5 182.5t-100 150t-149 100t-182 37t-183 -37t-149 -100t-100 -150t-37 -182zM88 500q0 49 14 99q35 -95 103 -164q-1 -2 -2 -6l-1 -5h-6q-49 0 -102 14q-6 32 -6 62z
M108 378q47 -9 88 -9h11q10 -20 29 -32t43 -12q28 0 50 18q90 -46 194 -48q5 -11 11 -19q-73 -96 -188 -136q-84 29 -147 91t-91 147zM135 682q42 77 115 129t161 65q85 -49 137 -128q-19 -23 -19 -52q0 -34 25 -58q-35 -64 -89 -112t-121 -74q-25 33 -65 33q-19 0 -37 -10
q-85 89 -107 207zM358 391q1 1 1 4v5q80 30 143 86t103 130h1q11 -48 11 -93q0 -55 -18 -117h-2q-26 0 -47 -16t-29 -40q-87 3 -163 41zM437 121q83 47 142 126q9 -2 18 -2q31 0 54 21t25 51q91 30 162 91q-32 -125 -134 -207t-235 -82h-10q-5 0 -12 1zM503 879
q48 -4 99 -23l1 -11q1 -8 1 -14q0 -22 -4 -56h-4q-38 58 -93 104zM651 386q21 70 21 137q0 55 -14 110q32 24 32 64t-37 66q6 34 6 66q87 -50 139 -138t52 -191v-1q-76 -92 -186 -129q-7 10 -13 16z" />
</svg>
