<?xml version="1.0" standalone="no"?>
<!DOCTYPE svg PUBLIC "-//W3C//DTD SVG 1.1//EN" "http://www.w3.org/Graphics/SVG/1.1/DTD/svg11.dtd" >
<svg xmlns="http://www.w3.org/2000/svg" xmlns:xlink="http://www.w3.org/1999/xlink" version="1.1" viewBox="-11 0 896 1000">
   <path fill="currentColor"
d="M0 797v-594q0 -98 131 -150t307 -53t306 53t131 150v594q0 98 -131 150t-306 53t-307 -53t-131 -150zM63 797q0 59 109 100t266 41t265 -41t109 -100v-117q-46 48 -150 75t-224 26t-225 -26t-150 -75v117zM63 609q0 59 109 100t266 41t265 -41t109 -100v-117
q-46 49 -150 75t-224 27t-225 -27t-150 -75v117zM63 422q0 58 109 99t266 41t265 -41t109 -99v-108q-58 45 -160 69t-214 23t-215 -23t-160 -69v108zM63 203q0 59 109 100t266 41t265 -41t109 -100t-109 -99t-265 -41t-266 41t-109 99zM688 812q0 -13 8 -22t23 -9t22 9t9 22
t-9 23t-22 9t-23 -9t-8 -23zM688 625q0 -14 8 -22t23 -9t22 9t9 22t-9 22t-22 9t-23 -9t-8 -22zM688 437q0 -13 8 -22t23 -9t22 9t9 22t-9 23t-22 9t-23 -9t-8 -23z" />
</svg>
