<?xml version="1.0" standalone="no"?>
<!DOCTYPE svg PUBLIC "-//W3C//DTD SVG 1.1//EN" "http://www.w3.org/Graphics/SVG/1.1/DTD/svg11.dtd" >
<svg xmlns="http://www.w3.org/2000/svg" xmlns:xlink="http://www.w3.org/1999/xlink" version="1.1" viewBox="-10 0 1014 1000">
   <path fill="currentColor"
d="M360 293l5 340h-206q19 -83 60 -128q50 -55 143 -69l-2 -44q-197 26 -288 128q-68 77 -72 187l473 -1v-283q93 -3 148 6q83 14 135 56q63 50 86 146l-210 -2v-144q-26 -8 -54 -9q-21 -2 -52 0l-2 230h469q4 -168 -138 -253q-134 -80 -382 -76v-84h-113z" />
</svg>
