<?xml version="1.0" standalone="no"?>
<!DOCTYPE svg PUBLIC "-//W3C//DTD SVG 1.1//EN" "http://www.w3.org/Graphics/SVG/1.1/DTD/svg11.dtd" >
<svg xmlns="http://www.w3.org/2000/svg" xmlns:xlink="http://www.w3.org/1999/xlink" version="1.1" viewBox="-11 0 1164 1000">
   <path fill="currentColor"
d="M118 429l348 371l-167 -371h-181zM571 859l195 -430h-389zM300 357l114 -214h-146l-161 214h193zM677 800l348 -371h-181zM381 357h381l-114 -214h-153zM843 357h193l-161 -214h-146zM921 86l215 286q7 10 7 23t-10 22l-535 572q-10 11 -27 11t-26 -11l-535 -572
q-9 -9 -10 -22t7 -23l215 -286q10 -15 28 -15h643q18 0 28 15z" />
</svg>
