<?xml version="1.0" standalone="no"?>
<!DOCTYPE svg PUBLIC "-//W3C//DTD SVG 1.1//EN" "http://www.w3.org/Graphics/SVG/1.1/DTD/svg11.dtd" >
<svg xmlns="http://www.w3.org/2000/svg" xmlns:xlink="http://www.w3.org/1999/xlink" version="1.1" viewBox="-10 0 520 1000">
   <path fill="currentColor"
d="M251 393q52 -1 97 -19q37 -15 73 -43q22 -18 60 -55v673h-112q-2 -54 -2 -82v-189q0 -72 2 -212q-7 2 -25 8.5t-29 9.5q-46 12 -99.5 6.5t-87.5 -25.5l1 100v352q0 21 -1 32h-113v-675q35 38 62 59q36 29 75 44q46 17 99 16zM427 197q31 0 52 -21.5t21 -52.5t-21 -52.5
t-51.5 -21.5t-51.5 21.5t-21 52.5t21 52.5t51 21.5zM73 197q30 0 51 -21.5t21 -52.5t-21 -52.5t-51 -21.5t-51.5 21.5t-21.5 52.5t21.5 52.5t51.5 21.5z" />
</svg>
