<?xml version="1.0" standalone="no"?>
<!DOCTYPE svg PUBLIC "-//W3C//DTD SVG 1.1//EN" "http://www.w3.org/Graphics/SVG/1.1/DTD/svg11.dtd" >
<svg xmlns="http://www.w3.org/2000/svg" xmlns:xlink="http://www.w3.org/1999/xlink" version="1.1" viewBox="-11 0 1020 1000">
   <path fill="currentColor"
d="M46 186q-19 0 -33 13.5t-14 32.5v535q0 19 14 33t33 14h907q19 0 32.5 -13.5t13.5 -33.5v-535q0 -19 -13.5 -32.5t-32.5 -13.5h-907zM526 363h2q33 0 56 23t23 55.5t-23 56t-56 23.5t-56 -23.5t-23 -55.5t22.5 -55t54.5 -24zM276 366q23 0 42 16l-14 19q-10 -11 -23 -11
q-9 0 -14.5 4t-5.5 10.5t4 10.5t17 8q24 9 32.5 18.5t8.5 26.5q0 21 -13.5 34t-35.5 13q-32 0 -50 -27l18 -18q11 20 31 20q9 0 15.5 -6t6.5 -15.5t-8 -14t-20 -8.5q-20 -7 -27.5 -15.5t-7.5 -23.5q0 -17 12.5 -29t31.5 -12zM408 366q16 0 34 9v33q-9 -9 -17 -12.5t-18 -3.5
q-20 0 -33.5 14t-13.5 35t13.5 35t34.5 14q18 0 34 -16v33q-17 8 -35 8q-32 0 -54 -21.5t-22 -52.5t22.5 -53t54.5 -22zM55 369h41q34 0 55.5 19.5t21.5 51.5q0 15 -7 29.5t-19 24.5q-20 16 -51 16h-41v-141zM186 369h27v141h-27v-141zM595 369h31l38 96l38 -96h31l-62 146
h-15zM744 369h79v24h-51v31h49v24h-49v38h51v24h-79v-141zM843 369h42q24 0 37 10.5t13 30.5q0 33 -32 41l45 59h-35l-38 -57h-4v57h-28v-141zM871 391v43h8q27 0 27 -21.5t-26 -21.5h-9zM83 392v95h7q26 0 40 -12t14 -36q0 -10 -4 -19.5t-11 -15.5q-13 -12 -39 -12h-7z
M987 527v86q1 96 0 146q0 15 -11 27q-6 7 -13.5 10.5t-13.5 3.5h-725q138 -24 268 -61q111 -32 213 -72q82 -32 155 -68q52 -26 95 -52z" />
</svg>
