<?xml version="1.0" standalone="no"?>
<!DOCTYPE svg PUBLIC "-//W3C//DTD SVG 1.1//EN" "http://www.w3.org/Graphics/SVG/1.1/DTD/svg11.dtd" >
<svg xmlns="http://www.w3.org/2000/svg" xmlns:xlink="http://www.w3.org/1999/xlink" version="1.1" viewBox="-11 0 959 1000">
   <path fill="currentColor"
d="M469 317q-65 0 -111 -45t-45 -111t45 -110t111 -46t110 46t46 110t-46 111t-110 45zM469 110q-21 0 -37 15t-16 36t16 37t37 16t37 -16t15 -37t-15 -36t-37 -15zM469 995q-65 0 -111 -46t-45 -110t45 -111t111 -46t110 46t46 111t-46 110t-110 46zM469 786q-21 0 -37 16
t-16 37t16 36t37 15t37 -15t15 -36t-15 -37t-37 -16zM781 656h-625q-65 0 -110 -45t-46 -111t46 -111t110 -45h625q65 0 111 45t46 111t-46 111t-111 45zM156 447q-21 0 -37 16t-15 37t15 37t37 15h625q22 0 37 -15t16 -37t-16 -37t-37 -16h-625z" />
</svg>
