<?xml version="1.0" standalone="no"?>
<!DOCTYPE svg PUBLIC "-//W3C//DTD SVG 1.1//EN" "http://www.w3.org/Graphics/SVG/1.1/DTD/svg11.dtd" >
<svg xmlns="http://www.w3.org/2000/svg" xmlns:xlink="http://www.w3.org/1999/xlink" version="1.1" viewBox="-10 0 877 1000">
   <path fill="currentColor"
d="M819 266q8 7 16 20h-264v-264q13 8 21 16zM554 357h303v589q0 23 -15 38t-38 16h-750q-23 0 -38 -16t-16 -38v-892q0 -23 16 -38t38 -16h446v304q0 22 16 37t38 16zM643 768v-36q0 -8 -5 -13t-13 -5h-393q-8 0 -13 5t-5 13v36q0 8 5 13t13 5h393q8 0 13 -5t5 -13z
M643 625v-36q0 -8 -5 -13t-13 -5h-393q-8 0 -13 5t-5 13v36q0 8 5 13t13 5h393q8 0 13 -5t5 -13zM643 482v-36q0 -7 -5 -12t-13 -5h-393q-8 0 -13 5t-5 12v36q0 8 5 13t13 5h393q8 0 13 -5t5 -13z" />
</svg>
