<?xml version="1.0" standalone="no"?>
<!DOCTYPE svg PUBLIC "-//W3C//DTD SVG 1.1//EN" "http://www.w3.org/Graphics/SVG/1.1/DTD/svg11.dtd" >
<svg xmlns="http://www.w3.org/2000/svg" xmlns:xlink="http://www.w3.org/1999/xlink" version="1.1" viewBox="-10 0 877 1000">
   <path fill="currentColor"
d="M819 212q16 16 27 42t11 50v642q0 23 -15 38t-38 16h-750q-23 0 -38 -16t-16 -38v-892q0 -23 16 -38t38 -16h500q22 0 49 11t42 27zM571 76v210h210q-5 -17 -12 -23l-175 -175q-6 -7 -23 -12zM786 929v-572h-232q-23 0 -38 -16t-16 -37v-233h-429v858h715zM214 446
q0 -7 5 -12t13 -5h393q8 0 13 5t5 12v36q0 8 -5 13t-13 5h-393q-8 0 -13 -5t-5 -13v-36zM625 571q8 0 13 5t5 13v36q0 8 -5 13t-13 5h-393q-8 0 -13 -5t-5 -13v-36q0 -8 5 -13t13 -5h393zM625 714q8 0 13 5t5 13v36q0 8 -5 13t-13 5h-393q-8 0 -13 -5t-5 -13v-36q0 -8 5 -13
t13 -5h393z" />
</svg>
