<?xml version="1.0" standalone="no"?>
<!DOCTYPE svg PUBLIC "-//W3C//DTD SVG 1.1//EN" "http://www.w3.org/Graphics/SVG/1.1/DTD/svg11.dtd" >
<svg xmlns="http://www.w3.org/2000/svg" xmlns:xlink="http://www.w3.org/1999/xlink" version="1.1" viewBox="-10 0 1021 1000">
   <path fill="currentColor"
d="M0 875v-625q0 -39 27 -66t67 -28h31v-62q0 -39 27 -67t67 -27h687q39 0 67 27t27 67v781q0 53 -36 89t-89 36h-750q-53 0 -89 -36t-36 -89zM63 875q0 25 18 44t44 19h750q25 0 44 -19t18 -44v-781q0 -14 -8 -23t-23 -8h-687q-14 0 -23 8t-8 23v750q0 13 -9 22t-23 9
t-22 -9t-9 -22v-625h-31q-14 0 -23 9t-8 22v625zM250 859q0 -15 16 -15h250q15 0 15 15t-15 16h-250q-16 0 -16 -16zM250 766q0 -16 16 -16h250q15 0 15 16t-15 15h-250q-16 0 -16 -15zM250 672q0 -16 16 -16h250q15 0 15 16q0 6 -5 11t-10 4h-250q-16 0 -16 -15zM250 578
q0 -16 16 -16h593q16 0 16 16t-16 16h-593q-16 0 -16 -16zM250 484q0 -15 16 -15h593q16 0 16 15t-16 16h-593q-16 0 -16 -16zM250 375v-219q0 -13 9 -22t22 -9h219q14 0 22 9t9 22v219q0 14 -9 22t-22 9h-219q-13 0 -22 -9t-9 -22zM313 344h156v-156h-156v156zM594 859
q0 -15 15 -15h250q16 0 16 15t-16 16h-250q-15 0 -15 -16zM594 766q0 -16 15 -16h250q16 0 16 16t-16 15h-250q-15 0 -15 -15zM594 672q0 -16 15 -16h250q16 0 16 16q0 6 -5 11t-11 4h-250q-15 0 -15 -15zM594 391q0 -16 15 -16h250q16 0 16 16t-16 15h-250q-15 0 -15 -15z
M594 297q0 -16 15 -16h250q16 0 16 16t-16 15h-250q-15 0 -15 -15zM594 203q0 -15 15 -15h250q16 0 16 15t-16 16h-250q-15 0 -15 -16z" />
</svg>
