<?xml version="1.0" standalone="no"?>
<!DOCTYPE svg PUBLIC "-//W3C//DTD SVG 1.1//EN" "http://www.w3.org/Graphics/SVG/1.1/DTD/svg11.dtd" >
<svg xmlns="http://www.w3.org/2000/svg" xmlns:xlink="http://www.w3.org/1999/xlink" version="1.1" viewBox="-11 0 1023 1000">
   <path fill="currentColor"
d="M970 370q38 10 30 46l-150 556q-4 16 -18 23t-30 3l-406 -110q-16 -4 -24 -18t-4 -28l24 -92l-180 48q-40 10 -50 -26l-160 -602q-10 -36 28 -48l454 -122q16 -4 30 3t18 23l66 244zM82 180l144 542l392 -106l-144 -540zM784 922l132 -492l-298 -82l76 282q10 34 -28 46
l-196 52l-26 102z" />
</svg>
