<?xml version="1.0" standalone="no"?>
<!DOCTYPE svg PUBLIC "-//W3C//DTD SVG 1.1//EN" "http://www.w3.org/Graphics/SVG/1.1/DTD/svg11.dtd" >
<svg xmlns="http://www.w3.org/2000/svg" xmlns:xlink="http://www.w3.org/1999/xlink" version="1.1" viewBox="-10 0 1020 1000">
   <path fill="currentColor"
d="M946 214q23 0 38 16t16 38v678q0 23 -16 38t-38 16h-535q-23 0 -38 -16t-16 -38v-160h-303q-23 0 -38 -16t-16 -38v-375q0 -22 11 -49t27 -42l228 -228q15 -16 42 -27t49 -11h232q23 0 38 16t16 38v183q38 -23 71 -23h232zM643 333l-167 167h167v-167zM286 119l-167 167
h167v-167zM395 480l176 -176v-233h-214v233q0 22 -15 37t-38 16h-233v357h286v-143q0 -22 11 -49t27 -42zM929 929v-643h-215v232q0 22 -15 38t-38 15h-232v358h500z" />
</svg>
