<?xml version="1.0" standalone="no"?>
<!DOCTYPE svg PUBLIC "-//W3C//DTD SVG 1.1//EN" "http://www.w3.org/Graphics/SVG/1.1/DTD/svg11.dtd" >
<svg xmlns="http://www.w3.org/2000/svg" xmlns:xlink="http://www.w3.org/1999/xlink" version="1.1" viewBox="-10 0 581 1000">
   <path fill="currentColor"
d="M546 661q0 86 -56 147t-144 77v97q0 8 -5 13t-13 5h-75q-7 0 -13 -5t-5 -13v-97q-37 -5 -71 -18t-57 -25t-41 -26t-26 -21t-10 -10q-9 -12 -1 -23l58 -76q3 -5 12 -6t14 5l1 1q63 55 135 70q21 4 42 4q45 0 79 -24t35 -68q0 -16 -9 -30t-18 -23t-33 -21l-37 -18
q-13 -6 -45 -18q-21 -9 -34 -14t-34 -15l-35 -17q-14 -7 -32 -20t-29 -24t-25 -27t-20 -32t-11 -37t-5 -44q0 -77 55 -135t142 -75v-100q0 -7 5 -13t13 -5h75q8 0 13 5t5 13v98q32 3 62 13t48 19t36 20t21 17t9 7q9 11 3 22l-46 81q-4 9 -12 10t-15 -5q-2 -2 -9 -7l-21 -14
q-14 -9 -33 -18t-42 -15t-47 -6q-53 0 -87 24t-33 62q0 14 4 27t17 23t22 18t31 18l34 15q12 5 39 15q30 11 45 17t43 20t42 24t34 28t30 35t18 43t7 52z" />
</svg>
