<?xml version="1.0" standalone="no"?>
<!DOCTYPE svg PUBLIC "-//W3C//DTD SVG 1.1//EN" "http://www.w3.org/Graphics/SVG/1.1/DTD/svg11.dtd" >
<svg xmlns="http://www.w3.org/2000/svg" xmlns:xlink="http://www.w3.org/1999/xlink" version="1.1" viewBox="-10 0 1146 1000">
   <path fill="currentColor"
d="M0 507q67 0 132 -19q58 -16 119 -49q50 -27 110 -69q36 -25 105.5 -79.5t104.5 -79.5q59 -42 110 -69q60 -33 118 -50q65 -19 132 -19l195 419q-67 0 -131 17q-57 16 -116 46q-49 26 -106 66q-36 25 -102 76q-70 54 -104 78q-59 42 -110 70q-62 34 -122 53
q-69 22 -140 28zM120 573q91 195 128 273q74 -14 149 -52q60 -31 133 -84q-35 -14 -63 -42q-26 -27 -43 -62q-33 -73 -20 -168q-74 54 -134 84q-75 39 -150 51zM1006 426q-25 -53 -64 -137l-63 -136q-75 14 -149 52q-64 32 -135 86q35 12 64 41q25 26 42 61q34 76 20 168
q72 -53 135 -84q75 -38 150 -51zM349 731q-11 -25 -18 -36q-4 2 -10 2q3 22 7 40q15 -2 21 -6zM376 708q6 -9 12 -21q-32 -9 -39 -12l-5 10l16 11q10 8 16 12zM293 731q2 -4 7 -18q3 -11 6 -17q-4 -2 -8 -5l-27 29q14 10 22 11zM389 651q-1 -6 -5 -23h-1q-15 10 -35 20v2
q2 2 2 10q28 -6 39 -9zM250 692q24 -9 38 -15q-3 -6 -3 -9q-14 2 -42 2q2 13 7 22zM338 637q3 -4 11 -15.5t12 -18.5q-8 -7 -18 -10q-11 29 -14 39zM286 653q3 -2 5 -10l-31 -25q-8 10 -11 20zM314 631q-2 -20 -5 -40q-5 1 -11 3l-12 3l9 19l-9 -19q3 6 18 38q3 -2 10 -4z
M794 395q-11 -25 -44 -94q1 0 -9 5q-6 3 -10 6l43 94q11 -8 20 -11zM881 352q-6 -14 -21 -45t-22 -47q-5 1 -10 4l-10 4q24 47 43 92q14 -5 20 -8zM838 372q-22 -47 -45 -94l-19 10q21 41 44 93z" />
</svg>
