<?xml version="1.0" standalone="no"?>
<!DOCTYPE svg PUBLIC "-//W3C//DTD SVG 1.1//EN" "http://www.w3.org/Graphics/SVG/1.1/DTD/svg11.dtd" >
<svg xmlns="http://www.w3.org/2000/svg" xmlns:xlink="http://www.w3.org/1999/xlink" version="1.1" viewBox="-10 0 940 1000">
   <path fill="currentColor"
d="M110 390q46 0 78 32t32 77t-32 78t-78 33t-78 -33t-32 -78t32 -77t78 -32zM460 390q46 0 78 32t32 77t-33 78t-77 33t-77 -33t-33 -78t32 -77t78 -32zM810 390q46 0 78 32t32 77t-32 78t-78 33t-78 -33t-32 -78t32 -77t78 -32z" />
</svg>
