<?xml version="1.0" standalone="no"?>
<!DOCTYPE svg PUBLIC "-//W3C//DTD SVG 1.1//EN" "http://www.w3.org/Graphics/SVG/1.1/DTD/svg11.dtd" >
<svg xmlns="http://www.w3.org/2000/svg" xmlns:xlink="http://www.w3.org/1999/xlink" version="1.1" viewBox="-11 0 879 1000">
   <path fill="currentColor"
d="M625 518q0 7 -6 13l-178 178q-6 5 -12 5t-13 -5l-179 -178q-8 -9 -3.5 -20t16.5 -11h107v-196q0 -8 5 -13t13 -5h107q8 0 13 5t5 13v196h107q8 0 13 5t5 13zM429 196q-83 0 -153 41t-110 111t-41 152t41 152t110 111t153 41t152 -41t110 -111t41 -152t-41 -152t-110 -111
t-152 -41zM857 500q0 117 -57 215t-156 156t-215 58t-216 -58t-155 -156t-58 -215t58 -215t155 -156t216 -58t215 58t156 156t57 215z" />
</svg>
