<?xml version="1.0" standalone="no"?>
<!DOCTYPE svg PUBLIC "-//W3C//DTD SVG 1.1//EN" "http://www.w3.org/Graphics/SVG/1.1/DTD/svg11.dtd" >
<svg xmlns="http://www.w3.org/2000/svg" xmlns:xlink="http://www.w3.org/1999/xlink" version="1.1" viewBox="-11 0 879 1000">
   <path fill="currentColor"
d="M717 501q0 -16 -10 -26l-51 -50q-10 -10 -25 -10t-25 10l-106 105v-280q0 -15 -11 -25t-25 -11h-71q-15 0 -25 11t-11 25v280l-105 -105q-11 -11 -25 -11t-25 11l-51 50q-10 10 -10 26t10 25l202 202l51 50q10 10 25 10t25 -10l51 -50l202 -202q10 -10 10 -25zM857 500
q0 117 -57 215t-156 156t-215 58t-216 -58t-155 -156t-58 -215t58 -215t155 -156t216 -58t215 58t156 156t57 215z" />
</svg>
