<?xml version="1.0" standalone="no"?>
<!DOCTYPE svg PUBLIC "-//W3C//DTD SVG 1.1//EN" "http://www.w3.org/Graphics/SVG/1.1/DTD/svg11.dtd" >
<svg xmlns="http://www.w3.org/2000/svg" xmlns:xlink="http://www.w3.org/1999/xlink" version="1.1" viewBox="-11 0 867 1000">
   <path fill="currentColor"
d="M0 569q-2 -59 8 -117t25 -124t14 -94v-170q2 -27 21 -45t44 -19h347q26 2 44 20t19 44v155q17 23 58 60t57 59q18 21 41 35q22 10 77 19t79 30q24 56 -4 115t-82 78q-76 27 -170 -17l-1 273q-4 57 -39 93t-88 36t-88 -38t-37 -91v-107q-32 -6 -57 -22q-68 10 -119 -33
q-72 -4 -110 -42t-39 -98zM59 539q-2 55 26 83t91 19q14 27 47 36t59 -7q58 58 107 10v191q2 27 20 45t41 20q29 -2 45 -20t19 -45v-365q23 4 66 20l74 28q31 12 66 4t58 -42q13 -26 9 -47q-2 -4 -4 -5t-7 -1q-45 -8 -69 -13t-55 -20t-54 -41q-14 -18 -68 -68t-71 -87v-4
h-347q0 24 -15 84t-25 116t-13 109z" />
</svg>
