<?xml version="1.0" standalone="no"?>
<!DOCTYPE svg PUBLIC "-//W3C//DTD SVG 1.1//EN" "http://www.w3.org/Graphics/SVG/1.1/DTD/svg11.dtd" >
<svg xmlns="http://www.w3.org/2000/svg" xmlns:xlink="http://www.w3.org/1999/xlink" version="1.1" viewBox="-11 0 1227 1000">
   <path fill="currentColor"
d="M0 576q2 -54 23 -103t63 -87t95 -61q64 -28 154 -15q39 -79 113 -127t164 -49q83 0 152 41t109 111t40 148v29h7q80 -32 159 4t112 113q31 81 -4 159t-113 113l-33 8q-16 4 -13 3t-15 2t-13 1h-724q-84 0 -154 -49t-102 -134q-23 -52 -20 -107zM448 473q-6 9 4 20
l131 219q8 8 15 8q3 0 7 -2t6 -4l141 -221q6 -12 0 -21t-22 -9h-52v-102h-153v102h-59q-12 0 -18 10z" />
</svg>
