<?xml version="1.0" standalone="no"?>
<!DOCTYPE svg PUBLIC "-//W3C//DTD SVG 1.1//EN" "http://www.w3.org/Graphics/SVG/1.1/DTD/svg11.dtd" >
<svg xmlns="http://www.w3.org/2000/svg" xmlns:xlink="http://www.w3.org/1999/xlink" version="1.1" viewBox="-10 0 877 1000">
   <path fill="currentColor"
d="M786 536q0 -47 -18 -102l-36 -109q-18 -54 -18 -93v-18h-357v18q0 20 -7 38t-20 35t-26 28t-30 27l-8 7q-45 40 -81 62q-12 8 -38 21q-1 1 -12 6t-20 10t-20 12t-17 12t-7 10q0 40 17 64t55 25q24 0 47 -8t38 -19t31 -18t27 -8v321q0 28 21 50t50 22t50 -22t22 -50v-185
q25 20 57 20q39 0 67 -30q17 10 38 10t41 -9t29 -27q14 2 32 2q47 0 70 -27t23 -75zM714 107q0 -14 -10 -25t-25 -11t-25 11t-11 25t11 25t25 11t25 -11t10 -25zM857 533q0 80 -43 129t-121 48h-3q-43 34 -100 34q-12 0 -24 -2q-30 17 -66 21v94q0 59 -42 101t-100.5 42
t-100.5 -42t-43 -101v-209q-30 13 -71 13q-68 0 -105 -46t-38 -115q0 -21 10 -39t27 -31t36 -22t40 -21t34 -18q31 -20 72 -56q2 -1 10 -8l12 -10q4 -3 12 -12l12 -13q4 -4 10 -13t8 -13t3 -12v-161q0 -29 21 -50t50 -21h357q30 0 51 21t21 50v161q0 33 33 125
q38 106 38 176z" />
</svg>
