<?xml version="1.0" standalone="no"?>
<!DOCTYPE svg PUBLIC "-//W3C//DTD SVG 1.1//EN" "http://www.w3.org/Graphics/SVG/1.1/DTD/svg11.dtd" >
<svg xmlns="http://www.w3.org/2000/svg" xmlns:xlink="http://www.w3.org/1999/xlink" version="1.1" viewBox="-10 0 958 1000">
   <path fill="currentColor"
d="M0 500q0 -95 37 -182t100 -149t150 -100t182 -37t182 37t149 100t100 149t37 182t-37 182t-100 150t-149 100t-182 37t-182 -37t-150 -100t-100 -150t-37 -182zM183 499q0 59 22 112t61 91t90 62t112 22q78 0 144 -38t104 -105t38 -144t-38 -143t-104 -104t-144 -38
q-59 0 -112 22t-90 61t-61 91t-22 111zM230 512q6 0 17 1t16 0q105 0 215 -39q6 16 14 34q-61 22 -112 61t-87 92q-61 -63 -63 -149zM231 464q10 -56 44 -103t84 -73q60 72 98 142q-91 34 -194 34h-32zM328 694q69 -103 180 -140q28 83 35 173q-33 12 -75 12q-73 0 -140 -45
zM406 270q36 -9 62 -9q95 0 165 67q-60 53 -132 85q-38 -71 -95 -143zM522 457q73 -33 143 -91q42 63 42 133q-55 -12 -91 -12q-30 0 -78 8l-7 -19q-5 -14 -9 -19zM554 541q30 -5 62 -5q42 0 86 11q-11 51 -40 92t-73 66q-12 -94 -35 -164z" />
</svg>
