<?xml version="1.0" standalone="no"?>
<!DOCTYPE svg PUBLIC "-//W3C//DTD SVG 1.1//EN" "http://www.w3.org/Graphics/SVG/1.1/DTD/svg11.dtd" >
<svg xmlns="http://www.w3.org/2000/svg" xmlns:xlink="http://www.w3.org/1999/xlink" version="1.1" viewBox="-10 0 940 1000">
   <path fill="currentColor"
d="M438 370q-30 -54 -66 -109t-56 -84t-24 -33q-82 40 -139 112t-77 162q182 0 362 -48zM488 502q8 -4 14 -4q-10 -28 -32 -68q-182 56 -402 56v14q0 150 100 262q4 -8 13 -21t39 -50t64 -69t89 -66t115 -54zM218 808q-2 0 -4 -2l-4 -4zM366 118zM720 204q-114 -98 -260 -98
q-48 0 -92 12q82 108 146 228q138 -52 204 -140zM460 960q-190 0 -325 -135t-135 -325t135 -325t325 -135t325 135t135 325t-135 325t-325 135zM528 564q-216 74 -308 242l-2 2q110 84 242 84q78 0 154 -32q-24 -140 -84 -298zM544 406q12 24 26 56q2 2 5 9l5 11
q66 -8 129 -4t101 10t42 8q0 -138 -88 -246l-8 10q-8 10 -26 27t-42 36t-62 42t-82 41zM604 544q52 148 76 280q140 -92 168 -262q-8 -4 -39 -11t-88 -12t-117 5z" />
</svg>
