<?xml version="1.0" standalone="no"?>
<!DOCTYPE svg PUBLIC "-//W3C//DTD SVG 1.1//EN" "http://www.w3.org/Graphics/SVG/1.1/DTD/svg11.dtd" >
<svg xmlns="http://www.w3.org/2000/svg" xmlns:xlink="http://www.w3.org/1999/xlink" version="1.1" viewBox="-10 0 980 1000">
   <path fill="currentColor"
d="M494 498q-44 14 -82 44t-55 51t-25 35q-48 -58 -48 -128v-4q106 0 200 -28l14 28zM608 350q-32 42 -100 68q-26 -48 -70 -110q14 -4 42 -4q72 0 128 46zM362 654q40 -80 152 -120q34 92 40 146q-36 16 -74 16q-68 0 -118 -42zM466 432q-92 24 -176 24q18 -92 104 -134
q32 40 72 110zM556 524q12 -2 38 -2q30 0 80 10q-16 82 -82 128q-6 -56 -36 -136zM480 20q200 0 340 140t140 339t-140 340t-339 141t-340 -141t-141 -340t141 -339t339 -140zM480 734q98 0 167 -69t69 -166t-69 -166t-167 -69t-166 69t-68 166t68 166t166 69zM526 452
q72 -28 108 -74q42 52 42 116q-48 -8 -90 -8q-30 0 -44 2q-2 -2 -2 -5t-2 -3l-6 -13q-4 -9 -6 -15z" />
</svg>
