<?xml version="1.0" standalone="no"?>
<!DOCTYPE svg PUBLIC "-//W3C//DTD SVG 1.1//EN" "http://www.w3.org/Graphics/SVG/1.1/DTD/svg11.dtd" >
<svg xmlns="http://www.w3.org/2000/svg" xmlns:xlink="http://www.w3.org/1999/xlink" version="1.1" viewBox="-10 0 957 1000">
   <path fill="currentColor"
d="M0 499q0 -95 37 -181t99 -149t149 -100t182.5 -37t182.5 37t150 100t100 149t37 181t-37 182t-100 150t-150 100t-183 38t-182 -38t-149 -100t-99 -150t-37 -182zM78 519q2 69 29 132t75 113q58 -88 141 -152t185 -99q-12 -22 -24 -55q-179 64 -351 64q-9 0 -27 -2
t-28 -1zM81 441h52q165 0 316 -55q-60 -114 -161 -233q-82 44 -137 120t-70 168zM239 818q109 73 228 73q66 0 124 -21q-13 -143 -58 -282q-90 30 -165 89t-129 141zM367 124q90 113 155 233q118 -52 216 -138q-54 -53 -124 -81t-147 -28q-45 0 -100 14zM557 430q4 10 12 32
t13 31q77 -15 128 -15q58 0 149 21q0 -113 -69 -219q-111 92 -233 150zM609 568q38 118 57 268q71 -41 119 -109t66 -151q-72 -17 -141 -17q-54 0 -101 9z" />
</svg>
