<?xml version="1.0" standalone="no"?>
<!DOCTYPE svg PUBLIC "-//W3C//DTD SVG 1.1//EN" "http://www.w3.org/Graphics/SVG/1.1/DTD/svg11.dtd" >
<svg xmlns="http://www.w3.org/2000/svg" xmlns:xlink="http://www.w3.org/1999/xlink" version="1.1" viewBox="-11 0 960 1000">
   <path fill="currentColor"
d="M469 31q194 0 331 137t138 332t-138 331t-331 138t-331 -138t-138 -331t138 -332t331 -137zM831 462q-13 -132 -108 -224q-82 107 -193 170l30 68q134 -36 271 -14zM684 206q-98 -71 -215 -71q-54 0 -109 16q83 95 146 211q107 -61 178 -156zM310 172q-77 38 -131 107
t-69 154q185 30 350 -46q-64 -117 -150 -215zM104 500q0 135 89 237q118 -175 317 -246l-27 -59q-133 63 -273 63q-49 0 -105 -10l-1 7q-1 5 0 8zM229 773q104 92 240 92q64 0 127 -24q-12 -150 -67 -301q-188 66 -300 233zM646 818q82 -45 132 -126t55 -177
q-130 -23 -254 10q52 140 67 293z" />
</svg>
