<?xml version="1.0" standalone="no"?>
<!DOCTYPE svg PUBLIC "-//W3C//DTD SVG 1.1//EN" "http://www.w3.org/Graphics/SVG/1.1/DTD/svg11.dtd" >
<svg xmlns="http://www.w3.org/2000/svg" xmlns:xlink="http://www.w3.org/1999/xlink" version="1.1" viewBox="-11 0 879 1000">
   <path fill="currentColor"
d="M571 837q-23 -134 -78 -278h-1l-1 1q-9 3 -24 9t-56 27t-77 46t-73 64t-57 82l-9 -6q103 84 234 84q73 0 142 -29zM468 498q-11 -27 -29 -62q-174 52 -376 52v12q0 69 24 132t69 112q28 -49 69 -93t80 -69t73 -45t55 -27l21 -7q2 -1 7 -2t7 -3zM409 380
q-67 -119 -137 -211q-77 36 -130 104t-72 152q169 0 339 -45zM790 558q-117 -33 -228 -16q49 133 71 262q62 -42 104 -106t53 -140zM341 144h-1h1zM670 225q-103 -91 -241 -91q-43 0 -87 10q73 95 137 214q39 -15 73 -34t54 -34t36 -32t21 -23zM795 496q-2 -129 -83 -229
l-1 1q-5 7 -11 13l-24 25q-18 19 -40 34t-55 36t-74 36l25 53l3 10q2 7 5 9l41 -4q21 -2 41 -1t39 1t35 2t32 3t27 4t20 3t14 3zM857 500q0 117 -57 215t-156 156t-215 58t-216 -58t-155 -156t-58 -215t58 -215t155 -156t216 -58t215 58t156 156t57 215z" />
</svg>
