<?xml version="1.0" standalone="no"?>
<!DOCTYPE svg PUBLIC "-//W3C//DTD SVG 1.1//EN" "http://www.w3.org/Graphics/SVG/1.1/DTD/svg11.dtd" >
<svg xmlns="http://www.w3.org/2000/svg" xmlns:xlink="http://www.w3.org/1999/xlink" version="1.1" viewBox="-10 0 1021 1000">
   <path fill="currentColor"
d="M0 500q0 -207 147 -354t353 -146t354 146t146 354t-146 354t-354 146t-353 -146t-147 -354zM72 500q0 164 110 287q52 -100 145 -166t220 -123l-18 -35l-17 -35q-207 58 -440 60v12zM82 414q195 -2 395 -53q-38 -66 -159 -248q-91 43 -154 122t-82 179zM238 838
q116 90 262 90q88 0 168 -33q-33 -174 -92 -325q-219 72 -338 268zM398 84q90 119 163 252q150 -61 222 -156q-121 -108 -283 -108q-51 0 -102 12zM592 398q4 10 13 28t14 31t12 25q146 -15 297 16q-2 -152 -96 -268q-88 108 -240 168zM654 551q39 99 84 304
q155 -105 184 -287q-92 -25 -184 -25q-45 2 -84 8z" />
</svg>
