<?xml version="1.0" standalone="no"?>
<!DOCTYPE svg PUBLIC "-//W3C//DTD SVG 1.1//EN" "http://www.w3.org/Graphics/SVG/1.1/DTD/svg11.dtd" >
<svg xmlns="http://www.w3.org/2000/svg" xmlns:xlink="http://www.w3.org/1999/xlink" version="1.1" viewBox="-10 0 1020 1000">
   <path fill="currentColor"
d="M0 500q0 -136 67 -251t182 -182t251 -67t251 67t182 182t67 251t-67 251t-182 182t-251 67t-251 -67t-182 -182t-67 -251zM83 500q0 156 105 275q48 -94 152 -179t203 -107q-15 -35 -29 -63q-172 55 -372 55q-39 0 -58 -1v10q0 6 -1 10zM96 397q22 2 65 2q167 0 317 -45
q-76 -135 -167 -225q-79 40 -135 111t-80 157zM245 829q113 88 255 88q74 0 147 -28q-20 -171 -78 -331q-92 20 -185 101t-139 170zM398 97q88 91 163 227q136 -57 205 -145q-116 -96 -266 -96q-51 0 -102 14zM597 395q15 32 34 81q74 -7 161 -7q62 0 123 3
q-8 -136 -98 -242q-65 97 -220 165zM656 546q51 148 69 304q79 -51 129 -131t60 -173q-73 -5 -133 -5q-55 0 -125 5z" />
</svg>
