<?xml version="1.0" standalone="no"?>
<!DOCTYPE svg PUBLIC "-//W3C//DTD SVG 1.1//EN" "http://www.w3.org/Graphics/SVG/1.1/DTD/svg11.dtd" >
<svg xmlns="http://www.w3.org/2000/svg" xmlns:xlink="http://www.w3.org/1999/xlink" version="1.1" viewBox="-11 0 1063 1000">
   <path fill="currentColor"
d="M781 776q-21 0 -37 -16t-15 -37t15 -36t37 -15q65 0 111 -46t46 -110t-46 -111t-111 -46q-22 0 -42 7l-56 16l-9 -58q-14 -75 -71 -124t-134 -49q-86 0 -148 61t-61 147q0 14 5 42l13 62h-74q-40 0 -70 31t-30 74t30 73t75 31q21 0 36 15t15 36t-15 37t-36 16
q-86 0 -148 -62t-61 -147q0 -73 44 -128t112 -73v-7q0 -128 92 -220t221 -92q101 0 181 57t113 152q113 -9 196 68t82 192q0 107 -76 183t-184 77zM443 776l52 -157l53 157q7 21 -4 42t-31 28q-29 10 -55 -13t-15 -57zM599 880l52 -157l52 157q7 21 -3 41t-31 29
q-29 10 -55 -13t-15 -57zM286 880l53 -157l51 157q8 21 -2 41t-32 29q-28 10 -55 -13t-15 -57z" />
</svg>
