<?xml version="1.0" standalone="no"?>
<!DOCTYPE svg PUBLIC "-//W3C//DTD SVG 1.1//EN" "http://www.w3.org/Graphics/SVG/1.1/DTD/svg11.dtd" >
<svg xmlns="http://www.w3.org/2000/svg" xmlns:xlink="http://www.w3.org/1999/xlink" version="1.1" viewBox="-11 0 1020 1000">
   <path fill="currentColor"
d="M0 407q0 -90 64 -155t155 -64q17 0 31 2q43 -61 110 -94t140 -33t139.5 33t110.5 94q13 -2 31 -2q90 0 154 64t64 155t-64 154t-154 64q-42 0 -78 -13q-88 76 -203 76t-203 -76q-37 13 -78 13q-90 0 -155 -64t-64 -154zM437 875q0 -35 63 -125l15 24q18 26 32 54
q15 32 15 47q0 25 -18 44t-44 19t-44 -19t-19 -44z" />
</svg>
