<?xml version="1.0" standalone="no"?>
<!DOCTYPE svg PUBLIC "-//W3C//DTD SVG 1.1//EN" "http://www.w3.org/Graphics/SVG/1.1/DTD/svg11.dtd" >
<svg xmlns="http://www.w3.org/2000/svg" xmlns:xlink="http://www.w3.org/1999/xlink" version="1.1" viewBox="-10 0 980 1000">
   <path fill="currentColor"
d="M286 44l194 158l-284 184l-196 -164zM654 798q8 0 12 -2l116 -78v46l-302 190l-302 -190v-46l118 78q4 2 13 2t13 -4l158 -132l160 132q4 4 14 4zM960 222l-194 164l-286 -184l196 -158zM480 564l286 -178l174 140l-282 184zM304 710l-282 -184l174 -140l284 178z" />
</svg>
