<?xml version="1.0" standalone="no"?>
<!DOCTYPE svg PUBLIC "-//W3C//DTD SVG 1.1//EN" "http://www.w3.org/Graphics/SVG/1.1/DTD/svg11.dtd" >
<svg xmlns="http://www.w3.org/2000/svg" xmlns:xlink="http://www.w3.org/1999/xlink" version="1.1" viewBox="-10 0 580 1000">
   <path fill="currentColor"
d="M290 28q14 118 60 219t92 159t82 136t36 160q0 114 -83 196t-197 82t-197 -82t-83 -196q0 -82 36 -160t82 -136t92 -159t60 -219q2 -8 11 -8t9 8zM248 420q2 -4 -2 -14q-6 -6 -14 -6t-12 6l-40 58q-32 46 -48 70t-34 75t-18 101q0 24 17 41t41 17q58 0 58 -68
q0 -94 42 -246z" />
</svg>
