<?xml version="1.0" standalone="no"?>
<!DOCTYPE svg PUBLIC "-//W3C//DTD SVG 1.1//EN" "http://www.w3.org/Graphics/SVG/1.1/DTD/svg11.dtd" >
<svg xmlns="http://www.w3.org/2000/svg" xmlns:xlink="http://www.w3.org/1999/xlink" version="1.1" viewBox="-10 0 877 1000">
   <path fill="currentColor"
d="M651 885q-3 -11 -13 -3q-17 13 -49 22t-73 10q-72 0 -107 -28q-3 -2 -8.5 -2t-13.5 7q-4 3 -4 9t4 11q19 18 49 25t57 7t55 -2q23 -2 47 -12t36 -16t16 -12q7 -6 4 -16zM630 821q-11 -26 -22 -34q-13 -9 -43 -9q-26 0 -39 6q-16 7 -44 31q-14 14 -7 25q6 4 10 2t18 -13
q2 -1 6 -5t6 -4t5 -4t7 -4t7 -3t8 -2t9 -2t12 0q15 0 24 4t13 8t8 12q5 10 7 11t7 0q13 -7 8 -19zM828 664q0 -12 -3 -25t-9 -25t-19 -20t-30.5 -8t-53.5 23t-72 47t-56 23q-15 1 -36 -11t-42 -27t-47 -32t-55 -28t-62 -10q-64 0 -110 44t-47 99q-1 63 41 92q16 11 35 16
t58 4q32 0 73 -18t75 -39t67 -40t52 -17q15 1 36 18t40 37t38 38t31 17q20 2 33 -7t31 -35q15 -23 24 -57t8 -59zM857 575q0 91 -34 170t-93 131t-135 84t-162 30t-164 -32t-138 -88t-95 -135t-36 -168q0 -50 11 -96t27 -82t40 -66t43 -52t44 -39t36 -26t24 -14l59 -30
q11 -6 27 -17t33 -25q20 -15 33 -40t16 -70q72 86 104 108q25 16 73 38t72 36q12 8 22 14t33 26t43 40t42 53t38 68t26 83t11 99z" />
</svg>
