<?xml version="1.0" standalone="no"?>
<!DOCTYPE svg PUBLIC "-//W3C//DTD SVG 1.1//EN" "http://www.w3.org/Graphics/SVG/1.1/DTD/svg11.dtd" >
<svg xmlns="http://www.w3.org/2000/svg" xmlns:xlink="http://www.w3.org/1999/xlink" version="1.1" viewBox="-11 0 896 1000">
   <path fill="currentColor"
d="M0 568q0 -70 21 -133t49 -103t64 -75t57 -48l38 -23l30 -15q20 -10 30 -16l29 -17q19 -11 34 -25q42 -34 50 -113q73 88 106 110q25 17 74 39t73 37q19 11 36 23t54 49t63 76t46 105t21 137q0 186 -127 305t-307 119q-116 0 -216 -55t-163 -156t-62 -221zM190 719
q-2 63 42 93q31 21 94 21q41 0 98 -30t105 -58t70.5 -27.5t77.5 55.5t70 56q20 1 34 -9t31 -35q33 -49 33 -117q0 -29 -15 -55t-47 -25q-22 0 -92 47t-94 48q-22 0 -61 -28t-88 -55t-99 -28q-65 1 -111 45t-48 102zM395 899q-12 10 0 20q46 42 165 31q23 -2 48 -11t37 -18
l16 -12q4 -3 4 -16q-3 -12 -14 -3q-41 32 -124 32q-75 0 -110 -28q-3 -2 -8 -2t-14 7zM485 847q7 8 28 -11q2 -1 8 -6l8 -7q2 -2 8 -5t10 -4t12 -2t15 -1q16 0 26 4t13 8t7.5 13.5t7.5 10.5t7 0q12 -7 7 -20q-9 -26 -21.5 -34.5t-43.5 -8.5q-26 0 -41 6q-17 7 -44 32
q-15 12 -7 25z" />
</svg>
