<?xml version="1.0" standalone="no"?>
<!DOCTYPE svg PUBLIC "-//W3C//DTD SVG 1.1//EN" "http://www.w3.org/Graphics/SVG/1.1/DTD/svg11.dtd" >
<svg xmlns="http://www.w3.org/2000/svg" xmlns:xlink="http://www.w3.org/1999/xlink" version="1.1" viewBox="-10 0 1013 1000">
   <path fill="currentColor"
d="M0 501q0 -215 141 -355t355 -141t356 141t140 355q0 182 -103 313t-280 172q-9 -17 -33 -52t-35 -56q64 26 86 26q16 0 16 -50q0 -94 -17 -94q-25 0 -97 55q0 -14 -15 -12h-5q-26 -69 -26 -123q0 -15 3 -30q92 45 148 45q31 0 94 -18t62 -39q0 -13 -17 -13q-26 0 -75 7
t-75.5 7t-58.5 -14t-33 -38q0 -5 2 -7t4 -3t6 0t8 1h9q9 0 26 3t25 2q31 0 127 -36t96 -57q0 -12 -18 -17t-35 -5q-14 0 -42 8l-105 31q4 -20 4 -32q0 -47 -25 -109t-58 -93q-27 -24 -72 -33q-28 -36 -87 -65t-106 -30q-9 0 -27 4t-24 4l-22 31l6 1q7 0 22 -2t21 -2
q34 0 78 14q-28 14 -49 19q-2 1 -13 3l-18 3q-7 1 -14 6t-7 11q56 -6 84 -6q38 0 60 7q-77 9 -118 53t-42 121q0 27 4 50q19 120 73 358q33 155 37 171l1 4q-160 -50 -251 -186t-91 -308zM283 377q0 6 3 12q-1 -16 18 -28t36 -12q8 0 20 5q-10 -13 -28 -13t-33 10t-16 26z
M316 452q0 -13 11 -23t23 -11t24 11t10 23t-10 24t-24 10t-23 -10t-11 -24zM356 441q0 8 9 8t9 -8.5t-9 -8.5t-9 9zM524 354q8 -13 37 -13q13 0 33 10q-10 -22 -35 -22q-31 0 -35 25zM547 432q0 -12 9 -20t20.5 -8.5t20.5 8.5t8.5 20t-8.5 20t-20 9t-21 -9t-9 -20zM582 422
q0 8 7.5 8t7.5 -7.5t-7.5 -7.5t-7.5 7z" />
</svg>
