<?xml version="1.0" standalone="no"?>
<!DOCTYPE svg PUBLIC "-//W3C//DTD SVG 1.1//EN" "http://www.w3.org/Graphics/SVG/1.1/DTD/svg11.dtd" >
<svg xmlns="http://www.w3.org/2000/svg" xmlns:xlink="http://www.w3.org/1999/xlink" version="1.1" viewBox="-10 0 638 1000">
   <path fill="currentColor"
d="M0 846q0 -76 57 -112q29 -19 54 -29q114 -49 122 -54q-21 -31 -54 -68l-60 -71q-109 -132 -94 -247q7 -55 42 -91q13 -14 42 -32q37 -21 45 -25l23 -9q18 -7 29 -13l47 -21l69 -30q58 -25 86 -40q20 -11 25 6q0 11 -27 25q-61 40 -64 114q-1 29 5 58t13 47t25 46t27 37
t35 40t31 36l62 70q10 11 28 38t26 46t16 49t7 58q0 38 -13 68q-12 32 -28 52t-48 39q-35 21 -53 30q-23 12 -61 27q-16 6 -35 15t-23 10l-89 39l-36 18q-32 16 -50 21q-85 21 -133 -24t-48 -123z" />
</svg>
