<?xml version="1.0" standalone="no"?>
<!DOCTYPE svg PUBLIC "-//W3C//DTD SVG 1.1//EN" "http://www.w3.org/Graphics/SVG/1.1/DTD/svg11.dtd" >
<svg xmlns="http://www.w3.org/2000/svg" xmlns:xlink="http://www.w3.org/1999/xlink" version="1.1" viewBox="-10 0 1415 1000">
   <path fill="currentColor"
d="M0 565q0 -31 5 -54t22 -46t46 -39t84 -24t128 -9q88 0 148 13q39 8 58 18v161h-293q0 21 2 33t9 31t27 27t49 9q85 0 85 -61h121v89q-27 13 -56 19q-68 15 -150 15q-92 0 -151 -13t-87 -39t-37 -56t-10 -74zM198 531h178q0 -18 -1 -27t-9 -23t-27 -22t-54 -7q-31 0 -50 7
t-27 23t-8 24t-2 25zM491 713v-89h78q-1 51 -74 87q-2 2 -4 2zM491 713q2 0 4 -2q73 -36 74 -87h-78v-39h81q1 -12 1 -23q0 -45 -13 -76q-16 -39 -69 -62v-183h107v203h2q31 -44 88 -44q43 0 69 26q-40 29 -40 102q0 104 76 122q-1 31 -5 54t-16 47t-32 36t-54 13
q-64 0 -91 -50h-1v42h-103v-79zM491 585v-161q53 23 69 62q13 31 13 76q0 11 -1 23h-81zM598 596q0 77 9 107t35 31q28 0 37 -31t9 -107v-5q0 -35 -1 -52t-5 -37t-13 -28t-26 -8t-26 8t-13 30t-5 38t-1 54zM717 528q0 -73 40 -102q17 18 26 53t10 55t0 64v52
q-76 -18 -76 -122zM725 369q0 -69 40 -94q34 -26 101 -26l49 3l107 218v102q0 14 2 39t2 34h-100l-5 -52h-2q-33 58 -100 58q-18 0 -26 -1v-116q0 -21 -10 -55t-26 -53q38 -29 135 -29h24v-31q0 -29 -8 -43t-35 -14t-34 15t-7 45h-107zM822 523q0 62 41 62q13 0 23 -5
t15 -14l10 -18q5 -9 4 -24t2 -23t0 -24t-1 -20h-17q-13 0 -16 1l-14 2l-14 3q-14 3 -11 5t-9 8t-7 11t-5 16t-1 20zM889 200h154l100 232l109 -232h143l-189 359v190h-141v-190l-43 -89v-91q0 -55 -21 -87t-86 -40zM915 252q64 9 86 40t21 87v91z" />
</svg>
