<?xml version="1.0" standalone="no"?>
<!DOCTYPE svg PUBLIC "-//W3C//DTD SVG 1.1//EN" "http://www.w3.org/Graphics/SVG/1.1/DTD/svg11.dtd" >
<svg xmlns="http://www.w3.org/2000/svg" xmlns:xlink="http://www.w3.org/1999/xlink" version="1.1" viewBox="-10 0 1010 1000">
   <path fill="currentColor"
d="M123 530q0 -14 9 -23t22 -9h63q13 0 22 9t9 23t-9 22t-22 9h-63q-13 0 -22 -9t-9 -22zM242 816q-11 -10 -11 -21t11 -23l45 -43q11 -13 22 -13l21 12q11 11 11 22t-11 22l-43 44q-12 11 -23 11t-22 -11zM242 287q-11 -11 -11 -22t11 -22t22 -11t23 11l43 44q11 11 11 22
t-11 21t-22 11l-21 -11zM310 530q0 -90 65 -155t154 -64q29 0 63 10q33 -10 62 -10q90 0 154 64t65 155t-65 154t-154 64q-29 0 -62 -10q-34 10 -63 10q-90 0 -154 -64t-65 -154zM373 530q0 56 36 99t89 53q-63 -63 -63 -152t63 -153q-53 10 -89 53t-36 100zM498 904v-62
q0 -14 9 -23t22 -8t22 8t9 23v62q0 14 -9 23t-22 9t-22 -9t-9 -23zM498 217v-62q0 -14 9 -23t22 -8t22 8t9 23v62q0 14 -9 23t-22 8t-22 -8t-9 -23z" />
</svg>
