<?xml version="1.0" standalone="no"?>
<!DOCTYPE svg PUBLIC "-//W3C//DTD SVG 1.1//EN" "http://www.w3.org/Graphics/SVG/1.1/DTD/svg11.dtd" >
<svg xmlns="http://www.w3.org/2000/svg" xmlns:xlink="http://www.w3.org/1999/xlink" version="1.1" viewBox="-10 0 1010 1000">
   <path fill="currentColor"
d="M39 444v0q9 -71 33 -135t64 -121t93 -98t125 -66t154 -24q129 0 231 59t165 169q58 105 58 247v105h-628q0 62 30 107t76 69t106 31t118 2t116 -26t97 -47v210q-51 31 -128 52t-174 21t-177 -30q-105 -40 -173 -139t-70 -207q-1 -135 62 -230t181 -150q-26 34 -43 70
t-26 89h355q4 -43 -5 -78t-26 -56t-39 -38t-45 -22t-42 -12t-31 -5h-13q-75 3 -145 25t-124 58t-98 78t-77 92z" />
</svg>
