<?xml version="1.0" standalone="no"?>
<!DOCTYPE svg PUBLIC "-//W3C//DTD SVG 1.1//EN" "http://www.w3.org/Graphics/SVG/1.1/DTD/svg11.dtd" >
<svg xmlns="http://www.w3.org/2000/svg" xmlns:xlink="http://www.w3.org/1999/xlink" version="1.1" viewBox="-10 0 885 1000">
   <path fill="currentColor"
d="M90 261v593h444v-262l90 -101v453h-624v-760h541l-75 77h-376zM839 81q26 25 25 61t-28 63l-57 56l17 -75l-63 -64l-74 17l56 -57q26 -26 62 -26.5t62 25.5zM620 180q0 -2 34 -12q61 -17 41 -11l1 -1l67 69q-2 0 -13 37l-10 38l-371 384l-159 36l-2 -1l41 -158zM373 602
l-45 -46l-35 6l-23 22l-10 40l46 45l39 -9l23 -23z" />
</svg>
