<?xml version="1.0" standalone="no"?>
<!DOCTYPE svg PUBLIC "-//W3C//DTD SVG 1.1//EN" "http://www.w3.org/Graphics/SVG/1.1/DTD/svg11.dtd" >
<svg xmlns="http://www.w3.org/2000/svg" xmlns:xlink="http://www.w3.org/1999/xlink" version="1.1" viewBox="-10 0 1010 1000">
   <path fill="currentColor"
d="M748 437q17 -24 -3 -72t-68 -79q-32 -22 -70 -30t-66 -3t-38 21q-7 13 -3 16t24 5l22 3q9 1 24 5t32 10q20 7 37 18l30 20q13 9 22 22t17 21t12 19t10 16t6 10t6 4t6 -6zM951 758q-29 71 -83 123t-120 79t-141 33t-148 -7t-140 -51t-117 -90t-79 -132t-26 -169
q0 -23 4 -47t7 -36t14 -45l13 -40q-29 116 0 221t97 178t162 115t193 46t195 -42t161 -136q11 -15 10 -8q0 2 -2 8zM818 507q0 58 -23 111t-61 92t-90 61t-110 22t-111 -22t-90 -61t-61 -92t-23 -111t23 -111t61 -91t90 -61t111 -23t110 23t90 61t61 91t23 111zM978 346
q-37 -82 -101 -140t-141 -85t-163 -30t-168 20t-154 72t-123 118t-73 166t-5 208q-28 -90 -29 -174t20 -152t61 -126t92 -101t115 -70t130 -40t135 -5t132 30t121 70t99 109q18 28 34 68t18 62zM943 537q7 -136 -76 -232t-221 -134q-5 0 -6 -3t14 -4q69 2 128 28t96 67
t65 94t33 111t-1 116t-34 110t-68 93t-104 66t-138 26q60 -17 112 -45t97 -68t72 -99t31 -126z" />
</svg>
