<?xml version="1.0" standalone="no"?>
<!DOCTYPE svg PUBLIC "-//W3C//DTD SVG 1.1//EN" "http://www.w3.org/Graphics/SVG/1.1/DTD/svg11.dtd" >
<svg xmlns="http://www.w3.org/2000/svg" xmlns:xlink="http://www.w3.org/1999/xlink" version="1.1" viewBox="-10 0 829 1000">
   <path fill="currentColor"
d="M469 799q96 0 165 -68t69 -165t-69 -166t-165 -69q-21 0 -37 -16t-16 -37t16 -36t37 -15q140 0 239 99t100 240t-100 238t-239 99t-240 -99t-99 -238q0 -22 16 -37t37 -16t36 16t16 37q0 96 69 165t165 68zM346 97q22 0 37 15t16 36t-16 37t-37 16h-168l302 302
q15 15 15 37t-15 37t-37 15t-37 -15l-302 -303v169q0 21 -15 37t-36 16t-37 -16t-16 -37v-346h346z" />
</svg>
