<?xml version="1.0" standalone="no"?>
<!DOCTYPE svg PUBLIC "-//W3C//DTD SVG 1.1//EN" "http://www.w3.org/Graphics/SVG/1.1/DTD/svg11.dtd" >
<svg xmlns="http://www.w3.org/2000/svg" xmlns:xlink="http://www.w3.org/1999/xlink" version="1.1" viewBox="-11 0 1969 1000">
   <path fill="currentColor"
d="M53 0q-15 0 -28 8t-20 22q-10 20 -2.5 41t27.5 30l152 80q-2 35 6.5 69t27.5 60q17 22 38 35q24 14 50 14q42 0 72 -31q27 -26 40 -70q12 -40 9 -79q-55 -24 -118 -55q-46 -23 -115 -59l-116 -60q-12 -5 -23 -5zM572 169q-22 0 -38 15.5t-16 38t16 38.5t38 16h186
q23 0 38.5 -16t15.5 -38.5t-15.5 -38t-38.5 -15.5h-186zM1191 256q-29 0 -56 11.5t-49 31.5l-2 2q-8 8 -14 17q-19 25 -24 51q-36 14 -53 23q-44 21 -82 48v0q-58 39 -114 111q-60 78 -87 154q-13 35 -17 66q-5 34 -2 63l1 5q13 99 78 140q12 6 28 13q15 4 26 5q2 1 6 1h4
q54 3 145 1q21 -1 60 -1q55 0 90 -28q30 -22 49 -68q12 -28 28 -88q14 -52 23 -72h219q110 0 148 -100q7 -24 8 -32l291 1q22 0 37 -15t15 -37v-154h1v-67h-1q0 -33 -22 -53q-19 -19 -44 -22q-3 -1 -10 -1h-50q-28 1 -49 19v1h-1l-3 3q-12 11 -19 32h-162q-22 -29 -51 -43v0
q-5 -3 -15 -7l-4 -1q-21 -9 -45 -9q-2 -1 -6 -1h-275zM1469 361q6 1 12 3l1 1l5 1v1q15 8 21.5 23.5t21 24.5t31.5 7h237q14 0 25.5 -6.5t19.5 -17.5v108l-286 -1q-22 0 -37 15t-15 37l-2 23q-1 5 -2 9q-2 10 -4 16q-11 32 -49 32h-249q-14 0 -26 7t-19 19q-10 15 -12 19v1
q-4 -3 -20 48q-9 26 -17 56q-14 53 -24 73q-17 33 -43 33l-126 2q-39 1 -71 -1l-3 -1l-7 -1l-7 -3q-10 -6 -17.5 -22.5t-10.5 -41.5v-1l-1 -1q-1 -14 2 -37t12 -45q22 -63 70 -125q45 -58 91 -90v0v0q41 -27 70 -41t69 -28q16 -5 26 -19t10 -31v-2q2 -15 9 -25l3 -3l2 -2
q14 -14 32 -14h278zM442 537q-91 0 -177.5 31t-156.5 89q-35 30 -51 49q-21 22 -45 55q-12 18 -8 39.5t22 34.5t39.5 9t33.5 -22q18 -26 35.5 -45t41.5 -38q56 -46 124.5 -70.5t141.5 -24.5v-1q17 0 55 4l8 2q24 3 45 8.5t40.5 -5.5t25 -32t-5.5 -40t-32 -25q-28 -8 -57 -12
l-11 -1q-29 -4 -68 -4v-1z" />
</svg>
