<?xml version="1.0" standalone="no"?>
<!DOCTYPE svg PUBLIC "-//W3C//DTD SVG 1.1//EN" "http://www.w3.org/Graphics/SVG/1.1/DTD/svg11.dtd" >
<svg xmlns="http://www.w3.org/2000/svg" xmlns:xlink="http://www.w3.org/1999/xlink" version="1.1" viewBox="-10 0 1019 1000">
   <path fill="currentColor"
d="M261 50q-29 0 -54.5 19.5t-40 52.5t-14.5 72t14.5 72.5t39.5 53t55 19.5t55 -19.5t40 -53t15 -72.5t-15 -72t-40 -52.5t-55 -19.5zM738 50q-30 0 -55 19.5t-40 52.5t-15 72t15 72.5t40 53t55 19.5t55 -19.5t40 -53t15 -72.5t-15 -72t-40 -52.5t-55 -19.5zM494 649
q-126 0 -244 46q-121 48 -217 138l-3 3q-9 8 -14 14q-16 16 -16 38t15.5 38t37 16t37.5 -15l15 -15q82 -78 186 -118q102 -39 210.5 -37.5t209.5 42.5q104 43 186 123l12 12q15 16 37 16t37.5 -15.5t15.5 -37.5t-15 -39l-7 -7q-4 -5 -7 -7q-97 -95 -220 -146
q-119 -48 -248 -49h-8z" />
</svg>
