<?xml version="1.0" standalone="no"?>
<!DOCTYPE svg PUBLIC "-//W3C//DTD SVG 1.1//EN" "http://www.w3.org/Graphics/SVG/1.1/DTD/svg11.dtd" >
<svg xmlns="http://www.w3.org/2000/svg" xmlns:xlink="http://www.w3.org/1999/xlink" version="1.1" viewBox="-10 0 716 1000">
   <path fill="currentColor"
d="M110 1q-30 0 -55 19.5t-40 52.5t-15 72t15 72.5t40 53t55 19.5t55 -19.5t39.5 -53t14.5 -72.5t-14.5 -72t-40 -52.5t-54.5 -19.5zM586 1q-29 0 -54.5 19.5t-40 52.5t-14.5 72t14.5 72.5t39.5 53t55 19.5t55 -19.5t40 -53t15 -72.5t-15 -72t-40 -52.5t-55 -19.5zM331 433
v0q-41 0 -78 15.5t-65 43.5t-44 65.5t-16 78.5v162q0 41 15.5 77.5t43.5 65t65.5 44.5t78.5 16h34q41 0 78.5 -16t65 -43.5t43.5 -65t16 -78.5v-162q0 -41 -15.5 -78t-43.5 -65t-65.5 -44t-78.5 -16h-34zM331 540v0h34q19 0 36.5 7.5t30.5 20.5q29 29 29 68v162
q0 19 -7.5 36.5t-20.5 30.5q-29 29 -68 29v-1h-34v1q-39 0 -68 -29q-13 -13 -20.5 -30.5t-7.5 -36.5v-162q0 -19 7.5 -36.5t20.5 -30.5q29 -29 68 -29z" />
</svg>
