<?xml version="1.0" standalone="no"?>
<!DOCTYPE svg PUBLIC "-//W3C//DTD SVG 1.1//EN" "http://www.w3.org/Graphics/SVG/1.1/DTD/svg11.dtd" >
<svg xmlns="http://www.w3.org/2000/svg" xmlns:xlink="http://www.w3.org/1999/xlink" version="1.1" viewBox="-10 0 1020 1000">
   <path fill="currentColor"
d="M111 0h-4.5t-3.5 1h-4q-11 3 -24 12q-2 1 -4.5 3.5t-4.5 3.5v0v0v0v0q-16 16 -28 34l-5 7l-4 7v0v0q-8 14 -17 37l-4 16q-12 46 -6 99q5 47 24 89q5 10 15 28l16 23h1v0q7 8 20 10q11 2 21 -7v0l1.5 -1.5l2.5 -2.5v0v-0.5t1 -0.5v0l11 -15l3 -3l2 -3l12 -14l3 -2l2 -3v0
v0q30 -33 74 -62l16 -10q10 -6 16 -9q0 -1 1 -1q11 -6 14 -17.5t-3 -22.5v0q-2 -6 -11 -11l-1 -1h-1l-3 -2v0v0v0q-4 -1 -20 -8q-1 0 -3 -2l-3 -1l-17 -11l-4 -4h-1v0v0q-34 -28 -40 -67l-1 -14q0 -10 1 -14v-1q3 -15 0 -25l-2 -9h-1q-4 -11 -14 -19l-4 -2q-2 -2 -4 -2v0v0
q-7 -3 -15 -3zM888 0q-8 0 -14 3v0v0q-2 0 -4 2l-4 2q-9 8 -15 19l-1 4q-1 2 -1 5q-3 10 0 25l1 15l-1 14q-6 38 -40 67h-1l-2 2q-2 2 -3 2q-5 4 -15 10v0h-1v1l-3 1q-2 2 -4 2q-12 6 -19 8l-3 2h-1l-2 1v0q-8 6 -10 11h-1q-5 11 -2 22.5t14 17.5q1 0 1 1q6 3 16 9l16 10
q40 27 74 62l2 3l3 2l12 14l17 22v0v0q1 3 4 4v0q10 9 21 7q13 -2 20 -10v0v0v0v0q4 -4 9 -11l8 -12q10 -18 14 -28q19 -42 25 -89q6 -53 -6 -99v0q-2 -6 -2 -8l-3 -8q-6 -20 -16 -37l-4 -7l-5 -7q-12 -18 -28 -34h-1q-2 -2 -3.5 -4t-4.5 -3q-16 -10 -24 -12h-4q-1 -1 -4 -1
h-5zM222 388l-1 2v0q-23 31 -30.5 72.5t0 82.5t30.5 72q17 23 39.5 36t47.5 13h1q39 0 68 -27q26 -23 41 -63q13 -36 13 -72v-1q0 -11 -1 -16l-7 -4zM778 388l-202 95q-2 2 -6 4q-1 5 -1 16v1q0 36 13 72q15 40 41 63q29 27 68 27v0v0v0q26 0 48 -13t39 -36q23 -31 31 -72.5
t0 -82.5t-31 -72h1zM799 762q-22 0 -37 15l-2 3q-20 20 -31 29q-14 13 -34 26q-47 31 -100.5 46t-109.5 12v1q-68 -3 -135 -33l-20 -10q-52 -30 -91 -72q-15 -16 -36.5 -17t-38 14t-17.5 36.5t14 38.5q53 58 119 93q13 7 26 13q84 39 174 42v1q73 3 143 -16.5t130 -59.5
q20 -12 45 -33.5t40 -38.5t15 -38.5t-15.5 -37.5t-38.5 -14z" />
</svg>
