<?xml version="1.0" standalone="no"?>
<!DOCTYPE svg PUBLIC "-//W3C//DTD SVG 1.1//EN" "http://www.w3.org/Graphics/SVG/1.1/DTD/svg11.dtd" >
<svg xmlns="http://www.w3.org/2000/svg" xmlns:xlink="http://www.w3.org/1999/xlink" version="1.1" viewBox="-10 0 1010 1000">
   <path fill="currentColor"
d="M495 105h-463q-13 0 -22.5 9.5t-9.5 23.5q1 75 40 146.5t100 114.5q66 47 138 48q62 1 119.5 -24.5t98.5 -70.5q42 45 99.5 70.5t119.5 24.5q72 -1 137 -48q61 -43 99 -114t39 -147q0 -14 -9.5 -23.5t-22.5 -9.5h-463zM814 615q-14 0 -26 6.5t-19 18.5l-1 3q-9 16 -24 34
q-20 24 -29 32q-41 38 -93.5 59t-109.5 21v0v0q-35 0 -64 -7l-10 -2q-28 -8 -51 -19q-20 -9 -40.5 -1.5t-30 27.5t-2 40.5t27.5 30.5q33 15 69 24q8 2 14 4q44 9 87 9v0v0q78 0 148.5 -28t126.5 -80q19 -18 40 -44q17 -22 32 -47l1 -1q11 -19 6 -40.5t-24 -32.5
q-15 -8 -28 -7z" />
</svg>
