<?xml version="1.0" standalone="no"?>
<!DOCTYPE svg PUBLIC "-//W3C//DTD SVG 1.1//EN" "http://www.w3.org/Graphics/SVG/1.1/DTD/svg11.dtd" >
<svg xmlns="http://www.w3.org/2000/svg" xmlns:xlink="http://www.w3.org/1999/xlink" version="1.1" viewBox="-10 0 890 1000">
   <path fill="currentColor"
d="M197 49q-30 0 -55.5 19.5t-40 52.5t-14.5 72t14.5 72t40 52.5t55.5 19.5t55 -19.5t39.5 -52.5t14.5 -72t-14.5 -72t-39.5 -52.5t-55 -19.5zM673 49q-30 0 -55 19.5t-39.5 52.5t-14.5 72t14.5 72t39.5 52.5t55 19.5t55.5 -19.5t40 -52.5t14.5 -72t-14.5 -72t-40 -52.5
t-55.5 -19.5zM817 529h-765q-22 0 -37 15.5t-15 38.5q1 95 70 180q62 77 161 125q97 47 191 49q70 1 147.5 -26t144.5 -76q69 -51 110 -113q44 -68 46 -140q0 -22 -15.5 -37.5t-37.5 -15.5zM117 635h634q-47 92 -136.5 146t-194.5 51q-96 -3 -178 -57t-125 -140z" />
</svg>
