<?xml version="1.0" standalone="no"?>
<!DOCTYPE svg PUBLIC "-//W3C//DTD SVG 1.1//EN" "http://www.w3.org/Graphics/SVG/1.1/DTD/svg11.dtd" >
<svg xmlns="http://www.w3.org/2000/svg" xmlns:xlink="http://www.w3.org/1999/xlink" version="1.1" viewBox="-10 0 1809 1000">
   <path fill="currentColor"
d="M1364 0q-44 0 -86 20q-8 4 -12 7q-18 10 -28 13q-8 2 -21 1q-19 -1 -31 0q-45 1 -89 29q-40 24 -65 64q-26 45 -25 89q1 19 15 32.5t34 13.5v1h619q20 0 34 -14.5t14 -33.5q4 -46 -24 -91q-22 -36 -60 -61q-41 -25 -82 -29q-32 -3 -62 6l-10 -8q-27 -19 -58 -29t-63 -10z
M669 47q-30 0 -55.5 19.5t-40.5 53t-15 72.5t15 72.5t40.5 53t55.5 19.5t55 -19.5t40 -53t15 -72.5t-15 -72.5t-40 -53t-55 -19.5zM1364 97q22 -1 44 8.5t39 28.5q11 14 29 17.5t33.5 -6.5t37.5 -7.5t40 14.5q11 6 24 21h-487q13 -14 24 -22q20 -12 42 -14q18 0 31.5 9
t31.5 6.5t30 -16.5q16 -19 37 -29t44 -10zM323 146h-269q-22 0 -38 15.5t-16 38t16 38.5t38 16h269q23 0 38.5 -16t15.5 -38.5t-15.5 -38t-38.5 -15.5zM1050 336q-17 0 -29.5 12.5t-12.5 29.5l-1 416v0q0 42 16 79t45 66v1q28 28 66 44t79 16h225q27 -2 39 -5q20 -4 41 -14
q40 -19 69.5 -53t42.5 -76h30v-1q26 0 50 -10t41.5 -28t27.5 -41t10 -49v-258q0 -26 -10 -49.5t-28 -41.5v-1q-18 -18 -41 -27.5t-50 -9.5h-610zM1641 434q16 0 28 12v0v0q12 12 12 28v250q0 16 -11 28t-29 12h-61q-15 0 -26 10.5t-13 25.5q-3 30 -20.5 54.5t-44.5 37.5
q-5 2 -22 7q-4 1 -10 2l-11 1h-206q-22 0 -42.5 -9t-35.5 -24h-1q-15 -16 -24 -36.5t-9 -42.5l1 -356h102v349q0 16 17 22.5t34.5 0t17.5 -22.5v-349h102v353q0 17 17 23.5t34.5 -0.5t17.5 -23v-353h183zM1561 494v208h32q15 0 26 -11t11 -26v-133q0 -16 -11 -27t-26 -11
h-32zM59 509q-10 0 -18 4q-21 8 -30.5 27.5t-1.5 40.5q34 94 100 170q64 74 151 121q30 16 69 31q91 33 186 33v0v0v0q86 0 167 -27q10 -3 31 -11t30 -13v0v0v0q20 -10 27.5 -30.5t-2 -40.5t-30 -27.5t-40.5 1.5l-25 11l-25 9q-64 21 -133 21v0v0v0q-78 0 -149 -27
q-33 -12 -55 -25q-70 -37 -122 -97t-80 -135q-6 -16 -19.5 -26t-30.5 -10z" />
</svg>
