<?xml version="1.0" standalone="no"?>
<!DOCTYPE svg PUBLIC "-//W3C//DTD SVG 1.1//EN" "http://www.w3.org/Graphics/SVG/1.1/DTD/svg11.dtd" >
<svg xmlns="http://www.w3.org/2000/svg" xmlns:xlink="http://www.w3.org/1999/xlink" version="1.1" viewBox="-10 0 794 1000">
   <path fill="currentColor"
d="M664 50q-30 0 -55 19.5t-40 52.5t-15 72t15 72.5t40 53t55 19.5t55 -19.5t40 -53t15 -72.5t-15 -72t-40 -52.5t-55 -19.5zM321 148h-267q-22 0 -38 15.5t-16 38t16 38.5t38 16h267q23 0 38.5 -16t15.5 -38.5t-15.5 -38t-38.5 -15.5zM59 509q-10 0 -19 3q-20 7 -29.5 27.5
t-1.5 40.5q34 94 98.5 168.5t150.5 120.5q30 16 69 31q91 33 184 33q87 0 166 -27q10 -3 31 -11t30 -12v-1q20 -9 27.5 -30t-2.5 -40.5t-30 -27t-40 1.5l-24 11q-14 5 -25 8q-68 22 -133 22q-73 0 -148 -27q-30 -11 -55 -25q-68 -36 -120.5 -96t-79.5 -135
q-6 -16 -19.5 -25.5t-29.5 -9.5z" />
</svg>
