<?xml version="1.0" standalone="no"?>
<!DOCTYPE svg PUBLIC "-//W3C//DTD SVG 1.1//EN" "http://www.w3.org/Graphics/SVG/1.1/DTD/svg11.dtd" >
<svg xmlns="http://www.w3.org/2000/svg" xmlns:xlink="http://www.w3.org/1999/xlink" version="1.1" viewBox="-10 0 1020 1000">
   <path fill="currentColor"
d="M489 9q-182 0 -322 30q-78 16 -122 42.5t-45 59.5v0v0v0q1 33 45 59.5t122 42.5v0q143 30 333 30t332 -30q79 -16 123 -42.5t44 -59.5h1h-1q0 -33 -44 -59.5t-123 -42.5v0q-72 -16 -162 -23q-88 -8 -181 -7zM500 98q95 0 175.5 5.5t127.5 15.5t47 22t-47 22t-127.5 15.5
t-176 5.5t-176 -5.5t-127.5 -15.5t-47 -22t47 -22t127.5 -15.5t176.5 -5.5zM166 457q-22 0 -38 15.5t-16 38t16 38.5t38 16h186q23 0 38.5 -16t15.5 -38.5t-15.5 -38t-38.5 -15.5h-186zM648 457q-22 0 -38 15.5t-16 38t16 38.5t38 16h186q23 0 38.5 -16t15.5 -38.5
t-15.5 -38t-38.5 -15.5h-186zM799 758q-23 2 -37 16l-1 1q0 1 -1 1q-16 18 -30.5 30.5t-34.5 25.5q-47 31 -101 46t-110 12v1q-68 -3 -134 -33l-20 -10q-52 -30 -91 -72q-15 -16 -37 -17t-38 14t-17 36.5t14 38.5q50 55 119 93q8 5 26 13q84 39 174 42v1q73 3 143 -16.5
t130 -59.5q27 -19 45 -34q25 -21 40 -38t15 -38.5t-15.5 -37t-38.5 -15.5z" />
</svg>
