<?xml version="1.0" standalone="no"?>
<!DOCTYPE svg PUBLIC "-//W3C//DTD SVG 1.1//EN" "http://www.w3.org/Graphics/SVG/1.1/DTD/svg11.dtd" >
<svg xmlns="http://www.w3.org/2000/svg" xmlns:xlink="http://www.w3.org/1999/xlink" version="1.1" viewBox="-10 0 1019 1000">
   <path fill="currentColor"
d="M261 50q-29 0 -54.5 19.5t-40 52.5t-14.5 72t14.5 72.5t39.5 53t55 19.5t55 -19.5t40 -53t15 -72.5t-15 -72t-40 -52.5t-55 -19.5zM738 50q-30 0 -55 19.5t-40 52.5t-15 72t15 72.5t40 53t55 19.5t55 -19.5t40 -53t15 -72.5t-15 -72t-40 -52.5t-55 -19.5zM946 649
q-22 0 -37 16l-12 12q-82 80 -186 123q-101 41 -209.5 42.5t-210.5 -37.5q-104 -40 -186 -118l-15 -15q-16 -16 -37.5 -15.5t-37 16.5t-15.5 38t16 38l6 6l11 11q98 92 221 139q120 47 248.5 45.5t247.5 -50.5q123 -50 220 -145l7 -7q4 -5 7 -7q15 -17 15 -39t-15.5 -37.5
t-37.5 -15.5z" />
</svg>
