<?xml version="1.0" standalone="no"?>
<!DOCTYPE svg PUBLIC "-//W3C//DTD SVG 1.1//EN" "http://www.w3.org/Graphics/SVG/1.1/DTD/svg11.dtd" >
<svg xmlns="http://www.w3.org/2000/svg" xmlns:xlink="http://www.w3.org/1999/xlink" version="1.1" viewBox="-10 0 872 1000">
   <path fill="currentColor"
d="M278 63q-10 0 -23 5l-128 62l-86 41q-1 5 -1 16v1q0 37 13 73q15 39 41 62q29 27 68 27v0v0v0q25 0 47.5 -13t39.5 -36q19 -26 27.5 -59.5t6.5 -68.5l18 -9q20 -9 27.5 -30t-2.5 -41q-7 -14 -20 -22t-28 -8zM490 63q-15 0 -28 8t-20 22q-10 20 -2.5 41t27.5 30l18 9
q-2 35 6.5 68.5t27.5 59.5q17 23 39.5 36t47.5 13h1q39 0 68 -27q25 -23 40 -62q13 -36 14 -73l-1 -17l-87 -41l-128 -62q-12 -5 -23 -5zM769 365q-12 0 -21 16q-25 42 -39 99q-17 67 -5 109q15 51 71.5 51t70.5 -51q13 -42 -6 -107q-18 -60 -49 -103q-9 -12 -22 -14z
M257 503q-83 0 -166 26l-30 11l-30 13l-1 1q-19 9 -26.5 29.5t2 40.5t30 27.5t39.5 -2.5v1q6 -3 24 -11l25 -9q65 -21 133 -21q78 0 148 27q27 10 55 24q69 37 121 96.5t79 135.5q8 20 27.5 29t40 1.5t30 -27t2.5 -39.5q-34 -94 -100 -169q-64 -74 -150 -120
q-30 -16 -69 -31q-90 -33 -184 -33z" />
</svg>
