<?xml version="1.0" standalone="no"?>
<!DOCTYPE svg PUBLIC "-//W3C//DTD SVG 1.1//EN" "http://www.w3.org/Graphics/SVG/1.1/DTD/svg11.dtd" >
<svg xmlns="http://www.w3.org/2000/svg" xmlns:xlink="http://www.w3.org/1999/xlink" version="1.1" viewBox="-10 0 1467 1000">
   <path fill="currentColor"
d="M744 0q-30 0 -55 19t-39.5 52t-14.5 72t14.5 72t39.5 52t54.5 19t54.5 -19t39.5 -52t14.5 -72t-14.5 -72t-39.5 -52t-54 -19zM142 80q-22 0 -37.5 16t-15.5 38t15.5 37.5t37.5 15.5h290q22 0 38 -15.5t16 -37.5t-16 -37.5t-38 -15.5zM1182 101q-26 0 -54 7
q-75 34 -94 118q-14 60 1 148h-131q-34 0 -62.5 16t-45 44.5t-16.5 62.5q0 61 30 98q-16 17 -23 38q-14 36 -7.5 76t30.5 68q-3 4 -11 16l-7 11q-14 28 -13 63.5t16.5 67t42 48.5t64.5 17h378q45 -1 83.5 -24t61 -61t22.5 -84v-287q0 -22 -8 -51q-7 -23 -20 -53
q7 17 -21 -47q-25 -58 -73 -174q-24 -58 -56 -86q-36 -32 -87 -32zM1185 216q10 0 18.5 7t14.5 19q5 8 10 22l8 19q10 24 32 90q20 64 32 91q38 85 38 104v255q0 30 -22.5 51t-53.5 23h-332q-24 0 -30 -24q-10 -30 4 -47q10 -13 26 -12.5t27.5 -11t11.5 -27.5t-11 -26.5
t-26.5 -10.5t-24.5 -11q-11 -12 -11.5 -33t11.5 -32q3 -5 11.5 -7.5t12.5 -2.5q15 0 26.5 -11t11.5 -27t-11 -27t-27 -11q-19 0 -27 -17q-7 -12 -7 -33q0 -9 4.5 -16.5t12.5 -12.5q-1 -1 97 -3q83 -1 113 -1q13 0 23.5 -8.5t13.5 -21.5t-4 -25q-15 -28 -21 -77q-7 -53 2 -92
q10 -46 41 -52q2 -1 6 -1zM52 480q-12 0 -20 4q-20 9 -28 30t1 41q49 110 141 188q89 76 203 109q46 13 90 17q48 5 91 2h5q23 -2 37 -19t12.5 -39t-18.5 -36t-39 -13h-3q-32 3 -74 -1q-32 -4 -72 -14q-91 -26 -163.5 -88t-112.5 -150q-7 -15 -20.5 -23.5t-29.5 -7.5z" />
</svg>
