<?xml version="1.0" standalone="no"?>
<!DOCTYPE svg PUBLIC "-//W3C//DTD SVG 1.1//EN" "http://www.w3.org/Graphics/SVG/1.1/DTD/svg11.dtd" >
<svg xmlns="http://www.w3.org/2000/svg" xmlns:xlink="http://www.w3.org/1999/xlink" version="1.1" viewBox="-11 0 1694 1000">
   <path fill="currentColor"
d="M1234 0q-13 0 -25 6t-19 17q-25 37 -29 75q-4 31 8 67q6 21 25 62q13 29 15 41q4 20 -10 31q-17 13 -20 35t10 39t35 20t39 -10q42 -31 54 -66q10 -30 0 -67q-6 -23 -27 -68q-16 -34 -19 -51q-6 -29 6.5 -48t8.5 -40t-22 -34q-13 -9 -30 -9zM213 121q-61 0 -115 28
t-88 77q-14 19 -9.5 41.5t23 35.5t41 9t35.5 -23q22 -31 56 -46t70.5 -11.5t66.5 25.5v0q6 4 11 9h1l1 2l11 11v1l1 1h1q15 17 38 18.5t40 -14t18 -38.5t-14 -39q-34 -41 -84 -64t-104 -23zM712 121q-60 0 -114 28t-88 77q-13 19 -9.5 41t22.5 35.5t41.5 9.5t35.5 -23
q22 -31 55.5 -46t70 -11.5t66.5 25.5v0q6 3 12 9l1 2l12 11v1l1 1q15 17 38 18.5t40 -14t18.5 -38.5t-14.5 -39q-34 -41 -84 -64t-104 -23zM918 467q-18 0 -31 12.5t-13 30.5l1 4l-1 275v0q0 43 16.5 81.5t45.5 67.5v0v0v0q29 29 67.5 45.5t80.5 16.5h231q27 -2 39 -5
q28 -7 42 -14q42 -20 71.5 -54.5t42.5 -78.5h31q27 0 51.5 -10.5t42.5 -28.5t28 -42t10 -50v-119q0 -27 -10.5 -51t-28.5 -42v0q-18 -18 -42 -28t-50 -10h-624zM1522 567q16 0 28 12h1q12 14 12 29v110q0 15 -12 29q-14 12 -29 12h-62q-16 0 -27.5 10.5t-12.5 25.5
q-3 31 -21 56t-46 38q-12 5 -22 8q-14 2 -21 2h-212v1q-23 -1 -43.5 -9.5t-35.5 -24.5h-1q-16 -16 -25 -37t-9 -44l1 -218h537zM1440 622v96h32q16 0 27.5 -11t11.5 -27v-20q0 -16 -11.5 -27t-27.5 -11h-32zM309 634q-22 0 -38.5 16t-16.5 38.5t16.5 39t38.5 16.5h297
q22 0 38 -16t16 -39t-16 -39t-38 -16h-297z" />
</svg>
