<?xml version="1.0" standalone="no"?>
<!DOCTYPE svg PUBLIC "-//W3C//DTD SVG 1.1//EN" "http://www.w3.org/Graphics/SVG/1.1/DTD/svg11.dtd" >
<svg xmlns="http://www.w3.org/2000/svg" xmlns:xlink="http://www.w3.org/1999/xlink" version="1.1" viewBox="-10 0 908 1000">
   <path fill="currentColor"
d="M53 157q-15 0 -30 10q-18 13 -22 34.5t9 40.5q34 47 86 74.5t110 27.5q53 0 101 -22.5t82 -62.5q15 -16 14 -38t-17.5 -37t-39 -14t-37.5 18l-1 1v1l-13 13q-3 3 -11 9v0q-29 21 -64.5 24t-68 -11.5t-53.5 -44.5q-8 -11 -20 -17t-25 -6zM538 157q-15 0 -30 10
q-18 13 -22 34.5t9 40.5q34 47 86.5 74.5t110.5 27.5q52 0 100 -22.5t83 -62.5q14 -17 12.5 -38.5t-17.5 -36.5t-38.5 -14t-36.5 18h-1l-1 1v1l-12 12v1l-12 9q-29 21 -64.5 24t-68 -11.5t-53.5 -44.5q-8 -11 -20 -17t-25 -6zM103 736q-22 0 -37.5 15.5t-15.5 37.5t15.5 38
t37.5 16h682q23 0 38.5 -16t15.5 -38t-15.5 -37.5t-38.5 -15.5h-682z" />
</svg>
