<?xml version="1.0" standalone="no"?>
<!DOCTYPE svg PUBLIC "-//W3C//DTD SVG 1.1//EN" "http://www.w3.org/Graphics/SVG/1.1/DTD/svg11.dtd" >
<svg xmlns="http://www.w3.org/2000/svg" xmlns:xlink="http://www.w3.org/1999/xlink" version="1.1" viewBox="-11 0 839 1000">
   <path fill="currentColor"
d="M171 50q-30 0 -55 19.5t-40 52.5t-15 72t15 72.5t40 53t55 19.5t55 -19.5t39.5 -53t14.5 -72.5t-14.5 -72t-40 -52.5t-54.5 -19.5zM647 50q-30 0 -55 19.5t-40 52.5t-15 72t15 72.5t40 53t55 19.5t55 -19.5t40 -53t15 -72.5t-15 -72t-40 -52.5t-55 -19.5zM53 497
q-14 0 -26.5 7t-19.5 20q-11 19 -5.5 41t25.5 33l709 379q19 11 41 5.5t33 -25t5.5 -41.5t-25.5 -33l-709 -379q-13 -7 -28 -7z" />
</svg>
