<?xml version="1.0" standalone="no"?>
<!DOCTYPE svg PUBLIC "-//W3C//DTD SVG 1.1//EN" "http://www.w3.org/Graphics/SVG/1.1/DTD/svg11.dtd" >
<svg xmlns="http://www.w3.org/2000/svg" xmlns:xlink="http://www.w3.org/1999/xlink" version="1.1" viewBox="-10 0 913 1000">
   <path fill="currentColor"
d="M206 108q-58 0 -110 27.5t-86 75.5q-13 18 -9 39.5t22 34.5t40 9.5t35 -22.5q21 -30 53.5 -44.5t68 -11t64.5 24.5v0q7 3 11 9h1l1 1q7 7 10 11l2 2q15 17 37.5 18t39 -13.5t17.5 -37t-14 -38.5q-34 -40 -82 -62.5t-101 -22.5zM692 108q-58 0 -110.5 27.5t-86.5 75.5
q-13 18 -9 39.5t22 34.5t40 9.5t35 -22.5q21 -30 53.5 -44.5t68 -11t64.5 24.5v0q6 3 12 9l1 1q4 3 10 11l2 2h1q14 17 36.5 18t38.5 -13.5t17.5 -36.5t-12.5 -39q-35 -40 -83 -62.5t-100 -22.5zM840 529h-765q-22 0 -37 15.5t-15 38.5q2 95 70 180q62 77 162 125
q97 47 190 49q70 1 148 -26t144 -76q70 -51 110 -113q44 -68 46 -140q0 -22 -15.5 -37.5t-37.5 -15.5zM140 635h634q-30 60 -81 105.5t-115.5 69.5t-133.5 22q-97 -3 -179 -57t-125 -140z" />
</svg>
