<?xml version="1.0" standalone="no"?>
<!DOCTYPE svg PUBLIC "-//W3C//DTD SVG 1.1//EN" "http://www.w3.org/Graphics/SVG/1.1/DTD/svg11.dtd" >
<svg xmlns="http://www.w3.org/2000/svg" xmlns:xlink="http://www.w3.org/1999/xlink" version="1.1" viewBox="-10 0 1020 1000">
   <path fill="currentColor"
d="M488 914v37q-116 -3 -215 -61t-158 -154l32 -19q17 27 41 55l36 -32q83 94 206 119l-10 48q37 7 68 7zM154 618l-46 16q12 33 27 62l-32 19q-54 -101 -54 -215t54 -215l32 19q-17 31 -27 62l46 16q-20 55 -20 117t20 119zM853 717l32 19q-59 96 -158 154t-215 61v-37
q32 0 68 -7l-10 -48q123 -25 206 -119l36 32q25 -28 41 -55zM768 408l-130 45q8 23 8 47t-8 47l130 45q-17 51 -55 94l-103 -90q-32 37 -82 47l27 135q-29 5 -55 5t-55 -5l27 -135q-50 -10 -82 -47l-103 90q-38 -43 -55 -94l130 -45q-8 -23 -8 -47t8 -47l-130 -45
q18 -52 55 -94l103 90q33 -38 82 -48l-27 -134q25 -6 55 -6t55 6l-27 134q49 10 82 48l103 -90q37 42 55 94zM488 49v37q-36 1 -68 7l10 48q-123 24 -206 118l-36 -31q-21 23 -41 54l-31 -18q59 -96 157 -154t215 -61zM952 500q0 114 -55 215l-32 -19q15 -29 27 -62l-46 -16
q20 -57 20 -119t-19 -117l45 -16q-10 -31 -27 -62l32 -19q55 101 55 215zM885 264l-32 18q-20 -31 -41 -54l-36 31q-83 -94 -206 -118l10 -48q-31 -6 -68 -7v-37q117 3 215 61t158 154zM975 500q0 -97 -37 -185t-101 -152t-152 -101t-185 -37t-185 37t-151 101t-102 152
t-37 185t37 185t102 151t151 102t185 37t185 -37t152 -102t101 -151t37 -185zM1000 500q0 102 -40 194t-106 160t-160 106t-194 40t-194 -40t-160 -106t-106 -160t-40 -194t40 -194t106 -160t160 -106t194 -40t194 40t160 106t106 160t40 194z" />
</svg>
