<?xml version="1.0" standalone="no"?>
<!DOCTYPE svg PUBLIC "-//W3C//DTD SVG 1.1//EN" "http://www.w3.org/Graphics/SVG/1.1/DTD/svg11.dtd" >
<svg xmlns="http://www.w3.org/2000/svg" xmlns:xlink="http://www.w3.org/1999/xlink" version="1.1" viewBox="-11 0 1021 1000">
   <path fill="currentColor"
d="M823 509l21 29q5 6 4 13t-6 11q-24 19 -71 55l-82 63q-35 27 -37 29q-22 18 -34 27t-33 23t-43 20t-41 7h-2q-20 0 -41 -7t-42 -20t-34 -23l-70 -55q-33 -26 -80 -62t-68 -53q-7 -4 -7 -11t3 -13l21 -29q4 -6 12 -7t14 3q52 41 170 132q3 2 25 20t33 26t32 18t32 9h2
q13 0 32 -9t32 -18t34 -26t24 -20q144 -110 174 -135q7 -4 14 -4t12 7zM929 911v-518q-51 -47 -89 -78q-51 -41 -217 -169l-24 -20q-22 -18 -34 -27t-31 -18t-33 -10h-2q-13 0 -32 10t-32 18t-34 27t-24 20q-120 92 -176 137l-72 58q-16 13 -46 41l-12 11v518q0 7 6 12t12 6
h822q7 0 12 -6t6 -12zM1000 393v518q0 37 -26 63t-63 26h-822q-36 0 -63 -26t-26 -63v-518q0 -31 23 -53q69 -63 195 -162t130 -101q20 -17 33 -27t35 -23t42 -20t41 -7h2q20 0 41 7t43 20t34 23l33 27q24 20 87 68t126 99t112 96q23 22 23 53z" />
</svg>
