<?xml version="1.0" standalone="no"?>
<!DOCTYPE svg PUBLIC "-//W3C//DTD SVG 1.1//EN" "http://www.w3.org/Graphics/SVG/1.1/DTD/svg11.dtd" >
<svg xmlns="http://www.w3.org/2000/svg" xmlns:xlink="http://www.w3.org/1999/xlink" version="1.1" viewBox="-10 0 1020 1000">
   <path fill="currentColor"
d="M500 455q-58 -109 -89 -155q-78 -113 -194 -177q-19 -11 -39 -20q-50 -23 -52 -18t19 21l21 17q35 24 63 52t53 65t39 64t40 73q5 9 7 14q24 46 47 85t54 86t65 84t73 69t83 50q85 37 86 33q0 -1 -28.5 -20.5t-44.5 -31.5q-43 -32 -100 -118t-103 -173zM306 758
q-42 -33 -74 -69t-54 -81t-40 -86t-32 -104t-29 -116t-34 -141t-43 -161q152 0 278 20t211 51t151 81t104 96t61 111t32 111t7 111t-6 97t-11 80t-7 59l180 183h-58l-157 -159q-12 1 -51 8t-68 10t-77 4t-89 -10t-94 -33t-100 -62z" />
</svg>
