<?xml version="1.0" standalone="no"?>
<!DOCTYPE svg PUBLIC "-//W3C//DTD SVG 1.1//EN" "http://www.w3.org/Graphics/SVG/1.1/DTD/svg11.dtd" >
<svg xmlns="http://www.w3.org/2000/svg" xmlns:xlink="http://www.w3.org/1999/xlink" version="1.1" viewBox="-11 0 586 1000">
   <path fill="currentColor"
d="M545 729l19 89q2 7 -1 13t-10 8h-3q-2 1 -6 2t-9 3t-12 3t-14 3t-16 2t-19 3t-21 2t-21 0q-131 0 -228 -73t-133 -196h-53q-7 0 -13 -5t-5 -13v-63q0 -7 5 -12t13 -6h37q-1 -31 0 -58h-37q-8 0 -13 -5t-5 -13v-64q0 -8 5 -13t13 -5h55q37 -117 135 -188t224 -72
q57 0 108 13q6 2 10.5 8.5t2.5 13.5l-24 89q-2 7 -8 11t-13 1l-2 -1q-3 0 -7 -1l-22 -4q-12 -2 -15 -2l-32 -2q-71 0 -126 36t-84 98h261q9 0 14.5 7t3.5 15l-13 63q-3 15 -18 15h-273q-1 20 0 58h257q8 0 13 7t4 15l-14 63q-1 6 -6 10t-11 4h-216q27 65 84 104t127 38
q10 0 20 -1l35 -4q7 -1 14 -3l10 -3l7 -1l3 -2q7 -2 14 1.5t9 11.5z" />
</svg>
