<?xml version="1.0" standalone="no"?>
<!DOCTYPE svg PUBLIC "-//W3C//DTD SVG 1.1//EN" "http://www.w3.org/Graphics/SVG/1.1/DTD/svg11.dtd" >
<svg xmlns="http://www.w3.org/2000/svg" xmlns:xlink="http://www.w3.org/1999/xlink" version="1.1" viewBox="-11 0 872 1000">
   <path fill="currentColor"
d="M1 877q3 -31 12 -66q11 -45 72 -351t71 -349q12 -52 24 -73t39 -29t87 -9h241q59 0 135 1t116.5 1t49.5 45q10 48 -23 92q-30 40 -81 40h-401l-50 233l352 3q44 0 54 45t-21 84q-27 33 -70 33h-360l-48 248h432q64 0 77 44t-17 87t-68 44h-553q-30 0 -47 -17t-22 -46
t-1 -60z" />
</svg>
