<?xml version="1.0" standalone="no"?>
<!DOCTYPE svg PUBLIC "-//W3C//DTD SVG 1.1//EN" "http://www.w3.org/Graphics/SVG/1.1/DTD/svg11.dtd" >
<svg xmlns="http://www.w3.org/2000/svg" xmlns:xlink="http://www.w3.org/1999/xlink" version="1.1" viewBox="-10 0 844 1000">
   <path fill="currentColor"
d="M0 499q0 -107 29 -202q28 -92 83.5 -159t134.5 -102q81 -36 178 -36q128 0 217 61q90 59 136 157q46 95 46 196q0 93 -47 120t-132 27h-423q0 85 30 148q29 65 76 96q50 33 106 33q41 0 71.5 -10t61.5 -32.5t56 -47.5t66 -69q15 -16 48 -16t53.5 21t20.5 58q0 32 -23 78
q-21 43 -70 85q-46 41 -116.5 68t-160.5 27q-209 0 -325 -135.5t-116 -365.5zM222 421h392q-7 -125 -60 -188q-51 -62 -136 -62q-82 0 -133.5 63t-62.5 187z" />
</svg>
