<?xml version="1.0" standalone="no"?>
<!DOCTYPE svg PUBLIC "-//W3C//DTD SVG 1.1//EN" "http://www.w3.org/Graphics/SVG/1.1/DTD/svg11.dtd" >
<svg xmlns="http://www.w3.org/2000/svg" xmlns:xlink="http://www.w3.org/1999/xlink" version="1.1" viewBox="-10 0 857 1000">
   <path fill="currentColor"
d="M0 309q0 -40 15 -58q9 -14 26 -21q18 -9 47 -9h94q15 0 26 -11t11 -26q0 -21 -1 -44v-59q0 -25 12 -44q15 -21 50 -31q11 -6 53 -6h19q59 2 97.5 17.5t45.5 61.5q26 -1 48 -1q53 0 89 5q97 12 129 24q42 13 52.5 67.5t18.5 209.5q5 89 5 147q0 44 -3 71q-16 172 -43 254
q-14 42 -28 69t-27 42t-37 23t-42 9t-59 1q-108 0 -145 -25t-38 -107q0 -45 10 -72t33 -37t46 -13q15 -1 40 -1h28q4 0 6 1t0 5t-2 8t-3 11t-2 13q0 9 2 18t1 12t-7 3h-30q-10 0 -10 2t-8 2t-8 4t-6 6t-4 9t-1 12q0 14 4 23t8 14t18 7t22 2h32q57 0 73 -13t16 -64
q0 -76 -18 -103t-57 -31q-88 -9 -119 -20q-53 -20 -53 -119q0 -2 -2 -2t-3 2q0 67 -18 120l-8 24q-11 25 -37 26h-6q-24 0 -54 -8q-127 -16 -198 -47q-24 -11 -37 -40q-17 -35 -35 -129t-24 -133q-4 -33 -4 -51zM6 190v-2l183 -180q0 -1 1 -1l-3 6q-11 20 -11 48l1 103
q0 10 -10 10h-93q-34 0 -59 11zM574 480q21 -3 46 -3q45 1 81 18q0 -85 -61 -87h-3q-30 0 -44.5 20.5t-18.5 51.5z" />
</svg>
