<?xml version="1.0" standalone="no"?>
<!DOCTYPE svg PUBLIC "-//W3C//DTD SVG 1.1//EN" "http://www.w3.org/Graphics/SVG/1.1/DTD/svg11.dtd" >
<svg xmlns="http://www.w3.org/2000/svg" xmlns:xlink="http://www.w3.org/1999/xlink" version="1.1" viewBox="-10 0 786 1000">
   <path fill="currentColor"
d="M750 214q0 4 5 73t9 144t-1 171t-19 171t-51 126t-91 51q-154 0 -194 -26q-26 -20 -18 -130q2 -40 37 -59t69 -19l34 2l-4 70q-12 2 -38 2q-20 0 -24 26q-4 38 40 42l86 -4q38 -4 28 -136q-2 -16 -18 -26t-34 -13l-49 -8q-31 -5 -47 -9q-28 -8 -46 -28t-27 -37t-11 -17
t-8 58t-30 58q-44 0 -139 -15t-115 -35q-34 -34 -62 -149t-28 -150t58 -31h116q78 0 78 -72l-1 -52q-1 -40 -1 -60q0 -82 40 -82q90 0 120 14q18 8 29 26t13 34l4 14l202 12q10 0 25 3t39 19t24 42zM654 516q6 -6 -2 -32t-29 -52t-49 -26t-45 23t-21 46t0 29q8 6 15 5t26 -5
t32 -4t30 6l28 10q11 4 15 0zM172 208q0 22 -28 22h-144l176 -172q-4 138 -4 150z" />
</svg>
