<?xml version="1.0" standalone="no"?>
<!DOCTYPE svg PUBLIC "-//W3C//DTD SVG 1.1//EN" "http://www.w3.org/Graphics/SVG/1.1/DTD/svg11.dtd" >
<svg xmlns="http://www.w3.org/2000/svg" xmlns:xlink="http://www.w3.org/1999/xlink" version="1.1" viewBox="-11 0 1022 1000">
   <path fill="currentColor"
d="M1000 661v107q0 7 -5 12t-13 6h-768v107q0 7 -5 12t-13 6q-6 0 -13 -6l-178 -178q-5 -6 -5 -13.5t5 -12.5l179 -178q5 -5 12.5 -5t12.5 5t5 13v107h768q7 0 13 5t5 13zM1000 357q0 8 -5 13l-179 178q-5 6 -12.5 6t-12.5 -6t-5 -12v-107h-768q-7 0 -13 -6t-5 -12v-107
q0 -8 5 -13t13 -5h768v-107q0 -8 5 -13t12 -5t14 5l178 178q5 5 5 13z" />
</svg>
