<?xml version="1.0" standalone="no"?>
<!DOCTYPE svg PUBLIC "-//W3C//DTD SVG 1.1//EN" "http://www.w3.org/Graphics/SVG/1.1/DTD/svg11.dtd" >
<svg xmlns="http://www.w3.org/2000/svg" xmlns:xlink="http://www.w3.org/1999/xlink" version="1.1" viewBox="-11 0 1022 1000">
   <path fill="currentColor"
d="M500 36q-94 0 -180 36t-148 100t-99 148t-37 180t37 180t99 148t148 100t180 36t180 -36t148 -100t100 -148t36 -180t-36 -180t-100 -148t-148 -100t-180 -36zM500 0q102 0 194 40t160 106t106 160t40 194t-40 194t-106 160t-160 106t-194 40t-194 -40t-160 -106
t-106 -160t-40 -194t40 -194t106 -160t160 -106t194 -40zM277 464q9 0 9 9v268q0 9 -9 9h-18q-9 0 -9 -9v-268q0 -9 9 -9h18zM500 500q30 0 51 21t20 50q0 20 -9 36t-26 26v63q0 8 -5 13t-13 5h-36q-8 0 -13 -5t-5 -13v-63q-16 -10 -26 -26t-9 -36q0 -29 21 -50t50 -21z
M500 71q117 0 215 58t156 156t58 215t-58 215t-156 156t-215 58t-215 -58t-156 -156t-58 -215t58 -215t156 -156t215 -58zM304 339v54q0 8 5 13t12 5h36q8 0 13 -5t5 -13v-54q0 -52 37 -88t88 -37t88 37t37 88v54q0 8 5 13t13 5h36q7 0 12 -5t5 -13v-54q0 -81 -57 -139
t-139 -57t-139 57t-57 139zM786 750v-286q0 -14 -11 -25t-25 -10h-500q-14 0 -25 10t-11 25v286q0 14 11 25t25 11h500q15 0 25 -11t11 -25z" />
</svg>
