<?xml version="1.0" standalone="no"?>
<!DOCTYPE svg PUBLIC "-//W3C//DTD SVG 1.1//EN" "http://www.w3.org/Graphics/SVG/1.1/DTD/svg11.dtd" >
<svg xmlns="http://www.w3.org/2000/svg" xmlns:xlink="http://www.w3.org/1999/xlink" version="1.1" viewBox="-10 0 1020 1000">
   <path fill="currentColor"
d="M0 524q6 -49 64 -110q79 -80 176 -128q129 -61 260 -61q29 0 59 2l74 -129q10 -16 23 -18q4 0 8 2l51 32q17 7 2 33l-57 101l-47 79l-41 72l-144 250l-41 72l-47 80l-57 100q-15 25 -31 15l-53 -31q-15 -8 0 -33l49 -86l-8 -4q-103 -53 -176 -129q-64 -72 -64 -109z
M264 524q0 74 47 133l48 -84q-9 -24 -9 -49q0 -51 34 -91t85 -50l49 -84h-18q-98 0 -167 66t-69 159zM441 819l41 -71h18q98 0 167 -65t69 -159q0 -74 -47 -133l63 -109q2 2 4 3t4 1q103 52 176 128q64 73 64 110q-6 49 -64 109q-79 80 -176 129q-129 61 -260 61
q-25 0 -59 -4zM531 664l110 -189q9 25 9 49q0 51 -34 90t-85 50z" />
</svg>
