<?xml version="1.0" standalone="no"?>
<!DOCTYPE svg PUBLIC "-//W3C//DTD SVG 1.1//EN" "http://www.w3.org/Graphics/SVG/1.1/DTD/svg11.dtd" >
<svg xmlns="http://www.w3.org/2000/svg" xmlns:xlink="http://www.w3.org/1999/xlink" version="1.1" viewBox="-10 0 958 1000">
   <path fill="currentColor"
d="M469 291q-98 0 -171 53q-78 55 -165 156q85 99 165 155q73 52 171 52t171 -52q80 -56 165 -155q-87 -101 -165 -156q-74 -53 -171 -53zM469 187q132 0 231 72q60 42 119 103t89 99l30 39l-32 43q-20 27 -83 91t-123 107q-99 71 -232 71t-232 -71q-60 -42 -119 -103
t-88 -99l-29 -39q11 -16 32 -43t82 -91t122 -107q99 -72 233 -72zM469 447q21 0 37 16t15 37t-15 36t-37 15t-37 -15t-16 -36t16 -37t37 -16zM469 656q-65 0 -111 -45t-45 -111t45 -111t111 -45t110 45t46 111t-46 111t-110 45zM469 395q-43 0 -73 31t-30.5 73.5t29.5 73.5
t74 31t74 -31t30 -74t-31 -73t-73 -31z" />
</svg>
