<?xml version="1.0" standalone="no"?>
<!DOCTYPE svg PUBLIC "-//W3C//DTD SVG 1.1//EN" "http://www.w3.org/Graphics/SVG/1.1/DTD/svg11.dtd" >
<svg xmlns="http://www.w3.org/2000/svg" xmlns:xlink="http://www.w3.org/1999/xlink" version="1.1" viewBox="-10 0 938 1000">
   <path fill="currentColor"
d="M465 165q68 0 140 34t124 82t95 97t64 83l23 34l-24 37q-15 23 -63 81t-97 103t-121 82t-141 36t-140 -34t-124 -85t-96 -100t-64 -86l-23 -34q8 -14 23 -36t63 -79t98 -101t122 -79t141 -35zM465 723q92 0 158 -65t65 -158t-65 -158t-158 -66t-158 66t-66 158t66 158
t158 65zM353 500q0 -112 112 -112t111 112t-111 111t-112 -111z" />
</svg>
