<?xml version="1.0" standalone="no"?>
<!DOCTYPE svg PUBLIC "-//W3C//DTD SVG 1.1//EN" "http://www.w3.org/Graphics/SVG/1.1/DTD/svg11.dtd" >
<svg xmlns="http://www.w3.org/2000/svg" xmlns:xlink="http://www.w3.org/1999/xlink" version="1.1" viewBox="-10 0 995 1000">
   <path fill="currentColor"
d="M488 155q52 0 104 15q48 13 95 38q42 23 83 55q36 27 71 62q29 29 57 62q22 27 42 55q14 20 26 38l9 15l-9 15q-12 18 -26 38q-20 28 -42 54q-28 33 -57 62q-35 35 -71 63q-41 32 -83 54q-47 25 -95 38q-52 15 -104 15t-105 -15q-47 -13 -94 -38q-42 -22 -83 -54
q-36 -28 -71 -63q-30 -29 -57 -62q-23 -26 -43 -54q-14 -20 -26 -38l-9 -15l9 -15q12 -18 26 -38q20 -28 42 -55q28 -33 58 -62q34 -35 70 -62q41 -32 84 -55q47 -25 94 -38q53 -15 105 -15zM488 734q64 0 119 -32.5t87 -87.5t32 -119t-32 -119t-87 -87.5t-119 -32.5
t-119 32.5t-87.5 87.5t-32.5 119t32 119t87 87.5t120 32.5zM595 495q0 29 -15 53.5t-39.5 38.5t-53 14t-53 -14t-39 -38.5t-14.5 -53t14.5 -53t39 -39.5t53 -15t53 15t39.5 39.5t15 52.5z" />
</svg>
