<?xml version="1.0" standalone="no"?>
<!DOCTYPE svg PUBLIC "-//W3C//DTD SVG 1.1//EN" "http://www.w3.org/Graphics/SVG/1.1/DTD/svg11.dtd" >
<svg xmlns="http://www.w3.org/2000/svg" xmlns:xlink="http://www.w3.org/1999/xlink" version="1.1" viewBox="-10 0 1020 1000">
   <path fill="currentColor"
d="M310 745l43 -79q-48 -35 -76 -88t-27 -114q0 -67 34 -125q-128 65 -213 197q94 144 239 209zM527 321q0 -11 -8 -19t-19 -7q-70 0 -120 50t-50 119q0 11 8 19t19 8t19 -8t8 -19q0 -48 34 -82t82 -34q11 0 19 -8t8 -19zM729 215v5q-59 105 -176 316t-176 316l-28 50
q-5 9 -15 9q-7 0 -75 -39q-9 -6 -9 -16q0 -7 25 -49q-80 -36 -147 -96t-117 -137q-11 -17 -11 -38t11 -39q86 -131 212 -207t277 -76q50 0 100 10l31 -54q5 -9 15 -9q3 0 10 3t18 9l36 20q11 6 10 7q9 5 9 15zM750 464q0 78 -44 142t-117 91l157 -280q4 25 4 47zM1000 536
q0 19 -11 38q-22 36 -61 81q-84 96 -194 149t-234 53l41 -74q119 -10 219 -76t169 -171q-65 -100 -158 -164l35 -63q53 36 102 85t81 103q11 19 11 39z" />
</svg>
