<?xml version="1.0" standalone="no"?>
<!DOCTYPE svg PUBLIC "-//W3C//DTD SVG 1.1//EN" "http://www.w3.org/Graphics/SVG/1.1/DTD/svg11.dtd" >
<svg xmlns="http://www.w3.org/2000/svg" xmlns:xlink="http://www.w3.org/1999/xlink" version="1.1" viewBox="-10 0 1020 1000">
   <path fill="currentColor"
d="M948 52q52 53 52 127t-52 126l-126 124l58 58q6 6 6 13t-6 13l-117 117q-6 6 -13 6t-13 -6l-58 -59l-337 337q-21 21 -50 21h-113l-143 71l-36 -36l71 -143v-113q0 -29 21 -50l337 -337l-59 -58q-6 -6 -6 -13t6 -13l117 -117q6 -6 13 -6t13 6l58 58l124 -126
q52 -52 126 -52t127 52zM286 821l321 -321l-107 -107l-321 321v107h107z" />
</svg>
