<?xml version="1.0" standalone="no"?>
<!DOCTYPE svg PUBLIC "-//W3C//DTD SVG 1.1//EN" "http://www.w3.org/Graphics/SVG/1.1/DTD/svg11.dtd" >
<svg xmlns="http://www.w3.org/2000/svg" xmlns:xlink="http://www.w3.org/1999/xlink" version="1.1" viewBox="-10 0 877 1000">
   <path fill="currentColor"
d="M810 71q19 0 33 14t14 34v762q0 20 -14 34t-33 14h-218v-333h111l16 -129h-127v-83q0 -31 13 -46t51 -16l68 -1v-115q-35 -5 -100 -5q-75 0 -121 44t-45 127v95h-112v129h112v333h-411q-19 0 -33 -14t-14 -34v-762q0 -20 14 -34t33 -14h763z" />
</svg>
