<?xml version="1.0" standalone="no"?>
<!DOCTYPE svg PUBLIC "-//W3C//DTD SVG 1.1//EN" "http://www.w3.org/Graphics/SVG/1.1/DTD/svg11.dtd" >
<svg xmlns="http://www.w3.org/2000/svg" xmlns:xlink="http://www.w3.org/1999/xlink" version="1.1" viewBox="-10 0 1010 1000">
   <path fill="currentColor"
d="M276 389q2 -20 15 -36t32 -23q30 -11 60 0t41.5 39t-0.5 57t-41 41q-14 6 -31 6t-30 -6q-28 -12 -41 -40q-7 -19 -5 -38zM318 399q0 13 10 23t24 10t25 -10t10 -23t-10 -24t-25 -9t-24 9t-10 24zM486 676v-346h238v63h-170v80h145v62h-145v141h-68z" />
</svg>
