<?xml version="1.0" standalone="no"?>
<!DOCTYPE svg PUBLIC "-//W3C//DTD SVG 1.1//EN" "http://www.w3.org/Graphics/SVG/1.1/DTD/svg11.dtd" >
<svg xmlns="http://www.w3.org/2000/svg" xmlns:xlink="http://www.w3.org/1999/xlink" version="1.1" viewBox="-10 0 970 1000">
   <path fill="currentColor"
d="M350 175q-76 0 -144 24q-71 25 -112 69q-44 47 -44 107v100h850v-100q0 -60 -44 -107q-41 -44 -112 -69q-68 -24 -144 -24h-250zM375 225q11 0 18 7t7 17.5t-7 18t-17.5 7.5t-18 -7.5t-7.5 -18t7.5 -17.5t17.5 -7zM575 225q11 0 18 7t7 17.5t-7 18t-17.5 7.5t-18 -7.5
t-7.5 -18t7.5 -17.5t17.5 -7zM275 325q11 0 18 7t7 17.5t-7 18t-17.5 7.5t-18 -7.5t-7.5 -18t7.5 -17.5t17.5 -7zM475 325q11 0 18 7t7 17.5t-7 18t-17.5 7.5t-18 -7.5t-7.5 -18t7.5 -17.5t17.5 -7zM675 325q11 0 18 7t7 17.5t-7 18t-17.5 7.5t-18 -7.5t-7.5 -18t7.5 -17.5
t17.5 -7zM50 525q-19 0 -34.5 15.5t-15.5 34.5t15.5 34.5t34.5 15.5h850q19 0 34.5 -15.5t15.5 -34.5t-15.5 -34.5t-34.5 -15.5h-850zM50 675v50q0 24 14.5 47.5t38 38t47.5 14.5h650q24 0 47.5 -14.5t38 -38t14.5 -47.5v-50h-850z" />
</svg>
