<?xml version="1.0" standalone="no"?>
<!DOCTYPE svg PUBLIC "-//W3C//DTD SVG 1.1//EN" "http://www.w3.org/Graphics/SVG/1.1/DTD/svg11.dtd" >
<svg xmlns="http://www.w3.org/2000/svg" xmlns:xlink="http://www.w3.org/1999/xlink" version="1.1" viewBox="-10 0 958 1000">
   <path fill="currentColor"
d="M573 291v418l216 -210zM563 172q36 0 65 26l310 301l-310 302q-28 27 -66 27t-66 -27t-27 -67v-468q0 -39 27 -67t67 -27zM104 291v418l216 -210zM94 172q36 0 65 26l310 301q-186 182 -310 302q-28 27 -66 27t-65 -27t-28 -67v-468q0 -39 28 -67t66 -27z" />
</svg>
