<?xml version="1.0" standalone="no"?>
<!DOCTYPE svg PUBLIC "-//W3C//DTD SVG 1.1//EN" "http://www.w3.org/Graphics/SVG/1.1/DTD/svg11.dtd" >
<svg xmlns="http://www.w3.org/2000/svg" xmlns:xlink="http://www.w3.org/1999/xlink" version="1.1" viewBox="-11 0 1022 1000">
   <path fill="currentColor"
d="M161 214q37 0 63 26t26 64v607q0 37 -26 63t-63 26h-72q-36 0 -63 -26t-26 -63v-607q0 -37 26 -64t63 -26h72zM929 305q32 19 52 52t19 72v428q0 59 -42 101t-101 42h-482q-37 0 -63 -26t-26 -63v-857q0 -23 15 -38t38 -16h375q23 0 49 11t43 27l85 85q15 15 26 42t12 49
v91zM518 857v-71q0 -8 -5 -13t-13 -5h-71q-8 0 -13 5t-5 13v71q0 8 5 13t13 5h71q8 0 13 -5t5 -13zM518 714v-71q0 -8 -5 -13t-13 -5h-71q-8 0 -13 5t-5 13v71q0 8 5 13t13 5h71q8 0 13 -5t5 -13zM518 571v-71q0 -8 -5 -13t-13 -5h-71q-8 0 -13 5t-5 13v71q0 8 5 13t13 5h71
q8 0 13 -5t5 -13zM661 857v-71q0 -8 -5 -13t-13 -5h-72q-7 0 -12 5t-5 13v71q0 8 5 13t12 5h72q8 0 13 -5t5 -13zM661 714v-71q0 -8 -5 -13t-13 -5h-72q-7 0 -12 5t-5 13v71q0 8 5 13t12 5h72q8 0 13 -5t5 -13zM661 571v-71q0 -8 -5 -13t-13 -5h-72q-7 0 -12 5t-5 13v71
q0 8 5 13t12 5h72q8 0 13 -5t5 -13zM804 857v-71q0 -8 -5 -13t-13 -5h-72q-7 0 -12 5t-6 13v71q0 8 6 13t12 5h72q8 0 13 -5t5 -13zM804 714v-71q0 -8 -5 -13t-13 -5h-72q-7 0 -12 5t-6 13v71q0 8 6 13t12 5h72q8 0 13 -5t5 -13zM804 571v-71q0 -8 -5 -13t-13 -5h-72
q-7 0 -12 5t-6 13v71q0 8 6 13t12 5h72q8 0 13 -5t5 -13zM857 357v-143h-89q-22 0 -38 -15t-16 -38v-90h-357v286h500z" />
</svg>
