<?xml version="1.0" standalone="no"?>
<!DOCTYPE svg PUBLIC "-//W3C//DTD SVG 1.1//EN" "http://www.w3.org/Graphics/SVG/1.1/DTD/svg11.dtd" >
<svg xmlns="http://www.w3.org/2000/svg" xmlns:xlink="http://www.w3.org/1999/xlink" version="1.1" viewBox="-10 0 905 1000">
   <path fill="currentColor"
d="M453 -72q188 35 310 182t122 338q0 180 -109 322t-281 188v64q0 21 -16 36t-36 15t-37 -15t-16 -36v-64q-172 -46 -281 -188t-109 -322q0 -191 123 -338t311 -182l9 -1zM495 849q125 -43 204 -150t82 -240l-163 164q-8 8 -19 8q-16 0 -24 -15t5 -29l196 -196
q-11 -77 -45 -142l-113 114q-8 8 -19 8q-16 0 -24 -17t5 -28l123 -123q-97 -136 -260 -170q-164 34 -260 170l122 123q13 12 5 28t-24 17q-11 0 -18 -8l-114 -114q-34 65 -45 142l196 196q13 14 5 29t-24 15q-11 0 -18 -8l-163 -164q4 134 82 240t203 150v-608q0 -22 16 -37
t37 -16t36 16t16 37v608z" />
</svg>
