<?xml version="1.0" standalone="no"?>
<!DOCTYPE svg PUBLIC "-//W3C//DTD SVG 1.1//EN" "http://www.w3.org/Graphics/SVG/1.1/DTD/svg11.dtd" >
<svg xmlns="http://www.w3.org/2000/svg" xmlns:xlink="http://www.w3.org/1999/xlink" version="1.1" viewBox="-10 0 718 1000">
   <path fill="currentColor"
d="M60 988q-6 20 -26 8q-18 -8 -16 -34q4 -100 50 -226q-100 -154 -52 -316q10 32 32 78t44 80t31 30t1 -83t-11 -166t25 -157q22 -44 80 -94t104 -70q-24 46 -33 94t-4 78t21 32q12 0 84 -120t106 -122q46 -4 114 29t82 65q12 24 0 79t-40 83q-44 44 -146 62t-114 24
q-16 10 12 34q54 48 176 20q-56 80 -136 114t-132 38t-54 10q-4 24 49 54t101 14q-30 56 -63 84t-54 35t-76 11t-85 8z" />
</svg>
