<?xml version="1.0" standalone="no"?>
<!DOCTYPE svg PUBLIC "-//W3C//DTD SVG 1.1//EN" "http://www.w3.org/Graphics/SVG/1.1/DTD/svg11.dtd" >
<svg xmlns="http://www.w3.org/2000/svg" xmlns:xlink="http://www.w3.org/1999/xlink" version="1.1" viewBox="-10 0 877 1000">
   <path fill="currentColor"
d="M819 212q16 16 27 42t11 50v642q0 23 -15 38t-38 16h-750q-23 0 -38 -16t-16 -38v-892q0 -23 16 -38t38 -16h500q22 0 49 11t42 27zM571 76v210h210q-5 -17 -12 -23l-175 -175q-6 -7 -23 -12zM786 929v-572h-232q-23 0 -38 -16t-16 -37v-233h-429v858h715zM346 474
q11 5 11 17v304q0 12 -11 16q-4 1 -7 1q-6 0 -12 -5l-93 -93h-73q-8 0 -13 -5t-5 -13v-107q0 -8 5 -13t13 -5h73l93 -93q8 -8 19 -4zM579 859q17 0 28 -14q72 -88 72 -202t-72 -203q-9 -11 -24 -13t-26.5 7.5t-13.5 24.5t8 26q56 69 56 158t-56 157q-9 12 -8 27t13 23
q10 9 23 9zM461 776q15 0 26 -11q49 -52 49 -122t-49 -122q-10 -11 -25 -12t-26 10t-11 25t10 26q29 32 29 73t-29 73q-10 11 -10 26t11.5 24.5t24.5 9.5z" />
</svg>
