<?xml version="1.0" standalone="no"?>
<!DOCTYPE svg PUBLIC "-//W3C//DTD SVG 1.1//EN" "http://www.w3.org/Graphics/SVG/1.1/DTD/svg11.dtd" >
<svg xmlns="http://www.w3.org/2000/svg" xmlns:xlink="http://www.w3.org/1999/xlink" version="1.1" viewBox="-10 0 877 1000">
   <path fill="currentColor"
d="M357 214v-71h-71v71h71zM429 286v-72h-72v72h72zM357 357v-71h-71v71h71zM429 429v-72h-72v72h72zM819 212q16 16 27 42t11 50v642q0 23 -15 38t-38 16h-750q-23 0 -38 -16t-16 -38v-892q0 -23 16 -38t38 -16h500q22 0 49 11t42 27zM571 76v210h210q-5 -17 -12 -23
l-175 -175q-6 -7 -23 -12zM786 929v-572h-232q-23 0 -38 -16t-16 -37v-233h-71v72h-72v-72h-286v858h715zM436 526l60 195q4 15 4 29q0 46 -40 77t-103 30t-102 -30t-41 -77q0 -14 5 -29q12 -35 67 -221v-71h71v71h44q13 0 22 7t13 19zM357 786q30 0 51 -11t21 -25t-21 -25
t-51 -11t-50 11t-21 25t21 25t50 11z" />
</svg>
