<?xml version="1.0" standalone="no"?>
<!DOCTYPE svg PUBLIC "-//W3C//DTD SVG 1.1//EN" "http://www.w3.org/Graphics/SVG/1.1/DTD/svg11.dtd" >
<svg xmlns="http://www.w3.org/2000/svg" xmlns:xlink="http://www.w3.org/1999/xlink" version="1.1" viewBox="-10 0 877 1000">
   <path fill="currentColor"
d="M819 212q16 16 27 42t11 50v642q0 23 -15 38t-38 16h-750q-23 0 -38 -16t-16 -38v-892q0 -23 16 -38t38 -16h500q22 0 49 11t42 27zM571 76v210h210q-5 -17 -12 -23l-175 -175q-6 -7 -23 -12zM786 929v-572h-232q-23 0 -38 -16t-16 -37v-233h-429v858h715zM130 429v59h39
l92 369h88l72 -271q4 -11 5 -25q2 -9 2 -14h2l1 14q1 1 2 11t3 14l72 271h89l91 -369h39v-59h-167v59h50l-55 245q-3 11 -4 25l-1 12h-3v-4q0 -2 -1 -4t-1 -4t-1 -11t-3 -14l-81 -304h-63l-81 304l-2 13q-1 8 -2 12l-2 12h-2l-2 -12q-1 -14 -3 -25l-56 -245h50v-59h-167z
" />
</svg>
