<?xml version="1.0" standalone="no"?>
<!DOCTYPE svg PUBLIC "-//W3C//DTD SVG 1.1//EN" "http://www.w3.org/Graphics/SVG/1.1/DTD/svg11.dtd" >
<svg xmlns="http://www.w3.org/2000/svg" xmlns:xlink="http://www.w3.org/1999/xlink" version="1.1" viewBox="-10 0 877 1000">
   <path fill="currentColor"
d="M819 212q16 16 27 42t11 50v642q0 23 -15 38t-38 16h-750q-23 0 -38 -16t-16 -38v-892q0 -23 16 -38t38 -16h500q22 0 49 11t42 27zM571 76v210h210q-5 -17 -12 -23l-175 -175q-6 -7 -23 -12zM786 929v-572h-232q-23 0 -38 -16t-16 -37v-233h-429v858h715zM232 798v59
h183v-59h-52v-93h76q43 0 66 -9q37 -12 60 -48t22.5 -81.5t-21.5 -78.5t-56 -49q-27 -10 -72 -10h-206v59h52v310h-52zM429 642h-66v-150h67q29 0 46 10q31 19 31 64q0 50 -34 67q-18 9 -44 9z" />
</svg>
