<?xml version="1.0" standalone="no"?>
<!DOCTYPE svg PUBLIC "-//W3C//DTD SVG 1.1//EN" "http://www.w3.org/Graphics/SVG/1.1/DTD/svg11.dtd" >
<svg xmlns="http://www.w3.org/2000/svg" xmlns:xlink="http://www.w3.org/1999/xlink" version="1.1" viewBox="-10 0 877 1000">
   <path fill="currentColor"
d="M819 212q16 16 27 42t11 50v642q0 23 -15 38t-38 16h-750q-23 0 -38 -16t-16 -38v-892q0 -23 16 -38t38 -16h500q22 0 49 11t42 27zM571 76v210h210q-5 -17 -12 -23l-175 -175q-6 -7 -23 -12zM786 929v-572h-232q-23 0 -38 -16t-16 -37v-233h-429v858h715zM239 798v59
h157v-59h-42l58 -90q3 -4 5 -9t5 -8t2 -2h1q0 2 3 6l2 4q1 2 3 4t4 5l60 90h-43v59h163v-59h-38l-107 -152l108 -158h38v-59h-156v59h41l-57 89q-2 4 -6 9t-5 8l-1 1h-1q0 -2 -3 -5q-3 -6 -9 -13l-59 -89h42v-59h-162v59h38l106 152l-109 158h-38z" />
</svg>
