<?xml version="1.0" standalone="no"?>
<!DOCTYPE svg PUBLIC "-//W3C//DTD SVG 1.1//EN" "http://www.w3.org/Graphics/SVG/1.1/DTD/svg11.dtd" >
<svg xmlns="http://www.w3.org/2000/svg" xmlns:xlink="http://www.w3.org/1999/xlink" version="1.1" viewBox="-10 0 877 1000">
   <path fill="currentColor"
d="M819 212q16 16 27 42t11 50v642q0 23 -15 38t-38 16h-750q-23 0 -38 -16t-16 -38v-892q0 -23 16 -38t38 -16h500q22 0 49 11t42 27zM571 76v210h210q-5 -17 -12 -23l-175 -175q-6 -7 -23 -12zM786 929v-572h-232q-23 0 -38 -16t-16 -37v-233h-429v858h715zM429 429
q29 0 50 21t21 50v214q0 29 -21 50t-50 22h-215q-29 0 -50 -22t-21 -50v-214q0 -29 21 -50t50 -21h215zM703 430q11 4 11 16v322q0 12 -11 17q-4 1 -7 1q-7 0 -12 -5l-148 -149v-50l148 -148q5 -5 12 -5q3 0 7 1z" />
</svg>
