<?xml version="1.0" standalone="no"?>
<!DOCTYPE svg PUBLIC "-//W3C//DTD SVG 1.1//EN" "http://www.w3.org/Graphics/SVG/1.1/DTD/svg11.dtd" >
<svg xmlns="http://www.w3.org/2000/svg" xmlns:xlink="http://www.w3.org/1999/xlink" version="1.1" viewBox="-10 0 877 1000">
   <path fill="currentColor"
d="M819 212q16 16 27 42t11 50v642q0 23 -15 38t-38 16h-750q-23 0 -38 -16t-16 -38v-892q0 -23 16 -38t38 -16h500q22 0 49 11t42 27zM571 76v210h210q-5 -17 -12 -23l-175 -175q-6 -7 -23 -12zM786 929v-572h-232q-23 0 -38 -16t-16 -37v-233h-429v858h715zM268 429
q4 -7 12 -7t13 3l28 21q7 5 7 12t-3 13l-102 136l102 136q4 6 3 13t-7 12l-28 21q-6 4 -13 4t-12 -7l-126 -168q-8 -11 0 -22zM715 596q8 11 0 22l-126 168q-4 6 -11 7t-14 -4l-28 -21q-6 -5 -7 -12t3 -13l102 -136l-102 -136q-4 -6 -3 -13t7 -12l28 -21q6 -4 14 -3t11 7z
M369 854q-7 -1 -11 -8t-3 -13l77 -464q1 -7 7 -11t14 -3l35 5q7 2 11 8t3 13l-77 464q-1 7 -7 11t-13 3z" />
</svg>
