<?xml version="1.0" standalone="no"?>
<!DOCTYPE svg PUBLIC "-//W3C//DTD SVG 1.1//EN" "http://www.w3.org/Graphics/SVG/1.1/DTD/svg11.dtd" >
<svg xmlns="http://www.w3.org/2000/svg" xmlns:xlink="http://www.w3.org/1999/xlink" version="1.1" viewBox="-10 0 1021 1000">
   <path fill="currentColor"
d="M504 987q-106 0 -199 -39q-90 -38 -158.5 -107t-108.5 -160q-42 -98 -37 -229q5 -126 51 -243q48 -121 125 -191l-6 156q4 -4 21.5 -6.5t34.5 -0.5t22 8q16 -30 53 -56q35 -24 80 -39t87 -15q-18 14 -41 46q-27 34 -43 66q-18 39 -15 62q18 6 46 9q20 3 49 4q54 3 41 2
q8 5 5 26.5t-17 41.5q-12 16 -37 29q-18 9 -41 15l-19 5l8 106l-77 -38q-12 31 0 59q11 27 38.5 41.5t58.5 9.5q23 -4 45 -14q12 -6 34 -19q20 -11 30 -16q17 -6 33 -5q35 1 52 18q15 16 9 36q-3 13 -18 20q-11 4 -27 5h-14q-33 53 -80.5 75.5t-117.5 16.5q51 42 114 50
q56 8 115 -12q53 -18 97 -53q42 -34 61 -71q24 -46 22 -107q-1 -55 -20 -105t-45 -71q49 21 74 42q31 26 46 65q5 -62 -11 -127t-51 -122q-36 -59 -87 -100q148 43 228 153q84 115 86 291q1 89 -36 176.5t-104 157.5q-69 71 -158 111q-94 43 -198 43z" />
</svg>
