<?xml version="1.0" standalone="no"?>
<!DOCTYPE svg PUBLIC "-//W3C//DTD SVG 1.1//EN" "http://www.w3.org/Graphics/SVG/1.1/DTD/svg11.dtd" >
<svg xmlns="http://www.w3.org/2000/svg" xmlns:xlink="http://www.w3.org/1999/xlink" version="1.1" viewBox="-11 0 769 1000">
   <path fill="currentColor"
d="M7 612q10 -41 50 -131t44 -146q39 72 45 145q148 -184 154 -428q10 6 25 17t58 45t74 74t61 96t34 118q15 -36 19 -79t-9 -80q15 12 41 39t56 75t56 99t31 118t-9 127t-72 127t-152 120q64 -129 25 -278t-154 -229q10 43 -11 141t-65 150q7 -63 4 -102t-12 -59l-10 -17
q-12 70 -60 140q-26 38 -39 69t-9 80t30 105q-135 -76 -181 -154t-24 -182z" />
</svg>
