<?xml version="1.0" standalone="no"?>
<!DOCTYPE svg PUBLIC "-//W3C//DTD SVG 1.1//EN" "http://www.w3.org/Graphics/SVG/1.1/DTD/svg11.dtd" >
<svg xmlns="http://www.w3.org/2000/svg" xmlns:xlink="http://www.w3.org/1999/xlink" version="1.1" viewBox="-10 0 1021 1000">
   <path fill="currentColor"
d="M504 1000q-158 0 -282 -84t-183 -222q-33 -74 -38 -168t15 -186t62 -174t100 -135l-7 156q7 -7 38 -8t39 8q24 -45 90 -77t131 -32q-30 25 -67 82t-33 92q14 4 35 7t36 4l37 3q22 2 29 1q8 3 5 26t-17 42q-3 4 -9 10t-32 20t-56 19l8 105l-77 -37q-10 24 -5 45t21 38
t36 23t45 3q29 -5 55 -19l47 -25q21 -11 41 -10q34 2 50 19t10 36q0 1 -1 3t-5 7t-10 9t-17 5t-26 1q-34 53 -81 76t-117 16q41 34 91 46t94 3t86 -29t71 -48t45 -58q24 -51 22 -108t-21 -105t-44 -70q49 21 77 45t43 62q8 -95 -32 -191t-117 -159q148 43 230 156t84 289
q1 71 -23 143t-68 132t-106 110t-138 75t-161 28z" />
</svg>
