<?xml version="1.0" standalone="no"?>
<!DOCTYPE svg PUBLIC "-//W3C//DTD SVG 1.1//EN" "http://www.w3.org/Graphics/SVG/1.1/DTD/svg11.dtd" >
<svg xmlns="http://www.w3.org/2000/svg" xmlns:xlink="http://www.w3.org/1999/xlink" version="1.1" viewBox="-10 0 709 1000">
   <path fill="currentColor"
d="M0 715q0 -76 18 -167t33 -156t13 -170t-33 -222l20 14q19 13 51 44t64 69t65 97t48 118q63 -94 65 -186l31 35q29 36 61 106t31 139l15 -20q16 -21 33 -60t16 -75q96 119 135 251t10 249q-14 51 -31 84t-56 68t-107 50t-169 17q-137 0 -225 -85t-88 -200zM63 715
q0 88 69 155t181 68q74 0 128 -11t84 -26t49 -42t27 -44t14 -49q39 -159 -64 -344q-61 103 -145 172q0 -92 -10 -176t-25 -113q-23 58 -113 185q0 -8 -12 -51t-44 -122t-75 -137q8 125 -33 310q-31 143 -31 225zM113 738q0 -146 41 -263l16 -47l16 41q19 56 66 164l49 -74
l47 -75v53q0 66 23 135q39 -20 68 -41t43 -36t36 -40l27 -30l6 32q21 119 -20 218q-4 10 -13 10q-4 0 -6 -2q-14 -6 -8 -19q27 -73 19 -168q-58 66 -154 113l-15 6l-6 -16q-24 -66 -28 -111l-58 84l-16 21l-12 -23q-43 -98 -64 -149q-25 84 -25 217q0 16 -16 16t-16 -16z
" />
</svg>
