<?xml version="1.0" standalone="no"?>
<!DOCTYPE svg PUBLIC "-//W3C//DTD SVG 1.1//EN" "http://www.w3.org/Graphics/SVG/1.1/DTD/svg11.dtd" >
<svg xmlns="http://www.w3.org/2000/svg" xmlns:xlink="http://www.w3.org/1999/xlink" version="1.1" viewBox="-10 0 1282 1000">
   <path fill="currentColor"
d="M0 614h119q5 40 30 64t64 24q48 0 77 -33t28.5 -81t-28.5 -79t-75 -31q-38 0 -65 24t-51 25q-53 0 -80 -2q9 -52 29 -161t28 -164h330v98h-243q-14 71 -24 134h3q17 -21 51 -32t65 -11q113 0 160 103q24 -60 72 -94t111 -34q49 0 91 19t66 42t63 66l9 9l4 5
q35 -40 50 -56t46 -40t62 -35t70 -9q90 0 145 60t55 152.5t-55 155.5t-147 63q-116 0 -226 -131l-39 38q-32 31 -42 40t-37 25t-52 23t-58 6q-63 0 -111 -33t-74 -92q-62 128 -203 128q-95 0 -156 -48t-62 -138zM515 584q0 42 26 68t67 26q75 0 155 -95l-48 -49
q-14 -14 -47 -33t-64 -19q-39 0 -64 31t-25 71zM904 584q27 29 46 45t49 33t61 16q43 0 68 -28t24.5 -70t-25.5 -70t-68 -28q-25 0 -49 11t-36 22l-38 36q-26 25 -32 33z" />
</svg>
