<?xml version="1.0" standalone="no"?>
<!DOCTYPE svg PUBLIC "-//W3C//DTD SVG 1.1//EN" "http://www.w3.org/Graphics/SVG/1.1/DTD/svg11.dtd" >
<svg xmlns="http://www.w3.org/2000/svg" xmlns:xlink="http://www.w3.org/1999/xlink" version="1.1" viewBox="-10 0 1020 1000">
   <path fill="currentColor"
d="M929 583v-344q-95 51 -171 51q-46 0 -81 -18q-56 -27 -103 -42t-99 -16q-97 0 -225 71v334q137 -63 242 -63q30 0 57 4t55 15l43 17q15 6 46 22l16 8q24 12 56 12q67 0 164 -51zM179 143q0 19 -10 36t-26 25v707q0 8 -5 13t-13 5h-36q-7 0 -12 -5t-6 -13v-707
q-16 -9 -25 -25t-10 -36q0 -30 21 -51t50 -21t51 21t21 51zM1000 179v425q0 22 -19 32l-10 5q-122 65 -206 65q-49 0 -88 -20l-16 -7q-35 -19 -55 -27t-51 -16t-63 -8q-57 0 -132 24t-127 57q-9 5 -18.5 5t-18.5 -4q-17 -11 -17 -31v-415q0 -19 17 -30q19 -12 44 -24t63 -29
t85 -28t87 -10q62 0 117 17t116 48q21 11 50 11q68 0 173 -63q12 -6 17 -9q17 -9 34.5 1.5t17.5 30.5z" />
</svg>
