<?xml version="1.0" standalone="no"?>
<!DOCTYPE svg PUBLIC "-//W3C//DTD SVG 1.1//EN" "http://www.w3.org/Graphics/SVG/1.1/DTD/svg11.dtd" >
<svg xmlns="http://www.w3.org/2000/svg" xmlns:xlink="http://www.w3.org/1999/xlink" version="1.1" viewBox="-10 0 1020 1000">
   <path fill="currentColor"
d="M464 558v-107q-101 9 -214 65v103q114 -53 214 -61zM464 325v-110q-96 4 -214 70v106q120 -62 214 -66zM929 583v-103q-132 65 -215 40v-125q-11 -3 -21 -8q-3 -2 -19 -10t-19 -9t-18 -9t-19 -8t-18 -8t-20 -7t-20 -4t-22 -4t-22 -3t-24 -1q-13 0 -28 2v124h11
q57 0 107 16t111 46q10 5 21 8v105q24 9 51 9q67 0 164 -51zM929 345v-106q-95 51 -171 51q-25 0 -44 -4v109q83 23 215 -50zM179 143q0 19 -10 36t-26 25v707q0 8 -5 13t-13 5h-36q-7 0 -12 -5t-6 -13v-707q-16 -9 -25 -25t-10 -36q0 -30 21 -51t50 -21t51 21t21 51z
M1000 179v425q0 22 -19 32l-10 5q-122 65 -206 65q-49 0 -88 -20l-16 -7q-35 -19 -55 -27t-51 -16t-63 -8q-57 0 -132 24t-127 57q-9 5 -18.5 5t-18.5 -4q-17 -11 -17 -31v-415q0 -19 17 -30q19 -12 44 -24t63 -29t85 -28t87 -10q62 0 117 17t116 48q21 11 50 11
q68 0 173 -63q12 -6 17 -9q17 -9 34.5 1.5t17.5 30.5z" />
</svg>
