<?xml version="1.0" standalone="no"?>
<!DOCTYPE svg PUBLIC "-//W3C//DTD SVG 1.1//EN" "http://www.w3.org/Graphics/SVG/1.1/DTD/svg11.dtd" >
<svg xmlns="http://www.w3.org/2000/svg" xmlns:xlink="http://www.w3.org/1999/xlink" version="1.1" viewBox="-11 0 810 1000">
   <path fill="currentColor"
d="M782 724q19 68 -21 117t-106 50h-521q-67 0 -107 -50t-21 -117l129 -475l6 -35h-60q-21 0 -36 -15t-15 -37t15 -37t36 -16h625q21 0 37 16t16 37t-16 37t-37 15h-61zM536 214h-291q-1 35 -10 62l-54 200l3 -2h418q2 0 3 1t2 1zM655 787q35 0 26 -35l-62 -231q-9 6 -17 6
h-416q-9 0 -17 -6l-62 231q-8 35 27 35h521z" />
</svg>
