<?xml version="1.0" standalone="no"?>
<!DOCTYPE svg PUBLIC "-//W3C//DTD SVG 1.1//EN" "http://www.w3.org/Graphics/SVG/1.1/DTD/svg11.dtd" >
<svg xmlns="http://www.w3.org/2000/svg" xmlns:xlink="http://www.w3.org/1999/xlink" version="1.1" viewBox="-11 0 751 1000">
   <path fill="currentColor"
d="M495 83zM495 83l-391 369l261 151l-130 313l390 -370l-260 -150zM495 -22q43 0 73 31t31 74q0 22 -10 44l-93 224l182 105q43 25 50 77t-32 89l-390 370q-31 29 -72 29q-56 0 -86 -47t-9 -98l95 -228l-181 -105q-44 -25 -52 -76t32 -90l390 -370q31 -29 72 -29z" />
</svg>
