<?xml version="1.0" standalone="no"?>
<!DOCTYPE svg PUBLIC "-//W3C//DTD SVG 1.1//EN" "http://www.w3.org/Graphics/SVG/1.1/DTD/svg11.dtd" >
<svg xmlns="http://www.w3.org/2000/svg" xmlns:xlink="http://www.w3.org/1999/xlink" version="1.1" viewBox="-10 0 521 1000">
   <path fill="currentColor"
d="M494 316q10 11 4 24l-302 646q-7 14 -23 14l-8 -1q-9 -3 -14 -11t-3 -16l110 -451l-226 56q-2 1 -7 1q-10 0 -17 -7q-10 -8 -7 -21l112 -461q2 -8 9 -13t15 -5h183q11 0 18 7t7 17q0 4 -2 10l-96 258l221 -54q5 -2 7 -2q11 0 19 9z" />
</svg>
