<?xml version="1.0" standalone="no"?>
<!DOCTYPE svg PUBLIC "-//W3C//DTD SVG 1.1//EN" "http://www.w3.org/Graphics/SVG/1.1/DTD/svg11.dtd" >
<svg xmlns="http://www.w3.org/2000/svg" xmlns:xlink="http://www.w3.org/1999/xlink" version="1.1" viewBox="-10 0 923 1000">
   <path fill="currentColor"
d="M807 144q62 62 85 130t-5 92l-134 134q-16 16 -62 26t-96 4l-408 408q-18 18 -57 6t-75 -49t-49 -75t5 -56l408 -408q-6 -50 4 -96t26 -62l136 -136q24 -28 92 -4t130 86zM359 552q32 32 79 -14t15 -82q-14 -14 -38 -10t-44 24t-23 43t11 39zM695 254q30 30 68 50t62 25
t27 1t-3 -27t-26 -60t-50 -67t-66 -50t-59 -26t-27 -2t1 28t25 62t48 66z" />
</svg>
