<?xml version="1.0" standalone="no"?>
<!DOCTYPE svg PUBLIC "-//W3C//DTD SVG 1.1//EN" "http://www.w3.org/Graphics/SVG/1.1/DTD/svg11.dtd" >
<svg xmlns="http://www.w3.org/2000/svg" xmlns:xlink="http://www.w3.org/1999/xlink" version="1.1" viewBox="-11 0 907 1000">
   <path fill="currentColor"
d="M209 708q-86 0 -148 -61t-61 -147t61 -148t148 -61t147 61t60 148t-60 147t-147 61zM209 396q-44 0 -75 31t-30 73t30 73t75 30t74 -30t30 -73t-30 -73t-74 -31zM678 291q86 0 146 61t61 148t-61 147t-146 61t-148 -61t-61 -147t61 -148t148 -61z" />
</svg>
