<?xml version="1.0" standalone="no"?>
<!DOCTYPE svg PUBLIC "-//W3C//DTD SVG 1.1//EN" "http://www.w3.org/Graphics/SVG/1.1/DTD/svg11.dtd" >
<svg xmlns="http://www.w3.org/2000/svg" xmlns:xlink="http://www.w3.org/1999/xlink" version="1.1" viewBox="-10 0 877 1000">
   <path fill="currentColor"
d="M696 71q67 0 114 48t47 113v536q0 66 -47 113t-114 48h-535q-67 0 -114 -48t-47 -113v-536q0 -66 47 -113t114 -48h535zM390 500q0 -49 -35 -84t-84 -34t-83 34t-35 84t35 84t83 34t84 -34t35 -84zM704 500q0 -49 -34 -84t-84 -34t-84 34t-34 84t34 84t84 34t84 -34
t34 -84z" />
</svg>
