<?xml version="1.0" standalone="no"?>
<!DOCTYPE svg PUBLIC "-//W3C//DTD SVG 1.1//EN" "http://www.w3.org/Graphics/SVG/1.1/DTD/svg11.dtd" >
<svg xmlns="http://www.w3.org/2000/svg" xmlns:xlink="http://www.w3.org/1999/xlink" version="1.1" viewBox="-10 0 980 1000">
   <path fill="currentColor"
d="M480 20q200 0 340 140t140 339t-140 340t-339 141t-340 -141t-141 -340t141 -339t339 -140zM352 600q40 0 70 -30t30 -71t-30 -71t-70 -30t-70 30t-30 71t30 71t70 30zM608 600q42 0 71 -30t29 -71t-29 -71t-70 -30t-70 30t-29 71t29 71t69 30z" />
</svg>
