<?xml version="1.0" standalone="no"?>
<!DOCTYPE svg PUBLIC "-//W3C//DTD SVG 1.1//EN" "http://www.w3.org/Graphics/SVG/1.1/DTD/svg11.dtd" >
<svg xmlns="http://www.w3.org/2000/svg" xmlns:xlink="http://www.w3.org/1999/xlink" version="1.1" viewBox="-10 0 877 1000">
   <path fill="currentColor"
d="M214 857h429v-214h-429v214zM714 857h72v-500q0 -8 -6 -21t-11 -20l-157 -156q-5 -6 -19 -12t-22 -5v232q0 22 -15 38t-38 16h-322q-22 0 -37 -16t-16 -38v-232h-72v714h72v-232q0 -22 16 -38t37 -16h465q22 0 38 16t15 38v232zM500 339v-178q0 -8 -5 -13t-13 -5h-107
q-7 0 -13 5t-5 13v178q0 7 5 13t13 5h107q7 0 13 -5t5 -13zM857 357v518q0 22 -15 38t-38 16h-750q-23 0 -38 -16t-16 -38v-750q0 -22 16 -38t38 -16h517q23 0 50 12t42 26l156 157q16 15 27 42t11 49z" />
</svg>
