<?xml version="1.0" standalone="no"?>
<!DOCTYPE svg PUBLIC "-//W3C//DTD SVG 1.1//EN" "http://www.w3.org/Graphics/SVG/1.1/DTD/svg11.dtd" >
<svg xmlns="http://www.w3.org/2000/svg" xmlns:xlink="http://www.w3.org/1999/xlink" version="1.1" viewBox="-10 0 660 1000">
   <path fill="currentColor"
d="M520 730q50 0 85 35t35 85t-35 85t-85 35q-80 0 -110 -74h-164q-88 0 -131 -54t-43 -118v-464q-72 -34 -72 -110q0 -50 35 -85t85 -35t85 35t35 85q0 76 -72 110v114q0 78 78 78h164q30 -72 110 -72q50 0 85 35t35 85t-35 85t-85 35q-80 0 -110 -74h-164q-42 0 -78 -16
v194q0 78 78 78h164q30 -72 110 -72zM520 430q-28 0 -49 20t-21 49t21 49t49 20t49 -20t21 -49t-21 -49t-49 -20zM50 150q0 28 21 48t49 20t49 -20t21 -49t-21 -49t-49 -20t-49 20t-21 50zM520 918q28 0 49 -20t21 -49t-21 -49t-49 -20t-49 20t-21 49t21 49t49 20z" />
</svg>
