<?xml version="1.0" standalone="no"?>
<!DOCTYPE svg PUBLIC "-//W3C//DTD SVG 1.1//EN" "http://www.w3.org/Graphics/SVG/1.1/DTD/svg11.dtd" >
<svg xmlns="http://www.w3.org/2000/svg" xmlns:xlink="http://www.w3.org/1999/xlink" version="1.1" viewBox="-10 0 854 1000">
   <path fill="currentColor"
d="M729 717q46 16 75 57t30 91q0 65 -46 110t-110 46t-111 -46t-46 -110q0 -50 30 -91t74 -57v-96q0 -31 -22 -54t-55 -24q-79 0 -132 -55q-52 55 -130 55q-31 0 -54 24t-23 54v96q45 16 74 57t30 91q0 65 -46 110t-111 46t-110 -46t-46 -110q0 -50 29 -91t75 -57v-96
q0 -75 54 -129t128 -54q33 0 56 -23t23 -54v-79q-46 -16 -76 -57t-29 -90q0 -65 46 -111t110 -46t111 46t46 111q0 50 -30 90t-74 57v79q0 31 23 54t56 23q75 0 128 54t53 129v96zM156 916q22 0 37 -15t16 -36t-16 -37t-37 -16t-37 16t-15 37t15 36t37 15zM416 83
q-21 0 -36 15t-15 37t15 37t36 15t37 -15t16 -37t-16 -37t-37 -15zM678 916q21 0 36 -15t15 -36t-15 -37t-36 -16t-37 16t-16 37t16 36t37 15z" />
</svg>
