<?xml version="1.0" standalone="no"?>
<!DOCTYPE svg PUBLIC "-//W3C//DTD SVG 1.1//EN" "http://www.w3.org/Graphics/SVG/1.1/DTD/svg11.dtd" >
<svg xmlns="http://www.w3.org/2000/svg" xmlns:xlink="http://www.w3.org/1999/xlink" version="1.1" viewBox="-11 0 855 1000">
   <path fill="currentColor"
d="M729 717q46 16 75 57t30 91q0 65 -46 110t-110 46t-111 -46t-46 -110q0 -50 30 -91t74 -57v-435q-45 -16 -74 -57t-30 -90q0 -65 46 -111t111 -46t110 46t46 111q0 50 -30 90t-75 57v435zM678 83q-22 0 -37 15t-16 37t16 37t37 15t36 -15t15 -37t-15 -37t-36 -15z
M678 916q21 0 36 -15t15 -36t-15 -37t-36 -16t-37 16t-16 37t16 36t37 15zM313 135q0 50 -30 90t-74 57v435q45 16 74 57t30 91q0 65 -46 110t-111 46t-110 -46t-46 -110q0 -50 29 -91t75 -57v-435q-45 -16 -75 -57t-29 -90q0 -65 46 -111t110 -46t111 46t46 111zM156 83
q-21 0 -37 15t-15 37t15 37t37 15t37 -15t16 -37t-16 -37t-37 -15zM156 916q22 0 37 -15t16 -36t-16 -37t-37 -16t-37 16t-15 37t15 36t37 15z" />
</svg>
