<?xml version="1.0" standalone="no"?>
<!DOCTYPE svg PUBLIC "-//W3C//DTD SVG 1.1//EN" "http://www.w3.org/Graphics/SVG/1.1/DTD/svg11.dtd" >
<svg xmlns="http://www.w3.org/2000/svg" xmlns:xlink="http://www.w3.org/1999/xlink" version="1.1" viewBox="-10 0 854 1000">
   <path fill="currentColor"
d="M209 717q45 16 74 57t30 91q0 65 -46 110t-111 46t-110 -46t-46 -110q0 -50 29 -91t75 -57v-35q0 -97 76 -166q49 40 95 60q-66 39 -66 106v35zM156 916q22 0 37 -15t16 -36t-16 -37t-37 -16t-37 16t-15 37t15 36t37 15zM625 282q-45 -16 -74 -57t-30 -90q0 -65 46 -111
t111 -46t110 46t46 111q0 50 -30 90t-75 57v18q0 105 -79 180q-44 -37 -95 -57q70 -43 70 -123v-18zM678 83q-22 0 -37 15t-16 37t16 37t37 15t36 -15t15 -37t-15 -37t-36 -15zM726 717q48 15 78 56t30 92q0 65 -46 110t-110 46t-111 -46t-46 -110q0 -49 28 -89t72 -58
q-13 -71 -72 -118t-133 -48q-117 0 -205 -77t-103 -193q-48 -15 -78 -55t-30 -92q0 -65 46 -111t110 -46t111 46t46 111q0 48 -28 88t-72 58q13 71 71 119t132 47q118 0 206 78t104 192zM156 83q-21 0 -37 15t-15 37t15 37t37 15t37 -15t16 -37t-16 -37t-37 -15zM678 916
q21 0 36 -15t15 -36t-15 -37t-36 -16t-37 16t-16 37t16 36t37 15z" />
</svg>
