<?xml version="1.0" standalone="no"?>
<!DOCTYPE svg PUBLIC "-//W3C//DTD SVG 1.1//EN" "http://www.w3.org/Graphics/SVG/1.1/DTD/svg11.dtd" >
<svg xmlns="http://www.w3.org/2000/svg" xmlns:xlink="http://www.w3.org/1999/xlink" version="1.1" viewBox="-10 0 1010 1000">
   <path fill="currentColor"
d="M94 842q0 -14 9 -23t22 -8h750q13 0 22 8t9 23t-9 22t-22 9h-750q-14 0 -22 -9t-9 -22zM94 717q0 -14 9 -23t22 -8h750q13 0 22 8t9 23t-9 22t-22 9h-750q-14 0 -22 -9t-9 -22zM94 592q0 -14 9 -22t22 -9h750q13 0 22 9t9 22t-9 22t-22 9h-750q-14 0 -22 -9t-9 -22z
M94 467q0 -14 9 -22t22 -9h62q14 0 23 9t9 22t-9 23t-23 8h-62q-14 0 -22 -8t-9 -23zM213 225q-11 -12 -11 -23t11 -22t22 -11t23 11l43 45q10 11 10 21t-10 22t-22 11l-21 -11zM281 467q0 -90 65 -154t154 -65t154 65t64 154q0 9 -4 31h-62q4 -16 4 -31q0 -64 -46 -110
t-110 -46t-111 46t-45 110q0 15 4 31h-63q-4 -22 -4 -31zM469 155v-63q0 -13 8 -22t23 -9t22 9t9 22v63q0 13 -9 22t-22 9t-23 -9t-8 -22zM699 268q-11 -11 -11 -22t11 -21l43 -45q12 -11 23 -11t22 11t10 22t-10 23l-45 43q-11 11 -22 11zM781 467q0 -14 9 -22t22 -9h63
q13 0 22 9t9 22t-9 23t-22 8h-63q-14 0 -22 -8t-9 -23z" />
</svg>
