<?xml version="1.0" standalone="no"?>
<!DOCTYPE svg PUBLIC "-//W3C//DTD SVG 1.1//EN" "http://www.w3.org/Graphics/SVG/1.1/DTD/svg11.dtd" >
<svg xmlns="http://www.w3.org/2000/svg" xmlns:xlink="http://www.w3.org/1999/xlink" version="1.1" viewBox="-10 0 1010 1000">
   <path fill="currentColor"
d="M94 842q0 -14 9 -23t22 -8h750q13 0 22 8t9 23t-9 22t-22 9h-750q-14 0 -22 -9t-9 -22zM94 717q0 -14 9 -23t22 -8h750q13 0 22 8t9 23t-9 22t-22 9h-750q-14 0 -22 -9t-9 -22zM94 592q0 -14 9 -22t22 -9h750q13 0 22 9t9 22t-9 22t-22 9h-750q-14 0 -22 -9t-9 -22z
M282 338q9 -88 71 -150q39 -39 94 -59q6 -2 11 -2q12 0 22 10t10 21q0 5 -2 10q-12 33 -12 66q0 20 4 40q12 52 51 90.5t91 49.5q19 5 39 5l65 -12q6 -2 10 -2q12 0 22 9t9 22q0 6 -2 12q-10 27 -23 50h-82q15 -13 17 -17h-19q-99 0 -171 -73q-74 -74 -74 -176q0 -7 1 -15
l-16 14q-54 55 -54 133t54 132l2 2h-80q-39 -61 -39 -132q0 -14 1 -28z" />
</svg>
