<?xml version="1.0" standalone="no"?>
<!DOCTYPE svg PUBLIC "-//W3C//DTD SVG 1.1//EN" "http://www.w3.org/Graphics/SVG/1.1/DTD/svg11.dtd" >
<svg xmlns="http://www.w3.org/2000/svg" xmlns:xlink="http://www.w3.org/1999/xlink" version="1.1" viewBox="-10 0 1010 1000">
   <path fill="currentColor"
d="M187 656q0 -13 9 -22t23 -9h562q14 0 22 9t9 22t-9 23t-22 9h-562q-14 0 -23 -9t-9 -23zM187 531q0 -13 9 -22t23 -9h562q14 0 22 9t9 22t-9 23t-22 9h-562q-14 0 -23 -9t-9 -23zM187 407q0 -14 9 -23t23 -9h562q14 0 22 9t9 23t-9 22t-22 9h-562q-14 0 -23 -9t-9 -22z
M187 282q0 -14 9 -23t23 -9h562q14 0 22 9t9 23t-9 22t-22 9h-562q-14 0 -23 -9t-9 -22z" />
</svg>
