<?xml version="1.0" standalone="no"?>
<!DOCTYPE svg PUBLIC "-//W3C//DTD SVG 1.1//EN" "http://www.w3.org/Graphics/SVG/1.1/DTD/svg11.dtd" >
<svg xmlns="http://www.w3.org/2000/svg" xmlns:xlink="http://www.w3.org/1999/xlink" version="1.1" viewBox="-11 0 1082 1000">
   <path fill="currentColor"
d="M1049 531q0 17 -18 37l-187 221q-24 28 -67 48t-81 20h-607q-19 0 -33 -7t-14.5 -24t16.5 -37l188 -221q24 -28 67 -48t80 -20h607q19 0 34 7t15 24zM857 339v90h-464q-53 0 -110 26t-92 67l-188 221l-2 3l-1 -7q-1 -5 0 -7v-536q0 -51 37 -88t88 -37h179q51 0 88 37
t37 88v18h303q52 0 88 37t37 88z" />
</svg>
