<?xml version="1.0" standalone="no"?>
<!DOCTYPE svg PUBLIC "-//W3C//DTD SVG 1.1//EN" "http://www.w3.org/Graphics/SVG/1.1/DTD/svg11.dtd" >
<svg xmlns="http://www.w3.org/2000/svg" xmlns:xlink="http://www.w3.org/1999/xlink" version="1.1" viewBox="-10 0 949 1000">
   <path fill="currentColor"
d="M857 732v-393q0 -22 -15 -38t-38 -15h-393q-23 0 -38 -16t-16 -38v-36q0 -22 -15 -38t-38 -15h-179q-22 0 -38 15t-16 38v536q0 22 16 38t38 16h679q22 0 38 -16t15 -38zM929 339v393q0 51 -37 88t-88 37h-679q-51 0 -88 -37t-37 -88v-536q0 -51 37 -88t88 -37h179
q51 0 88 37t37 88v18h375q51 0 88 37t37 88z" />
</svg>
