<?xml version="1.0" standalone="no"?>
<!DOCTYPE svg PUBLIC "-//W3C//DTD SVG 1.1//EN" "http://www.w3.org/Graphics/SVG/1.1/DTD/svg11.dtd" >
<svg xmlns="http://www.w3.org/2000/svg" xmlns:xlink="http://www.w3.org/1999/xlink" version="1.1" viewBox="-11 0 1022 1000">
   <path fill="currentColor"
d="M954 350q32 0 40 12t6 36l-42 452q-2 24 -12 37t-42 13h-806q-52 0 -56 -50l-42 -452q-2 -24 6 -36t40 -12h908zM920 240l10 40h-846l14 -132q4 -20 20 -34t36 -14h164q52 0 86 34l30 30q32 36 86 36h340q20 0 38 12t22 28z" />
</svg>
