<?xml version="1.0" standalone="no"?>
<!DOCTYPE svg PUBLIC "-//W3C//DTD SVG 1.1//EN" "http://www.w3.org/Graphics/SVG/1.1/DTD/svg11.dtd" >
<svg xmlns="http://www.w3.org/2000/svg" xmlns:xlink="http://www.w3.org/1999/xlink" version="1.1" viewBox="-10 0 1412 1000">
   <path fill="currentColor"
d="M1313 218h-1235q9 -48 27 -67q16 -17 31 -17h4q4 1 8 1q12 0 26 -4q18 -6 25 -29l24 -72q77 -29 208 -29q89 0 164 29l25 72q24 23 33 26t43 3h485q84 0 110 22q12 11 22 65zM1391 382v10l-68 523q-5 35 -33 61t-65 25h-1058q-36 0 -65 -25t-34 -61l-67 -523
q-1 -3 -1 -10q0 -33 23 -55t55 -21h1235q33 0 56 21t22 55z" />
</svg>
