<?xml version="1.0" standalone="no"?>
<!DOCTYPE svg PUBLIC "-//W3C//DTD SVG 1.1//EN" "http://www.w3.org/Graphics/SVG/1.1/DTD/svg11.dtd" >
<svg xmlns="http://www.w3.org/2000/svg" xmlns:xlink="http://www.w3.org/1999/xlink" version="1.1" viewBox="-10 0 878 1000">
   <path fill="currentColor"
d="M857 286v468q0 27 -27 34q-97 29 -189 29q-41 0 -120 -16t-127 -16q-91 0 -206 26v189h-90v-763q-35 -14 -56 -46t-21 -69q0 -51 35 -86t87 -36t86 36t36 86q0 38 -21 69t-56 46v38q106 -25 191 -25q55 0 110 8q8 1 63 13t83 11q43 0 92 -10q6 -1 45 -11t49 -11
q15 0 26 11t10 25z" />
</svg>
