<?xml version="1.0" standalone="no"?>
<!DOCTYPE svg PUBLIC "-//W3C//DTD SVG 1.1//EN" "http://www.w3.org/Graphics/SVG/1.1/DTD/svg11.dtd" >
<svg xmlns="http://www.w3.org/2000/svg" xmlns:xlink="http://www.w3.org/1999/xlink" version="1.1" viewBox="-10 0 949 1000">
   <path fill="currentColor"
d="M405 312l-95 251l76 1q58 1 89 1q11 0 32 -1q-48 -141 -102 -252zM0 929l1 -44q13 -4 31 -7t32 -6t28 -8t25 -17t17 -28l132 -344l156 -404h72l6 12l114 268q19 43 60 144t63 153q9 19 33 80t40 94q11 26 19 32q11 9 49 17t47 11q4 22 4 32q0 3 -1 8t0 7q-35 0 -106 -5
t-107 -4q-42 0 -120 4t-99 4q0 -24 2 -43l73 -16l7 -1q6 -1 9 -2l17 -7q4 -2 6 -4l5 -6q3 -4 1 -8q0 -9 -17 -54t-40 -99l-24 -56l-251 -1q-14 32 -43 109t-28 91q0 12 8 21t24 14t27 7l32 5q21 3 23 2q1 11 1 32q0 5 -1 16q-33 0 -98 -6t-97 -6q-5 0 -15 3t-12 2
q-45 8 -105 8z" />
</svg>
