<?xml version="1.0" standalone="no"?>
<!DOCTYPE svg PUBLIC "-//W3C//DTD SVG 1.1//EN" "http://www.w3.org/Graphics/SVG/1.1/DTD/svg11.dtd" >
<svg xmlns="http://www.w3.org/2000/svg" xmlns:xlink="http://www.w3.org/1999/xlink" version="1.1" viewBox="-11 0 1019 1000">
   <path fill="currentColor"
d="M0 831l209 -685q4 -12 16 -12h138q12 0 16 12l207 681q2 6 2 8q0 16 -16 16h-125q-11 0 -15 -12l-35 -123h-206l-35 123q-4 12 -15 12h-125q-20 0 -16 -20zM223 583h142l-72 -252zM592 694q4 -84 53 -128q46 -41 111.5 -41t108.5 35v-32q0 -74 -76 -74q-59 0 -107 51
q-18 14 -26 -4l-41 -68q-4 -12 4 -20q37 -37 84 -54q57 -24 130 -18t114 45q51 45 51 129v324q0 16 -16 16h-99q-16 0 -18 -16v-10q-47 37 -109 37q-67 -2 -111 -45q-51 -48 -53 -127zM725 696q0 30 17 51q29 24 68 17t55 -34v-69q-13 -25 -37 -31q-57 -20 -86 14
q-17 23 -17 52z" />
</svg>
