<?xml version="1.0" standalone="no"?>
<!DOCTYPE svg PUBLIC "-//W3C//DTD SVG 1.1//EN" "http://www.w3.org/Graphics/SVG/1.1/DTD/svg11.dtd" >
<svg xmlns="http://www.w3.org/2000/svg" xmlns:xlink="http://www.w3.org/1999/xlink" version="1.1" viewBox="-10 0 1021 1000">
   <path fill="currentColor"
d="M0 734q0 -33 23 -55t55 -23h84q22 -121 117 -201t221 -80q102 0 186 55t126 144l143 -70q12 -6 24 -2t17 16t2 23t-16 18l-150 76q4 11 6 21h84q33 0 56 23t22 55q0 24 -16 41l-109 123v24q0 33 -22 56t-56 22h-594q-33 0 -55 -22t-23 -56v-24l-109 -123q-16 -17 -16 -41
zM63 734l125 141v47q0 16 15 16h594q15 0 15 -16v-47l125 -141q0 -15 -15 -15h-844q-15 0 -15 15zM193 656h34q21 -95 97 -157t176 -62q84 0 153 46t103 120l27 -15q-37 -82 -113 -132t-170 -50q-111 0 -198 72t-109 178zM248 365q-16 -39 16 -113q25 -61 13 -90h-2v-6
q0 -15 16 -15q10 0 14 9q17 41 -14 114q-25 62 -12 91v4q0 16 -15 16q-10 0 -14 -8v-2h-2zM258 656h33q20 -68 77 -112t132 -44q66 0 120 36t79 95l30 -14q-32 -66 -93 -107t-136 -41q-86 0 -153 52t-89 135zM324 656h33q18 -43 57 -68t86 -26t86 26t57 68h5l24 -11
q-22 -51 -68 -83t-104 -31q-61 0 -108 35t-68 90zM393 656h37q29 -31 70 -31t68 31h39q-37 -62 -107 -62t-107 62zM469 227v-2q-16 -39 13 -114q28 -60 14 -90v-5q0 -16 13 -16t16 10q18 41 -13 113q-26 63 -14 92q2 2 2 4q0 15 -16 15q-9 0 -15 -7zM629 361v-2
q-16 -39 16 -111q25 -62 11 -90v-6q0 -15 16 -15q10 0 14 9q17 40 -14 114q-26 60 -14 90v2q2 2 2 3q0 16 -15 16q-10 0 -14 -10h-2zM789 656h18q0 -2 -1 -4t-1 -4z" />
</svg>
