<?xml version="1.0" standalone="no"?>
<!DOCTYPE svg PUBLIC "-//W3C//DTD SVG 1.1//EN" "http://www.w3.org/Graphics/SVG/1.1/DTD/svg11.dtd" >
<svg xmlns="http://www.w3.org/2000/svg" xmlns:xlink="http://www.w3.org/1999/xlink" version="1.1" viewBox="-10 0 970 1000">
   <path fill="currentColor"
d="M475 175q-58 0 -114 14q-50 13 -97 37q-43 21 -82 52q-35 26 -66 59q-27 28 -51 60q-20 26 -36 52q-12 19 -22 37l-7 14l7 14q10 18 22 37q16 26 36 52q24 32 51 59q31 34 66 60q39 31 82 52q47 24 97 37q56 14 114 14t114 -14q50 -13 97 -37q43 -21 82 -52
q35 -26 66 -60q27 -27 51 -59q20 -26 36 -52q12 -19 22 -37l7 -14l-7 -14q-10 -18 -22 -37q-16 -26 -36 -52q-24 -32 -51 -60q-31 -33 -66 -59q-39 -31 -82 -52q-47 -24 -97 -37q-56 -14 -114 -14zM325 425q11 0 18 7t7 18v25h100v-25q0 -11 7.5 -18t18 -7t17.5 7t7 18v25
h100v-25q0 -11 7.5 -18t18 -7t17.5 7t7 18v25h75q11 0 18 7t7 17.5t-7 18t-18 7.5h-75v25q0 10 -7 17.5t-17.5 7.5t-18 -7.5t-7.5 -17.5v-25h-100v25q0 10 -7 17.5t-17.5 7.5t-18 -7.5t-7.5 -17.5v-25h-100v25q0 10 -7 17.5t-17.5 7.5t-18 -7.5t-7.5 -17.5v-25h-75
q-10 0 -17.5 -7.5t-7.5 -18t7.5 -17.5t17.5 -7h75v-25q0 -11 7.5 -18t17.5 -7z" />
</svg>
