<?xml version="1.0" standalone="no"?>
<!DOCTYPE svg PUBLIC "-//W3C//DTD SVG 1.1//EN" "http://www.w3.org/Graphics/SVG/1.1/DTD/svg11.dtd" >
<svg xmlns="http://www.w3.org/2000/svg" xmlns:xlink="http://www.w3.org/1999/xlink" version="1.1" viewBox="-10 0 877 1000">
   <path fill="currentColor"
d="M521 84q-177 67 -310 202t-200 313q-11 -50 -11 -98q0 -117 57 -215t156 -156t214 -57q46 0 94 11zM671 150q52 36 92 87q-217 63 -377 223t-221 378q-52 -41 -86 -91q62 -215 220 -374t372 -223zM262 895q65 -199 212 -348t346 -214q22 51 30 109q-163 67 -288 192
t-191 290q-58 -8 -109 -29zM857 927q-108 -28 -205 -64q-75 47 -161 59q60 -114 152 -206t206 -154q-11 85 -56 158q36 98 64 207z" />
</svg>
