<?xml version="1.0" standalone="no"?>
<!DOCTYPE svg PUBLIC "-//W3C//DTD SVG 1.1//EN" "http://www.w3.org/Graphics/SVG/1.1/DTD/svg11.dtd" >
<svg xmlns="http://www.w3.org/2000/svg" xmlns:xlink="http://www.w3.org/1999/xlink" version="1.1" viewBox="-10 0 958 1000">
   <path fill="currentColor"
d="M53 903q-23 0 -38 -16t-15 -36v-52q0 -186 118 -330t298 -180v-89q0 -42 32 -74q30 -30 74 -29t73 29l328 323q15 15 15 37t-15 38l-329 322q-29 29 -73 30t-73 -30q-32 -31 -32 -73v-75q-105 7 -183 48t-138 133q-16 24 -42 24zM469 591l52 -1v183l290 -287l-290 -286
v183q-20 0 -46 2q-132 15 -231 103t-129 213q129 -105 354 -110z" />
</svg>
