<?xml version="1.0" standalone="no"?>
<!DOCTYPE svg PUBLIC "-//W3C//DTD SVG 1.1//EN" "http://www.w3.org/Graphics/SVG/1.1/DTD/svg11.dtd" >
<svg xmlns="http://www.w3.org/2000/svg" xmlns:xlink="http://www.w3.org/1999/xlink" version="1.1" viewBox="-10 0 1020 1000">
   <path fill="currentColor"
d="M1000 357q0 15 -11 25l-285 286q-11 11 -25 11t-25 -11t-11 -25v-143h-125q-55 0 -98 3t-86 12t-74 24t-59 39t-45 56t-27 77t-10 101q0 31 3 69q0 4 2 13t1 15q0 8 -5 14t-13.5 6t-14.5 -10q-4 -5 -8 -12t-7 -17t-6 -13q-71 -159 -71 -252q0 -111 30 -186
q90 -225 488 -225h125v-143q0 -14 11 -25t25 -10t25 10l285 286q11 11 11 25z" />
</svg>
