<?xml version="1.0" standalone="no"?>
<!DOCTYPE svg PUBLIC "-//W3C//DTD SVG 1.1//EN" "http://www.w3.org/Graphics/SVG/1.1/DTD/svg11.dtd" >
<svg xmlns="http://www.w3.org/2000/svg" xmlns:xlink="http://www.w3.org/1999/xlink" version="1.1" viewBox="-10 0 1189 1000">
   <path fill="currentColor"
d="M0 440q0 -105 77 -180t184 -74q85 0 153 48t94 124l66 -64l158 152l437 -446v405l-267 206l34 36l-363 353l-316 -307q-107 -2 -182 -76t-75 -177zM37 440q0 90 65 153t157 63q33 0 65 -9l220 195l585 -460l1 -302l-578 596l-90 -146q20 -43 20 -90q0 -89 -65 -153
t-158 -63t-157 63t-65 153zM85 442q0 -70 50 -120t119 -49t120 49t49 120q0 70 -49 119t-120 50t-119 -50t-50 -119z" />
</svg>
