<?xml version="1.0" standalone="no"?>
<!DOCTYPE svg PUBLIC "-//W3C//DTD SVG 1.1//EN" "http://www.w3.org/Graphics/SVG/1.1/DTD/svg11.dtd" >
<svg xmlns="http://www.w3.org/2000/svg" xmlns:xlink="http://www.w3.org/1999/xlink" version="1.1" viewBox="-11 0 978 1000">
   <path fill="currentColor"
d="M717 0q-83 0 -150 36q-53 -19 -92 -27q-56 -10 -114 -5q-138 13 -207 82q-62 62 -72 173q-25 3 -38 10q-20 11 -30 35q-13 28 -14 78q-1 58 10 92q9 30 28 45q14 11 39 19l2 358q-2 -11 3 26q2 15 5 25q4 13 13.5 22.5t27 16.5t45.5 10l144 3q81 11 109 -103q11 96 85 97
h167q35 -9 29 -7q16 -5 26 -12q13 -8 20 -22q9 -17 11 -41l3 -373l44 3q23 -3 35 -7q19 -7 33 -20q16 -15 28 -43v-112q-2 -16 -5.5 -25t-7.5 -13t-10 -7t-9 -5q26 -6 34 -9q18 -8 29 -26q13 -20 19 -59l-3 -91q1 -43 -24.5 -68.5t-85.5 -42.5q-67 -9 -59 -8q-38 -5 -68 -5z
M384 87q41 0 121 25l2 108q10 3 -33 -12q-19 -7 -30 -9q-15 -3 -26 -2q-36 -1 -55 9q-17 9 -25 28q-4 13 -7 38v77l193 2v-63q1 -40 4 -64q6 -34 19 -57q15 -28 43 -45q32 -19 80 -25q54 -7 103.5 -1.5t88.5 22.5l-2 115q-18 -15 -46 -23q-20 -7 -54 -11q-37 -5 -56 8
q-17 10 -24 35q-4 18 -4 51q0 46 -1 54h139v102h-139l2 461l-153 -5v-456l-200 4v452h-153l4 -452h-75l-2 -115l81 5l-2 -32q2 -52 3 -63q4 -40 17 -68q15 -36 45 -58q35 -26 91 -33q12 1 26 0q54 -4 25 -2z" />
</svg>
