<?xml version="1.0" standalone="no"?>
<!DOCTYPE svg PUBLIC "-//W3C//DTD SVG 1.1//EN" "http://www.w3.org/Graphics/SVG/1.1/DTD/svg11.dtd" >
<svg xmlns="http://www.w3.org/2000/svg" xmlns:xlink="http://www.w3.org/1999/xlink" version="1.1" viewBox="-10 0 1020 1000">
   <path fill="currentColor"
d="M0 1000v-1000h1000v1000h-1000zM150 418q-2 41 7 66t20 33t28 14l2 262l2 15l3 17q1 4 6 13t11 14t18 8l30 7l106 2q56 8 78 -76q8 70 62 72h123q2 -2 10 -4l21 -6q7 -2 10 -4t7 -7t7 -10t4 -13t4 -16l2 -274l31 2q28 -4 43 -13t29 -38v-82q-2 -11 -4 -18t-6 -9t-7 -5
t-6 -5q18 -4 25 -7t19 -18t15 -43l-2 -67q2 -58 -80 -82q-69 -9 -94 -9q-61 0 -110 27q-80 -29 -150 -23q-191 17 -205 187q-27 2 -43 20t-16 70zM221 385l60 4l-2 -24l2 -17v-19l2 -19q2 -19 4 -22t7 -19t10 -19t13 -16t20 -14t25 -10t33 -7q7 0 19 -1l16 -1q31 0 90 18
l2 80q-53 -20 -67 -18q-25 0 -40 9t-18 19t-6 27v57l142 1v-38l1 -41q1 -41 7 -35t17 -34t31 -22t52 -15q78 -12 140 16l-2 84q-23 -20 -72 -26q-23 -2 -37 3t-18 16t-6 26t-2 31t1 32h101v74h-101v338l-112 -2v-336l-146 4v332h-114l4 -332h-54z" />
</svg>
