<?xml version="1.0" standalone="no"?>
<!DOCTYPE svg PUBLIC "-//W3C//DTD SVG 1.1//EN" "http://www.w3.org/Graphics/SVG/1.1/DTD/svg11.dtd" >
<svg xmlns="http://www.w3.org/2000/svg" xmlns:xlink="http://www.w3.org/1999/xlink" version="1.1" viewBox="-10 0 1019 1000">
   <path fill="currentColor"
d="M196 0q-53 0 -98 26.5t-71.5 71.5t-26.5 98v608q0 53 26.5 98t71.5 71.5t98 26.5h608q53 0 97.5 -26.5t71 -71.5t26.5 -98v-608q0 -53 -26.5 -98t-71 -71.5t-97.5 -26.5h-608zM674 138q22 0 50 3q-3 0 43 7q44 11 63 30t18 51l2 67q-4 28 -14 43q-8 13 -21 18q-7 3 -25 7
q-1 -1 9 5q5 3 8.5 9.5t5.5 22.5v81q-12 29 -32 41q-12 7 -38 11l-33 -2l-2 273q-2 23 -12 36q-8 11 -22 16q-5 2 -28 8h-123q-54 -1 -62 -71q-21 83 -79 75l-106 -2q-20 -2 -33 -7t-19.5 -12t-9.5 -17q-3 -7 -4 -18q-3 -28 -2 -19l-3 -262q-18 -6 -28 -14q-13 -12 -20 -33
q-8 -25 -7 -67q1 -37 10 -58q7 -17 22 -25q10 -5 28 -7q6 -81 52 -127q50 -51 152 -60q42 -3 83 4q29 5 67 19q49 -26 110 -26zM430 202q-4 0 -18 1q-10 1 -19 0q-41 5 -66 24q-22 16 -34 43q-9 21 -12 50q-1 9 -2 46l1 23l-59 -3l2 83h54l-3 332h113v-332l146 -3v335l112 3
l-2 -338h102v-74h-102q0 -6 1 -40q0 -24 4 -37q4 -18 17 -26q14 -9 41 -5q48 5 73 24l1 -83q-29 -12 -65 -16.5t-76 0.5q-35 5 -58 18q-20 13 -32 33q-9 17 -13 42q-2 18 -3 46v47l-142 -2v-56q3 -19 6 -28q6 -13 18 -20q14 -8 40 -7q12 -1 30 4l35 13l-1 -79
q-59 -18 -89 -18z" />
</svg>
