<?xml version="1.0" standalone="no"?>
<!DOCTYPE svg PUBLIC "-//W3C//DTD SVG 1.1//EN" "http://www.w3.org/Graphics/SVG/1.1/DTD/svg11.dtd" >
<svg xmlns="http://www.w3.org/2000/svg" xmlns:xlink="http://www.w3.org/1999/xlink" version="1.1" viewBox="-11 0 970 1000">
   <path fill="currentColor"
d="M0 383q2 -50 15 -78t27 -34t40 -9q18 -230 276 -254q95 -7 205 32q66 -36 148 -36q33 0 125 14q61 16 86 41t24 68l3 90q-3 30 -11 48t-23 28t-21 11t-27 7q2 2 9 5t10 6t7 13t6 25v111q-10 28 -28 43t-31 20t-37 8l-43 -4l-4 369q0 14 -3 23l-6 18q-3 9 -9 14t-11 8
t-14 7t-13 5l-14 4q-10 3 -14 3h-166q-74 -2 -84 -96q-29 111 -107 102l-143 -2q-19 -2 -35 -6t-24 -12t-16 -13t-10 -16t-4 -17t-3 -18t-2 -18l-2 -355q-25 -8 -40 -19t-26 -45t-10 -91zM98 340l2 114h74l-6 449h153v-449l199 -4v453l152 4l-2 -457h137v-102h-137
q2 -21 0 -43t1 -42t10 -35t25 -22t48 -4q69 9 98 33l2 -113q-82 -36 -190 -22q-41 6 -69 22t-42 31t-22 46t-10 48t-1 55v50l-192 -2v-76q2 -18 5 -28t11 -24t25 -17t45 -5q18 -2 88 23l-2 -107q-78 -26 -119 -26q-6 0 -22 2t-29 0q-23 4 -43 10t-33 13t-25 20l-20 22
q-8 9 -13 26t-9 26t-6 28l-3 26q-1 7 -1 28l-1 22l2 31z" />
</svg>
