<?xml version="1.0" standalone="no"?>
<!DOCTYPE svg PUBLIC "-//W3C//DTD SVG 1.1//EN" "http://www.w3.org/Graphics/SVG/1.1/DTD/svg11.dtd" >
<svg xmlns="http://www.w3.org/2000/svg" xmlns:xlink="http://www.w3.org/1999/xlink" version="1.1" viewBox="-11 0 1093 1000">
   <path fill="currentColor"
d="M464 607v-71q0 -8 -5 -13t-13 -5h-107v-107q0 -8 -5 -13t-13 -5h-71q-8 0 -13 5t-5 13v107h-107q-8 0 -13 5t-5 13v71q0 8 5 13t13 5h107v107q0 8 5 13t13 5h71q8 0 13 -5t5 -13v-107h107q8 0 13 -5t5 -13zM786 643q0 -30 -21 -51t-51 -21t-50 21t-21 51t21 50t50 21
t51 -21t21 -50zM929 500q0 -30 -21 -51t-51 -20t-50 20t-21 51t21 50t50 21t51 -21t21 -50zM1071 571q0 119 -83 202t-202 84q-107 0 -189 -71h-123q-81 71 -188 71q-119 0 -202 -84t-84 -202t84 -202t202 -83h500q118 0 202 83t83 202z" />
</svg>
