<?xml version="1.0" standalone="no"?>
<!DOCTYPE svg PUBLIC "-//W3C//DTD SVG 1.1//EN" "http://www.w3.org/Graphics/SVG/1.1/DTD/svg11.dtd" >
<svg xmlns="http://www.w3.org/2000/svg" xmlns:xlink="http://www.w3.org/1999/xlink" version="1.1" viewBox="-10 0 770 1000">
   <path fill="currentColor"
d="M165 100q-15 0 -15 50v100q0 49 30 85q27 33 74 50q44 17 96 15v400q-28 -56 -80 -107q-59 -60 -124 -86q-76 -30 -146 -7l6 13l17 34q14 24 30 48q19 29 41 55q25 30 52 55q32 28 65 48q37 22 76 34q43 13 88 13t88 -13q39 -12 76 -34q33 -20 65 -48q27 -25 52 -55
q22 -26 41 -55q16 -24 30 -48l17 -34l6 -13q-70 -23 -146 7q-65 26 -124 86q-52 51 -80 107v-400q52 2 96 -15q47 -17 74 -50q30 -36 30 -85v-100q0 -50 -15 -50q-7 0 -16 7q-6 5 -19 18l-75 75l-75 -84q-9 -10 -11 -11q-5 -5 -14 -5t-14 5q-2 1 -11 11l-75 84l-75 -75
q-13 -13 -19 -18q-9 -7 -16 -7z" />
</svg>
