<?xml version="1.0" standalone="no"?>
<!DOCTYPE svg PUBLIC "-//W3C//DTD SVG 1.1//EN" "http://www.w3.org/Graphics/SVG/1.1/DTD/svg11.dtd" >
<svg xmlns="http://www.w3.org/2000/svg" xmlns:xlink="http://www.w3.org/1999/xlink" version="1.1" viewBox="-10 0 1020 1000">
   <path fill="currentColor"
d="M214 643q0 -30 -21 -51t-50 -21t-51 21t-21 51t21 50t51 21t50 -21t21 -50zM321 393q0 -30 -20 -51t-51 -21t-50 21t-21 51t21 50t50 21t51 -21t20 -50zM560 661l57 -213q3 -14 -5 -27t-21 -16t-27 3t-17 22l-56 213q-33 3 -60 25t-35 55q-11 43 11 81t66 50t81 -11
t50 -66q9 -33 -4 -65t-40 -51zM929 643q0 -30 -21 -51t-51 -21t-50 21t-21 51t21 50t50 21t51 -21t21 -50zM571 286q0 -30 -20 -51t-51 -21t-50 21t-21 51t21 50t50 21t51 -21t20 -50zM821 393q0 -30 -20 -51t-51 -21t-50 21t-21 51t21 50t50 21t51 -21t20 -50zM1000 643
q0 145 -79 269q-10 17 -30 17h-782q-20 0 -30 -17q-79 -123 -79 -269q0 -102 40 -194t106 -160t160 -107t194 -39t194 39t160 107t106 160t40 194z" />
</svg>
