<?xml version="1.0" standalone="no"?>
<!DOCTYPE svg PUBLIC "-//W3C//DTD SVG 1.1//EN" "http://www.w3.org/Graphics/SVG/1.1/DTD/svg11.dtd" >
<svg xmlns="http://www.w3.org/2000/svg" xmlns:xlink="http://www.w3.org/1999/xlink" version="1.1" viewBox="-10 0 958 1000">
   <path fill="currentColor"
d="M885 265q21 0 37 16t16 36v209q0 21 -16 36t-37 15v262q0 65 -46 110t-110 46h-520q-65 0 -111 -46t-45 -110v-262q-22 0 -37 -15t-16 -36v-209q0 -21 16 -36t37 -16h122q-19 -40 -19 -78q0 -75 54 -128t129 -54q77 0 130 55q52 -55 130 -55q75 0 129 54t53 128
q0 38 -18 78h122zM834 474v-104h-261v104h261zM416 214v51h105v-51h-105zM521 370h-105v104h105v-104zM599 109q-25 0 -46 15t-28 38q20 3 34 17t14 35v46q15 5 26 5q32 0 55 -23t24 -55t-24 -55t-55 -23zM260 187q0 32 23 55t56 23q11 0 26 -5v-46q0 -20 14 -35t34 -17
q-8 -23 -29 -38t-45 -15q-31 0 -55 23t-24 55zM365 370h-261v104h261v-104zM209 890h156v-364h-209v313q0 21 16 36t37 15zM416 890h105v-364h-105v364zM729 890q21 0 37 -15t15 -36v-313h-208v364h156z" />
</svg>
