<?xml version="1.0" standalone="no"?>
<!DOCTYPE svg PUBLIC "-//W3C//DTD SVG 1.1//EN" "http://www.w3.org/Graphics/SVG/1.1/DTD/svg11.dtd" >
<svg xmlns="http://www.w3.org/2000/svg" xmlns:xlink="http://www.w3.org/1999/xlink" version="1.1" viewBox="-10 0 877 1000">
   <path fill="currentColor"
d="M325 730q0 37 -52 37q-60 0 -60 -35.5t56 -35.5t56 34zM305 470q0 47 -42.5 47t-42.5 -47q0 -50 43 -50q21 0 31 14t11 36zM397 428v-70q-43 16 -75 16q-28 -16 -61 -16q-48 0 -81 32t-33 80q0 28 16 57t41 37v2q-21 9 -21 47q0 30 23 43v2q-63 21 -63 77q0 26 11 44
t30 29t40 14t46 4q125 0 125 -105q0 -37 -27 -55t-71 -25q-15 -3 -28 -12t-14 -22q0 -24 27 -29q43 -8 68 -39t26 -75q0 -13 -6 -29q21 -5 27 -7zM430 662h77q-1 -15 -1 -46v-216q0 -26 1 -38h-77q2 12 2 39v219q0 28 -2 42zM714 653v-68q-16 12 -38 12q-29 0 -29 -46v-125
h44q10 0 14 1v-65h-58q0 -46 1 -57h-78q3 13 3 30v27h-34v65l21 -2h6q5 0 7 1v1h-2v121q0 21 2 36t6 31t14 27t24 18t37 6q36 0 60 -13zM516 259q0 -20 -14 -36t-33 -15t-34 15t-14 36q0 20 14 35t34 15t33 -16t14 -34zM857 232v536q0 66 -47 113t-114 48h-535
q-67 0 -114 -48t-47 -113v-536q0 -66 47 -113t114 -48h535q67 0 114 48t47 113z" />
</svg>
