<?xml version="1.0" standalone="no"?>
<!DOCTYPE svg PUBLIC "-//W3C//DTD SVG 1.1//EN" "http://www.w3.org/Graphics/SVG/1.1/DTD/svg11.dtd" >
<svg xmlns="http://www.w3.org/2000/svg" xmlns:xlink="http://www.w3.org/1999/xlink" version="1.1" viewBox="-10 0 1010 1000">
   <path fill="currentColor"
d="M332 845q0 -56 -92 -56q-88 0 -88 57.5t96 57.5q84 0 84 -59zM299 423q0 -34 -17 -56t-49 -23q-69 0 -69 81q0 75 69 75q66 0 66 -77zM449 243v112q-20 7 -44 13q9 24 9 47q0 70 -41 120t-110 63q-22 5 -33 15t-11 33q0 17 13 28t32 18t44 12t48 15t44 21t32 35t13 55
q0 170 -203 170q-38 0 -72 -7t-65 -23t-49 -46t-18 -71q0 -92 102 -125v-3q-38 -22 -38 -70q0 -61 35 -76v-3q-40 -13 -66 -60t-27 -93q0 -77 53 -129t131 -51q54 0 100 26q54 0 121 -26zM627 734h-124q2 -25 2 -74v-340q0 -53 -2 -72h124q-3 19 -3 69v343q0 49 3 74z
M962 610v110q-40 22 -97 22q-35 0 -60 -12t-39 -27t-22 -44t-10 -51t-2 -58v-196h1v-2h-11q-7 0 -10 -1q-12 0 -33 3v-106h54v-42q0 -30 -4 -50h127q-3 23 -3 92h95v106q-8 0 -24 -1t-24 -1h-47v204q0 73 48 73q34 0 61 -19zM641 82q0 32 -22 57t-54 24.5t-54 -24.5
t-22.5 -57t21.5 -57t55 -24.5t54 24.5t22 57z" />
</svg>
