<?xml version="1.0" standalone="no"?>
<!DOCTYPE svg PUBLIC "-//W3C//DTD SVG 1.1//EN" "http://www.w3.org/Graphics/SVG/1.1/DTD/svg11.dtd" >
<svg xmlns="http://www.w3.org/2000/svg" xmlns:xlink="http://www.w3.org/1999/xlink" version="1.1" viewBox="-10 0 949 1000">
   <path fill="currentColor"
d="M357 679q0 22 -7 45t-24 43t-40 19t-41 -19t-24 -43t-7 -45t7 -46t24 -43t41 -19t40 19t24 43t7 46zM714 679q0 22 -7 45t-24 43t-40 19t-41 -19t-24 -43t-7 -45t7 -46t24 -43t41 -19t40 19t24 43t7 46zM804 679q0 -67 -39 -114t-104 -47q-23 0 -109 12q-40 6 -88 6
t-87 -6q-85 -12 -109 -12q-66 0 -104 47t-39 114q0 49 18 85t45 58t68 33t78 17t83 4h94q46 0 83 -4t78 -17t69 -33t45 -58t18 -85zM929 580q0 116 -34 185q-22 43 -59 74t-79 48t-95 27t-96 12t-93 3q-43 0 -79 -2t-82 -7t-85 -17t-77 -29t-67 -45t-48 -64
q-35 -69 -35 -185q0 -132 76 -221q-15 -45 -15 -95q0 -64 28 -121q61 0 106 22t106 69q82 -20 172 -20q83 0 157 18q58 -46 104 -67t105 -22q29 57 29 121q0 49 -15 94q76 89 76 222z" />
</svg>
