<?xml version="1.0" standalone="no"?>
<!DOCTYPE svg PUBLIC "-//W3C//DTD SVG 1.1//EN" "http://www.w3.org/Graphics/SVG/1.1/DTD/svg11.dtd" >
<svg xmlns="http://www.w3.org/2000/svg" xmlns:xlink="http://www.w3.org/1999/xlink" version="1.1" viewBox="-10 0 958 1000">
   <path fill="currentColor"
d="M0 500q0 -95 37 -182t100 -149t150 -100t182 -37t182 37t149 100t100 149t37 182t-37 182t-100 150t-149 100t-182 37t-182 -37t-150 -100t-100 -150t-37 -182zM198 531q0 66 19 107q24 44 67 63q46 21 93 26q40 5 93 5q30 0 54 -1q62 -3 110 -22q57 -24 80 -71
q19 -42 19 -107q0 -76 -44 -128q9 -25 9 -54q0 -37 -16 -70q-33 0 -60 12t-61 39q-45 -10 -91 -10q-52 0 -99 11q-37 -28 -63 -40t-59 -12q-17 33 -17 70q0 25 9 55q-43 50 -43 127zM269 588q0 -40 23 -67t60 -26q14 0 62 7q21 4 50.5 4t50.5 -4q51 -7 63 -7q37 0 60 26
t23 67q0 28 -10 49q-19 39 -66 53q-39 11 -93 11h-54q-29 0 -48 -2q-54 -6 -84 -29q-37 -27 -37 -82zM321 588q0 15 4 26q4 15 14 25t23 10.5t24 -10.5q17 -21 17 -51q0 -15 -4 -28t-14 -24t-23 -10.5t-23 11.5q-18 21 -18 51zM527 588q0 15 4 26q4 15 14 25t23 10.5
t24 -10.5q17 -20 17 -51q0 -15 -4 -28t-14 -24t-23 -10t-23 11q-18 20 -18 51z" />
</svg>
