<?xml version="1.0" standalone="no"?>
<!DOCTYPE svg PUBLIC "-//W3C//DTD SVG 1.1//EN" "http://www.w3.org/Graphics/SVG/1.1/DTD/svg11.dtd" >
<svg xmlns="http://www.w3.org/2000/svg" xmlns:xlink="http://www.w3.org/1999/xlink" version="1.1" viewBox="-10 0 959 1000">
   <path fill="currentColor"
d="M0 847q0 63 62 108t150 45t151 -45t62.5 -108.5t-62.5 -108.5t-151 -45h-3q-2 0 -3 1q-24 -22 -24 -48t24 -53q71 -4 120 -55t49 -121q0 -28 -7 -50q28 -5 44 -14v-115q-48 32 -109 32h-7q-46 -31 -101 -31q-75 0 -128 52t-53 126q0 47 24 87t64 64q-28 36 -28 73t26 76
q-46 21 -73 55t-27 75zM121 415q0 -33 22 -57t50 -23q30 0 51 23t21 57t-21 56t-51 24q-29 0 -50 -24t-22 -56zM124 847q0 -27 26 -46t62 -18t63 18t26 46q0 26 -26 45t-63 19t-62 -19t-26 -45zM455 81q0 -34 24 -58t57 -23t58 23t24 58t-24 58t-58 24t-57 -24t-24 -58z
M474 728v-479h134v479h-134zM655 351h55v285q4 30 20 51t34 32t38 16t30 7h20q27 0 49 -8t29 -16l7 -9l2 -99q-42 13 -65 13q-5 0 -9 -1q-23 -3 -27 -16l-4 -13q0 -3 -1 -4v-238h91v-102h-91v-93h-123v93h-55v102z" />
</svg>
