<?xml version="1.0" standalone="no"?>
<!DOCTYPE svg PUBLIC "-//W3C//DTD SVG 1.1//EN" "http://www.w3.org/Graphics/SVG/1.1/DTD/svg11.dtd" >
<svg xmlns="http://www.w3.org/2000/svg" xmlns:xlink="http://www.w3.org/1999/xlink" version="1.1" viewBox="-10 0 957 1000">
   <path fill="currentColor"
d="M0 500q0 130 63 235q63 109 171 171t235 62.5t235.5 -62.5t170.5 -171t62 -236t-62 -234q-63 -109 -171 -171t-235 -62q-130 0 -235 63q-109 63 -171 171t-63 234zM78 500q0 -78 31 -151t84 -125.5t125 -83.5t151 -30t150 30t126 84q53 53 83 125t31 151q0 84 -34 160
t-97 132t-142 80v-138q0 -51 -42 -80q103 -9 150 -52t48 -136q0 -72 -45 -121q9 -27 9 -51q0 -36 -16 -67q-33 0 -59 11t-63 37q-46 -10 -94 -10q-55 0 -103 11q-37 -27 -63 -38t-61 -11q-16 31 -16 67q0 25 9 51q-45 48 -45 121q0 93 48 136t151 52q-27 19 -38 54
q-24 8 -50 8q-19 0 -34 -8q-4 -3 -8 -5t-7 -7t-7 -6t-6 -8t-5 -7t-6 -7t-5 -7q-23 -30 -55 -30q-17 0 -17 7q0 3 9 10l16 14q12 10 13 12q14 18 22 39q27 61 93 61q11 0 42 -5v103q-80 -25 -142 -80t-96 -132t-35 -160z" />
</svg>
