<?xml version="1.0" standalone="no"?>
<!DOCTYPE svg PUBLIC "-//W3C//DTD SVG 1.1//EN" "http://www.w3.org/Graphics/SVG/1.1/DTD/svg11.dtd" >
<svg xmlns="http://www.w3.org/2000/svg" xmlns:xlink="http://www.w3.org/1999/xlink" version="1.1" viewBox="-11 0 959 1000">
   <path fill="currentColor"
d="M0 500q0 -95 37 -182t100 -149t150 -100t182 -37t181 37t150 100t100 149t37 182t-37 182t-100 150t-150 100t-181 37t-182 -37t-150 -100t-100 -150t-37 -182zM184 697q0 32 18 53t47 29q26 7 59 7q122 0 122 -102q0 -25 -13 -42t-34 -25q-2 0 -17 -5t-24 -6
q-48 -12 -48 -35t27 -28q42 -8 67 -39t24 -73q0 -12 -5 -28l26 -8v-68q-42 16 -73 16q-28 -16 -61 -16q-47 0 -79 31t-33 78q0 29 17 57t40 36v1q-21 10 -21 47q0 29 23 42v2q-62 21 -62 76zM253 693q0 -35 53 -35q57 0 57 35t-52 35q-58 0 -58 -35zM260 437q0 -49 42 -49
q19 0 30 13t11 35q0 47 -41.5 47t-41.5 -46zM457 229q0 20 14 35t33 14t32 -15t13.5 -34t-12.5 -35t-33 -15t-33 15t-14 35zM466 625h75q-1 -22 -1 -49v-204q0 -23 1 -42h-75q2 18 2 43v207q0 25 -2 45zM573 394l20 -2h7q3 1 6 1v1h-1v119q0 41 7 66q11 33 38 44q16 7 36 7
q34 0 59 -14v-66q-17 11 -37 11q-29 0 -29 -45v-123h43q7 0 14 1v-64h-57q0 -45 1 -56h-76q2 12 2 30v26h-33v64z" />
</svg>
