<?xml version="1.0" standalone="no"?>
<!DOCTYPE svg PUBLIC "-//W3C//DTD SVG 1.1//EN" "http://www.w3.org/Graphics/SVG/1.1/DTD/svg11.dtd" >
<svg xmlns="http://www.w3.org/2000/svg" xmlns:xlink="http://www.w3.org/1999/xlink" version="1.1" viewBox="-10 0 1021 1000">
   <path fill="currentColor"
d="M0 500q0 -207 147 -354t353 -146t354 146t146 354t-146 354t-354 146t-353 -146t-147 -354zM55 500q0 183 131 314t314 131t314 -131t131 -314t-131 -315t-314 -130t-314 130t-131 315zM195 607q-4 -4 0 -7q8 -8 20 -6t14 4q13 5 30 26t26 28q47 39 96 6q4 -14 13 -23
t16 -14t28 -12q-65 -6 -105 -22t-63 -42q-32 -35 -39 -92t9 -103q12 -30 33 -53q-15 -49 6 -112q63 4 114 43q97 -25 203 -2q13 -9 42 -24t71 -17q8 22 11 51t-3 55q45 47 47 125q0 62 -22 103t-76 69q-37 17 -98 21q28 14 40 29t17 45v62l2 60q6 9 14 16t13 10t4 9t-15 6
q-34 0 -53 -24q-6 -10 -6 -23v-94q0 -16 -8 -22t-15 -9v123q0 33 7 43t10 19q2 2 -3 3t-16 -3q-26 -5 -36 -26t-9 -44v-121h-26v121q0 23 -9 45q-14 27 -51 29q-6 -2 -5 -4t11 -19q2 -4 4 -16t3 -27v-123q-7 2 -14 9t-7 22v94q0 13 -6 23q-17 24 -53 24q-13 0 -15 -5t1 -8
l8 -7l8 -6q8 -6 12 -15q6 -8 3 -41t-1 -43q-51 17 -104 -18q-15 -16 -31 -45q-11 -21 -47 -51z" />
</svg>
