<?xml version="1.0" standalone="no"?>
<!DOCTYPE svg PUBLIC "-//W3C//DTD SVG 1.1//EN" "http://www.w3.org/Graphics/SVG/1.1/DTD/svg11.dtd" >
<svg xmlns="http://www.w3.org/2000/svg" xmlns:xlink="http://www.w3.org/1999/xlink" version="1.1" viewBox="-10 0 877 1000">
   <path fill="currentColor"
d="M290 670q2 -4 -2.5 -8t-7 -0.5t2 7t7.5 1.5zM274 647q-3 -4 -7 -3q-3 3 0.5 7.5t6.5 2.5t0 -7zM251 624q1 -2 -3 -3.5t-4 0.5q-2 3 2.5 4.5t4.5 -1.5zM263 637q1 0 1 -2t-2 -3q-4 -4 -6 -2t1 5.5t6 1.5zM311 679q1 -4 -4.5 -6t-7.5 2t4 6t8 -2zM334 681q0 -5 -6 -5t-6 5
t6 4t6 -4zM356 677q-1 -4 -7 -3t-5 5.5t6 2.5t6 -5zM714 500q0 -118 -83 -202t-202 -84t-202 84t-84 202q0 93 55 168t140 103q10 2 15 -3t5 -11q0 -29 -1 -53l-8 2q-5 1 -20 1t-27 -3t-24 -11t-17 -23q-13 -33 -32 -41l-7 -7l-3 -5q-3 -5 2 -4t11 -2q3 0 8 1t17 9t18 20
q9 15 21 23t24 8t22 -2t16 -5q4 -27 19 -39q-28 -3 -48 -10t-41 -22t-31 -42t-11 -67q0 -44 30 -77q-14 -34 3 -75q10 -4 30 4t34 16l14 9q33 -9 72 -9t71 9l16 -10q10 -6 31 -14t32 -5q16 41 3 75q29 33 29 77q0 32 -8 56t-20 39t-29 25t-35 14t-38 7q19 17 19 53v50
q0 28 -1 28q0 7 5 11t15 3q86 -29 141 -103t54 -168zM857 232v536q0 66 -47 113t-114 48h-535q-67 0 -114 -48t-47 -113v-536q0 -66 47 -113t114 -48h535q67 0 114 48t47 113z" />
</svg>
