<?xml version="1.0" standalone="no"?>
<!DOCTYPE svg PUBLIC "-//W3C//DTD SVG 1.1//EN" "http://www.w3.org/Graphics/SVG/1.1/DTD/svg11.dtd" >
<svg xmlns="http://www.w3.org/2000/svg" xmlns:xlink="http://www.w3.org/1999/xlink" version="1.1" viewBox="-10 0 946 1000">
   <path fill="currentColor"
d="M0 854q0 -92 102 -128v-1q-38 -22 -38 -71q0 -60 36 -76v-2q-36 -12 -63 -55q-29 -45 -29 -97q0 -80 55 -133q54 -49 128 -49q53 0 100 27q53 0 121 -27v113q-15 6 -43 12q8 26 8 47q0 70 -42 122t-108 62q-45 7 -45 46q0 16 15 30q18 21 55 25q156 26 156 131
q0 170 -203 170q-84 0 -137 -29q-68 -37 -68 -117zM115 848q0 56 96 56q84 0 84 -60q0 -55 -92 -55q-88 0 -88 59zM127 424q0 76 67.5 76t67.5 -76q0 -33 -16 -55q-17 -25 -51 -25q-68 0 -68 80zM451 81q0 -34 23 -58t53 -23t54 23t23 58t-23 58t-54 23t-53 -23t-23 -58z
M465 734q4 -21 4 -74v-342q0 -50 -4 -70h125q-2 21 -2 68v336q0 57 2 82h-125zM643 353v-105h52v-43q0 -31 -4 -49h127q-2 22 -2 47v45h94v105l-18 -1q-14 -1 -29 -1h-47v204q0 74 47 74q35 0 63 -20v112q-41 21 -98 21q-80 0 -111 -57q-22 -43 -22 -134v-200h-15
q-16 0 -37 2z" />
</svg>
