<?xml version="1.0" standalone="no"?>
<!DOCTYPE svg PUBLIC "-//W3C//DTD SVG 1.1//EN" "http://www.w3.org/Graphics/SVG/1.1/DTD/svg11.dtd" >
<svg xmlns="http://www.w3.org/2000/svg" xmlns:xlink="http://www.w3.org/1999/xlink" version="1.1" viewBox="-10 0 944 1000">
   <path fill="currentColor"
d="M527 0q-31 0 -53.5 23.5t-22.5 58t22.5 58t53.5 23.5t53 -23.5t22 -58t-22 -58t-53 -23.5zM691 156q3 19 3 49v43h-53v106q23 -3 37 -3l16 1v2h-1v196q0 91 23 134q30 57 110 57q58 0 98 -22v-109q-28 19 -61 19q-49 0 -49 -74v-203h47q19 0 28.5 1t20.5 1v-106h-96v-45
q0 -19 4 -47h-127zM190 243q-75 0 -128 49q-55 52 -55 131q0 53 30 98q27 43 63 55v2q-35 15 -35 77q0 46 37 70v2q-102 34 -102 126q0 79 68 117q55 29 136 29q203 0 203 -169q0 -106 -157 -130q-36 -6 -54 -27q-14 -13 -14 -28q0 -41 43 -47q68 -11 109.5 -62t41.5 -122
q0 -22 -9 -47q30 -6 44 -12v-112q-70 26 -121 26q-45 -26 -100 -26v0zM465 248q2 26 2 71v340q0 46 -2 74h123q-2 -32 -2 -80v-336q0 -41 2 -69h-123zM195 343q32 0 51 25q15 24 15 55q0 77 -66 77q-69 0 -69 -76q0 -81 69 -81zM202 788q92 0 92 56q0 59 -84 59
q-96 0 -96 -57.5t88 -57.5v0z" />
</svg>
