<?xml version="1.0" standalone="no"?>
<!DOCTYPE svg PUBLIC "-//W3C//DTD SVG 1.1//EN" "http://www.w3.org/Graphics/SVG/1.1/DTD/svg11.dtd" >
<svg xmlns="http://www.w3.org/2000/svg" xmlns:xlink="http://www.w3.org/1999/xlink" version="1.1" viewBox="-11 0 960 1000">
   <path fill="currentColor"
d="M469 969q-194 0 -331 -138t-138 -331t138 -332t331 -137t331 137t138 332t-138 331t-331 138zM469 135q-151 0 -258 107t-107 258t107 258t258 107t258 -107t107 -258t-107 -258t-258 -107zM516 578q0 -17 10 -31t24 -14.5t23 14.5t10 31t-9 32t-24 13t-24 -13t-10 -32z
M425 697q-190 0 -190 -185q0 -57 38 -99q-5 -2 -2 -41q4 -37 18 -71q50 6 116 52q25 -6 65 -6t63 6q62 -43 103 -50l13 -2q14 34 17 71q4 39 -1 41q38 42 38 99q0 185 -190 185l-22 1q-19 1 -22 0t-22 0t-22 -1zM470 675q86 0 128 -20q43 -22 43 -84q0 -28 -17 -50t-44 -28
q-11 -1 -59 2t-51 2q-14 0 -40 -2t-42 -2t-35 3t-29 14q-26 22 -26 61q0 64 41.5 84t128.5 20h2zM389 532q14 0 23 15t9 31t-9 32t-23 13q-15 0 -25 -13t-9 -32t9 -31t25 -15z" />
</svg>
