<?xml version="1.0" standalone="no"?>
<!DOCTYPE svg PUBLIC "-//W3C//DTD SVG 1.1//EN" "http://www.w3.org/Graphics/SVG/1.1/DTD/svg11.dtd" >
<svg xmlns="http://www.w3.org/2000/svg" xmlns:xlink="http://www.w3.org/1999/xlink" version="1.1" viewBox="-10 0 957 1000">
   <path fill="currentColor"
d="M0 545q0 117 35 187q38 74 117 109q80 38 163 47q75 9 162 9q38 0 94 -3q48 -3 101 -13t92 -26q44 -19 81 -50t58 -73q34 -70 34 -187q0 -134 -77 -224q16 -45 16 -95q0 -66 -29 -123q-58 0 -103 21t-109 69q-76 -18 -158 -18q-89 0 -173 20q-64 -51 -110 -71t-104 -21
q-28 57 -28 123q0 50 15 96q-77 90 -77 223zM126 644q0 -70 40 -116t104 -46q26 0 110 12q43 6 89 6t88 -6q86 -12 110 -12q65 0 105 46t39 116q0 49 -18 86t-45 58t-69 34q-69 21 -163 21h-95q-46 0 -84 -5q-40 -3 -80 -17t-67 -33q-29 -22 -46 -60t-18 -84zM216 644
q0 23 8 46q7 25 25 44t39 18q24 0 41 -19q31 -36 31 -89q0 -23 -6 -46q-7 -26 -25 -44t-41 -18t-41 19q-31 34 -31 89zM577 644q0 23 7 46q8 25 25 44t40.5 18.5t40.5 -19.5q31 -36 31 -89q0 -21 -7 -46.5t-25 -43.5t-41 -18t-39 19q-32 34 -32 89z" />
</svg>
