<?xml version="1.0" standalone="no"?>
<!DOCTYPE svg PUBLIC "-//W3C//DTD SVG 1.1//EN" "http://www.w3.org/Graphics/SVG/1.1/DTD/svg11.dtd" >
<svg xmlns="http://www.w3.org/2000/svg" xmlns:xlink="http://www.w3.org/1999/xlink" version="1.1" viewBox="-10 0 877 1000">
   <path fill="currentColor"
d="M429 71q116 0 215 58t156 156t57 215q0 140 -82 252t-211 155q-15 3 -22 -4t-7 -17v-118q0 -54 -29 -79q32 -3 57 -10t53 -22t45 -37t30 -58t11 -84q0 -67 -44 -115q21 -51 -4 -114q-16 -5 -46 6t-51 25l-21 13q-52 -15 -107 -15t-108 15q-8 -6 -23 -15t-47 -22t-47 -7
q-25 63 -5 114q-44 48 -44 115q0 47 12 83t29 59t45 37t52 22t57 10q-21 20 -27 58q-12 5 -25 8t-32 3t-36 -12t-31 -35q-11 -18 -27 -29t-28 -14l-11 -1q-12 0 -16 2t-3 7t5 8t7 6l4 3q12 6 24 21t18 29l6 13q7 21 24 34t37 17t39 3t31 -1l13 -3v50q0 28 1 30q0 10 -8 17
t-22 4q-129 -43 -211 -155t-82 -252q0 -117 58 -215t155 -156t216 -58zM162 687q2 -4 -3 -7q-6 -1 -8 1q-1 4 4 7t7 -1zM180 706q4 -3 -1.5 -8.5t-9 -2.5t1.5 9t9 2zM196 731q6 -4 1 -11t-10 -3.5t0 10.5t9 4zM220 754q4 -4 -2.5 -10.5t-11 -1.5t2 11t11.5 1zM252 768
q1 -6 -7.5 -8.5t-10.5 3.5t6.5 9t11.5 -4zM287 771q0 -7 -9.5 -6.5t-9.5 7t9.5 6t9.5 -6.5zM319 766q-1 -7 -10 -5.5t-8 8.5t10 4t8 -7z" />
</svg>
