<?xml version="1.0" standalone="no"?>
<!DOCTYPE svg PUBLIC "-//W3C//DTD SVG 1.1//EN" "http://www.w3.org/Graphics/SVG/1.1/DTD/svg11.dtd" >
<svg xmlns="http://www.w3.org/2000/svg" xmlns:xlink="http://www.w3.org/1999/xlink" version="1.1" viewBox="-10 0 1248 1000">
   <path fill="currentColor"
d="M1079 -1q-34 -1 -83 16q-71 24 -156 81q-101 -26 -219 -26q-129 0 -243 31q-52 -35 -99 -59q-40 -20 -75 -31q-28 -8 -52 -11q-18 -2 -31 -1l-10 2q-34 85 -29 169q4 50 19 87q-101 109 -101 260q0 125 31 214l3 8q8 18 17 37l4 8q48 90 143 142q101 55 261 73h331
q169 -17 266 -72q90 -52 131 -144l3 -7q7 -16 21 -66q17 -58 17 -193q0 -84 -30 -155q-29 -68 -83 -121q13 -43 13 -93q0 -73 -30 -147l-5 -1q-6 -1 -14 -1zM818 420q45 0 75 9q35 11 60 37v0q33 35 51 75.5t18 83.5q0 100 -31 161q-29 56 -85 85q-49 25 -127 33
q-52 6 -155 6q-124 0 -200 -19q-95 -24 -143 -83q-54 -66 -54 -183q0 -43 17.5 -83.5t50.5 -74.5q25 -27 62 -38q31 -9 78 -9q25 1 88.5 6t100.5 5t102 -5.5t92 -5.5zM410 502q-23 0 -42 18.5t-30 50t-11 69t11 69t30 50t41.5 18.5t41.5 -18.5t30 -50t11 -69t-11 -69
t-30 -50t-41 -18.5zM853 502q-22 0 -41 18.5t-30 50t-11 69t11 69t30 50t41.5 18.5t41.5 -18.5t30 -50t11 -69t-11 -69t-30 -50t-42 -18.5z" />
</svg>
