<?xml version="1.0" standalone="no"?>
<!DOCTYPE svg PUBLIC "-//W3C//DTD SVG 1.1//EN" "http://www.w3.org/Graphics/SVG/1.1/DTD/svg11.dtd" >
<svg xmlns="http://www.w3.org/2000/svg" xmlns:xlink="http://www.w3.org/1999/xlink" version="1.1" viewBox="-11 0 879 1000">
   <path fill="currentColor"
d="M431 727l196 -264q9 -13 13 -33t-3 -48t-34 -44q-23 -14 -47 -14t-41 10t-30 25q-20 22 -53.5 22t-53.5 -22q-13 -16 -30 -25t-41 -10t-47 14q-26 17 -34 44t-3 48t14 33zM857 500q0 117 -57 215t-156 156t-215 58t-216 -58t-155 -156t-58 -215t58 -215t155 -156t216 -58
t215 58t156 156t57 215z" />
</svg>
