<?xml version="1.0" standalone="no"?>
<!DOCTYPE svg PUBLIC "-//W3C//DTD SVG 1.1//EN" "http://www.w3.org/Graphics/SVG/1.1/DTD/svg11.dtd" >
<svg xmlns="http://www.w3.org/2000/svg" xmlns:xlink="http://www.w3.org/1999/xlink" version="1.1" viewBox="-10 0 866 1000">
   <path fill="currentColor"
d="M415 170q0 -13 -1 -21t-5 -17t-11 -13t-21 -4q-22 0 -44 13q-58 32 -89 106t-30 150q0 25 5 48t15 45t29 35t46 13h21q3 0 9 -1t8 -5l4 -9l54 -258q10 -51 10 -82zM836 536q0 4 -4 8t-9 3h-3l-75 -13q-17 -3 -35 -3q-93 0 -196 52q-8 5 -12 15q-5 20 -13 59t-13 56
q-13 51 -39 100t-63 92t-86 69t-103 26q-76 0 -120 -47t-44 -122q0 -30 11 -65t35 -65t54 -30q21 0 67 19t46 34q0 1 -9 7t-22 18t-25 24t-22 34t-9 42q0 18 9 29t27 12q25 0 48 -18t37 -44t26 -59t19 -59t8 -50v-5q0 -2 -1 -2l-5 -1h-11q-5 0 -4 0q-126 0 -196 -68
t-70 -195q0 -60 19 -123t54 -117t87 -94t114 -49q29 -5 59 -5q209 0 209 200q0 55 -21 153t-24 117l1 2q57 -32 102 -49t94 -17q12 0 29 7q11 4 45 57t34 65z" />
</svg>
