<?xml version="1.0" standalone="no"?>
<!DOCTYPE svg PUBLIC "-//W3C//DTD SVG 1.1//EN" "http://www.w3.org/Graphics/SVG/1.1/DTD/svg11.dtd" >
<svg xmlns="http://www.w3.org/2000/svg" xmlns:xlink="http://www.w3.org/1999/xlink" version="1.1" viewBox="-10 0 877 1000">
   <path fill="currentColor"
d="M483 287q0 15 -7 53l-18 83q-12 55 -17 84q-1 6 -2 7t-8 2q-11 1 -17 1q-32 0 -47 -28t-14 -63q0 -49 19 -97t58 -70q15 -7 28 -7q16 0 21 9t4 26zM755 524q0 -8 -22 -42t-29 -37q-12 -5 -19 -5q-51 0 -126 43l-1 -1q1 -12 15 -75t14 -100q0 -130 -135 -130q-14 0 -38 4
q-53 9 -94 50t-63 93t-20 105q0 82 45 126t127 44q13 0 13 1v3q-2 19 -15 65q-7 29 -28 57t-45.5 27.5t-24.5 -26.5q0 -13 6 -27t14 -22t16 -15t15 -12t6 -4q0 -2 -4 -6q-13 -12 -32 -20t-38 -8t-34 19t-23 41t-7 42q0 49 28 79t78 31q46 0 86 -30t66 -70t36 -86
q4 -12 9 -37t8 -37q2 -7 8 -10q66 -33 127 -33q26 0 70 10h3q2 0 5 -2t3 -5zM857 232v536q0 66 -47 113t-114 48h-535q-67 0 -114 -48t-47 -113v-536q0 -66 47 -113t114 -48h535q67 0 114 48t47 113z" />
</svg>
