<?xml version="1.0" standalone="no"?>
<!DOCTYPE svg PUBLIC "-//W3C//DTD SVG 1.1//EN" "http://www.w3.org/Graphics/SVG/1.1/DTD/svg11.dtd" >
<svg xmlns="http://www.w3.org/2000/svg" xmlns:xlink="http://www.w3.org/1999/xlink" version="1.1" viewBox="-10 0 958 1000">
   <path fill="currentColor"
d="M0 500q0 -95 37 -182t100 -149t150 -100t182 -37t182 37t149 100t100 149t37 182q0 95 -37 182t-100 150t-149 100t-182 37t-182 -37t-150 -100t-100 -150t-37 -182zM88 500q0 76 29 146t79 119t118 82t143 33q-7 -8 -11 -33q-1 -7 -2 -25t-4 -27q-1 -7 -17 -55
q-5 -15 -11 -19t-23 -5q-8 -1 -24 -1t-28 -1l-26 -2q-14 -1 -24 -6l-21 -10q-11 -5 -17 -18t-8 -26q-11 -62 38 -103q25 -21 52 -28t64 -6q24 0 42 14q22 18 44 19q5 0 22 2t28 2t26 -1t23 -7v-7l1 -7q1 -5 1 -10v-7q0 -2 -6 -6q-4 -2 -20 -1t-20 -4q-8 -8 3 -16t30 -16
t21 -10q14 -14 -5.5 -18t-38.5 4l-7 4q-8 8 -17 29q-3 6 -9 16l-9 15l-6 -6q-4 -4 -5 -6q-3 -3 -11 -20l-3 -6q-2 -4 -2 -6t-3 -7t-4 -4t-5 -3t-7 0q-1 11 7 23t7 20q1 13 -5 12t-15 -13l-10 -18q-2 -3 -6 -6t-9 -4t-12 0q-13 2 -20 7l-7 8q-5 6 -10 8q-3 17 -27 16h-6
q-5 0 -8 -1t-8 -1t-7 -2l-4 -4q-3 -5 2 -21t8 -21t11 -7t19 -1l13 1q2 -9 -4 -17t-8 -10q-1 -5 -1 -8t3 -4t7 -1h13q18 -4 30 -16l13 -10l6 -2q6 -2 5 -2t6 1q2 1 6 5t6 4q4 1 16.5 -3t18.5 -10t13 -18q13 -20 4 -34q-6 -9 -15 -6t-14 12q-2 3 -3 11t-4 12l-6 8q-5 4 -15 4
t-17 -2q-4 -2 -6 -6t-2 -7v-10q0 -7 1 -9q0 -4 1 -7l2 -6q1 -3 4 -6l14 -14q8 -8 16 -12t20 -4t17 1l20 4q15 3 18 4q17 3 36 -18q3 -4 9 -8t8 -9t2 -11l-1 -24l-2 -28q-1 -11 2 -26t7 -23q-62 -23 -128 -23q-47 0 -95 12v2q0 19 2 21q4 6 16 8t22 2t18 7t5 18q-4 14 -19 30
t-32 29q-20 15 -49 18l-13 2h-17q-3 0 -8 -1l-7 -1q-2 0 -6 -3t-4 -6t-1 -7q1 -8 9 -16t17 -10t21 -7t17 -5q1 -12 -4 -17t-12 -1t-16 5t-18 6t-14 -1q-3 -8 5 -13t9 -7q5 -11 -8 -19q-29 16 -53 35q11 2 17 6t7 15q0 4 -2 8t-5 6t-6 6t-6 5q-14 14 -21 25q-3 4 -7 21
t-11 21q-12 7 -16 1t-5 -19v-8l-1 -3q-1 -3 -4 -2q-6 -2 -18 1q-68 97 -68 216zM581 572q-1 31 20 54q27 27 52 32q11 2 29 -2t25 -3q0 17 -19 53q-22 37 -33 48q-2 3 -7 7l-7 6q-2 2 -5 7l-4 6q-1 1 -1 8t2 9l4 9q3 7 3 8l-1 9q-1 4 -4 6l-6 4q-3 2 -7 3l-11 9q-7 6 -13 9
t-12 8q116 -38 190 -138t74 -224q0 -12 -2 -36q-4 5 -5 12q-2 17 -2 21l1 14q1 11 0 18t-4 11t-6 5t-8 -2t-7 -6t-7 -7t-7 -5q-8 -6 -14 -9l-13 -6q-7 -3 -15 -2t-15 4q-18 9 -39 9h-11q-7 0 -13 -1t-11 1l-10 4q1 11 8 20t17 10q5 0 7 -2t5 -4t5 -5q7 -5 23 -4q1 26 0 31
t-7 12t-6 13l-1 9l-2 11q-1 4 -4 7t-7 9q-7 6 -17 9t-17 -3q-3 -2 -8 -9t-9 -11q-3 -2 -5 -4l-5 -5q-3 -3 -4 -5t-4 -5t-4 -7q-6 -8 -21 -18t-19 -14q-4 2 -5 4t-1 8z" />
</svg>
