<?xml version="1.0" standalone="no"?>
<!DOCTYPE svg PUBLIC "-//W3C//DTD SVG 1.1//EN" "http://www.w3.org/Graphics/SVG/1.1/DTD/svg11.dtd" >
<svg xmlns="http://www.w3.org/2000/svg" xmlns:xlink="http://www.w3.org/1999/xlink" version="1.1" viewBox="-11 0 960 1000">
   <path fill="currentColor"
d="M469 31q194 0 331 137t138 332t-138 331t-331 138t-331 -138t-138 -331t138 -332t331 -137zM469 343q0 44 -6 76t-13 47t-15 23t-12 9l-7 2v-157q0 -42 21 -73t58 -30q34 0 54 -26t24 -63q-49 -15 -104 -15q-105 0 -191 53t-133 143q20 19 58 58l57 58q0 -6 1 -15t15 -23
t37 -14v104l103 105v103q49 0 70 1t46 6t32 16t9 30q32 -16 44 -23t28 -20t19 -22t9 -33t5 -45v-66l51 -52l-51 -52v104h-53q0 21 -16 37t-36 16t-37 -16t-15 -37t15 -37t37 -15v-157q0 -21 -15 -36t-37 -15t-37 15t-15 36zM625 448q0 -20 15 -36t37 -16t37 15l52 52
q15 15 15 37t-15 37l-37 36q-1 113 -22 151t-111 83q-10 5 -22 5q-21 0 -36 -14t-17 -33q-13 -4 -105 -4q-21 0 -36 -16t-15 -37v-82l-241 -241q-20 57 -20 115q0 151 107 258t258 107t258 -107t107 -258q0 -109 -58 -198t-153 -132q-10 55 -44 87q46 31 46 86v105z" />
</svg>
