<?xml version="1.0" standalone="no"?>
<!DOCTYPE svg PUBLIC "-//W3C//DTD SVG 1.1//EN" "http://www.w3.org/Graphics/SVG/1.1/DTD/svg11.dtd" >
<svg xmlns="http://www.w3.org/2000/svg" xmlns:xlink="http://www.w3.org/1999/xlink" version="1.1" viewBox="-10 0 1021 1000">
   <path fill="currentColor"
d="M0 500q0 -207 147 -354t353 -146t354 146t146 354t-146 354t-354 146t-353 -146t-147 -354zM125 443q22 28 47 43t65 30t58 21q4 6 15 15t14 10q0 6 -2 16q-2 22 1 39t8 27t16 29l16 28q2 6 0 14l-8 64q-6 49 -7 76q39 24 76 26q4 -8 8 -17t8 -21t13 -29q0 -13 5 -25
t11 -18.5t13 -12.5q20 -16 36 -32t17 -25q8 -31 10 -68q0 -12 -9 -20t-20 -15q-18 -8 -46 -35t-42 -32q-18 -8 -34 -9t-31 1q-13 4 -33 2q-4 -6 -8 -8q-8 -3 -2 -9q4 -8 -3 -11t-14 -1q-8 -23 -8 -37q14 12 23 17t18 8t14 2q9 -4 11 -19t-2 -43q4 -4 4 -8q4 -18 11 -23t7 -6
q4 0 4 -2q4 -2 15 -4l20 -6q8 -4 4 -12h-2q17 -10 35 -41q-12 -19 -35 -31q-8 -10 -20 -6q-5 0 -14 -6t-13 -8t-12 -3q-13 -8 -26 -21t-21 -26q-3 -10 -17 -14q-10 -2 -20 -2h-11q-55 43 -93 104t-50 134zM381 146q25 14 60 26t69 12q23 0 51 -16q27 -20 76 -10q8 2 13 2
q-35 -16 -74 -23t-80 -8q-60 0 -115 17zM545 529q4 26 19 39q12 12 26 14t25 0t28 2q7 4 9 4q-6 13 -4 21q0 4 6 19t6 24q-4 49 1 61t13 33t14 33q3 8 13 10q20 4 47 -23q20 -24 23 -51q2 -10 8 -22t10 -25q2 -6 0 -14q14 -21 14 -39v-14q2 -3 9 -10t12 -11q6 -23 2 -31
q0 -2 -4 -4l-17 -6q11 -25 35 -20l31 -9v-6q0 -90 -36 -163t-99 -126q-101 11 -127 45q-11 19 -15 33l-9 37q-1 5 -5 12t-12 17q-4 4 -4 11t6 19q6 9 6 17q29 0 37 -10l71 6q25 -31 56 0q8 8 18 26l-29 19q-20 -10 -34 -15t-28 -8t-22 -1t-31 4l-36 3l-4 7l-6 7q-6 7 -7 3
q-2 4 -2 10v8q-22 27 -14 64z" />
</svg>
