<?xml version="1.0" standalone="no"?>
<!DOCTYPE svg PUBLIC "-//W3C//DTD SVG 1.1//EN" "http://www.w3.org/Graphics/SVG/1.1/DTD/svg11.dtd" >
<svg xmlns="http://www.w3.org/2000/svg" xmlns:xlink="http://www.w3.org/1999/xlink" version="1.1" viewBox="-10 0 958 1000">
   <path fill="currentColor"
d="M0 500q0 -95 37 -182t100 -149t150 -100t182 -37t182 37t149 100t100 149t37 182q0 95 -37 182t-100 150t-149 100t-182 37t-182 -37t-150 -100t-100 -150t-37 -182zM156 284q14 -3 18 -1l5 5q1 1 0 3v5q1 29 21 18q7 -4 11 -21t6 -21q5 -9 22 -25q2 -1 6 -5l6 -6l5 -6
q3 -4 2 -8q0 -10 -7 -15t-17 -6q-44 35 -78 83zM240 652q3 18 12 30t19 19t28 10t29 3t32 1l29 1q17 1 23 6t11 19l13 37q3 8 4.5 17t3.5 28t2 25q4 24 11 32q2 0 6 1t6 0q59 0 120 -20q7 -4 19 -13t14 -11t7 -3t6 -5t3.5 -6.5t2.5 -6.5t-2 -6t-2 -6t-4 -7l-2 -9q-1 -5 1 -7
t4 -7t5 -6t7 -6t7 -7q13 -13 33 -49t19 -53q-7 0 -25 4t-29 1q-24 -4 -51 -32q-22 -23 -21 -54l1 -8q0 -2 5 -4q5 5 20 15t21 18q2 2 5 7l4 7q1 2 5 5t7 7t9 10t9 10q7 5 17 2t17 -9q4 -3 6 -8t4 -8t2 -11t2 -9q1 -5 6 -12t6 -13t0 -31q-16 0 -23 4q-2 1 -7 7t-10 4
q-11 0 -17 -9t-7 -20q4 -3 10 -4t10 -1h13q9 0 11 1q18 0 39 -9q8 -4 15 -5t15 2t13 6t14 10l7 5q4 3 7 7t7 5l7 2q3 1 6.5 -3.5t4.5 -12.5t0 -18l-1 -14l2 -20l5 -12q-11 -111 -79 -198t-171 -124q-7 11 -9 28t0 43l2 30q0 7 -2 12t-8 8t-9 8q-18 21 -36 18l-18 -4
q-13 -3 -20 -4t-17 -1t-19 4t-17 12q-1 2 -6 6t-6 6l-4 6q-3 4 -4 7t-1 8l-1 9q-1 7 0 10l2 7q1 4 6.5 7t15.5 2t16 -4.5t9 -17.5t4 -14q5 -10 14 -12t15 6q9 13 -4 35q-7 11 -13 17t-19 10q-1 1 -4 2l-6 2q-3 1 -5.5 0t-6.5 -5t-6 -5q-12 -3 -30 14q-14 13 -30 15h-13l-7 1
q-7 1 -3 4t1 8q1 3 7 10t5 17l-10 -1q-7 -1 -13 0l-11 2q-5 1 -8.5 6.5t-8.5 21.5t-2 20q4 8 33 8q24 2 27 -15q4 -2 9 -8t8 -8q7 -6 20 -7q7 -1 12 -1t9 4l6 6q2 2 5 9t5 9q10 15 17 13q4 -1 3 -12q0 -7 -7 -19t-7 -23h8q3 0 6 4l4 6l4 8q3 6 3 7q5 14 10 21l5 4q5 4 6 7
q1 -1 8 -13l10 -18q8 -20 18 -29t35 -9q21 0 21 10q-1 4 -6 9q-3 3 -21 10t-30 16t-3 17q6 5 20 4t19 1t7 6t1 6t-1 10t-2 8v6q-11 7 -28 8t-43 -1t-28 -3q-21 -1 -44 -19q-11 -8 -19 -11t-24 -3q-71 -3 -115 34q-50 42 -39 103zM280 205q7 3 15 1t18 -6t16 -5t12 1t4 17
l-17 5q-13 4 -21 7t-17 11t-9 16q0 4 1 7t4 5t6 3l7 2q4 1 8 0t9 0t8 0t7 -1t6 -1q29 -3 49 -18q44 -33 51 -59q3 -12 -5 -18t-18 -7l-22 -2q-12 -1 -16 -8q-2 -2 -2 -21v-2q-65 21 -87 34q12 9 8 19l-9 7q-8 6 -6 13z" />
</svg>
