<?xml version="1.0" standalone="no"?>
<!DOCTYPE svg PUBLIC "-//W3C//DTD SVG 1.1//EN" "http://www.w3.org/Graphics/SVG/1.1/DTD/svg11.dtd" >
<svg xmlns="http://www.w3.org/2000/svg" xmlns:xlink="http://www.w3.org/1999/xlink" version="1.1" viewBox="-11 0 878 1000">
   <path fill="currentColor"
d="M429 71q116 0 215 58t156 156t57 215t-57 215t-156 156t-215 58t-216 -58t-155 -156t-58 -215t58 -215t155 -156t216 -58zM582 362q-2 1 -6 5t-7 6q1 0 2 -3t3 -6t2 -4q3 -4 11.5 -8t29.5 -7q19 -5 29 6q-1 -1 5 -7t8 -7l8 -3q6 -2 9 -4l1 -12q-7 1 -10 -4t-3 -12
q0 2 -4 5q0 -4 -2 -5t-7 1t-5 1q-5 -2 -8 -5t-5 -9t-2.5 -8.5t-4.5 -5.5t-5 -6l-2 -3q-1 -2 -1 -4t-3 -3l-3 -1l-4 3q-4 3 -4 5t-2 2h-4t-2 1t-3 1t-3.5 2t-3.5 2t-5 1q8 -3 -1 -6q-5 -2 -9 -2q6 -2 5 -6t-5 -8h3q-1 -2 -5 -5t-10 -5t-7 -3q-5 -3 -19 -5t-18 -1q-3 4 -3 6
t2 8l2 7q1 3 -3 7t-3.5 7.5t7.5 8.5t6 12q-2 4 -9 9l-9 6q-3 5 -1 11t6 9q1 1 1 2t-2 3t-3 2t-4 2l-1 1q-7 3 -12 -3t-7 -15q-4 -14 -9 -17q-13 -4 -16 1q-3 -7 -23 -15q-14 -5 -33 -2q4 0 0 -8.5t-10 -6.5q1 -3 2 -10t0 -7q2 -8 7 -13l9 -12q2 -3 1 -4q19 3 28 -6l6 -9
q4 -6 6 -10q5 -3 8 -3t8 3t8 3q8 1 8 -6t-4 -11q7 0 2 -10q-2 -4 -5 -5q-6 -2 -15 3q-4 2 2 4q-1 0 -6 6l-9 10q-4 4 -9 -3l-3 -7q-3 -7 -5 -8q-5 0 -9 9q1 -5 -6 -9t-14 -4q11 -7 -4 -15q-4 -3 -12 -3t-11 2l-3 7q-1 3 3 4t6 3t6 2t5 2q8 6 5 8q-1 0 -5 2t-6 2t-3.5 2.5
t-0.5 7.5t-1 8q-3 -3 -5 -10t-4 -9q4 5 -14 3h-5q-3 0 -9 1t-12 1t-7 -5q-3 -4 0 -11q0 -2 2 -1l-12 -10q-25 8 -52 23q3 0 6 -1t8 -4l5 -3q19 -7 24 -4l3 -2l11 14q-4 -3 -17 -1q-11 3 -12 7q4 6 2 10l-6 -6q-4 -4 -8 -6t-8 -3q-9 0 -13 1q-81 45 -131 124q4 4 6.5 4.5
t3.5 4.5t1 6t6 -1q5 4 2 10q1 0 25 15q10 10 11 12q2 6 -5 10l-5 -5q-4 -4 -5.5 -1.5t0.5 9.5t6 7q-4 0 -5 9l-2 20q-1 11 0 13l1 1q-2 6 3 19t12 11q-7 1 11 24l4 5l7 4l9 6q4 3 5.5 5.5t5.5 12.5t8 13q-2 3 5 11t6 13q-1 0 -2 1t-1 0q2 4 9 8t8 6.5t1 6.5t2 6t4 1
q2 -11 -13 -35q-8 -13 -9.5 -15.5t-3.5 -8.5t-2 -8h3q2 0 5 2l5 4q-1 4 1 10t7 10t10 11t6 7q4 4 8 11t0 8q5 0 11 5t9.5 10.5t4.5 15.5t2.5 13.5t5.5 7.5t7 5l9 5l7 3l22 13q6 2 9 2t8 -1l8 -2q8 -1 16 8t12 12q20 10 30 6q-1 0 1 4l4 9q2 5 5 8t3 5q3 3 10 8t10 8
q4 -2 4 -5q-1 5 4 11t10 6q8 -2 8 -18q-17 8 -27 -10l-2 -3q-2 -3 -2 -5t-1 -4t0 -5t2 -1q5 0 6 -2t-1 -7t-2.5 -8.5t-5.5 -10.5t-7 -8q-3 5 -9 4t-9 -5q0 1 -1 3t-1 4h-8q1 -2 1 -10t2 -13l8 -15q3 -5 2 -7l-3 -5q-2 -3 -9 -1q-11 0 -15 11q-1 2 -2 6t-2 6t-5 4t-14 1
t-13 -3q-8 -4 -13 -16t-5 -19t1 -16l2 -14q1 -5 -3 -14q2 -1 5 -5l5 -6q2 -1 3 -1h3q2 0 2 -1t0.5 -2.5t-1 -2.5t-2.5 -1q4 1 16 -1t15 1q9 6 12 -1l-1 -6q-1 -5 0 -7q3 15 16 5q2 1 9 3t9 2.5t4 2.5l3 3q1 1 3 0t5 -4q5 8 7 13q6 23 10 25t6 1t3 -5t0 -8t-1 -7l-1 -5v-14
q-8 -2 -10 -7t0 -10t9 -10q0 -1 4 -2t9 -4l7 -4q12 -11 8 -20q4 0 6 -5l-2 -2q-2 -2 -5 -2t-2 -2q5 -2 1 -8q3 -2 4 -7t4 -5q5 6 11 1t2 -9q2 -4 11 -6t10 -5q4 1 5 -1t0 -7t1.5 -7t9.5 -5t7 -2l9 -7q2 -2 0 -2q10 1 18 -6q5 -6 -4 -11q2 -4 -1 -5t-9 -4h7q5 0 5 -1
q9 -5 -3 -9q-10 -2 -24 7zM491 852q115 -21 195 -106q-1 -2 -7 -2t-7 -2l-13 -5q1 -4 -1 -7t-5 -5l-21 -15q-1 -1 -4 -2l-5 -2q-2 -1 -5 1l-2 1q-2 0 -3 1l-5 3v2q-12 -10 -20 -13q-3 0 -6 -3t-6 -4t-6 0t-6 3.5t-4 8.5l-1 7q-4 -3 0 -10t2 -10t-7 -2t-6 2l-7 5q-6 4 -5 3
t-4 3t-5 5q-2 2 -4 6t-2 6q-1 -2 -7 -3t-5 -3q1 5 2 19t3 22q4 17 -7 26q-15 14 -16 23q-2 12 7 14q0 4 -5 12t-4.5 11.5t2.5 9.5z" />
</svg>
