<?xml version="1.0" standalone="no"?>
<!DOCTYPE svg PUBLIC "-//W3C//DTD SVG 1.1//EN" "http://www.w3.org/Graphics/SVG/1.1/DTD/svg11.dtd" >
<svg xmlns="http://www.w3.org/2000/svg" xmlns:xlink="http://www.w3.org/1999/xlink" version="1.1" viewBox="-10 0 1021 1000">
   <path fill="currentColor"
d="M0 500q0 -207 147 -354t353 -146t354 146t146 354t-146 354t-354 146t-353 -146t-147 -354zM118 539q5 55 27 107q29 73 84 127t125 84l5 -67q4 -50 8 -77q-4 -16 -22 -51t-21 -57q0 -19 1 -29t1 -16q-4 -1 -10 -7l-7 -8q-8 -8 -12 -10l-34 -12q-22 -8 -33 -11t-29 -12
t-30 -18t-26 -22t-24 -28q-8 52 -3 107zM260 199q17 -2 35 0q18 8 38 31t34 32q4 4 12 4q4 9 23 12t24 7q23 14 37 33q-24 33 -37 39q0 2 2 2q4 8 -4 12q-6 2 -24 6t-23 11t-10 24q0 4 -4 8q4 27 2 49t-13 23q-6 0 -13 -2t-18 -8t-24 -17q0 6 4 14t4 13h6q7 -2 11 3t0 9
l-2 6l-2 2l8 4q10 7 19 7t22 -2q20 -2 31 -2t27 9t22 15t22 17t23 18q4 2 22 13t26 19t9 21q-2 70 -26 95q-7 8 -22 19t-23 21t-14.5 22.5t-6.5 27.5q-6 12 -16 34t-15 29q99 19 194 -12t161 -105q51 -55 76 -121t28 -137l-37 21q-24 -2 -24 8l16 6q4 2 4 4q4 10 -4 21
q-6 12 -29 36q-2 25 -4 33l-10 21v14q-2 8 -9 22t-9 25q-4 27 -23 51q-29 27 -49 23q-8 -2 -14 -10q-4 -13 -13 -37t-12 -29q-4 -10 -4 -20t2 -23t2 -21t-7 -23t-7 -21q-2 -5 4 -19l-9 -3q-8 -3 -32 -3h-12q-44 0 -56 -55q-6 -33 14 -64q1 -4 1 -9v-7q10 -2 18 -19
q8 0 36 -4t42 -5t35 5q8 6 16 10q14 9 23 13l32 -21q-10 -16 -20 -26q-27 -31 -57 0l-68 -5q-16 9 -39 11q-2 -11 -6 -19q-6 -12 -7 -19t3 -11l8 -7q8 -6 11 -17t5 -24t4 -20q5 -14 17 -31q6 -14 23 -22t35 -13t39 -8t38 -4q-37 -31 -76 -53q-12 0 -32 -5t-29 -5
q-21 -2 -49 14q-21 16 -50 16q-37 0 -75 -13t-64 -28q-64 21 -117 64z" />
</svg>
