<?xml version="1.0" standalone="no"?>
<!DOCTYPE svg PUBLIC "-//W3C//DTD SVG 1.1//EN" "http://www.w3.org/Graphics/SVG/1.1/DTD/svg11.dtd" >
<svg xmlns="http://www.w3.org/2000/svg" xmlns:xlink="http://www.w3.org/1999/xlink" version="1.1" viewBox="-10 0 831 1000">
   <path fill="currentColor"
d="M406 95q112 0 206 55q91 53 144 145q55 94 55 204.5t-55 205.5q-53 92 -144 145q-94 55 -205.5 55t-205.5 -55q-92 -54 -146 -145q-55 -95 -55 -205.5t55 -204.5q54 -92 146 -145q94 -55 205 -55zM429 829q42 0 76 -64q21 -37 40 -105q-52 5 -116 7v162zM300 747
q15 36 35 58q23 24 46 24v-162q-65 -2 -115 -7q12 50 34 87zM78 545q14 17 44 31q36 17 88 26q-7 -43 -7 -100q0 -34 3 -68q-47 -10 -70 -16q-29 -8 -47 -16q-14 47 -14 97q0 32 3 46zM248 502q0 61 7 109q51 9 126 13v-177q-80 -2 -132 -8zM379 171q-42 17 -75.5 78
t-48.5 147q40 4 126 8v-233h-2zM461 189q-15 -11 -17 -12q-9 -6 -15 -6v233q82 -4 127 -8q-12 -68 -37.5 -123.5t-57.5 -83.5zM429 624q76 -3 126 -12q8 -44 8 -110q0 -41 -2 -62q-56 5 -132 7v177zM605 434q3 23 3 68.5t-7 101.5q62 -11 93 -25q27 -13 36 -34q6 -15 6 -46
q0 -50 -15 -95q-55 24 -116 30zM704 360q-26 -59 -73.5 -103t-105.5 -65q53 68 74 199q82 -15 105 -31zM173 267q-40 37 -65 92q5 5 15 8q7 2 31 8q32 8 57 15q22 -124 75 -196q-43 21 -60 30q-31 19 -53 43zM173 732q39 43 106 72q-41 -56 -60 -152q-82 -18 -125 -41
q16 38 33 65q20 33 46 56zM639 732q49 -45 75 -116q-49 22 -121 38q-11 47 -25 82q-15 38 -37 68q70 -31 108 -72z" />
</svg>
