<?xml version="1.0" standalone="no"?>
<!DOCTYPE svg PUBLIC "-//W3C//DTD SVG 1.1//EN" "http://www.w3.org/Graphics/SVG/1.1/DTD/svg11.dtd" >
<svg xmlns="http://www.w3.org/2000/svg" xmlns:xlink="http://www.w3.org/1999/xlink" version="1.1" viewBox="-10 0 670 1000">
   <path fill="currentColor"
d="M175 50q-15 0 -19 3q-6 5 -6 22v722q-47 1 -83 23q-32 20 -50 50q-17 28 -17 55q0 11 6 18q5 4 13 6l6 1h600l6 -1q8 -2 13 -6q6 -7 6 -18q0 -61 -22 -114q-21 -50 -56 -80.5t-72 -30.5q-26 0 -54 22q-17 14 -46 49q-32 38 -47 51q-27 24 -53 28q-12 2 -24.5 -0.5
t-25.5 -8.5q-10 -4 -25 -12q-31 -16 -25 -13v-466l350 -150l-325 -139q-26 -11 -50 -11z" />
</svg>
