<?xml version="1.0" standalone="no"?>
<!DOCTYPE svg PUBLIC "-//W3C//DTD SVG 1.1//EN" "http://www.w3.org/Graphics/SVG/1.1/DTD/svg11.dtd" >
<svg xmlns="http://www.w3.org/2000/svg" xmlns:xlink="http://www.w3.org/1999/xlink" version="1.1" viewBox="-10 0 1020 1000">
   <path fill="currentColor"
d="M1000 89v824q0 36 -26 62t-62 26h-824q-36 0 -62 -26t-26 -62v-824q0 -36 26 -62t62 -26h824q36 0 62 26t26 62zM763 328h121v-60h-121v-122h-60v122h-122v60h122v121h60v-121zM548 165q0 -11 -22 -11q-3 -1 -52 -1h-72q-24 0 -61 4t-59 11q-58 19 -92 62t-35 102
q0 70 43.5 112.5t111.5 42.5h9q0 24 2 35t5 11t8 5t8 15q-55 0 -102 12t-86 48t-38 91q0 77 62 114t143 38q92 0 160 -46t67 -133q0 -38 -19 -73t-44 -55t-43 -39t-20 -28q0 -11 15 -26t34 -29t33 -46t15 -74q0 -76 -44 -107l36 -5q5 -1 17 -5t16 -10t4 -15zM413 335
q0 35 -15 60t-49 25q-43 0 -68 -46t-26 -91q0 -35 16 -60t48 -25q43 0 69 45t25 92zM468 680q0 44 -43 71t-90 27t-85 -24t-39 -68q0 -48 41 -72t92 -24q46 0 85 23t39 67z" />
</svg>
