<?xml version="1.0" standalone="no"?>
<!DOCTYPE svg PUBLIC "-//W3C//DTD SVG 1.1//EN" "http://www.w3.org/Graphics/SVG/1.1/DTD/svg11.dtd" >
<svg xmlns="http://www.w3.org/2000/svg" xmlns:xlink="http://www.w3.org/1999/xlink" version="1.1" viewBox="-10 0 1021 1000">
   <path fill="currentColor"
d="M92 0q-41 0 -65 21q-27 24 -27 71v79q4 -3 12 -11q56 -46 127 -66q53 -14 123 -15h307l-82 66h-89q37 32 58 67q31 52 31 117q0 51 -17 91q-15 34 -43 65q-20 21 -58 51q-20 20 -28 31q-13 20 -13 41t13 38q6 9 25 25l52 40q52 44 67 58q38 36 57 70q24 43 24 88.5
t-12 72.5h354q40 0 66 -21t26 -58v-581h-184v186h-79v-186h-184v-77h184v-184h79v184h184v-171q0 -47 -27 -71q-24 -21 -65 -21h-816zM1000 263v77h1v-77h-1zM187 128q-28 0 -56 13t-45 34.5t-24 51.5q-5 23 -5 57q0 54 18 106q20 60 57 95q43 41 101 41q66 0 98 -36
q18 -21 29 -51q8 -24 8 -43q0 -57 -20 -116q-22 -66 -60 -106q-44 -46 -101 -46zM0 526v258q23 -18 57 -29q28 -8 65 -12q26 -3 62 -4l51 -1q-23 -30 -29 -43q-14 -27 -14 -57q0 -16 4 -31q2 -7 10 -25q-32 2 -46 2q-90 0 -160 -58zM251 778q-23 0 -58 4q-55 7 -94 20
q-66 22 -99 66v53q0 37 26 58t66 21h377l2 -7q2 -4 3 -8.5t1 -10.5q0 -27 -15 -51q-12 -21 -39 -45q-20 -17 -60 -45q-82 -57 -76 -53q-12 -2 -34 -2z" />
</svg>
