<?xml version="1.0" standalone="no"?>
<!DOCTYPE svg PUBLIC "-//W3C//DTD SVG 1.1//EN" "http://www.w3.org/Graphics/SVG/1.1/DTD/svg11.dtd" >
<svg xmlns="http://www.w3.org/2000/svg" xmlns:xlink="http://www.w3.org/1999/xlink" version="1.1" viewBox="-11 0 868 1000">
   <path fill="currentColor"
d="M429 439h404q7 37 7 71q0 121 -51 216t-145 149t-215 54q-88 0 -167 -34t-137 -91t-91 -137t-34 -167t34 -167t91 -137t137 -91t167 -34q167 0 287 113l-117 112q-68 -67 -170 -67q-72 0 -133 37t-97 98t-36 136t36 136t97 98t133 37q48 0 89 -14t67 -33t46 -46t28 -49
t13 -43h-243v-147z" />
</svg>
