<?xml version="1.0" standalone="no"?>
<!DOCTYPE svg PUBLIC "-//W3C//DTD SVG 1.1//EN" "http://www.w3.org/Graphics/SVG/1.1/DTD/svg11.dtd" >
<svg xmlns="http://www.w3.org/2000/svg" xmlns:xlink="http://www.w3.org/1999/xlink" version="1.1" viewBox="-10 0 784 1000">
   <path fill="currentColor"
d="M0 512v-103q0 -87 86 -200t171 -160q78 -44 187 -44q44 0 89 10t85 31t67 58t25 85q0 13 -2 24t-7 24t-9 21t-14 21t-14 19t-17 19l-35 35q-14 14 -18 16h168q2 72 2 108q0 253 -42 326q-35 61 -94 108t-128 70q-39 15 -56 15h-84q-3 0 -48 -17q-120 -53 -120 -174
q0 -4 1 -11t0 -10q-134 -69 -180 -215q-13 -42 -13 -56zM146 382q0 40 10 81t28 79t53 62t76 24q12 0 40 -15t49 -15q14 0 51 10t37 20q0 21 -26 21q-130 0 -130 76q0 58 42 87t103 30q47 0 92 -17t73 -49q42 -50 42 -164q0 -19 -1 -56t-1 -54q0 -48 5 -80h-193q-1 8 -1 23
q0 11 1 34t1 35q0 35 -8 56q-5 1 -17 1q-48 0 -80 -33t-44 -74t-12 -89q0 -45 12 -91t43 -84t77 -38q10 0 21 3q-4 22 -4 34q0 35 19 58t53 23t57 -23t23 -58q0 -41 -31 -70t-70 -40t-79 -11q-135 0 -223 85t-88 219z" />
</svg>
