<?xml version="1.0" standalone="no"?>
<!DOCTYPE svg PUBLIC "-//W3C//DTD SVG 1.1//EN" "http://www.w3.org/Graphics/SVG/1.1/DTD/svg11.dtd" >
<svg xmlns="http://www.w3.org/2000/svg" xmlns:xlink="http://www.w3.org/1999/xlink" version="1.1" viewBox="-10 0 916 1000">
   <path fill="currentColor"
d="M48 278q0 -58 25 -102t56 -65t69 -34t56 -15t26 -2h230v4q0 22 -78 36q-28 0 -38 6q40 20 54 56t14 96q0 102 -68 158q-38 38 -38 55t50 63q104 90 104 178q0 140 -116 194q-68 34 -150 34h-4l-4 -2q-2 2 -4 2q-24 0 -54 -5t-75 -21t-74 -57t-29 -102t32 -102t83 -57
t88 -22t71 -6h2q-16 -22 -24 -47t-8 -39l2 -14h-14q-64 0 -110 -30q-74 -44 -74 -160zM418 730q-4 -52 -43 -84t-103 -32h-16q-64 2 -114 46q-46 42 -42 94t53 80t118 24t110 -40t37 -88zM358 230q-30 -108 -122 -108q-12 0 -20 2q-40 12 -57 62t-3 106q14 52 47 85t71 33
q12 0 18 -2q42 -12 63 -65t3 -113zM746 404h150v94h-150v150h-94v-150h-150v-94h150v-150h94v150z" />
</svg>
