<?xml version="1.0" standalone="no"?>
<!DOCTYPE svg PUBLIC "-//W3C//DTD SVG 1.1//EN" "http://www.w3.org/Graphics/SVG/1.1/DTD/svg11.dtd" >
<svg xmlns="http://www.w3.org/2000/svg" xmlns:xlink="http://www.w3.org/1999/xlink" version="1.1" viewBox="-11 0 958 1000">
   <path fill="currentColor"
d="M0 793q0 39 17 68q30 55 105 82q63 26 136 26t133 -20t100 -52t60 -74t22 -87q0 -63 -34 -108q-26 -36 -69 -68q-15 -11 -32 -28q-34 -28 -34 -55q0 -32 45 -73q15 -13 37 -36q19 -21 32 -54t12 -72q0 -51 -22 -96t-62 -70h76l76 -44h-246q-53 0 -106 10q-78 18 -131 81
t-53 141q0 82 59 138t145 55q8 0 39 -3l-9 24q-4 11 -4 25q0 38 36 84q-37 0 -84 7q-110 18 -169 60q-34 25 -55 64t-20 75zM104 767q0 -34 16 -61q27 -47 94 -68q58 -18 120 -18q9 0 28 2q1 0 16 11t20 13q14 9 36 27q1 2 9 9l13 12q5 5 8 10q2 2 3 5t4 6t5 7q6 9 10 19
q7 24 7 43q0 35 -15 61t-42 42q-50 30 -120 30q-76 0 -139 -35q-33 -17 -53 -47t-20 -68zM165 204q0 -57 30 -94t81 -38q36 0 66 22t48 60q36 74 36 145q0 59 -26 91t-77 33q-28 0 -55 -15q-45 -25 -76 -90q-27 -57 -27 -114zM577 247h144v145h72v-145h144v-72h-144v-143
h-72v143h-144v72z" />
</svg>
