<?xml version="1.0" standalone="no"?>
<!DOCTYPE svg PUBLIC "-//W3C//DTD SVG 1.1//EN" "http://www.w3.org/Graphics/SVG/1.1/DTD/svg11.dtd" >
<svg xmlns="http://www.w3.org/2000/svg" xmlns:xlink="http://www.w3.org/1999/xlink" version="1.1" viewBox="-10 0 958 1000">
   <path fill="currentColor"
d="M0 500q0 -95 37 -182t100 -149t150 -100t182 -37t182 37t149 100t100 149t37 182t-37 182t-100 150t-149 100t-182 37q-96 0 -184 -38h1q106 0 169 -51t64 -121q0 -46 -25 -79q-20 -26 -51 -51l-24 -19q-25 -21 -25 -42q0 -25 33 -54l27 -26q33 -36 33 -93q0 -38 -16 -72
t-46 -52h56l56 -32h-182q-37 0 -77 8q-59 13 -98 59t-39 104q0 61 44 102t106 41q7 0 29 -2q0 3 -3 10t-3 8q-3 7 -3 18q0 28 27 62q-31 1 -62 5q-83 14 -125 45q-22 16 -36 40t-18 47q-97 -126 -97 -286zM172 782q0 -27 12 -45q19 -33 69 -49q41 -14 89 -14q11 0 21 1
q2 1 26 18q1 1 8 5t11 9t6.5 6t7.5 6l10 10q5 5 6 7t9 13q5 8 7 14q6 18 6 32q0 53 -43 77q-37 21 -89 21q-55 0 -102 -25q-24 -13 -39 -35t-15 -51zM218 366q0 -42 22 -70t59 -28q27 0 49 17t36 44q26 56 26 107q0 43 -19 68t-58 25q-20 0 -40 -11q-34 -21 -56 -68
q-19 -42 -19 -84zM522 399h106v106h53v-106h107v-53h-107v-107h-53v107h-106v53z" />
</svg>
