<?xml version="1.0" standalone="no"?>
<!DOCTYPE svg PUBLIC "-//W3C//DTD SVG 1.1//EN" "http://www.w3.org/Graphics/SVG/1.1/DTD/svg11.dtd" >
<svg xmlns="http://www.w3.org/2000/svg" xmlns:xlink="http://www.w3.org/1999/xlink" version="1.1" viewBox="-10 0 1204 1000">
   <path fill="currentColor"
d="M0 818q0 -87 89 -155t215 -68h54q-42 -40 -42 -86q0 -29 16 -58q-10 1 -29 1q-104 0 -170 -65t-66 -160q0 -91 82 -159t187 -68h310l-69 50h-98q47 18 74 68t26 111q0 93 -88 162q-37 29 -48 46t-11 42q0 19 27 48t54 49q61 43 85 88t23 113q0 90 -82 157t-222 66
q-133 0 -225 -50t-92 -132zM112 785q0 69 59 118t145 48q119 0 173 -44t53 -117q0 -19 -4 -32q-3 -11 -7 -21t-12 -19l-14 -16q-6 -7 -19 -16l-46 -33q-17 -12 -26 -17q-39 -12 -77 -12q-90 -1 -157 47t-68 114zM178 226q11 79 61 136t109 58.5t94 -52.5t25 -133t-59 -134
t-110 -57t-95 51t-25 131zM733 250v-50h200v-200h50v200h201v50h-201v201h-50v-201h-200z" />
</svg>
