<?xml version="1.0" standalone="no"?>
<!DOCTYPE svg PUBLIC "-//W3C//DTD SVG 1.1//EN" "http://www.w3.org/Graphics/SVG/1.1/DTD/svg11.dtd" >
<svg xmlns="http://www.w3.org/2000/svg" xmlns:xlink="http://www.w3.org/1999/xlink" version="1.1" viewBox="-10 0 1020 1000">
   <path fill="currentColor"
d="M166 612l334 168l276 -136l-14 82q-2 10 -11 23t-24 23t-45 22q-40 18 -80 41t-63 34t-39 11t-40 -13t-64 -37t-80 -40q-72 -32 -103 -69t-47 -109zM976 366q24 14 24 33t-24 33l-78 44l-308 -102q-22 -36 -90 -36q-40 0 -67 16t-27 40t27 40t67 16q26 0 36 -4l292 68
l-268 152q-60 32 -120 0l-416 -234q-24 -14 -24 -33t24 -33l416 -234q60 -32 120 0zM848 808q18 -116 13 -182t-19 -90l-14 -22l70 -38q6 8 12 28t17 101t-7 197q-4 26 -22 30t-35 -5t-15 -19z" />
</svg>
