<?xml version="1.0" standalone="no"?>
<!DOCTYPE svg PUBLIC "-//W3C//DTD SVG 1.1//EN" "http://www.w3.org/Graphics/SVG/1.1/DTD/svg11.dtd" >
<svg xmlns="http://www.w3.org/2000/svg" xmlns:xlink="http://www.w3.org/1999/xlink" version="1.1" viewBox="-11 0 1023 1000">
   <path fill="currentColor"
d="M720 266q-8 -10 -19 -5t-15 16t3.5 20.5t22.5 8.5t19 -11t-11 -29zM499 403q-4 4 -10 4t-10.5 -4.5t-4.5 -10.5t4 -10t11 -4t10.5 4t3.5 10t-4 11zM592 444l-20 20q-7 7 -16 7t-17 -7l-22 -22q-6 -7 -6 -16t6 -17l20 -20q7 -6 16 -6t17 6l22 22q6 7 6 17t-6 16zM531 372
q-4 4 -11 4t-10.5 -4.5t-3.5 -10.5t4 -10.5t10 -4.5t11 4t4 11t-4 11zM756 317q-19 36 -60 48t-72 -10q-21 -15 -34 -37t-11 -49t21 -51t43 -29t39 2t39 29l7 7q6 6 8 7t8 8t7 9l5 8q4 6 5 10l2 11q1 7 1 11t-3 13t-5 13zM868 586q1 -11 -5 -19t-15 -12t-19 -10t-13 -11
q-22 -40 -46 -55t-63 -6q10 -8 22 -11t18 -2h7q1 -25 -19 -50q3 -11 4 -22t-2 -18l-1 -5q24 -13 39 -36t19 -51q6 -47 -24 -84t-76 -43q-34 -4 -64 11t-46 41q-16 29 -18 56t8 49t24 36t32 23q-26 -2 -50 -20t-31 -49q-16 -60 17 -124q-8 -12 -16 -18q-28 0 -49 11
q10 -14 23 -21t20 -8h7q0 -28 -7 -44q-5 -11 -18 -16t-26 2t-21 23q1 -3 2 -4q-4 15 -4 42t11 65t27 69q-14 7 -26 20q-20 9 -48 39t-47 57l-18 25q-51 19 -101 70t-42 91q0 9 6 15q-8 7 -17 17q-12 14 -12 30t12 22t36 -3q23 -11 43 -28t31 -34l-4 -2q-2 -1 -12 -4t-18 -2
l29 -7q16 -4 22 -6t15 -3t15 -3t13 0q8 4 12 -19q4 -20 4 -50q0 -57 -22 -84q59 58 56 122q-1 17 -8 28t-15 15l-8 4l-10 18q-8 14 -15 25t-15 29t-14 34t-9 35t-4 37t6 35q-20 -30 -21 -44q-12 13 -19 22t-19 23t-17 26l-9 23q-4 11 0 21t14 15q25 14 80 -36t107 -123
t68 -128q48 -29 81 -64t48 -67q26 52 85 99t94 45q22 -1 26 -24zM1001 500q0 102 -39 194t-107 160t-160 106t-194 40t-195 -40t-160 -106t-106 -160t-40 -194t40 -194t106 -160t160 -106t195 -40t194 40t160 106t107 160t39 194z" />
</svg>
