<?xml version="1.0" standalone="no"?>
<!DOCTYPE svg PUBLIC "-//W3C//DTD SVG 1.1//EN" "http://www.w3.org/Graphics/SVG/1.1/DTD/svg11.dtd" >
<svg xmlns="http://www.w3.org/2000/svg" xmlns:xlink="http://www.w3.org/1999/xlink" version="1.1" viewBox="-10 0 1021 1000">
   <path fill="currentColor"
d="M0 500q0 -207 147 -354t353 -146t354 146t146 354t-146 354t-354 146t-353 -146t-147 -354zM178 658q0 22 17 22h73v-92q0 -18 8 -32t25 -23l74 -35q10 -6 16 -14q-12 -17 -20 -41t-8 -49q0 -15 4 -31t10 -29q-20 -14 -41 -14q-37 2 -59 31t-21 63q2 61 43 86l-111 51
q-10 6 -10 19v88zM301 680q-2 41 23 43h350q12 -4 16 -12t5 -13v-110q0 -18 -13 -24l-94 -47l-41 -19q37 -22 49 -74q8 -30 0 -61q-10 -35 -36 -59t-62 -27q-35 2 -60 27t-36 57q-11 45 8 92q16 29 41 47l-135 62q-15 8 -15 26v92zM607 484q8 8 20 16t21 12t26 10t23 11
q16 8 25 23t8 32v92h75q17 -2 17 -22v-88q0 -13 -10 -19l-109 -53q41 -29 41 -84q0 -37 -23 -65t-57 -29q-21 0 -43 14q12 29 12 60q0 49 -26 90z" />
</svg>
