<?xml version="1.0" standalone="no"?>
<!DOCTYPE svg PUBLIC "-//W3C//DTD SVG 1.1//EN" "http://www.w3.org/Graphics/SVG/1.1/DTD/svg11.dtd" >
<svg xmlns="http://www.w3.org/2000/svg" xmlns:xlink="http://www.w3.org/1999/xlink" version="1.1" viewBox="-10 0 780 1000">
   <path fill="currentColor"
d="M0 742q0 -22 12 -64q23 -87 87 -158t147 -103q-79 -63 -79 -161q0 -86 63 -146t148 -60t149 60t62 146q0 97 -77 160q106 38 177 127t71 198q0 92 -73 106q-3 10 -13 26q-6 16 -23 29t-49 20t-49 12t-57 9t-39 5l-14 2h-120q-51 0 -129 -16t-89 -45q-17 -17 -25 -42
q-25 -5 -42 -21q-38 -15 -38 -84z" />
</svg>
