<?xml version="1.0" standalone="no"?>
<!DOCTYPE svg PUBLIC "-//W3C//DTD SVG 1.1//EN" "http://www.w3.org/Graphics/SVG/1.1/DTD/svg11.dtd" >
<svg xmlns="http://www.w3.org/2000/svg" xmlns:xlink="http://www.w3.org/1999/xlink" version="1.1" viewBox="-10 0 1003 1000">
   <path fill="currentColor"
d="M5 313q-14 -29 12 -42q13 -6 26 -2t18 13q20 31 58 51t69 20h315q-31 156 -27 296q-18 0 -50 -5t-48 -6q-27 -4 -20 23l45 178q-2 49 -39 55q-15 0 -31 -11t-20 -23l-56 -222q-2 -12 -13 -12t-15 12l-52 220q-10 36 -43 36q-22 0 -35 -18t-10 -37l64 -262l4 -160
q-45 -12 -89 -39t-63 -65zM399 149q-11 -21 8 -33q22 -12 33 6l112 176q11 23 -6 35q-24 10 -35 -8zM489 839l39 -160q2 -8 -2 -16q2 -185 26 -293q78 102 211 129q-4 12 -13 34l-13 32q-4 14 4 41q29 114 61 231q4 29 -16 41t-43 6t-29 -24l-45 -172q-10 -17 -27 -18
t-24 18l-41 170q-10 26 -33 28t-41 -14t-14 -33zM585 331l135 -139l23 -86l53 63q6 2 26 6t31 8t24 12t18 21t12 45t14 41q12 11 25 21t33 33q18 36 -48 71q-28 -2 -52 -6t-42 -6q-24 -4 -41 -8q-4 10 -7 22t-9 23q-58 -12 -113 -44t-82 -77z" />
</svg>
