<?xml version="1.0" standalone="no"?>
<!DOCTYPE svg PUBLIC "-//W3C//DTD SVG 1.1//EN" "http://www.w3.org/Graphics/SVG/1.1/DTD/svg11.dtd" >
<svg xmlns="http://www.w3.org/2000/svg" xmlns:xlink="http://www.w3.org/1999/xlink" version="1.1" viewBox="-10 0 1020 1000">
   <path fill="currentColor"
d="M246 375q19 0 29 14q149 204 202 432h-249q-71 -246 -205 -418q-6 -9 -1 -18t16 -10h208zM558 574q-27 111 -70 219q-44 -173 -143 -331q23 -123 25 -251q118 190 188 363zM613 179q131 180 215 389t103 432h-252q-23 -371 -308 -821h242zM1000 500q0 237 -56 453
q-38 -312 -201 -604q-14 -168 -59 -326q-2 -9 3 -16t15 -7h200q12 0 21 7t13 19q64 228 64 474z" />
</svg>
