<?xml version="1.0" standalone="no"?>
<!DOCTYPE svg PUBLIC "-//W3C//DTD SVG 1.1//EN" "http://www.w3.org/Graphics/SVG/1.1/DTD/svg11.dtd" >
<svg xmlns="http://www.w3.org/2000/svg" xmlns:xlink="http://www.w3.org/1999/xlink" version="1.1" viewBox="-11 0 1020 1000">
   <path fill="currentColor"
d="M0 344q0 -90 64 -154t155 -65q17 0 31 2q43 -61 109 -93q68 -33 141 -33t139.5 32.5t110.5 93.5q13 -2 31 -2q90 0 154 65t64 154t-64 154t-154 65q-42 0 -78 -14q-88 76 -203 76t-203 -76q-37 14 -78 14q-90 0 -155 -65t-64 -154zM63 344q0 64 45 110t111 46
q28 0 54 -10l35 -13l30 25q70 61 162 61t162 -61l29 -25l35 13q27 10 55 10q64 0 110 -46t46 -110t-46 -110t-110 -46q-13 0 -22 2l-37 6l-23 -32q-74 -101 -199 -101t-199 101l-24 32l-37 -6q-8 -2 -21 -2q-65 0 -111 46t-45 110zM125 688q0 -26 19 -44t43 -19t43 20
q20 17 20 43t-19 44t-44 18t-43 -18t-19 -44zM250 938q0 -26 18 -44t44 -19t43 20q20 17 20 43t-19 44t-44 18t-44 -18t-18 -44zM437 750q0 -25 19 -44t44 -18t43.5 19t18.5 43t-18 44t-44 19t-44 -19t-19 -44zM625 938q0 -26 18 -44t44 -19t43 20q20 17 20 43t-19 44
t-44 18t-44 -18t-18 -44zM750 688q0 -26 18 -44t44 -19t43 20q20 17 20 43t-19 44t-44 18t-44 -18t-18 -44z" />
</svg>
