<?xml version="1.0" standalone="no"?>
<!DOCTYPE svg PUBLIC "-//W3C//DTD SVG 1.1//EN" "http://www.w3.org/Graphics/SVG/1.1/DTD/svg11.dtd" >
<svg xmlns="http://www.w3.org/2000/svg" xmlns:xlink="http://www.w3.org/1999/xlink" version="1.1" viewBox="-10 0 1010 1000">
   <path fill="currentColor"
d="M988 857q0 30 -20 50l-60 61q-22 20 -51 20t-50 -20l-203 -204q-21 -20 -21 -49.5t24 -53.5l-143 -143l-70 70q-8 8 -19 8t-19 -8l20 20q5 5 5 8t4 8t3 9t0 10q0 21 -15 38q-2 1 -9 10t-11 11t-10 9t-13 9t-12 5t-14 3q-23 0 -38 -16l-228 -228q-16 -15 -16 -38
q0 -7 3 -14l5 -12q2 -5 9 -13l9 -10l11 -11q9 -9 10 -9q17 -15 38 -15h10q4 0 9 3t8 4t8 5t6 6t7 7t7 7q-8 -8 -8 -19t8 -19l194 -194q8 -8 19 -8t19 8l-14 -14l-6 -7q-5 -6 -5 -7t-3 -8l-4 -9q-1 -2 0 -10q0 -21 15 -38l9 -10q7 -8 11 -11t10 -10t13 -8t12 -5t14 -3
q23 0 38 16l228 228q16 15 16 38q0 7 -3 14l-5 12q-2 5 -8 13t-10 10t-11 11t-10 9q-17 15 -38 15h-10q-4 0 -9 -4t-8 -3t-7 -5t-7 -6t-7 -7t-7 -7q8 8 8 19t-8 19l-70 70l143 143q24 -24 53 -24t51 21l203 202q20 22 20 51z" />
</svg>
