<?xml version="1.0" standalone="no"?>
<!DOCTYPE svg PUBLIC "-//W3C//DTD SVG 1.1//EN" "http://www.w3.org/Graphics/SVG/1.1/DTD/svg11.dtd" >
<svg xmlns="http://www.w3.org/2000/svg" xmlns:xlink="http://www.w3.org/1999/xlink" version="1.1" viewBox="-10 0 877 1000">
   <path fill="currentColor"
d="M719 361q33 0 60 13q78 35 78 126v99q0 52 -13 104l-47 189q-12 48 -51 78t-87 30h-373q-59 0 -101 -42t-42 -101v-224l-133 -350q-10 -25 -10 -51q0 -59 42 -101t101 -42q45 0 81 26t52 66l10 25v-63q0 -59 42 -101t101 -42t101 42t41 101v145q16 -2 27 -2q39 0 71 20
t50 55zM598 357q-18 0 -33 10t-24 27l-41 91l-40 86h31q28 0 50 18t28 45l86 -189q6 -11 6 -25q0 -26 -19 -44t-44 -19zM722 432q-13 0 -23 5t-16 9t-13 16l-10 17q-3 5 -9 21l-74 162q-6 11 -6 25q0 26 19 45t44 18q18 0 34 -10t23 -27l89 -196q5 -10 5 -22q0 -27 -18 -45
t-45 -18zM71 232q0 12 5 26l138 362v39l57 -62q24 -26 59 -26h111l59 -130v-298q0 -30 -21 -51t-50 -21t-51 21t-21 51v357h-36l-111 -294q-8 -20 -26 -33t-41 -12q-30 0 -51 21t-21 50zM659 929q24 0 43 -15t26 -40l47 -189q11 -41 11 -86v-51l-79 173q-9 21 -29 34t-44 13
q-30 0 -52 -19t-27 -49q-25 32 -64 32h-116v-18h116q26 0 45 -18t20 -44t-17 -44t-43 -19h-166q-27 0 -45 20l-71 76v172q0 30 21 51t51 21h373z" />
</svg>
