<?xml version="1.0" standalone="no"?>
<!DOCTYPE svg PUBLIC "-//W3C//DTD SVG 1.1//EN" "http://www.w3.org/Graphics/SVG/1.1/DTD/svg11.dtd" >
<svg xmlns="http://www.w3.org/2000/svg" xmlns:xlink="http://www.w3.org/1999/xlink" version="1.1" viewBox="-10 0 877 1000">
   <path fill="currentColor"
d="M429 214q-30 0 -51 21t-21 51v71h-18v-52q0 -27 -18 -45t-44 -18.5t-44 17.5t-19 45v239l-18 -17v-96q0 -27 -17 -45t-45 -19q-26 0 -44 18t-19 45v125q0 26 20 45l173 165q22 22 22 57q0 15 10 25t25 11h358q14 0 25 -11t10 -25v-14q0 -22 6 -43l60 -243q6 -20 6 -43
v-137q0 -27 -18 -46t-45 -18q-25 0 -44 18t-18 44v18h-18v-70q0 -22 -14 -40t-36 -23q-8 -1 -13 -1q-25 0 -44 19t-18 44v71h-18v-68q0 -28 -18 -50t-46 -24q-3 -1 -7 -1zM429 143q46 0 83 28q32 -19 68 -19q33 0 62 15t48 42q15 -4 33 -4q56 0 95 40t39 96v137q0 29 -7 60
l-61 244q-3 13 -3 39q0 45 -31 76t-76 32h-358q-46 0 -77 -33t-30 -80l-172 -165q-42 -41 -42 -97v-125q0 -56 39 -95t95 -39h9q3 -53 42 -89t92 -36q29 0 55 11q40 -38 97 -38z" />
</svg>
