<?xml version="1.0" standalone="no"?>
<!DOCTYPE svg PUBLIC "-//W3C//DTD SVG 1.1//EN" "http://www.w3.org/Graphics/SVG/1.1/DTD/svg11.dtd" >
<svg xmlns="http://www.w3.org/2000/svg" xmlns:xlink="http://www.w3.org/1999/xlink" version="1.1" viewBox="-10 0 1152 1000">
   <path fill="currentColor"
d="M256 1000q-43 0 -77 -26t-44 -69l-56 -224q-8 -31 -8 -60q0 -25 -2 -37l-65 -267q-4 -15 -4 -31q0 -52 35 -90t86 -44q10 -47 46 -77t84 -30t84 28t47 74l47 194l57 -238q11 -46 48 -74t82 -29q50 0 87 32t45 81q51 5 85 44t33 90q0 14 -4 33l-68 286l21 -16
q16 -12 21 -17t20 -12t22 -12t24 -6t27 -3q59 0 101 41t41 100q0 35 -15 66t-44 52l-283 213q-38 28 -86 28h-387zM616 71q-21 0 -38 14t-22 34l-92 381h-71l-80 -336q-5 -21 -22 -35t-39 -13q-27 0 -44 18t-18 45q0 8 1 16l74 305h-14l-56 -228q-5 -20 -22 -35t-38 -14
q-27 0 -45 19t-19 44q0 7 2 14l65 267q4 16 5 48t5 49l56 224q5 18 19 29t33 12h387q24 0 43 -15l283 -211q31 -24 31 -62q0 -29 -21 -49t-50 -21q-24 0 -43 15l-171 128v-126q0 -3 18 -77l38 -158q20 -84 21 -90q3 -10 3 -16q0 -26 -18 -45t-44 -19q-22 0 -39 13t-22 35
l-65 269h-14l83 -348q2 -8 2 -16q0 -27 -18 -46t-44 -19z" />
</svg>
