<?xml version="1.0" standalone="no"?>
<!DOCTYPE svg PUBLIC "-//W3C//DTD SVG 1.1//EN" "http://www.w3.org/Graphics/SVG/1.1/DTD/svg11.dtd" >
<svg xmlns="http://www.w3.org/2000/svg" xmlns:xlink="http://www.w3.org/1999/xlink" version="1.1" viewBox="-10 0 1306 1000">
   <path fill="currentColor"
d="M107 643q23 0 31 -18t0 -36t-31 -18t-31 18t0 36t31 18zM929 610q-5 -7 -21 -27t-23 -31t-22 -27t-23 -30t-23 -26t-25 -27l-70 78q-46 52 -116 51t-115 -54q-32 -39 -31 -88t32 -88l99 -115q-12 -6 -28 -9t-27 -4t-31 1t-28 0q-51 0 -88 37l-88 88h-87v304h24l11 1
q8 1 12 2t9 5t11 7l165 163q65 62 127 62q44 0 70 -26q32 11 63 -4t40 -48q41 4 71 -24q11 -10 20 -26t8 -28q5 6 24 6q24 0 43 -12t28 -30t6 -40t-17 -41zM1018 643h53v-286h-51l-88 -100q-37 -43 -94 -43h-94q-49 0 -81 38l-117 135q-15 19 -15 42t15 42q24 28 61 29
t62 -27l108 -122q14 -13 30 -12t26 15t5 32l64 73q17 20 46 59t36 47q29 37 34 78zM1179 643q22 0 31 -18t0 -36t-31 -18t-32 18t0 36t32 18zM1286 321v358q0 14 -11 25t-25 10h-242q-15 37 -46 60t-70 28q-18 27 -45 46t-57 25q-23 30 -58 46t-72 14q-33 19 -70 22t-71 -8
t-66 -30t-57 -45l-160 -158h-200q-15 0 -25 -10t-11 -25v-375q0 -15 11 -26t25 -10h235l52 -54q8 -8 25 -22t28 -21t29 -14t34 -11t38 -3h65q56 0 101 31q46 -31 101 -31h94q19 0 37 3t32 8t28 15t25 17t24 22t22 24t23 27t23 27h198q15 0 25 10t11 25z" />
</svg>
