<?xml version="1.0" standalone="no"?>
<!DOCTYPE svg PUBLIC "-//W3C//DTD SVG 1.1//EN" "http://www.w3.org/Graphics/SVG/1.1/DTD/svg11.dtd" >
<svg xmlns="http://www.w3.org/2000/svg" xmlns:xlink="http://www.w3.org/1999/xlink" version="1.1" viewBox="-10 0 1010 1000">
   <path fill="currentColor"
d="M357 71q-29 0 -50 21t-21 51v500l-84 -113q-23 -30 -60 -30q-29 0 -50 21t-21 50q0 24 15 43l214 286q21 29 57 29h401q12 0 22 -8t12 -19l52 -206q13 -53 13 -108v-121q0 -23 -15 -40t-38 -16t-38 15t-16 38h-18v-34q0 -27 -18 -45t-44 -18.5t-44 17.5t-19 45v35h-18
v-50q0 -31 -20 -53t-50.5 -22t-51.5 21t-21 51v53h-17v-318q0 -31 -21 -53t-51 -22zM357 0q60 0 101 43t42 103v123q12 -1 18 -1q55 0 96 38q27 -11 56 -11q63 0 102 48q15 -4 32 -4q52 0 88 38t37 90v121q0 65 -16 126l-51 205q-9 36 -38 58t-66 23h-401q-33 0 -64 -15
t-50 -42l-214 -286q-29 -38 -29 -86q0 -58 42 -100t100 -42q39 0 72 19v-305q0 -59 42 -101t101 -42zM429 786v-215h-18v215h18zM571 786v-215h-17v215h17zM714 786v-215h-18v215h18z" />
</svg>
