<?xml version="1.0" standalone="no"?>
<!DOCTYPE svg PUBLIC "-//W3C//DTD SVG 1.1//EN" "http://www.w3.org/Graphics/SVG/1.1/DTD/svg11.dtd" >
<svg xmlns="http://www.w3.org/2000/svg" xmlns:xlink="http://www.w3.org/1999/xlink" version="1.1" viewBox="-11 0 878 1000">
   <path fill="currentColor"
d="M580 679q0 18 -13 31t-31 13t-32 -13t-13 -31t13 -32t32 -13t31 13t13 32zM723 679q0 18 -13 31t-31 13t-32 -13t-13 -31t13 -32t32 -13t31 13t13 32zM786 768v-179q0 -7 -6 -12t-12 -6h-679q-7 0 -12 6t-6 12v179q0 7 6 12t12 6h679q7 0 12 -6t6 -12zM99 500h659
l-88 -269q-2 -7 -9 -12t-14 -5h-437q-7 0 -14 5t-9 12zM857 589v179q0 37 -26 63t-63 26h-679q-36 0 -63 -26t-26 -63v-179q0 -14 9 -42l110 -338q9 -29 35 -48t56 -18h437q31 0 56 18t35 48l110 338q9 28 9 42z" />
</svg>
