<?xml version="1.0" standalone="no"?>
<!DOCTYPE svg PUBLIC "-//W3C//DTD SVG 1.1//EN" "http://www.w3.org/Graphics/SVG/1.1/DTD/svg11.dtd" >
<svg xmlns="http://www.w3.org/2000/svg" xmlns:xlink="http://www.w3.org/1999/xlink" version="1.1" viewBox="-10 0 1010 1000">
   <path fill="currentColor"
d="M939 929q-25 0 -74 -2t-74 -2t-74 2t-74 2q-13 0 -21 -12t-7 -25q0 -18 9 -26t22 -9t29 -4t25 -9q18 -11 18 -78v-218q0 -12 -1 -17q-7 -3 -28 -3h-376q-22 0 -29 3l-1 224q0 79 21 91q9 6 26 8t32 2t25 8t11 26q0 14 -6 26t-21 13q-26 0 -78 -2t-76.5 -2t-71.5 2t-71 2
q-13 0 -20 -12t-7 -25q0 -17 9 -25t20 -10t26 -4t24 -9q18 -13 18 -80l-1 -31v-454l1 -15q1 -13 0 -20t-1 -21t-2 -24l-4 -20q-2 -10 -6 -18t-9 -10q-8 -5 -25 -7t-29 -1t-23 -7t-10 -26q0 -14 6 -26t20 -13q26 0 78 2t76 2t72 -2t70 -2q14 0 21 13t7 26q0 17 -9 25t-22 8
t-27 2t-24 7q-20 12 -20 90l1 196q7 2 22 2h390q14 0 21 -2q1 -6 1 -18v-178q0 -78 -19 -90q-10 -6 -33 -7t-37 -7t-14 -28q0 -14 7 -26t21 -13q24 0 74 2t73.5 2t71.5 -2t72 -2q14 0 21 13t7 26q0 17 -10 25t-22 8t-29 2t-24 7q-20 13 -20 90l1 526q0 66 19 78q9 6 25 8
t30 2t23 9t10 25q0 14 -6 26t-20 13z" />
</svg>
