<?xml version="1.0" standalone="no"?>
<!DOCTYPE svg PUBLIC "-//W3C//DTD SVG 1.1//EN" "http://www.w3.org/Graphics/SVG/1.1/DTD/svg11.dtd" >
<svg xmlns="http://www.w3.org/2000/svg" xmlns:xlink="http://www.w3.org/1999/xlink" version="1.1" viewBox="-11 0 959 1000">
   <path fill="currentColor"
d="M938 500v135q0 1 -1 3t-1 3q2 12 2 41v104q0 75 -54 129t-129 54t-129 -54t-53 -129v-104q0 -59 28 -105t75 -66q-3 -83 -63 -141t-144 -58t-144 58t-64 141q47 19 75 66t29 105v104q0 75 -54 129t-128 54t-129 -54t-54 -129v-104q0 -29 1 -41v-3q0 -2 -1 -3v-135
q0 -194 138 -332t331 -137t331 137t138 332zM104 500v51h52q0 -51 2 -51q7 -99 67 -174l-46 -46q-75 98 -75 220zM260 786v-104q0 -34 -16 -56t-35 -23h-99q-6 44 -6 79v104q0 31 23 54t56 24t55 -24t22 -54zM646 317q14 -14 40 -39l39 -38l33 -33q-120 -120 -289 -120
t-289 120l93 93l18 17q73 -72 178 -72t177 72zM834 786v-104q0 -35 -6 -79h-99q-20 0 -36 23t-15 56v104q0 31 22 54t55 24t56 -24t23 -54zM834 551v-51q0 -122 -75 -220l-46 46q61 77 68 174v51h53z" />
</svg>
