<?xml version="1.0" standalone="no"?>
<!DOCTYPE svg PUBLIC "-//W3C//DTD SVG 1.1//EN" "http://www.w3.org/Graphics/SVG/1.1/DTD/svg11.dtd" >
<svg xmlns="http://www.w3.org/2000/svg" xmlns:xlink="http://www.w3.org/1999/xlink" version="1.1" viewBox="-10 0 1035 1000">
   <path fill="currentColor"
d="M508 916q-17 0 -29 -9q-26 -17 -85 -58t-154 -112t-134 -110q-106 -106 -106 -264q0 -116 82 -198t198 -82q143 0 228 118q38 -55 99 -86t129 -32q117 0 198 82t81 198q0 158 -106 264q-38 38 -133 110t-155 113l-83 57q-13 9 -30 9zM280 187q-72 0 -124 51t-52 125
q0 114 76 190q79 79 328 248q248 -169 327 -248q76 -76 76 -190q0 -73 -51 -125t-124 -51.5t-125 51.5t-51 125q0 22 -16 37t-36 15t-37 -15t-15 -37q0 -73 -52 -125t-124 -51z" />
</svg>
