<?xml version="1.0" standalone="no"?>
<!DOCTYPE svg PUBLIC "-//W3C//DTD SVG 1.1//EN" "http://www.w3.org/Graphics/SVG/1.1/DTD/svg11.dtd" >
<svg xmlns="http://www.w3.org/2000/svg" xmlns:xlink="http://www.w3.org/1999/xlink" version="1.1" viewBox="-10 0 938 1000">
   <path fill="currentColor"
d="M664 221q-26 0 -53 15t-41 30l-14 16l-92 96l-91 -96l-15 -17q-9 -10 -38 -27t-54 -17q-50 0 -89 34t-46 83l333 383l334 -383q-7 -50 -45 -83t-89 -34zM664 109q102 0 175 73t72 176v20l-447 513l-446 -513v-20q0 -102 73 -175t175 -74q120 0 198 108q78 -108 200 -108z
" />
</svg>
