<?xml version="1.0" standalone="no"?>
<!DOCTYPE svg PUBLIC "-//W3C//DTD SVG 1.1//EN" "http://www.w3.org/Graphics/SVG/1.1/DTD/svg11.dtd" >
<svg xmlns="http://www.w3.org/2000/svg" xmlns:xlink="http://www.w3.org/1999/xlink" version="1.1" viewBox="-10 0 958 1000">
   <path fill="currentColor"
d="M0 320q0 -103 73 -176t177 -73q81 0 147 47l-14 250q0 12 9 20t21 9h10q12 0 18 8t3 20l-57 172q-4 12 -2 13t9 -8l194 -267q7 -9 4 -16t-16 -7h-77q-12 0 -17 -8t-1 -18l82 -183q57 -32 124 -32q103 0 177 73t73 176q0 94 -63 166l-343 403q-25 31 -62 31t-63 -31
l-342 -403q-64 -72 -64 -166z" />
</svg>
