<?xml version="1.0" standalone="no"?>
<!DOCTYPE svg PUBLIC "-//W3C//DTD SVG 1.1//EN" "http://www.w3.org/Graphics/SVG/1.1/DTD/svg11.dtd" >
<svg xmlns="http://www.w3.org/2000/svg" xmlns:xlink="http://www.w3.org/1999/xlink" version="1.1" viewBox="-10 0 1021 1000">
   <path fill="currentColor"
d="M0 500q0 -207 147 -354t353 -146t354 146t146 354t-146 354t-354 146t-353 -146t-147 -354zM242 424q-4 60 22 111q47 86 189 195l13 11q11 9 18 14t16 5q27 -2 119 -86q57 -49 94 -100q70 -96 37 -203q-20 -41 -57 -63t-82 -23q-31 0 -60 12q-29 15 -51 43
q-39 -49 -103 -54t-114 40q-37 37 -41 98z" />
</svg>
