<?xml version="1.0" standalone="no"?>
<!DOCTYPE svg PUBLIC "-//W3C//DTD SVG 1.1//EN" "http://www.w3.org/Graphics/SVG/1.1/DTD/svg11.dtd" >
<svg xmlns="http://www.w3.org/2000/svg" xmlns:xlink="http://www.w3.org/1999/xlink" version="1.1" viewBox="-10 0 880 1000">
   <path fill="currentColor"
d="M790 208q70 64 70 156t-70 156l-360 330l-360 -330q-70 -64 -70 -156t70 -156q64 -58 152 -58t150 58l58 52l56 -52q64 -58 152 -58t152 58zM736 468q42 -40 42 -105t-38 -99q-38 -38 -102 -38q-52 0 -104 48l-104 92l-106 -92q-48 -48 -102 -48q-64 0 -104 38
q-38 36 -38 101t44 103l306 286z" />
</svg>
