<?xml version="1.0" standalone="no"?>
<!DOCTYPE svg PUBLIC "-//W3C//DTD SVG 1.1//EN" "http://www.w3.org/Graphics/SVG/1.1/DTD/svg11.dtd" >
<svg xmlns="http://www.w3.org/2000/svg" xmlns:xlink="http://www.w3.org/1999/xlink" version="1.1" viewBox="-10 0 1020 1000">
   <path fill="currentColor"
d="M500 929q-14 0 -25 -10l-348 -336l-15 -15q-10 -10 -31 -37t-38 -54t-30 -67t-13 -77q0 -123 71 -192t196 -70q34 0 70 12t67 33t54 38t42 38q20 -20 42 -38t54 -38t67 -33t70 -12q125 0 196 70t71 192.5t-128 250.5l-347 335q-10 10 -25 10z" />
</svg>
