<?xml version="1.0" standalone="no"?>
<!DOCTYPE svg PUBLIC "-//W3C//DTD SVG 1.1//EN" "http://www.w3.org/Graphics/SVG/1.1/DTD/svg11.dtd" >
<svg xmlns="http://www.w3.org/2000/svg" xmlns:xlink="http://www.w3.org/1999/xlink" version="1.1" viewBox="-10 0 1020 1000">
   <path fill="currentColor"
d="M0 374q0 -122 88 -210q84 -84 204 -86t208 78q88 -80 208 -78t204 86q88 88 88 210t-88 210l-346 342q-27 27 -66 27t-66 -27q-2 0 -346 -342q-88 -88 -88 -210zM63 374q0 97 70 165l346 342q21 23 43 0l345 -342q70 -68 70 -165t-70 -165q-66 -66 -160 -68t-164 60
l-43 39l-43 -39q-70 -62 -164 -60t-160 68q-70 68 -70 165zM156 367q0 -55 39 -94t94 -39q16 0 16 16t-16 16q-41 0 -71 29t-30 72q0 16 -16 16t-16 -16z" />
</svg>
