<?xml version="1.0" standalone="no"?>
<!DOCTYPE svg PUBLIC "-//W3C//DTD SVG 1.1//EN" "http://www.w3.org/Graphics/SVG/1.1/DTD/svg11.dtd" >
<svg xmlns="http://www.w3.org/2000/svg" xmlns:xlink="http://www.w3.org/1999/xlink" version="1.1" viewBox="-10 0 981 1000">
   <path fill="currentColor"
d="M0 912q0 -22 16 -38l248 -250q17 -16 40 -16t38 17t15 40t-15 39l-248 250q-41 35 -78 0q-16 -19 -16 -42zM125 435q4 -131 90 -219q94 -90 219 -92q129 4 216 92q90 94 90 219q0 50 -11 83t-36 75q-9 23 -41 60t-41 53q-6 18 -6 39v48q0 27 2 42q-2 90 -54 133
q-53 29 -114 29q-21 -2 -35 -15t-14 -34t12 -35q10 -10 21 -14t26 -3t24 -4q25 -8 27 -16q6 -19 6 -59q2 -9 0 -59t4 -58q10 -41 29 -68q6 -6 16 -18t15 -17l32 -47q5 -8 14 -25t13 -22q12 -31 12 -68q-2 -90 -61 -149q-64 -60 -146 -60q-88 2 -147 60q-60 65 -62 149
q0 21 -14 36t-35.5 13.5t-35.5 -15.5t-15 -34zM279 442q2 -66 45 -109q47 -45 110 -47q64 4 107 47q45 47 47 109q-2 20 -14 32t-29 11q-41 -4 -41 -43q-2 -29 -23 -49t-47 -21q-30 2 -50 23t-21 47q-2 20 -13 32t-30 11q-41 -4 -41 -43zM713 193q0 -22 17 -38l135 -136
q20 -16 41 -16t37 16q18 17 17 40t-17 38l-134 136q-41 38 -79 0q-17 -17 -17 -40z" />
</svg>
