<?xml version="1.0" standalone="no"?>
<!DOCTYPE svg PUBLIC "-//W3C//DTD SVG 1.1//EN" "http://www.w3.org/Graphics/SVG/1.1/DTD/svg11.dtd" >
<svg xmlns="http://www.w3.org/2000/svg" xmlns:xlink="http://www.w3.org/1999/xlink" version="1.1" viewBox="-10 0 973 1000">
   <path fill="currentColor"
d="M1 329q7 -115 79 -191h2l2 -2q88 -76 199 -76t191 70q32 -28 67 -45l2 -2h2q56 -23 117 -23q88 -2 161 43t110 124v2l2 4q30 106 10 202t-80 175q-62 88 -162 172q0 2 -2 2q-49 45 -107 90q-34 25 -59 41q-33 23 -55 23l-6 2l-5 -2q-28 -3 -59 -29q-10 -6 -21 -16
t-16 -13h-2q-246 -188 -328 -340v-2q-49 -94 -42 -209zM86 339q-6 86 33 162q74 135 303 310h2q6 6 18 16t19 14q8 6 15 10q8 -2 14 -6q22 -14 51 -37q58 -43 105 -88q94 -80 151 -161q107 -142 58 -298q-27 -57 -78 -88t-113 -29q-43 0 -86 17q-39 22 -68 57l-32 43
l-35 -43q-52 -65 -141 -73t-161 53q-49 55 -55 141z" />
</svg>
