<?xml version="1.0" standalone="no"?>
<!DOCTYPE svg PUBLIC "-//W3C//DTD SVG 1.1//EN" "http://www.w3.org/Graphics/SVG/1.1/DTD/svg11.dtd" >
<svg xmlns="http://www.w3.org/2000/svg" xmlns:xlink="http://www.w3.org/1999/xlink" version="1.1" viewBox="-10 0 1021 1000">
   <path fill="currentColor"
d="M0 500q0 -207 147 -354t353 -146t354 146t146 354t-146 354t-354 146t-353 -146t-147 -354zM316 236q-3 49 12 57h57q21 -47 70 -45q33 0 58 32t10 66q-9 23 -29 55t-31 56q-20 41 -21 90t21 97l70 2q-8 -41 9 -79t58 -89l45 -56q25 -39 32 -62t7 -59q0 -71 -49 -121
q-53 -55 -145 -55q-47 0 -109 37t-65 74zM410 789q0 35 25 61t59 25t61 -25t25 -61t-25 -60t-61 -24t-59 24t-25 60z" />
</svg>
