<?xml version="1.0" standalone="no"?>
<!DOCTYPE svg PUBLIC "-//W3C//DTD SVG 1.1//EN" "http://www.w3.org/Graphics/SVG/1.1/DTD/svg11.dtd" >
<svg xmlns="http://www.w3.org/2000/svg" xmlns:xlink="http://www.w3.org/1999/xlink" version="1.1" viewBox="-12 0 942 1000">
   <path fill="currentColor"
d="M454 40q190 -2 326 130t139 322t-130 327t-323 140t-327 -130t-140 -323t131 -327t324 -139zM452 780q30 0 49 -19t19 -47q2 -30 -17 -49t-49 -19h-2q-28 0 -47 18t-21 46q0 30 19 49t47 21h2zM618 452q26 -34 26 -78q0 -78 -53 -116t-135 -38q-64 0 -104 26
q-68 42 -72 146v4h110v-4q0 -26 16 -54q16 -24 55 -24t51 20q16 20 16 44q0 18 -16 40q-8 12 -20 20l-22 15q-10 7 -20 15l-21 17q-11 9 -17 17q-14 20 -18 78v8h108v-4q0 -12 4 -28q6 -20 28 -36l28 -18q46 -34 56 -50z" />
</svg>
