<?xml version="1.0" standalone="no"?>
<!DOCTYPE svg PUBLIC "-//W3C//DTD SVG 1.1//EN" "http://www.w3.org/Graphics/SVG/1.1/DTD/svg11.dtd" >
<svg xmlns="http://www.w3.org/2000/svg" xmlns:xlink="http://www.w3.org/1999/xlink" version="1.1" viewBox="-11 0 959 1000">
   <path fill="currentColor"
d="M0 500q0 -95 37 -182t100 -149t149 -100t183 -37q95 0 182 37t149 100t100 149t37.5 181.5t-37.5 182.5t-100 150t-149 100t-182 37t-183 -37t-149 -100t-100 -150t-37 -182zM117 500q0 71 28 137t75 112t112 75t137 28t136 -28t112 -75t75 -112t28 -137q0 -95 -47 -176
t-128 -128t-176 -47t-177 47t-128 128t-47 176zM333 324l31 101q45 -29 93.5 -29t48.5 23q0 4 -2 8t-3 5l-6 5q-5 4 -7 5l-56 29q-22 12 -28 25t-6 37v37h117v-26q0 -3 3 -6t6 -5q1 -1 11 -5t17 -8l19 -11q12 -7 18 -13q19 -17 29 -37t11 -55q0 -49 -42 -83t-106 -34
q-83 0 -148 37zM381 658q0 32 21 49t54.5 17t54.5 -17t20 -49t-20 -49t-54 -17.5t-55 17.5t-21 49z" />
</svg>
