<?xml version="1.0" standalone="no"?>
<!DOCTYPE svg PUBLIC "-//W3C//DTD SVG 1.1//EN" "http://www.w3.org/Graphics/SVG/1.1/DTD/svg11.dtd" >
<svg xmlns="http://www.w3.org/2000/svg" xmlns:xlink="http://www.w3.org/1999/xlink" version="1.1" viewBox="-10 0 589 1000">
   <path fill="currentColor"
d="M393 701v134q0 9 -7 15t-15 7h-134q-9 0 -16 -7t-7 -15v-134q0 -9 7 -16t16 -6h134q9 0 15 6t7 16zM569 366q0 30 -8 56t-20 43t-31 33t-32 25t-34 19q-23 13 -38 37t-15 37q0 10 -7 18t-16 9h-134q-8 0 -14 -11t-6 -20v-26q0 -46 37 -87t79 -60q33 -16 47 -32t14 -41
t-26 -42t-60 -18q-36 0 -60 16q-20 14 -60 64q-7 9 -17 9q-7 0 -14 -4l-91 -70q-8 -6 -9 -14t3 -16q89 -148 259 -148q45 0 90 17t81 46t59 72t23 88z" />
</svg>
