<?xml version="1.0" standalone="no"?>
<!DOCTYPE svg PUBLIC "-//W3C//DTD SVG 1.1//EN" "http://www.w3.org/Graphics/SVG/1.1/DTD/svg11.dtd" >
<svg xmlns="http://www.w3.org/2000/svg" xmlns:xlink="http://www.w3.org/1999/xlink" version="1.1" viewBox="-12 0 512 1000">
   <path fill="currentColor"
d="M0 146q2 -48 85 -97t147 -49q122 0 192 72q66 69 66 162q0 49 -10 79t-44 83q-4 8 -59 76t-77 119t-13 104l-94 -2q-29 -66 -26 -131t28 -119q14 -31 40 -74t40 -74q20 -45 -13 -89t-76 -44q-39 0 -60 15t-34 48h-76q-22 -12 -16 -79zM123 887q0 -47 33 -80t80 -34t80 34
t34 80t-34 80t-80 33t-80 -33t-33 -80z" />
</svg>
