<?xml version="1.0" standalone="no"?>
<!DOCTYPE svg PUBLIC "-//W3C//DTD SVG 1.1//EN" "http://www.w3.org/Graphics/SVG/1.1/DTD/svg11.dtd" >
<svg xmlns="http://www.w3.org/2000/svg" xmlns:xlink="http://www.w3.org/1999/xlink" version="1.1" viewBox="-10 0 877 1000">
   <path fill="currentColor"
d="M857 500q0 87 -34 166t-91 137t-137 92t-166 34q-96 0 -183 -41t-147 -114q-4 -6 -4 -13t5 -11l76 -77q6 -5 14.5 -4.5t12.5 6.5q41 53 100 82t126 29q58 0 110 -23t92 -61t61 -91t22 -111t-22 -111t-61 -91t-92 -61t-109.5 -23t-105.5 20t-90 57l77 77q17 16 7.5 38.5
t-32.5 22.5h-250q-15 0 -25 -11t-11 -25v-250q0 -24 22 -33.5t39 8.5l72 72q60 -57 137 -88t159 -31q87 0 166 34t137 92t91 137t34 166zM500 339v250q0 8 -5 13t-13 5h-178q-8 0 -13 -5t-5 -13v-35q0 -8 5 -13t13 -5h125v-197q0 -8 5 -13t12 -5h36q8 0 13 5t5 13z" />
</svg>
