<?xml version="1.0" standalone="no"?>
<!DOCTYPE svg PUBLIC "-//W3C//DTD SVG 1.1//EN" "http://www.w3.org/Graphics/SVG/1.1/DTD/svg11.dtd" >
<svg xmlns="http://www.w3.org/2000/svg" xmlns:xlink="http://www.w3.org/1999/xlink" version="1.1" viewBox="-10 0 1166 1000">
   <path fill="currentColor"
d="M1108 428q38 30 38 80q0 42 -30 73t-75 31h-51v312q0 44 -31 75t-74 30h-625q-42 0 -73 -30t-31 -75v-312h-52q-44 0 -74 -31t-30 -73q0 -46 36 -79q79 -66 204 -174t211 -181l122 -104l35 29l86 75q85 74 211 181zM678 924v-260h-209v260h209zM885 508h156
q-231 -194 -468 -400q-238 206 -469 400h156v416h156v-312h313v312h156v-416z" />
</svg>
