<?xml version="1.0" standalone="no"?>
<!DOCTYPE svg PUBLIC "-//W3C//DTD SVG 1.1//EN" "http://www.w3.org/Graphics/SVG/1.1/DTD/svg11.dtd" >
<svg xmlns="http://www.w3.org/2000/svg" xmlns:xlink="http://www.w3.org/1999/xlink" version="1.1" viewBox="-10 0 806 1000">
   <path fill="currentColor"
d="M214 732v36q0 7 -5 12t-13 6h-35q-7 0 -13 -6t-5 -12v-36q0 -7 5 -12t13 -6h35q8 0 13 6t5 12zM214 589v36q0 7 -5 13t-13 5h-35q-7 0 -13 -5t-5 -13v-36q0 -7 5 -12t13 -6h35q8 0 13 6t5 12zM357 589v36q0 7 -5 13t-13 5h-35q-8 0 -13 -5t-5 -13v-36q0 -7 5 -12t13 -6
h35q8 0 13 6t5 12zM214 446v36q0 7 -5 13t-13 5h-35q-7 0 -13 -5t-5 -13v-36q0 -7 5 -12t13 -5h35q8 0 13 5t5 12zM643 732v36q0 7 -5 12t-13 6h-36q-7 0 -12 -6t-6 -12v-36q0 -7 6 -12t12 -6h36q7 0 13 6t5 12zM500 589v36q0 7 -5 13t-13 5h-36q-7 0 -12 -5t-5 -13v-36
q0 -7 5 -12t12 -6h36q7 0 13 6t5 12zM357 446v36q0 7 -5 13t-13 5h-35q-8 0 -13 -5t-5 -13v-36q0 -7 5 -12t13 -5h35q8 0 13 5t5 12zM643 589v36q0 7 -5 13t-13 5h-36q-7 0 -12 -5t-6 -13v-36q0 -7 6 -12t12 -6h36q7 0 13 6t5 12zM500 446v36q0 7 -5 13t-13 5h-36
q-7 0 -12 -5t-5 -13v-36q0 -7 5 -12t12 -5h36q7 0 13 5t5 12zM643 446v36q0 7 -5 13t-13 5h-36q-7 0 -12 -5t-6 -13v-36q0 -7 6 -12t12 -5h36q7 0 13 5t5 12zM500 929h214v-643h-143v18q0 22 -15 37t-38 16h-250q-22 0 -38 -16t-16 -37v-18h-143v643h215v-125q0 -8 5 -13
t13 -5h178q7 0 13 5t5 13v125zM500 268v-179q0 -7 -5 -12t-13 -6h-36q-7 0 -12 6t-5 12v54h-72v-54q0 -7 -5 -12t-13 -6h-35q-8 0 -13 6t-5 12v179q0 7 5 12t13 6h35q8 0 13 -6t5 -12v-54h72v54q0 7 5 12t12 6h36q7 0 13 -6t5 -12zM786 250v714q0 15 -11 25t-25 11h-714
q-15 0 -25 -11t-11 -25v-714q0 -15 11 -25t25 -11h178v-160q0 -23 16 -38t38 -16h250q22 0 38 16t15 38v160h179q15 0 25 11t11 25z" />
</svg>
