<?xml version="1.0" standalone="no"?>
<!DOCTYPE svg PUBLIC "-//W3C//DTD SVG 1.1//EN" "http://www.w3.org/Graphics/SVG/1.1/DTD/svg11.dtd" >
<svg xmlns="http://www.w3.org/2000/svg" xmlns:xlink="http://www.w3.org/1999/xlink" version="1.1" viewBox="-10 0 877 1000">
   <path fill="currentColor"
d="M786 71q0 146 -60 258t-148 171q89 59 148 171t60 258h53q8 0 13 5t5 12v36q0 8 -5 13t-13 5h-821q-8 0 -13 -5t-5 -13v-36q0 -7 5 -12t13 -5h53q0 -146 60 -258t149 -171q-90 -59 -149 -171t-60 -258h-53q-8 0 -13 -5t-5 -12v-36q0 -8 5 -13t13 -5h821q8 0 13 5t5 13v36
q0 7 -5 12t-13 5h-53zM714 71h-571q0 37 5 72h561q5 -34 5 -72zM714 929q0 -73 -19 -140t-50 -116t-71 -85t-81 -52h-129q-42 17 -81 52t-71 85t-50 116t-19 140h571z" />
</svg>
