<?xml version="1.0" standalone="no"?>
<!DOCTYPE svg PUBLIC "-//W3C//DTD SVG 1.1//EN" "http://www.w3.org/Graphics/SVG/1.1/DTD/svg11.dtd" >
<svg xmlns="http://www.w3.org/2000/svg" xmlns:xlink="http://www.w3.org/1999/xlink" version="1.1" viewBox="-11 0 607 1000">
   <path fill="currentColor"
d="M0 887v-70q0 -22 12 -49t24 -46t38 -55l50 -69q26 -36 22 -33t18 -35t5 -30t-5 -30t-18 -35t-22 -33t-26 -36l-24 -32q-26 -37 -38 -55t-24 -46t-12 -49v-70q0 -34 24 -58t59 -24h419q35 0 59 24t25 58v70q0 22 -12 49t-24 46t-38 55l-51 68q-27 36 -22 33t-17 35t-6 30
t6 30t17 35t22 33t27 36l24 33l38 55q13 19 24 46t12 49v70q0 34 -25 58t-59 24h-419q-34 0 -59 -24t-24 -58zM100 852h40q0 -9 2 -17t9 -18t12 -16t17 -18t19 -16t22 -17t23 -16t25 -18t24 -17l26 19q18 13 28 19t25 19t25 19t19 19t16 19t10 19t4 20h40v-35q0 -7 -14 -31
q-8 -14 -42 -63q-53 -75 -71 -108q-34 -64 -34 -115q0 -26 7 -54t25 -57t30 -50t36 -51l7 -10q33 -47 42 -64q6 -9 9 -17l5 -13v-35h-386v35q1 8 13 30q10 17 43 64q53 75 71 108q34 63 34 114q0 27 -8 54t-25 58t-29 49t-36 52l-4 4l-2 3q-1 2 -1 3q-34 49 -43 63
q-13 24 -13 31v35z" />
</svg>
