<?xml version="1.0" standalone="no"?>
<!DOCTYPE svg PUBLIC "-//W3C//DTD SVG 1.1//EN" "http://www.w3.org/Graphics/SVG/1.1/DTD/svg11.dtd" >
<svg xmlns="http://www.w3.org/2000/svg" xmlns:xlink="http://www.w3.org/1999/xlink" version="1.1" viewBox="-10 0 580 1000">
   <path fill="currentColor"
d="M560 228q0 44 -48 96t-97 99t-49 77t49 76t97 97t48 97v118q0 34 -86 73t-194 39t-194 -39t-86 -73v-118q0 -46 48 -97t97 -97t49 -76t-49 -77t-97 -99t-48 -96v-118q0 -32 87 -71t193 -39t193 39t87 71v118zM78 116l-18 14q-4 8 4 14q92 52 216 52q132 0 220 -50
q14 -10 -16 -30q-96 -54 -202 -54q-120 0 -204 54zM306 500q0 -18 4 -33t18 -33t20 -25t31 -31l29 -28q92 -92 92 -122l2 -50q-100 54 -222 54t-222 -54l4 50q0 32 90 122l45 43l19 19l17 21q17 21 11 20t9 23t3 24q0 10 -1 19t-6 18t-8 16t-11 17l-12 15l-15 16
q-15 16 -16 15t-18 16t-17 16q-90 90 -90 122v66q8 -4 66 -23t92 -43t34 -58q0 -30 26 -30t26 30q0 34 33 58t94 43t67 23v-66q0 -30 -92 -122l-43 -41l-18 -19q-13 -14 -18 -22l-12 -20q-7 -12 -9 -23t-2 -23z" />
</svg>
