<?xml version="1.0" standalone="no"?>
<!DOCTYPE svg PUBLIC "-//W3C//DTD SVG 1.1//EN" "http://www.w3.org/Graphics/SVG/1.1/DTD/svg11.dtd" >
<svg xmlns="http://www.w3.org/2000/svg" xmlns:xlink="http://www.w3.org/1999/xlink" version="1.1" viewBox="-10 0 719 1000">
   <path fill="currentColor"
d="M0 201h699l-66 710l-284 81l-284 -81zM65 141v-133h45v44h40v-44h44v133h-44v-44h-40v44h-45zM130 346l24 266l1 -2h300l-10 113l-96 27l-97 -28l-6 -68h-88l12 136l179 51l179 -51l25 -267h-319l-8 -89h335l8 -88h-439zM214 53v-45h122v45h-39v88h-44v-88h-39zM355 141
v-133h47l27 46l28 -46h47v133h-43v-68l-32 50v-1l-30 -47v66h-44zM527 141v-133h44v88h62v45h-106z" />
</svg>
