<?xml version="1.0" standalone="no"?>
<!DOCTYPE svg PUBLIC "-//W3C//DTD SVG 1.1//EN" "http://www.w3.org/Graphics/SVG/1.1/DTD/svg11.dtd" >
<svg xmlns="http://www.w3.org/2000/svg" xmlns:xlink="http://www.w3.org/1999/xlink" version="1.1" viewBox="-11 0 1003 1000">
   <path fill="currentColor"
d="M355 27q-45 -10 -84 10q-42 26 -52.5 86t20.5 120l10 14l-34 -11q-62 -15 -121 17q-30 15 -50 37.5t-33 53.5q-25 61 5 113q12 21 33 37q25 25 63 31l10 3l-21 18q-26 22 -38 59q-11 40 10 75q13 20 25 28q18 17 42 18q50 11 99 -4l-25 42l-7 19q-11 33 -8 63.5t19 61.5
q12 20 32 43q24 21 64 32q68 18 125 -11.5t78 -97.5l1 -8q42 46 80 56q46 14 82 -8.5t50 -68.5q10 -46 0 -97q22 14 45 21q34 11 64 9t60 -18q56 -31 76 -99q17 -66 -13 -122l-7 -11q-11 -17 -17 -25q-11 -13 -22 -21q-9 -5 -23 -12q-32 -16 -24 -12q69 -33 89 -88
q14 -44 -7 -82v-3q-25 -42 -75 -56q-28 -7 -66 -3l-47 10l16 -36q21 -69 -14 -129l-4 -7q-31 -51 -95 -68q-66 -16 -124 14q-30 16 -50.5 40.5t-29.5 55.5v3l-2 10l-19 -36q-34 -51 -86 -66zM714 112q11 22 11 49l-4 31q-6 20 -21 42l-127 156q-13 -10 -41 -24l-14 -160
l-1 -56l1 -14q10 -41 51.5 -63.5t81.5 -7.5q43 10 63 47zM277 140q1 -36 28 -52q13 -10 33 -2q40 13 63 61q14 28 17 45l28 167l-21 7l-125 -137l-7 -14q-20 -43 -16 -75zM201 305l38 15l124 91q-16 20 -22 42l-204 25l-14 -2q-38 -8 -53.5 -37.5t-2.5 -63.5q16 -42 55 -59
q38 -21 79 -11zM335 535l10 28l4 10q-13 11 -28 26l-26 25l-42 35l-11 7q-38 18 -74 14q-35 -2 -45 -21l-4 -16l3 -12q12 -37 58 -58q-2 1 23 -10q12 -5 19 -7zM775 306q36 -16 74 -11q36 4 50 31l5 18l-2 15q-15 38 -67 60q-15 8 -46 13l-174 21l-2 -10l-3 -4l5 -7
l143 -119zM415 440q28 -25 66 -25q19 0 36.5 7t28.5 18q29 29 29 67q0 41 -29 66q-28 28 -65 28q-40 0 -66 -28q-13 -13 -20.5 -30t-7.5 -36q0 -36 28 -67zM448 645q3 64 14 153v57l-2 14q-17 43 -52 58q-38 21 -77 10q-44 -11 -61 -47q-13 -26 -13 -48l7 -32q5 -23 22 -40
l118 -141q28 14 44 16zM556 626l59 61l37 45l7 14q21 39 17 74q-5 40 -28 50q-12 10 -33 6q-40 -11 -63 -62l-17 -47l-21 -122l24 -9zM620 539l159 -14l56 -1l14 1q36 11 53 41q21 22 21 60l-4 29q-11 43 -48 60q-39 21 -79 7q-25 -6 -38 -22l-148 -123l9 -21z" />
</svg>
