<?xml version="1.0" standalone="no"?>
<!DOCTYPE svg PUBLIC "-//W3C//DTD SVG 1.1//EN" "http://www.w3.org/Graphics/SVG/1.1/DTD/svg11.dtd" >
<svg xmlns="http://www.w3.org/2000/svg" xmlns:xlink="http://www.w3.org/1999/xlink" version="1.1" viewBox="-11 0 1165 1000">
   <path fill="currentColor"
d="M500 676q0 31 -18 52t-42 22h-237q-25 0 -43 -22t-17.5 -52t4.5 -56t14 -50t28 -38t45 -14q36 36 87 36t88 -36q26 0 45 14t28 38t14 50t4 56zM429 429q0 44 -32 75t-76 32t-75 -32t-32 -75t32 -76t75 -32t76 32t32 76zM1000 661v35q0 8 -5 13t-13 5h-393q-7 0 -12 -5
t-6 -13v-35q0 -8 6 -13t12 -5h393q8 0 13 5t5 13zM786 518v36q0 7 -5 12t-13 5h-179q-7 0 -12 -5t-6 -12v-36q0 -8 6 -13t12 -5h179q8 0 13 5t5 13zM1000 518v36q0 7 -5 12t-13 5h-107q-8 0 -13 -5t-5 -12v-36q0 -8 5 -13t13 -5h107q8 0 13 5t5 13zM1000 375v36q0 7 -5 12
t-13 6h-393q-7 0 -12 -6t-6 -12v-36q0 -8 6 -13t12 -5h393q8 0 13 5t5 13zM1071 839v-625h-1000v625q0 7 6 13t12 5h965q7 0 12 -5t5 -13zM1143 161v678q0 37 -26 63t-63 27h-965q-36 0 -63 -27t-26 -63v-678q0 -37 26 -63t63 -27h965q36 0 63 27t26 63z" />
</svg>
