<?xml version="1.0" standalone="no"?>
<!DOCTYPE svg PUBLIC "-//W3C//DTD SVG 1.1//EN" "http://www.w3.org/Graphics/SVG/1.1/DTD/svg11.dtd" >
<svg xmlns="http://www.w3.org/2000/svg" xmlns:xlink="http://www.w3.org/1999/xlink" version="1.1" viewBox="-11 0 1165 1000">
   <path fill="currentColor"
d="M500 676q0 -30 -4 -56t-14 -50t-28 -38t-45 -14q-36 36 -88 36t-87 -36q-26 0 -45 14t-28 38t-14 50t-4.5 56.5t17.5 51.5t43 22h237q25 0 42 -22t18 -52zM429 429q0 -45 -32 -76t-76 -32t-75 32t-32 76t32 75t75 32t76 -32t32 -75zM1000 696v-35q0 -8 -5 -13t-13 -5
h-393q-7 0 -12 5t-6 13v35q0 8 6 13t12 5h393q8 0 13 -5t5 -13zM786 554v-36q0 -8 -5 -13t-13 -5h-179q-7 0 -12 5t-6 13v36q0 7 6 12t12 5h179q8 0 13 -5t5 -12zM1000 554v-36q0 -8 -5 -13t-13 -5h-107q-8 0 -13 5t-5 13v36q0 7 5 12t13 5h107q8 0 13 -5t5 -12zM1000 411
v-36q0 -8 -5 -13t-13 -5h-393q-7 0 -12 5t-6 13v36q0 7 6 12t12 6h393q8 0 13 -6t5 -12zM71 214h1000v-53q0 -8 -5 -13t-12 -5h-965q-7 0 -12 5t-6 13v53zM1143 161v678q0 37 -26 63t-63 27h-965q-36 0 -63 -27t-26 -63v-678q0 -37 26 -63t63 -27h965q36 0 63 27t26 63z" />
</svg>
