<?xml version="1.0" standalone="no"?>
<!DOCTYPE svg PUBLIC "-//W3C//DTD SVG 1.1//EN" "http://www.w3.org/Graphics/SVG/1.1/DTD/svg11.dtd" >
<svg xmlns="http://www.w3.org/2000/svg" xmlns:xlink="http://www.w3.org/1999/xlink" version="1.1" viewBox="-10 0 963 1000">
   <path fill="currentColor"
d="M1 852q-3 -35 7 -59q39 -140 92 -239q114 -216 313 -352v-14q-59 25 -119 65t-102 81t-76 78t-50 60l-17 23q-2 -59 16 -115t45 -94t54 -67t47 -43l19 -13q4 -2 10 -6t28 -13t43 -19t55 -17t64 -12t70 -2t74 12q64 -47 128 -73t98 -29l33 -3q50 -5 77 16t31 55t0 68
t-12 60l-9 24l-5 -5q21 -57 20 -94t-17 -56t-37 -29t-36 -10l-16 -2h-12q-8 0 -32 5t-49 13t-60 25t-69 41q69 11 123 42t86 70t54 85t31 89t13 78t4 56l-1 22h-557q-3 42 10 73t34 45t41 23t36 9l15 1q4 0 11 -1l27 -5q20 -4 34 -14t31 -29t22 -46h292q-16 59 -47 107
t-68 77t-78 51t-79 32t-68 16t-48 7h-19q-78 0 -107 -6q-60 47 -127 73t-103 30l-36 3q-46 0 -78 -24t-41 -56t-13 -68zM76 847q0 24 3 42t8 29l4 9l11 8q7 5 33 13t57 8t82 -16t108 -50l-22 -6q-14 -4 -50 -18t-69 -31t-67 -48t-53 -64q-22 34 -33 67t-12 57zM359 423h265
q1 -36 -12 -63t-32 -39t-38 -19t-33 -8l-14 -1q-6 0 -15 1t-33 8t-42 19t-33 39t-13 63z" />
</svg>
