<?xml version="1.0" standalone="no"?>
<!DOCTYPE svg PUBLIC "-//W3C//DTD SVG 1.1//EN" "http://www.w3.org/Graphics/SVG/1.1/DTD/svg11.dtd" >
<svg xmlns="http://www.w3.org/2000/svg" xmlns:xlink="http://www.w3.org/1999/xlink" version="1.1" viewBox="-10 0 983 1000">
   <path fill="currentColor"
d="M844 0q-107 1 -281 106q-90 -13 -179 6t-161 68q-75 51 -118 127q-47 83 -51 185q32 -50 90 -110q64 -65 132 -114q78 -56 145 -77v13q-54 27 -126.5 99.5t-138.5 165.5q-70 99 -111 192q-45 105 -45 182q1 88 61 134q31 24 87 23q47 -1 106 -21q50 -16 96 -40
q41 -22 55 -38q46 8 89 8q99 0 187 -38q86 -37 148.5 -103.5t88.5 -150.5h-301q-10 43 -41.5 67.5t-79.5 24.5q-71 0 -101 -44q-25 -37 -25 -107h561q14 -99 -24 -192q-36 -89 -111 -154.5t-171 -92.5q95 -63 169 -83q84 -23 120 17q40 45 10 170h20q26 -82 16 -139.5
t-54 -73.5q-26 -10 -58 -10h-4zM492 303q60 0 94 34t34 95h-252q0 -59 33 -94t91 -35zM125 725q44 63 110 107.5t146 63.5q-37 28 -94 46q-54 18 -103 20t-69 -14q-35 -29 -30 -89q4 -56 40 -134z" />
</svg>
