<?xml version="1.0" standalone="no"?>
<!DOCTYPE svg PUBLIC "-//W3C//DTD SVG 1.1//EN" "http://www.w3.org/Graphics/SVG/1.1/DTD/svg11.dtd" >
<svg xmlns="http://www.w3.org/2000/svg" xmlns:xlink="http://www.w3.org/1999/xlink" version="1.1" viewBox="-11 0 1020 1000">
   <path fill="currentColor"
d="M967 452q40 42 30 72l-28 154q-4 20 -22 33t-40 13h-816q-22 0 -40 -13t-22 -33l-28 -154q-8 -32 32 -72q8 -10 36 -38l120 -118q22 -22 52 -22h516q30 0 52 22l120 117q30 29 38 39zM701 484h178l-102 -114h-556l-102 114h178q8 0 12 8l40 100h300l40 -100q4 -8 12 -8z
" />
</svg>
