<?xml version="1.0" standalone="no"?>
<!DOCTYPE svg PUBLIC "-//W3C//DTD SVG 1.1//EN" "http://www.w3.org/Graphics/SVG/1.1/DTD/svg11.dtd" >
<svg xmlns="http://www.w3.org/2000/svg" xmlns:xlink="http://www.w3.org/1999/xlink" version="1.1" viewBox="-11 0 1022 1000">
   <path fill="currentColor"
d="M196 464q0 8 -5 13l-160 161q-5 5 -12.5 5t-13.5 -5t-5 -13v-321q0 -8 5 -13t13 -5t13 5l160 160q5 5 5 13zM1000 732v107q0 7 -5 13t-13 5h-964q-7 0 -13 -5t-5 -13v-107q0 -7 5 -12t13 -6h964q7 0 13 6t5 12zM1000 518v107q0 7 -5 13t-13 5h-607q-7 0 -13 -5t-5 -13
v-107q0 -7 5 -13t13 -5h607q7 0 13 5t5 13zM1000 304v107q0 7 -5 12t-13 6h-607q-7 0 -13 -6t-5 -12v-107q0 -8 5 -13t13 -5h607q7 0 13 5t5 13zM1000 89v107q0 8 -5 13t-13 5h-964q-7 0 -13 -5t-5 -13v-107q0 -7 5 -12t13 -6h964q7 0 13 6t5 12z" />
</svg>
