<?xml version="1.0" standalone="no"?>
<!DOCTYPE svg PUBLIC "-//W3C//DTD SVG 1.1//EN" "http://www.w3.org/Graphics/SVG/1.1/DTD/svg11.dtd" >
<svg xmlns="http://www.w3.org/2000/svg" xmlns:xlink="http://www.w3.org/1999/xlink" version="1.1" viewBox="-10 0 1140 1000">
   <path fill="currentColor"
d="M1016 499q0 -92 -67 -159t-158 -66q-93 0 -158 65l-73 70l-71 -69q-66 -66 -160 -66q-91 0 -158 66t-67 159t67 159t158 66q94 0 159 -65l72 -70l71 70q65 65 158.5 65t159.5 -67t67 -158zM791 170q137 0 233 97t96 232t-96 233q-98 97 -233.5 97t-230.5 -95
q-95 95 -230.5 95t-232.5 -97t-97 -233t96 -232t233 -96.5t231 93.5q94 -94 231 -94zM286 499q0 18 13 30t30 13t30 -13l32 -30l-30 -29q-13 -13 -31.5 -13t-30.5 12t-13 30zM234 499q0 -39 28 -67t67.5 -28t68.5 29l68 66l-70 68q-26 26 -66 26t-68 -28t-28 -66zM834 499
q0 -17 -12 -29t-31.5 -12t-30.5 11l-31 30l30 29q14 14 32 14t30 -13t13 -30zM885 499q0 39 -27 66t-67.5 27.5t-67.5 -27.5l-69 -66l70 -66q27 -28 66.5 -28t67.5 28t27 66z" />
</svg>
