<?xml version="1.0" standalone="no"?>
<!DOCTYPE svg PUBLIC "-//W3C//DTD SVG 1.1//EN" "http://www.w3.org/Graphics/SVG/1.1/DTD/svg11.dtd" >
<svg xmlns="http://www.w3.org/2000/svg" xmlns:xlink="http://www.w3.org/1999/xlink" version="1.1" viewBox="-10 0 833 1000">
   <path fill="currentColor"
d="M469 772v-349h-121v349h121zM408 362q30 0 50.5 -20.5t20.5 -50.5t-20.5 -50.5t-50.5 -20.5t-51 20.5t-21 50t21 50.5t51 21zM406 93q110 0 205 56q92 53 146 145q56 95 56 205.5t-56 204.5q-54 92 -146 146q-95 56 -205.5 56t-204.5 -56q-92 -54 -146 -146
q-55 -94 -55 -204.5t55 -205.5q54 -92 146 -145q94 -56 205 -56z" />
</svg>
