<?xml version="1.0" standalone="no"?>
<!DOCTYPE svg PUBLIC "-//W3C//DTD SVG 1.1//EN" "http://www.w3.org/Graphics/SVG/1.1/DTD/svg11.dtd" >
<svg xmlns="http://www.w3.org/2000/svg" xmlns:xlink="http://www.w3.org/1999/xlink" version="1.1" viewBox="-11 0 959 1000">
   <path fill="currentColor"
d="M0 500q0 -95 37 -182t100 -149t149 -100t183 -37q95 0 182 37t149 100t100 149t37.5 181.5t-37.5 182.5t-100 150t-149 100t-182 37t-183 -37t-149 -100t-100 -150t-37 -182zM398 330q0 29 20 46t51.5 17t50.5 -17t19 -46t-19 -45t-51 -16.5t-51 16.5t-20 45zM403 732
h132v-299h-132v299z" />
</svg>
