<?xml version="1.0" standalone="no"?>
<!DOCTYPE svg PUBLIC "-//W3C//DTD SVG 1.1//EN" "http://www.w3.org/Graphics/SVG/1.1/DTD/svg11.dtd" >
<svg xmlns="http://www.w3.org/2000/svg" xmlns:xlink="http://www.w3.org/1999/xlink" version="1.1" viewBox="-10 0 378 1000">
   <path fill="currentColor"
d="M357 750v71q0 15 -10 25t-26 11h-285q-15 0 -25 -11t-11 -25v-71q0 -15 11 -25t25 -11h35v-214h-35q-15 0 -25 -11t-11 -25v-71q0 -15 11 -25t25 -11h214q15 0 25 11t11 25v321h35q15 0 26 11t10 25zM286 107v107q0 15 -11 25t-25 11h-143q-14 0 -25 -11t-11 -25v-107
q0 -14 11 -25t25 -11h143q15 0 25 11t11 25z" />
</svg>
