<?xml version="1.0" standalone="no"?>
<!DOCTYPE svg PUBLIC "-//W3C//DTD SVG 1.1//EN" "http://www.w3.org/Graphics/SVG/1.1/DTD/svg11.dtd" >
<svg xmlns="http://www.w3.org/2000/svg" xmlns:xlink="http://www.w3.org/1999/xlink" version="1.1" viewBox="-12 0 942 1000">
   <path fill="currentColor"
d="M454 40q190 -2 326 130t139 322t-130 327t-323 140t-327 -130t-140 -323t131 -327t324 -139zM506 192q-42 0 -65 24t-23 50q-2 28 15 44t49 16q38 0 61 -22t23 -54q0 -58 -60 -58zM386 786q30 0 84 -26t106 -78l-18 -24q-48 36 -72 36q-14 0 -4 -38l42 -160
q26 -96 -22 -96q-30 0 -89 29t-115 75l16 26q52 -34 74 -34q12 0 0 34l-36 152q-26 104 34 104z" />
</svg>
