<?xml version="1.0" standalone="no"?>
<!DOCTYPE svg PUBLIC "-//W3C//DTD SVG 1.1//EN" "http://www.w3.org/Graphics/SVG/1.1/DTD/svg11.dtd" >
<svg xmlns="http://www.w3.org/2000/svg" xmlns:xlink="http://www.w3.org/1999/xlink" version="1.1" viewBox="-10 0 593 1000">
   <path fill="currentColor"
d="M429 735q50 6 78 51q18 31 12 69t-34 61q-92 79 -215 79q-160 0 -220 -122q-52 -109 13 -238l30 -58q-51 -6 -79 -51q-19 -31 -12 -69t33 -61q64 -54 154 -71q-32 -53 -32 -111q0 -87 61 -148t147 -61t147 61t61 148q0 62 -35 114t-90 77q40 52 44 123t-34 149zM365 110
q-43 0 -74 31t-31 73t31 73t74 30.5t73 -30.5t31 -73t-31 -73t-73 -31zM270 891q39 0 76 -13t54 -27l17 -12q-33 11 -63 11q-46 0 -56 -33t15 -82l52 -104q44 -91 10 -150t-123 -59q-39 0 -76 14t-54 25l-18 13q34 -12 64 -12q46 0 56 34t-15 81l-52 104q-44 91 -10 151
t123 59z" />
</svg>
