<?xml version="1.0" standalone="no"?>
<!DOCTYPE svg PUBLIC "-//W3C//DTD SVG 1.1//EN" "http://www.w3.org/Graphics/SVG/1.1/DTD/svg11.dtd" >
<svg xmlns="http://www.w3.org/2000/svg" xmlns:xlink="http://www.w3.org/1999/xlink" version="1.1" viewBox="-11 0 922 1000">
   <path fill="currentColor"
d="M884 544q24 52 14 96l-34 184q-2 20 -19 35t-39 15h-712q-22 0 -39 -15t-19 -35l-34 -184q-8 -50 14 -96l158 -374q22 -46 72 -46h104l-20 204h-134l254 210l256 -210h-136l-18 -204h102q50 0 74 46zM816 676q2 -22 -10 -38t-34 -16h-644q-22 0 -34 16t-10 38l14 74
q2 22 19 37t37 15h592q22 0 39 -15t19 -37z" />
</svg>
