<?xml version="1.0" standalone="no"?>
<!DOCTYPE svg PUBLIC "-//W3C//DTD SVG 1.1//EN" "http://www.w3.org/Graphics/SVG/1.1/DTD/svg11.dtd" >
<svg xmlns="http://www.w3.org/2000/svg" xmlns:xlink="http://www.w3.org/1999/xlink" version="1.1" viewBox="-10 0 1019 1000">
   <path fill="currentColor"
d="M749 1h-498q-68 0 -125 33.5t-90.5 90.5t-33.5 124v502q0 67 33.5 124t90.5 90.5t125 33.5h498q68 0 125.5 -33.5t91 -90.5t33.5 -124v-502q0 -67 -33.5 -124t-91 -90.5t-125.5 -33.5zM906 751q0 42 -21 78t-57 57t-79 21h-498q-43 0 -79 -21t-57 -57t-21 -78v-324h197
q-23 49 -23 100q0 64 32 118t86.5 86t118.5 32t118.5 -32t86.5 -86t32 -118q0 -54 -23 -100h187v324zM407 527q0 -41 29 -69.5t69.5 -28.5t69 28.5t28.5 69t-28.5 69.5t-69 29t-69.5 -29t-29 -69zM906 335h-264q-61 -44 -137 -44t-137 44h-274v-86q0 -42 21 -78t57 -57
t79 -21h498q43 0 79 21t57 57t21 78v86zM806 149h-85q-11 0 -19.5 8t-8.5 19v86q0 11 8.5 19t19.5 8h85q12 0 20 -8t8 -19v-86q0 -11 -8 -19t-20 -8z" />
</svg>
