<?xml version="1.0" standalone="no"?>
<!DOCTYPE svg PUBLIC "-//W3C//DTD SVG 1.1//EN" "http://www.w3.org/Graphics/SVG/1.1/DTD/svg11.dtd" >
<svg xmlns="http://www.w3.org/2000/svg" xmlns:xlink="http://www.w3.org/1999/xlink" version="1.1" viewBox="-10 0 1021 1000">
   <path fill="currentColor"
d="M0 900v-800q0 -41 30 -71t70 -29h800q41 0 71 29t29 71v800q0 41 -29 71t-71 29h-800q-41 0 -70 -29t-30 -71zM200 500q0 124 88 212t212 88t212 -88t88 -212t-88 -212t-212 -88t-212 88t-88 212zM300 500q0 -82 59 -141t141 -59t141 59t59 141t-59 141t-141 59t-141 -59
t-59 -141z" />
</svg>
