<?xml version="1.0" standalone="no"?>
<!DOCTYPE svg PUBLIC "-//W3C//DTD SVG 1.1//EN" "http://www.w3.org/Graphics/SVG/1.1/DTD/svg11.dtd" >
<svg xmlns="http://www.w3.org/2000/svg" xmlns:xlink="http://www.w3.org/1999/xlink" version="1.1" viewBox="-10 0 877 1000">
   <path fill="currentColor"
d="M571 500q0 -59 -41 -101t-101 -42t-101 42t-42 101t42 101t101 42t101 -42t41 -101zM648 500q0 91 -64 156t-155 64t-156 -64t-64 -156t64 -156t156 -64t155 64t64 156zM709 271q0 21 -15 36t-37 15t-36 -15t-15 -36t15 -36t36 -15t37 15t15 36zM429 148h-43h-59
q-20 0 -54 2t-57 5t-40 11q-28 11 -49 32t-33 49q-6 16 -10 40t-6 58t-1 53t0 59t0 43t0 43t0 59t1 53t6 58l10 40q12 28 33 49t49 32q16 6 40 11t57 5t54 2t59 0t43 0t42 0t59 0t54 -2t58 -5t39 -11q28 -11 50 -32t32 -49q6 -16 10 -40t6 -58t1 -53t0 -59t0 -43t0 -43
t0 -59t-1 -53t-6 -58l-10 -40q-11 -28 -32 -49t-50 -32q-16 -6 -39 -11t-58 -5t-54 -2t-59 0t-42 0zM857 500q0 128 -3 177q-5 116 -69 180t-179 69q-50 3 -177 3t-177 -3q-116 -6 -180 -69t-69 -180q-3 -49 -3 -177t3 -177q5 -116 69 -180t180 -69q49 -3 177 -3t177 3
q116 6 179 69t69 180q3 49 3 177z" />
</svg>
