<?xml version="1.0" standalone="no"?>
<!DOCTYPE svg PUBLIC "-//W3C//DTD SVG 1.1//EN" "http://www.w3.org/Graphics/SVG/1.1/DTD/svg11.dtd" >
<svg xmlns="http://www.w3.org/2000/svg" xmlns:xlink="http://www.w3.org/1999/xlink" version="1.1" viewBox="-10 0 1307 1000">
   <path fill="currentColor"
d="M0 341q174 -33 208 -71q27 -30 45 -91q18 23 23 48t1 40l-5 13l-10 21q-4 8 -8 13l-9 11q-5 6 -10 9t-16 11t-21 14q-35 27 -33 62t30 55q26 16 51 -6t52 -78q12 -25 19 -66t19 -73t47 -59q20 -16 46 -19t50 -1t51 0t60 -24t67 -64l14 -16q9 -10 38 -29t59 -28t74 1
t86 45q-48 -21 -90 -21t-67 15t-44 33t-26 33l-7 15q-15 37 -28 61t-24 39t-25 22l-24 12q-10 5 -32 8t-38 10q-43 13 -50 54q-6 36 22 53q32 18 82 -14q37 -24 60 -50t30 -44t28 -39t51 -37q43 -21 82 -29t83 -8t67 -3q197 -32 246 -114q48 -79 49 -130q17 58 12 104
t-27 80t-44 57t-41 34l-18 11q-77 40 -128 55t-84 21t-62 22q-103 55 -52 155q21 41 62 44t77 -29q6 -5 14 -14t23 -39t15 -61q20 56 16 96t-21 64l-15 22q-36 38 -60 53t-63 19t-90 -15q-86 -21 -119 -21t-62 18q-28 16 -43 42t-2 49q14 25 34 27t64 -21q39 -23 66 -30
t68 -8q87 -2 139 38q37 24 74 57q-40 -24 -79 -31t-66 1t-48 18t-32 22l-10 10q-45 51 -75 72t-53 21t-59 -15q-10 -4 -39 -17t-42 -16v-110q0 -121 -92 -186q-59 -40 -134.5 -40t-133.5 39q-20 -29 -51 -33v-75q0 -31 -21 -53t-53 -21h-18zM127 905v-162q0 -65 19 -99
q40 -71 134 -71q69 0 111 43t41 110v135h-202v67q0 48 50 48q45 0 50 -49h102q0 62 -42 105t-110 43q-94 0 -134 -71q-19 -34 -19 -99zM230 784h100v-56q0 -56 -50 -56t-50 56v56zM492 983q11 -36 11 -71q0 -11 -3 -20q24 4 34 5q62 6 85 46l5 9q3 6 7 23t-1 31
q-31 -24 -65 -30t-54 1z" />
</svg>
