<?xml version="1.0" standalone="no"?>
<!DOCTYPE svg PUBLIC "-//W3C//DTD SVG 1.1//EN" "http://www.w3.org/Graphics/SVG/1.1/DTD/svg11.dtd" >
<svg xmlns="http://www.w3.org/2000/svg" xmlns:xlink="http://www.w3.org/1999/xlink" version="1.1" viewBox="-10 0 1020 1000">
   <path fill="currentColor"
d="M1000 523q0 31 -4 58h-642q0 81 61 136t144 55q55 0 103 -26t76 -73h236q-31 89 -95 157t-149 106t-179 37q-105 0 -199 -47q-127 65 -220 65q-132 0 -132 -147q0 -64 25 -153q10 -34 61 -128q111 -201 265 -338q-103 44 -238 197q35 -153 158 -250t280 -98h25
q142 -65 242 -65q35 0 64 7t53 23t37 42t14 65q0 64 -42 159q56 102 56 218zM961 166q0 -47 -30 -74t-76 -27q-60 0 -142 39q68 26 124 73t96 109q28 -75 28 -120zM71 856q0 48 28 74t75 26q64 0 148 -46q-68 -41 -119 -103t-77 -136q-55 114 -55 185zM353 458h406
q-3 -79 -63 -132t-140.5 -53t-139.5 53t-63 132z" />
</svg>
