<?xml version="1.0" standalone="no"?>
<!DOCTYPE svg PUBLIC "-//W3C//DTD SVG 1.1//EN" "http://www.w3.org/Graphics/SVG/1.1/DTD/svg11.dtd" >
<svg xmlns="http://www.w3.org/2000/svg" xmlns:xlink="http://www.w3.org/1999/xlink" version="1.1" viewBox="-10 0 1163 1000">
   <path fill="currentColor"
d="M816 464q0 20 -13 34t-35 14h-391q-20 0 -34 -14t-14 -34t14 -34t34 -14h391q21 0 35 14t13 34zM936 464q0 -48 -13 -95h-548q-20 0 -34 -14t-14 -33.5t14 -33.5t34 -14h507q-49 -80 -131 -127t-180 -47t-182 49t-133 133t-48 182q0 48 12 95h548q21 0 35 14t13.5 34
t-13.5 34t-35 14h-506q49 79 131 126t179 47q74 0 141 -29t116 -77t78 -116t29 -142zM1143 322q0 19 -14 33t-34 14h-73q9 48 9 95q0 93 -36 179t-98 146t-147 99t-178 36q-137 0 -250 -74t-168 -195h-106q-20 0 -34 -14t-14 -34t14 -34t34 -14h74q-10 -47 -10 -95
q0 -93 37 -178t98 -147t146 -98t179 -37q137 0 250 75t168 195h105q20 0 34 14t14 34z" />
</svg>
