<?xml version="1.0" standalone="no"?>
<!DOCTYPE svg PUBLIC "-//W3C//DTD SVG 1.1//EN" "http://www.w3.org/Graphics/SVG/1.1/DTD/svg11.dtd" >
<svg xmlns="http://www.w3.org/2000/svg" xmlns:xlink="http://www.w3.org/1999/xlink" version="1.1" viewBox="-10 0 958 1000">
   <path fill="currentColor"
d="M0 500q0 -95 37 -182t100 -149t150 -100t182 -37t182 37t149 100t100 149t37 182t-37 182t-100 150t-149 100t-182 37t-182 -37t-150 -100t-100 -150t-37 -182zM176 500q0 79 39 147t107 107t147 39t146 -39t107 -107t39.5 -147t-39.5 -147t-107 -106t-146 -40t-147 40
t-107 106t-39 147zM352 650q99 -6 167 -79t68 -171q0 -27 -5 -53q35 26 56 67t21 86q0 79 -56 134t-134 56q-65 0 -117 -40z" />
</svg>
