<?xml version="1.0" standalone="no"?>
<!DOCTYPE svg PUBLIC "-//W3C//DTD SVG 1.1//EN" "http://www.w3.org/Graphics/SVG/1.1/DTD/svg11.dtd" >
<svg xmlns="http://www.w3.org/2000/svg" xmlns:xlink="http://www.w3.org/1999/xlink" version="1.1" viewBox="-10 0 591 1000">
   <path fill="currentColor"
d="M0 928l10 -48q12 -4 34 -9t40 -11t33 -13q16 -19 23 -56l35 -162q34 -158 63 -303t29 -165v-14q-13 -8 -30 -11t-39 -4t-32 -3l10 -58l67 4q48 3 84 4t67 1q27 0 55 -1t68 -4l54 -4q-2 22 -10 50q-17 6 -57 16t-60 19q-5 10 -8 23l-5 23q-2 10 -4 25t-4 24
q-15 82 -49 234t-43 198l-18 83l-9 46q-4 22 -4 32l1 10q9 3 103 18q-2 24 -9 55q-6 0 -18 1t-18 1q-16 0 -49 -6t-48 -6q-77 -1 -115 -1q-28 0 -79 5z" />
</svg>
