<?xml version="1.0" standalone="no"?>
<!DOCTYPE svg PUBLIC "-//W3C//DTD SVG 1.1//EN" "http://www.w3.org/Graphics/SVG/1.1/DTD/svg11.dtd" >
<svg xmlns="http://www.w3.org/2000/svg" xmlns:xlink="http://www.w3.org/1999/xlink" version="1.1" viewBox="-10 0 1020 1000">
   <path fill="currentColor"
d="M0 500q0 -136 67 -251t182 -182t251 -67t251 67t182 182t67 251t-67 251t-182 182t-251 67t-251 -67t-182 -182t-67 -251zM100 500q0 166 117 283t283 117t283 -117t117 -283t-117 -283t-283 -117t-283 117t-117 283zM283 676q0 31 22 52t52 22q33 0 57 -24t24 -57v-269
l200 -37v208q-15 -5 -28 -5q-33 0 -57 24t-24 56t21 53t52 22t56 -23t25 -54v-394l-290 50v300q-15 -5 -28 -5q-34 0 -58 24t-24 57z" />
</svg>
