<?xml version="1.0" standalone="no"?>
<!DOCTYPE svg PUBLIC "-//W3C//DTD SVG 1.1//EN" "http://www.w3.org/Graphics/SVG/1.1/DTD/svg11.dtd" >
<svg xmlns="http://www.w3.org/2000/svg" xmlns:xlink="http://www.w3.org/1999/xlink" version="1.1" viewBox="-10 0 688 1000">
   <path fill="currentColor"
d="M225 0q-9 0 -13 1l-27 2q-18 1 -28 3q-43 6 -101 29q-24 10 -35 16q1 0 -7 3q-5 2 -7 3.5t-2 8.5q-2 12 -2 19q-5 44 -1 77q3 23 13.5 24.5t20.5 -8.5q4 -4 15 -19q15 -21 29 -34q17 -16 37 -24q23 -9 54 -13q21 -3 55 -5q85 -6 154 12q80 21 133 74q14 14 29 34
q46 67 59 161q4 25 4 40q1 23 -3 41q-15 62 -71 122q-37 39 -73 65l-23 16q-14 9 -22 16q-22 21 -38 49q-20 36 -26 80q-6 41 0 84l3 16q1 10 2 17t4 11t9.5 6.5t11.5 2.5q8 1 12 -10q2 -6 2 -16l-2 -15q-7 -36 -6 -61q2 -29 13 -55t30 -46q16 -16 46 -36q39 -25 48 -32
q49 -38 84 -83q38 -50 53 -104q12 -40 7 -84q-3 -23 -12 -53q-6 -18 -18 -51q-30 -83 -77 -143q-54 -69 -125 -102q-50 -23 -126 -33q-40 -4 -61 -5zM172 421q-18 2 -28 8q-17 10 -24 36q-10 35 1 87l3 13q1 9 3 14l1 5q1 4 2 5q3 3 8.5 4.5t9.5 0.5q7 -1 9.5 -8t2.5 -17
v-15l-3 -26q-2 -17 -2 -27q0 -14 3 -26q6 -22 21 -28q7 -3 14 0t10.5 11.5t5.5 24.5q2 20 3 26.5t6 16.5q0 1 1 2.5t2 1.5q4 0 9 -5q11 -9 8 -7q26 -22 40 -30q10 -4 13 -5q7 -2 12 2l5 5q4 6 3.5 11.5t-3.5 12.5q-7 17 -5 12q-13 29 -24 45q-3 4 -15 18q-9 11 -13 19
q-8 15 -5 27q2 6 6 9t9.5 2t13.5 -11l18 -26l18 -24q11 -15 17 -25q18 -32 18 -69q0 -18 -7 -33q-8 -19 -24 -22q-9 0 -13 1q-7 1 -16 5q-15 7 -34 26l-9 11q-5 6 -9 10q0 -26 -12 -43q-8 -12 -21.5 -18.5t-28.5 -6.5zM57 658h-3q-14 2 -19.5 12.5t-2.5 24.5q5 27 40 53.5
t77 40t85 11.5q40 -2 67 -14q10 -4 14 -15t-6 -16q-4 -2 -7 -2q-8 -1 -20 3q-22 6 -33 8q-26 5 -52 -1t-46 -21q-27 -19 -58 -59q-12 -15 -15 -17q-10 -9 -21 -8zM36 769q-6 0 -8 1q-11 0 -15 3q-6 5 -2 13q1 4 7 13q16 20 50 45q77 54 168 60q26 1 53 -3q16 -3 20 -4
q8 -4 10 -13.5t-2 -19.5t-11 -13q-4 -2 -12 -1l-12 2q-16 3 -47.5 2.5t-64 -10t-60.5 -24.5q-20 -11 -40 -29l-8 -8q-5 -5 -9.5 -8.5t-8.5 -4.5q-2 -1 -8 -1zM39 864h-1q-11 2 -17 10q-6 5 -8 11q-7 17 7 36q10 14 29 26q30 19 67 31q100 36 169 14q28 -8 44 -26
q6 -6 7 -12.5t-7 -9.5q-4 -1 -7.5 0t-8.5 3l-7 3q-22 10 -48 13q-15 2 -32 -1q-10 -1 -31 -6q66 18 -27 -7q-16 -5 -27 -9q-24 -8 -43 -21q11 8 -6 -4l-5 -5q-5 -6 -14.5 -18.5t-15.5 -17.5q-8 -10 -18 -10z" />
</svg>
