<?xml version="1.0" standalone="no"?>
<!DOCTYPE svg PUBLIC "-//W3C//DTD SVG 1.1//EN" "http://www.w3.org/Graphics/SVG/1.1/DTD/svg11.dtd" >
<svg xmlns="http://www.w3.org/2000/svg" xmlns:xlink="http://www.w3.org/1999/xlink" version="1.1" viewBox="-10 0 877 1000">
   <path fill="currentColor"
d="M597 599l-89 89l-101 102q-36 35 -85 48t-95 1q-9 39 -41 65t-72 25q-47 0 -80 -34t-34 -81q0 -41 25 -72t63 -40q-12 -48 1 -97t49 -84l7 -7l84 85l-6 6q-21 21 -21 50t20.5 49.5t49.5 20.5t50 -20l101 -102l90 -89zM407 218l7 7l-85 85l-7 -7q-21 -21 -50 -21t-49 21
t-21 50t21 50l190 190l-84 85l-90 -89l-101 -102q-38 -37 -50 -89t2 -100q-39 -8 -64 -40t-25 -72q0 -47 34 -81t81 -34q42 0 74 28t39 68q47 -11 94 2t84 49zM857 814q0 47 -33 81t-81 34q-41 0 -73 -27t-40 -66q-48 16 -100 4t-90 -50l-6 -7l84 -85l7 7q20 20 49 20
t50 -20t21 -50t-21 -50l-17 -16l-174 -174l85 -85l174 174l16 17q36 35 49 84t1 95q43 6 71 39t28 75zM856 186q0 43 -28 76t-71 38q14 48 1 99t-50 88l-6 7l-85 -85l7 -7q21 -20 21 -49t-21 -50t-50 -21t-49 21l-191 191l-85 -85l90 -89l85 -85l16 -17q37 -37 89 -50t99 2
q6 -42 38 -70t76 -29q47 0 81 34t33 81z" />
</svg>
