<?xml version="1.0" standalone="no"?>
<!DOCTYPE svg PUBLIC "-//W3C//DTD SVG 1.1//EN" "http://www.w3.org/Graphics/SVG/1.1/DTD/svg11.dtd" >
<svg xmlns="http://www.w3.org/2000/svg" xmlns:xlink="http://www.w3.org/1999/xlink" version="1.1" viewBox="-10 0 1164 1000">
   <path fill="currentColor"
d="M1005 431q61 25 100 81t38 124q0 91 -66 156t-159 65h-691q-95 -6 -161 -70t-66 -157q0 -61 31 -113t82 -82q-7 -22 -7 -46q0 -64 46 -109t111 -46q53 0 96 33q42 -86 124 -139t182 -52q93 0 171 45t124 122t45 168v20zM261 579q0 68 47 108t116 40q77 0 134 -56l-26 -31
q-17 -20 -25 -28q-37 36 -80 36q-31 0 -52 -19t-21.5 -48.5t21.5 -48.5t51 -19q24 0 47 12t41 30t36 42t38 46t43 42t55 30t67 12q68 0 115 -40t46 -106q0 -68 -47 -107t-115 -40q-80 0 -135 54l52 60q37 -35 79 -35q29 0 52 18t22 47q0 32 -21 51t-52 19q-24 0 -46 -11
t-40 -31l-37 -42l-39 -46q-20 -24 -43 -41t-54 -31t-66 -12q-68 0 -115 39t-48 106z" />
</svg>
