<?xml version="1.0" standalone="no"?>
<!DOCTYPE svg PUBLIC "-//W3C//DTD SVG 1.1//EN" "http://www.w3.org/Graphics/SVG/1.1/DTD/svg11.dtd" >
<svg xmlns="http://www.w3.org/2000/svg" xmlns:xlink="http://www.w3.org/1999/xlink" version="1.1" viewBox="-10 0 1021 1000">
   <path fill="currentColor"
d="M0 938v-94q0 -20 18 -39l379 -379q-22 -57 -22 -114q0 -128 92 -220t221 -92t220 92t92 220t-92 221t-220 92q-57 0 -114 -22l-74 73v74q0 25 -19 44t-43 18h-63v63q0 25 -19 44t-43 19h-73l-45 44q-17 18 -39 18h-93q-26 0 -44 -19t-19 -43zM63 938h87l45 -45
q18 -18 45 -18h73v-63q0 -25 18 -43t44 -19h63v-74q0 -26 17 -43l106 -106q60 35 127 35q103 0 176 -73t73 -177t-73 -176t-176 -73t-177 73t-73 176q0 67 35 127l-410 409v90zM625 225q0 -4 2 -10q23 -65 88 -88q15 -6 27 4q74 53 127 127q6 8 6 17q0 4 -2 10
q-23 65 -88 88q-15 6 -27 -4q-74 -53 -127 -127q-6 -8 -6 -17zM656 225q51 70 119 119q51 -18 69 -69q-49 -68 -119 -119q-51 18 -69 69z" />
</svg>
