<?xml version="1.0" standalone="no"?>
<!DOCTYPE svg PUBLIC "-//W3C//DTD SVG 1.1//EN" "http://www.w3.org/Graphics/SVG/1.1/DTD/svg11.dtd" >
<svg xmlns="http://www.w3.org/2000/svg" xmlns:xlink="http://www.w3.org/1999/xlink" version="1.1" viewBox="-11 0 801 1000">
   <path fill="currentColor"
d="M774 238q20 116 -28 215t-150 117q-66 12 -130 2l-118 194l-70 12l-104 166q-14 28 -46 32l-76 14q-12 4 -22 -4t-12 -22l-16 -98q-8 -30 12 -56l258 -386q-24 -50 -38 -120q-18 -106 53 -187t185 -101q106 -20 195 45t107 177zM648 314q30 -44 21 -97t-51 -84t-92 -21
t-80 54q-8 12 -12 23t-1 20l5 16q2 7 13 17t18 15l67 49q16 12 23 16t19 12t19 8t17 -1t18 -8t16 -19z" />
</svg>
