<?xml version="1.0" standalone="no"?>
<!DOCTYPE svg PUBLIC "-//W3C//DTD SVG 1.1//EN" "http://www.w3.org/Graphics/SVG/1.1/DTD/svg11.dtd" >
<svg xmlns="http://www.w3.org/2000/svg" xmlns:xlink="http://www.w3.org/1999/xlink" version="1.1" viewBox="-10 0 1092 1000">
   <path fill="currentColor"
d="M214 652v53q0 9 -9 9h-53q-9 0 -9 -9v-53q0 -9 9 -9h53q9 0 9 9zM286 509v53q0 9 -9 9h-125q-9 0 -9 -9v-53q0 -9 9 -9h125q9 0 9 9zM214 366v54q0 9 -9 9h-53q-9 0 -9 -9v-54q0 -9 9 -9h53q9 0 9 9zM786 652v53q0 9 -9 9h-482q-9 0 -9 -9v-53q0 -9 9 -9h482q9 0 9 9z
M429 509v53q0 9 -9 9h-54q-9 0 -9 -9v-53q0 -9 9 -9h54q9 0 9 9zM357 366v54q0 9 -9 9h-53q-9 0 -9 -9v-54q0 -9 9 -9h53q9 0 9 9zM571 509v53q0 9 -8 9h-54q-9 0 -9 -9v-53q0 -9 9 -9h54q8 0 8 9zM500 366v54q0 9 -9 9h-53q-9 0 -9 -9v-54q0 -9 9 -9h53q9 0 9 9zM714 509
v53q0 9 -9 9h-53q-9 0 -9 -9v-53q0 -9 9 -9h53q9 0 9 9zM929 652v53q0 9 -9 9h-54q-9 0 -9 -9v-53q0 -9 9 -9h54q9 0 9 9zM643 366v54q0 9 -9 9h-54q-9 0 -9 -9v-54q0 -9 9 -9h54q9 0 9 9zM786 366v54q0 9 -9 9h-54q-9 0 -9 -9v-54q0 -9 9 -9h54q9 0 9 9zM929 366v196
q0 9 -9 9h-125q-9 0 -9 -9v-53q0 -9 9 -9h62v-134q0 -9 9 -9h54q9 0 9 9zM1000 786v-500h-929v500h929zM1071 286v500q0 29 -20 50t-51 21h-929q-29 0 -50 -21t-21 -50v-500q0 -30 21 -51t50 -21h929q30 0 51 21t20 51z" />
</svg>
