<?xml version="1.0" standalone="no"?>
<!DOCTYPE svg PUBLIC "-//W3C//DTD SVG 1.1//EN" "http://www.w3.org/Graphics/SVG/1.1/DTD/svg11.dtd" >
<svg xmlns="http://www.w3.org/2000/svg" xmlns:xlink="http://www.w3.org/1999/xlink" version="1.1" viewBox="-11 0 930 1000">
   <path fill="currentColor"
d="M2 253q9 -42 45 -65.5t78 -14.5t66 45q18 28 16 61t-20 58q22 32 45 54t41 32t32 14t26 4q2 -1 19 -3q21 0 36 -16t22 -43t11 -53t3 -57q-32 -10 -52 -37t-20 -62q0 -43 30 -73t74 -30t74 30t30 73q0 35 -20 62t-52 37q0 31 3 57t11 53t22 43t36 16q2 0 6 1t7 1t6 1
q12 0 26 -4t32 -14t41 -32t45 -54q-19 -26 -21 -59t17 -60q23 -36 65 -45t78.5 14.5t45.5 65.5t-15 78q-18 28 -49 40t-62 4q-29 44 -54 99t-34 89l-10 33q-7 32 -15 81l-16 98q-8 49 -10 64q-5 28 -37 50t-72 34t-78 11.5t-79 -11.5t-72 -34t-37 -50l-9 -64q-7 -50 -15 -99
t-16 -80l-11 -37q-7 -23 -32 -81t-55 -103q-32 8 -63 -4t-48 -40q-24 -36 -15 -78z" />
</svg>
