<?xml version="1.0" standalone="no"?>
<!DOCTYPE svg PUBLIC "-//W3C//DTD SVG 1.1//EN" "http://www.w3.org/Graphics/SVG/1.1/DTD/svg11.dtd" >
<svg xmlns="http://www.w3.org/2000/svg" xmlns:xlink="http://www.w3.org/1999/xlink" version="1.1" viewBox="-10 0 877 1000">
   <path fill="currentColor"
d="M365 602q-1 1 -7 -1l-18 -6l-11 -5q-24 -11 -48 -28q-4 -2 -23 -17t-21 -16q-38 57 -75 101q-45 53 -59 61q-2 1 -11 3t-10 0l46 -52q12 -13 48 -64t43 -66q10 -17 29 -55t20 -43q-5 -1 -61 18q-5 2 -16 5l-19 5q-8 2 -9.5 3t-1.5 6v5q-3 5 -18 8q-12 4 -26 0
q-10 -2 -15 -11q-3 -4 -3 -13l13 -3l17 -3q32 -9 59 -18q55 -20 56 -20q6 -1 24 -11t25 -12q5 -1 12 -4t8 -3h3q2 7 0 18q0 2 -7 16l-15 29q-8 15 -9 19q-14 28 -43 73l35 16l42 18q35 15 37.5 15.5t5.5 13.5t3 18zM251 330q1 9 -3 16q-6 13 -28 21q-16 7 -33 7
q-15 -2 -27 -15q-8 -8 -10 -23v-1q2 1 11 3t15 0t32 -9q20 -7 31 -8q9 0 12 9zM640 402l35 127l-77 -23zM22 849l387 -130v-576l-387 130v576zM714 672l57 17l-101 -367l-56 -17l-120 299l57 18l25 -62l118 36zM434 135l319 103v-212zM607 873l88 8l-30 89l-22 -37
q-73 46 -154 60q-32 7 -51 7h-47q-44 0 -111 -22t-102 -47q-5 -4 -5 -9t3 -8t6 -3t11 5t17 9t12 6q40 21 89 34t87 14q54 0 94 -8t87 -28q9 -4 17 -9t19 -11l16 -9zM857 271v602l-432 -137l-209 71q-201 68 -205 68q-8 0 -10 -7q0 -1 -1 -2v-602l2 -5q3 -3 11 -6l84 -28
v-214l311 110q1 0 90 -31t176 -60l90 -30q11 0 11 12v233z" />
</svg>
