<?xml version="1.0" standalone="no"?>
<!DOCTYPE svg PUBLIC "-//W3C//DTD SVG 1.1//EN" "http://www.w3.org/Graphics/SVG/1.1/DTD/svg11.dtd" >
<svg xmlns="http://www.w3.org/2000/svg" xmlns:xlink="http://www.w3.org/1999/xlink" version="1.1" viewBox="-10 0 1021 1000">
   <path fill="currentColor"
d="M988 544q30 82 -10 176t-134 160q-10 0 -12 -2l-32 -38q-2 -6 2 -10q86 -60 117 -152t-11 -148q-16 38 -39 76t-59 80t-86 65t-106 15q-52 -6 -84 -41t-32 -93q0 -84 60 -148q50 -50 114 -66l-2 -100q-140 24 -146 25t-10 -5q0 -2 -5 -29t-5 -31q-2 -2 1 -4t7 -2l156 -28
q0 -110 -2 -114q0 -8 8 -8q46 0 52 -2q10 0 10 8v104q158 -22 164 -22q8 -4 10 6q0 2 4 23t4 25q4 10 -4 12l-176 30v102h12q86 0 148 36t86 100zM618 704q28 6 62 -6l-4 -214q-34 12 -60 40q-44 44 -44 109t46 71zM740 676q28 -24 58 -68t45 -79t7 -41q-36 -18 -96 -18
q-2 0 -6 1t-6 1zM292 294q10 28 53 165t83 261t40 127t-4 3h-86q-6 0 -6 -4l-50 -166h-176q-48 164 -50 166q0 4 -6 4h-86q-4 0 -4 -4q10 -18 176 -552q2 -8 10 -8h96q10 0 10 8zM162 610h144l-72 -264z" />
</svg>
