<?xml version="1.0" standalone="no"?>
<!DOCTYPE svg PUBLIC "-//W3C//DTD SVG 1.1//EN" "http://www.w3.org/Graphics/SVG/1.1/DTD/svg11.dtd" >
<svg xmlns="http://www.w3.org/2000/svg" xmlns:xlink="http://www.w3.org/1999/xlink" version="1.1" viewBox="-11 0 961 1000">
   <path fill="currentColor"
d="M0 111q-1 -11 6 -20t14 -17t23 -15t27 -13t33 -14t35 -15q54 -22 97 -16t54 35q25 67 102 320t116 361q268 -88 326 -105q16 -6 37 -4t33 23q23 47 32 99t1 74q-19 15 -60 32t-75 29t-90 29t-73 23q-10 3 -38 13l-53 19q-25 9 -58 19t-61 17t-54 12t-45 3t-25 -9
q-18 -18 -32 -52t-29 -87l-19 -66l-113 -338l-104 -313q-6 -13 -7 -24z" />
</svg>
