<?xml version="1.0" standalone="no"?>
<!DOCTYPE svg PUBLIC "-//W3C//DTD SVG 1.1//EN" "http://www.w3.org/Graphics/SVG/1.1/DTD/svg11.dtd" >
<svg xmlns="http://www.w3.org/2000/svg" xmlns:xlink="http://www.w3.org/1999/xlink" version="1.1" viewBox="-10 0 1015 1000">
   <path fill="currentColor"
d="M439 716l-37 -99l-11 10q-13 13 -30 23q-22 14 -46 23q-30 10 -61 10q-39 0 -69.5 -22t-47.5 -62t-17 -94q0 -98 44 -148q37 -42 96 -42q47 0 80 20q28 17 48 53q15 27 31 75l37 114q20 61 51 100q36 48 93 72q64 27 158 27q112 0 171 -36q66 -39 66 -121q0 -67 -38 -107
q-37 -38 -112 -56l-73 -16q-37 -8 -52 -24q-13 -15 -13 -42q0 -29 21.5 -45.5t59.5 -16.5q41 0 63 17t25 53l114 -14q-7 -75 -57 -110q-49 -34 -139 -34q-87 0 -139 35q-63 41 -63 128q0 59 30 95q32 37 102 54l77 18q42 10 61 28q17 17 17 43q0 31 -29.5 45t-89.5 14
q-81 0 -128 -41q-40 -33 -62 -103l-38 -114q-24 -75 -59.5 -118.5t-87.5 -63.5t-129 -20q-124 0 -190 75t-66 211q0 129 64.5 197.5t184.5 68.5q44 0 84 -9q31 -8 59 -21q20 -9 35 -21z" />
</svg>
