<?xml version="1.0" standalone="no"?>
<!DOCTYPE svg PUBLIC "-//W3C//DTD SVG 1.1//EN" "http://www.w3.org/Graphics/SVG/1.1/DTD/svg11.dtd" >
<svg xmlns="http://www.w3.org/2000/svg" xmlns:xlink="http://www.w3.org/1999/xlink" version="1.1" viewBox="-10 0 801 1000">
   <path fill="currentColor"
d="M596 717q185 0 185 -123q0 -102 -117 -129l-59 -13q-49 -12 -49 -52q0 -46 62 -46q67 0 71 52l90 -10q-9 -114 -155 -114q-158 0 -158 130q0 93 103 118l61 11q63 15 63 56q0 49 -97 49q-117 0 -155 -114l-30 -90q-27 -88 -70 -125q-40 -35 -131 -35q-84 0 -146 62
q-64 61 -64 163q0 97 59.5 153.5t144.5 56.5q82 0 132 -40l-27 -77q-44 44 -101 44q-53 0 -87 -41t-35 -98q0 -78 39.5 -113.5t87.5 -35.5q52 0 76 28q21 27 41 87l29 89q49 157 237 157z" />
</svg>
