<?xml version="1.0" standalone="no"?>
<!DOCTYPE svg PUBLIC "-//W3C//DTD SVG 1.1//EN" "http://www.w3.org/Graphics/SVG/1.1/DTD/svg11.dtd" >
<svg xmlns="http://www.w3.org/2000/svg" xmlns:xlink="http://www.w3.org/1999/xlink" version="1.1" viewBox="-10 0 1020 1000">
   <path fill="currentColor"
d="M721 393q0 3 6 23q5 16 14 27t22 19t25 11t31 10q181 50 181 185q0 81 -59 135t-142 54q-33 0 -62 -10t-51 -26t-43 -41t-35 -49t-30 -58t-24 -57t-22 -60l-20 -53q-18 -45 -35 -74t-41 -54t-58 -36t-79 -11q-53 0 -102 31t-77 81t-28 103q0 89 59 156t147 67
q99 0 144 -53q31 -36 46 -65l47 85q-8 19 -24 39v0q-73 85 -216 85q-82 0 -151 -44t-106 -116t-38 -153q0 -59 24 -115t65 -98t96 -68t114 -26q49 0 89 11t69 28t53 44t40 56t33 65t28 69t28 73t31 71q53 112 130 112q45 0 77 -27t32 -72q0 -24 -11 -40t-28 -26t-40 -18
t-47 -15t-49 -19t-45 -29t-37 -45t-21 -69q-2 -9 -2 -18q0 -62 49 -107t111 -44q43 2 67 8t50 30v0q6 6 13 14t14 20t11 15l-72 55q-15 -27 -30 -39v0q-13 -12 -55 -12q-27 0 -46 18t-20 47z" />
</svg>
