<?xml version="1.0" standalone="no"?>
<!DOCTYPE svg PUBLIC "-//W3C//DTD SVG 1.1//EN" "http://www.w3.org/Graphics/SVG/1.1/DTD/svg11.dtd" >
<svg xmlns="http://www.w3.org/2000/svg" xmlns:xlink="http://www.w3.org/1999/xlink" version="1.1" viewBox="-10 0 1350 1000">
   <path fill="currentColor"
d="M0 500q0 -164 116 -280t280 -116q124 0 220 63t146 181q15 36 129 300q21 48 38 73t49 45t79 22h7q67 0 111 -36q46 -38 47 -96q0 -27 -8 -45t-29 -32t-41 -22t-59 -20q-125 -41 -180 -90t-55 -135q0 -91 58 -146t156 -54q127 0 191 115l-84 43q-45 -62 -112 -62
q-46 0 -76 28t-31 73q0 13 2 24t9 21t12 16t17 14t20 12t25 10l27 10q10 4 31 10t33 10q108 36 155 84t46 140q0 100 -75.5 165.5t-186.5 65.5h-3q-100 0 -161 -47t-103 -140l-14 -33l-127 -288q-33 -77 -104 -124t-159 -47q-119 0 -203 84t-85 204t85 203t203 85
q82 0 150 -43t105 -112l51 118q-55 68 -135 107t-171 38q-164 0 -280 -116t-116 -280z" />
</svg>
