<?xml version="1.0" standalone="no"?>
<!DOCTYPE svg PUBLIC "-//W3C//DTD SVG 1.1//EN" "http://www.w3.org/Graphics/SVG/1.1/DTD/svg11.dtd" >
<svg xmlns="http://www.w3.org/2000/svg" xmlns:xlink="http://www.w3.org/1999/xlink" version="1.1" viewBox="-10 0 1020 1000">
   <path fill="currentColor"
d="M196 0q-53 0 -98 26.5t-71.5 71.5t-26.5 98v608q0 53 26.5 98t71.5 71.5t98 26.5h608q53 0 98 -26.5t71.5 -71.5t26.5 -98v-608q0 -53 -26.5 -98t-71.5 -71.5t-98 -26.5h-608zM285 253q68 0 114.5 18t78 57t53.5 106l34 102q20 61 55 92q42 36 114 36q54 0 80 -12.5
t26 -40.5q0 -23 -16 -38.5t-53 -24.5l-69 -16q-62 -15 -90 -47.5t-28 -85.5q0 -77 56 -115q47 -31 126 -31t123 30q45 32 51 99l-102 13q-3 -33 -22.5 -47.5t-56.5 -14.5q-34 0 -53 14.5t-19 39t12.5 38.5t45.5 22l65 14q67 15 100 49q34 36 34 96q0 73 -58 109
q-54 32 -154 32q-122 0 -188 -52q-53 -42 -81 -126l-33 -102q-14 -43 -28 -67q-18 -32 -43 -47q-29 -18 -71 -18q-53 0 -86 38q-39 44 -39 132q0 72 33 115t87 43q27 0 54 -9q21 -8 42 -21q14 -9 26 -20l10 -9l32 89l-10 8q-14 11 -31 19q-25 12 -53 19q-35 8 -75 8
q-107 0 -164.5 -61.5t-57.5 -176.5q0 -122 59 -189t170 -67z" />
</svg>
