<?xml version="1.0" standalone="no"?>
<!DOCTYPE svg PUBLIC "-//W3C//DTD SVG 1.1//EN" "http://www.w3.org/Graphics/SVG/1.1/DTD/svg11.dtd" >
<svg xmlns="http://www.w3.org/2000/svg" xmlns:xlink="http://www.w3.org/1999/xlink" version="1.1" viewBox="-10 0 1020 1000">
   <path fill="currentColor"
d="M394 628l34 100q-64 52 -169 52t-182 -73t-77 -199q0 -130 80 -209t188 -79q112 0 167 45t91 159l36 116q48 146 202 146q120 0 120 -60q0 -54 -78 -72l-78 -18q-134 -34 -134 -152q0 -88 58 -126t146 -38q184 0 198 146l-114 14q-8 -70 -90 -70t-82 62q0 50 66 66l74 16
q150 36 150 166q0 160 -238 160q-136 0 -204 -53t-100 -149l-36 -116q-14 -40 -22 -60t-25 -43t-42 -33t-61 -10q-64 0 -113 46t-49 142q0 80 46 130t110 50q60 0 128 -56z" />
</svg>
