<?xml version="1.0" standalone="no"?>
<!DOCTYPE svg PUBLIC "-//W3C//DTD SVG 1.1//EN" "http://www.w3.org/Graphics/SVG/1.1/DTD/svg11.dtd" >
<svg xmlns="http://www.w3.org/2000/svg" xmlns:xlink="http://www.w3.org/1999/xlink" version="1.1" viewBox="-10 0 958 1000">
   <path fill="currentColor"
d="M469 969q-195 0 -333 -138q-136 -136 -136 -332t135.5 -332t333.5 -136q195 0 331 136q138 138 138 332t-138 332t-331 138zM469 135q-153 0 -259 106t-106 259q0 150 106 257t259 108q150 0 257 -108t108 -257q0 -153 -108 -259t-257 -106zM584 621q104 0 104 -69
q0 -59 -67 -74l-32 -6q-28 -7 -28 -30q0 -26 34 -26q38 0 40 30l51 -5q-6 -65 -87 -65q-89 0 -89 74q0 53 58 66l35 6q35 10 35 31q0 28 -54 28q-66 0 -88 -64l-17 -50q-15 -50 -38 -70t-75 -21q-50 0 -83 37t-34 90q0 50 32 84t82 34q47 0 75 -23l-15 -43q-25 25 -58 25
q-30 0 -49 -23t-20 -56q0 -38 19 -60t53 -23q21 0 34 10t19 20t13 34l16 50q29 89 134 89z" />
</svg>
