<?xml version="1.0" standalone="no"?>
<!DOCTYPE svg PUBLIC "-//W3C//DTD SVG 1.1//EN" "http://www.w3.org/Graphics/SVG/1.1/DTD/svg11.dtd" >
<svg xmlns="http://www.w3.org/2000/svg" xmlns:xlink="http://www.w3.org/1999/xlink" version="1.1" viewBox="-10 0 877 1000">
   <path fill="currentColor"
d="M799 587q0 -97 -130 -133q-20 -6 -30 -10t-21 -14t-16 -25q0 -2 -2 -5t-1 -7t-1 -4q0 -20 14 -33t34 -13q30 0 39 8v0q11 8 22 28l51 -39q-21 -30 -27 -36q-18 -16 -38 -22t-47 -5q-45 0 -80 32t-34 77l1 12q9 54 36 79t83 40q16 5 27 9t25 12t22 19t7 26v3q1 32 -22 52
t-56 19q-55 0 -94 -80q-12 -26 -28 -68l-27 -70q-11 -28 -30 -62t-42 -53t-57 -34t-82 -13q-57 0 -107 31t-81 83t-28 107v0q3 61 28 111t75 83t109 31q104 0 156 -61q11 -15 17 -29l-33 -61q-24 45 -55 65t-82 20q-64 0 -106 -48t-43 -114q0 -59 46 -106t104 -46
q62 0 95 29t58 97l30 81q6 16 17 41t22 41t25 35t31 30t37 19t45 7q59 0 102 -39t42 -97zM857 232v536q0 66 -47 113t-114 48h-535q-67 0 -114 -48t-47 -113v-536q0 -66 47 -113t114 -48h535q67 0 114 48t47 113z" />
</svg>
