<?xml version="1.0" standalone="no"?>
<!DOCTYPE svg PUBLIC "-//W3C//DTD SVG 1.1//EN" "http://www.w3.org/Graphics/SVG/1.1/DTD/svg11.dtd" >
<svg xmlns="http://www.w3.org/2000/svg" xmlns:xlink="http://www.w3.org/1999/xlink" version="1.1" viewBox="-10 0 620 1000">
   <path fill="currentColor"
d="M170 200q80 0 80 80v90q0 80 -80 80h-90q-80 0 -80 -80v-90q0 -80 80 -80h90zM520 200q80 0 80 80v90q0 80 -80 80h-90q-80 0 -80 -80v-90q0 -80 80 -80h90zM170 550q80 0 80 80v90q0 80 -80 80h-90q-80 0 -80 -80v-90q0 -80 80 -80h90zM520 550q80 0 80 80v90
q0 80 -80 80h-90q-80 0 -80 -80v-90q0 -80 80 -80h90z" />
</svg>
