<?xml version="1.0" standalone="no"?>
<!DOCTYPE svg PUBLIC "-//W3C//DTD SVG 1.1//EN" "http://www.w3.org/Graphics/SVG/1.1/DTD/svg11.dtd" >
<svg xmlns="http://www.w3.org/2000/svg" xmlns:xlink="http://www.w3.org/1999/xlink" version="1.1" viewBox="-11 0 961 1000">
   <path fill="currentColor"
d="M236 204q182 -106 506 -66q168 22 196 50q4 6 -2 10q-76 40 -130 109t-78 132t-65 132t-93 105q-138 96 -382 4q-66 76 -114 176q-12 24 -47 7t-25 -39q44 -100 129 -193t176 -153t176 -106t141 -68l54 -20q-14 0 -41 1t-104 14t-148 38t-162 84t-161 141
q-22 -242 174 -358z" />
</svg>
