<?xml version="1.0" standalone="no"?>
<!DOCTYPE svg PUBLIC "-//W3C//DTD SVG 1.1//EN" "http://www.w3.org/Graphics/SVG/1.1/DTD/svg11.dtd" >
<svg xmlns="http://www.w3.org/2000/svg" xmlns:xlink="http://www.w3.org/1999/xlink" version="1.1" viewBox="-11 0 892 1000">
   <path fill="currentColor"
d="M2 794q9 -28 31 -48t44 -41t20 -32q-14 -30 -14 -39q-19 -127 61 -232t195 -153q43 -18 102 -20t104 4t94 -4t79 -43q45 -49 82 -49q23 0 33 20q55 119 30 240t-96 221t-168 150q-182 90 -352 32q-13 -4 -43 -23t-47 -18q-9 5 -19 18t-22 32t-15 26q-14 23 -37 27
t-43 -16q-28 -25 -19 -52zM184 619q1 15 13 24t26 8t24 -12q145 -173 377 -168q16 2 27 -8t10.5 -25t-9.5 -26t-26 -13q-127 -6 -239 45t-194 147q-10 13 -9 28z" />
</svg>
