<?xml version="1.0" standalone="no"?>
<!DOCTYPE svg PUBLIC "-//W3C//DTD SVG 1.1//EN" "http://www.w3.org/Graphics/SVG/1.1/DTD/svg11.dtd" >
<svg xmlns="http://www.w3.org/2000/svg" xmlns:xlink="http://www.w3.org/1999/xlink" version="1.1" viewBox="-10 0 1021 1000">
   <path fill="currentColor"
d="M714 393q0 -15 -10 -25t-25 -11q-96 0 -178 28t-145 74t-131 123q-11 12 -11 26t11 24t24.5 10.5t25.5 -10.5q15 -13 41 -39t38 -37q76 -69 150 -98t175 -29q14 0 25 -11t10 -25zM1000 282q0 53 -11 108q-26 125 -103 214t-200 149q-119 61 -244 61q-83 0 -160 -27
q-8 -2 -49 -23t-53 -21q-9 0 -22 18t-25 39t-30 39t-33 18q-24 0 -36 -10t-25 -33l-8 -17q-1 -3 -1 -7q0 -20 17 -41t38 -37t38 -31t18 -27q0 -2 -8 -21t-9 -25q-5 -28 -5 -58q0 -64 24 -123t66 -103t96 -77t113 -53q31 -10 81 -15t101 -5t99 -3t91 -13t64 -32l16 -16
l17 -16q17 -16 15 -11t20 -9t24 -3q22 0 40 26t26 63t14 69t4 53z" />
</svg>
