<?xml version="1.0" standalone="no"?>
<!DOCTYPE svg PUBLIC "-//W3C//DTD SVG 1.1//EN" "http://www.w3.org/Graphics/SVG/1.1/DTD/svg11.dtd" >
<svg xmlns="http://www.w3.org/2000/svg" xmlns:xlink="http://www.w3.org/1999/xlink" version="1.1" viewBox="-10 0 1163 1000">
   <path fill="currentColor"
d="M1056 219l87 710q-73 0 -144 -32q-111 -51 -219 -51q-126 0 -209 83q-82 -83 -208 -83q-108 0 -220 51q-71 32 -140 32h-3l87 -710q125 -71 269 -71q130 0 215 59q86 -59 216 -59q144 0 269 71zM780 769q72 0 130 16t145 53l-69 -570q-96 -44 -206 -44q-125 0 -209 79
q-83 -79 -208 -79q-110 0 -206 44l-69 570q59 -24 93 -37t82 -22t100 -10q112 0 208 61q96 -61 209 -61zM803 751l-31 -507q-118 3 -201 87q-84 -87 -208 -87q-98 0 -188 37l-63 525q69 -28 127 -42t124 -14q116 0 208 57q96 -60 209 -57z" />
</svg>
