<?xml version="1.0" standalone="no"?>
<!DOCTYPE svg PUBLIC "-//W3C//DTD SVG 1.1//EN" "http://www.w3.org/Graphics/SVG/1.1/DTD/svg11.dtd" >
<svg xmlns="http://www.w3.org/2000/svg" xmlns:xlink="http://www.w3.org/1999/xlink" version="1.1" viewBox="-10 0 1020 1000">
   <path fill="currentColor"
d="M768 786h18v-357h-18q-20 0 -38 -7t-35 -21t-28 -25t-27 -31q-4 -5 -7 -7q-40 -46 -62 -81q-8 -13 -21 -38l-6 -13q-5 -11 -10 -20t-12 -20t-12 -17t-10 -6q-40 0 -64 17t-25 54q0 24 8 47t19 38t18 31t8 27h-321q-28 0 -50 22t-22 50.5t22 49.5t50 21h185q-9 9 -14 26
t-6 31q0 39 30 67q-10 18 -10 38t9 41t27 30q-2 13 -2 31q0 47 27 70t74.5 23t102.5 -18t109 -35t93 -18zM929 750q0 -15 -11 -25t-25 -11t-25 11t-11 25t11 25t25 11t25 -11t11 -25zM1000 429v357q0 29 -21 50t-50 21h-161q-33 0 -125 33q-106 39 -176 39q-80 0 -129 -44
t-48 -121v-3q-34 -42 -34 -99q0 -12 2 -24q-19 -32 -21 -67h-94q-59 0 -101 -42t-42 -100.5t42 -100.5t101 -42h209q-13 -34 -13 -72q0 -68 46 -105t115 -38q21 0 39 10t31 28t22 35l39 75q20 30 56 72l18 21q3 4 12 12t13 13t13 10t13 8t12 2h161q29 0 50 21t21 51z" />
</svg>
