<?xml version="1.0" standalone="no"?>
<!DOCTYPE svg PUBLIC "-//W3C//DTD SVG 1.1//EN" "http://www.w3.org/Graphics/SVG/1.1/DTD/svg11.dtd" >
<svg xmlns="http://www.w3.org/2000/svg" xmlns:xlink="http://www.w3.org/1999/xlink" version="1.1" viewBox="-10 0 1285 1000">
   <path fill="currentColor"
d="M0 709h24q-7 -14 -7 -34q0 -65 46 -186t87 -183q32 -49 84 -49q45 0 45 34q0 52 -72 199h82q20 -62 53 -126q34 -68 73 -91t116 -23q29 0 57 14t27 40t-13 42t-37 22t-44 9t-46 2h-9q-15 22 -28 58q18 -3 37 -3q64 0 64 38q0 9 -3 18v0q-16 59 -88 59q-23 0 -50 -5
q-16 48 -21 73q52 -10 77 -10t43 11t18 36q0 34 -23 57t-54 31t-64 8q-65 0 -96 -41v0q-20 -24 -20 -62q0 -23 3 -45q8 -50 28 -112h-82l-26 55q-17 36 -25 55h-1l-7 14q22 -2 34 -2q59 0 59 40q0 51 -39 73t-93 23q-65 0 -85 -39h-24zM538 631q0 -38 16 -95t33 -99
q19 -45 36 -74t43 -57t61 -41t80 -13q50 0 87 19t37 65q0 38 -21 68t-57 31q-52 0 -52 -33q0 -6 4 -18t3 -18q0 -13 -22 -13q-17 0 -32 14t-29 43t-18 41t-15 39v0q-32 84 -32 119q0 29 28 29q25 0 44 -25t26 -52q-42 -2 -42 -35q0 -37 28 -54t66 -17q52 0 65 35v0
q4 11 4 26q0 50 -28 106t-69 87v0q-53 41 -120.5 41t-99.5 -41v0q-24 -29 -24 -78zM867 709h42q-18 -26 -18 -66q0 -79 49 -204q19 -47 33 -74t37 -56t57 -41t78 -13q120 0 120 115q0 50 -22 120v0q-15 51 -41 110v0q-37 77 -73 109v0q-46 41 -118.5 41t-101.5 -41h-42z
M1011 600h3q-6 35 22 35q23 0 43 -38h-2q17 -36 45 -116t28 -103t-20.5 -23t-33.5 16q-18 26 -52 119v0q-25 67 -33 110z" />
</svg>
