<?xml version="1.0" standalone="no"?>
<!DOCTYPE svg PUBLIC "-//W3C//DTD SVG 1.1//EN" "http://www.w3.org/Graphics/SVG/1.1/DTD/svg11.dtd" >
<svg xmlns="http://www.w3.org/2000/svg" xmlns:xlink="http://www.w3.org/1999/xlink" version="1.1" viewBox="-10 0 877 1000">
   <path fill="currentColor"
d="M785 461q0 -25 -4 -63t-10 -54l-9 -25q-3 -8 -5 -20t-2 -26t2 -40l3 -37q0 -21 -5 -31h-8q-10 0 -32 2l-33 3q-34 0 -98 -14t-98 -13q-24 0 -53 6t-47 13l-50 19q-76 30 -113 58q-53 41 -89 106t-49 131t-14 139q0 22 7 67t7 67q0 13 -6 38t-6 36t7 20t19.5 9t39.5 -7
t41 -6q32 0 95 9t94 9q101 0 159 -21q72 -25 131 -85t93 -137t33 -153zM857 460q0 92 -39 183t-110 160t-157 101q-69 25 -182 25q-31 0 -94 -8t-95 -9q-13 0 -40 9t-41 8q-41 0 -69 -31t-28 -72q0 -14 6 -38t6 -37q0 -23 -7 -68t-7 -68q0 -61 10 -121t31 -117t56 -108
t83 -87q44 -33 130 -67q108 -44 176 -44q34 0 98 14t97 13q10 0 32 -3t32 -2q45 0 66 28t21 75q0 13 -3 38t-3 38q0 7 1 14t2 9l4 11q3 9 5 11q9 23 14 67t5 76z" />
</svg>
