<?xml version="1.0" standalone="no"?>
<!DOCTYPE svg PUBLIC "-//W3C//DTD SVG 1.1//EN" "http://www.w3.org/Graphics/SVG/1.1/DTD/svg11.dtd" >
<svg xmlns="http://www.w3.org/2000/svg" xmlns:xlink="http://www.w3.org/1999/xlink" version="1.1" viewBox="-10 0 870 1000">
   <path fill="currentColor"
d="M0 150v500q27 27 58 48q28 18 60 32q27 12 59 23q20 6 54.5 15.5t47.5 13.5q23 8 37 16q17 9 25.5 21.5t8.5 30.5h50v-450q0 -42 -27 -74q-24 -27 -71 -50q-32 -16 -96 -38q-82 -28 -107 -38q-60 -24 -99 -50zM850 150q-39 26 -99 50q-25 10 -107 38q-64 22 -96 38
q-47 23 -71 50q-27 32 -27 74v450h50q0 -18 8.5 -30.5t25.5 -21.5q14 -8 37 -16q13 -4 47.5 -13.5t54.5 -15.5q32 -11 59 -23q32 -14 60 -32q31 -21 58 -48v-500z" />
</svg>
