<?xml version="1.0" standalone="no"?>
<!DOCTYPE svg PUBLIC "-//W3C//DTD SVG 1.1//EN" "http://www.w3.org/Graphics/SVG/1.1/DTD/svg11.dtd" >
<svg xmlns="http://www.w3.org/2000/svg" xmlns:xlink="http://www.w3.org/1999/xlink" version="1.1" viewBox="-11 0 906 1000">
   <path fill="currentColor"
d="M443 57q182 0 312 130t130 313t-130 312t-312 131t-313 -131t-130 -312t130 -313t313 -130zM781 500q0 -81 -37 -154l-100 100q7 26 7 54t-7 54l100 100q37 -73 37 -154zM104 500q0 81 37 154l102 -102q-8 -26 -8 -53t8 -53l-102 -100q-37 73 -37 154zM264 395
q27 -46 74 -74l-93 -92l-74 73zM338 679q-45 -25 -74 -74l-93 92l74 74zM369 574q30 30 74 30t73 -30q32 -32 32 -74t-31 -73t-74 -31t-74 31t-30 73q0 44 30 74zM714 302l-74 -73l-92 92q46 28 73 74zM621 605q-28 49 -73 74l92 92l74 -74zM596 199q-72 -38 -153 -38
t-154 38l101 101q30 -9 53 -9t53 9zM289 801q72 38 154 38t153 -38l-100 -101q-31 9 -53 9t-53 -9z" />
</svg>
