<?xml version="1.0" standalone="no"?>
<!DOCTYPE svg PUBLIC "-//W3C//DTD SVG 1.1//EN" "http://www.w3.org/Graphics/SVG/1.1/DTD/svg11.dtd" >
<svg xmlns="http://www.w3.org/2000/svg" xmlns:xlink="http://www.w3.org/1999/xlink" version="1.1" viewBox="-10 0 720 1000">
   <path fill="currentColor"
d="M350 340q68 0 114 47t46 114t-46 113t-113 46t-114 -46t-47 -113t47 -114t113 -47zM350 604q44 0 73 -30t29 -73t-29 -73t-72 -30t-73 30t-30 73t30 73t72 30zM50 460q20 0 35 12t15 28q0 40 -50 40t-50 -40q0 -16 15 -28t35 -12zM596 256q28 28 -8 64q-14 14 -33 16
t-30 -10t-9 -31t16 -33q36 -34 64 -6zM650 460q20 0 35 12t15 28q0 40 -49 40t-49 -40q0 -16 14 -28t34 -12zM350 750q16 0 28 15t12 35t-12 35t-28 15t-28 -15t-12 -35t12 -35t28 -15zM112 688q36 -36 64 -8t-8 64q-14 14 -33 16t-29 -8q-30 -28 6 -64zM102 258
q28 -28 64 8q14 14 16 33t-8 29q-30 28 -64 -6q-36 -36 -8 -64zM534 742q-34 -36 -6 -64t64 8q14 14 16 33t-10 29q-30 28 -64 -6zM350 250q-16 0 -28 -15t-12 -35t12 -35t28 -15t28 15t12 35t-12 35t-28 15z" />
</svg>
