<?xml version="1.0" standalone="no"?>
<!DOCTYPE svg PUBLIC "-//W3C//DTD SVG 1.1//EN" "http://www.w3.org/Graphics/SVG/1.1/DTD/svg11.dtd" >
<svg xmlns="http://www.w3.org/2000/svg" xmlns:xlink="http://www.w3.org/1999/xlink" version="1.1" viewBox="-10 0 1021 1000">
   <path fill="currentColor"
d="M0 500q0 -207 147 -354t353 -146t354 146t146 354t-146 354t-354 146t-353 -146t-147 -354zM225 525q2 8 8 13t15 5l57 -10q9 -2 14 -8t5 -13q-2 -8 -10 -14q-3 -2 -11 -2h-4l-57 10q-8 0 -13 6t-4 13zM226 354q-3 7 1 15t11 12l51 21q10 4 18 2t9 -10q4 -7 0 -14
t-11 -11l-51 -23q-4 -2 -10 -2h-6q-9 4 -12 10zM326 240q-2 8 4 16l31 47q4 7 13 10t15 -3q6 -3 7 -11t-3 -16l-32 -49q-4 -8 -11 -9h-6q-6 0 -10 1q-6 6 -8 14zM371 531q16 33 29 59q10 21 14 37l5 23q3 15 7 26q2 6 10 7h128q6 -1 10 -7q4 -10 7 -29t5 -20q4 -16 14 -37
l29 -59q37 -82 10 -142q-12 -24 -32 -40t-47 -26t-60 -9h-2q-62 0 -105 34q-75 74 -22 183zM424 803q0 9 10 9h132q10 0 10 -9v-24q0 -10 -10 -10h-132q-10 0 -10 10v24zM424 738q0 10 10 10h132q10 0 10 -10v-23q0 -10 -10 -10h-132q-10 0 -10 10v23zM482 266q0 7 5 14
t14 7t14 -7t5 -14v-57q0 -10 -5 -16t-13 -6h-2q-8 0 -13 6t-5 16v57zM605 299q0 8 6 11q6 6 15 3t13 -10l31 -47q10 -18 -4 -30q-4 -1 -10 -1h-6q-7 1 -11 9l-32 49q-3 8 -2 16zM676 512q0 7 5 13t14 8l57 10q8 0 15 -5t8 -13t-4 -13t-13 -6l-57 -10h-6q-6 0 -9 2
q-8 6 -10 14zM684 394q2 8 9 10t18 -2l51 -21q8 -4 11 -12t1 -15t-12 -10h-6q-6 0 -10 2l-51 23q-7 4 -11 11t0 14z" />
</svg>
