<?xml version="1.0" standalone="no"?>
<!DOCTYPE svg PUBLIC "-//W3C//DTD SVG 1.1//EN" "http://www.w3.org/Graphics/SVG/1.1/DTD/svg11.dtd" >
<svg xmlns="http://www.w3.org/2000/svg" xmlns:xlink="http://www.w3.org/1999/xlink" version="1.1" viewBox="-10 0 902 1000">
   <path fill="currentColor"
d="M1 541q-2 -12 7 -22t22 -11l90 -16q14 -2 26 5t13 20t-7 23t-24 13l-88 13q-14 2 -25 -5t-14 -20zM3 290q-6 -13 0 -24t19 -16t26 4l82 35q14 6 19 18t0 23t-18 16t-26 0l-82 -39q-14 -4 -20 -17zM163 83q2 -13 14 -21q10 -5 22 -2t21 16l49 76q7 12 5 26t-11 19t-23 3
t-20 -15l-51 -76q-8 -13 -6 -26zM220 324q17 -39 49 -66t75 -41t94 -14h4q51 0 94 14t75 41t50 66q43 104 -15 227l-47 91q-14 26 -25 74t-15.5 60.5t-16.5 14.5h-203q-12 -2 -18 -14q-29 -111 -39 -135l-47 -91q-58 -131 -15 -227zM319 947q0 -8 5 -12t13 -5h209q6 0 11 5
t5 12v35q0 8 -5 13t-11 5h-209q-18 0 -18 -18v-35zM319 879v-35q0 -18 18 -18h209q6 0 11 5t5 13v35q0 8 -5 13t-11 4h-209q-8 0 -13 -4t-5 -13zM413 125v-90q0 -16 8 -25t20.5 -9.5t21.5 9.5t9 25v90q0 14 -9 23t-21.5 9.5t-20.5 -9.5t-8 -23zM606 178q-1 -14 6 -26l49 -76
q10 -12 22 -16t23 2q10 8 12 21t-6 26l-49 76q-10 12 -21 15t-23 -3t-13 -19zM724 517q2 -13 12 -20t25 -5l90 16q13 2 22 11t7 22.5t-13 19.5t-26 5l-90 -13q-14 -2 -22 -13t-5 -23zM732 330q-4 -12 1 -23t18 -18l84 -35q12 -8 24 -4t19 16t0 24t-20 17l-82 39q-13 4 -26 0
t-18 -16z" />
</svg>
