<?xml version="1.0" standalone="no"?>
<!DOCTYPE svg PUBLIC "-//W3C//DTD SVG 1.1//EN" "http://www.w3.org/Graphics/SVG/1.1/DTD/svg11.dtd" >
<svg xmlns="http://www.w3.org/2000/svg" xmlns:xlink="http://www.w3.org/1999/xlink" version="1.1" viewBox="-10 0 1020 1000">
   <path fill="currentColor"
d="M950 460q20 0 35 12t15 28q0 40 -50 40h-48q-50 0 -50 -40q0 -16 15 -28t35 -12h48zM500 226q114 0 195 80t81 195t-81 195t-195 80t-194 -80t-80 -195t80 -195t194 -80zM500 700q82 0 141 -58t59 -141t-59 -142t-141 -59t-141 59t-59 142t59 141t141 58zM150 500
q0 40 -50 40h-50q-50 0 -50 -40q0 -16 15 -28t35 -12h50q20 0 35 12t15 28zM500 150q-16 0 -28 -15t-12 -35v-50q0 -20 12 -35t28 -15t28 15t12 35v50q0 20 -12 35t-28 15zM500 850q16 0 28 15t12 35v50q0 20 -12 35t-28 15t-28 -15t-12 -35v-50q0 -20 12 -35t28 -15z
M868 190l-34 34q-34 34 -64 8q-28 -28 8 -64q4 -6 34 -36q36 -34 64 -6t-8 64zM168 778q14 -16 33 -18t30 10t9 31t-16 33l-36 36q-14 14 -33 16t-29 -10q-30 -28 6 -64q6 -4 36 -34zM188 132l36 36q36 36 6 64q-10 10 -29 8t-33 -16q-30 -30 -36 -34q-14 -14 -16 -33t9 -31
t30 -10t33 16zM778 834q-36 -36 -8 -64t64 8l34 34q36 36 8 64t-64 -6q-30 -30 -34 -36z" />
</svg>
