<?xml version="1.0" standalone="no"?>
<!DOCTYPE svg PUBLIC "-//W3C//DTD SVG 1.1//EN" "http://www.w3.org/Graphics/SVG/1.1/DTD/svg11.dtd" >
<svg xmlns="http://www.w3.org/2000/svg" xmlns:xlink="http://www.w3.org/1999/xlink" version="1.1" viewBox="-10 0 592 1000">
   <path fill="currentColor"
d="M411 321q0 8 -6 13t-12 5t-13 -5t-5 -13q0 -25 -30 -39t-59 -14q-7 0 -13 -5t-5 -13t5 -13t13 -5q28 0 55 9t49 30t21 50zM500 321q0 -40 -19 -74t-50 -57t-69 -35t-76 -12t-76 12t-69 35t-50 57t-20 74q0 57 38 101l17 18l17 19q72 85 79 166h127q8 -81 79 -166
q6 -6 17 -19t17 -18q38 -44 38 -101zM571 321q0 87 -57 150q-25 27 -42 48t-33 54t-19 60q26 15 26 46q0 20 -13 35q13 15 13 36q0 29 -25 45q8 13 8 26q0 26 -18 40t-43 14q-11 25 -34 39t-48 15t-49 -15t-33 -39q-26 0 -44 -14t-17 -40q0 -13 7 -26q-25 -16 -25 -45
q0 -21 14 -36q-14 -15 -14 -35q0 -31 26 -46q-2 -28 -19 -60t-33 -54t-41 -48q-58 -63 -58 -150q0 -55 25 -103t65 -79t92 -49t104 -19t104 19t91 49t66 79t24 103z" />
</svg>
