<?xml version="1.0" standalone="no"?>
<!DOCTYPE svg PUBLIC "-//W3C//DTD SVG 1.1//EN" "http://www.w3.org/Graphics/SVG/1.1/DTD/svg11.dtd" >
<svg xmlns="http://www.w3.org/2000/svg" xmlns:xlink="http://www.w3.org/1999/xlink" version="1.1" viewBox="-10 0 938 1000">
   <path fill="currentColor"
d="M895 69q17 15 17 39t-17 40l-114 114q55 80 45 181t-81 170l-167 167q-81 83 -198 83q-85 0 -153 -47l-114 114q-17 17 -39 17t-38.5 -17t-16.5 -40t16 -38l113 -115q-56 -80 -45 -180t81 -172l166 -166q78 -82 198 -82q86 0 154 46l113 -114q15 -16 39 -16t41 16z
M715 415q0 -38 -17 -72l-85 86q-17 16 -39 16t-39 -16t-17 -40t17 -40l85 -84q-36 -16 -72 -16q-73 0 -121 48l-164 168q-49 49 -49 118q0 38 16 71l83 -83q16 -16 40 -16t37 16q16 17 16 40t-16 40l-80 82q36 17 70 17q70 0 119 -49l167 -167q49 -49 49 -119z" />
</svg>
