<?xml version="1.0" standalone="no"?>
<!DOCTYPE svg PUBLIC "-//W3C//DTD SVG 1.1//EN" "http://www.w3.org/Graphics/SVG/1.1/DTD/svg11.dtd" >
<svg xmlns="http://www.w3.org/2000/svg" xmlns:xlink="http://www.w3.org/1999/xlink" version="1.1" viewBox="-10 0 958 1000">
   <path fill="currentColor"
d="M0 793v-586q0 -72 52 -124t124 -51h585q73 0 125 51t51 124v586q0 73 -51 124t-125 52h-585q-73 0 -124 -52t-52 -124zM156 793q0 8 6 14t14 6h117q8 0 14 -6t5 -14v-390q0 -8 -5 -14t-14 -6h-117q-8 0 -14 6t-6 14v390zM156 264q0 31 22 53t54 22t53.5 -22t21.5 -53
t-22 -54t-54 -22t-53 22t-22 54zM351 793q0 8 10 14t18 6h111q7 0 12 -6t6 -14v-213q0 -85 69 -85q29 0 38 13t10 45v240q0 8 7 14t16 6h113q8 0 14 -6t6 -14v-265q0 -77 -44 -117t-125 -41q-55 0 -96 28q-8 5 -8 7q0 -22 -21 -22h-108q-10 0 -19 5t-9 12v393z" />
</svg>
