<?xml version="1.0" standalone="no"?>
<!DOCTYPE svg PUBLIC "-//W3C//DTD SVG 1.1//EN" "http://www.w3.org/Graphics/SVG/1.1/DTD/svg11.dtd" >
<svg xmlns="http://www.w3.org/2000/svg" xmlns:xlink="http://www.w3.org/1999/xlink" version="1.1" viewBox="-10 0 1020 1000">
   <path fill="currentColor"
d="M1000 267q0 112 -78 188l-175 176q-78 78 -189 78q-97 0 -171 -63l115 -115q26 17 56 17q44 0 75 -31l175 -176q31 -29 31 -73.5t-30 -75.5t-75 -30q-25 0 -49 12t-33 34h-238l132 -129q80 -78 189 -78t187 78t78 188zM613 356l-115 115q-26 -17 -56 -17q-44 0 -75 31
l-175 176q-31 29 -31 73.5t31 74.5t74 31q25 0 50 -12t32 -34h238l-132 129q-80 78 -189 78t-187 -78t-78 -189t78 -187l175 -176q78 -78 189 -78q97 0 171 63z" />
</svg>
