<?xml version="1.0" standalone="no"?>
<!DOCTYPE svg PUBLIC "-//W3C//DTD SVG 1.1//EN" "http://www.w3.org/Graphics/SVG/1.1/DTD/svg11.dtd" >
<svg xmlns="http://www.w3.org/2000/svg" xmlns:xlink="http://www.w3.org/1999/xlink" version="1.1" viewBox="-10 0 877 1000">
   <path fill="currentColor"
d="M132 789h129v-387h-129v387zM270 282q-1 -29 -21 -48t-51 -19t-53 19t-21.5 48t20.5 48t52 19v0q33 0 53 -19t21 -48zM596 789h129v-222q0 -86 -41 -130t-107 -44q-76 0 -117 65h1v-56h-129q2 37 0 387h129v-217q0 -21 4 -31q8 -19 25 -33t41 -14q65 0 65 88v207z
M857 232v536q0 66 -47 113t-114 48h-535q-67 0 -114 -48t-47 -113v-536q0 -66 47 -113t114 -48h535q67 0 114 48t47 113z" />
</svg>
