<?xml version="1.0" standalone="no"?>
<!DOCTYPE svg PUBLIC "-//W3C//DTD SVG 1.1//EN" "http://www.w3.org/Graphics/SVG/1.1/DTD/svg11.dtd" >
<svg xmlns="http://www.w3.org/2000/svg" xmlns:xlink="http://www.w3.org/1999/xlink" version="1.1" viewBox="-10 0 968 1000">
   <path fill="currentColor"
d="M786 130q-23 0 -40 16l-90 90l-16 -16q-45 -45 -114 -45t-113 45l-218 217q-47 48 -47 114.5t47 114.5l15 16l-89 89q-16 16 -16 40t16 41q18 18 41 18t41 -18l88 -90l17 16q47 48 114 48t114 -48l218 -217q46 -46 46 -114t-46 -114l-16 -16l90 -90q17 -17 17 -41
t-17 -40t-42 -16zM161 974q-66 0 -113 -49t-48 -113q0 -67 48 -115l25 -25q-29 -57 -29 -120q0 -111 77 -189l218 -217q76 -76 187 -76q65 0 120 28l27 -26q46 -46 113 -46t114 48t48 113q0 69 -48 114l-25 25q30 60 30 121q0 109 -79 188l-216 217q-77 78 -189 78
q-63 0 -121 -29l-25 25q-47 48 -114 48zM575 505q-42 -2 -74 -33t-32 -74l-95 97q42 1 73 32t32 73zM526 287q19 0 33 14l16 16l-37 38q-18 17 -18 41t17 40t41.5 16t40.5 -16l37 -38l17 17q13 13 13 32.5t-13 33.5l-218 216q-14 14 -33 14t-33 -14l-16 -15l37 -37
q18 -18 18 -42t-17.5 -40.5t-41 -16.5t-40.5 17l-38 38l-16 -16q-12 -13 -12 -33.5t12 -33.5l218 -217q13 -14 33 -14z" />
</svg>
