<?xml version="1.0" standalone="no"?>
<!DOCTYPE svg PUBLIC "-//W3C//DTD SVG 1.1//EN" "http://www.w3.org/Graphics/SVG/1.1/DTD/svg11.dtd" >
<svg xmlns="http://www.w3.org/2000/svg" xmlns:xlink="http://www.w3.org/1999/xlink" version="1.1" viewBox="-10 0 1020 1000">
   <path fill="currentColor"
d="M786 518v178q0 67 -47 114t-114 47h-464q-67 0 -114 -47t-47 -114v-464q0 -66 47 -113t114 -48h393q7 0 12 5t5 13v36q0 8 -5 13t-12 5h-393q-37 0 -63 26t-27 63v464q0 37 27 63t63 27h464q37 0 63 -27t26 -63v-178q0 -8 5 -13t13 -5h36q8 0 13 5t5 13zM1000 36v285
q0 15 -11 25t-25 11t-25 -11l-98 -98l-364 364q-5 6 -13 6t-12 -6l-64 -64q-6 -5 -6 -12t6 -13l364 -364l-98 -98q-11 -11 -11 -25t11 -25t25 -11h285q15 0 25 11t11 25z" />
</svg>
