<?xml version="1.0" standalone="no"?>
<!DOCTYPE svg PUBLIC "-//W3C//DTD SVG 1.1//EN" "http://www.w3.org/Graphics/SVG/1.1/DTD/svg11.dtd" >
<svg xmlns="http://www.w3.org/2000/svg" xmlns:xlink="http://www.w3.org/1999/xlink" version="1.1" viewBox="-10 0 877 1000">
   <path fill="currentColor"
d="M195 349v553h-184v-553h184zM207 178q0 41 -29 68t-75 27h-1q-46 0 -74 -27t-28 -68t29 -68t75 -27t74 27t29 68zM857 585v317h-183v-296q0 -59 -23 -92t-71 -33q-35 0 -58 19t-36 48q-6 17 -6 45v309h-184q1 -223 1 -361v-165l-1 -27h184v80h-1q11 -18 23 -31t31 -29
t49 -24t64 -9q95 0 153 63t58 186z" />
</svg>
