<?xml version="1.0" standalone="no"?>
<!DOCTYPE svg PUBLIC "-//W3C//DTD SVG 1.1//EN" "http://www.w3.org/Graphics/SVG/1.1/DTD/svg11.dtd" >
<svg xmlns="http://www.w3.org/2000/svg" xmlns:xlink="http://www.w3.org/1999/xlink" version="1.1" viewBox="-10 0 920 1000">
   <path fill="currentColor"
d="M204 152q0 40 -29 68t-74 28t-73 -28t-28 -69t28 -68t74 -27t73 27t29 69zM6 942v-618h192v618h-192zM312 522q0 -86 -4 -198h166l10 86h4q60 -100 190 -100q100 0 161 67t61 199v366h-192v-342q0 -134 -98 -134q-70 0 -98 72q-6 12 -6 48v356h-194v-420z" />
</svg>
