<?xml version="1.0" standalone="no"?>
<!DOCTYPE svg PUBLIC "-//W3C//DTD SVG 1.1//EN" "http://www.w3.org/Graphics/SVG/1.1/DTD/svg11.dtd" >
<svg xmlns="http://www.w3.org/2000/svg" xmlns:xlink="http://www.w3.org/1999/xlink" version="1.1" viewBox="-10 0 867 1000">
   <path fill="currentColor"
d="M184 857l113 119l-19 -132l-121 -119zM310 983l153 -122l-6 -137l-167 120zM137 627l126 118l-26 -182l-137 -114zM276 752l177 -120l-8 -181l-196 112zM470 758l53 44l-1 -133l-57 -44v11q0 2 -2 5l-44 29l48 39q3 3 3 49zM77 338l143 112l-38 -260l-156 -96zM655 708
l8 -130l-128 91l1 134zM233 454l208 -108l-11 -246l-236 91zM709 658l11 -130l-126 -79l-1 58l80 53q3 2 2 5l-4 67zM815 580l17 -124l-100 72l-11 127zM710 673l-39 -27l-5 65q0 3 -2 5l-130 104q-4 3 -8 0l-55 -46l4 90q0 3 -2 4l-164 131q-2 1 -3 1q-5 -1 -5 -2
l-127 -135q-2 -2 -33 -154q-1 -4 3 -6l34 -21q-52 -48 -53 -51l-40 -196q-1 -4 3 -7l53 -25q-75 -56 -76 -60l-53 -260q-1 -6 4 -8l241 -75q3 0 5 1l177 85q3 2 3 5l11 258q0 4 -3 6l-66 34l70 47q3 1 3 5l3 68l67 -41q3 -2 7 0l46 31l2 -61q0 -3 3 -5l115 -70q3 -2 6 0
l137 75q2 2 2 4l-3 33q-3 31 -10 70t-5 39q0 3 -3 4l-106 85q-4 3 -8 0z" />
</svg>
