<?xml version="1.0" standalone="no"?>
<!DOCTYPE svg PUBLIC "-//W3C//DTD SVG 1.1//EN" "http://www.w3.org/Graphics/SVG/1.1/DTD/svg11.dtd" >
<svg xmlns="http://www.w3.org/2000/svg" xmlns:xlink="http://www.w3.org/1999/xlink" version="1.1" viewBox="-10 0 874 1000">
   <path fill="currentColor"
d="M370 229q-6 1 -9 6t-4 5q-3 1 -3 -2q0 -7 10 -9h6zM419 237q-3 1 -7 -4t-10 -2q14 -6 18 1q2 3 -1 5zM223 475q-3 0 -4 2t-2 7t-3 8t-6 7q-5 6 0 7q2 0 7 -4t7 -10q0 -2 1 -4t1 -4t1 -2t0 -2v-2l-1 -1q-1 -1 -1 -2zM700 676q0 -10 -31 -24l4 -15q2 -7 3 -15t2 -12t0 -12
t0 -11t-2 -12t-3 -12t-2 -14t-4 -14q-5 -27 -26 -58t-40 -42q13 11 32 47q48 90 30 155q-6 22 -28 23q-17 2 -21 -10t-5 -47t-6 -60q-5 -21 -11 -38t-11 -25l-9 -14q-4 -6 -7 -8t-4 -4q-8 -35 -17 -58t-17 -31t-13 -19t-8 -22.5t3 -29.5t2 -27t-24 -14q-9 -2 -25 -10t-20 -9
t-6 -15t4 -28t20 -15q21 -2 29 16t2 33q-6 10 -1 15t17 0q7 -2 7 -20v-21q-3 -17 -8 -28t-11 -17t-13 -8l-15 -4q-60 4 -50 74q0 9 -1 9q-5 -5 -16 -6t-19 0t-8 -3q0 -31 -9 -50t-24.5 -19t-23.5 16t-10 33q0 8 2 20t8 21t8 8q6 -2 8.5 -7.5t-3.5 -4.5q-4 0 -8 -8t-6 -19
q0 -12 5 -21t19 -8q10 0 15 12t6 22t-1 12q-12 9 -17 16t-16 13t-11 7q-7 8 -9 16t4 10q8 4 14 10t9 11t11 7t19 4q27 1 57 -8q1 -1 13 -4t19 -6l17 -7q10 -4 12 -10q5 -8 11 -5q2 2 3 5t-1 7t-10 5q-11 3 -31 12l-25 11q-25 11 -39.5 13.5t-44.5 -1.5q-5 -1 -5 1t10 10
q14 13 37 13q10 -1 20 -4t20 -8l49 -26q5 -3 10 -1t5 6q0 1 -1 2l-2 3q-1 2 -3 3l-5 2q-3 1 -5 3t-5 3l-6 2q-15 8 -37 25t-38 24t-27.5 0.5t-34.5 -41.5q-12 -17 -14 -12q-1 2 -1 6q0 14 -8 31t-16 31t-12 33t6 35q-13 3 -35 50t-26 79q-1 10 -1 38t-3 33q-4 14 -16 2
q-18 -17 -20 -53q-1 -15 2 -31q2 -10 -1 -10l-2 3q-20 36 6 92q3 7 14 16l13 11q11 13 58 51l52 42q9 9 10 22t-8 24t-25 13q4 8 16 24t15 31t4 39q26 -13 4 -51q-2 -5 -6 -9t-5 -7l-1 -3q2 -3 7 -6t11 2q26 29 93 20q74 -9 99 -49q13 -21 19 -17t5 30q0 13 -13 51
q-5 13 -3 21t14 8q1 -10 8 -43t7 -50q1 -12 -3 -41t-5 -54t13 -39q9 -10 29 -10q0 -21 19 -30t40 -6t34 13zM349 214q2 -9 -1 -17t-6 -8q-5 -1 -5 4q1 3 2 3q6 0 4 9q-1 11 5 11q1 0 1 -2zM583 324q-1 -4 -3 -6t-8 -3t-8.5 -3t-4.5 -5t-4 -4t-3 -4t-2 -2t-3 1q-7 9 4 24
t22 18q5 0 8 -5t2 -11zM484 205q0 -6 -3 -11t-6 -7t-5.5 -1.5t-4.5 1.5t0 2l3 2q8 2 10 17q0 2 5 -1q1 -1 1 -2zM514 75q0 -1 -1 -3t-5 -3t-6 -4q-8 -8 -13 -8t-7 4t0 7t0.5 6.5t-4.5 6.5t-3 5t2 4.5t4 0.5l6 -5q4 -3 9 -5q0 -1 5 -1t8 -1t5 -4zM829 824q11 6 18 13t6 14
t-1 12t-9 13t-13 10t-17 11t-17 9t-18 9t-15 7q-21 11 -48 31t-42 36q-9 9 -38 11t-50 -8q-10 -5 -16 -13t-9 -15t-13 -11t-26 -5h-104q-21 0 -32 2q-25 0 -45 8t-30 17t-24 16t-30 6.5t-62 -17.5t-81 -24l-57 -10q-10 -2 -22 -6t-18 -8t-10 -11q-5 -12 4 -37t10 -30
q1 -9 -2 -23t-6 -23t-2 -21t6 -15q7 -6 31 -8t34 -6q17 -10 23 -20t7 -28q12 41 -18 59q-18 11 -46 8q-19 -1 -24 6q-7 8 3 32l4 10q3 7 5 10t2 9t0.5 13.5t-8.5 26.5t-8 27.5t20 13.5q12 4 47 11l56 11q13 3 41 12t46 13t31 2q24 -3 36 -15t13 -27t-4 -33t-11 -29l-11 -20
q-67 -106 -94 -135q-38 -42 -63 -23q-6 5 -9 -8q-1 -9 -1 -21q1 -16 6 -29t13 -26t13 -24l14 -40q10 -28 17 -43l17 -35q10 -20 21 -30q62 -79 70 -108q-7 -63 -9 -173q-1 -51 13 -85t59 -58q22 -12 58 -12q30 -1 59 7t50 24q32 23 51 67t17 83q-3 53 16 119q19 63 75 122
q30 33 55 91t33 106q5 28 3 48t-7 30t-11 13q-5 1 -13 10t-15 20t-23 19t-34 8q-10 -1 -17 -3t-13 -8t-7 -8l-7 -12q-6 -10 -5 -11q-12 -20 -23 -16t-15 27t4 54q11 39 0 109q-5 36 10 56t41 19t47 -20q33 -28 50 -37t58 -24q30 -10 43 -20t10 -20t-14 -16t-28 -13
q-19 -6 -28 -27t-8 -40t8 -27q1 18 5 32t8 23t11 15t12 11t12 7t9 6z" />
</svg>
