<?xml version="1.0" standalone="no"?>
<!DOCTYPE svg PUBLIC "-//W3C//DTD SVG 1.1//EN" "http://www.w3.org/Graphics/SVG/1.1/DTD/svg11.dtd" >
<svg xmlns="http://www.w3.org/2000/svg" xmlns:xlink="http://www.w3.org/1999/xlink" version="1.1" viewBox="-10 0 938 1000">
   <path fill="currentColor"
d="M18 166q0 -57 56 -57t56 56t-56 56t-56 -55zM241 221v-112h670v112h-670zM241 389q0 -57 56 -57t56 56t-56 56t-56 -55zM464 444v-112h447v112h-447zM241 835q0 -56 56 -56t56 56t-56 56t-56 -56zM464 891v-112h447v112h-447zM464 612q0 -56 56 -56t56 55.5t-56 55.5
t-56 -55zM688 667v-111h223v111h-223z" />
</svg>
