<?xml version="1.0" standalone="no"?>
<!DOCTYPE svg PUBLIC "-//W3C//DTD SVG 1.1//EN" "http://www.w3.org/Graphics/SVG/1.1/DTD/svg11.dtd" >
<svg xmlns="http://www.w3.org/2000/svg" xmlns:xlink="http://www.w3.org/1999/xlink" version="1.1" viewBox="-10 0 1021 1000">
   <path fill="currentColor"
d="M213 904q0 45 -31 70t-75 26q-60 0 -96 -37l31 -49q28 25 60 25q16 0 28 -8t12 -24q0 -35 -59 -31l-14 -31q4 -6 18 -24l24 -31q10 -13 20 -21v-1q-9 0 -27 1t-27 0v30h-59v-85h186v49l-53 65q28 6 45 27t17 49zM214 554v89h-202q-4 -20 -4 -30q0 -29 14 -52t31 -38
t37 -27t31 -24t14 -25q0 -14 -9 -22t-22 -7q-25 0 -45 32l-47 -33q13 -28 40 -44t59 -16q40 0 68 23t28 63q0 28 -19 51t-42 36t-42 28t-20 30h71v-34h59zM1000 732v107q0 7 -5 13t-13 5h-678q-8 0 -13 -5t-5 -13v-107q0 -8 5 -13t13 -5h678q7 0 13 6t5 12zM214 230v56h-187
v-56h60v-67q0 -45 1 -68v-7h-1q-5 10 -28 30l-40 -42l76 -71h59v225h60zM1000 446v108q0 7 -5 12t-13 5h-678q-8 0 -13 -5t-5 -12v-108q0 -7 5 -12t13 -5h678q7 0 13 5t5 12zM1000 161v107q0 7 -5 12t-13 6h-678q-8 0 -13 -6t-5 -12v-107q0 -8 5 -13t13 -5h678q7 0 13 5
t5 13z" />
</svg>
