<?xml version="1.0" standalone="no"?>
<!DOCTYPE svg PUBLIC "-//W3C//DTD SVG 1.1//EN" "http://www.w3.org/Graphics/SVG/1.1/DTD/svg11.dtd" >
<svg xmlns="http://www.w3.org/2000/svg" xmlns:xlink="http://www.w3.org/1999/xlink" version="1.1" viewBox="-11 0 1021 1000">
   <path fill="currentColor"
d="M214 661v35q0 8 -5 13t-13 5h-35q-7 0 -13 -5t-5 -13v-35q0 -8 5 -13t13 -5h35q8 0 13 5t5 13zM214 518v36q0 7 -5 12t-13 5h-35q-7 0 -13 -5t-5 -12v-36q0 -7 5 -13t13 -5h35q8 0 13 5t5 13zM214 375v36q0 7 -5 12t-13 6h-35q-7 0 -13 -6t-5 -12v-36q0 -7 5 -13t13 -5
h35q8 0 13 5t5 13zM857 661v35q0 8 -5 13t-13 5h-535q-8 0 -13 -5t-5 -13v-35q0 -8 5 -13t13 -5h535q8 0 13 5t5 13zM857 518v36q0 7 -5 12t-13 5h-535q-8 0 -13 -5t-5 -12v-36q0 -7 5 -13t13 -5h535q8 0 13 5t5 13zM857 375v36q0 7 -5 12t-13 6h-535q-8 0 -13 -6t-5 -12
v-36q0 -7 5 -13t13 -5h535q8 0 13 5t5 13zM929 768v-464q0 -8 -6 -13t-12 -5h-822q-7 0 -12 5t-6 13v464q0 7 6 12t12 6h822q7 0 12 -6t6 -12zM1000 161v607q0 37 -26 63t-63 26h-822q-36 0 -63 -26t-26 -63v-607q0 -37 26 -63t63 -27h822q37 0 63 27t26 63z" />
</svg>
