<?xml version="1.0" standalone="no"?>
<!DOCTYPE svg PUBLIC "-//W3C//DTD SVG 1.1//EN" "http://www.w3.org/Graphics/SVG/1.1/DTD/svg11.dtd" >
<svg xmlns="http://www.w3.org/2000/svg" xmlns:xlink="http://www.w3.org/1999/xlink" version="1.1" viewBox="-10 0 1020 1000">
   <path fill="currentColor"
d="M1000 118v213h-669v-213h669zM1000 452v213h-669v-213h669zM239 224q0 31 -22 53t-54 23t-53 -23t-23 -53t23 -54t53 -22t54 22t22 54zM1000 787v213h-669v-213h669zM239 559q0 32 -22 54t-54 22t-53 -22t-23 -54t23 -54t53 -22t54 22t22 54zM239 894q0 31 -22 54t-54 22
t-53 -22t-23 -54q0 -32 23 -55t53 -22t54 22t22 55z" />
</svg>
