<?xml version="1.0" standalone="no"?>
<!DOCTYPE svg PUBLIC "-//W3C//DTD SVG 1.1//EN" "http://www.w3.org/Graphics/SVG/1.1/DTD/svg11.dtd" >
<svg xmlns="http://www.w3.org/2000/svg" xmlns:xlink="http://www.w3.org/1999/xlink" version="1.1" viewBox="-10 0 1219 1000">
   <path fill="currentColor"
d="M0 515v-34q0 -113 84 -197t215 -84q136 0 247 112q21 20 54 62l96 126q39 52 52 65q74 74 147 74q59 0 96 -40q33 -33 38 -85q1 -5 1 -14q0 -22 -6 -41q-9 -31 -33 -57q0 -1 -1 -1q-38 -40 -95 -40q-78 0 -147 74l-95 -124q55 -60 113 -86t134 -25q124 0 214 84h1l1 1
q83 83 83 215q0 30 -5 63q-16 89 -79 153q-61 62 -150 79q-33 5 -62 5q-140 0 -248 -109q-23 -23 -56 -67l-96 -124q-39 -52 -52 -65q-74 -74 -149 -74q-22 0 -40 6q-29 8 -55 34q-29 32 -36 71q-3 14 -3 28q0 57 37 97l2 2q39 40 97 40q79 0 147 -75l93 122q-57 61 -115 87
t-130 26q-131 0 -216 -83v-1q-63 -63 -78 -153q-5 -25 -5 -47z" />
</svg>
