<?xml version="1.0" standalone="no"?>
<!DOCTYPE svg PUBLIC "-//W3C//DTD SVG 1.1//EN" "http://www.w3.org/Graphics/SVG/1.1/DTD/svg11.dtd" >
<svg xmlns="http://www.w3.org/2000/svg" xmlns:xlink="http://www.w3.org/1999/xlink" version="1.1" viewBox="-10 0 604 1000">
   <path fill="currentColor"
d="M464 331q0 -68 -49 -117t-119 -49t-117 49t-49 117q0 70 49 119q61 61 117 151q54 -86 120 -152q48 -48 48 -118zM296 53q117 0 199 82t81 197t-82 197l-21 23q-13 14 -47 59t-60 92t-48 113t-22 131q0 -63 -20 -130t-49 -115t-58 -90t-49 -62l-20 -21q-82 -81 -82 -197
t82 -197t196 -82zM353 331q0 24 -17 41t-40 16q-25 0 -40 -16t-15 -41t15 -39t40 -16q24 0 41 17t16 38z" />
</svg>
