<?xml version="1.0" standalone="no"?>
<!DOCTYPE svg PUBLIC "-//W3C//DTD SVG 1.1//EN" "http://www.w3.org/Graphics/SVG/1.1/DTD/svg11.dtd" >
<svg xmlns="http://www.w3.org/2000/svg" xmlns:xlink="http://www.w3.org/1999/xlink" version="1.1" viewBox="-10 0 711 1000">
   <path fill="currentColor"
d="M0 377q0 -70 27 -134q25 -61 74 -111q47 -47 110 -73.5t134.5 -26.5t134 26.5t110.5 74.5t74 110q27 64 27 134t-27 134q-18 40 -36 65l-229 347q-22 35 -53 35t-55 -35l-228 -347q-22 -31 -36 -65q-27 -64 -27 -134zM217 377q0 53 37.5 91t91 38t91 -37.5t37.5 -91
t-37.5 -91.5t-91 -38t-91 38t-37.5 91z" />
</svg>
