<?xml version="1.0" standalone="no"?>
<!DOCTYPE svg PUBLIC "-//W3C//DTD SVG 1.1//EN" "http://www.w3.org/Graphics/SVG/1.1/DTD/svg11.dtd" >
<svg xmlns="http://www.w3.org/2000/svg" xmlns:xlink="http://www.w3.org/1999/xlink" version="1.1" viewBox="-10 0 560 1000">
   <path fill="currentColor"
d="M540 344q0 30 -9 62q-8 29 -22 60q-13 27 -32 57q-14 23 -35 54q-41 59 -34 49q-39 55 -68 114q-23 48 -39 95q-11 34 -18 64l-4 24q-2 9 -7.5 9t-7.5 -9l-5 -24q-7 -30 -19 -64q-17 -47 -40 -95q-29 -59 -67 -114q-61 -85 -75 -107q-31 -47 -44 -84q-14 -41 -14 -91
q0 -73 36 -134t97.5 -97t135 -36t136 36t98.5 96q37 62 37 135zM271 456q29 0 53 -14.5t37.5 -39t13.5 -53.5q0 -43 -30 -72.5t-74 -29.5q-41 0 -71 29.5t-30 72.5q0 28 14 52.5t37 39.5t50 15z" />
</svg>
