<?xml version="1.0" standalone="no"?>
<!DOCTYPE svg PUBLIC "-//W3C//DTD SVG 1.1//EN" "http://www.w3.org/Graphics/SVG/1.1/DTD/svg11.dtd" >
<svg xmlns="http://www.w3.org/2000/svg" xmlns:xlink="http://www.w3.org/1999/xlink" version="1.1" viewBox="-10 0 1021 1000">
   <path fill="currentColor"
d="M0 500q0 -207 147 -354t353 -146t354 146t146 354t-146 354t-354 146t-353 -146t-147 -354zM250 418q0 82 35 129l215 283l215 -283q35 -47 35 -129q0 -104 -73 -176t-177 -72t-177 72t-73 176zM395 419q0 -44 31 -74t74 -31t74 31t31 74t-31 74t-74 30t-74 -30t-31 -74z
" />
</svg>
