<?xml version="1.0" standalone="no"?>
<!DOCTYPE svg PUBLIC "-//W3C//DTD SVG 1.1//EN" "http://www.w3.org/Graphics/SVG/1.1/DTD/svg11.dtd" >
<svg xmlns="http://www.w3.org/2000/svg" xmlns:xlink="http://www.w3.org/1999/xlink" version="1.1" viewBox="-10 0 949 1000">
   <path fill="currentColor"
d="M929 321v143q0 15 -11 25t-25 11h-36q-14 0 -25 -11t-11 -25v-143q0 -59 -41 -101t-101 -41t-101 41t-42 101v108h53q23 0 38 15t16 38v322q0 22 -16 37t-38 16h-535q-23 0 -38 -16t-16 -37v-322q0 -22 16 -38t38 -15h375v-108q0 -103 73 -176t177 -74t176 74t74 176z
" />
</svg>
