<?xml version="1.0" standalone="no"?>
<!DOCTYPE svg PUBLIC "-//W3C//DTD SVG 1.1//EN" "http://www.w3.org/Graphics/SVG/1.1/DTD/svg11.dtd" >
<svg xmlns="http://www.w3.org/2000/svg" xmlns:xlink="http://www.w3.org/1999/xlink" version="1.1" viewBox="-10 0 602 1000">
   <path fill="currentColor"
d="M582 413v356q0 32 -32 32h-518q-32 0 -32 -32v-356q0 -10 3 -17t7 -10t12 -5t13 -2h16q11 0 14 1v-127h1q9 -87 74 -141t153 -53t151 62t71 152h1l2 107l15 -1q11 -1 15 0t13 2t12 5t6 10t3 17zM421 251q0 -51 -37 -74t-90.5 -23t-92.5 25t-39 77v124h259v-129z" />
</svg>
