<?xml version="1.0" standalone="no"?>
<!DOCTYPE svg PUBLIC "-//W3C//DTD SVG 1.1//EN" "http://www.w3.org/Graphics/SVG/1.1/DTD/svg11.dtd" >
<svg xmlns="http://www.w3.org/2000/svg" xmlns:xlink="http://www.w3.org/1999/xlink" version="1.1" viewBox="-10 0 749 1000">
   <path fill="currentColor"
d="M298 734q0 -68 67 -68t68 68t-68 67t-67 -67zM365 57q85 0 146 62t62 146v105h52q43 0 73 31t31 73v365q0 42 -31 73t-73 31h-521q-44 0 -74 -31t-30 -73v-365q0 -43 30 -73t74 -31h52v-105q0 -60 30 -107t74 -73q48 -28 105 -28zM365 161q-44 0 -74 31t-31 73v156h209
v-156q0 -44 -31 -74t-73 -30zM625 839v-365h-521v365h521z" />
</svg>
