<?xml version="1.0" standalone="no"?>
<!DOCTYPE svg PUBLIC "-//W3C//DTD SVG 1.1//EN" "http://www.w3.org/Graphics/SVG/1.1/DTD/svg11.dtd" >
<svg xmlns="http://www.w3.org/2000/svg" xmlns:xlink="http://www.w3.org/1999/xlink" version="1.1" viewBox="-10 0 749 1000">
   <path fill="currentColor"
d="M625 370q43 0 73 31t31 73v365q0 42 -31 73t-73 31h-521q-44 0 -74 -31t-30 -73v-365q0 -43 30 -73t74 -31h52v-105q0 -86 62 -147t147 -61t147 61t61 147v105h52zM365 801q28 0 48 -20t20 -47t-20 -48t-48 -20t-47 20t-20 48t20 47t47 20zM469 421v-156q0 -44 -31 -74
t-74 -30t-73 31t-31 73v156h209z" />
</svg>
