<?xml version="1.0" standalone="no"?>
<!DOCTYPE svg PUBLIC "-//W3C//DTD SVG 1.1//EN" "http://www.w3.org/Graphics/SVG/1.1/DTD/svg11.dtd" >
<svg xmlns="http://www.w3.org/2000/svg" xmlns:xlink="http://www.w3.org/1999/xlink" version="1.1" viewBox="-10 0 746 1000">
   <path fill="currentColor"
d="M546 610q48 90 -4 180q-42 70 -115 88t-151 -26l-64 -36l-108 184l-56 -32l206 -358q-68 10 -134 -28l-120 -70l186 -324l122 70q66 40 92 100l206 -358l58 34l-108 186l64 36q76 44 98 119t-20 143q-48 88 -152 92zM590 308l-64 -38l-124 216q0 2 -2 6l62 36
q52 30 100 17t76 -61t15 -97t-63 -79zM150 530q52 30 100 17t76 -61t15 -98t-63 -78l-64 -38l-128 222zM306 800q52 30 100 17t76 -61t14 -97t-64 -79l-62 -36l-4 4l-124 216z" />
</svg>
