<?xml version="1.0" standalone="no"?>
<!DOCTYPE svg PUBLIC "-//W3C//DTD SVG 1.1//EN" "http://www.w3.org/Graphics/SVG/1.1/DTD/svg11.dtd" >
<svg xmlns="http://www.w3.org/2000/svg" xmlns:xlink="http://www.w3.org/1999/xlink" version="1.1" viewBox="-10 0 970 1000">
   <path fill="currentColor"
d="M475 125q-89 0 -168 40q-76 38 -129 106.5t-70 153.5h-58q-19 0 -34.5 15.5t-15.5 34.5v50q0 19 15.5 34.5t34.5 15.5h58q17 85 70 153.5t129 106.5q79 40 168 40t168 -40q76 -38 129 -106.5t70 -153.5h58q19 0 34.5 -15.5t15.5 -34.5v-50q0 -19 -15.5 -34.5t-34.5 -15.5
h-58q-17 -85 -70 -153.5t-129 -106.5q-79 -40 -168 -40zM475 250q50 0 97 25q44 23 78 63t50 87h-450q16 -47 50 -87t78 -63q47 -25 97 -25zM250 575h450q-16 47 -50 87t-78 63q-47 25 -97 25t-97 -25q-44 -23 -78 -63t-50 -87z" />
</svg>
