<?xml version="1.0" standalone="no"?>
<!DOCTYPE svg PUBLIC "-//W3C//DTD SVG 1.1//EN" "http://www.w3.org/Graphics/SVG/1.1/DTD/svg11.dtd" >
<svg xmlns="http://www.w3.org/2000/svg" xmlns:xlink="http://www.w3.org/1999/xlink" version="1.1" viewBox="-10 0 1062 1000">
   <path fill="currentColor"
d="M755 83q-75 0 -129 54t-53 128v78h-104v-78q0 -75 -54 -128t-129 -54t-128 54t-54 128t54 128t128 54h79v105h-79q-75 0 -128 54t-54 129t54 128t128 53t129 -53t54 -128v-79h104v79q0 75 53 128t129 53t129 -53t54 -128t-54 -129t-129 -54h-77v-105h77q75 0 129 -54
t54 -128t-54 -128t-129 -54zM678 343v-78q0 -33 22 -55t55 -23t56 23t23 55.5t-23 54.5t-56 23h-77zM286 343q-31 0 -54 -23t-23 -55t23 -55t55 -23t55 23t23 55v78h-79zM755 812q-32 0 -55 -22t-22 -55v-79h77q33 0 56 23t23 55t-23 55t-56 23zM286 812q-31 0 -54 -22
t-23 -55t23 -56t54 -23h79v79q0 31 -23 54t-56 23zM755 -22q118 0 202 85t84 202q0 71 -32 133t-89 102q56 40 89 102t32 133q0 117 -84 202t-202 84q-71 0 -132 -33t-102 -89q-40 56 -102 89t-133 33q-118 0 -202 -84t-84 -202q0 -72 33 -133t90 -102q-57 -40 -90 -102
t-33 -133q0 -118 84 -202t202 -85q72 0 133 34t102 89q40 -56 102 -89t132 -34zM573 447v105h-104v-105h104z" />
</svg>
