<?xml version="1.0" standalone="no"?>
<!DOCTYPE svg PUBLIC "-//W3C//DTD SVG 1.1//EN" "http://www.w3.org/Graphics/SVG/1.1/DTD/svg11.dtd" >
<svg xmlns="http://www.w3.org/2000/svg" xmlns:xlink="http://www.w3.org/1999/xlink" version="1.1" viewBox="-11 0 1219 1000">
   <path fill="currentColor"
d="M781 -21q64 0 110 47t47 110v8q112 29 186 128t74 227q0 152 -107 259t-257 107h-53q-60 0 -103 -41l-150 151q-47 46 -111 46t-111 -46t-46 -110q0 -2 1 -5t0 -5q-112 -29 -187 -129t-74 -227q0 -151 107 -257t258 -106h51q60 0 104 40l151 -152q45 -45 110 -45z
M834 761q107 0 184 -77t76 -185t-69 -183t-165 -77h-109l67 -67q15 -15 15 -37t-15 -37t-37 -15t-36 15l-194 194l194 192q15 15 36 15t37 -15t15 -36t-15 -37l-67 -68h109q54 0 92 46t38 110t-46 111t-110 46h-53q-21 0 -37 15t-15 37t15 37t37 16h53zM313 552
q0 -43 30 -73t73.5 -30.5t73.5 29.5l194 194q11 -30 37 -49t60 -19h53q42 0 73 -30t31 -75q0 -37 -19 -66t-46 -36q12 21 12 51q0 43 -31 73t-73.5 30.5t-72.5 -29.5l-194 -194q-11 30 -38 49t-60 19h-51q-44 0 -74 30t-31 73q0 38 19 67t46 36q-12 -21 -12 -50zM469 292
q0 -21 -16 -37t-37 -16h-51q-107 0 -184 77t-77 183t69 185t166 77h109l-68 67q-15 15 -15 37t15 36q16 16 37 16t37 -16l192 -193l-192 -192q-16 -17 -37 -17t-37 17q-15 15 -15 36t15 36l68 68h-109q-54 0 -92 -46t-38 -111t45 -110t111 -46h51q22 0 37 -15t16 -36z" />
</svg>
