<?xml version="1.0" standalone="no"?>
<!DOCTYPE svg PUBLIC "-//W3C//DTD SVG 1.1//EN" "http://www.w3.org/Graphics/SVG/1.1/DTD/svg11.dtd" >
<svg xmlns="http://www.w3.org/2000/svg" xmlns:xlink="http://www.w3.org/1999/xlink" version="1.1" viewBox="-10 0 1218 1000">
   <path fill="currentColor"
d="M781 57q64 0 110 47t47 110v8q112 29 186 128t74 227q0 152 -107 259t-257 107h-469q-151 0 -258 -107t-107 -259t107 -257t258 -106h51q62 0 104 38l151 -150q45 -45 110 -45zM834 839q107 0 184 -77t76 -185t-69 -183t-165 -77h-109l67 -67q15 -15 15 -37t-15 -37
t-37 -15t-36 15l-194 194l194 192q15 15 36 15t37 -15t15 -36t-15 -37l-67 -68h109q54 0 92 46t38 110t-46 111t-110 46h-469q-65 0 -111 -46t-45 -111t45 -110t111 -46h51q22 0 37 -15t16 -36t-16 -37t-37 -16h-51q-107 0 -184 77t-77 183t77 185t184 77h469zM885 526
q0 43 -31 73t-73.5 30.5t-72.5 -29.5l-194 -194q-11 30 -38 49t-60 19h-51q-44 0 -74 30t-30.5 73.5t30.5 74.5t74 30h469q42 0 73 -30t31 -75q0 -37 -19 -66t-46 -36q12 21 12 51z" />
</svg>
