<?xml version="1.0" standalone="no"?>
<!DOCTYPE svg PUBLIC "-//W3C//DTD SVG 1.1//EN" "http://www.w3.org/Graphics/SVG/1.1/DTD/svg11.dtd" >
<svg xmlns="http://www.w3.org/2000/svg" xmlns:xlink="http://www.w3.org/1999/xlink" version="1.1" viewBox="-10 0 1127 1000">
   <path fill="currentColor"
d="M0 613v-151q0 -10 7 -18t18 -7h265l-115 201h-150q-11 0 -18 -7t-7 -18zM122 857l66 38zM132 813q-3 -10 2 -19l304 -528q5 -9 15 -12t19 3l65 37q10 5 13 15t-3 20l-303 528q-5 9 -15 11t-20 -2l-65 -38q-9 -4 -12 -15zM440 638l115 -201h67l94 201h-276zM518 13
q1 -9 6 -12q10 -5 36 31t71 116t62 105q28 44 76 130t91 169t43 84q11 19 -2 36t-31 24.5t-24 8.5t-30 -7q-30 -15 -190 -393q-5 -11 -13 -31t-17 -38t-19 -42l-35 -86q-9 -22 -14 -39t-8 -32t-2 -24zM846 437h235q10 0 18 7t7 18v151q0 10 -7 17t-18 8h-133q-4 -16 -8 -23z
M859 753q3 -10 13 -15l37 -19q10 -5 21 -2t16 14l31 60q12 24 -10 39l-27 16q-10 5 -21 2t-17 -12l-40 -62q-6 -10 -3 -21zM936 898q0 -16 4 -21l12 -14l24 -9q61 -12 72 70q3 32 -1 76q-4 -12 -44 -30t-55 -38q-13 -18 -12 -34z" />
</svg>
