<?xml version="1.0" standalone="no"?>
<!DOCTYPE svg PUBLIC "-//W3C//DTD SVG 1.1//EN" "http://www.w3.org/Graphics/SVG/1.1/DTD/svg11.dtd" >
<svg xmlns="http://www.w3.org/2000/svg" xmlns:xlink="http://www.w3.org/1999/xlink" version="1.1" viewBox="-10 0 949 1000">
   <path fill="currentColor"
d="M664 324l164 -163l-60 -60l-164 163zM914 161q0 15 -10 25l-718 718q-10 10 -25 10t-25 -10l-111 -111q-10 -10 -10 -25t10 -25l718 -718q10 -10 25 -10t25 10l111 111q10 10 10 25zM160 55l54 16l-54 17l-17 55l-17 -55l-55 -17l55 -16l17 -55zM355 145l109 34l-109 33
l-34 109l-33 -109l-109 -33l109 -34l33 -109zM874 412l55 17l-55 16l-17 55l-17 -55l-54 -16l54 -17l17 -55zM517 55l54 16l-54 17l-17 55l-17 -55l-54 -17l54 -16l17 -55z" />
</svg>
