<?xml version="1.0" standalone="no"?>
<!DOCTYPE svg PUBLIC "-//W3C//DTD SVG 1.1//EN" "http://www.w3.org/Graphics/SVG/1.1/DTD/svg11.dtd" >
<svg xmlns="http://www.w3.org/2000/svg" xmlns:xlink="http://www.w3.org/1999/xlink" version="1.1" viewBox="-11 0 1021 1000">
   <path fill="currentColor"
d="M929 839v-428q-18 20 -39 36q-149 115 -238 189q-28 24 -46 37t-48 28t-57 13h-2q-26 0 -57 -13t-48 -28t-46 -37q-88 -74 -238 -189q-21 -16 -39 -36v428q0 7 6 13t12 5h822q7 0 12 -5t6 -13zM929 253v-14l-2 -14l-3 -5q-3 -5 -5 -4t-8 -2h-822q-7 0 -12 6t-6 12
q0 94 83 159q107 84 223 176q4 3 20 17t25 21t25 17t28 16t24 5h2q11 0 24 -5t28 -16t25 -17t25 -21t20 -17q116 -92 224 -176q30 -24 56 -65t26 -73zM1000 232v607q0 37 -26 63t-63 27h-822q-36 0 -63 -27t-26 -63v-607q0 -37 26 -63t63 -26h822q37 0 63 26t26 63z" />
</svg>
