<?xml version="1.0" standalone="no"?>
<!DOCTYPE svg PUBLIC "-//W3C//DTD SVG 1.1//EN" "http://www.w3.org/Graphics/SVG/1.1/DTD/svg11.dtd" >
<svg xmlns="http://www.w3.org/2000/svg" xmlns:xlink="http://www.w3.org/1999/xlink" version="1.1" viewBox="-10 0 1010 1000">
   <path fill="currentColor"
d="M974 166q5 5 5 13t-5 12l-79 79q-15 16 -38 16h-750q-14 0 -25 -11t-11 -25v-143q0 -14 11 -25t25 -11h322v-35q0 -15 10 -25t25 -11h72q14 0 25 11t10 25v35h286q23 0 38 16zM429 679h142v285q0 15 -10 25t-25 11h-72q-14 0 -25 -11t-10 -25v-285zM893 429q14 0 25 10
t11 25v143q0 15 -11 25t-25 11h-750q-22 0 -38 -16l-79 -79q-5 -5 -5 -12t5 -13l79 -79q16 -15 38 -15h286v-108h142v108h322z" />
</svg>
