<?xml version="1.0" standalone="no"?>
<!DOCTYPE svg PUBLIC "-//W3C//DTD SVG 1.1//EN" "http://www.w3.org/Graphics/SVG/1.1/DTD/svg11.dtd" >
<svg xmlns="http://www.w3.org/2000/svg" xmlns:xlink="http://www.w3.org/1999/xlink" version="1.1" viewBox="-11 0 593 1000">
   <path fill="currentColor"
d="M286 607q37 0 71 -8v365q0 15 -10 25t-26 11h-71q-14 0 -25 -11t-11 -25v-365q35 8 72 8zM286 0q118 0 202 84t83 202t-83 202t-202 83t-202 -83t-84 -202t84 -202t202 -84zM286 125q8 0 13 -5t5 -13t-5 -13t-13 -5q-82 0 -139 58t-58 139q0 7 5 12t13 6t13 -6t5 -12
q0 -67 47 -114t114 -47z" />
</svg>
