<?xml version="1.0" standalone="no"?>
<!DOCTYPE svg PUBLIC "-//W3C//DTD SVG 1.1//EN" "http://www.w3.org/Graphics/SVG/1.1/DTD/svg11.dtd" >
<svg xmlns="http://www.w3.org/2000/svg" xmlns:xlink="http://www.w3.org/1999/xlink" version="1.1" viewBox="-11 0 1022 1000">
   <path fill="currentColor"
d="M286 0q7 0 12 5t6 13v821q0 11 -10 16l-268 143q-4 2 -8 2q-7 0 -13 -5t-5 -13v-821q0 -11 10 -16l267 -143q4 -2 9 -2zM982 0q7 0 13 5t5 13v821q0 11 -9 16l-268 143q-4 2 -10 2t-11 -5t-6 -13v-821q0 -11 10 -16l268 -143q4 -2 8 -2zM357 0q5 0 8 2l286 142
q10 6 10 17v821q0 7 -6 13t-11.5 5.5t-8.5 -2.5l-286 -142q-10 -6 -10 -17v-821q0 -7 6 -13t12 -5z" />
</svg>
