<?xml version="1.0" standalone="no"?>
<!DOCTYPE svg PUBLIC "-//W3C//DTD SVG 1.1//EN" "http://www.w3.org/Graphics/SVG/1.1/DTD/svg11.dtd" >
<svg xmlns="http://www.w3.org/2000/svg" xmlns:xlink="http://www.w3.org/1999/xlink" version="1.1" viewBox="-10 0 1020 1000">
   <path fill="currentColor"
d="M0 0v143h143v-143h-143zM286 0v143h143v-143h-143zM571 0v143h143v-143h-143zM857 0v143h143v-143h-143zM0 286v143h143v-143h-143zM857 286v143h143v-143h-143zM0 571v143h143v-143h-143zM857 571v143h143v-143h-143zM0 857v143h143v-143h-143zM286 857v143h143v-143
h-143zM571 857v143h143v-143h-143zM857 857v143h143v-143h-143z" />
</svg>
