<?xml version="1.0" standalone="no"?>
<!DOCTYPE svg PUBLIC "-//W3C//DTD SVG 1.1//EN" "http://www.w3.org/Graphics/SVG/1.1/DTD/svg11.dtd" >
<svg xmlns="http://www.w3.org/2000/svg" xmlns:xlink="http://www.w3.org/1999/xlink" version="1.1" viewBox="-11 0 1093 1000">
   <path fill="currentColor"
d="M857 232q0 -8 5 -13t13 -5h161q14 0 25 11t10 25v161q0 7 -5 12t-12 6h-36q-8 0 -13 -6t-5 -12v-75l-142 142q43 53 60 120t6 137q-18 102 -93 175t-177 87q-118 16 -215 -45t-135 -167q-65 -4 -123 -33t-99 -74t-64 -107t-17 -129q5 -75 43 -140t102 -107t138 -50
q66 -8 127 11t111 57l142 -142h-75q-7 0 -12 -5t-6 -12v-36q0 -8 6 -13t12 -5h161q15 0 25 11t11 25v160q0 8 -5 13t-13 5h-36q-8 0 -13 -5t-5 -13v-74l-141 142q33 41 51 94q102 5 184 69l142 -141h-75q-8 0 -13 -5t-5 -13v-36zM571 464q0 -11 -2 -32q-90 14 -151 84
t-61 163q0 11 2 32q91 -14 152 -84t60 -163zM71 464q0 94 62 164t154 83q-1 -16 -1 -32q0 -118 75 -207t189 -109q-30 -67 -92 -108t-137 -41q-103 0 -176 74t-74 176zM607 929q103 0 177 -74t73 -176q0 -94 -62 -165t-154 -83q2 16 2 33q0 117 -75 206t-189 110
q30 67 91 108t137 41z" />
</svg>
