<?xml version="1.0" standalone="no"?>
<!DOCTYPE svg PUBLIC "-//W3C//DTD SVG 1.1//EN" "http://www.w3.org/Graphics/SVG/1.1/DTD/svg11.dtd" >
<svg xmlns="http://www.w3.org/2000/svg" xmlns:xlink="http://www.w3.org/1999/xlink" version="1.1" viewBox="-10 0 1020 1000">
   <path fill="currentColor"
d="M47 195q-19 0 -33 13.5t-14 32.5v535q0 19 14 33t33 14h907q19 0 32.5 -14t13.5 -33v-535q0 -19 -13.5 -32.5t-32.5 -13.5h-907zM328 271q86 0 151 53q-55 48 -74 117h20q18 -57 62 -98q43 39 61 98h20q-19 -68 -73 -117q31 -25 70 -39t81 -14q65 0 120 32t87.5 87
t32.5 120t-32.5 120t-87.5 87.5t-120 32.5q-43 0 -82.5 -14.5t-70.5 -41.5q57 -50 77 -125h-20q-16 62 -63 107q-48 -47 -64 -107h-19q20 74 77 124q-32 26 -71 40t-82 14q-65 0 -120 -32t-87.5 -86.5t-32.5 -119.5t32.5 -119.5t87.5 -86.5t120 -32zM628 439q-23 0 -39 18
q-18 20 -18 54q0 24 11.5 38t33.5 14q6 0 14 -2l8 -1l4 -27l-7 3q-8 3 -13 3q-13 0 -19 -8t-6 -20q0 -22 9.5 -34t22.5 -12q8 0 16 3l7 4l4 -27l-9 -3q-11 -3 -19 -3zM870 441h-25l-5 33l-7 -7q-8 -6 -17 -6q-17 0 -29.5 18t-12.5 41q0 16 8 28t23 12q9 0 17 -5l6 -5l-1 8
h24zM153 442l-20 117h24l15 -89l3 89h17l32 -89l-14 89h25l20 -117h-40l-24 72l-1 -72h-37zM404 449q0 -1 -7 42t-7 49q0 21 19 21q9 0 18 -3h1l3 -21l-7 1q-9 0 -9 -8l7 -43h13l4 -23h-13l3 -15h-25zM695 461q-11 0 -21 3l-9 3l-4 21l8 -2q9 -2 18 -2t13 1.5t4 6.5l-1 7
l-10 -1q-19 0 -30 8q-14 10 -14 29q0 15 9 22q6 5 14.5 5t13.5 -2.5t8.5 -5.5l3.5 -3l-1 9h22l9 -69q0 -30 -33 -30zM291 461q-11 0 -21 3l-9 3l-4 21l8 -2q9 -2 18 -2t13 1.5t4 6.5l-1 7l-10 -1q-19 0 -30 8q-14 10 -14 29q0 15 9 22q6 5 14.5 5t14 -2.5t8.5 -5.5l3 -3
l-1 9h22l9 -69q0 -30 -33 -30zM367 461q-16 0 -25 7q-11 8 -11 25q0 13 8 20q3 3 14 9q8 4 8 9t-4 6.5t-10.5 1.5t-14.5 -1.5l-8 -1.5l-3 21q-2 0 6.5 1.5t21.5 1.5q37 0 37 -31q0 -13 -8 -21q-3 -3 -14 -8q-8 -4 -8 -8q0 -8 14 -8l17 1l3 -22l-6 -1q-8 -1 -17 -1zM480 461
q-18 0 -31 17t-13 41t15 35q11 8 29 8q11 0 20 -2l6 -2l4 -24l-8 3q-10 3 -18 3q-12 0 -18 -5q-4 -4 -4 -10v-5h50l2 -9q2 -9 2 -13q0 -15 -7 -25q-10 -12 -29 -12zM571 462q-7 0 -14 7l-6 8l3 -14h-24l-16 97h26l5 -29q3 -16 5 -23q3 -10 7 -14.5t10 -2.5q3 -16 9 -28z
M781 462q-7 0 -14 7l-5 8l2 -14h-23l-16 97h26l4 -29q3 -15 5 -23q3 -10 7 -14.5t10 -2.5q3 -16 9 -28l-1 -1h-4zM480 483q9 0 11 8q1 3 1 9h-28q0 -4 3 -9q4 -8 13 -8zM819 485q7 0 10.5 4.5t3.5 15.5t-5 21t-15 10q-13 0 -13 -19q0 -15 5.5 -23.5t13.5 -8.5zM695 518h5v0
q0 7 -3 14q-5 11 -14.5 11t-9.5 -10q0 -15 22 -15zM291 518h5q1 6 -2 14q-5 11 -15 11t-10 -10q0 -15 22 -15z" />
</svg>
