<?xml version="1.0" standalone="no"?>
<!DOCTYPE svg PUBLIC "-//W3C//DTD SVG 1.1//EN" "http://www.w3.org/Graphics/SVG/1.1/DTD/svg11.dtd" >
<svg xmlns="http://www.w3.org/2000/svg" xmlns:xlink="http://www.w3.org/1999/xlink" version="1.1" viewBox="-10 0 1020 1000">
   <path fill="currentColor"
d="M333 235v655q0 14 -7 23t-20 10q-10 0 -19 -4l-259 -131q-12 -5 -20 -18t-8 -26v-636q0 -12 6 -19t16 -8q8 0 24 8l286 143q1 2 1 3zM369 291l298 484l-298 -149v-335zM1000 301v589q0 14 -8 22t-21 9t-26 -7l-246 -123zM998 234q0 2 -143 234t-167 272l-218 -353
l181 -294q9 -16 29 -16q8 0 14 3l302 151q2 1 2 3z" />
</svg>
