<?xml version="1.0" standalone="no"?>
<!DOCTYPE svg PUBLIC "-//W3C//DTD SVG 1.1//EN" "http://www.w3.org/Graphics/SVG/1.1/DTD/svg11.dtd" >
<svg xmlns="http://www.w3.org/2000/svg" xmlns:xlink="http://www.w3.org/1999/xlink" version="1.1" viewBox="-10 0 1081 1000">
   <path fill="currentColor"
d="M744 689q-2 -14 -15 -19t-27 -6t-28 -7t-14 -21q-3 -27 19 -78t41 -101t18 -71q-7 -57 -65 -58q-25 0 -42 9l-4 3l-6 2h-2q-2 0 -4 -1l-12 -9q-4 -3 -5 -5t-4 -5t-6 -4t-5 -3t-6 -2t-7 -2q-16 -2 -26 2t-26 17q0 1 -5 5l-7 6q-2 2 -8 6t-9 3t-10 -2q-30 -15 -46 -22
q-23 -10 -53 3t-42 36q-9 16 -23 55t-24 74t-23 75t-12 40q-12 39 11 67t61 25q17 -1 28 -8t22 -26q4 -7 44 -111t43 -109.5t12 -9.5t16 0q15 9 12 30q-1 10 -28 78t-28 74q-4 21 11 31t33 4t31 -27q2 -5 25 -52t46 -91t26 -49q11 -17 22 -16q17 0 14 21q-1 9 -36 83t-39 89
q-7 29 7 57t41 41q10 5 29 9t39 4t35 -7t11 -27zM214 809q1 8 -3 15t-12.5 9t-15.5 -3t-8.5 -12.5t3.5 -15.5t12 -9t15 3t9 13zM532 956q7 9 5 21t-12 18t-21 4t-17.5 -11.5t-4.5 -20.5t11 -18t21 -5t18 12zM99 503q-10 15 -28 18t-32 -7t-18 -28t6.5 -32.5t28.5 -18.5t32 7
t18 28t-7 33zM819 881q10 15 7 34t-19 29t-34 8t-29 -19t-7 -35t19 -29t33 -7t30 19zM881 543q39 64 24 137t-75 116q-50 35 -111 33q-11 45 -47 71t-80 25t-79 -32q-6 5 -7 5q-57 40 -125 28t-108 -71q-28 -41 -30 -92q-46 -7 -79 -39t-45 -71t-1 -85t45 -78
q-20 -33 -21 -71t13 -70t45 -55t67 -28q18 -47 56 -82t81 -52t94 -9t89 37q40 -12 78 -10t72 20t58 45t38 64t10 79q29 9 48 31t26 50t-3 56t-33 48zM254 175q8 11 5 25t-13.5 21.5t-24.5 5.5t-21 -13.5t-5 -25.5t14 -21q10 -8 24 -5t21 13zM343 18q2 9 -3 17t-15 11t-17 -3
t-9.5 -15.5t3.5 -16.5t14.5 -10t16.5 3t10 14zM1005 547q2 12 -4 21t-17 11.5t-20 -3.5t-12 -17t4 -21t17.5 -12t19.5 4t12 17zM634 49q9 15 5 33t-19.5 26.5t-32.5 4.5t-26 -19.5t-5 -32.5t19 -27t33 -5t26 20zM1050 415q3 8 -2 15t-13 9t-15 -2t-8.5 -12.5t2.5 -16.5
t13 -8q8 -2 15 2t8 13zM944 281q8 12 6 27t-15 23.5t-28 6.5t-23 -16t-6 -27t15 -24t28 -6t23 16z" />
</svg>
