<?xml version="1.0" standalone="no"?>
<!DOCTYPE svg PUBLIC "-//W3C//DTD SVG 1.1//EN" "http://www.w3.org/Graphics/SVG/1.1/DTD/svg11.dtd" >
<svg xmlns="http://www.w3.org/2000/svg" xmlns:xlink="http://www.w3.org/1999/xlink" version="1.1" viewBox="-10 0 1361 1000">
   <path fill="currentColor"
d="M0 460q0 -35 2 -105q24 -8 48 -8h18q17 23 40 70t31 61q2 -7 8 -37t10 -42t11 -37t16 -40l19 -31q28 5 46 5q6 0 11 -1q24 54 46 163t38 155l-7 -2q-9 0 -26 5t-22 7q-40 -101 -62 -203q-15 26 -15 89t-11 88l-5 -2q-8 0 -22 2t-21 2h-18q-27 -48 -57 -89q-3 6 -3 15
t3 26t2 25l-1 12q-30 15 -52 15q-7 0 -10 -1q-17 -56 -17 -142zM355 536q0 -27 8 -58t28 -57t47 -26q10 0 28 5l23 6q9 40 9 81q0 28 -6 55q-12 -4 -38 -5t-37 -3q-5 20 -5 37q0 21 10 37t30 16q9 0 26 -5t26 -5q17 0 23 14q-42 16 -82 16q-46 0 -68 -30t-22 -78zM413 508
l8 -1q3 0 8 2t7 2l7 -3q2 -14 2 -22q0 -18 -5 -40q-22 25 -27 62zM523 562q0 -123 78 -182q32 3 60 23q-1 17 -8 67q-5 39 -5 65v14q-20 2 -28.5 2t-43.5 -5q-5 12 -5 23q0 22 17 37t39 16q26 0 41 -23q18 6 21 17q-22 21 -63 21q-37 0 -70 -20t-33 -55zM579 519q4 6 14 6h9
q9 -19 9 -49q0 -13 -6 -39l-10 25q-7 17 -11 30t-5 27zM678 500q-2 -26 23 -26q6 0 18 1l17 1q3 -15 3 -31q0 -29 -7 -87t-8 -86q0 -43 10 -72q5 3 27 5t40 25q-6 26 -6 67q0 20 4 81q2 35 2 61q0 20 -1 34h6q7 0 9 -6t2 -13t4 -6q8 0 19 8t22 22t15 16q-9 7 -40 9t-39 4
q-1 12 -1 36q0 16 1 33t1 38t1 33q-8 1 -23 2t-22 2v-20q0 -21 -3 -57q-4 -44 -4 -61q-6 -2 -32 -4t-38 -9zM893 492q0 -20 2 -58q11 1 20 5l21 10q12 6 18 10l-1 27q0 59 9 116q19 -7 31 -23t17 -42t5 -42t2 -44v-11q3 1 9 1q20 2 49 25q0 3 1 9t0 10q0 15 -4 30t-7 22
t-15 25t-14 23q-15 12 -34 42q-21 7 -38 7q-71 0 -71 -142zM1093 600q7 -6 24 -10q0 -3 1 -9l7 -57q3 -22 13 -59t22 -59t35 -40t53 -17q34 0 76 24q17 37 17 75q0 66 -46 119t-113 68q-2 32 -2 48q0 73 18 117q-8 -2 -37 -2q-15 0 -22 -2q-9 -21 -16 -96t-30 -100z
M1183 575q39 -10 66 -48t26 -79q0 -30 -15 -56q-23 21 -39 55t-23 60t-15 68z" />
</svg>
