<?xml version="1.0" standalone="no"?>
<!DOCTYPE svg PUBLIC "-//W3C//DTD SVG 1.1//EN" "http://www.w3.org/Graphics/SVG/1.1/DTD/svg11.dtd" >
<svg xmlns="http://www.w3.org/2000/svg" xmlns:xlink="http://www.w3.org/1999/xlink" version="1.1" viewBox="-10 0 881 1000">
   <path fill="currentColor"
d="M792 350q58 138 67 258t-39 140q-28 12 -61 -3t-65 -40t-99 -41t-149 -8q-28 4 -42 19t-6 37q22 56 46 108q4 10 24 22t24 20q14 34 -22 46q-50 22 -102 40q-30 10 -54 -42q-32 -76 -58 -132q-6 -12 -34 -17t-46 -31q-30 10 -38 14q-34 12 -74 -12t-54 -60
q-17 -32 -5 -79t43 -61q126 -52 213 -108t124 -103t59 -92t25 -78t15 -59t36 -36q48 -20 130 70t142 228zM764 650q8 -4 10 -38t-11 -98t-41 -129t-67 -122t-67 -84t-36 -23t-10 42t10 105t40 133t68 119t68 76t36 19z" />
</svg>
