<?xml version="1.0" standalone="no"?>
<!DOCTYPE svg PUBLIC "-//W3C//DTD SVG 1.1//EN" "http://www.w3.org/Graphics/SVG/1.1/DTD/svg11.dtd" >
<svg xmlns="http://www.w3.org/2000/svg" xmlns:xlink="http://www.w3.org/1999/xlink" version="1.1" viewBox="-10 0 1021 1000">
   <path fill="currentColor"
d="M0 437q0 -66 36 -111t89 -45h289q63 0 119 -45t96 -125h2q58 -111 150 -111q102 0 160 131t59 306t-59 307t-160 131q-92 0 -150 -111h-2q-78 -155 -199 -168q-6 2 -8 2v2q-6 2 -10 7q-2 2 -2 4q-4 6 -4 12v221q0 8 16 26t16 36v32q0 25 -19 43t-44 19h-125
q-25 0 -44 -19t-18 -43v-282q0 -25 -19 -44t-44 -18q-53 0 -89 -45t-36 -112zM63 437q0 40 18 67t44 27h219q-31 -37 -31 -94t31 -93h-219q-25 0 -44 27t-18 66zM232 594q18 29 18 62v282h125v-28l-4 -4q-27 -33 -27 -62v-219q0 -16 6 -31h-118zM344 437q0 40 18 67t44 27h8
q86 0 162 63q-13 -74 -13 -157q0 -80 13 -156q-76 63 -162 63h-8q-25 0 -44 27t-18 66zM625 437q0 47 6 94h88q25 0 44 -27t18 -67t-18 -66t-44 -27h-88q-6 47 -6 93zM639 594q19 97 57 158t85 60q65 0 111 -109t45 -266t-45 -265t-111 -109q-47 0 -85 60t-57 158h80
q52 0 89 45t36 111t-36 112t-89 45h-80z" />
</svg>
