<?xml version="1.0" standalone="no"?>
<!DOCTYPE svg PUBLIC "-//W3C//DTD SVG 1.1//EN" "http://www.w3.org/Graphics/SVG/1.1/DTD/svg11.dtd" >
<svg xmlns="http://www.w3.org/2000/svg" xmlns:xlink="http://www.w3.org/1999/xlink" version="1.1" viewBox="-11 0 1021 1000">
   <path fill="currentColor"
d="M0 506v-123q2 -35 26 -60t58 -24h270q138 -8 272 -65t229 -152q36 2 59 26t23 58v199q28 8 45 30t18 50q-2 30 -19 51t-44 27v201q-1 36 -26 59t-56 24q-207 -184 -449 -211q-66 33 -53 127t77 142q-28 47 -96 52t-105 -30q-16 -45 -25 -76t-16 -71t-7 -78t10 -72h-107
q-35 -2 -60 -27t-24 -57zM438 516q240 44 419 183v-508q-203 151 -419 182v143z" />
</svg>
