<?xml version="1.0" standalone="no"?>
<!DOCTYPE svg PUBLIC "-//W3C//DTD SVG 1.1//EN" "http://www.w3.org/Graphics/SVG/1.1/DTD/svg11.dtd" >
<svg xmlns="http://www.w3.org/2000/svg" xmlns:xlink="http://www.w3.org/1999/xlink" version="1.1" viewBox="-10 0 958 1000">
   <path fill="currentColor"
d="M834 760q42 0 73 30t31 75q0 42 -30 73t-74 31h-730q-44 0 -74 -31t-30 -74t31 -74t73 -30h730zM834 396q44 0 74 31t30 73t-30 73t-74 30h-730q-44 0 -74 -30t-30 -73t30 -73t74 -31h730zM834 31q44 0 74 31t30 73.5t-31 73.5t-73 31h-730q-43 0 -73 -31t-30.5 -74
t29.5 -73t74 -31h730z" />
</svg>
