<?xml version="1.0" standalone="no"?>
<!DOCTYPE svg PUBLIC "-//W3C//DTD SVG 1.1//EN" "http://www.w3.org/Graphics/SVG/1.1/DTD/svg11.dtd" >
<svg xmlns="http://www.w3.org/2000/svg" xmlns:xlink="http://www.w3.org/1999/xlink" version="1.1" viewBox="-11 0 1063 1000">
   <path fill="currentColor"
d="M885 812h-729q-21 0 -37 16t-15 37t15 36t37 15h729q21 0 37 -15t16 -36t-16 -37t-37 -16zM885 708q65 0 111 46t45 111t-45 110t-111 46h-729q-65 0 -110 -46t-46 -110t46 -111t110 -46h729zM885 447h-729q-21 0 -37 16t-15 37t15 37t37 15h729q21 0 37 -15t16 -37
t-16 -37t-37 -16zM885 343q65 0 111 46t45 111t-45 110t-111 46h-729q-65 0 -110 -46t-46 -110t46 -111t110 -46h729zM885 83h-729q-21 0 -37 15t-15 37t15 37t37 15h729q21 0 37 -15t16 -37t-16 -37t-37 -15zM885 -22q65 0 111 46t45 111t-45 110t-111 46h-729
q-65 0 -110 -46t-46 -110t46 -111t110 -46h729z" />
</svg>
