<?xml version="1.0" standalone="no"?>
<!DOCTYPE svg PUBLIC "-//W3C//DTD SVG 1.1//EN" "http://www.w3.org/Graphics/SVG/1.1/DTD/svg11.dtd" >
<svg xmlns="http://www.w3.org/2000/svg" xmlns:xlink="http://www.w3.org/1999/xlink" version="1.1" viewBox="-10 0 958 1000">
   <path fill="currentColor"
d="M0 500q0 -95 37 -182t100 -149t150 -100t182 -37t182 37t149 100t100 149t37 182t-37 182t-100 150t-149 100t-182 37t-182 -37t-150 -100t-100 -150t-37 -182zM163 454q0 24 17 41t41 17h67v207l308 -207h120q24 0 41 -17t17 -41t-17 -41t-41 -17h-156l-155 105v-105
h-184q-24 0 -41 17t-17 41z" />
</svg>
