<?xml version="1.0" standalone="no"?>
<!DOCTYPE svg PUBLIC "-//W3C//DTD SVG 1.1//EN" "http://www.w3.org/Graphics/SVG/1.1/DTD/svg11.dtd" >
<svg xmlns="http://www.w3.org/2000/svg" xmlns:xlink="http://www.w3.org/1999/xlink" version="1.1" viewBox="-10 0 902 1000">
   <path fill="currentColor"
d="M0 119q0 18 13 31l794 782q13 12 31 12t31 -12t13 -31t-13 -30l-794 -783q-12 -12 -31 -12t-31.5 12.5t-12.5 30.5zM119 556v-106q0 -18 13 -31t31 -12.5t31 12.5t13 31v106q0 89 64 152t155 63q59 0 107 -28l64 63q-57 37 -125 48v43h137q18 0 31 12t13 30.5t-13 30.5
t-31 13h-362q-18 0 -31 -13t-13 -30.5t13 -30.5t31 -12h137v-42q-74 -10 -135 -52t-95 -107t-35 -140zM263 551v-73l225 220q-31 13 -62 13q-68 0 -115 -47t-48 -113zM263 192v-15q0 -66 48 -113t115 -47t115 47t47 113v335zM644 568v-6t1 -6v-106q0 -18 12 -31t31 -12.5
t32 12.5t13 31v106q0 42 -14 86z" />
</svg>
