<?xml version="1.0" standalone="no"?>
<!DOCTYPE svg PUBLIC "-//W3C//DTD SVG 1.1//EN" "http://www.w3.org/Graphics/SVG/1.1/DTD/svg11.dtd" >
<svg xmlns="http://www.w3.org/2000/svg" xmlns:xlink="http://www.w3.org/1999/xlink" version="1.1" viewBox="-10 0 877 1000">
   <path fill="currentColor"
d="M107 714v72h-62q-9 0 -9 -9v-9h-27q-9 0 -9 -9v-18q0 -9 9 -9h27v-9q0 -9 9 -9h62zM107 571v72h-62q-9 0 -9 -9v-9h-27q-9 0 -9 -9v-18q0 -9 9 -9h27v-9q0 -9 9 -9h62zM107 429v71h-62q-9 0 -9 -9v-9h-27q-9 0 -9 -9v-18q0 -9 9 -9h27v-9q0 -8 9 -8h62zM107 286v71h-62
q-9 0 -9 -9v-9h-27q-9 0 -9 -9v-18q0 -8 9 -8h27v-9q0 -9 9 -9h62zM107 143v71h-62q-9 0 -9 -9v-9h-27q-9 0 -9 -9v-17q0 -9 9 -9h27v-9q0 -9 9 -9h62zM714 54v821q0 22 -15 38t-38 16h-465q-22 0 -37 -16t-16 -38v-821q0 -23 16 -38t37 -16h465q22 0 38 16t15 38zM857 741
v18q0 9 -9 9h-27v9q0 9 -8 9h-63v-72h63q8 0 8 9v9h27q9 0 9 9zM857 598v18q0 9 -9 9h-27v9q0 9 -8 9h-63v-72h63q8 0 8 9v9h27q9 0 9 9zM857 455v18q0 9 -9 9h-27v9q0 9 -8 9h-63v-71h63q8 0 8 8v9h27q9 0 9 9zM857 312v18q0 9 -9 9h-27v9q0 9 -8 9h-63v-71h63q8 0 8 9v9
h27q9 0 9 8zM857 170v17q0 9 -9 9h-27v9q0 9 -8 9h-63v-71h63q8 0 8 9v9h27q9 0 9 9z" />
</svg>
