<?xml version="1.0" standalone="no"?>
<!DOCTYPE svg PUBLIC "-//W3C//DTD SVG 1.1//EN" "http://www.w3.org/Graphics/SVG/1.1/DTD/svg11.dtd" >
<svg xmlns="http://www.w3.org/2000/svg" xmlns:xlink="http://www.w3.org/1999/xlink" version="1.1" viewBox="-10 0 1306 1000">
   <path fill="currentColor"
d="M918 613q0 -33 -19 -60t-49 -38q-3 25 -12 51q-4 14 -16 22t-25 7q-6 0 -13 -1q-17 -6 -25 -22t-2 -32q13 -40 13 -80q0 -69 -34 -127t-93 -93t-127 -34q-75 0 -138 41t-93 108q60 16 105 60q12 12 12 30t-12 30t-31 13t-30 -13q-42 -41 -101 -41t-101 41t-42 101t42 101
t101 41h584q44 0 75 -31t31 -74zM1003 613q0 79 -56 135t-135 56h-584q-94 0 -161 -67t-67 -161q0 -86 56 -149t139 -76q34 -103 123 -166t198 -64q131 0 228 88t109 218q65 14 108 66t42 120zM1143 613q0 97 -54 178q-13 18 -36 18q-13 0 -24 -7q-14 -10 -18 -27t7 -32
q40 -58 40 -130t-40 -130q-10 -15 -7 -32t18 -28t32 -6t28 18q54 79 54 178zM1286 613q0 136 -75 247q-13 19 -36 19q-13 0 -23 -7q-15 -10 -18 -28t6 -32q60 -91 60 -199.5t-60 -199.5q-10 -14 -6 -32t18 -27.5t32 -5.5t27 18q75 111 75 247z" />
</svg>
