<?xml version="1.0" standalone="no"?>
<!DOCTYPE svg PUBLIC "-//W3C//DTD SVG 1.1//EN" "http://www.w3.org/Graphics/SVG/1.1/DTD/svg11.dtd" >
<svg xmlns="http://www.w3.org/2000/svg" xmlns:xlink="http://www.w3.org/1999/xlink" version="1.1" viewBox="-10 0 449 1000">
   <path fill="currentColor"
d="M259 786q0 -19 -13 -32t-32 -13t-31 13t-13 32t13 31t31 13t32 -13t13 -31zM375 696v-392q0 -8 -5 -13t-13 -5h-286q-7 0 -12 5t-5 13v392q0 8 5 13t12 5h286q7 0 13 -5t5 -13zM268 223q0 -9 -9 -9h-89q-9 0 -9 9t9 9h89q9 0 9 -9zM429 214v572q0 29 -22 50t-50 21h-286
q-29 0 -50 -21t-21 -50v-572q0 -29 21 -50t50 -21h286q29 0 50 21t22 50z" />
</svg>
