<?xml version="1.0" standalone="no"?>
<!DOCTYPE svg PUBLIC "-//W3C//DTD SVG 1.1//EN" "http://www.w3.org/Graphics/SVG/1.1/DTD/svg11.dtd" >
<svg xmlns="http://www.w3.org/2000/svg" xmlns:xlink="http://www.w3.org/1999/xlink" version="1.1" viewBox="-10 0 1022 1000">
   <path fill="currentColor"
d="M3 607q31 -97 107 -173q59 -61 203 -145q129 -74 178 -123q55 -55 74 -121q6 -16 16 -27q14 -12 29 -16q35 -8 61 16l312 312q26 27 16 63q-31 99 -108 173q-58 61 -203 145q-129 74 -177 123q-55 53 -75 121q-6 16 -15 27q-14 12 -30 16q-35 8 -60 -16l-313 -312
q-25 -27 -15 -63zM63 625l99 99l214 214q25 -79 84 -140t128 -102l138 -80l129 -101q129 -101 83 -140l-312 -312q-24 78 -83 139t-129 102l-139 80l-128 101q-128 101 -84 140zM337 824l21 -29q22 -27 47 -53q22 -23 55 -49q11 -9 21 0q12 12 0 24h-2q-31 25 -52 47
q-24 23 -43 48l-20 28q-2 2 -2 4q-12 12 -23 0q-8 -10 -2 -20zM364 465q2 -18 10 -33q8 -18 19 -32q0 -2 -4.5 -4.5t-4.5 -7.5t4 -10t8 -5t7.5 4t7.5 6q8 -8 20 -16t28 -12t29 -1t24 15q8 8 8 18t-8 15q-5 6 -15 4q-6 -2 -18 -4q-9 -4 -20 -3t-23 11q20 20 51 57
q14 -8 30.5 -14t32.5 -8t31 3t30 17t21 25q4 14 2 30q0 15 -10 33q-8 19 -22 37q8 6 16 13q4 2 5 7t-3 9t-9 5t-9 -3q-9 -8 -15 -16q-18 18 -34.5 24t-34.5 6q-15 -2 -28 -8t-20 -15t-8 -17t8 -16t13 -7l13 3q9 2 13 8t13 7t17 0t20 -12q-21 -21 -56 -62q-32 17 -65 19
q-29 2 -50 -15q-14 -12 -20 -26t-4 -29zM406 454q-1 7 1 14t8 10q10 10 22 9t33 -10q-30 -32 -49 -51l-10 14q-4 6 -5 14zM518 311q-9 -10 0 -22q2 -2 4 -2q32 -25 53 -47q23 -23 43 -49l19 -27q2 -4 4 -4q12 -12 22 -1t2 23l-22 29q-21 27 -47 53q-21 23 -54 48
q-12 10 -24 -1zM522 506q32 35 53 56q6 -5 10 -13t6 -16t0 -14t-9 -14t-15 -9t-15 -1t-16 5z" />
</svg>
