<?xml version="1.0" standalone="no"?>
<!DOCTYPE svg PUBLIC "-//W3C//DTD SVG 1.1//EN" "http://www.w3.org/Graphics/SVG/1.1/DTD/svg11.dtd" >
<svg xmlns="http://www.w3.org/2000/svg" xmlns:xlink="http://www.w3.org/1999/xlink" version="1.1" viewBox="-10 0 674 1000">
   <path fill="currentColor"
d="M238 472q9 -11 26 -17q14 -5 39 -7v85q-43 -4 -56 -10q-19 -8 -19 -29q0 -13 10 -22zM345 713v-91q33 3 46 6q18 3 25 9.5t7 19.5q0 46 -78 56zM415 469q22 13 29 20t7 18l8 4l45 -90l-6 -5q-10 7 -14 7q-8 0 -13 -4q-57 -21 -72 -26q-30 -9 -54 -9v-17q0 -14 20 -19v-9
h-79v9q17 5 17 19v15q-72 3 -112.5 35.5t-40.5 86.5q0 37 14.5 59t47.5 34t91 17v97q-55 -6 -88 -25q-29 -18 -29 -39l-7 -4l-41 94l6 4q8 -5 12 -5q7 0 9 2q74 37 138 40v19q0 8 -3.5 12.5t-13.5 7.5v9h79v-9q-11 -3 -15.5 -7.5t-4.5 -12.5v-19q72 -4 115.5 -38t43.5 -88
q0 -101 -149 -115h-10v-88q36 3 70 20zM456 288q89 38 143 118q55 82 55 182q0 89 -45 165q-43 75 -116 118q-76 45 -165 45t-166 -45q-74 -43 -117 -118q-45 -76 -45 -165q0 -100 55 -182q54 -80 143 -118l-82 -179q0 -12 7.5 -18.5t20.5 -6.5h366q28 0 28 25z" />
</svg>
