<?xml version="1.0" standalone="no"?>
<!DOCTYPE svg PUBLIC "-//W3C//DTD SVG 1.1//EN" "http://www.w3.org/Graphics/SVG/1.1/DTD/svg11.dtd" >
<svg xmlns="http://www.w3.org/2000/svg" xmlns:xlink="http://www.w3.org/1999/xlink" version="1.1" viewBox="-10 0 611 1000">
   <path fill="currentColor"
d="M200 891q-67 0 -131 -23l-69 -26l46 -56q102 -124 102 -285t-102 -285l-46 -58l69 -25q67 -24 131 -24q161 0 276 115t115 277t-115 275t-276 115zM174 786q9 1 26 1q118 0 202 -84t84 -202t-84 -203t-202 -84q-17 0 -26 2q79 132 79 285t-79 285z" />
</svg>
