<?xml version="1.0" standalone="no"?>
<!DOCTYPE svg PUBLIC "-//W3C//DTD SVG 1.1//EN" "http://www.w3.org/Graphics/SVG/1.1/DTD/svg11.dtd" >
<svg xmlns="http://www.w3.org/2000/svg" xmlns:xlink="http://www.w3.org/1999/xlink" version="1.1" viewBox="-11 0 868 1000">
   <path fill="currentColor"
d="M704 727q-30 5 -61 5q-102 0 -188 -50t-137 -137t-50 -188q0 -107 58 -199q-112 33 -183 128t-72 214q0 72 29 139t76 113t114 77t139 28q80 0 152 -34t123 -96zM818 680q-53 113 -159 181t-230 68q-87 0 -167 -34t-136 -92t-92 -137t-34 -166q0 -85 32 -163t87 -135
t132 -92t161 -38q25 -1 35 22t-9 40q-48 43 -73 101t-26 122q0 83 41 152t111 111t152 41q66 0 127 -29q23 -10 40 7q8 8 10 19t-2 22z" />
</svg>
