<?xml version="1.0" standalone="no"?>
<!DOCTYPE svg PUBLIC "-//W3C//DTD SVG 1.1//EN" "http://www.w3.org/Graphics/SVG/1.1/DTD/svg11.dtd" >
<svg xmlns="http://www.w3.org/2000/svg" xmlns:xlink="http://www.w3.org/1999/xlink" version="1.1" viewBox="-10 0 582 1000">
   <path fill="currentColor"
d="M551 720q28 80 -17 157t-139 111q-94 28 -175 -9t-103 -117l-106 -384q-20 -68 6 -134t84 -106l-96 -186q-14 -34 14 -48q30 -18 48 14l98 192q80 -22 154 16t102 116zM227 446q28 -10 40 -36t3 -54t-34 -41t-53 -4t-40 35t-3 54t34 41t53 5z" />
</svg>
