<?xml version="1.0" standalone="no"?>
<!DOCTYPE svg PUBLIC "-//W3C//DTD SVG 1.1//EN" "http://www.w3.org/Graphics/SVG/1.1/DTD/svg11.dtd" >
<svg xmlns="http://www.w3.org/2000/svg" xmlns:xlink="http://www.w3.org/1999/xlink" version="1.1" viewBox="-10 0 1211 1000">
   <path fill="currentColor"
d="M1160 426q31 30 31 73t-31 75l-491 490q-31 31 -73 31t-73 -31l-492 -490q-31 -32 -31 -75t31 -73l492 -490q31 -31 73 -31t73 31zM856 709q20 0 37 -17l193 -192l-193 -193q-17 -16 -37.5 -16t-36 15.5t-15.5 37.5t15 36l67 67h-238v-238l67 67q15 15 37 15t37 -15
t15 -37t-15 -37l-193 -192l-193 192q-15 15 -15 37t15 37t36.5 15t36.5 -15l68 -67v238h-239l68 -67q15 -15 15 -36t-16 -37t-36.5 -16t-36.5 16l-194 193l194 192q16 17 36.5 17t37.5 -17q15 -15 15 -36t-15 -36l-68 -68h239v239l-68 -67q-15 -15 -36.5 -15t-36.5 15
t-15 37t15 36l193 193l193 -193q15 -15 15 -36t-15 -37t-36 -15q-23 0 -38 15l-67 67v-239h238l-67 68q-15 15 -15 36t15 36q16 17 37 17zM766 604h-66v66q25 -14 53 -14q0 -27 13 -52zM425 604q15 27 15 52q26 0 51 14v-66h-66zM425 396h66v-66q-25 14 -51 14q0 25 -15 52z
M766 396q-13 -25 -13 -52q-28 0 -53 -14v66h66z" />
</svg>
