<?xml version="1.0" standalone="no"?>
<!DOCTYPE svg PUBLIC "-//W3C//DTD SVG 1.1//EN" "http://www.w3.org/Graphics/SVG/1.1/DTD/svg11.dtd" >
<svg xmlns="http://www.w3.org/2000/svg" xmlns:xlink="http://www.w3.org/1999/xlink" version="1.1" viewBox="-10 0 871 1000">
   <path fill="currentColor"
d="M425 50l-325 250h650zM150 350q-20 0 -33.5 14.5t-16.5 35.5v350l-87 150l-11 18q-2 4 -2 7q0 16 18 22q11 3 32 3h750q22 0 32 -3q18 -6 18 -22q0 -4 -3 -10q10 18 -9 -15l-88 -150v-350q0 -21 -14.5 -35.5t-35.5 -14.5h-550zM250 450h75q11 0 24 13q9 9 19 24l7 13
l50 125l50 -125q9 -24 20 -36q13 -14 30 -14h75q21 0 35.5 14.5t14.5 35.5v250q0 19 -15.5 34.5t-34.5 15.5t-34.5 -15.5t-15.5 -34.5v-200l-75 150l-7 13q-10 15 -19 24q-13 13 -24 13t-24 -13q-9 -9 -19 -24l-7 -13l-75 -150v200q0 19 -15.5 34.5t-34.5 15.5t-34.5 -15.5
t-15.5 -34.5v-250q0 -21 14.5 -35.5t35.5 -14.5z" />
</svg>
