<?xml version="1.0" standalone="no"?>
<!DOCTYPE svg PUBLIC "-//W3C//DTD SVG 1.1//EN" "http://www.w3.org/Graphics/SVG/1.1/DTD/svg11.dtd" >
<svg xmlns="http://www.w3.org/2000/svg" xmlns:xlink="http://www.w3.org/1999/xlink" version="1.1" viewBox="-11 0 1012 1000">
   <path fill="currentColor"
d="M1 866q-8 -57 38 -103t118 -57q64 -10 119 17l25 -652l690 -53q-32 727 -34 756q-1 51 -45 91t-109 50q-72 10 -129 -22t-64 -89t37 -105t117 -58q68 -9 125 22l25 -465l-539 55l-5 131q-6 131 -12 277t-8 176v6q-6 50 -49 89t-107 47q-70 10 -127 -23t-66 -90z" />
</svg>
