<?xml version="1.0" standalone="no"?>
<!DOCTYPE svg PUBLIC "-//W3C//DTD SVG 1.1//EN" "http://www.w3.org/Graphics/SVG/1.1/DTD/svg11.dtd" >
<svg xmlns="http://www.w3.org/2000/svg" xmlns:xlink="http://www.w3.org/1999/xlink" version="1.1" viewBox="-11 0 879 1000">
   <path fill="currentColor"
d="M857 125v625q0 28 -19 50t-48 33t-58 18t-53 6t-54 -6t-58 -18t-48 -33t-19 -50t19 -50t48 -33t58 -18t54 -6q58 0 107 22v-300l-429 132v396q0 28 -19 50t-48 33t-58 18t-53 6t-54 -6t-58 -18t-48 -33t-19 -50t19 -50t48 -34t58 -17l54 -6q58 0 107 21v-539
q0 -17 10 -32t28 -20l464 -142q7 -3 16 -3q22 0 38 16t15 38z" />
</svg>
