<?xml version="1.0" standalone="no"?>
<!DOCTYPE svg PUBLIC "-//W3C//DTD SVG 1.1//EN" "http://www.w3.org/Graphics/SVG/1.1/DTD/svg11.dtd" >
<svg xmlns="http://www.w3.org/2000/svg" xmlns:xlink="http://www.w3.org/1999/xlink" version="1.1" viewBox="-10 0 720 1000">
   <path fill="currentColor"
d="M600 50q42 0 71 29t29 71v700q0 40 -29 70t-71 30h-500q-40 0 -70 -30t-30 -70v-700q0 -42 30 -71t70 -29h500zM490 526q32 -44 23 -92t-33 -80l-49 -66q-25 -34 -25 -54h-60v368q-42 -16 -90 2q-42 14 -64 48t-12 64q12 32 53 45t85 -1q88 -30 88 -98v-262q36 6 55 32
t18 52t-3 42q-4 10 1 10t13 -10z" />
</svg>
