<?xml version="1.0" standalone="no"?>
<!DOCTYPE svg PUBLIC "-//W3C//DTD SVG 1.1//EN" "http://www.w3.org/Graphics/SVG/1.1/DTD/svg11.dtd" >
<svg xmlns="http://www.w3.org/2000/svg" xmlns:xlink="http://www.w3.org/1999/xlink" version="1.1" viewBox="-10 0 1020 1000">
   <path fill="currentColor"
d="M10 895q-22 -57 5 -118q37 -76 131 -107q39 -14 78 -14q69 0 119 37v-537q0 -23 15 -40t36 -22l531 -94h12q24 0 41 16q22 17 22 47v656q0 35 -16 66q-37 76 -131 108q-39 13 -78 13q-60 0 -107 -28t-65 -77q-21 -57 6 -117q37 -77 131 -108q39 -14 78 -14q68 0 119 38
v-379l-519 91h-12v500q0 36 -16 67q-37 76 -131 107q-39 14 -78 14q-60 0 -107 -28t-64 -77zM67 873q15 41 66 58t107 -3t85 -62t13 -83t-66 -57t-106 2t-85 62t-14 83zM404 250l531 -94v-93l-531 93v94zM660 779q15 41 66 58t107 -3t85 -62t13 -83t-66 -57t-107 3t-84 61
t-14 83z" />
</svg>
