<?xml version="1.0" standalone="no"?>
<!DOCTYPE svg PUBLIC "-//W3C//DTD SVG 1.1//EN" "http://www.w3.org/Graphics/SVG/1.1/DTD/svg11.dtd" >
<svg xmlns="http://www.w3.org/2000/svg" xmlns:xlink="http://www.w3.org/1999/xlink" version="1.1" viewBox="-10 0 904 1000">
   <path fill="currentColor"
d="M868 72q16 16 16 36t-16 36l-782 782q-18 14 -35 14t-34 -14t-17 -36t16 -36l782 -782q34 -32 70 0zM652 458l50 -50q74 92 101 172t-7 116q-24 24 -75 57t-131 71t-161 45t-165 -23l278 -276q44 32 88 54t67 25t33 -1q6 -10 2 -34t-26 -68t-54 -88zM376 396l-270 270
q-40 -132 28 -283t132 -215q34 -32 105 -11t159 85l-52 50q-58 -38 -105 -53t-57 -5q-4 8 -2 28t19 58t43 76z" />
</svg>
