<?xml version="1.0" standalone="no"?>
<!DOCTYPE svg PUBLIC "-//W3C//DTD SVG 1.1//EN" "http://www.w3.org/Graphics/SVG/1.1/DTD/svg11.dtd" >
<svg xmlns="http://www.w3.org/2000/svg" xmlns:xlink="http://www.w3.org/1999/xlink" version="1.1" viewBox="-10 0 799 1000">
   <path fill="currentColor"
d="M151 527l-56 57q-24 -58 -24 -120v-71q0 -15 11 -25t25 -11t25 11t11 25v71q0 30 8 63zM773 191l-202 202v71q0 74 -52 126t-126 53q-31 0 -61 -11l-53 54q54 28 114 28q103 0 177 -73t73 -177v-71q0 -15 11 -25t25 -11t25 11t10 25v71q0 124 -82 215t-203 104v74h142
q15 0 26 11t10 25t-10 25t-26 11h-357q-14 0 -25 -11t-10 -25t10 -25t25 -11h143v-74q-70 -7 -131 -45l-142 142q-5 6 -13 6t-12 -6l-46 -46q-6 -5 -6 -13t6 -12l689 -689q5 -6 12 -6t13 6l46 46q6 5 6 13t-6 12zM561 118l-347 346v-285q0 -74 53 -127t126 -52q57 0 103 33
t65 85z" />
</svg>
