<?xml version="1.0" standalone="no"?>
<!DOCTYPE svg PUBLIC "-//W3C//DTD SVG 1.1//EN" "http://www.w3.org/Graphics/SVG/1.1/DTD/svg11.dtd" >
<svg xmlns="http://www.w3.org/2000/svg" xmlns:xlink="http://www.w3.org/1999/xlink" version="1.1" viewBox="-10 0 950 1000">
   <path fill="currentColor"
d="M0 502v-4q232 -19 367 -115q43 20 86 -2q92 92 192 123q11 29 37 47q-32 76 -86 135q-41 -29 -87 -14t-64 59q-131 0 -250 -55t-193 -152q-2 -6 -2 -22zM6 432q19 -127 100 -226t197 -141q8 84 37 154q-51 53 -22 117q-130 80 -312 96zM20 639q87 76 199 118t224 42
q-138 70 -271 63q-109 -90 -152 -223zM272 924q113 -15 212 -72q47 25 94 4t59 -71q156 -33 263 -121q-37 92 -106 161t-154 105t-182 35t-186 -41zM369 45q88 -19 180 -2q-29 84 -92 162q-41 -17 -55 -11q-33 -80 -33 -149zM498 332q16 -39 2 -76q84 -103 113 -195
q61 19 108 53q17 132 4 255q-61 10 -82 65q-69 -26 -145 -102zM662 711q53 -62 84 -144q47 -6 72 -41q77 -6 112 -12q0 6 -1 15l-1 12q-96 125 -266 170zM791 385q12 -111 4 -211q111 115 131 272q-39 9 -90 11q-6 -47 -45 -72z" />
</svg>
