<?xml version="1.0" standalone="no"?>
<!DOCTYPE svg PUBLIC "-//W3C//DTD SVG 1.1//EN" "http://www.w3.org/Graphics/SVG/1.1/DTD/svg11.dtd" >
<svg xmlns="http://www.w3.org/2000/svg" xmlns:xlink="http://www.w3.org/1999/xlink" version="1.1" viewBox="-11 0 725 1000">
   <path fill="currentColor"
d="M643 321q0 124 -82 215t-204 105v341q0 8 -5 13t-13 5h-35q-8 0 -13 -5t-5 -13v-341q-121 -14 -204 -105t-82 -215q0 -65 25 -124t69 -103t103 -69t124 -25t125 25t103 69t69 103t25 124zM321 571q104 0 177 -73t73 -177t-73 -176t-177 -74t-176 74t-74 176t74 177
t176 73z" />
</svg>
