<?xml version="1.0" standalone="no"?>
<!DOCTYPE svg PUBLIC "-//W3C//DTD SVG 1.1//EN" "http://www.w3.org/Graphics/SVG/1.1/DTD/svg11.dtd" >
<svg xmlns="http://www.w3.org/2000/svg" xmlns:xlink="http://www.w3.org/1999/xlink" version="1.1" viewBox="-10 0 957 1000">
   <path fill="currentColor"
d="M0 786v-572q0 -39 28 -67t67 -27h558q40 0 68 27t28 67v64h93q39 0 67 28t28 67v413q0 39 -28 67t-67 27h-747q-39 0 -67 -27t-28 -67zM87 743q1 20 15 34t34 15h517q7 0 8 -6v-528q0 -21 -15 -35t-36 -15h-472q-21 0 -35 14t-16 35v486zM161 673q0 -18 13 -31t31 -13
h133q18 0 31 13t13 31t-13 31t-31 13h-133q-18 0 -31 -13t-13 -31zM161 500q0 -18 13 -31t31 -13h338q18 0 31 13t13 31t-13 31t-31 13h-338q-18 0 -31 -13t-13 -31zM161 327q0 -18 13 -31t31 -13h338q18 0 31 13t13 31t-13 31t-31 13h-338q-18 0 -31 -13t-13 -31zM749 743
q0 20 14 34t33 15h5q20 -1 34 -15t14 -35v-369q0 -7 -7 -7h-93v377z" />
</svg>
