<?xml version="1.0" standalone="no"?>
<!DOCTYPE svg PUBLIC "-//W3C//DTD SVG 1.1//EN" "http://www.w3.org/Graphics/SVG/1.1/DTD/svg11.dtd" >
<svg xmlns="http://www.w3.org/2000/svg" xmlns:xlink="http://www.w3.org/1999/xlink" version="1.1" viewBox="-11 0 1164 1000">
   <path fill="currentColor"
d="M571 286h-214v214h214v-214zM643 643v71h-357v-71h357zM643 214v357h-357v-357h357zM1000 643v71h-286v-71h286zM1000 500v71h-286v-71h286zM1000 357v72h-286v-72h286zM1000 214v72h-286v-72h286zM143 750v-536h-72v536q0 14 11 25t25 11t25 -11t11 -25zM1071 750v-607
h-857v607q0 18 -6 36h828q14 0 25 -11t10 -25zM1143 71v679q0 45 -31 76t-76 31h-929q-44 0 -76 -31t-31 -76v-607h143v-72h1000z" />
</svg>
