<?xml version="1.0" standalone="no"?>
<!DOCTYPE svg PUBLIC "-//W3C//DTD SVG 1.1//EN" "http://www.w3.org/Graphics/SVG/1.1/DTD/svg11.dtd" >
<svg xmlns="http://www.w3.org/2000/svg" xmlns:xlink="http://www.w3.org/1999/xlink" version="1.1" viewBox="-11 0 1242 1000">
   <path fill="currentColor"
d="M0 140q-1 -5 3 -10t8 -5q11 -2 31 -7t28 -6q0 -17 1 -50t1 -48q2 -12 13 -12q14 0 14 14q-2 60 -2 91l35 -7q24 -5 35 -8q18 -4 55 -10t56 -10q402 -69 794 -72q6 0 10 4t2 11q0 11 -2 33t-2 33q42 3 128 11q5 0 9 4t3 10q-23 137 -68 412l-68 413l76 12q8 1 11 8t-1 13
t-10 6h-3l-39 -6q-26 -4 -39 -7q-1 12 -5 31q-2 9 -10 11q-1 1 -4 1h-4q-297 -75 -600 -117q-100 -2 -149 -2q-55 0 -165 2v1q1 1 1 2q1 6 -4 11t-11 4q-11 0 -12 -11q0 -5 -1 -15t-3 -17h-13q-8 0 -10 -7t1 -14t11 -6h8l-6 -54q-6 -40 -25 -195t-35 -251t-43 -191zM30 148
q21 78 43 201q-3 -70 -3 -209q-16 2 -40 8zM97 239q1 193 21 424q3 40 11 109q1 9 3 19t3 22t3 19q67 3 192 13t182 13q354 20 483 35q11 -160 33 -455t29 -411q-468 4 -960 107q-1 53 0 105zM189 402q0 68 43 111t108 43q69 0 109 -43h2q-13 70 -65 111q-41 33 -101 38
q-40 4 -52 2v75q35 0 57 -2q107 -8 171 -68q87 -82 87 -233q0 -94 -47 -154t-132 -59q-78 0 -129 53t-51 126zM283 396q0 -45 23 -74t58 -28h1q43 0 65 35t21 91q0 16 -5 26q-26 42 -81 42q-38 0 -60 -26t-22 -66zM372 873l96 10l373 40q140 30 209 48l3 -18
q-55 -9 -165 -25q-249 -35 -516 -55zM564 402q0 68 43 111t108 43q69 0 110 -43h1q-13 70 -64 111q-42 33 -102 38q-40 4 -52 2v75q35 0 57 -2q107 -8 171 -68q87 -80 87 -233q0 -94 -47 -154t-131 -59q-78 0 -129 53t-52 126zM658 396q0 -45 23 -74t58 -28h1q43 0 65 35
t21 91q0 16 -5 26q-26 42 -81 42q-38 0 -60 -26t-22 -66zM1015 920q28 4 43 6l65 -392q45 -272 68 -417l-77 -7q-20 -2 -36 -2l-27 366q-21 281 -31 436q0 5 -4 9q-1 0 -1 1z" />
</svg>
