<?xml version="1.0" standalone="no"?>
<!DOCTYPE svg PUBLIC "-//W3C//DTD SVG 1.1//EN" "http://www.w3.org/Graphics/SVG/1.1/DTD/svg11.dtd" >
<svg xmlns="http://www.w3.org/2000/svg" xmlns:xlink="http://www.w3.org/1999/xlink" version="1.1" viewBox="-11 0 1021 1000">
   <path fill="currentColor"
d="M0 875v-750q0 -39 27 -66t67 -28h656q25 0 45 18l187 187q18 20 18 45v594q0 39 -27 66t-67 28h-812q-39 0 -67 -28t-27 -66zM63 875q0 14 8 23t23 8h812q14 0 23 -8t8 -23v-563h-124q-40 0 -67 -27t-27 -66v-125h-625q-14 0 -23 9t-8 22v750zM125 797q0 -16 16 -16h718
q16 0 16 16t-16 15h-718q-16 0 -16 -15zM125 703q0 -16 16 -16h718q16 0 16 16t-16 16h-718q-16 0 -16 -16zM125 609q0 -15 16 -15h718q16 0 16 15t-16 16h-718q-16 0 -16 -16zM125 516q0 -16 16 -16h718q16 0 16 16t-16 15h-718q-16 0 -16 -15zM125 406v-187q0 -14 9 -23
t22 -8h219q14 0 22 8t9 23v187q0 14 -9 23t-22 8h-219q-13 0 -22 -8t-9 -23zM188 375h156v-125h-156v125zM469 422q0 -16 15 -16h375q16 0 16 16t-16 15h-375q-15 0 -15 -15zM469 328q0 -16 15 -16h157q15 0 15 16t-15 16h-157q-15 0 -15 -16zM469 234q0 -15 15 -15h157
q15 0 15 15t-15 16h-157q-15 0 -15 -16zM750 219q0 25 19 44t43 18h125l-187 -187v125z" />
</svg>
