<?xml version="1.0" standalone="no"?>
<!DOCTYPE svg PUBLIC "-//W3C//DTD SVG 1.1//EN" "http://www.w3.org/Graphics/SVG/1.1/DTD/svg11.dtd" >
<svg xmlns="http://www.w3.org/2000/svg" xmlns:xlink="http://www.w3.org/1999/xlink" version="1.1" viewBox="-10 0 1020 1000">
   <path fill="currentColor"
d="M141 0q-38 0 -70.5 19t-51.5 51.5t-19 70.5v718q0 38 19 70.5t51.5 51.5t70.5 19h718q38 0 70.5 -19t51.5 -51.5t19 -70.5v-718q0 -38 -19 -70.5t-51.5 -51.5t-70.5 -19h-718zM522 102q56 0 103.5 27.5t75 75t27.5 103.5t-27.5 103t-75 75t-103.5 28t-103 -28t-74.5 -75
t-27.5 -103t27.5 -103.5t74.5 -75t103 -27.5zM520 223q-34 1 -58.5 25.5t-24.5 59.5t25 60t60 25t60.5 -25t25.5 -60t-25.5 -60t-60.5 -25h-2zM352 521q17 0 32 9q63 40 138.5 40t138.5 -40q21 -13 45 -7.5t37.5 26.5t8 45t-26.5 38q-58 36 -119 49l115 116q17 17 17 42
t-17.5 42.5t-42.5 17.5t-42 -17l-114 -113l-113 113q-16 18 -41.5 18t-43 -18t-17.5 -43t17 -42l115 -116q-61 -13 -119 -49q-21 -14 -26.5 -38t7.5 -45q8 -13 21 -20.5t28 -7.5h2z" />
</svg>
