<?xml version="1.0" standalone="no"?>
<!DOCTYPE svg PUBLIC "-//W3C//DTD SVG 1.1//EN" "http://www.w3.org/Graphics/SVG/1.1/DTD/svg11.dtd" >
<svg xmlns="http://www.w3.org/2000/svg" xmlns:xlink="http://www.w3.org/1999/xlink" version="1.1" viewBox="-10 0 877 1000">
   <path fill="currentColor"
d="M517 324q0 36 -26 62t-62 26t-63 -26t-26 -62t26 -63t63 -26t62 26t26 63zM637 526q-6 -11 -16 -18t-26 -5t-34 15q-6 5 -16 12t-46 17t-70 12t-70 -11t-48 -20l-15 -10q-17 -14 -33 -15t-27 5t-16 18q-12 25 -1 42t49 41q46 29 126 37l-28 29l-107 106q-12 12 -12 29
t12 30l5 5q12 12 29 12t30 -12l106 -107l107 107q12 12 29 12t29 -12l5 -5q13 -12 13 -30t-13 -29l-135 -135q78 -8 125 -37q38 -25 49 -41t-1 -42zM609 324q0 -75 -53 -128t-127 -53t-128 53t-53 128t53 127t128 53t127 -53t53 -127zM857 232v536q0 66 -47 113t-114 48
h-535q-67 0 -114 -48t-47 -113v-536q0 -66 47 -113t114 -48h535q67 0 114 48t47 113z" />
</svg>
