<?xml version="1.0" standalone="no"?>
<!DOCTYPE svg PUBLIC "-//W3C//DTD SVG 1.1//EN" "http://www.w3.org/Graphics/SVG/1.1/DTD/svg11.dtd" >
<svg xmlns="http://www.w3.org/2000/svg" xmlns:xlink="http://www.w3.org/1999/xlink" version="1.1" viewBox="-11 0 601 1000">
   <path fill="currentColor"
d="M290 0q-70 0 -129.5 35t-94 94t-34.5 129t34.5 129t94 94t129.5 35t129 -35t94 -94t35 -129t-35 -129t-94 -94t-129 -35zM290 151q29 0 53.5 14.5t39 39t14.5 53.5t-14.5 53.5t-39 39t-53.5 14.5t-53.5 -14.5t-39 -39t-14.5 -53.5t14.5 -53.5t39 -39t53.5 -14.5zM77 525
q-20 -1 -37.5 8.5t-27.5 26.5q-17 27 -10 57.5t33 47.5q71 44 150 62l-144 144q-22 22 -22 53t22 53.5t53.5 22.5t53.5 -22l142 -142l141 142q23 22 54 22t53.5 -22.5t22.5 -53.5t-23 -53l-144 -144q78 -18 150 -62q26 -17 33 -47.5t-9.5 -57t-47 -33.5t-57.5 10
q-79 49 -173 49t-174 -49q-18 -12 -39 -12z" />
</svg>
