<?xml version="1.0" standalone="no"?>
<!DOCTYPE svg PUBLIC "-//W3C//DTD SVG 1.1//EN" "http://www.w3.org/Graphics/SVG/1.1/DTD/svg11.dtd" >
<svg xmlns="http://www.w3.org/2000/svg" xmlns:xlink="http://www.w3.org/1999/xlink" version="1.1" viewBox="-11 0 878 1000">
   <path fill="currentColor"
d="M857 500q0 87 -34 166t-91 137t-137 92t-166 34t-167 -34t-136 -92t-92 -137t-34 -166q0 -102 45 -191t126 -151q24 -18 54 -14t46 28q18 23 14 53t-28 47q-54 41 -84 101t-30 127q0 58 23 111t61 91t91 61t111 23t110 -23t92 -61t61 -91t22 -111q0 -68 -30 -127
t-84 -101q-23 -18 -28 -47t13 -53t48 -28t53 14q81 61 126 151t45 191zM500 71v358q0 29 -21 50t-50 21t-51 -21t-21 -50v-358q0 -29 21 -50t51 -21t50 21t21 50z" />
</svg>
