<?xml version="1.0" standalone="no"?>
<!DOCTYPE svg PUBLIC "-//W3C//DTD SVG 1.1//EN" "http://www.w3.org/Graphics/SVG/1.1/DTD/svg11.dtd" >
<svg xmlns="http://www.w3.org/2000/svg" xmlns:xlink="http://www.w3.org/1999/xlink" version="1.1" viewBox="-11 0 879 1000">
   <path fill="currentColor"
d="M717 410q0 -16 -10 -26l-51 -50q-11 -11 -25 -11t-25 11l-228 227l-126 -126q-11 -11 -25 -11t-25 11l-51 50q-10 10 -10 25.5t10 25.5l202 202q10 10 25 10t26 -10l303 -303q10 -10 10 -25zM857 500q0 117 -57 215t-156 156t-215 58t-216 -58t-155 -156t-58 -215
t58 -215t155 -156t216 -58t215 58t156 156t57 215z" />
</svg>
