<?xml version="1.0" standalone="no"?>
<!DOCTYPE svg PUBLIC "-//W3C//DTD SVG 1.1//EN" "http://www.w3.org/Graphics/SVG/1.1/DTD/svg11.dtd" >
<svg xmlns="http://www.w3.org/2000/svg" xmlns:xlink="http://www.w3.org/1999/xlink" version="1.1" viewBox="-10 0 1020 1000">
   <path fill="currentColor"
d="M500 0q136 0 251 67t182 182t67 251t-67 251t-182 182t-251 67t-251 -67t-182 -182t-67 -251t67 -251t182 -182t251 -67zM260 447l-54 53q71 71 129 133t81 90l22 26l22 -36q14 -23 57 -85l83 -119q40 -57 95 -119t99 -104q-18 -35 -36 -35q-10 6 -32 22t-113 97
t-211 201z" />
</svg>
