<?xml version="1.0" standalone="no"?>
<!DOCTYPE svg PUBLIC "-//W3C//DTD SVG 1.1//EN" "http://www.w3.org/Graphics/SVG/1.1/DTD/svg11.dtd" >
<svg xmlns="http://www.w3.org/2000/svg" xmlns:xlink="http://www.w3.org/1999/xlink" version="1.1" viewBox="-11 0 879 1000">
   <path fill="currentColor"
d="M654 454l-236 235q-11 11 -25 11t-25 -11l-164 -164q-11 -11 -11 -25t11 -25l57 -57q10 -11 25 -11t25 11l82 82l153 -154q11 -10 25 -10t26 10l57 57q10 11 10 26t-10 25zM732 500q0 -83 -41 -152t-110 -111t-152 -41t-153 41t-110 111t-41 152t41 152t110 111t153 41
t152 -41t110 -111t41 -152zM857 500q0 117 -57 215t-156 156t-215 58t-216 -58t-155 -156t-58 -215t58 -215t155 -156t216 -58t215 58t156 156t57 215z" />
</svg>
