<?xml version="1.0" standalone="no"?>
<!DOCTYPE svg PUBLIC "-//W3C//DTD SVG 1.1//EN" "http://www.w3.org/Graphics/SVG/1.1/DTD/svg11.dtd" >
<svg xmlns="http://www.w3.org/2000/svg" xmlns:xlink="http://www.w3.org/1999/xlink" version="1.1" viewBox="-10 0 803 1000">
   <path fill="currentColor"
d="M365 891q-66 0 -111 -45l-208 -209q-46 -46 -46 -110.5t46 -110.5q44 -44 110 -44t110 44l63 62l160 -287q20 -38 57 -60t79 -22q88 0 134 76t2 157l-260 469q-43 80 -136 80zM156 474q-21 0 -37 16t-15.5 36.5t16.5 36.5l208 209q18 19 44 15t38 -26l260 -469
q11 -23 4 -43t-24 -28q-19 -10 -39 -4t-31 24l-227 408l-160 -160q-15 -15 -37 -15z" />
</svg>
