<?xml version="1.0" standalone="no"?>
<!DOCTYPE svg PUBLIC "-//W3C//DTD SVG 1.1//EN" "http://www.w3.org/Graphics/SVG/1.1/DTD/svg11.dtd" >
<svg xmlns="http://www.w3.org/2000/svg" xmlns:xlink="http://www.w3.org/1999/xlink" version="1.1" viewBox="-10 0 877 1000">
   <path fill="currentColor"
d="M382 725l343 -343q11 -10 11 -25t-11 -25l-57 -57q-11 -11 -25 -11t-25 11l-261 261l-118 -118q-10 -11 -25 -11t-25 11l-57 57q-10 10 -10 25t10 25l200 200q11 10 25 10t25 -10zM857 232v536q0 66 -47 113t-114 48h-535q-67 0 -114 -48t-47 -113v-536q0 -66 47 -113
t114 -48h535q67 0 114 48t47 113z" />
</svg>
