<?xml version="1.0" standalone="no"?>
<!DOCTYPE svg PUBLIC "-//W3C//DTD SVG 1.1//EN" "http://www.w3.org/Graphics/SVG/1.1/DTD/svg11.dtd" >
<svg xmlns="http://www.w3.org/2000/svg" xmlns:xlink="http://www.w3.org/1999/xlink" version="1.1" viewBox="-11 0 1104 1000">
   <path fill="currentColor"
d="M0 647q-1 -63 25 -117t67 -89t92 -63t101 -43t92 -25t68 -13l26 -3v123q-57 4 -104 19t-78 37t-53 45t-35 48t-19 43t-8 31l-2 12q-3 15 -3 30q0 22 7 42q12 34 38 58t59 44t68 34t64 21t47 13l19 3v103q-97 -10 -175 -35t-127 -56t-83 -68t-51 -71t-24 -62t-10 -44z
M510 1000v-902l142 -98v922zM686 409h5q38 1 77 15q42 16 64 31l21 16l-83 34l313 78v-245l-107 61q-40 -43 -112 -69t-126 -31l-52 -5v115z" />
</svg>
