<?xml version="1.0" standalone="no"?>
<!DOCTYPE svg PUBLIC "-//W3C//DTD SVG 1.1//EN" "http://www.w3.org/Graphics/SVG/1.1/DTD/svg11.dtd" >
<svg xmlns="http://www.w3.org/2000/svg" xmlns:xlink="http://www.w3.org/1999/xlink" version="1.1" viewBox="-10 0 1291 1000">
   <path fill="currentColor"
d="M267 935q-5 9 -15 19t-21 14q-14 5 -29 -2t-16 -17q0 -13 23 -31t38 -21q13 -2 19 12t1 26zM1015 935q4 9 15 19t21 14q14 5 29 -2t15 -17q1 -13 -22 -31t-38 -21q-13 -2 -19 12t-1 26zM1042 874q7 15 31 33t44 23q25 8 45 -2t21 -28q0 -26 -38 -57t-64 -33
q-22 -3 -35 21t-4 43zM239 874q-7 15 -31 33t-43 23q-25 8 -46 -2t-21 -28q0 -26 38 -57t64 -33q23 -3 36 21t3 43zM646 247h1q-23 0 -43 8q15 4 25 17t9 28q0 19 -15 33t-36 14q-29 0 -45 -24q-2 13 -2 23q0 42 31 71t75.5 29t75.5 -29t31 -71t-31 -70t-76 -29zM816 125
q-55 -61 -123 -73t-137 24q15 -33 46 -53t66 -22t68 9t55 42t25 73zM1234 816q5 6 -6 24q4 13 4 22q1 31 -25 63t-61 51t-66 21q-26 1 -51 -12t-37 -37q-383 14 -702 0q-13 23 -37 36t-52 13q-48 -2 -100 -45t-52 -90q1 -12 4 -22q-11 -18 -6 -24q3 -5 17 0q8 -12 23 -29
q-4 -16 1.5 -21t21.5 2q16 -11 33 -19q0 -16 7 -20q13 -7 29 9q19 -3 34 1q10 2 21 10v-40q-6 0 -10 -1q-30 -6 -54 -25t-31 -49q-5 -21 0 -45q8 -35 52 -53q1 -10 11 -20t20 -13t18 4t11 17h7q26 3 33 13q2 1 3 4l34 -4q-8 -6 -17 -10q-12 -22 -50 -24v-5q-34 -1 -66 -11
t-47 -26q-18 -20 -24 -51t-1 -63q9 -70 50 -100q13 -9 29 -2t18 22l1 8q1 7 1 12t2 11t3 11t5 5q15 8 42 7q27 -26 55 -41q-23 -3 -91 7l27 -25q34 -33 91 -62q80 -41 157 -48q-11 -5 -23 -9l-26 -8q-14 -4 -24 -6l-26 -6q-16 -4 -24 -5q332 -71 504 77q55 47 88 124
q48 6 68 -5v0q3 -2 5 -5t3 -11t2 -11t1 -12l1 -8q2 -15 18 -22t29 3q41 29 51 99q4 32 -2 63t-24 51q-16 18 -47 27t-64 10v6q-40 1 -53 24q-8 3 -17 9l34 4q1 -3 3 -4q9 -10 33 -13h8q3 -10 10 -17t19 -4t20 13t10 20q45 18 52 53q5 22 1 45q-7 29 -31 49t-54 25
q-6 1 -10 1q0 27 -1 40q12 -8 22 -10q14 -4 34 -1q15 -16 28 -9q8 5 8 20q18 9 33 19q15 -7 21 -1.5t1 20.5q16 17 23 29q13 -5 17 0zM1081 285q0 16 -5 30q46 18 62 74q3 -21 -5 -55t-23 -51q-11 -10 -20 -9t-9 11zM1037 341q20 23 27 60t0 70q37 -7 54 -25q7 -8 10 -16
q-2 -36 -17 -64t-45 -37q-8 9 -29 12zM1017 343h-25q24 64 30 133q12 0 24 -2q9 -38 0 -75t-29 -56zM144 389q17 -56 63 -74q-5 -14 -5 -30q0 -10 -10 -11t-20 9q-15 17 -23 51t-5 55zM164 446q16 17 54 25q-7 -32 0 -70t26 -60q-20 -3 -29 -12q-28 9 -43 37t-18 64
q5 10 10 16zM263 476q8 -69 41 -131q-11 2 -31 10l-25 10q-26 50 -11 109q14 2 26 2zM800 498q5 21 9 60t6.5 49.5t5.5 12.5t13 -2q23 -11 35 -48t13 -70q-14 -1 -82 -2zM643 140q-65 0 -111 46t-46 111t46 111t111 46t111 -46t46 -111t-46 -111t-111 -46zM770 497
q-58 -2 -118 0v-1q0 15 2 48t7 37q17 8 52 8t54 -6q5 -2 6 -22t0 -38t-3 -26zM621 608q4 -3 5 -27t0 -49t-3 -35v-1l-119 2q-2 11 -4 34t0 47t8 25q19 9 56 9t57 -5zM401 502q-9 33 2 66t43 47q9 5 14 3t7 -11l4 -51q3 -42 6 -57q-39 1 -76 3zM330 572q2 13 -19 21
q74 78 151 134t171 85q96 -27 173 -81t164 -140q-18 -7 -17 -19v-1l2 -4l-28 -3q-18 -2 -27 -2q-14 50 -46 74q-28 21 -45 -1q-3 -3 -5 -8q-4 -7 -10 -34l-3 5q-2 3 -4 4t-4 3t-6 2l-26 4q-7 1 -8 0q-59 5 -91 -6q-2 9 -5 15t-12 8t-13 4t-20 2h-5q-100 10 -113 -22
q-1 35 -31 30q-27 -4 -51 -30q-7 -7 -11 -14q-10 -17 -15 -37l-48 6q0 1 2 5zM283 923q2 -8 2 -17q-10 -39 -29 -72t-41 -39.5t-56 8.5t-59 44t-21 60q19 30 56 52t65.5 23.5t52.5 -15.5t30 -44zM285 828q12 35 15 66q109 -63 218 -97q-54 -29 -100 -67t-100 -92q-4 2 -17 7
v2q0 1 -1 3q18 10 13 21q-7 13 -32 19q-5 7 -16 13v0q-2 46 0 84q11 19 20 41zM323 920q297 12 639 0q-142 -82 -239 -109q-42 19 -87 32q-4 1 -9 0q-36 -12 -72 -28q-116 34 -232 105v1v-1zM984 895q2 -31 15 -67q8 -22 19 -40h-1q2 -43 2 -85q-8 -4 -17 -14
q-23 -5 -31 -18q-5 -11 12 -21q-1 -3 -1 -6q-9 -2 -15 -6q-114 106 -214 158q110 33 231 99zM1203 907q2 -30 -22 -60t-58 -44t-56 -8t-42 39t-28 72q0 9 1 17q6 27 30 44t52 16q31 -1 67 -24t56 -52z" />
</svg>
