<?xml version="1.0" standalone="no"?>
<!DOCTYPE svg PUBLIC "-//W3C//DTD SVG 1.1//EN" "http://www.w3.org/Graphics/SVG/1.1/DTD/svg11.dtd" >
<svg xmlns="http://www.w3.org/2000/svg" xmlns:xlink="http://www.w3.org/1999/xlink" version="1.1" viewBox="-11 0 803 1000">
   <path fill="currentColor"
d="M782 615q-17 45 -42 77t-51 50t-55 26t-57 8t-54 -5t-48 -12t-39 -15t-25 -13l-10 -6q-63 128 -161 201t-215 74q-10 0 -18 -7t-7 -18t7 -18t18 -7q97 0 180 -60t140 -164q-20 8 -40 13t-46 7t-51 -1t-52 -16t-51 -33t-47 -56t-42 -81q64 -27 120 -32t93 4t70 31t49 43
t32 46q29 -73 44 -162q-4 0 -10 1t-26 2t-39 -1l-46 -5q-27 -3 -49 -13t-47 -24t-42 -36t-30 -53t-16 -71q39 -16 74 -20t63 0t52 17t41 28t31 34t23 35t16 31t9 22l2 9q6 -68 6 -109l-12 -8q-8 -5 -27 -25t-35 -40t-30 -52t-19 -63t7 -71t39 -77q41 14 71 34t47 43t27 47
t11 50t0 48t-7 42l-11 35q-5 15 -9 23l-4 9v68l5 -10q3 -6 17 -24t29 -33t39 -31t51 -25t63 -8t74 14q-1 43 -12 79t-28 58t-39 40t-45 25l-48 14q-25 7 -44 5t-38 -1t-26 -2l-9 -2q-13 82 -41 158q3 -4 10 -10l28 -23q21 -17 43 -29t55 -24t66 -11t72 13t76 43z" />
</svg>
