<?xml version="1.0" standalone="no"?>
<!DOCTYPE svg PUBLIC "-//W3C//DTD SVG 1.1//EN" "http://www.w3.org/Graphics/SVG/1.1/DTD/svg11.dtd" >
<svg xmlns="http://www.w3.org/2000/svg" xmlns:xlink="http://www.w3.org/1999/xlink" version="1.1" viewBox="-10 0 1001 1000">
   <path fill="currentColor"
d="M857 228q72 48 101 110t20 104t-35 48q-16 4 -54 -10t-80 -10t-80 46q-30 46 -21 75t34 65t23 50q-2 26 -36 63t-126 74t-216 37q-186 0 -291 -101t-95 -245q8 -118 104 -235t216 -151q290 -84 536 80zM539 694q30 0 52 -22t22 -54t-22 -53t-53 -21t-53 21t-22 53t22 54
t54 22z" />
</svg>
