<?xml version="1.0" standalone="no"?>
<!DOCTYPE svg PUBLIC "-//W3C//DTD SVG 1.1//EN" "http://www.w3.org/Graphics/SVG/1.1/DTD/svg11.dtd" >
<svg xmlns="http://www.w3.org/2000/svg" xmlns:xlink="http://www.w3.org/1999/xlink" version="1.1" viewBox="-10 0 958 1000">
   <path fill="currentColor"
d="M0 500q0 -95 37 -182t100 -149t150 -100t182 -37t182 37t149 100t100 149t37 182t-37 182t-100 150t-149 100t-182 37t-182 -37t-150 -100t-100 -150t-37 -182zM200 300q-6 7 2 23l171 358q8 15 25 22t31 -1l72 -33l29 29l14 15q12 12 27 10t23 -15l66 -117l94 -45
q15 -8 14 -17t-16 -16l-529 -213q-17 -7 -23 0zM301 366q1 -2 16 7l252 149q15 9 15 21t-14 17q-16 7 -35 3t-34 -15l-188 -168q-14 -12 -12 -14z" />
</svg>
