<?xml version="1.0" standalone="no"?>
<!DOCTYPE svg PUBLIC "-//W3C//DTD SVG 1.1//EN" "http://www.w3.org/Graphics/SVG/1.1/DTD/svg11.dtd" >
<svg xmlns="http://www.w3.org/2000/svg" xmlns:xlink="http://www.w3.org/1999/xlink" version="1.1" viewBox="-11 0 1022 1000">
   <path fill="currentColor"
d="M0 659q-2 -18 14 -28l937 -625q8 -6 18 -6t18 6q15 10 13 31l-156 938q-4 13 -16 21q-7 4 -14 4t-13 -2l-303 -121l-64 107q-10 16 -28 16t-27 -16l-115 -201l-244 -97q-18 -8 -20 -27zM98 648l189 77q2 2 5 3l3 2l527 -564zM319 752l87 152l504 -787zM502 814q12 2 20 4
l265 108l125 -748z" />
</svg>
