<?xml version="1.0" standalone="no"?>
<!DOCTYPE svg PUBLIC "-//W3C//DTD SVG 1.1//EN" "http://www.w3.org/Graphics/SVG/1.1/DTD/svg11.dtd" >
<svg xmlns="http://www.w3.org/2000/svg" xmlns:xlink="http://www.w3.org/1999/xlink" version="1.1" viewBox="-11 0 1021 1000">
   <path fill="currentColor"
d="M984 6q19 13 15 36l-142 857q-3 16 -18 25q-8 5 -18 5q-6 0 -13 -3l-294 -120l-166 182q-10 12 -27 12q-7 0 -12 -2q-11 -4 -17 -13t-6 -21v-252l-264 -108q-20 -8 -22 -30t18 -33l928 -536q20 -12 38 1zM794 843l123 -739l-800 462l187 76l482 -356l-267 444z" />
</svg>
