<?xml version="1.0" standalone="no"?>
<!DOCTYPE svg PUBLIC "-//W3C//DTD SVG 1.1//EN" "http://www.w3.org/Graphics/SVG/1.1/DTD/svg11.dtd" >
<svg xmlns="http://www.w3.org/2000/svg" xmlns:xlink="http://www.w3.org/1999/xlink" version="1.1" viewBox="-10 0 942 1000">
   <path fill="currentColor"
d="M894 130q14 -4 22 3t4 19q-2 6 -72 310t-74 316q-2 14 -14 19t-24 -1l-278 -150l22 -26q388 -420 394 -426q4 -4 -1 -9t-9 -1l-550 402l-112 -44l-190 -76q-12 -4 -12 -12t12 -12q8 -4 441 -157t441 -155zM312 858v-204l160 82q-130 116 -142 128q-18 14 -18 -6z" />
</svg>
