<?xml version="1.0" standalone="no"?>
<!DOCTYPE svg PUBLIC "-//W3C//DTD SVG 1.1//EN" "http://www.w3.org/Graphics/SVG/1.1/DTD/svg11.dtd" >
<svg xmlns="http://www.w3.org/2000/svg" xmlns:xlink="http://www.w3.org/1999/xlink" version="1.1" viewBox="-11 0 1168 1000">
   <path fill="currentColor"
d="M6 78q12 -13 45 1l1062 427q21 8 29 20t1 25t-26 22l-189 91l-132 234q-18 28 -47 31t-53 -22l-87 -88l-143 67q-32 14 -65 2t-48 -44l-345 -720q-15 -32 -2 -46zM208 211q-3 3 23 27l379 337q26 24 67 32t70 -5t28 -36t-31 -40l-502 -301q-32 -18 -34 -14z" />
</svg>
