<?xml version="1.0" standalone="no"?>
<!DOCTYPE svg PUBLIC "-//W3C//DTD SVG 1.1//EN" "http://www.w3.org/Graphics/SVG/1.1/DTD/svg11.dtd" >
<svg xmlns="http://www.w3.org/2000/svg" xmlns:xlink="http://www.w3.org/1999/xlink" version="1.1" viewBox="-10 0 1020 1000">
   <path fill="currentColor"
d="M0 312q0 -76 63 -124v-94q0 -39 27 -67t66 -27t67 27t27 67v94q63 48 63 124t-63 125v469q0 39 -27 67t-67 27t-66 -27t-27 -67v-469q-63 -48 -63 -125zM63 312q0 12 3 26l2 6q4 13 12 24t20 20t25 12q16 6 31 6t32 -6q13 -4 25 -12.5t19 -20.5q8 -10 12 -23l2 -6
q4 -14 4 -26t-4 -25q-2 -4 -2 -6q-4 -13 -12 -23q-7 -12 -19 -21t-25 -12q-16 -6 -32 -6t-31 6q-14 4 -24.5 12.5t-20.5 20.5q-8 10 -12 23l-2 6q-3 14 -3 25zM125 906q0 14 9 23t22 9t23 -9t9 -23v-441q-16 4 -32 4t-31 -4v441zM125 160q16 -4 31 -4t32 4v-66q0 -14 -9 -23
t-23 -8t-22 8t-9 23v66zM344 687q0 -76 62 -125v-468q0 -39 28 -67t66 -27t66 27t28 67v468q62 49 62 125t-62 125v94q0 39 -28 67t-66 27t-66 -27t-28 -67v-94q-62 -48 -62 -125zM406 687q0 12 4 26l2 6q4 13 12 24t19 20t26 12q15 6 31 6t31 -6q14 -4 25.5 -12.5
t19.5 -19.5t12 -24q0 -2 2 -6q4 -14 4 -26t-4 -25l-2 -6q-4 -13 -12 -24t-19 -19q-12 -10 -26 -13q-15 -6 -31 -6t-31 6q-14 3 -26 13q-9 8 -19 20q-8 10 -12 23l-2 6q-4 14 -4 25zM469 906q0 14 9 23t22 9t22 -9t9 -23v-66q-15 4 -31 4t-31 -4v66zM469 535q15 -4 31 -4
t31 4v-441q0 -14 -9 -23t-22 -8t-22 8t-9 23v441zM688 312q0 -76 62 -124v-94q0 -39 27 -67t67 -27t66 27t27 67v94q63 48 63 124t-63 125v469q0 39 -27 67t-66 27t-67 -27t-27 -67v-469q-62 -48 -62 -125zM750 312q0 12 4 26l2 6q4 13 12 23q7 12 19 21t25 12q16 6 32 6
t31 -6q14 -4 25.5 -12.5t19.5 -19.5t12 -24q0 -2 2 -6q3 -14 3 -26t-3 -25l-2 -6q-4 -13 -12 -24t-19.5 -19.5t-25.5 -12.5q-16 -6 -31 -6t-32 6q-13 4 -25 12.5t-19 20.5q-8 10 -12 23l-2 6q-4 14 -4 25zM812 906q0 14 9 23t23 9t22 -9t9 -23v-441q-16 4 -31 4t-32 -4v441z
M812 160q16 -4 32 -4t31 4v-66q0 -14 -9 -23t-22 -8t-23 8t-9 23v66z" />
</svg>
