<?xml version="1.0" standalone="no"?>
<!DOCTYPE svg PUBLIC "-//W3C//DTD SVG 1.1//EN" "http://www.w3.org/Graphics/SVG/1.1/DTD/svg11.dtd" >
<svg xmlns="http://www.w3.org/2000/svg" xmlns:xlink="http://www.w3.org/1999/xlink" version="1.1" viewBox="-10 0 1020 1000">
   <path fill="currentColor"
d="M429 929h500v-358h-233q-22 0 -37 -15t-16 -38v-232h-214v643zM571 125v-36q0 -7 -5 -12t-12 -6h-393q-7 0 -13 6t-5 12v36q0 7 5 13t13 5h393q7 0 12 -5t5 -13zM714 500h167l-167 -167v167zM1000 571v375q0 23 -16 38t-38 16h-535q-23 0 -38 -16t-16 -38v-89h-303
q-23 0 -38 -16t-16 -37v-750q0 -23 16 -38t38 -16h607q22 0 38 16t15 38v183q12 7 20 15l228 228q16 15 27 42t11 49z" />
</svg>
