<?xml version="1.0" standalone="no"?>
<!DOCTYPE svg PUBLIC "-//W3C//DTD SVG 1.1//EN" "http://www.w3.org/Graphics/SVG/1.1/DTD/svg11.dtd" >
<svg xmlns="http://www.w3.org/2000/svg" xmlns:xlink="http://www.w3.org/1999/xlink" version="1.1" viewBox="-10 0 950 1000">
   <path fill="currentColor"
d="M0 385q4 -172 131 -278q135 -105 334 -107q209 4 336 105q62 53 95 127t34 153q-4 164 -125 263q-127 100 -330 102v60q-2 57 -34 104t-80 70q-33 16 -72 16q-47 0 -94 -23v-174q41 29 77 19q33 -14 33 -49v-480h170v299q58 0 111 -12q80 -20 125 -59q59 -56 59 -136
q0 -116 -96 -176q-88 -51 -209 -51q-127 4 -211 55q-45 29 -69 75t-25 97q8 105 47 142l-107 115q-47 -46 -75 -121q-23 -78 -25 -136z" />
</svg>
