<?xml version="1.0" standalone="no"?>
<!DOCTYPE svg PUBLIC "-//W3C//DTD SVG 1.1//EN" "http://www.w3.org/Graphics/SVG/1.1/DTD/svg11.dtd" >
<svg xmlns="http://www.w3.org/2000/svg" xmlns:xlink="http://www.w3.org/1999/xlink" version="1.1" viewBox="-10 0 878 1000">
   <path fill="currentColor"
d="M857 107v786q0 14 -10 25t-26 11h-285q-15 0 -25 -11t-11 -25v-786q0 -14 11 -25t25 -11h285q15 0 26 11t10 25zM357 107v786q0 14 -10 25t-26 11h-285q-15 0 -25 -11t-11 -25v-786q0 -14 11 -25t25 -11h285q15 0 26 11t10 25z" />
</svg>
