<?xml version="1.0" standalone="no"?>
<!DOCTYPE svg PUBLIC "-//W3C//DTD SVG 1.1//EN" "http://www.w3.org/Graphics/SVG/1.1/DTD/svg11.dtd" >
<svg xmlns="http://www.w3.org/2000/svg" xmlns:xlink="http://www.w3.org/1999/xlink" version="1.1" viewBox="-10 0 755 1000">
   <path fill="currentColor"
d="M0 845q0 27 19 46t45 19h127q27 0 45 -19t19 -46v-691q0 -27 -19 -45t-45 -19h-127q-27 0 -45 19t-19 45v691zM480 845q0 27 19 46t45 19h127q26 0 45 -19t19 -46v-691q0 -27 -19 -45t-45 -19h-127q-27 0 -45 19t-19 45v691z" />
</svg>
