<?xml version="1.0" standalone="no"?>
<!DOCTYPE svg PUBLIC "-//W3C//DTD SVG 1.1//EN" "http://www.w3.org/Graphics/SVG/1.1/DTD/svg11.dtd" >
<svg xmlns="http://www.w3.org/2000/svg" xmlns:xlink="http://www.w3.org/1999/xlink" version="1.1" viewBox="-10 0 949 1000">
   <path fill="currentColor"
d="M435 263q0 34 -10 64t-35 51t-59 22q-42 0 -77 -32t-51 -76t-17 -84q0 -33 10 -63t36 -52t58 -22q43 0 78 32t51 76t16 84zM244 533q0 45 -23 77t-66 32.5t-79 -30.5t-56 -74t-20 -85q0 -45 23 -78t66 -33t80 31t56 75t19 85zM464 518q66 0 143 54t127 132t52 142
q0 26 -10 43t-27 25t-36 12t-42 3q-38 0 -105 -25t-102.5 -25.5t-106.5 24.5t-112 25q-102 0 -102 -82q0 -48 31 -106t78 -108t105 -81t107 -33zM598 400q-34 0 -59 -22t-35 -51t-11 -64q0 -41 17 -84t51 -76t77 -32q34 0 59 22t35 52t11 63q0 41 -17 84t-51 76t-77 32z
M839 342q43 0 66 33t24 78q0 41 -20 85t-56 74t-79 30.5t-66 -32.5t-24 -77q0 -41 20 -85t56 -75t79 -31z" />
</svg>
