<?xml version="1.0" standalone="no"?>
<!DOCTYPE svg PUBLIC "-//W3C//DTD SVG 1.1//EN" "http://www.w3.org/Graphics/SVG/1.1/DTD/svg11.dtd" >
<svg xmlns="http://www.w3.org/2000/svg" xmlns:xlink="http://www.w3.org/1999/xlink" version="1.1" viewBox="-11 0 880 1000">
   <path fill="currentColor"
d="M771 240l8 4q38 22 60 62q20 38 20 96q0 130 -110 210q-106 80 -306 80h-30q-16 0 -32 12t-20 28l-36 156q-12 42 -52 42h-106q-18 0 -28 -13t-6 -29l6 -24h68q16 0 32 -13t20 -29l36 -156q10 -40 52 -40h30q196 0 306 -81t110 -209q0 -56 -22 -96zM191 756q-2 16 -18 29
t-32 13h-108q-18 0 -27 -13t-5 -29l150 -646q10 -40 52 -40h224q78 0 126 8q56 12 94 34q36 24 57 62t21 96q0 130 -110 210q-106 80 -304 80h-32q-16 0 -32 12t-18 28zM279 382q-4 16 6 28t26 12h28q86 0 134 -35t48 -99q0 -44 -31 -64t-93 -20h-34q-42 0 -52 40z" />
</svg>
