<?xml version="1.0" standalone="no"?>
<!DOCTYPE svg PUBLIC "-//W3C//DTD SVG 1.1//EN" "http://www.w3.org/Graphics/SVG/1.1/DTD/svg11.dtd" >
<svg xmlns="http://www.w3.org/2000/svg" xmlns:xlink="http://www.w3.org/1999/xlink" version="1.1" viewBox="-10 0 1012 1000">
   <path fill="currentColor"
d="M756 4q96 0 166 70t70 167q0 27 -9 62q25 78 -31 134l-234 235q-37 37 -92 37h-4l-113 113q-31 31 -78 50q-13 5 -362 121q-10 3 -16 3q-26 0 -42 -21t-8 -47q116 -349 121 -361q19 -48 52 -80q413 -413 415 -414q71 -69 165 -69zM374 782l-158 -159l-15 44
q-12 36 -22 62l89 89q44 -14 106 -36zM161 784q-9 25 -27 78l79 -26zM562 622q-15 -23 -13 -50t22 -48l192 -192l-142 -143l-372 373q-6 6 -10 11l184 184l6 -4q5 -3 7 -5zM878 363q18 -17 -1 -35t-35 -1l-235 234q-13 12 -5 28t24 17q11 0 18 -8zM799 296q39 -39 85 -24
q4 -15 4 -31q0 -54 -40 -93t-96 -37t-95 42z" />
</svg>
