<?xml version="1.0" standalone="no"?>
<!DOCTYPE svg PUBLIC "-//W3C//DTD SVG 1.1//EN" "http://www.w3.org/Graphics/SVG/1.1/DTD/svg11.dtd" >
<svg xmlns="http://www.w3.org/2000/svg" xmlns:xlink="http://www.w3.org/1999/xlink" version="1.1" viewBox="-10 0 850 1000">
   <path fill="currentColor"
d="M795 119q24 22 31.5 52t-2 60t-33.5 53l-46 46l4 -9q5 -13 5 -26q-1 -20 -10 -39q-11 -25 -36 -49q-22 -22 -46 -33q-20 -8 -40 -10q-14 0 -28 3l-10 3l49 -48q21 -22 51 -30t60 -1t51 28zM706 369l-492 493l-210 51l-4 -4l55 -210l493 -490q14 -4 22 -4q19 -2 38 2
l-523 522l-15 55l60 60l56 -15l25 -24l3 -56l-40 -40l479 -479l15 15q24 24 36 49q9 20 10 39q0 14 -4 26z" />
</svg>
