<?xml version="1.0" standalone="no"?>
<!DOCTYPE svg PUBLIC "-//W3C//DTD SVG 1.1//EN" "http://www.w3.org/Graphics/SVG/1.1/DTD/svg11.dtd" >
<svg xmlns="http://www.w3.org/2000/svg" xmlns:xlink="http://www.w3.org/1999/xlink" version="1.1" viewBox="-10 0 1020 1000">
   <path fill="currentColor"
d="M0 891q0 -4 1 -8t1 -8t1 -8t1 -6v-2l74 -267q10 -31 31 -53l325 -324v-2l152 -154q60 -59 146 -59q106 0 186 80q74 74 81 171t-58 161l-476 481q-24 23 -55 31l-263 70l-10 3q-4 1 -9 1t-10 1t-9 1q-45 0 -77 -32t-32 -77zM63 891q0 19 13 33t33 14q6 0 22 -4l115 -32
q4 -58 -43 -105q-45 -45 -105 -43l-32 119q-3 14 -3 18zM107 723q67 2 118 52t52 120l116 -30l11 -6q41 -47 34 -115t-61 -121q-51 -49 -115 -59t-112 24q-7 10 -11 21zM238 498q45 2 90 20l295 -295q-88 -22 -144 33zM357 533q38 20 65 45q21 22 41 55l297 -299
q-16 -31 -39 -55q-30 -29 -67 -45zM479 662q17 41 21 82v24l242 -245v-2q61 -60 31 -156zM580 154q106 0 186 80q70 73 78 166v22l52 -55q45 -45 41 -111q-5 -74 -62 -131q-63 -62 -143 -62q-60 0 -101 41z" />
</svg>
