<?xml version="1.0" standalone="no"?>
<!DOCTYPE svg PUBLIC "-//W3C//DTD SVG 1.1//EN" "http://www.w3.org/Graphics/SVG/1.1/DTD/svg11.dtd" >
<svg xmlns="http://www.w3.org/2000/svg" xmlns:xlink="http://www.w3.org/1999/xlink" version="1.1" viewBox="-10 0 1021 1000">
   <path fill="currentColor"
d="M0 500q0 -207 147 -354t353 -146t354 146t146 354t-146 354t-354 146t-353 -146t-147 -354zM174 787l219 -43l-176 -176zM260 537l168 166l269 -271l-166 -166zM602 221q-2 25 15 41l84 84q18 17 43 16t44 -19t20 -44t-17 -43l-84 -84q-16 -16 -39 -16q-27 0 -47 20
q-17 19 -19 45z" />
</svg>
