<?xml version="1.0" standalone="no"?>
<!DOCTYPE svg PUBLIC "-//W3C//DTD SVG 1.1//EN" "http://www.w3.org/Graphics/SVG/1.1/DTD/svg11.dtd" >
<svg xmlns="http://www.w3.org/2000/svg" xmlns:xlink="http://www.w3.org/1999/xlink" version="1.1" viewBox="-10 0 867 1000">
   <path fill="currentColor"
d="M203 857l50 -51l-131 -131l-51 51v60h72v71h60zM494 339q0 -12 -12 -12q-5 0 -9 4l-303 302q-4 4 -4 10q0 12 13 12q5 0 9 -4l303 -302q3 -4 3 -10zM464 232l232 232l-464 465h-232v-233zM845 286q0 29 -20 50l-93 93l-232 -233l93 -92q20 -21 49.5 -21t51.5 21l131 131
q20 22 20 51z" />
</svg>
