<?xml version="1.0" standalone="no"?>
<!DOCTYPE svg PUBLIC "-//W3C//DTD SVG 1.1//EN" "http://www.w3.org/Graphics/SVG/1.1/DTD/svg11.dtd" >
<svg xmlns="http://www.w3.org/2000/svg" xmlns:xlink="http://www.w3.org/1999/xlink" version="1.1" viewBox="-10 0 718 1000">
   <path fill="currentColor"
d="M304 540l60 -117l226 -226q11 6 17.5 11t16 14.5t15.5 17.5l11 17l-226 226l-118 60zM0 843l113 -444l237 -236l24 -5q30 -5 60 -5q43 0 81 10l-206 205l-150 77l-33 178l52 52q25 25 46 45l176 -33l78 -150l208 -209q9 31 11 64q2 27 -2 54q-2 19 -7 37l-4 14l-236 237
l-445 113z" />
</svg>
