<?xml version="1.0" standalone="no"?>
<!DOCTYPE svg PUBLIC "-//W3C//DTD SVG 1.1//EN" "http://www.w3.org/Graphics/SVG/1.1/DTD/svg11.dtd" >
<svg xmlns="http://www.w3.org/2000/svg" xmlns:xlink="http://www.w3.org/1999/xlink" version="1.1" viewBox="-11 0 878 1000">
   <path fill="currentColor"
d="M714 714q0 -29 -21 -50t-50 -21t-50 21t-22 50t22 50t50 22t50 -22t21 -50zM286 286q0 -29 -21 -51t-51 -21t-50 21t-21 51t21 50t50 21t51 -21t21 -50zM857 714q0 89 -63 152t-151 63t-152 -63t-62 -152t62 -151t152 -63t151 63t63 151zM804 107q0 11 -8 21l-589 786
q-11 15 -28 15h-90q-14 0 -25 -11t-10 -25q0 -11 7 -21l589 -786q11 -15 29 -15h89q14 0 25 11t11 25zM429 286q0 88 -63 151t-152 63t-151 -63t-63 -151t63 -152t151 -63t152 63t63 152z" />
</svg>
