<?xml version="1.0" standalone="no"?>
<!DOCTYPE svg PUBLIC "-//W3C//DTD SVG 1.1//EN" "http://www.w3.org/Graphics/SVG/1.1/DTD/svg11.dtd" >
<svg xmlns="http://www.w3.org/2000/svg" xmlns:xlink="http://www.w3.org/1999/xlink" version="1.1" viewBox="-10 0 1065 1000">
   <path fill="currentColor"
d="M964 117q31 31 52 74t27 109t-12 137t-74 163t-149 185q-237 237 -454 237q-134 0 -215 -81l-93 -93q-46 -46 -46 -111t46 -110l83 -83q46 -46 110 -46t110 46l72 71l218 -216l-73 -72q-46 -47 -46 -111t46 -111l83 -82q45 -45 110.5 -45t110.5 45zM640 179
q-15 15 -15 37t15 37l56 56l157 -156l-57 -56q-15 -15 -36.5 -15t-36.5 15zM119 774l57 56l157 -156l-58 -56q-15 -15 -36 -15t-36 15l-84 82q-15 15 -15 37t15 37zM734 712q81 -82 130 -159t64 -133t11 -105t-17 -78t-32 -47l-156 157l15 15q15 15 15 37t-15 36l-291 292
q-15 15 -37 15t-37 -15l-15 -17l-156 158q50 50 141 50q174 0 380 -206z" />
</svg>
