<?xml version="1.0" standalone="no"?>
<!DOCTYPE svg PUBLIC "-//W3C//DTD SVG 1.1//EN" "http://www.w3.org/Graphics/SVG/1.1/DTD/svg11.dtd" >
<svg xmlns="http://www.w3.org/2000/svg" xmlns:xlink="http://www.w3.org/1999/xlink" version="1.1" viewBox="-10 0 877 1000">
   <path fill="currentColor"
d="M714 666q0 -6 -1 -9t-10 -9l-22 -14q-13 -8 -27 -15t-25 -14t-16 -9q-3 -1 -11 -7t-14 -8t-11 -3q-9 0 -21 12t-22 25t-21 25t-19 11q-4 0 -9 -2t-9 -3t-9 -6t-8 -4q-55 -31 -95 -71t-71 -95l-5 -8q-4 -6 -5 -9t-4 -9t-2 -9q0 -8 12 -19t25 -22t25 -22t11 -20
q0 -6 -2 -12t-9 -14t-7 -10l-8 -16q-6 -12 -14 -25t-15 -27t-14 -23t-9 -10t-9 -1q-27 0 -56 13q-26 11 -45 52t-19 73q0 9 1 19t3 17l5 18q3 11 6 17t7 18l6 17q33 92 121 179t178 121q4 1 17 6l19 7l16 5q10 3 19 5t17 3l19 2q31 0 72 -19t53 -45q12 -30 12 -56zM857 232
v536q0 66 -47 113t-114 48h-535q-67 0 -114 -48t-47 -113v-536q0 -66 47 -113t114 -48h535q67 0 114 48t47 113z" />
</svg>
