<?xml version="1.0" standalone="no"?>
<!DOCTYPE svg PUBLIC "-//W3C//DTD SVG 1.1//EN" "http://www.w3.org/Graphics/SVG/1.1/DTD/svg11.dtd" >
<svg xmlns="http://www.w3.org/2000/svg" xmlns:xlink="http://www.w3.org/1999/xlink" version="1.1" viewBox="-11 0 1010 1000">
   <path fill="currentColor"
d="M0 235q0 -50 28 -76l138 -138q45 -37 77 13l113 211q18 39 -14 71l-51 52q-5 6 -5 14q25 98 132 195l67 64q36 34 34 26t41 25t40 14q20 6 27 -2l61 -60q39 -30 72 -12l203 121q22 14 25 37t-13 39l-141 139q-27 27 -74 27q-140 -4 -318 -121q-258 -185 -375 -406
q-72 -151 -67 -233z" />
</svg>
