<?xml version="1.0" standalone="no"?>
<!DOCTYPE svg PUBLIC "-//W3C//DTD SVG 1.1//EN" "http://www.w3.org/Graphics/SVG/1.1/DTD/svg11.dtd" >
<svg xmlns="http://www.w3.org/2000/svg" xmlns:xlink="http://www.w3.org/1999/xlink" version="1.1" viewBox="-10 0 908 1000">
   <path fill="currentColor"
d="M566 295l-22 -23q-23 -22 -23 -55t23 -55l82 -84q23 -22 55 -22t55 22l24 24zM216 600l23 22l-193 194l-23 -23q-23 -22 -23 -55t23 -56l82 -82q23 -23 56 -23t55 23zM830 172q10 10 23 28t26 70t6 113t-60 154t-151 193q-214 214 -399 214q-101 0 -159 -58l-18 -17
l193 -194l34 33q18 18 36 0l292 -291q7 -7 7 -18t-7 -18l-34 -34l192 -194z" />
</svg>
