<?xml version="1.0" standalone="no"?>
<!DOCTYPE svg PUBLIC "-//W3C//DTD SVG 1.1//EN" "http://www.w3.org/Graphics/SVG/1.1/DTD/svg11.dtd" >
<svg xmlns="http://www.w3.org/2000/svg" xmlns:xlink="http://www.w3.org/1999/xlink" version="1.1" viewBox="-11 0 821 1000">
   <path fill="currentColor"
d="M461 560q162 -162 118 -206l-8 -8q-30 -30 -41 -48t-4 -54t49 -88q20 -24 37 -39t35 -16t30 -1t29 13l24 18q7 5 26 25l21 22q48 48 -6 194t-204 295t-295 204t-193 7l-23 -22q-21 -20 -25 -25l-18 -24q-14 -19 -13 -31l2 -30q1 -18 15 -35t38 -37q42 -34 70 -47t54 -2
t35 18t39 37q44 44 208 -120z" />
</svg>
