<?xml version="1.0" standalone="no"?>
<!DOCTYPE svg PUBLIC "-//W3C//DTD SVG 1.1//EN" "http://www.w3.org/Graphics/SVG/1.1/DTD/svg11.dtd" >
<svg xmlns="http://www.w3.org/2000/svg" xmlns:xlink="http://www.w3.org/1999/xlink" version="1.1" viewBox="-11 0 807 1000">
   <path fill="currentColor"
d="M786 692q0 15 -6 39t-12 38q-11 28 -68 60q-52 28 -103 28q-15 0 -30 -2t-32 -7l-26 -8l-59 -21q-54 -20 -97 -47q-71 -44 -148 -120t-120 -148q-27 -43 -46 -97l-10 -28q-8 -23 -12 -31t-8 -26l-7 -32q-3 -14 -2 -29q0 -52 29 -104q31 -57 59 -68q14 -6 38 -12t39 -6
q8 0 12 2q10 3 30 42l16 31q10 20 20 35t17 30q2 2 10 14t12 20t4 16q0 11 -16 27t-35 31t-34 30t-16 25q0 5 3 13l4 11q1 3 8 14t7 10q42 77 97 132t131 97q1 0 10 6t14 8l11 5q6 3 13 2q10 0 25 -16t30 -34t31 -35t28 -16q7 0 15 4t20 12t14 10l96 54q39 19 42 29
q2 4 2 12z" />
</svg>
