<?xml version="1.0" standalone="no"?>
<!DOCTYPE svg PUBLIC "-//W3C//DTD SVG 1.1//EN" "http://www.w3.org/Graphics/SVG/1.1/DTD/svg11.dtd" >
<svg xmlns="http://www.w3.org/2000/svg" xmlns:xlink="http://www.w3.org/1999/xlink" version="1.1" viewBox="-10 0 940 1000">
   <path fill="currentColor"
d="M250 90q10 12 158 144l-396 362q-12 -48 -12 -96q0 -130 67 -240t183 -170zM650 80v278l-328 -296q64 -22 138 -22q98 0 190 40zM720 120q94 64 147 165t53 215q0 80 -26 152h-174v-532zM34 670q12 -12 66 -60l102 -92v362q-116 -80 -168 -210zM272 920v-198h590
q-56 100 -151 163t-209 75h-84q-84 -10 -146 -40z" />
</svg>
