<?xml version="1.0" standalone="no"?>
<!DOCTYPE svg PUBLIC "-//W3C//DTD SVG 1.1//EN" "http://www.w3.org/Graphics/SVG/1.1/DTD/svg11.dtd" >
<svg xmlns="http://www.w3.org/2000/svg" xmlns:xlink="http://www.w3.org/1999/xlink" version="1.1" viewBox="-10 0 948 1000">
   <path fill="currentColor"
d="M474 0q-37 0 -80 7q-26 4 -77 15l377 343l-5 -301q-59 -35 -115 -50q-49 -14 -100 -14zM239 56q-76 53 -126 110q-46 53 -72 110q-23 51 -33 111q-8 47 -8 110q0 20 3 110l416 -382zM759 111l3 558l142 -5q32 -125 20 -231q-10 -95 -56 -179q-39 -71 -109 -143zM190 524
l-169 163q31 71 62 119q26 41 57 71q19 20 53 47zM278 729l-2 244q171 43 294 18q108 -21 187 -95q62 -58 121 -165z" />
</svg>
