<?xml version="1.0" standalone="no"?>
<!DOCTYPE svg PUBLIC "-//W3C//DTD SVG 1.1//EN" "http://www.w3.org/Graphics/SVG/1.1/DTD/svg11.dtd" >
<svg xmlns="http://www.w3.org/2000/svg" xmlns:xlink="http://www.w3.org/1999/xlink" version="1.1" viewBox="-10 0 1021 1000">
   <path fill="currentColor"
d="M0 500q2 -141 76 -259t196 -180l189 170l-443 398q-18 -66 -18 -129zM35 684l207 -186v426q-144 -92 -207 -240zM295 951v-236h654q-58 117 -167 191t-237 86q-135 10 -250 -41zM324 37q94 -31 176 -31q107 0 205 45v330zM760 662v-584q111 71 176 183t64 239
q0 86 -29 162h-211z" />
</svg>
