<?xml version="1.0" standalone="no"?>
<!DOCTYPE svg PUBLIC "-//W3C//DTD SVG 1.1//EN" "http://www.w3.org/Graphics/SVG/1.1/DTD/svg11.dtd" >
<svg xmlns="http://www.w3.org/2000/svg" xmlns:xlink="http://www.w3.org/1999/xlink" version="1.1" viewBox="-11 0 1021 1000">
   <path fill="currentColor"
d="M856 332h-100l-124 -150l-214 150h-180q-52 0 -90 39t-38 91v160l-108 -296q-10 -38 22 -52l680 -248q36 -10 50 24zM962 422q16 0 27 12t11 28v472q0 16 -11 28t-27 12h-724q-16 0 -27 -12t-11 -28v-472q0 -16 11 -28t27 -12h724zM906 874v-162l-72 -160l-166 60
l-130 132l-138 -170l-92 214v86h598z" />
</svg>
