<?xml version="1.0" standalone="no"?>
<!DOCTYPE svg PUBLIC "-//W3C//DTD SVG 1.1//EN" "http://www.w3.org/Graphics/SVG/1.1/DTD/svg11.dtd" >
<svg xmlns="http://www.w3.org/2000/svg" xmlns:xlink="http://www.w3.org/1999/xlink" version="1.1" viewBox="-10 0 1380 1000">
   <path fill="currentColor"
d="M1360 1v1000h-1360v-1000h1360zM120 881h1120v-760h-1120v760zM1120 321q0 33 -23 56t-57 24t-56 -24t-24 -56t24 -57t56 -23t57 23t23 57zM1163 794q2 1 1 4t-4 3h-956q-4 0 -4 -4v-2q18 -36 135 -280t144 -299q1 -2 4 -3t3 2l311 386l152 -122h7l1 2q39 50 102 155
t104 158z" />
</svg>
