<?xml version="1.0" standalone="no"?>
<!DOCTYPE svg PUBLIC "-//W3C//DTD SVG 1.1//EN" "http://www.w3.org/Graphics/SVG/1.1/DTD/svg11.dtd" >
<svg xmlns="http://www.w3.org/2000/svg" xmlns:xlink="http://www.w3.org/1999/xlink" version="1.1" viewBox="-10 0 1306 1000">
   <path fill="currentColor"
d="M1286 0q-39 26 -70 51t-50 45t-33 40t-21 32t-12 25t-8 17q-5 10 -20 76t-27 92q-8 16 -28 34t-37 28t-41 23l-27 15q-26 17 -84 129q-190 -8 -351 88q-52 30 -169 100l48 -17q22 -8 30 -12l9 -4q39 -15 91 -36l74 -30q22 -9 60 -19t80 -18q104 -17 259 4q1 0 6.5 2.5
t7.5 8.5t-2 12l-108 193q-9 16 -26 12q-72 -13 -198 -13q-81 0 -224 25t-219 26q-46 0 -83 -8t-60 -20t-34 -23t-18 -19h-1v-1q0 -4 3 -4q77 0 207 -30q108 -205 209 -293t214 -88h9q6 0 21 3t30 7t35 13t35 23t30 32t22 46l57 -98q1 -3 12 -24l25 -48q14 -27 34 -61t47 -75
t56 -76q37 -46 71 -79t68 -54t52 -30t49 -22z" />
</svg>
