<?xml version="1.0" standalone="no"?>
<!DOCTYPE svg PUBLIC "-//W3C//DTD SVG 1.1//EN" "http://www.w3.org/Graphics/SVG/1.1/DTD/svg11.dtd" >
<svg xmlns="http://www.w3.org/2000/svg" xmlns:xlink="http://www.w3.org/1999/xlink" version="1.1" viewBox="-10 0 1147 1000">
   <path fill="currentColor"
d="M682 518q42 -1 80 12t66 32t56 53t47 60t42 68q19 31 44 61t42 44t55 50q-26 17 -60 32t-77 33t-64 26q-25 -20 -41 -64t-25 -92t-18 -100t-24 -94t-40 -69t-69 -27l-5 1l-3 2q2 3 7 8q3 3 15 13t15 12t10 11t10 11t7 12l6 15q2 5 2 17t2 23l1 18q0 15 -2 32t-4 29t-7 33
t-6 30q-20 -1 -56 5t-55 6q-22 0 -40 -6q-1 -9 -1 -26q0 -41 1 -54q1 -7 18 -23t32 -33t14 -28q-13 -1 -24 13q-20 30 -62 56t-76 25q-14 0 -42 -35t-60 -78t-46 -53q-4 -3 -15 -17q-269 62 -287 62q-9 0 -15 -6t-6.5 -14.5t4.5 -15.5t12 -8l271 -59q-4 -8 -4 -14t3 -10
t9 -6l11 -4q5 -2 13 -2t10 -3q3 0 9 -4t10 -4q8 0 15 9t11 19q91 -21 96 -21q10 0 17 6t7 15t-5 15t-13 8l-102 22v9q-1 15 45 66t59 51q26 0 66 -45t40 -72q0 -20 -13 -29t-28 -11t-29 -6t-13 -19q0 -9 6 -19l-38 -11q24 -24 24 -65q0 -14 -3 -32q46 -9 80 -9q25 0 40 1
t27 4t18 8t11 14t9 18t9 27t14 33l27 -14q-1 23 -12 34t-24 12t-22 3t-10 12zM715 387q-2 -3 -7 -8t-7 -9t-6 -6t-5 -6l-5 -4l-4 -4q-4 -4 -5 -3t-5 -3q-4 -1 -8 -3t-11 -1t-12 0h-40q-70 0 -121 24q9 -17 20 -26t31 -17t36 -20l26 -20q10 -8 28 -31t24 -28q7 5 16 18t18 20
t21 7h6v42l13 1q138 -53 207 -106l28 -22q13 -10 23 -21t19 -17t16 -19t14 -18t13 -20t13 -21t15 -27t17 -30l4 -5q-2 30 -24 78q-45 92 -115 147t-171 80l-51 9q-12 2 -22 8q2 10 14 26t12 18q0 7 -15 17zM592 901q22 -14 74 -26t81 -12q5 0 13 8t15 24t15 28t13 29t8 18
q-67 25 -136 25q-34 0 -69 -6zM459 540l27 -7l60 99l-40 27zM738 829q2 8 2 10t-10 7t-25 7t-31 5t-29 4t-18 3l-4 -24q12 -1 34 -5t40 -5l34 -2h7zM483 478l-53 11l-4 -9l19 -4q13 -3 19 -3q10 0 19 5zM592 832h17l6 46l-23 7v-53zM1088 1v-1v1zM1088 1v2l-1 1v-1zM1088 1
l1 -1z" />
</svg>
