<?xml version="1.0" standalone="no"?>
<!DOCTYPE svg PUBLIC "-//W3C//DTD SVG 1.1//EN" "http://www.w3.org/Graphics/SVG/1.1/DTD/svg11.dtd" >
<svg xmlns="http://www.w3.org/2000/svg" xmlns:xlink="http://www.w3.org/1999/xlink" version="1.1" viewBox="-10 0 906 1000">
   <path fill="currentColor"
d="M856 296q30 30 30 73t-30 75q-16 16 -36 24q-106 51 -144 125q-51 102 -51 246q0 45 -29 74t-75.5 29.5t-74.5 -29.5l-167 -169l-279 199l199 -279l-169 -168q-20 -18 -27 -49t5 -64q27 -65 96 -65q146 0 246 -50l11 -7q69 -37 118 -141q7 -20 21 -34q30 -30 74 -29
t74 31zM583 546q53 -107 196 -175l-205 -211q-69 146 -176 200l-13 6q-120 57 -281 57l416 416q0 -168 63 -293z" />
</svg>
