<?xml version="1.0" standalone="no"?>
<!DOCTYPE svg PUBLIC "-//W3C//DTD SVG 1.1//EN" "http://www.w3.org/Graphics/SVG/1.1/DTD/svg11.dtd" >
<svg xmlns="http://www.w3.org/2000/svg" xmlns:xlink="http://www.w3.org/1999/xlink" version="1.1" viewBox="-10 0 1020 1000">
   <path fill="currentColor"
d="M0 500q4 -213 150 -356t350 -144q219 4 358 149t142 351q-4 211 -150 354t-350 146q-70 0 -141 -21q14 -22 28 -49q15 -34 39 -125q6 -26 17 -69q14 24 47 43q88 41 186 -8q101 -58 140 -181q36 -129 -8 -239t-158 -160q-142 -41 -277 9t-187 171q-14 45 -17 89t3 86
t29 75t63 51q9 4 16 0t15 -31t6 -38l-8 -13q-41 -67 -27 -140t60 -124q72 -64 169 -70t165 53q37 42 48 103t0 116t-38 105q-49 76 -115 78q-39 -2 -64 -30t-14 -66q3 -21 23 -84t22 -94q-6 -74 -69 -76q-49 6 -72 44t-26 87q6 57 18 78q-21 88 -33 141q-4 14 -22 84
t-19 107v55q-139 -64 -219 -187t-80 -270z" />
</svg>
