<?xml version="1.0" standalone="no"?>
<!DOCTYPE svg PUBLIC "-//W3C//DTD SVG 1.1//EN" "http://www.w3.org/Graphics/SVG/1.1/DTD/svg11.dtd" >
<svg xmlns="http://www.w3.org/2000/svg" xmlns:xlink="http://www.w3.org/1999/xlink" version="1.1" viewBox="-11 0 960 1000">
   <path fill="currentColor"
d="M469 969q-194 0 -331 -138t-138 -331t138 -332t331 -137t331 137t138 332t-138 331t-331 138zM469 135q-151 0 -258 107t-107 258t107 258t258 107t258 -107t107 -258t-107 -258t-258 -107zM486 291q75 0 123 46t49 109q0 80 -41 133t-106 53q-21 0 -40 -10t-26 -24
q-1 -1 -2 3t-2 12l-3 19q-2 11 -7 27t-12 31l-17 35q-10 20 -24 36q-3 2 -5 2t-2 -3q-11 -48 2 -104l33 -146q-8 -19 -8 -44q0 -30 15 -50t37 -20q36 0 36 41q0 15 -10 51t-13 45q-5 22 8 37t34 15q38 0 62 -42t24 -102q0 -45 -30 -74t-82 -30q-60 0 -97 38t-37 92
q0 31 19 53q4 6 4 17t-6 21t-13 5q-56 -22 -56 -103q0 -64 51 -117t142 -52z" />
</svg>
