<?xml version="1.0" standalone="no"?>
<!DOCTYPE svg PUBLIC "-//W3C//DTD SVG 1.1//EN" "http://www.w3.org/Graphics/SVG/1.1/DTD/svg11.dtd" >
<svg xmlns="http://www.w3.org/2000/svg" xmlns:xlink="http://www.w3.org/1999/xlink" version="1.1" viewBox="-11 0 799 1000">
   <path fill="currentColor"
d="M320 660q-26 130 -58 211t-96 129q-6 -74 -7 -120t11 -110t22 -104t26 -99t24 -99q-24 -52 -19 -116t48 -106t99 -20q40 16 44 59t-13 95t-32 103t-4 90t63 49q68 14 121 -38t74 -131t11 -163t-54 -128q-62 -64 -151 -70t-163 33t-120 117t-32 170q4 22 22 52t21 47
t-17 67q-146 -34 -140 -230q4 -138 105 -234t233 -112q164 -18 290 57t144 219q26 176 -66 317t-252 129q-22 -2 -42 -9t-30 -13t-31 -21t-31 -21z" />
</svg>
