<?xml version="1.0" standalone="no"?>
<!DOCTYPE svg PUBLIC "-//W3C//DTD SVG 1.1//EN" "http://www.w3.org/Graphics/SVG/1.1/DTD/svg11.dtd" >
<svg xmlns="http://www.w3.org/2000/svg" xmlns:xlink="http://www.w3.org/1999/xlink" version="1.1" viewBox="-10 0 878 1000">
   <path fill="currentColor"
d="M857 500q0 117 -57 215t-156 156t-215 58q-62 0 -122 -18q33 -52 43 -92q6 -19 31 -118q11 22 40 38t64 16q68 0 121 -38t82 -105t29 -151q0 -64 -34 -120t-96 -90t-142 -36q-59 0 -110 17t-86 43t-61 61t-37 72t-12 75q0 58 22 102t66 62q16 7 21 -11l4 -17q3 -13 5 -17
q3 -13 -6 -24q-29 -34 -29 -84q0 -84 58 -145t153 -61q84 0 132 46t47 119q0 95 -39 161t-98 67q-34 0 -54 -25t-13 -58q4 -19 15 -52t17 -57t6 -43q0 -28 -15 -46t-43 -18q-35 0 -59 31t-24 80q0 40 14 68l-55 233q-9 39 -7 99q-115 -51 -186 -157t-71 -236q0 -117 58 -215
t155 -156t216 -58t215 58t156 156t57 215z" />
</svg>
