<?xml version="1.0" standalone="no"?>
<!DOCTYPE svg PUBLIC "-//W3C//DTD SVG 1.1//EN" "http://www.w3.org/Graphics/SVG/1.1/DTD/svg11.dtd" >
<svg xmlns="http://www.w3.org/2000/svg" xmlns:xlink="http://www.w3.org/1999/xlink" version="1.1" viewBox="-10 0 646 1000">
   <path fill="currentColor"
d="M331 96q129 0 212 79t82 186q0 139 -70 229t-180 90q-36 0 -69 -18t-45 -41q-26 107 -32 127q-20 73 -84 153q-7 8 -10 -2q-15 -107 1 -177l59 -254q-15 -28 -15 -72q0 -51 26 -86t64 -34q30 0 46 19t17 50q0 18 -7 45t-18 63l-17 57q-8 36 14 63t60 27q64 0 105 -73
t41 -175q0 -79 -50 -128t-142 -49q-103 0 -166 65t-63 157q0 54 31 91q10 13 7 25q-2 3 -4 14l-3 15q-1 4 -5 13t-8 8t-13 -1q-95 -39 -95 -176q0 -110 89 -200t242 -90z" />
</svg>
