<?xml version="1.0" standalone="no"?>
<!DOCTYPE svg PUBLIC "-//W3C//DTD SVG 1.1//EN" "http://www.w3.org/Graphics/SVG/1.1/DTD/svg11.dtd" >
<svg xmlns="http://www.w3.org/2000/svg" xmlns:xlink="http://www.w3.org/1999/xlink" version="1.1" viewBox="-10 0 734 1000">
   <path fill="currentColor"
d="M0 333q0 -60 21 -113t58 -93t85 -69t103 -44t113 -14q88 0 164 37t123 108t47 160q0 54 -10 105t-34 99t-56 83t-80 58t-106 21q-38 0 -75 -18t-54 -49l-15 63q-10 41 -14 53t-11 40t-15 39t-17 35t-26 44t-35 48l-7 3l-5 -6q-9 -88 -9 -105q0 -51 12 -115t37 -161
l29 -113q-18 -36 -18 -94q0 -47 29 -87t74 -41q34 0 53 23t19 57q0 37 -24 106t-24.5 104.5t24.5 58.5t61 23q31 0 57 -14t44 -38t31 -53t21 -61t11 -62t4 -56q0 -96 -61 -150t-160 -54q-111 0 -186 72t-75 183q0 25 7 48t15 36t15 26t7 17q0 15 -8 40t-21 25l-9 -1
q-29 -9 -51 -31t-34 -53t-18 -60t-6 -60z" />
</svg>
