<?xml version="1.0" standalone="no"?>
<!DOCTYPE svg PUBLIC "-//W3C//DTD SVG 1.1//EN" "http://www.w3.org/Graphics/SVG/1.1/DTD/svg11.dtd" >
<svg xmlns="http://www.w3.org/2000/svg" xmlns:xlink="http://www.w3.org/1999/xlink" version="1.1" viewBox="-10 0 979 1000">
   <path fill="currentColor"
d="M898 81q59 59 60 153t-63 146q-53 41 -190 92l83 84q15 15 15 37t-15 37t-36.5 15t-36.5 -15l-15 -15l-273 272q-31 32 -79 50q-1 2 -29 11t-77 20t-91 11q-78 0 -114 -37q-24 -23 -32 -64t-3 -81t14 -79t17 -61l9 -25q19 -47 51 -80l273 -272l-16 -15q-15 -15 -15 -37
t15 -37t37 -15t36 15l85 85q53 -140 92 -190q51 -65 147 -65q91 0 151 60zM111 869q24 20 135 -8l-126 -126q-28 111 -9 134zM302 843q34 -12 51 -30l273 -272l-186 -186l-273 272q-15 15 -30 50z" />
</svg>
