<?xml version="1.0" standalone="no"?>
<!DOCTYPE svg PUBLIC "-//W3C//DTD SVG 1.1//EN" "http://www.w3.org/Graphics/SVG/1.1/DTD/svg11.dtd" >
<svg xmlns="http://www.w3.org/2000/svg" xmlns:xlink="http://www.w3.org/1999/xlink" version="1.1" viewBox="-10 0 670 1000">
   <path fill="currentColor"
d="M300 25q-41 0 -70.5 29.5t-29.5 70.5t29.5 70.5t70.5 29.5t70.5 -29.5t29.5 -70.5t-29.5 -70.5t-70.5 -29.5zM13 225l25 100q6 24 18 35q10 10 27 13q10 2 34 2h83q13 22 18 57q2 21 3 69t4 74h-45q-28 0 -54 17q-30 19 -39 50q-10 37 13 83l75 150q17 35 40 45
q20 9 37.5 -1t24.5 -30.5t-2 -38.5l-75 -150q-8 -16 4 -22q6 -3 21 -3h123l18 37q23 46 47 87q33 57 64 97q29 38 27 36q17 20 30 30q17 13 32 13t29 -13t15 -32q1 -23 -20 -48q-63 -75 -102 -148q-38 -70 -38 -109q0 -48 -7 -121q-7 -80 -18 -129h75l63 125q13 23 34 31
t37 -1t16 -30q0 -19 -7 -34l-80 -166q-7 -12 -13 -17q-13 -8 -37 -8h-388l-37 -125q-7 -24 -28.5 -33t-40.5 0t-19 33q0 11 2 26q2 10 6 26z" />
</svg>
