<?xml version="1.0" standalone="no"?>
<!DOCTYPE svg PUBLIC "-//W3C//DTD SVG 1.1//EN" "http://www.w3.org/Graphics/SVG/1.1/DTD/svg11.dtd" >
<svg xmlns="http://www.w3.org/2000/svg" xmlns:xlink="http://www.w3.org/1999/xlink" version="1.1" viewBox="-11 0 856 1000">
   <path fill="currentColor"
d="M808 578q35 20 24 59t-50 39q-4 0 -14 -3l-273 -77v231l85 68q29 25 16 59t-48 35q-10 0 -20 -4l-111 -45l-110 45q-18 7 -37 1t-28 -24q-10 -16 -7 -35t19 -32l85 -68v-231l-272 77q-19 5 -37 -3t-26 -27t-1 -36t24 -29l312 -178v-310q0 -33 23 -56t55 -23t55 23t23 56
v310zM417 102q11 0 18 -7t8 -19q0 -25 -25.5 -25t-25.5 25.5t25 25.5z" />
</svg>
