<?xml version="1.0" standalone="no"?>
<!DOCTYPE svg PUBLIC "-//W3C//DTD SVG 1.1//EN" "http://www.w3.org/Graphics/SVG/1.1/DTD/svg11.dtd" >
<svg xmlns="http://www.w3.org/2000/svg" xmlns:xlink="http://www.w3.org/1999/xlink" version="1.1" viewBox="-10 0 1064 1000">
   <path fill="currentColor"
d="M963 487q51 29 71 86t-3.5 111t-76.5 80t-111 9l-140 -40v44l46 36q47 38 57 97t-22.5 110t-90.5 67t-111 -11q-26 -10 -60 -10q-15 0 -31 2t-23 5l-7 3q-54 27 -112 11t-90 -66.5t-22 -110.5t56 -97l46 -36v-44l-140 40q-57 16 -110 -9t-76 -80t-4 -111t70 -86l260 -148
v-250q0 -75 54 -128t129 -54t128 54t53 128v250zM934 643q8 -17 2 -36t-24 -29l-313 -179v-310q0 -32 -23 -55t-54 -23t-55 23t-24 55v310l-312 179q-17 9 -23 28t1 37t25 26t37 4l272 -77v231l-85 68q-16 12 -19 33t8 37t30 21t37 -4q44 -20 108 -20q29 0 55 5t39 10l12 5
q18 10 38 4t30 -21t7 -37t-19 -33l-85 -68v-231l273 77q19 5 37 -4t25 -26zM496 77q0 -26 25.5 -26t25.5 25.5t-25.5 25.5t-25.5 -25z" />
</svg>
