<?xml version="1.0" standalone="no"?>
<!DOCTYPE svg PUBLIC "-//W3C//DTD SVG 1.1//EN" "http://www.w3.org/Graphics/SVG/1.1/DTD/svg11.dtd" >
<svg xmlns="http://www.w3.org/2000/svg" xmlns:xlink="http://www.w3.org/1999/xlink" version="1.1" viewBox="-10 0 1070 1000">
   <path fill="currentColor"
d="M0 613q10 -139 168 -173q12 -89 43 -192t71 -146q48 -49 120 -76t146 -26q86 0 164 39t117 110q19 36 42 130t30 155q15 6 34 6q30 0 30 -29q0 -11 -6 -34t-5 -35v-4h1q27 0 61 51.5t34 80.5q0 20 -9 35t-19 25t-33 17t-33 11l-44 10v26q0 173 -77 253l25 25l25 12
q21 10 36 18t18 18q-65 51 -132 51q-34 0 -75 -17q-88 37 -180 37q-118 0 -234 -61q-36 8 -55 19q-7 4 -26 18t-37 24t-28 9q-3 -18 -3 -37q0 -79 53 -126q-60 -99 -62 -257l-10 -1q-30 -1 -77 17t-63 19q-4 0 -10 -2zM232 706q0 13 7 27q27 96 89 138q43 29 106 47t117 17
q66 0 146 -28t119 -72q68 -73 68 -257q0 -226 -92 -379l-17 -28q-5 -8 -19 -15t-33 -8q-50 0 -107 61q-76 -47 -140 -47q-59 0 -104 43t-71 104t-42 141t-22 141t-5 115zM413 299q0 -22 16 -38t36 -15q22 0 38 15t15 38t-15 37t-38 15q-21 0 -36 -15t-16 -37zM469 281
q0 12 12 12q5 0 9 -4t3 -8t-3 -9t-9 -4q-12 0 -12 13zM563 341l2 -2l-1 3zM568 336l52 -52l51 52q-22 7 -50.5 7t-52.5 -7zM570 358q27 5 49.5 5t49.5 -5l-49 49zM675 342v-3l1 2zM702 299q0 -22 16 -38t37 -15t38 15t15 38t-15 37t-38 15t-37 -15t-16 -37zM758 281q0 5 4 8
t8.5 3.5t8.5 -3.5t4 -8q0 -13 -13 -13q-5 0 -8 4t-4 9z" />
</svg>
