<?xml version="1.0" standalone="no"?>
<!DOCTYPE svg PUBLIC "-//W3C//DTD SVG 1.1//EN" "http://www.w3.org/Graphics/SVG/1.1/DTD/svg11.dtd" >
<svg xmlns="http://www.w3.org/2000/svg" xmlns:xlink="http://www.w3.org/1999/xlink" version="1.1" viewBox="-10 0 749 1000">
   <path fill="currentColor"
d="M365 786q-151 0 -258 -106t-107 -258h104q0 108 77 184t184 76t184 -76t76 -184h104q0 151 -106 258t-258 106zM678 500q-22 0 -37 -16t-16 -37v-156h-521v156q0 21 -15 37t-36 16t-37 -16t-16 -37v-207q0 -22 16 -37t37 -16h625q21 0 36 16t15 37v207q0 21 -15 37
t-36 16zM260 31h-104v156h104v-156zM260 -22q21 0 37 16t16 37v156q0 21 -16 37t-37 16h-104q-21 0 -37 -16t-15 -37v-156q0 -21 15 -37t37 -16h104zM416 786h-103v130h103v-130zM416 682q44 0 75 31t30 73v130q0 44 -30 74t-75 31h-103q-43 0 -74 -31t-30 -74v-130
q0 -44 30 -74t74 -30h103zM573 31h-104v156h104v-156zM573 -22q21 0 36 16t16 37v156q0 21 -16 37t-36 16h-104q-21 0 -37 -16t-16 -37v-156q0 -21 16 -37t37 -16h104zM678 500h-625q-12 0 -19 -8t-8 -19t8 -18t19 -8h625q25 0 25 26t-25 27zM365 735q-25 0 -52 -7v84h103
v-84q-27 7 -51 7zM209 812v-104h51v104h-51zM469 812v-104h52v104h-52z" />
</svg>
