<?xml version="1.0" standalone="no"?>
<!DOCTYPE svg PUBLIC "-//W3C//DTD SVG 1.1//EN" "http://www.w3.org/Graphics/SVG/1.1/DTD/svg11.dtd" >
<svg xmlns="http://www.w3.org/2000/svg" xmlns:xlink="http://www.w3.org/1999/xlink" version="1.1" viewBox="-10 0 1020 1000">
   <path fill="currentColor"
d="M979 253q21 21 21 50t-21 51l-223 223l83 84l-89 89q-91 91 -217 104t-230 -56l-202 202h-101v-101l202 -202q-69 -103 -56 -230t104 -217l89 -89l84 83l223 -223q21 -21 51 -21t50 21t21 50t-21 51l-223 223l131 131l223 -223q22 -21 51 -21t50 21z" />
</svg>
