<?xml version="1.0" standalone="no"?>
<!DOCTYPE svg PUBLIC "-//W3C//DTD SVG 1.1//EN" "http://www.w3.org/Graphics/SVG/1.1/DTD/svg11.dtd" >
<svg xmlns="http://www.w3.org/2000/svg" xmlns:xlink="http://www.w3.org/1999/xlink" version="1.1" viewBox="-10 0 806 1000">
   <path fill="currentColor"
d="M786 411v107q0 22 -16 38t-38 15h-232v233q0 22 -16 37t-38 16h-107q-22 0 -38 -16t-15 -37v-233h-232q-23 0 -38 -15t-16 -38v-107q0 -23 16 -38t38 -16h232v-232q0 -22 15 -38t38 -16h107q23 0 38 16t16 38v232h232q23 0 38 16t16 38z" />
</svg>
