<?xml version="1.0" standalone="no"?>
<!DOCTYPE svg PUBLIC "-//W3C//DTD SVG 1.1//EN" "http://www.w3.org/Graphics/SVG/1.1/DTD/svg11.dtd" >
<svg xmlns="http://www.w3.org/2000/svg" xmlns:xlink="http://www.w3.org/1999/xlink" version="1.1" viewBox="-11 0 900 1000">
   <path fill="currentColor"
d="M0 559v-119q0 -20 14 -35t35 -14h281v-281q0 -20 15 -35t35 -14h119q20 0 34 14t15 35v281h281q20 0 35 14t14 35v119q0 21 -14 35t-35 15h-281v282q0 20 -15 34t-34 15h-119q-21 0 -35 -15t-15 -34v-282h-281q-20 0 -35 -15t-14 -35z" />
</svg>
