<?xml version="1.0" standalone="no"?>
<!DOCTYPE svg PUBLIC "-//W3C//DTD SVG 1.1//EN" "http://www.w3.org/Graphics/SVG/1.1/DTD/svg11.dtd" >
<svg xmlns="http://www.w3.org/2000/svg" xmlns:xlink="http://www.w3.org/1999/xlink" version="1.1" viewBox="-11 0 879 1000">
   <path fill="currentColor"
d="M679 536v-72q0 -14 -11 -25t-25 -10h-143v-143q0 -15 -11 -25t-25 -11h-71q-15 0 -25 11t-11 25v143h-143q-14 0 -25 10t-10 25v72q0 14 10 25t25 10h143v143q0 15 11 25t25 11h71q15 0 25 -11t11 -25v-143h143q14 0 25 -10t11 -25zM857 500q0 117 -57 215t-156 156
t-215 58t-216 -58t-155 -156t-58 -215t58 -215t155 -156t216 -58t215 58t156 156t57 215z" />
</svg>
