<?xml version="1.0" standalone="no"?>
<!DOCTYPE svg PUBLIC "-//W3C//DTD SVG 1.1//EN" "http://www.w3.org/Graphics/SVG/1.1/DTD/svg11.dtd" >
<svg xmlns="http://www.w3.org/2000/svg" xmlns:xlink="http://www.w3.org/1999/xlink" version="1.1" viewBox="-10 0 807 1000">
   <path fill="currentColor"
d="M643 446v36q0 8 -5 13t-13 5h-196v196q0 8 -5 13t-13 5h-36q-8 0 -13 -5t-5 -13v-196h-196q-8 0 -13 -5t-5 -13v-36q0 -7 5 -12t13 -5h196v-197q0 -8 5 -13t13 -5h36q8 0 13 5t5 13v197h196q8 0 13 5t5 12zM714 696v-464q0 -37 -26 -63t-63 -26h-464q-37 0 -63 26t-27 63
v464q0 37 27 63t63 27h464q37 0 63 -27t26 -63zM786 232v464q0 67 -47 114t-114 47h-464q-67 0 -114 -47t-47 -114v-464q0 -66 47 -113t114 -48h464q66 0 114 48t47 113z" />
</svg>
