<?xml version="1.0" standalone="no"?>
<!DOCTYPE svg PUBLIC "-//W3C//DTD SVG 1.1//EN" "http://www.w3.org/Graphics/SVG/1.1/DTD/svg11.dtd" >
<svg xmlns="http://www.w3.org/2000/svg" xmlns:xlink="http://www.w3.org/1999/xlink" version="1.1" viewBox="-10 0 1157 1000">
   <path fill="currentColor"
d="M2 330q-7 -215 12 -270q4 -9 9 -16t14 -12t14 -10t17 -10t17 -8q136 0 386 -2t329 -2h149q55 0 56 3t45 6t33 10q16 9 27 24t16 29t8 40t2 42t-1 50v50q0 207 -23 327t-96 213q-70 88 -165 140t-193 62t-200 -11t-186 -73t-151 -134t-96 -181q-15 -52 -23 -267zM234 328
q-26 28 15 89t104 124l39 40q37 38 54 52t47 35t57 29q11 3 22 3t20 -1t19 -7t16 -7t16 -12t12 -10t12 -11l3 -3q9 -9 60 -56t86 -81t68 -79t35 -75q-15 -40 -38 -56t-51 -9t-56 26t-59 48t-56 56t-49 51t-37 33q-27 -16 -73 -60t-82 -82t-73 -64t-55 -14q-25 15 -56 41z
" />
</svg>
