<?xml version="1.0" standalone="no"?>
<!DOCTYPE svg PUBLIC "-//W3C//DTD SVG 1.1//EN" "http://www.w3.org/Graphics/SVG/1.1/DTD/svg11.dtd" >
<svg xmlns="http://www.w3.org/2000/svg" xmlns:xlink="http://www.w3.org/1999/xlink" version="1.1" viewBox="-10 0 877 1000">
   <path fill="currentColor"
d="M555 665q0 48 -10 110q-17 120 -30 175q-13 50 -85 50t-85 -50q-13 -55 -31 -175q-9 -61 -9 -110q0 -94 125 -94t125 94zM857 429q0 133 -75 242t-195 156q-4 2 -8 -2t-4 -8q4 -27 6 -37l3 -26q1 -5 5 -7q89 -45 143 -130t54 -187t-51 -186t-138 -131t-188 -41
q-69 4 -132 34t-108 78t-72 113t-26 134q1 103 56 188t143 129q4 2 5 7l4 25q0 5 2 18t4 20q0 5 -4 8t-9 2q-82 -33 -145 -95t-97 -147t-29 -179q4 -79 36 -152t87 -127t125 -88t152 -39q92 -6 176 26t146 90t98 139t36 173zM555 411q0 52 -37 88t-88 37t-89 -37t-36 -88
t36 -89t89 -36t88 36t37 89zM715 429q0 68 -29 127t-82 99q-5 3 -9 1t-6 -8q-3 -29 -16 -51q-4 -6 2 -11q32 -30 51 -71t18 -86q0 -62 -33 -114t-88 -79t-118 -21q-74 9 -128 63t-60 129q-6 52 13 99t55 80q5 5 1 11q-13 23 -16 52q-1 5 -5 7t-9 -1q-53 -41 -83 -102
t-29 -131q2 -73 39 -136t98 -101t135 -42q80 -4 149 34t110 104t40 148z" />
</svg>
