<?xml version="1.0" standalone="no"?>
<!DOCTYPE svg PUBLIC "-//W3C//DTD SVG 1.1//EN" "http://www.w3.org/Graphics/SVG/1.1/DTD/svg11.dtd" >
<svg xmlns="http://www.w3.org/2000/svg" xmlns:xlink="http://www.w3.org/1999/xlink" version="1.1" viewBox="-10 0 885 1000">
   <path fill="currentColor"
d="M311 346h489q27 0 46 19.5t19 45.5v404q0 26 -19 45.5t-46 19.5h-489q-26 0 -45.5 -19.5t-19.5 -45.5v-404q0 -26 19.5 -45.5t45.5 -19.5zM765 440h-419v346h419v-346zM619 259h-101v-44h-417v336h58v95h-93q-27 0 -46.5 -19.5t-19.5 -45.5v-395q0 -27 19.5 -46.5
t46.5 -19.5h488q27 0 46 19.5t19 46.5v73z" />
</svg>
