<?xml version="1.0" standalone="no"?>
<!DOCTYPE svg PUBLIC "-//W3C//DTD SVG 1.1//EN" "http://www.w3.org/Graphics/SVG/1.1/DTD/svg11.dtd" >
<svg xmlns="http://www.w3.org/2000/svg" xmlns:xlink="http://www.w3.org/1999/xlink" version="1.1" viewBox="-10 0 685 1000">
   <path fill="currentColor"
d="M0 15h100l8 121h10l5 -3q79 -133 246 -133q130 0 213 98t82 254q0 93 -27 166t-72 118t-101 67t-117 23q-69 0 -125 -29t-87 -79l-2 -3h-11l-3 7v378h-113v-761q0 -88 -6 -224zM119 428q0 31 6 55q19 70 74 113t126 43q101 0 162 -77t61 -204q0 -119 -61 -194t-157 -75
q-72 0 -128 45t-74 118q-9 33 -9 53v123z" />
</svg>
