<?xml version="1.0" standalone="no"?>
<!DOCTYPE svg PUBLIC "-//W3C//DTD SVG 1.1//EN" "http://www.w3.org/Graphics/SVG/1.1/DTD/svg11.dtd" >
<svg xmlns="http://www.w3.org/2000/svg" xmlns:xlink="http://www.w3.org/1999/xlink" version="1.1" viewBox="-10 0 905 1000">
   <path fill="currentColor"
d="M756 228q129 129 129 313.5t-129 313.5t-313 129t-313.5 -129.5t-129.5 -313t130 -313.5q66 -66 156 -38v-18q0 -65 46 -110t111 -46t110 46t46 110v18q40 -13 83 -3t74 41zM390 172v261q0 22 16 37t37 15t36 -15t16 -37v-261q0 -21 -16 -36t-36 -15t-37 15t-16 36z
M339 371q-9 24 -25 41q-54 54 -54 129t54 129q51 51 129 51t128 -51q54 -54 54 -129t-54 -129q-15 -15 -23 -41v62q0 43 -31 74t-74 30.5t-74 -30.5t-30 -74v-62zM443 776q-95 0 -165 -69t-69.5 -166.5t69.5 -165.5q15 -15 15 -37t-15 -36t-37 -15t-37 15
q-100 100 -100 239.5t99.5 239t240 99.5t239.5 -99t98.5 -239.5t-98.5 -239.5q-15 -15 -37 -15t-37 15t-15 36t15 37q69 68 69 165t-70 167t-165 69z" />
</svg>
