<?xml version="1.0" standalone="no"?>
<!DOCTYPE svg PUBLIC "-//W3C//DTD SVG 1.1//EN" "http://www.w3.org/Graphics/SVG/1.1/DTD/svg11.dtd" >
<svg xmlns="http://www.w3.org/2000/svg" xmlns:xlink="http://www.w3.org/1999/xlink" version="1.1" viewBox="-10 0 905 1000">
   <path fill="currentColor"
d="M729 161q65 0 110 46t46 110v522q0 65 -46 110t-110 46h-573q-65 0 -110 -46t-46 -110v-522q0 -65 46 -110t110 -46v-104q0 -21 16 -36t37 -16h469q21 0 36 16t15 36v104zM260 110v260h365v-260h-365zM156 266q-21 0 -37 15t-15 36v132q0 31 23 54t56 23h520q32 0 55 -23
t23 -54v-132q0 -21 -15 -36t-37 -15v156q0 22 -15 37t-36 15h-469q-21 0 -37 -15t-16 -37v-156zM729 891q21 0 37 -15t15 -37v-288q-36 28 -78 28h-520q-43 0 -79 -28v288q0 21 15 37t37 15h573zM548 266q25 0 25 25.5t-25 25.5h-209q-11 0 -19 -7t-7 -19q0 -25 26 -25h209z
M625 735q11 0 19 7t7 19q0 25 -26 25h-365q-25 0 -25 -25.5t25 -25.5h365zM548 161q25 0 25 26t-25 27h-209q-11 0 -19 -8t-7 -19t7 -18t19 -8h209z" />
</svg>
