<?xml version="1.0" standalone="no"?>
<!DOCTYPE svg PUBLIC "-//W3C//DTD SVG 1.1//EN" "http://www.w3.org/Graphics/SVG/1.1/DTD/svg11.dtd" >
<svg xmlns="http://www.w3.org/2000/svg" xmlns:xlink="http://www.w3.org/1999/xlink" version="1.1" viewBox="-10 0 870 1000">
   <path fill="currentColor"
d="M50 150q-21 0 -35.5 14.5t-14.5 35.5v600q0 21 14.5 35.5t35.5 14.5t35.5 -14.5t14.5 -35.5v-100h150v100q0 21 14.5 35.5t35.5 14.5t35.5 -14.5t14.5 -35.5v-100h150v100q0 21 14.5 35.5t35.5 14.5t35.5 -14.5t14.5 -35.5v-100h150v100q0 21 14.5 35.5t35.5 14.5
t35.5 -14.5t14.5 -35.5v-600q0 -21 -14.5 -35.5t-35.5 -14.5t-35.5 14.5t-14.5 35.5v100h-150v-100q0 -21 -14.5 -35.5t-35.5 -14.5t-35.5 14.5t-14.5 35.5v100h-150v-100q0 -21 -14.5 -35.5t-35.5 -14.5t-35.5 14.5t-14.5 35.5v100h-150v-100q0 -21 -14.5 -35.5
t-35.5 -14.5zM100 400h150v200h-150v-200zM350 400h150v200h-150v-200zM600 400h150v200h-150v-200z" />
</svg>
