<?xml version="1.0" standalone="no"?>
<!DOCTYPE svg PUBLIC "-//W3C//DTD SVG 1.1//EN" "http://www.w3.org/Graphics/SVG/1.1/DTD/svg11.dtd" >
<svg xmlns="http://www.w3.org/2000/svg" xmlns:xlink="http://www.w3.org/1999/xlink" version="1.1" viewBox="-10 0 1020 1000">
   <path fill="currentColor"
d="M900 50q42 0 71 30t29 70v600q0 42 -29 71t-71 29h-198v-98h200v-462h-802v462h200v98h-200q-40 0 -70 -29t-30 -71v-600q0 -40 30 -70t70 -30h800zM130 218q38 0 38 -38q0 -16 -11 -26t-27 -10t-27 11t-11 26t11 26t27 11zM230 218q38 0 38 -38q0 -16 -11 -26t-27 -10
t-27 11t-11 26t11 26t27 11zM902 212v-62h-602v62h602zM498 410l242 240h-150v300h-184v-300h-150z" />
</svg>
