<?xml version="1.0" standalone="no"?>
<!DOCTYPE svg PUBLIC "-//W3C//DTD SVG 1.1//EN" "http://www.w3.org/Graphics/SVG/1.1/DTD/svg11.dtd" >
<svg xmlns="http://www.w3.org/2000/svg" xmlns:xlink="http://www.w3.org/1999/xlink" version="1.1" viewBox="-10 0 949 1000">
   <path fill="currentColor"
d="M929 613q0 45 -25 75t-69 30q-23 0 -43 -10t-33 -21t-32 -21t-39 -10q-62 0 -62 69q0 22 9 65t8 64v3h-18q-19 2 -54 7t-65 7t-54 3q-35 0 -58 -15t-23 -47q0 -20 9 -39t22 -32t21 -33t10 -43q0 -44 -31 -69t-75 -25q-47 0 -80 26t-33 71q0 24 9 46t18 36l19 30
q10 16 8 28q0 25 -25 50q-21 19 -65 19q-54 0 -137 -13q-5 -1 -16 -2t-15 -3l-9 -1q-1 0 -1 -1v-571l10 2q9 2 19 2t12 2q83 14 137 14q44 0 65 -20q25 -24 25 -49q0 -13 -8 -29t-19 -29t-18 -36t-9 -47q0 -45 33 -71t81 -25q44 0 74 25t31 69q0 23 -10 43t-21 33t-22 31
t-9 40q0 32 23 47t58 14.5t100 -8.5t91 -9v1q-1 1 -2 9l-5 31q-13 84 -13 137q0 45 19 65q25 26 50 26q12 0 28 -8t30 -19t36 -19t46 -8q46 0 71 33t26 80z" />
</svg>
