<?xml version="1.0" standalone="no"?>
<!DOCTYPE svg PUBLIC "-//W3C//DTD SVG 1.1//EN" "http://www.w3.org/Graphics/SVG/1.1/DTD/svg11.dtd" >
<svg xmlns="http://www.w3.org/2000/svg" xmlns:xlink="http://www.w3.org/1999/xlink" version="1.1" viewBox="-10 0 905 1000">
   <path fill="currentColor"
d="M0 682q0 -81 68 -118q-68 -35 -68 -116v-91q0 -75 54 -129t129 -54h38q7 -77 70 -130t152 -52t151 52t70 130h39q75 0 128 54t54 129v91q0 81 -67 118q67 35 67 116v144q0 75 -54 129t-128 53h-143q-81 0 -117 -67q-35 67 -118 67h-142q-75 0 -129 -53t-54 -129v-144z
M781 826v-144q0 -25 -18 -25q-13 0 -30 12t-43 13q-37 0 -64 -34t-27 -84t27 -82t64 -34q28 0 51 20q9 6 20 6q20 0 20 -26v-91q0 -33 -23 -56t-55 -23h-143q-16 0 -23 -9t3 -31q20 -24 20 -51q0 -38 -34 -64t-83 -26t-84 26t-34 64q0 21 14 44q17 26 11 37t-25 10h-142
q-33 0 -56 23t-23 56v91q0 26 20 26q9 0 29 -13q17 -13 42 -13q38 0 64 34t27 82t-27 84t-64 34q-27 0 -51 -20q-10 -6 -20 -6q-20 0 -20 26v144q0 31 23 54t56 23h142q19 0 24 -10t-10 -37q-14 -20 -14 -44q0 -38 34 -64t84 -26t83 26t34 64q0 27 -20 51q-10 22 -3 31t23 9
h143q32 0 55 -23t23 -54zM104 523v83q6 -3 20 -3q32 0 55 20q7 8 16 8q15 0 28 -20t12 -47t-12 -46t-28 -19q-2 0 -17 8q-29 19 -54 19q-8 0 -20 -3zM763 604q6 0 18 3v-83q-6 3 -20 3q-31 0 -53 -20q-8 -8 -18 -8q-15 0 -27 19t-12 46t12 47t27 20q4 0 19 -8q29 -19 54 -19
zM400 903h84q-13 -41 16 -74q8 -7 8 -17q0 -15 -19 -27t-46 -12t-47 12t-18 27q0 4 7 19q25 36 15 72z" />
</svg>
