<?xml version="1.0" standalone="no"?>
<!DOCTYPE svg PUBLIC "-//W3C//DTD SVG 1.1//EN" "http://www.w3.org/Graphics/SVG/1.1/DTD/svg11.dtd" >
<svg xmlns="http://www.w3.org/2000/svg" xmlns:xlink="http://www.w3.org/1999/xlink" version="1.1" viewBox="-10 0 942 1000">
   <path fill="currentColor"
d="M812 650q30 22 38 53t-12 61q-110 154 -298 187t-344 -77q-24 -16 -38 -30q76 24 148 25t128 -18t101 -43t80 -57t53 -52t28 -35q20 -30 53 -33t63 19zM200 620q14 32 1 61t-46 45t-65 7t-46 -41q-80 -172 -14 -352t238 -260q24 -10 44 -16q-84 76 -123 170t-32 178
t18 130t25 78zM502 40q190 18 312 164t106 336q-4 32 -8 48q-20 -92 -67 -163t-98 -109t-110 -63t-92 -32t-57 -9q-34 -2 -54 -29t-16 -64t26 -59t58 -20zM306 526q16 -38 34 -46v-6q0 -12 8 -24v-2q0 -8 2 -12q4 -50 33 -82t78 -32t79 32t32 82q2 4 2 12v2q8 8 8 24v6
q18 8 34 46q26 54 6 66q-12 6 -30 -22q-6 28 -30 46q26 10 26 25t-18 24t-44 9q-52 0 -60 -26h-8q-12 26 -62 26q-26 0 -44 -9t-18 -24t26 -25q-24 -20 -30 -46q-18 28 -28 22q-22 -10 4 -66z" />
</svg>
