<?xml version="1.0" standalone="no"?>
<!DOCTYPE svg PUBLIC "-//W3C//DTD SVG 1.1//EN" "http://www.w3.org/Graphics/SVG/1.1/DTD/svg11.dtd" >
<svg xmlns="http://www.w3.org/2000/svg" xmlns:xlink="http://www.w3.org/1999/xlink" version="1.1" viewBox="-10 0 1011 1000">
   <path fill="currentColor"
d="M151 450q-5 -11 -5 -29q0 -11 6 -28t14 -25q-1 -12 4 -29t13 -24q0 -78 51 -161t122 -117q77 -37 180 -37q75 0 149 31q27 11 50 26t40 32t30 38t24 41t18 47t14 50t12 55l1 2q31 47 31 84q0 8 -5 23t-5 21v2q0 2 2 2t1 2q43 64 68 120t24 116q0 24 -11 56t-31 32
q-5 0 -11 -4t-10 -10t-11 -14t-9 -15t-7 -15t-5.5 -9t-1.5 -1l-3 2q-33 86 -74 125q12 11 35 21t38 23t20 37q-1 2 -2 9t-4 10q-36 54 -169 54q-29 0 -61 -5t-55 -11t-58 -17l-13 -4q-8 -2 -26 -3t-22 0q-23 25 -71 36t-94 11q-20 0 -39 -1t-52 -5t-56 -11t-42 -23t-18 -35
q0 -23 6 -33t23 -28q6 -1 22 -7t28 -7l8 -1q1 -1 1 -2l-1 -2q-27 -6 -60 -58t-41 -88l-3 -2q-2 0 -7 12q-10 23 -30 41t-43 21h-1q-2 0 -3 -2t-3 -3q-13 -31 -13 -56q0 -154 141 -260z" />
</svg>
