<?xml version="1.0" standalone="no"?>
<!DOCTYPE svg PUBLIC "-//W3C//DTD SVG 1.1//EN" "http://www.w3.org/Graphics/SVG/1.1/DTD/svg11.dtd" >
<svg xmlns="http://www.w3.org/2000/svg" xmlns:xlink="http://www.w3.org/1999/xlink" version="1.1" viewBox="-11 0 879 1000">
   <path fill="currentColor"
d="M491 670v89q0 8 -5 13t-13 5h-89q-8 0 -13 -5t-5 -13v-89q0 -8 5 -13t13 -5h89q8 0 13 5t5 13zM634 393q0 28 -8 50t-26 39t-29 24l-33 20q-18 10 -26 16t-14 13t-7 16v18q0 8 -5 13t-13 5h-89q-8 0 -13 -5t-5 -13v-38q0 -19 6 -36t13 -26t22 -20t23 -14t25 -12
q29 -14 42 -24t12 -27q0 -24 -24 -40t-54.5 -16.5t-52.5 14.5q-16 12 -44 47q-5 6 -14 6q-6 0 -11 -3l-60 -46q-6 -4 -7 -11t3 -13q68 -107 195 -107q72 0 133 50t61 120zM429 143q-73 0 -139 28t-114 76t-76 114t-29 139t29 139t76 113t114 77t139 28t138 -28t114 -77
t76 -113t29 -139t-29 -139t-76 -114t-114 -76t-138 -28zM857 500q0 117 -57 215t-156 156t-215 58t-216 -58t-155 -156t-58 -215t58 -215t155 -156t216 -58t215 58t156 156t57 215z" />
</svg>
