<?xml version="1.0" standalone="no"?>
<!DOCTYPE svg PUBLIC "-//W3C//DTD SVG 1.1//EN" "http://www.w3.org/Graphics/SVG/1.1/DTD/svg11.dtd" >
<svg xmlns="http://www.w3.org/2000/svg" xmlns:xlink="http://www.w3.org/1999/xlink" version="1.1" viewBox="-11 0 950 1000">
   <path fill="currentColor"
d="M429 536v214q0 45 -32 76t-76 31h-214q-44 0 -76 -31t-31 -76v-393q0 -58 23 -111t61 -91t91 -61t111 -23h35q15 0 26 11t10 25v72q0 14 -10 25t-26 10h-35q-59 0 -101 42t-42 101v18q0 22 16 38t37 16h125q45 0 76 31t32 76zM929 536v214q0 45 -32 76t-76 31h-214
q-44 0 -76 -31t-31 -76v-393q0 -58 23 -111t61 -91t91 -61t111 -23h35q15 0 26 11t10 25v72q0 14 -10 25t-26 10h-35q-59 0 -101 42t-42 101v18q0 22 16 38t37 16h125q45 0 76 31t32 76z" />
</svg>
