<?xml version="1.0" standalone="no"?>
<!DOCTYPE svg PUBLIC "-//W3C//DTD SVG 1.1//EN" "http://www.w3.org/Graphics/SVG/1.1/DTD/svg11.dtd" >
<svg xmlns="http://www.w3.org/2000/svg" xmlns:xlink="http://www.w3.org/1999/xlink" version="1.1" viewBox="-10 0 1021 1000">
   <path fill="currentColor"
d="M0 500q0 -207 147 -354t353 -146t354 146t146 354t-146 354t-354 146t-353 -146t-147 -354zM219 699h222v-262h-74q-4 -48 27 -69t88 -34l-21 -100q-39 4 -64 8t-63 18t-60 35t-39 62t-16 96v246zM518 699h222v-262h-74q-4 -48 26 -69t89 -34l-21 -100q-39 4 -65 8
t-62 18t-60 35t-39 62t-16 96v246z" />
</svg>
