<?xml version="1.0" standalone="no"?>
<!DOCTYPE svg PUBLIC "-//W3C//DTD SVG 1.1//EN" "http://www.w3.org/Graphics/SVG/1.1/DTD/svg11.dtd" >
<svg xmlns="http://www.w3.org/2000/svg" xmlns:xlink="http://www.w3.org/1999/xlink" version="1.1" viewBox="-10 0 1020 1000">
   <path fill="currentColor"
d="M0 912v-437q0 -71 15 -129t38 -97t61 -67t72 -45t83 -28t82 -14l81 -7l37 176q-49 9 -81 20t-66 31t-48 53t-10 77h131v467h-395zM529 912v-437q0 -71 16 -129t38 -97t61 -67t72 -45t83 -28t81 -14t81 -7l39 176q-51 9 -83 20t-65 31t-47 53t-12 77h131v467h-395z" />
</svg>
