<?xml version="1.0" standalone="no"?>
<!DOCTYPE svg PUBLIC "-//W3C//DTD SVG 1.1//EN" "http://www.w3.org/Graphics/SVG/1.1/DTD/svg11.dtd" >
<svg xmlns="http://www.w3.org/2000/svg" xmlns:xlink="http://www.w3.org/1999/xlink" version="1.1" viewBox="-10 0 783 1000">
   <path fill="currentColor"
d="M146 170q146 0 184 146q38 140 -40 302q-80 168 -224 204q-32 8 -66 8v-70q112 0 182 -108q54 -86 26 -146q-16 -36 -62 -36q-60 0 -103 -44t-43 -106t43 -106t103 -44zM566 170q146 0 184 146q38 140 -40 302q-80 168 -224 204q-32 8 -66 8v-70q112 0 182 -108
q54 -86 26 -146q-16 -36 -62 -36q-60 0 -103 -44t-43 -106t43 -106t103 -44z" />
</svg>
