<?xml version="1.0" standalone="no"?>
<!DOCTYPE svg PUBLIC "-//W3C//DTD SVG 1.1//EN" "http://www.w3.org/Graphics/SVG/1.1/DTD/svg11.dtd" >
<svg xmlns="http://www.w3.org/2000/svg" xmlns:xlink="http://www.w3.org/1999/xlink" version="1.1" viewBox="-11 0 1020 1000">
   <path fill="currentColor"
d="M0 344q0 -90 64 -154t155 -65q17 0 31 2q43 -61 109 -93q68 -33 141 -33t139.5 32.5t110.5 93.5q13 -2 31 -2q90 0 154 65t64 154t-64 154t-154 65q-42 0 -78 -14q-88 76 -203 76t-203 -76q-37 14 -78 14q-90 0 -155 -65t-64 -154zM187 750q0 -35 63 -125l16 24
q17 26 31 54q15 32 15 47q0 25 -18 44t-44 19t-44 -19t-19 -44zM439 938q0 -35 63 -125l15 23q18 27 32 55q15 32 15 47q0 25 -18 44t-44 18t-44 -18t-19 -44zM687 875q0 -35 63 -125l15 24q18 26 31 54q16 32 16 47q0 25 -18 44t-44 19t-44 -19t-19 -44z" />
</svg>
