<?xml version="1.0" standalone="no"?>
<!DOCTYPE svg PUBLIC "-//W3C//DTD SVG 1.1//EN" "http://www.w3.org/Graphics/SVG/1.1/DTD/svg11.dtd" >
<svg xmlns="http://www.w3.org/2000/svg" xmlns:xlink="http://www.w3.org/1999/xlink" version="1.1" viewBox="-10 0 938 1000">
   <path fill="currentColor"
d="M688 221q92 0 158 66t65 157t-65 158t-158 65h-447q-92 0 -157 -65t-66 -158t66 -157t157 -66l30 3q30 -52 81 -83t111.5 -31.5t113.5 31.5t81 83zM688 556q45 0 78 -33t33 -79t-33 -79t-78 -33t-79 33t-33 79h-112q0 -109 90 -178q-33 -45 -90 -45q-45 0 -78 33t-33 78
q0 22 7 40l-104 38q-15 -36 -15 -75q-44 1 -77 33t-34 76q0 46 33 79t78 33h447zM109 876q-15 15 -37 15t-38 -16t-16 -38t16 -38q9 -9 47 -28t71 -33l34 -14q-56 131 -77 152zM332 876q-15 15 -36 15t-39 -15q-16 -16 -16 -39t16 -38q9 -9 48 -28t72 -33l32 -14
q-55 131 -77 152zM556 876q-16 15 -38 15t-38 -16t-16 -38t16 -38q10 -9 48 -28t71 -33l33 -14q-56 131 -76 152z" />
</svg>
