<?xml version="1.0" standalone="no"?>
<!DOCTYPE svg PUBLIC "-//W3C//DTD SVG 1.1//EN" "http://www.w3.org/Graphics/SVG/1.1/DTD/svg11.dtd" >
<svg xmlns="http://www.w3.org/2000/svg" xmlns:xlink="http://www.w3.org/1999/xlink" version="1.1" viewBox="-11 0 1063 1000">
   <path fill="currentColor"
d="M678 917q-22 0 -37 -16t-16 -36v-313q0 -21 16 -37t37 -16t36 16t15 37v313q0 21 -15 36t-36 16zM365 917q-21 0 -37 -16t-15 -36v-313q0 -21 15 -37t37 -16t36 16t15 37v313q0 21 -15 36t-36 16zM521 1021q-21 0 -37 -16t-15 -37v-312q0 -22 15 -37t37 -15t37 15t15 37
v312q0 22 -15 37t-37 16zM209 708q-86 0 -148 -61t-61 -148q0 -72 44 -128t112 -73v-6q0 -129 92 -221t221 -92q101 0 181 58t113 151q113 -9 196 69t82 191q0 88 -53 157t-137 93q-21 6 -40 -5t-25 -31.5t5 -39.5t32 -24q51 -14 83 -55t32 -95q0 -65 -46 -110t-111 -46
q-22 0 -42 6l-56 16l-9 -57q-14 -75 -71 -124t-134 -50q-86 0 -148 61t-61 148q0 14 5 41l13 63h-74q-40 0 -70 30t-30 73.5t30 74.5t75 30q21 0 36 15t15 37t-15 37t-36 15z" />
</svg>
