<?xml version="1.0" standalone="no"?>
<!DOCTYPE svg PUBLIC "-//W3C//DTD SVG 1.1//EN" "http://www.w3.org/Graphics/SVG/1.1/DTD/svg11.dtd" >
<svg xmlns="http://www.w3.org/2000/svg" xmlns:xlink="http://www.w3.org/1999/xlink" version="1.1" viewBox="-10 0 1224 1000">
   <path fill="currentColor"
d="M638 967q-3 0 -6 -2l-20 -13q-12 -8 -48 -36t-65 -59t-63 -78t-50 -96l-97 -21q36 119 131 202t218 103zM280 629l94 15q-14 -42 -23 -93t-11 -81l-2 -30q-47 46 -67 125q2 37 9 64zM342 289q-24 36 -43 83q24 -26 41 -38zM1143 531q0 -90 -34 -171t-94 -141t-139 -94
t-170 -35q-82 0 -157 30t-134 83q-17 32 -25 89q34 -29 80 -47t88 -24t80 -7t61 0l22 2q18 0 30 9t13 18t4 21t-1 16q-70 -7 -127 -1t-102 25t-79 39t-73 55q2 20 6 52t20 99t34 101q69 3 139 -9t119 -29t91 -38t61 -33l21 -13q12 -9 22 -12t17 3t9 19q8 55 -21 68
q-117 54 -261 75q-75 11 -177 9q23 53 61 98t77 71t73 44t56 25l22 6q80 13 147 -8q109 -55 175 -162t66 -233zM1185 511q-8 75 -23 118q-39 116 -101 193t-178 142q-26 18 -45 24q-41 15 -91 9q-20 2 -41 2q-158 0 -282 -97t-164 -246q-1 0 -3 -1t-2 0q-4 28 1 63t14 64
t21 55t17 40l8 14q4 7 30 46q-40 -21 -69 -59t-44 -79t-22 -76t-10 -60l-1 -24l-76 -28q-19 -7 -32 -14l-27 -14q-14 -7 -24 -15t-14 -14l28 14q18 9 63 25t81 21l1 -18q7 -83 53 -161q23 -113 98 -204q16 -64 45 -119q9 -16 18 -26t27 -17q89 -42 170 -58t168 -7t171 55
q123 64 186 187t49 265z" />
</svg>
