<?xml version="1.0" standalone="no"?>
<!DOCTYPE svg PUBLIC "-//W3C//DTD SVG 1.1//EN" "http://www.w3.org/Graphics/SVG/1.1/DTD/svg11.dtd" >
<svg xmlns="http://www.w3.org/2000/svg" xmlns:xlink="http://www.w3.org/1999/xlink" version="1.1" viewBox="-10 0 942 1000">
   <path fill="currentColor"
d="M766 448q4 32 4 52q0 160 -113 275t-272 115t-272 -115t-113 -276t112 -275t272 -114q52 0 90 10v222q-76 -26 -154 10q-70 34 -101 101t-5 128t95 80t139 -15q52 -26 87 -80t35 -122v-286q16 8 24 14q174 108 310 114q32 2 4 52q-42 76 -130 106z" />
</svg>
