<?xml version="1.0" standalone="no"?>
<!DOCTYPE svg PUBLIC "-//W3C//DTD SVG 1.1//EN" "http://www.w3.org/Graphics/SVG/1.1/DTD/svg11.dtd" >
<svg xmlns="http://www.w3.org/2000/svg" xmlns:xlink="http://www.w3.org/1999/xlink" version="1.1" viewBox="-10 0 1011 1000">
   <path fill="currentColor"
d="M11 488q4 -121 64 -227t171 -177h2v1q-5 5 -16 19t-29 43t-33 61t-25 76t-8 84t22 88t60 86q28 28 57 39t51 6t39 -13t26 -18l9 -9q21 -29 29 -65t4 -69t-12 -59t-15 -45l-7 -16q-6 -14 -17 -28t-24 -23t-25 -16l-19 -11l-7 -3l58 -64q21 9 43 29t33 34l11 15
q0 -27 -11 -58t-22 -49l-11 -17l89 -102l90 101q-19 26 -30 57t-12 51l-2 18q12 -21 34 -40t38 -30l15 -9l58 64q-25 8 -48 28t-33 36l-11 16q-17 32 -27 75t-4 95t32 87q19 25 44 34t47 3t42 -15t32 -19l12 -9q34 -29 54 -64t27 -67t6 -68t-10 -66t-21 -60t-25 -52t-26 -40
l-19 -27l-7 -9q-8 -7 -4 -7l6 1l35 26q13 10 34 28t36 32t32 36t31 43t26 49t21 58t13 65t6 76q2 145 -60 260t-174 179t-255 64q-103 0 -196 -41t-158 -111t-103 -163t-33 -197z" />
</svg>
