<?xml version="1.0" standalone="no"?>
<!DOCTYPE svg PUBLIC "-//W3C//DTD SVG 1.1//EN" "http://www.w3.org/Graphics/SVG/1.1/DTD/svg11.dtd" >
<svg xmlns="http://www.w3.org/2000/svg" xmlns:xlink="http://www.w3.org/1999/xlink" version="1.1" viewBox="-10 0 1011 1000">
   <path fill="currentColor"
d="M467 652l-9 206l-1 12l-234 -16q-20 -2 -38 -18t-26 -36q-6 -15 -8 -31t2 -36t7 -31t12 -36t11 -29q43 6 284 15zM251 325l100 212l-82 -52q-35 41 -62 81t-41 70t-22 53t-10 35l-2 11l-106 -199q-10 -14 -10 -31t3 -26l4 -10q20 -35 64 -105l-78 -48zM938 614l-105 200
q-7 16 -21 26t-24 12l-10 2q-40 4 -122 7l4 91l-128 -205l118 -202l4 97q94 9 157 2t95 -18zM499 98q-26 35 -147 243l-177 -104l-11 -7l126 -199q11 -17 33 -25t45 -5q13 1 27 6t23 12l23 18q14 11 21 20t20 22t17 19zM865 269l118 203q10 21 7 42t-15 42q-7 11 -18 20
t-22 16t-27 12t-26 9t-29 8t-25 7q-19 -40 -148 -244l174 -108zM785 143l79 -46l-122 208l-234 -11l84 -48q-19 -50 -42 -93t-42 -69t-36 -44t-26 -26l-10 -7h226q18 -1 33 6t22 16l6 8q21 34 62 106z" />
</svg>
