<?xml version="1.0" standalone="no"?>
<!DOCTYPE svg PUBLIC "-//W3C//DTD SVG 1.1//EN" "http://www.w3.org/Graphics/SVG/1.1/DTD/svg11.dtd" >
<svg xmlns="http://www.w3.org/2000/svg" xmlns:xlink="http://www.w3.org/1999/xlink" version="1.1" viewBox="-10 0 1020 1000">
   <path fill="currentColor"
d="M611 651q9 9 0 17q-34 35 -111 35t-111 -35q-9 -8 0 -17q3 -3 8 -3t9 3q27 28 94 28t94 -28q4 -3 9 -3t8 3zM440 550q0 21 -15 35t-35 15t-35 -15t-15 -36t15 -35t35 -14t35 15t15 35zM660 550q0 21 -15 35t-35 15t-35 -15t-15 -35t15 -35t35 -15t35 14t15 36zM800 483
q0 -27 -19 -47t-48 -19t-48 20q-72 -50 -173 -54l35 -158l112 26q0 20 14 35t35 14t36 -15t14 -35t-14 -35t-36 -15q-30 0 -44 28l-124 -28q-10 -3 -14 9l-38 174q-101 4 -173 54q-19 -20 -47.5 -20t-48.5 19t-19 47q0 20 10 36t28 24q-4 16 -4 32q0 79 79 135t188.5 56.5
t187.5 -56.5t78 -135q0 -18 -4 -32q17 -8 27 -24t10 -36zM1000 500q0 102 -40 194t-106 160t-160 106t-194 40t-194 -40t-160 -106t-106 -160t-40 -194t40 -194t106 -160t160 -106t194 -40t194 40t160 106t106 160t40 194z" />
</svg>
