<?xml version="1.0" standalone="no"?>
<!DOCTYPE svg PUBLIC "-//W3C//DTD SVG 1.1//EN" "http://www.w3.org/Graphics/SVG/1.1/DTD/svg11.dtd" >
<svg xmlns="http://www.w3.org/2000/svg" xmlns:xlink="http://www.w3.org/1999/xlink" version="1.1" viewBox="-11 0 1022 1000">
   <path fill="currentColor"
d="M1000 472q0 32 -16 59t-45 40q7 26 7 54q0 86 -60 160t-162 117t-223 42t-223 -42t-162 -117t-59 -160q0 -26 6 -53q-28 -13 -46 -41t-17 -59q0 -46 32 -78t79.5 -32.5t80.5 34.5q122 -85 287 -90l65 -291q2 -7 9 -12t14 -2l206 45q10 -21 30 -33t44 -13q35 0 59 24
t25 59t-25 59t-59 25t-59 -24t-24 -59l-186 -42l-58 264q167 5 289 89q33 -34 79.5 -34t79.5 33t32 78zM233 583q0 35 25 59t58 25t60 -25t24 -59t-24 -59t-60 -24q-34 0 -58 25t-25 58zM685 781q6 -6 6 -14t-6 -15q-5 -5 -14 -5t-14 5q-23 24 -68 35t-89 11t-89 -11
t-68 -35q-6 -5 -14 -5t-14 5.5t-6 13.5t6 15q24 24 66 38t68 17t51 2l51 -2q26 -1 68 -17t66 -38zM684 667q34 0 59 -25t24.5 -59t-25.5 -58t-58 -25q-35 0 -60 24t-24 59t24 59t60 25z" />
</svg>
