<?xml version="1.0" standalone="no"?>
<!DOCTYPE svg PUBLIC "-//W3C//DTD SVG 1.1//EN" "http://www.w3.org/Graphics/SVG/1.1/DTD/svg11.dtd" >
<svg xmlns="http://www.w3.org/2000/svg" xmlns:xlink="http://www.w3.org/1999/xlink" version="1.1" viewBox="-10 0 877 1000">
   <path fill="currentColor"
d="M524 630q7 7 0 14q-30 30 -95 30t-96 -30q-7 -7 0 -14q3 -3 7 -3t8 3q23 23 81 23t81 -23q2 -3 7 -3t7 3zM377 543q0 17 -13 30t-30 13t-30 -13t-13 -30.5t13 -29.5t30 -13t31 13t12 30zM566 543q0 17 -13 30t-30 13t-30 -13t-13 -30.5t13 -29.5t30 -13t30 13t13 30z
M686 485q0 -23 -17 -40t-40.5 -16.5t-40.5 17.5q-63 -44 -149 -46l30 -136l95 22q1 18 13 30t30 12.5t31 -12.5t12 -30t-12 -31t-31 -12q-27 0 -38 24l-106 -24q-9 -3 -11 8l-34 149q-86 3 -148 46q-17 -17 -41 -17t-41 16t-17 40q0 17 9 31t24 21q-3 14 -3 27q0 68 67 116
t161.5 48.5t161.5 -48.5t67 -116q0 -14 -3 -27q14 -7 22 -21t9 -31zM857 232v536q0 66 -47 113t-114 48h-535q-67 0 -114 -48t-47 -113v-536q0 -66 47 -113t114 -48h535q67 0 114 48t47 113z" />
</svg>
