<?xml version="1.0" standalone="no"?>
<!DOCTYPE svg PUBLIC "-//W3C//DTD SVG 1.1//EN" "http://www.w3.org/Graphics/SVG/1.1/DTD/svg11.dtd" >
<svg xmlns="http://www.w3.org/2000/svg" xmlns:xlink="http://www.w3.org/1999/xlink" version="1.1" viewBox="-10 0 1225 1000">
   <path fill="currentColor"
d="M0 497q0 -62 50 -106t112 -44t105 36h5q134 -82 335 -82l5 -4l70 -267l242 36q0 1 1.5 1t0.5 -1q2 -1 12 -16t14 -18q34 -32 82.5 -32t82.5 32t33 82t-33 84t-83 35q-57 0 -87 -39t-30 -96q-2 1 -97 -13t-110 -17h-3q-2 2 -16 53l-30 109q-16 58 -18 64v3l5 4
q72 0 148 20t130 58l3 2q1 -1 2 -1t2 -1q25 -18 36 -25t29 -13t43 -6q68 0 116 48t48 117q0 47 -26 86t-70 60q0 195 -260 303q-41 18 -56 23q-32 10 -91 19t-93 9q-120 0 -231 -35q-2 -2 -72 -38q-95 -51 -152 -116t-58 -156h-5q-33 -17 -59 -50l-9 -12q-15 -27 -19 -46
t-4 -50zM34 509q0 66 57 112q5 -59 48 -116t101 -101q-37 -26 -82 -26q-49 0 -86 40t-38 91zM136 655q0 54 31 104t80 85t102 60t105 34q75 14 146 14q123 0 233 -39t185 -123h-3q30 -38 43 -69t13 -72q0 -54 -26 -103t-70 -84t-92 -61t-100 -38q-85 -23 -181 -23
q-74 0 -151 18t-150 54t-119 99t-46 144zM322 582q0 -37 23 -60t59 -22t62 22t25 60q0 36 -25 60t-62 24t-59 -24t-23 -60zM358 746h44q25 45 80 68t111 24q58 0 110 -24t84 -68h41q-25 62 -93 96t-141 34t-142 -35t-94 -95zM694 582q0 -38 23 -60t61 -22q34 0 58 24t24 58
t-24 59t-58 25q-37 0 -60 -24t-24 -60zM949 114q0 35 25 60t60.5 25t58.5 -25t23 -59.5t-24 -58.5t-58 -24t-59 24t-26 58zM963 395q55 36 95 92t56 120q59 -43 59 -96q0 -58 -35 -100t-93 -42q-45 0 -82 26z" />
</svg>
