<?xml version="1.0" standalone="no"?>
<!DOCTYPE svg PUBLIC "-//W3C//DTD SVG 1.1//EN" "http://www.w3.org/Graphics/SVG/1.1/DTD/svg11.dtd" >
<svg xmlns="http://www.w3.org/2000/svg" xmlns:xlink="http://www.w3.org/1999/xlink" version="1.1" viewBox="-10 0 1020 1000">
   <path fill="currentColor"
d="M0 488q0 -23 9 -44t24 -37t36 -25t46 -9q43 0 74 29q59 -37 135 -59t162 -25l80 -228l196 47q9 -26 33 -42t53 -17q39 0 67 27t28 67t-28 66t-66 27t-67 -27t-28 -66l-164 -39l-67 185q84 4 157 27t129 57q33 -29 76 -29q23 0 45 9t37 25t24 37t9 44q0 31 -15 57t-40 41
q4 17 4 35q0 60 -35 116t-97 97t-143 64t-176 24q-92 0 -174 -24t-143 -64t-97 -97t-35 -116q0 -10 2 -20q0 -9 2 -17q-24 -16 -38 -40t-15 -56zM86 621q0 55 32 102t88 84t132 57t161 21t160 -21t132 -57t89 -84t32 -102t-32 -104t-89 -85t-132 -56t-160 -21t-161 21
t-132 56t-88 85t-32 104zM285 567q0 -28 22 -50t50 -21t50 21t21 50t-21 49t-50 21t-50 -21t-22 -49zM338 732q12 -10 33 8q6 6 13 10t14 7l13 5q6 2 14 3t13 3t14 3l14 2q5 1 15 1t17 1q76 -4 133 -35q21 -20 35 -8q10 18 -12 35q-58 45 -156 45q-105 -2 -152 -45
q-26 -19 -8 -35zM580 566q0 -29 21 -50t50 -20t51 20t21 50t-21 50t-51 21t-50 -21t-21 -50z" />
</svg>
