<?xml version="1.0" standalone="no"?>
<!DOCTYPE svg PUBLIC "-//W3C//DTD SVG 1.1//EN" "http://www.w3.org/Graphics/SVG/1.1/DTD/svg11.dtd" >
<svg xmlns="http://www.w3.org/2000/svg" xmlns:xlink="http://www.w3.org/1999/xlink" version="1.1" viewBox="-10 0 877 1000">
   <path fill="currentColor"
d="M632 876q-95 53 -204.5 53t-205.5 -53q77 -48 132 -118t73 -149q19 80 74 149t131 118zM356 79v271q0 140 -71 256t-184 171q-101 -120 -101 -276q0 -104 47 -195t128 -150t181 -77zM857 501q0 156 -101 276q-114 -55 -184 -171t-71 -256v-271q100 17 182 77t128 150
t46 195z" />
</svg>
