<?xml version="1.0" standalone="no"?>
<!DOCTYPE svg PUBLIC "-//W3C//DTD SVG 1.1//EN" "http://www.w3.org/Graphics/SVG/1.1/DTD/svg11.dtd" >
<svg xmlns="http://www.w3.org/2000/svg" xmlns:xlink="http://www.w3.org/1999/xlink" version="1.1" viewBox="-10 0 958 1000">
   <path fill="currentColor"
d="M938 851q0 22 -15 37t-38 15q-26 0 -42 -24q-60 -93 -139 -133t-183 -48v75q0 42 -30.5 72.5t-74.5 30.5t-72 -30l-329 -322q-15 -15 -15 -38t15 -37l328 -323q28 -28 73 -29t74 29q31 32 31 74v89q182 36 299 180t118 330v52zM470 591q224 5 353 110q-30 -126 -129 -213
t-231 -103l-47 -2v-183l-290 286l290 287v-183z" />
</svg>
