<?xml version="1.0" standalone="no"?>
<!DOCTYPE svg PUBLIC "-//W3C//DTD SVG 1.1//EN" "http://www.w3.org/Graphics/SVG/1.1/DTD/svg11.dtd" >
<svg xmlns="http://www.w3.org/2000/svg" xmlns:xlink="http://www.w3.org/1999/xlink" version="1.1" viewBox="-10 0 1010 1000">
   <path fill="currentColor"
d="M613 5h377v365q0 50 -29 90t-76 56v374h-364q-16 46 -60 76t-96 29h-365v-365q0 -50 29 -90t76 -56q0 -2 -1 -3t0 -4v-368h362q17 -47 57 -75t90 -29zM781 786v-264q0 -21 -15 -36t-37 -16t-36 16t-15 36v160h-157q-21 0 -37 15t-15 37t15 37t37 15h260zM209 214v263
q0 22 15 37t36 15t37 -15t16 -37v-160h160q21 0 36 -15t15 -37t-15 -36t-36 -15h-264zM885 370v-261h-260q-21 0 -37 15t-15 37t15 37t37 16h83l-172 171q-15 15 -15 37t15 37t37 15t37 -15l171 -172v83q0 21 16 36t37 15t36 -15t15 -36zM365 890q21 0 36 -15t15 -36
t-15 -37t-36 -16h-82l171 -171q15 -15 15 -37t-15 -37t-37 -15t-37 15l-171 171v-82q0 -21 -16 -37t-37 -16t-37 16t-15 37v260h261zM416 474q43 0 74 30t31 73q0 28 -16 54q6 -1 19 -1h101v-108l1 -5q1 -4 0 -6q-23 15 -53 15q-43 0 -74 -31t-30 -74q0 -27 15 -52h-5
q-4 0 -6 1h-108v107q0 2 -1 5t0 7q24 -15 52 -15z" />
</svg>
