<?xml version="1.0" standalone="no"?>
<!DOCTYPE svg PUBLIC "-//W3C//DTD SVG 1.1//EN" "http://www.w3.org/Graphics/SVG/1.1/DTD/svg11.dtd" >
<svg xmlns="http://www.w3.org/2000/svg" xmlns:xlink="http://www.w3.org/1999/xlink" version="1.1" viewBox="-10 0 854 1000">
   <path fill="currentColor"
d="M573 83h261v260q0 22 -16 37t-37 16t-37 -16t-15 -37v-82l-171 171q-15 15 -37 15t-37 -15t-15 -37t15 -37l171 -171h-82q-22 0 -37 -15t-15 -37t15 -37t37 -15zM276 567q15 -15 37 -15t36 15t15 37t-15 37l-171 171h82q21 0 37 16t16 37t-16 36t-37 15h-260v-260
q0 -21 16 -37t37 -16t36 16t15 37v82zM156 500q-21 0 -37 -16t-15 -37v-260h261q21 0 36 16t15 37t-15 36t-36 15h-156v156q0 21 -16 37t-37 16zM678 500q21 0 36 15t15 37v260h-260q-21 0 -37 -15t-16 -37t16 -37t37 -15h156v-156q0 -21 16 -37t37 -15z" />
</svg>
