<?xml version="1.0" standalone="no"?>
<!DOCTYPE svg PUBLIC "-//W3C//DTD SVG 1.1//EN" "http://www.w3.org/Graphics/SVG/1.1/DTD/svg11.dtd" >
<svg xmlns="http://www.w3.org/2000/svg" xmlns:xlink="http://www.w3.org/1999/xlink" version="1.1" viewBox="-10 0 878 1000">
   <path fill="currentColor"
d="M421 589q0 7 -5 13l-185 185l80 81q10 10 10 25t-10 25t-25 11h-250q-15 0 -25 -11t-11 -25v-250q0 -15 11 -25t25 -11t25 11l80 80l186 -185q5 -6 12 -6t13 6l64 63q5 6 5 13zM857 107v250q0 15 -10 25t-26 11t-25 -11l-80 -80l-185 185q-6 6 -13 6t-13 -6l-64 -64
q-5 -5 -5 -12t5 -13l186 -185l-81 -81q-10 -10 -10 -25t10 -25t25 -11h250q15 0 26 11t10 25z" />
</svg>
