<?xml version="1.0" standalone="no"?>
<!DOCTYPE svg PUBLIC "-//W3C//DTD SVG 1.1//EN" "http://www.w3.org/Graphics/SVG/1.1/DTD/svg11.dtd" >
<svg xmlns="http://www.w3.org/2000/svg" xmlns:xlink="http://www.w3.org/1999/xlink" version="1.1" viewBox="-10 0 878 1000">
   <path fill="currentColor"
d="M716 302l-198 198l198 198l80 -80q17 -18 39 -8.5t22 33.5v250q0 14 -10 25t-26 11h-250q-23 0 -32 -23q-10 -21 7 -38l81 -81l-198 -198l-198 198l80 81q17 17 8 38q-10 23 -33 23h-250q-15 0 -25 -11t-11 -25v-250q0 -24 22 -33.5t39 8.5l80 80l198 -198l-198 -198
l-80 80q-11 11 -25 11q-7 0 -14 -3q-22 -9 -22 -33v-250q0 -14 11 -25t25 -11h250q23 0 33 23q9 21 -8 38l-80 81l198 198l198 -198l-81 -81q-17 -17 -7 -38q9 -23 32 -23h250q15 0 26 11t10 25v250q0 24 -22 33q-7 3 -14 3q-14 0 -25 -11z" />
</svg>
