<?xml version="1.0" standalone="no"?>
<!DOCTYPE svg PUBLIC "-//W3C//DTD SVG 1.1//EN" "http://www.w3.org/Graphics/SVG/1.1/DTD/svg11.dtd" >
<svg xmlns="http://www.w3.org/2000/svg" xmlns:xlink="http://www.w3.org/1999/xlink" version="1.1" viewBox="-10 0 1020 1000">
   <path fill="currentColor"
d="M1000 500q0 14 -11 25l-142 143q-11 11 -26 11t-25 -11t-10 -25v-72h-572v72q0 14 -10 25t-25 11t-25 -11l-143 -143q-11 -11 -11 -25t11 -25l143 -143q10 -11 25 -11t25 11t10 25v72h572v-72q0 -14 10 -25t25 -11t26 11l142 143q11 10 11 25z" />
</svg>
