<?xml version="1.0" standalone="no"?>
<!DOCTYPE svg PUBLIC "-//W3C//DTD SVG 1.1//EN" "http://www.w3.org/Graphics/SVG/1.1/DTD/svg11.dtd" >
<svg xmlns="http://www.w3.org/2000/svg" xmlns:xlink="http://www.w3.org/1999/xlink" version="1.1" viewBox="-10 0 854 1000">
   <path fill="currentColor"
d="M110 552h255v260q0 23 -12 38t-34 15t-37 -16t-16 -37v-89l-177 178q-15 15 -37 15t-37 -15t-15 -37t15 -37l171 -171h-76q-21 0 -36 -16t-15 -37t15 -36t36 -15zM156 447q-21 0 -37 -15t-15 -36v-209h209q21 0 36 16t16 37t-16 36t-36 15h-104v105q0 21 -16 36t-37 15z
M678 552q21 0 36 15t15 36v209h-208q-21 0 -37 -15t-15 -37t15 -37t37 -15h104v-105q0 -21 16 -36t37 -15zM745 98q15 -15 36 -15t37 15t15 37t-15 37l-172 171h83q21 0 37 16t15 37t-15 36t-37 15h-260v-260q0 -21 15 -37t37 -15t37 15t15 37v83z" />
</svg>
