<?xml version="1.0" standalone="no"?>
<!DOCTYPE svg PUBLIC "-//W3C//DTD SVG 1.1//EN" "http://www.w3.org/Graphics/SVG/1.1/DTD/svg11.dtd" >
<svg xmlns="http://www.w3.org/2000/svg" xmlns:xlink="http://www.w3.org/1999/xlink" version="1.1" viewBox="-10 0 870 1000">
   <path fill="currentColor"
d="M429 536v250q0 14 -11 25t-25 10t-25 -10l-81 -81l-185 186q-5 5 -13 5t-12 -5l-64 -64q-6 -6 -6 -13t6 -13l185 -185l-80 -80q-11 -11 -11 -25t11 -25t25 -11h250q14 0 25 11t11 25zM850 161q0 7 -6 12l-185 186l80 80q11 11 11 25t-11 25t-25 11h-250q-14 0 -25 -11
t-10 -25v-250q0 -14 10 -25t25 -10t25 10l81 80l185 -185q6 -5 13 -5t13 5l63 64q6 5 6 13z" />
</svg>
