<?xml version="1.0" standalone="no"?>
<!DOCTYPE svg PUBLIC "-//W3C//DTD SVG 1.1//EN" "http://www.w3.org/Graphics/SVG/1.1/DTD/svg11.dtd" >
<svg xmlns="http://www.w3.org/2000/svg" xmlns:xlink="http://www.w3.org/1999/xlink" version="1.1" viewBox="-11 0 1011 1000">
   <path fill="currentColor"
d="M834 5q64 0 110 46t46 110t-46 110l-46 46q40 44 40 104q0 71 -57 119q4 16 4 35v315h-309q-22 0 -38 -5q-48 58 -122 58q-62 0 -106 -42l-46 48q-46 46 -108.5 46t-109.5 -46t-46.5 -110.5t46.5 -111.5l49 -48q-36 -44 -36 -102q0 -66 51 -113q-6 -32 -6 -39v-316h316
q11 0 34 5q47 -57 119 -57q62 0 105 39l45 -45q46 -46 111 -46zM209 214v207q0 21 15 37t36 16t37 -16t16 -37v-104h103q22 0 37 -15t16 -37t-16 -36t-37 -15h-207zM870 197q15 -15 15 -36t-15.5 -36.5t-36 -15.5t-37.5 16l-171 171v-82q0 -22 -16 -37t-36 -16t-37 16
t-15 37v260h260q22 0 37 -16t16 -37t-16 -36t-37 -15h-82zM469 786v-260h-254q-21 0 -37 15t-15 36t15 37t37 16h76l-171 171q-15 15 -15 37t15 37t35 15t35 -15l175 -178v89q0 21 15 37t36 16t37 -16t16 -37zM469 474v-118q-28 14 -49 14h-55v51q0 26 -15 53h119zM521 526
v120q27 -16 55 -16h49v-55q0 -40 38 -49h-142zM524 734q0 21 15 37t37 15h205v-209q0 -21 -15 -36t-37 -15t-36 15t-15 36v105h-102q-21 0 -37 15t-15 37z" />
</svg>
