<?xml version="1.0" standalone="no"?>
<!DOCTYPE svg PUBLIC "-//W3C//DTD SVG 1.1//EN" "http://www.w3.org/Graphics/SVG/1.1/DTD/svg11.dtd" >
<svg xmlns="http://www.w3.org/2000/svg" xmlns:xlink="http://www.w3.org/1999/xlink" version="1.1" viewBox="-10 0 570 1000">
   <path fill="currentColor"
d="M50 50q-19 0 -34.5 15.5t-15.5 34.5v250q0 21 13 37l24 26q13 16 13 37v450q0 19 15.5 34.5t34.5 15.5h50q19 0 34.5 -15.5t15.5 -34.5v-450q0 -21 13 -37l24 -26q13 -16 13 -37v-250q0 -19 -15.5 -34.5t-34.5 -15.5q-8 0 -10 9q-2 5 -2 16v200q0 11 -2 16q-2 9 -10.5 9
t-11.5 -9q-1 -4 -1 -16v-200q0 -11 -2 -16q-2 -9 -11 -9h-50q-8 0 -10 9q-2 5 -2 16v200q0 11 -2 16q-2 9 -10.5 9t-11.5 -9q-1 -4 -1 -16v-200q0 -11 -2 -16q-2 -9 -11 -9zM550 50q-52 0 -94 14q-60 19 -81 61q-16 32 -22 112q-3 44 -3 113v200q0 19 15.5 34.5t34.5 15.5
v300q0 19 15.5 34.5t34.5 15.5h50q19 0 34.5 -15.5t15.5 -34.5v-850z" />
</svg>
