<?xml version="1.0" standalone="no"?>
<!DOCTYPE svg PUBLIC "-//W3C//DTD SVG 1.1//EN" "http://www.w3.org/Graphics/SVG/1.1/DTD/svg11.dtd" >
<svg xmlns="http://www.w3.org/2000/svg" xmlns:xlink="http://www.w3.org/1999/xlink" version="1.1" viewBox="-10 0 958 1000">
   <path fill="currentColor"
d="M365 291l-216 208l216 210v-418zM375 172q39 0 66 27t28 67v468q0 39 -28 67t-66 27q-35 0 -65 -27l-310 -302l310 -301q26 -26 65 -26zM834 291l-216 208l216 210v-418zM844 172q39 0 66 27t28 67v468q0 39 -28 67t-66 27q-35 0 -65 -27l-310 -302l310 -301
q26 -26 65 -26z" />
</svg>
