<?xml version="1.0" standalone="no"?>
<!DOCTYPE svg PUBLIC "-//W3C//DTD SVG 1.1//EN" "http://www.w3.org/Graphics/SVG/1.1/DTD/svg11.dtd" >
<svg xmlns="http://www.w3.org/2000/svg" xmlns:xlink="http://www.w3.org/1999/xlink" version="1.1" viewBox="-11 0 659 1000">
   <path fill="currentColor"
d="M156 916q-63 0 -110 -46t-46 -111t46 -110l150 -150l-150 -150q-46 -46 -46 -110.5t46 -110.5q44 -44 110 -44t110 44l372 371l-372 372q-45 45 -110 45zM156 187q-21 0 -37 16t-15.5 36t16.5 37l223 223l-223 224q-16 16 -16 37t15.5 36.5t36.5 15.5t37 -15l297 -298
l-297 -297q-15 -15 -37 -15z" />
</svg>
