<?xml version="1.0" standalone="no"?>
<!DOCTYPE svg PUBLIC "-//W3C//DTD SVG 1.1//EN" "http://www.w3.org/Graphics/SVG/1.1/DTD/svg11.dtd" >
<svg xmlns="http://www.w3.org/2000/svg" xmlns:xlink="http://www.w3.org/1999/xlink" version="1.1" viewBox="-10 0 1021 1000">
   <path fill="currentColor"
d="M143 750q0 -15 -11 -25t-25 -11t-25 11t-11 25t11 25t25 11t25 -11t11 -25zM929 429q0 -29 -22 -50t-50 -22h-321q0 -11 8 -27t19 -31t18 -38t8 -47q0 -37 -24 -54t-65 -17q-13 0 -50 77l-21 37q-22 35 -62 80.5t-57 59.5q-38 32 -78 32h-18v357h18q40 0 93 18t108 35
t101 18q105 0 105 -93q0 -15 -3 -31q17 -9 27 -30t9 -41t-10 -38q30 -28 30 -67q0 -14 -6 -31t-14 -26h185q29 0 50 -21t22 -50zM1000 428q0 59 -42 101t-101 42h-94q-2 35 -21 67q2 12 2 24q0 56 -34 99q1 78 -47 123t-127 45q-74 0 -179 -39q-92 -33 -125 -33h-161
q-29 0 -50 -21t-21 -50v-357q0 -30 21 -51t50 -21h161q6 0 12 -2t13 -8t13 -10t13 -13t12 -12t10 -12t8 -9q36 -42 56 -72q7 -12 18 -35t21 -40t23 -35t30 -28t39 -10q70 0 115 38t46 105q0 38 -13 72h209q58 0 101 42t42 100z" />
</svg>
