<?xml version="1.0" standalone="no"?>
<!DOCTYPE svg PUBLIC "-//W3C//DTD SVG 1.1//EN" "http://www.w3.org/Graphics/SVG/1.1/DTD/svg11.dtd" >
<svg xmlns="http://www.w3.org/2000/svg" xmlns:xlink="http://www.w3.org/1999/xlink" version="1.1" viewBox="-11 0 881 1000">
   <path fill="currentColor"
d="M543 614q6 50 8 81t-8 59t-13 40t-35 32t-45 26l-155 68q-32 12 -45 -4t-3 -44l40 -110l-130 -132l-106 40q-28 12 -43 -2t-3 -46l31 -79q19 -49 27 -65l22 -45q14 -29 25 -36t29 -20t41 -13h52l71 6q10 -14 29 -39t77 -85t118 -104t145 -75t165 -19q8 0 14 6q4 4 6 14
q10 82 -18 168t-76 151t-98 118t-86 81zM593 318q22 22 54 22t54 -23t22 -55t-22 -55t-54 -23t-54 23t-22 55t22 56z" />
</svg>
