<?xml version="1.0" standalone="no"?>
<!DOCTYPE svg PUBLIC "-//W3C//DTD SVG 1.1//EN" "http://www.w3.org/Graphics/SVG/1.1/DTD/svg11.dtd" >
<svg xmlns="http://www.w3.org/2000/svg" xmlns:xlink="http://www.w3.org/1999/xlink" version="1.1" viewBox="-10 0 877 1000">
   <path fill="currentColor"
d="M286 714q0 -29 -21 -50t-51 -21t-50 21t-21 50t21 51t50 21t51 -21t21 -51zM482 767q-8 -130 -99 -222t-221 -98q-8 -1 -14 5t-5 13v71q0 7 5 12t12 6q86 6 147 68t67 147q1 7 6 12t12 5h72q7 0 13 -6t5 -13zM696 767q-3 -86 -31 -166t-78 -145t-115 -114t-145 -78
t-166 -31q-7 -1 -12.5 4.5t-5.5 13.5v71q0 7 5 12t12 6q114 4 211 62t156 155t62 211q0 8 5 13t13 5h71q7 0 13 -5.5t5 -13.5zM857 232v536q0 66 -47 113t-114 48h-535q-67 0 -114 -48t-47 -113v-536q0 -66 47 -113t114 -48h535q67 0 114 48t47 113z" />
</svg>
