<?xml version="1.0" standalone="no"?>
<!DOCTYPE svg PUBLIC "-//W3C//DTD SVG 1.1//EN" "http://www.w3.org/Graphics/SVG/1.1/DTD/svg11.dtd" >
<svg xmlns="http://www.w3.org/2000/svg" xmlns:xlink="http://www.w3.org/1999/xlink" version="1.1" viewBox="-11 0 856 1000">
   <path fill="currentColor"
d="M104 708q44 0 74 31t31 73t-31 73t-74 31t-74 -31t-30 -73t30 -73t74 -31zM104 83q197 0 365 98t267 266t98 365q0 43 -31 73t-74 31t-74 -31t-30 -73q0 -215 -152 -368t-369 -153q-44 0 -74 -31t-30 -73t30 -73t74 -31zM104 396q172 0 295 122t122 294q0 43 -30 73
t-75 31t-73 -31t-30 -73q0 -86 -62 -147t-147 -62q-44 0 -74 -30t-30 -73t30 -73t74 -31z" />
</svg>
