<?xml version="1.0" standalone="no"?>
<!DOCTYPE svg PUBLIC "-//W3C//DTD SVG 1.1//EN" "http://www.w3.org/Graphics/SVG/1.1/DTD/svg11.dtd" >
<svg xmlns="http://www.w3.org/2000/svg" xmlns:xlink="http://www.w3.org/1999/xlink" version="1.1" viewBox="-10 0 938 1000">
   <path fill="currentColor"
d="M784 947q0 -209 -103 -385t-279 -279t-384 -103v-127q181 0 347 71t285 190t190 285t71 348h-127zM528 947q0 -212 -150 -361t-360 -150v-129q173 0 320 86t233 233t85 321h-128zM274 947q0 -107 -75 -182t-181 -75v-127q158 0 271 112t112 272h-127zM145 947h-127v-128
q53 0 90 38t37 90z" />
</svg>
