<?xml version="1.0" standalone="no"?>
<!DOCTYPE svg PUBLIC "-//W3C//DTD SVG 1.1//EN" "http://www.w3.org/Graphics/SVG/1.1/DTD/svg11.dtd" >
<svg xmlns="http://www.w3.org/2000/svg" xmlns:xlink="http://www.w3.org/1999/xlink" version="1.1" viewBox="-10 0 943 1000">
   <path fill="currentColor"
d="M0 706q0 31 22 54l180 180q20 20 46 22t50 -12l-96 -96l41 -41l97 97l42 -41l-98 -97l41 -41l97 96l42 -40l-97 -98l40 -40l98 96l39 -39l-98 -96l42 -42l97 97l41 -41l-97 -97l41 -41l97 97l41 -41l-97 -97l41 -41l97 97l41 -41l-97 -98l41 -40l98 97l41 -42l-98 -97
l41 -41l96 95q13 -22 10 -48t-21 -45l-180 -180q-23 -22 -54 -22t-55 23l-589 590q-23 22 -23 54z" />
</svg>
