<?xml version="1.0" standalone="no"?>
<!DOCTYPE svg PUBLIC "-//W3C//DTD SVG 1.1//EN" "http://www.w3.org/Graphics/SVG/1.1/DTD/svg11.dtd" >
<svg xmlns="http://www.w3.org/2000/svg" xmlns:xlink="http://www.w3.org/1999/xlink" version="1.1" viewBox="-11 0 522 1000">
   <path fill="currentColor"
d="M501 262v57q0 8 -5 13t-13 5h-93q-13 80 -72 131t-154 61q93 99 256 299q8 9 2.5 19t-16.5 10h-109q-9 0 -14 -7q-171 -204 -278 -318q-5 -5 -5 -13v-70q0 -8 5 -13t13 -5h62q74 0 119 -24t57 -70h-238q-8 0 -13 -5t-5 -13v-57q0 -8 5 -13t13 -5h230q-31 -63 -149 -63
h-81q-7 0 -13 -5t-5 -13v-74q0 -8 5 -13t13 -5h464q8 0 13 5t5 13v57q0 8 -5 13t-13 5h-130q26 34 36 80h95q8 0 13 5t5 13z" />
</svg>
