<?xml version="1.0" standalone="no"?>
<!DOCTYPE svg PUBLIC "-//W3C//DTD SVG 1.1//EN" "http://www.w3.org/Graphics/SVG/1.1/DTD/svg11.dtd" >
<svg xmlns="http://www.w3.org/2000/svg" xmlns:xlink="http://www.w3.org/1999/xlink" version="1.1" viewBox="-10 0 1020 1000">
   <path fill="currentColor"
d="M530 498q0 15 -10 25t-23.5 10.5t-24.5 -8.5t-10.5 -23.5t9.5 -24.5t23 -11t25 9t11 23zM538 531l195 -325l-37 35l-147 136q-39 36 -65 62t-28 29l-195 323q4 -4 38 -34t70 -65t76 -71t65 -62t28 -28zM899 500q0 112 -58 207l-9 -6q-7 -5 -15 -9t-9 -5q-8 0 -8 8
q0 5 33 24q-41 63 -103 107t-135 61l-8 -37q-1 -6 -9 -6q-3 0 -4 3t-1 6l9 38q-41 8 -82 8q-111 0 -208 -59l8 -11q7 -10 12 -19t5 -10q0 -8 -7 -8q-4 0 -10 8t-12 20t-8 13q-63 -42 -107 -105t-61 -137l38 -8q6 -2 6 -8q0 -3 -3 -5t-6 -1l-38 9q-8 -41 -8 -78
q0 -115 61 -212l27 18q8 5 10 4q7 0 7 -5t-7 -10l-29 -19q43 -62 105 -105t136 -60l9 37q1 6 8 6q3 0 5 -3t1 -6l-9 -37q40 -7 75 -7q114 0 212 61q-22 31 -22 37t6.5 6t26.5 -35q62 41 105 103t60 135l-31 7q-6 1 -6 8q0 3 3 5t5 1l32 -7q8 40 8 78zM946 500
q0 -91 -35 -174t-95 -142t-142 -95t-174 -35t-173 35t-143 95t-95 142t-35 174t35 173t95 143t143 95t173 35t174 -35t142 -95t95 -143t35 -173zM1000 500q0 102 -40 194t-106 160t-160 106t-194 40t-194 -40t-160 -106t-106 -160t-40 -194t40 -194t106 -160t160 -106
t194 -40t194 40t160 106t106 160t40 194z" />
</svg>
