<?xml version="1.0" standalone="no"?>
<!DOCTYPE svg PUBLIC "-//W3C//DTD SVG 1.1//EN" "http://www.w3.org/Graphics/SVG/1.1/DTD/svg11.dtd" >
<svg xmlns="http://www.w3.org/2000/svg" xmlns:xlink="http://www.w3.org/1999/xlink" version="1.1" viewBox="-10 0 1070 1000">
   <path fill="currentColor"
d="M638 50q-37 0 -62.5 25.5t-25.5 61.5t25.5 62t62.5 26t62 -25.5t25 -62.5t-25.5 -62t-61.5 -25zM238 150q-37 0 -62.5 25.5t-25.5 61.5t25.5 62t62.5 26t62 -25.5t25 -62.5t-25.5 -62t-61.5 -25zM700 250q-16 0 -35 6q-22 6 -40 19l-162 116q-16 11 -19 25.5t5 26
t22 14.5t29 -7l106 -70l11 25q12 30 21 59q12 40 16 72q5 40 -4 64q-2 4 -2 6l-109 291q-8 23 4 38t32 15q12 0 22.5 -7.5t16.5 -20.5l136 -322l5 23q8 29 20 52q16 33 38 52q28 23 62 23h138q16 0 26 -10q7 -7 10 -18l1 -10l-1 -10q-3 -11 -10 -17q-10 -10 -26 -10h-113
q-24 0 -37 -22q-9 -18 -12 -51q-1 -14 -1 -52q0 -33 -13 -85q-9 -37 -24 -80l-13 -35l150 100q16 11 31 9t23 -13t5.5 -25.5t-18.5 -26.5l-166 -119q-22 -16 -35.5 -20.5t-39.5 -4.5h-50zM175 350q-17 0 -29 8q-8 4 -21 17l-106 106q-10 10 -14.5 20t-4.5 23t10.5 20.5
t24.5 7t24 -10.5l91 -91q23 0 39 34q15 30 18 73t-7 68l-75 200q-7 19 0 32.5t22.5 18t31 -2t21.5 -23.5l75 -200l8 13q11 15 25 24q20 13 42 13h150q18 0 28 -11t10 -26.5t-10 -26.5t-28 -11h-125q-16 0 -22 -28q-3 -16 -3 -47q0 -49 -14.5 -95.5t-38 -75.5t-47.5 -29h-75z
" />
</svg>
