<?xml version="1.0" standalone="no"?>
<!DOCTYPE svg PUBLIC "-//W3C//DTD SVG 1.1//EN" "http://www.w3.org/Graphics/SVG/1.1/DTD/svg11.dtd" >
<svg xmlns="http://www.w3.org/2000/svg" xmlns:xlink="http://www.w3.org/1999/xlink" version="1.1" viewBox="-10 0 899 1000">
   <path fill="currentColor"
d="M873 148q12 15 0 31t-30 9q-47 -22 -77 -5q29 42 29 92q0 69 -48 117t-117 48q-61 0 -109 -41l-33 61q56 64 76 91t65 99l17 28q60 82 -41 231l-1 2q-9 12 -23 11t-21 -13l-162 -298l-163 298q-7 14 -21 14t-23 -12l-12 -18q-9 -13 -23 -42t-22 -57t-5 -61t21 -58
q94 -140 158 -214l-34 -62q-48 41 -109 41q-69 0 -117 -48t-48 -117t48 -117t117 -48q41 0 79 20t59 54q20 30 47 86t48 85q20 -29 47 -85t48 -86q51 -74 137 -74h4l10 -6q56 -35 124 -25t105 69zM164 329q21 0 36 -16t15 -37t-15 -36t-36 -15t-37 15t-16 36t16 37t37 16z
M398 505q11 0 18 -7t7.5 -18t-7.5 -19t-18 -7t-19 7t-8 19q0 10 8 18t19 7zM633 329q21 0 36 -16t15 -37t-15 -36t-36 -15t-37 15t-16 36t16 37t37 16z" />
</svg>
