<?xml version="1.0" standalone="no"?>
<!DOCTYPE svg PUBLIC "-//W3C//DTD SVG 1.1//EN" "http://www.w3.org/Graphics/SVG/1.1/DTD/svg11.dtd" >
<svg xmlns="http://www.w3.org/2000/svg" xmlns:xlink="http://www.w3.org/1999/xlink" version="1.1" viewBox="-11 0 1110 1000">
   <path fill="currentColor"
d="M861 168q23 -31 67 -31q22 0 55 15l-7 -8q-4 -5 -7 -11t-9 -9q-34 -34 -92 -34q-39 0 -98 34h-5q-3 0 -5 -1q-74 0 -115 62q-15 23 -64 107t-78 120q-30 -35 -80 -120t-64 -107q-41 -62 -115 -62q-58 0 -99 41t-41 99t41 98t99 41q72 0 114 -60l86 136q-40 45 -82 101
t-64 91l-22 34q-22 40 -13 86t31 83l22 38l185 -341l185 341q4 -5 10 -15t20 -36t20 -51t7 -54t-15 -51q-79 -126 -168 -226l86 -136q42 60 114 60q58 0 98 -41t41 -98q0 -55 -38 -95zM760 318q-29 0 -45 -24t-6 -51l12 -20q17 -16 40 -16t39 16t16 39t-16 40t-40 16z
M243 318q-23 0 -39 -16t-16 -40t16 -39t39 -15.5t40 15.5l12 20q10 27 -7 51t-45 24zM501 514q-8 0 -14 -6t-6 -15q0 -20 20 -20q9 0 15 6t7 14t-7 15t-15 6zM868 -15q62 0 113 27t80 71q52 69 5 130q-25 32 -62 40v9q0 100 -72 172t-172 71q-17 0 -47 -5q62 83 102 147
q31 45 34 98t-15 103t-33 76t-30 48q-31 42 -85 42q-62 0 -91 -53l-94 -173l-92 173q-29 53 -93 53q-52 0 -83 -42q-15 -21 -30 -48t-33 -76t-16 -103t35 -98q47 -74 101 -147q-30 5 -47 5q-100 0 -172 -71t-71 -172t71 -172t172 -71q125 0 202 109q28 41 56 92
q45 -78 62 -98q66 -94 180 -102q63 -35 125 -35z" />
</svg>
