<?xml version="1.0" standalone="no"?>
<!DOCTYPE svg PUBLIC "-//W3C//DTD SVG 1.1//EN" "http://www.w3.org/Graphics/SVG/1.1/DTD/svg11.dtd" >
<svg xmlns="http://www.w3.org/2000/svg" xmlns:xlink="http://www.w3.org/1999/xlink" version="1.1" viewBox="-10 0 1020 1000">
   <path fill="currentColor"
d="M536 500q14 0 25 11t10 25t-10 25t-25 10t-25 -10t-11 -25t11 -25t25 -11zM703 536l283 222q16 11 13.5 31t-18.5 28l-72 36q-7 4 -16.5 4t-16.5 -4l-385 -216l-62 36q-4 3 -7 3q8 28 6 54q-4 43 -31 83t-74 69q-74 47 -154 47q-76 0 -124 -44q-51 -47 -44 -116
q4 -42 31 -82t73 -69q74 -47 155 -47q46 0 84 18q5 -8 13 -13l68 -40l-68 -41q-8 -5 -13 -12q-38 17 -84 17q-81 0 -155 -47q-46 -30 -73 -69t-31 -82q-3 -33 8 -63t36 -52q47 -44 124 -44q80 0 154 47q46 29 74 68t31 83q2 27 -6 54l7 3l62 37l385 -216q7 -5 16.5 -5
t16.5 4l72 36q16 9 18.5 28.5t-13.5 31.5zM323 391q26 -24 12 -61t-59 -65q-52 -33 -107 -33q-42 0 -63 20q-26 24 -12 60t59 66q51 33 107 33q41 0 63 -20zM276 806q45 -28 59 -65t-12 -60q-22 -20 -63 -20q-56 0 -107 33q-45 28 -59 65t12 60q21 20 63 20q55 0 107 -33z
M375 464l54 33v-7q0 -20 18 -31l8 -4l-44 -26l-15 14q-1 2 -5 6l-9 9q-1 1 -2 1zM500 589l54 18l410 -321l-71 -36l-429 240v64l-89 53l5 5l4 3l6 7q4 5 6 6l15 15zM893 821l71 -35l-290 -228l-99 77q-1 2 -7 4z" />
</svg>
