<?xml version="1.0" standalone="no"?>
<!DOCTYPE svg PUBLIC "-//W3C//DTD SVG 1.1//EN" "http://www.w3.org/Graphics/SVG/1.1/DTD/svg11.dtd" >
<svg xmlns="http://www.w3.org/2000/svg" xmlns:xlink="http://www.w3.org/1999/xlink" version="1.1" viewBox="-10 0 881 1000">
   <path fill="currentColor"
d="M0 712q0 -44 32 -76t76 -32t76 32t32 77t-34 77q65 74 163 74q69 0 116 -41.5t47 -105.5q0 -39 -24 -77t-61 -64q-34 -23 -115 -57q-75 -30 -122 -59q-42 -27 -72.5 -63.5t-46.5 -74.5q-14 -39 -14 -79q0 -101 81.5 -172t196.5 -71q77 0 155 33q66 28 113 80q37 32 37 80
q0 45 -32 76t-76.5 31.5t-75.5 -31.5t-32 -76q0 -21 10 -44q-32 -16 -88 -16q-69 0 -112 31t-43 80q0 43 39 76t127 71q92 40 141 73q51 34 82 74q33 41 48 85q0 1 1 3t1 3q-75 62 -75 158q0 53 28 104q-11 13 -24 27q-87 82 -206 82t-208 -64t-139 -194l3 -1q-5 -15 -5 -29
zM613 787q0 52 36 89t88 36t88 -36t36 -89q0 -51 -36 -88t-88 -36t-88 36t-36 88z" />
</svg>
