<?xml version="1.0" standalone="no"?>
<!DOCTYPE svg PUBLIC "-//W3C//DTD SVG 1.1//EN" "http://www.w3.org/Graphics/SVG/1.1/DTD/svg11.dtd" >
<svg xmlns="http://www.w3.org/2000/svg" xmlns:xlink="http://www.w3.org/1999/xlink" version="1.1" viewBox="-10 0 867 1000">
   <path fill="currentColor"
d="M837 864q0 50 -35 86t-85 35t-86 -35t-36 -85t36 -86t86 -36t85 36t35 85zM707 708q-64 8 -107 57t-44 115q0 41 19 77q-82 43 -212 43q-60 0 -112 -12t-85 -30t-62 -43t-43 -47t-24 -47t-14 -37t-3.5 -22t3.5 -23t10 -32t20 -32t36 -24t53 -10t52 9t35 23t20 30t10 27
t2 19q0 19 -13 45q16 15 46 23t52 10l22 1q65 0 106 -29t42 -74q0 -15 -5 -27t-17 -25t-28 -23t-41 -24t-52 -27l-67 -32q-16 -7 -24 -11q-65 -30 -104 -55t-69 -57t-40 -70t-11 -91q0 -44 11 -84t37 -77t63 -63t92 -43t124 -16q67 0 123 14t92 38t61 52t35 59t10.5 57.5
t-7.5 46.5t-21 32t-27 20t-27 11t-22 3h-22l-22 -3q-22 -3 -24 -8t-23 -15t-21 -26t-13 -39t-6 -55q-8 -8 -33 -14t-45 -6h-21q-38 0 -65 17t-40 39t-11 43q0 13 2 24t14 25t29 29t55 30t83 32q43 14 78 30t60 31t47 33t33 33t23 35t15 35t8 35t4 35t0 35z" />
</svg>
