<?xml version="1.0" standalone="no"?>
<!DOCTYPE svg PUBLIC "-//W3C//DTD SVG 1.1//EN" "http://www.w3.org/Graphics/SVG/1.1/DTD/svg11.dtd" >
<svg xmlns="http://www.w3.org/2000/svg" xmlns:xlink="http://www.w3.org/1999/xlink" version="1.1" viewBox="-10 0 938 1000">
   <path fill="currentColor"
d="M335 604l25 25l-158 160l-27 -27q16 -15 74 -73t86 -85zM580 53q136 0 234 97t97 234t-97 234t-234 96q-64 0 -123 -24l-255 257l-184 -185l256 -255q-26 -63 -26 -123q0 -137 98 -234t234 -97zM580 604q91 0 155 -64t64 -156t-64 -155t-155 -64t-156 64t-64 155t64 156
t156 64z" />
</svg>
