<?xml version="1.0" standalone="no"?>
<!DOCTYPE svg PUBLIC "-//W3C//DTD SVG 1.1//EN" "http://www.w3.org/Graphics/SVG/1.1/DTD/svg11.dtd" >
<svg xmlns="http://www.w3.org/2000/svg" xmlns:xlink="http://www.w3.org/1999/xlink" version="1.1" viewBox="-10 0 735 1000">
   <path fill="currentColor"
d="M607 536v-357h-250v634q67 -35 119 -76q131 -103 131 -201zM714 107v429q0 48 -18 95t-47 84t-66 71t-70 57t-68 43t-50 28t-22.5 11.5t-15.5 3.5t-14 -4l-24 -11q-15 -7 -50 -28t-67 -43t-71 -57t-66 -71t-46 -84t-19 -95v-429q0 -14 11 -25t25 -11h643q14 0 25 11
t10 25z" />
</svg>
