<?xml version="1.0" standalone="no"?>
<!DOCTYPE svg PUBLIC "-//W3C//DTD SVG 1.1//EN" "http://www.w3.org/Graphics/SVG/1.1/DTD/svg11.dtd" >
<svg xmlns="http://www.w3.org/2000/svg" xmlns:xlink="http://www.w3.org/1999/xlink" version="1.1" viewBox="-10 0 1152 1000">
   <path fill="currentColor"
d="M1011 868q10 -11 25 -11t25 11l71 71l-50 50l-46 -46l-47 46q-10 11 -25 11t-25 -11l-46 -46l-46 46q-11 11 -26 11t-25 -11l-46 -46l-46 46q-11 11 -25 11t-25 -11l-47 -46l-46 46q-11 11 -25 11t-25 -11l-47 -46l-46 46q-11 11 -25 11t-25 -11l-47 -46l-46 46
q-10 11 -25 11t-25 -11l-46 -46l-47 46q-10 11 -25 11t-25 -11l-71 -71l50 -50l46 46l47 -46q10 -11 25 -11t25 11l46 46l46 -46q11 -11 25 -11t26 11l46 46l46 -46q11 -11 25 -11t25 11l47 46l46 -46q11 -11 25 -11t25 11l47 46l46 -46q11 -11 25 -11t25 11l46 46l47 -46
q10 -11 25 -11t25 11l46 46zM132 846q-10 11 -25 11t-25 -11l-71 -71l50 -50l46 46l47 -46q10 -11 25 -11t25 11l46 46l36 -36v-164l-117 -175q-10 -14 -4 -31t22 -23l99 -32v-167h71v-72h143v-71h143v71h143v72h71v167l99 32q17 6 22 23t-4 31l-117 175v164l11 -10
q10 -11 25 -11t25 11l46 46l47 -46q10 -11 25 -11t25 11l71 71l-50 50l-46 -46l-47 46q-10 11 -25 11t-25 -11l-46 -46l-46 46q-11 11 -26 11t-25 -11l-46 -46l-46 46q-11 11 -25 11t-25 -11l-47 -46l-46 46q-11 11 -25 11t-25 -11l-47 -46l-46 46q-11 11 -25 11t-25 -11
l-47 -46l-46 46q-10 11 -25 11t-25 -11l-46 -46zM357 214v72l214 -72l215 72v-72h-72v-71h-285v71h-72z" />
</svg>
