<?xml version="1.0" standalone="no"?>
<!DOCTYPE svg PUBLIC "-//W3C//DTD SVG 1.1//EN" "http://www.w3.org/Graphics/SVG/1.1/DTD/svg11.dtd" >
<svg xmlns="http://www.w3.org/2000/svg" xmlns:xlink="http://www.w3.org/1999/xlink" version="1.1" viewBox="-10 0 877 1000">
   <path fill="currentColor"
d="M0 0h857v777l-433 188l-424 -188v-777zM801 740v-516h-745v516l369 165zM801 168v-112h-745v112h745zM101 334v64h-21v-64h21zM101 417v64h-21v-64h21zM101 499v65h-21v-65h21zM101 582v64h-21v-64h21zM101 665v64h-21v-64h21zM116 744l8 -19l59 27l-9 18zM191 778l9 -19
l58 26l-8 19zM267 811l8 -19l59 26l-9 19zM343 844l8 -18l58 26l-8 19zM445 852l58 -26l9 18l-59 27zM520 818l59 -26l8 19l-58 26zM596 785l59 -26l8 19l-59 26zM671 752l59 -27l8 19l-58 26zM145 82v20h-64v-20h64zM235 82v20h-64v-20h64zM325 82v20h-64v-20h64zM415 82
v20h-63v-20h63zM506 82v20h-64v-20h64zM596 82v20h-64v-20h64zM686 82v20h-64v-20h64zM776 82v20h-63v-20h63zM101 272v44h-21v-64h65v20h-44zM235 252v20h-64v-20h64zM325 252v20h-64v-20h64zM415 252v20h-63v-20h63zM506 252v20h-64v-20h64zM596 252v20h-64v-20h64z
M686 252v20h-64v-20h64zM756 316v-44h-43v-20h64v64h-21zM756 398v-64h21v64h-21zM756 481v-64h21v64h-21zM756 564v-65h21v65h-21zM756 646v-64h21v64h-21zM756 729v-64h21v64h-21zM424 709q-72 0 -123 -51t-51.5 -123t51.5 -124t123 -51q73 0 124 51t51 123.5t-51 123.5
t-124 51zM332 497q0 20 11 31t28 14t35 4t36 1t28 5t11 17q0 27 -63 27q-54 0 -69 -28h-1l-18 35q38 24 91 24q16 0 31 -3t31 -9t26 -19t9 -29q0 -26 -15 -39t-38 -15t-44 -2t-37 -2t-16 -14t12 -19t22 -8l23 -2q19 0 40 6t28 19h2l17 -32l-35 -14q-7 -3 -13 -4l-24 -5
q-8 -2 -13 0q-16 0 -32 3t-30 9t-24 19t-9 30z" />
</svg>
