<?xml version="1.0" standalone="no"?>
<!DOCTYPE svg PUBLIC "-//W3C//DTD SVG 1.1//EN" "http://www.w3.org/Graphics/SVG/1.1/DTD/svg11.dtd" >
<svg xmlns="http://www.w3.org/2000/svg" xmlns:xlink="http://www.w3.org/1999/xlink" version="1.1" viewBox="-10 0 1163 1000">
   <path fill="currentColor"
d="M1071 429q30 0 51 20t21 51t-21 50t-51 21h-8l-64 370q-5 26 -25 42t-45 17h-715q-25 0 -45 -17t-25 -42l-64 -370h-9q-29 0 -50 -21t-21 -50t21 -51t50 -20h1000zM271 875q14 -1 24 -13t9 -26l-18 -232q-1 -14 -13 -24t-26 -9t-24 13t-9 26l18 232q1 14 12 24t24 9h3z
M500 839v-232q0 -14 -11 -25t-25 -11t-25 11t-10 25v232q0 15 10 25t25 11t25 -11t11 -25zM714 839v-232q0 -14 -10 -25t-25 -11t-25 11t-11 25v232q0 15 11 25t25 11t25 -11t10 -25zM911 842l18 -232q1 -15 -9 -26t-24 -13t-26 9t-13 24l-18 232q-1 15 9 26t24 13h3
q14 0 24 -9t12 -24zM266 163l-52 230h-74l56 -246q11 -49 50 -80t89 -31h94q0 -15 10 -25t25 -11h215q14 0 25 11t10 25h94q50 0 89 31t49 80l57 246h-74l-52 -230q-6 -25 -25 -40t-44 -16h-94q0 15 -10 25t-25 11h-215q-14 0 -25 -11t-10 -25h-94q-25 0 -44 16t-25 40z" />
</svg>
