<?xml version="1.0" standalone="no"?>
<!DOCTYPE svg PUBLIC "-//W3C//DTD SVG 1.1//EN" "http://www.w3.org/Graphics/SVG/1.1/DTD/svg11.dtd" >
<svg xmlns="http://www.w3.org/2000/svg" xmlns:xlink="http://www.w3.org/1999/xlink" version="1.1" viewBox="-10 0 1092 1000">
   <path fill="currentColor"
d="M800 139q5 5 5 13t-5 13l-350 349q-5 5 -12 5t-13 -5l-46 -46q-6 -5 -6 -13t6 -13l25 -24q-41 -51 -46 -116t26 -120q-41 -39 -99 -39t-100 42t-42 101v714h-143v-714q0 -58 23 -111t61 -91t91 -61t111.5 -23t111.5 23t93 64q52 -22 109 -14t104 45l24 -25q6 -5 13 -5
t13 5zM750 286q15 0 25 10t11 25t-11 25t-25 11t-25 -11t-11 -25t11 -25t25 -10zM893 357q-15 0 -25 -11t-11 -25t11 -25t25 -10t25 10t11 25t-11 25t-25 11zM1036 286q14 0 25 10t10 25t-10 25t-25 11t-25 -11t-11 -25t11 -25t25 -10zM679 357q14 0 25 11t10 25t-10 25
t-25 11t-25 -11t-11 -25t11 -25t25 -11zM786 393q0 -15 10 -25t25 -11t26 11t10 25t-10 25t-26 11t-25 -11t-10 -25zM964 357q15 0 25 11t11 25t-11 25t-25 11t-25 -11t-10 -25t10 -25t25 -11zM607 429q15 0 25 10t11 25t-11 25t-25 11t-25 -11t-11 -25t11 -25t25 -10z
M750 500q-14 0 -25 -11t-11 -25t11 -25t25 -10t25 10t11 25t-11 25t-25 11zM893 429q14 0 25 10t11 25t-11 25t-25 11t-25 -11t-11 -25t11 -25t25 -10zM679 571q-15 0 -25 -10t-11 -25t11 -25t25 -11t25 11t10 25t-10 25t-25 10zM821 500q15 0 26 11t10 25t-10 25t-26 10
t-25 -10t-10 -25t10 -25t25 -11zM607 571q15 0 25 11t11 25t-11 25t-25 11t-25 -11t-11 -25t11 -25t25 -11zM750 571q15 0 25 11t11 25t-11 25t-25 11t-25 -11t-11 -25t11 -25t25 -11zM679 643q14 0 25 10t10 26t-10 25t-25 10t-25 -10t-11 -25t11 -26t25 -10zM607 714
q15 0 25 11t11 25t-11 25t-25 11t-25 -11t-11 -25t11 -25t25 -11z" />
</svg>
