<?xml version="1.0" standalone="no"?>
<!DOCTYPE svg PUBLIC "-//W3C//DTD SVG 1.1//EN" "http://www.w3.org/Graphics/SVG/1.1/DTD/svg11.dtd" >
<svg xmlns="http://www.w3.org/2000/svg" xmlns:xlink="http://www.w3.org/1999/xlink" version="1.1" viewBox="-10 0 1020 1000">
   <path fill="currentColor"
d="M372 268q-34 52 -77 153l-20 -41q-8 -16 -23 -35t-28 -32t-36 -19t-45 -8h-125q-8 0 -13 -5t-5 -13v-107q0 -8 5 -13t13 -5h125q139 0 229 125zM1000 714q0 8 -5 13l-179 179q-5 5 -12.5 5t-12.5 -6t-5 -12v-107h-48q-30 0 -45 1t-41 -1l-39 -3q-13 -1 -36 -6t-35 -10
t-32 -16t-33 -22t-31 -30t-31 -39q33 -52 76 -152q12 25 20 40t23 36t28 31t35 20t46 8h143v-107q0 -8 5 -13t12 -5t14 5l178 178q5 5 5 13zM1000 214q0 8 -5 13l-179 179q-5 5 -12.5 5t-12.5 -6t-5 -12v-107h-143q-27 0 -49 8t-38 25t-29 34t-25 44q-18 34 -43 95
q-16 37 -28 62t-30 59t-36 55l-41 47q-23 26 -50 38t-60 23t-71 10h-125q-8 0 -13 -5t-5 -13v-107q0 -8 5 -13t13 -5h125q27 0 48 -9t39 -25t28 -34t26 -43q17 -35 43 -96l28 -62q12 -26 30 -58t36 -56t41 -46t50 -39t59 -23t72 -9h143v-107q0 -8 5 -13t12 -5t14 5l178 178
q5 5 5 13z" />
</svg>
