<?xml version="1.0" standalone="no"?>
<!DOCTYPE svg PUBLIC "-//W3C//DTD SVG 1.1//EN" "http://www.w3.org/Graphics/SVG/1.1/DTD/svg11.dtd" >
<svg xmlns="http://www.w3.org/2000/svg" xmlns:xlink="http://www.w3.org/1999/xlink" version="1.1" viewBox="-10 0 1074 1000">
   <path fill="currentColor"
d="M0 816v-173h229q28 0 52 -10q31 84 98 145q-71 38 -150 38h-229zM0 358v-173h229q65 0 123 25t101 67t68 101t25 123q0 58 41 100t101 42h92v-52q0 -16 10 -22t22 3l234 144q8 5 8 14q0 3 -2 7t-4 5l-2 2l-234 143q-13 9 -22 3t-10 -21v-54l-4 1q-3 1 -3 0h-85
q-64 0 -123 -25t-101 -67t-67 -101t-25 -122q0 -59 -42 -101t-101 -42h-229zM538 222q68 -37 150 -37h92v-54q0 -15 10 -21t22 3l234 144q8 6 8 14q0 4 -2 7t-4 5l-2 2l-234 144q-13 8 -22 2t-10 -21v-53h-4q-3 0 -3 1h-85q-26 0 -51 10q-32 -85 -99 -146z" />
</svg>
