<?xml version="1.0" standalone="no"?>
<!DOCTYPE svg PUBLIC "-//W3C//DTD SVG 1.1//EN" "http://www.w3.org/Graphics/SVG/1.1/DTD/svg11.dtd" >
<svg xmlns="http://www.w3.org/2000/svg" xmlns:xlink="http://www.w3.org/1999/xlink" version="1.1" viewBox="-10 0 949 1000">
   <path fill="currentColor"
d="M464 376q18 0 33 10l124 82q34 22 61 54l81 95q23 26 17 59l-41 231q-3 18 -16 30t-31 14l-294 31l-196 18h-6q-21 0 -37 -16t-16 -37t15 -36t36 -18l145 -18h-250q-23 0 -38 -17t-14.5 -39t17.5 -37t38 -14l247 -1l-291 -35q-23 -3 -37 -21t-10 -41q3 -19 19 -32t36 -12
h6l268 33l-195 -52q-22 -6 -35 -24t-10 -38t18 -32t35 -13l11 1l250 54l121 20q1 0 2 1t2 0q12 0 17 -13t-7 -20l-104 -70q-20 -13 -24 -35t10 -41q15 -21 43 -21zM425 488l104 70l-122 -21l-3 -1l-20 -21l-133 -146q0 -1 -1 -2l-2 -2q-13 -17 -10 -39t20.5 -35.5
t38.5 -10.5t36 19l79 82l-3 2q-2 1 -2 3q-18 25 -13 55t31 47zM920 235l8 148q2 41 -6 82l-27 123q-7 32 -37 48l-59 30q1 -34 -22 -61l-82 -94q-29 -34 -65 -58l-124 -83q-19 -12 -42 -12q-29 0 -49 20l-131 -174q-14 -18 -11 -41t22.5 -35.5t40.5 -7.5t35 22l149 197
l-147 -254q-11 -20 -5 -42t26 -32.5t40 -3.5t33 25l134 235l-76 -188q-8 -20 -2 -42t24 -31q21 -11 43 -3t31 28l108 232l56 109q5 9 13 10t15 -4t6 -15l-6 -125q-2 -23 14 -39t39 -18q21 0 37 16t17 38z" />
</svg>
