<?xml version="1.0" standalone="no"?>
<!DOCTYPE svg PUBLIC "-//W3C//DTD SVG 1.1//EN" "http://www.w3.org/Graphics/SVG/1.1/DTD/svg11.dtd" >
<svg xmlns="http://www.w3.org/2000/svg" xmlns:xlink="http://www.w3.org/1999/xlink" version="1.1" viewBox="-10 0 874 1000">
   <path fill="currentColor"
d="M424 206q-23 0 -40.5 -17t-17.5 -41t17 -40.5t41 -16.5t40.5 17t16.5 40.5t-16.5 40.5t-40.5 17zM751 950q7 18 -0.5 35t-25.5 24q-5 2 -16 2q-14 0 -25.5 -7.5t-15.5 -21.5l-14 -35h-460l-14 35q-4 14 -16 21.5t-25 7.5q-11 0 -16 -2q-18 -7 -25.5 -24t-1.5 -35
l278 -714l42 -29h17l41 29zM573 738l-44 -111l-71 71l77 77zM424 356l-70 181h140zM511 582h-170l85 84zM320 623l-44 112l42 40l77 -77zM211 902h170l-122 -121zM426 885l78 -78l-78 -77l-77 77zM471 902h165l-46 -119zM636 320l-37 -37q19 -18 29.5 -43.5t10.5 -51.5
q0 -23 -9.5 -46t-26.5 -42l35 -35q25 29 40 60q15 34 15 68t-14 66.5t-43 60.5zM770 392l-39 -39q33 -31 50 -73t15 -88q2 -45 -15 -87.5t-50 -74.5l38 -37q41 40 63 94q21 52 22 109q-1 55 -20 103q-22 53 -64 93zM219 61l36 37q-19 18 -29.5 43.5t-10.5 50t9.5 48
t26.5 41.5l-35 35q-25 -26 -40 -60t-15 -67.5t14.5 -66.5t43.5 -61zM84 -12l39 40q-33 32 -50 73.5t-17 87.5t17 87.5t50 74.5l-38 39q-41 -42 -62.5 -94.5t-22.5 -109.5q1 -55 20 -103q22 -53 64 -95z" />
</svg>
