<?xml version="1.0" standalone="no"?>
<!DOCTYPE svg PUBLIC "-//W3C//DTD SVG 1.1//EN" "http://www.w3.org/Graphics/SVG/1.1/DTD/svg11.dtd" >
<svg xmlns="http://www.w3.org/2000/svg" xmlns:xlink="http://www.w3.org/1999/xlink" version="1.1" viewBox="-10 0 1020 1000">
   <path fill="currentColor"
d="M143 804v107q0 8 -5 13t-13 5h-107q-8 0 -13 -5t-5 -13v-107q0 -8 5 -13t13 -5h107q8 0 13 5t5 13zM357 732v179q0 8 -5 13t-13 5h-107q-8 0 -13 -5t-5 -13v-179q0 -8 5 -13t13 -5h107q8 0 13 5t5 13zM571 589v322q0 8 -5 13t-12 5h-108q-7 0 -12 -5t-5 -13v-322
q0 -8 5 -13t12 -5h108q7 0 12 5t5 13zM786 375v536q0 8 -5 13t-13 5h-107q-8 0 -13 -5t-5 -13v-536q0 -8 5 -13t13 -5h107q8 0 13 5t5 13zM1000 89v822q0 8 -5 13t-13 5h-107q-8 0 -13 -5t-5 -13v-822q0 -8 5 -13t13 -5h107q8 0 13 5t5 13z" />
</svg>
