<?xml version="1.0" standalone="no"?>
<!DOCTYPE svg PUBLIC "-//W3C//DTD SVG 1.1//EN" "http://www.w3.org/Graphics/SVG/1.1/DTD/svg11.dtd" >
<svg xmlns="http://www.w3.org/2000/svg" xmlns:xlink="http://www.w3.org/1999/xlink" version="1.1" viewBox="-10 0 1016 1000">
   <path fill="currentColor"
d="M732 502q118 38 118 136q0 102 -127 197t-313 95q-160 0 -285 -78t-125 -196q0 -130 146 -280q92 -92 186 -129t134 3q36 36 10 116q-4 14 8 14l16 -2q74 -34 134 -34t84 35t-2 99q-6 18 16 24zM410 856q122 -12 202 -77t71 -145t-99 -128t-212 -36t-202 77t-71 145
t99 128t212 36zM996 368v2q0 14 -11 24t-25 10t-24 -10t-10 -24q0 -96 -68 -163t-162 -67q-16 0 -26 -10t-10 -26q0 -34 36 -34q124 0 212 87t88 211zM856 364q4 14 -4 27t-22 15q-34 4 -42 -28q-8 -38 -36 -66t-66 -36q-34 -8 -26 -40q8 -36 42 -28q58 12 100 55t54 101z
M328 574q48 -10 88 12t49 62t-20 77t-79 45q-48 10 -88 -12t-48 -62t20 -76t78 -46z" />
</svg>
