<?xml version="1.0" standalone="no"?>
<!DOCTYPE svg PUBLIC "-//W3C//DTD SVG 1.1//EN" "http://www.w3.org/Graphics/SVG/1.1/DTD/svg11.dtd" >
<svg xmlns="http://www.w3.org/2000/svg" xmlns:xlink="http://www.w3.org/1999/xlink" version="1.1" viewBox="-10 0 970 1000">
   <path fill="currentColor"
d="M450 100q-42 0 -69 22q-31 26 -31 78q0 18 2 29l40 168l-186 114l-168 -99q-8 -4 -22 -1q-7 2 -11.5 8.5t-4.5 14.5q0 15 13 22l725 425q32 19 62 19q22 0 38.5 -6.5t32.5 -20.5l21 -21q8 -8 8 -21q0 -8 -5 -15t-15 -8q-13 -1 -22 9q-18 22 -39 31q-11 5 -22 3
q-14 -1 -34 -14l-465 -271l180 -105q13 -9 18.5 -24t1.5 -29l-20 -83l179 105l34 129q3 11 10.5 20t17.5 13l114 50q28 12 47 8q17 -4 22.5 -18.5t-2.5 -30t-27 -23.5l-93 -41l-80 -312l-153 -88q-66 -37 -97 -37zM850 200q-41 0 -70.5 29.5t-29.5 70.5t29.5 70.5t70.5 29.5
t70.5 -29.5t29.5 -70.5t-29.5 -70.5t-70.5 -29.5z" />
</svg>
