<?xml version="1.0" standalone="no"?>
<!DOCTYPE svg PUBLIC "-//W3C//DTD SVG 1.1//EN" "http://www.w3.org/Graphics/SVG/1.1/DTD/svg11.dtd" >
<svg xmlns="http://www.w3.org/2000/svg" xmlns:xlink="http://www.w3.org/1999/xlink" version="1.1" viewBox="-10 0 1163 1000">
   <path fill="currentColor"
d="M798 325zM943 439q83 0 141 55t59 137q0 87 -61 145t-149 59q-47 0 -90 -16t-77 -41t-66 -59t-61 -70t-58 -74t-60 -71t-66 -59t-75 -41t-89 -15q-86 0 -141 51t-54 136q0 88 58 140t147 52q56 0 116 -21t108 -55l11 -10q9 -8 17 -14t12 -5q8 0 14 6t6 13q0 14 -34 43
q-56 50 -130 80t-147 30t-136 -33t-100 -92t-38 -134q0 -115 79 -190t194 -76q67 0 126 24t104 63t84 85t78 94t74 86t84 63t96 24q57 0 94 -34t37 -91q0 -53 -36 -89t-89 -36q-16 0 -45 11t-38 10q-12 0 -20 -8t-9 -20q0 -10 5 -32t5 -33q0 -88 -60 -146t-149 -58
q-32 0 -62 10t-47 23t-31 22t-19 10q-8 0 -14 -5t-6 -15t14 -25q33 -38 82 -58t102 -20q106 0 177 70t71 176q0 20 -2 36q32 -8 64 -8z" />
</svg>
