<?xml version="1.0" standalone="no"?>
<!DOCTYPE svg PUBLIC "-//W3C//DTD SVG 1.1//EN" "http://www.w3.org/Graphics/SVG/1.1/DTD/svg11.dtd" >
<svg xmlns="http://www.w3.org/2000/svg" xmlns:xlink="http://www.w3.org/1999/xlink" version="1.1" viewBox="-10 0 877 1000">
   <path fill="currentColor"
d="M655 593q0 -28 -11 -51t-27 -38t-41 -27t-46 -19t-49 -13l-83 -20q-8 -2 -19 -6t-17 -9t-9 -12t-4 -16q0 -43 80 -43q24 0 43 6t30 16l21 19q10 9 23 16t27 7q26 0 42 -18t16 -43q0 -31 -32 -55t-79 -38t-101 -13q-38 0 -74 9t-67 26t-49 48t-19 72q0 34 10 60t32 42
t44 27t58 18l81 20q51 12 63 20q18 11 18 33t-23 37t-58 14q-29 0 -51 -9t-37 -22t-25 -25t-26 -21t-30 -9q-28 0 -42 17t-14 41q0 52 68 88t162 37q41 0 78 -10t69 -30t49 -52t19 -74zM857 714q0 89 -63 152t-151 63q-73 0 -131 -45q-43 9 -83 9q-80 0 -153 -31t-126 -84
t-83 -125t-31 -153q0 -41 9 -84q-45 -58 -45 -130q0 -89 63 -152t151 -63q73 0 131 45q43 -9 84 -9q79 0 152 31t126 84t84 125t30 153q0 41 -8 84q44 58 44 130z" />
</svg>
