<?xml version="1.0" standalone="no"?>
<!DOCTYPE svg PUBLIC "-//W3C//DTD SVG 1.1//EN" "http://www.w3.org/Graphics/SVG/1.1/DTD/svg11.dtd" >
<svg xmlns="http://www.w3.org/2000/svg" xmlns:xlink="http://www.w3.org/1999/xlink" version="1.1" viewBox="-10 0 1006 1000">
   <path fill="currentColor"
d="M0 273q0 -113 80 -193t193 -80q78 0 145 42q36 -7 80 -7q195 0 333 138t138 332q0 49 -11 101q28 59 28 121q0 113 -80 193t-193 80q-68 0 -129 -32q-45 8 -86 8q-194 0 -332 -138t-138 -333q0 -47 9 -94q-37 -65 -37 -138zM221 639q0 41 30 85q71 104 246 104
q50 0 97 -11t87 -34t66 -64t25 -94q0 -58 -29 -98t-74 -58t-95 -33t-96 -23t-73 -26t-30 -44q0 -33 37 -49t74 -16q40 0 66 12t38 30t21 35t25 30t39 13q27 0 48 -19t20 -46t-15 -54q-30 -55 -95 -80t-138 -25q-46 0 -89 9t-83 29t-64 56t-25 87q0 66 40 106t97 57t115 29
t97 33t40 59q0 29 -23 49t-50 27t-57 7q-38 0 -64 -11t-39 -27t-22 -35t-18 -35t-23 -27t-37 -10q-28 0 -48 17t-21 45z" />
</svg>
