<?xml version="1.0" standalone="no"?>
<!DOCTYPE svg PUBLIC "-//W3C//DTD SVG 1.1//EN" "http://www.w3.org/Graphics/SVG/1.1/DTD/svg11.dtd" >
<svg xmlns="http://www.w3.org/2000/svg" xmlns:xlink="http://www.w3.org/1999/xlink" version="1.1" viewBox="-10 0 1020 1000">
   <path fill="currentColor"
d="M958 572q6 -35 6 -72q0 -126 -63 -234q-62 -105 -167 -167q-108 -63 -234 -63q-37 0 -72 6q-67 -42 -148 -42q-76 0 -140 37.5t-102 101.5q-38 65 -38 141q0 81 42 148q-6 34 -6 72q0 126 63 234q62 105 167 167q108 63 234 63q38 0 72 -6q67 42 148 42q76 0 140.5 -37.5
t102 -102t37.5 -140.5q0 -81 -42 -148zM720 711q-28 42 -85.5 66t-134.5 24q-93 0 -153 -33q-42 -22 -69.5 -62.5t-27.5 -76.5q0 -23 16.5 -38.5t42.5 -15.5q20 0 35 12.5t24 35.5q11 26 25.5 45.5t38.5 31t65 11.5q56 0 90 -24t34 -59q0 -29 -18.5 -46t-47.5 -26
q-34 -10 -80 -20q-71 -16 -113 -34q-48 -21 -73 -54q-27 -35 -27 -85q0 -48 29.5 -86.5t82.5 -58t125 -19.5q59 0 100 13t70 36q27 21 41 46q13 28 13 49t-16.5 38.5t-40 17.5t-36.5 -11q-14 -14 -24 -33q-19 -34 -41 -51.5t-75 -17.5q-47 0 -77 20t-30 46q0 16 10.5 28.5
t26.5 21.5q12 6 36 14l60 15q41 8 96 25q40 12 73 34q30 19 47.5 50.5t17.5 74.5q0 54 -30 96z" />
</svg>
