<?xml version="1.0" standalone="no"?>
<!DOCTYPE svg PUBLIC "-//W3C//DTD SVG 1.1//EN" "http://www.w3.org/Graphics/SVG/1.1/DTD/svg11.dtd" >
<svg xmlns="http://www.w3.org/2000/svg" xmlns:xlink="http://www.w3.org/1999/xlink" version="1.1" viewBox="-11 0 984 1000">
   <path fill="currentColor"
d="M2 241q12 -89 75 -153q68 -65 160 -74t170 37q111 -18 219 17t185 112q133 138 135 324q0 51 -10 99q27 57 27 120q-4 111 -78 187q-84 78 -189 78q-69 0 -125 -31q-139 23 -264 -29q-172 -76 -246 -244q-53 -141 -25 -272q-45 -82 -34 -171zM213 635q4 49 35 89t71 61
q166 69 308 10q57 -24 91 -70t34 -104q2 -105 -105 -154q-47 -20 -90 -32l-56 -12q-41 -9 -63 -15q-25 -8 -49 -24t-23 -38q4 -36 37 -49t72 -16q74 -2 117 71q16 25 30 37t37 11q27 -2 47 -20t19 -44q-4 -53 -42 -88t-93 -53q-134 -33 -242 8q-55 20 -87 62t-34 92
q2 45 23 79t58 55t70 31t78 21q54 12 86 21q66 24 66 71q0 35 -35 58q-92 45 -158 12q-41 -20 -67 -76q-23 -53 -66 -55q-28 2 -47 20t-22 41z" />
</svg>
