<?xml version="1.0" standalone="no"?>
<!DOCTYPE svg PUBLIC "-//W3C//DTD SVG 1.1//EN" "http://www.w3.org/Graphics/SVG/1.1/DTD/svg11.dtd" >
<svg xmlns="http://www.w3.org/2000/svg" xmlns:xlink="http://www.w3.org/1999/xlink" version="1.1" viewBox="-10 0 958 1000">
   <path fill="currentColor"
d="M633 881q82 0 141 -62t60 -146q0 -45 -21 -94q7 -39 7 -76q0 -149 -100.5 -253.5t-245.5 -104.5q-31 0 -60 7q-50 -33 -109 -33q-84 0 -142 61t-59 145q0 59 29 107q-8 37 -8 71q0 147 103 254q101 105 246 105q17 0 64 -6q42 25 95 25zM268 604q0 -20 14 -34t36 -13
q36 0 51 43q5 5 21 37q23 31 79 31q39 0 67 -16t29 -48q0 -14 -4 -24t-18 -16t-19 -10t-26 -9l-24 -6q-20 -6 -23 -6q-52 -11 -92 -29q-34 -14 -58 -43t-23 -72q0 -69 55 -103t137 -34q88 0 140 41q44 41 44 79q0 20 -15 35t-35 16q-14 0 -24 -6t-14 -12l-13 -21
q-23 -54 -89 -54q-33 0 -58 14t-25 35q0 44 105 61q10 2 77 20q75 27 100 72q12 26 12 63q0 75 -57 115t-145 39q-130 0 -183 -80q-22 -35 -22 -65zM305 15q68 0 126 28q28 -3 43 -3q187 0 319 137t132 326q0 20 -5 65q18 52 18 105q0 127 -89.5 219t-215.5 92
q-62 0 -113 -21q-19 3 -46 3q-188 0 -321 -136.5t-133 -326.5q0 -26 4 -55q-24 -55 -24 -123q0 -127 88 -217q90 -93 217 -93z" />
</svg>
