<?xml version="1.0" standalone="no"?>
<!DOCTYPE svg PUBLIC "-//W3C//DTD SVG 1.1//EN" "http://www.w3.org/Graphics/SVG/1.1/DTD/svg11.dtd" >
<svg xmlns="http://www.w3.org/2000/svg" xmlns:xlink="http://www.w3.org/1999/xlink" version="1.1" viewBox="-10 0 958 1000">
   <path fill="currentColor"
d="M920 569q18 52 18 103q0 129 -89.5 221t-215.5 92q-58 0 -113 -22q-19 2 -46 2q-188 0 -321 -135.5t-133 -325.5q0 -29 4 -57q-24 -55 -24 -122q0 -128 88 -218q90 -92 217 -92q68 0 126 27q14 -1 43 -1q187 0 320 136q131 138 131 327q0 20 -5 65zM473 749q88 0 145 -40
t57 -114q0 -69 -52 -106q-32 -19 -60 -29q-7 -1 -104 -26q-53 -13 -69 -34q-9 -9 -9 -20q0 -23 26 -36t57 -14q66 0 89 54l13 21q3 5 13 11t25 6q20 0 35 -15t15 -36q0 -40 -44 -79q-52 -41 -140 -41q-82 0 -137 35t-55 103q0 42 23 72t58 44q40 17 92 29q30 6 64 15
q50 18 50 56q0 30 -29 46t-67 16q-56 0 -79 -31q-16 -31 -21 -36q-14 -43 -51 -43q-22 0 -36 14t-14 34q0 35 23 67t55 49q53 28 127 28z" />
</svg>
