<?xml version="1.0" standalone="no"?>
<!DOCTYPE svg PUBLIC "-//W3C//DTD SVG 1.1//EN" "http://www.w3.org/Graphics/SVG/1.1/DTD/svg11.dtd" >
<svg xmlns="http://www.w3.org/2000/svg" xmlns:xlink="http://www.w3.org/1999/xlink" version="1.1" viewBox="-10 0 940 1000">
   <path fill="currentColor"
d="M894 600q26 58 26 118q0 108 -75 185t-179 77q-62 0 -120 -32q-52 8 -80 8q-182 0 -311 -132t-129 -320q0 -44 10 -90q-36 -60 -36 -134q0 -108 74 -184t180 -76q74 0 136 40q32 -8 76 -8q182 0 310 132t128 320q0 46 -10 96zM690 720q30 -46 30 -100q0 -44 -16 -80
q-16 -30 -50 -54q-36 -22 -76 -36q-68 -20 -96 -26q-14 -2 -35 -7t-27 -7q-24 -8 -34 -14q-16 -8 -26 -22q-10 -10 -10 -26q0 -24 28 -42q26 -20 76 -20t74 18q26 22 38 50q16 26 26 36q16 12 38 12q26 0 46 -20q18 -18 18 -44q0 -20 -14 -52q-16 -24 -42 -48
q-28 -22 -74 -38q-48 -14 -102 -14q-72 0 -128 21t-86 61t-30 92t28 90q34 40 76 56q48 22 116 36q12 2 29 7t30 8l21 5q28 10 46 28q18 14 18 42q0 34 -32 56q-36 24 -90 24q-40 0 -64 -12q-26 -14 -36 -28q-24 -44 -26 -46q-8 -24 -24 -40q-20 -14 -40 -14q-28 0 -46 18
t-18 42q0 38 28 82q26 40 72 66q64 34 158 34q78 0 138 -24q60 -28 88 -70z" />
</svg>
