<?xml version="1.0" standalone="no"?>
<!DOCTYPE svg PUBLIC "-//W3C//DTD SVG 1.1//EN" "http://www.w3.org/Graphics/SVG/1.1/DTD/svg11.dtd" >
<svg xmlns="http://www.w3.org/2000/svg" xmlns:xlink="http://www.w3.org/1999/xlink" version="1.1" viewBox="-10 0 980 1000">
   <path fill="currentColor"
d="M588 492q20 12 28 30q10 20 10 44q0 32 -18 56q-12 22 -48 40q-38 14 -78 14q-54 0 -88 -20q-22 -12 -40 -36q-16 -26 -16 -46q0 -14 10 -24q14 -10 27 -10t21 8q8 4 14 22q2 6 7 15t7 11q6 8 20 16q16 6 36 6q32 0 50 -13t18 -30t-10 -26t-26 -15q-6 -2 -21 -5l-23 -5
q-20 -4 -66 -20q-20 -10 -42 -32q-16 -22 -16 -51t17 -51t48 -34t73 -12q34 0 56 8q20 4 42 20q18 18 24 28q6 16 6 30t-10 24t-23 10t-23 -6q-8 -8 -14 -20q-10 -18 -21 -28t-43 -10q-26 0 -42 11t-16 22t6 17q8 8 13 10t22 8t33 10q36 8 54 14q28 10 42 20zM480 20
q200 0 340 140t140 339t-140 340t-339 141t-340 -141t-141 -340t141 -339t339 -140zM596 768q58 0 100 -43t42 -103q0 -34 -16 -66q6 -28 6 -54q0 -104 -72 -178t-174 -74q-28 0 -42 2q-34 -22 -74 -22q-60 0 -102 43t-42 103q0 40 20 76q-4 16 -4 50q0 104 72 178t172 74
q32 0 46 -4q30 18 68 18z" />
</svg>
