<?xml version="1.0" standalone="no"?>
<!DOCTYPE svg PUBLIC "-//W3C//DTD SVG 1.1//EN" "http://www.w3.org/Graphics/SVG/1.1/DTD/svg11.dtd" >
<svg xmlns="http://www.w3.org/2000/svg" xmlns:xlink="http://www.w3.org/1999/xlink" version="1.1" viewBox="-10 0 1020 1000">
   <path fill="currentColor"
d="M1000 728q0 113 -81 193t-196 80q-69 0 -130 -32q-46 8 -88 8q-196 0 -336 -138t-141 -333q0 -42 10 -94q-38 -64 -38 -138q0 -113 82 -193t195 -80q81 0 147 42q38 -7 81 -7q129 0 239 62t174 171t64 237q0 56 -11 101q29 58 29 121zM783 626q0 -50 -22 -87t-57 -56
t-79 -34t-86 -23t-78 -18t-58 -25t-22 -39q0 -34 37 -50t75 -15q40 0 67 12t38 30l22 35q11 17 25 30t41 13t48 -19t20 -46t-15 -54q-30 -55 -96 -80t-141 -25q-46 0 -89 9t-85 28t-66 57t-25 87q0 66 41 106t99 57t116 29t99 33t40 59q0 42 -42 62t-90 21q-45 0 -74 -15
t-41 -36t-23 -43t-26 -36t-42.5 -14.5t-48.5 16.5t-21 45q0 42 31 85q72 104 249 104q50 0 97 -11t89 -34t68 -63t25 -95z" />
</svg>
