<?xml version="1.0" standalone="no"?>
<!DOCTYPE svg PUBLIC "-//W3C//DTD SVG 1.1//EN" "http://www.w3.org/Graphics/SVG/1.1/DTD/svg11.dtd" >
<svg xmlns="http://www.w3.org/2000/svg" xmlns:xlink="http://www.w3.org/1999/xlink" version="1.1" viewBox="-10 0 949 1000">
   <path fill="currentColor"
d="M848 433q34 0 57 23t24 56q0 54 -52 73l-96 33l31 93q4 12 4 26q0 33 -24 57t-56 24q-26 0 -48 -15t-29 -40l-31 -92l-173 59l31 91q4 14 4 27q0 33 -23 57t-57 24q-27 0 -48 -15t-29 -41l-31 -91l-85 30q-17 5 -28 5q-34 0 -57 -22t-23 -57q0 -26 16 -47t40 -30l87 -29
l-59 -175l-87 30q-14 5 -27 5q-33 0 -56 -23t-23 -56q0 -26 15 -48t40 -29l88 -30l-30 -88q-4 -14 -4 -27q0 -33 23 -57t57 -24q26 0 48 16t29 40l30 89l173 -59l-30 -89q-4 -13 -4 -26q0 -33 23 -57t57 -24q26 0 48 15t30 40l29 90l91 -31q11 -3 24 -3q33 0 57 22t24 55
q0 25 -17 45t-41 29l-88 30l59 177l91 -32q13 -4 26 -4zM405 579l173 -58l-59 -176l-173 60z" />
</svg>
