<?xml version="1.0" standalone="no"?>
<!DOCTYPE svg PUBLIC "-//W3C//DTD SVG 1.1//EN" "http://www.w3.org/Graphics/SVG/1.1/DTD/svg11.dtd" >
<svg xmlns="http://www.w3.org/2000/svg" xmlns:xlink="http://www.w3.org/1999/xlink" version="1.1" viewBox="-10 0 1012 1000">
   <path fill="currentColor"
d="M487 413q0 46 -35 79t-85 34t-85 -34t-36 -79q0 -47 36 -80t85 -33t85 33t35 80zM767 413q0 46 -35 79t-85 33.5t-85 -33.5t-36 -79q0 -47 36 -80t85.5 -33t84.5 33t35 80zM893 513v-372q0 -48 -18 -69t-62 -20h-620q-47 0 -63 19t-17 70v376q24 13 50 22l45 16
q19 7 45 10t40 6t39 2t32 1t32 -2t25 -1q38 0 53 15q3 4 5 5q15 14 34 29q4 -51 66 -49l70 3q19 1 30 -1t30 -2t34 -5t35 -7t37 -11t38 -15t40 -20zM984 511q-68 83 -208 140q47 159 -13 260q-36 63 -102 82q-58 18 -101 -8q-48 -28 -46 -92l-1 -182l-26 -6l-1 188
q2 64 -46 92q-44 26 -102 8q-66 -20 -102 -83q-58 -101 -12 -259q-140 -57 -208 -140q-14 -21 -2 -36t33 1q3 1 7 4l6 4v-387q0 -40 26 -69t64 -28h701q37 0 64 28t26 69v387l12 -8q21 -15 33 -1t-2 36z" />
</svg>
