<?xml version="1.0" standalone="no"?>
<!DOCTYPE svg PUBLIC "-//W3C//DTD SVG 1.1//EN" "http://www.w3.org/Graphics/SVG/1.1/DTD/svg11.dtd" >
<svg xmlns="http://www.w3.org/2000/svg" xmlns:xlink="http://www.w3.org/1999/xlink" version="1.1" viewBox="-10 0 1020 1000">
   <path fill="currentColor"
d="M0 238q0 -25 16 -46t41 -26l197 -47q-63 72 -63 168q0 185 253 283q28 11 54 24t55 34t46 46t17 56q0 43 -35 67t-80 24q-58 0 -121 -23t-105 -60l-79 179q56 31 144 61q-10 2 -31 9t-39 10t-32 3q-25 0 -45 -16t-27 -41l-164 -687q-2 -12 -2 -18zM419 284q0 -38 35 -59
t76 -20q49 0 110 17t88 47l61 -170q-90 -48 -186 -63q2 0 45 -12t72 -18t42 -6q25 0 46 16t26 41l164 687q2 12 2 18q0 25 -16 45t-41 27l-145 34q47 -70 47 -152q0 -111 -70 -183t-185 -109q-171 -58 -171 -140z" />
</svg>
