<?xml version="1.0" standalone="no"?>
<!DOCTYPE svg PUBLIC "-//W3C//DTD SVG 1.1//EN" "http://www.w3.org/Graphics/SVG/1.1/DTD/svg11.dtd" >
<svg xmlns="http://www.w3.org/2000/svg" xmlns:xlink="http://www.w3.org/1999/xlink" version="1.1" viewBox="-10 0 961 1000">
   <path fill="currentColor"
d="M418 564q150 58 160 142q8 60 -56 84q-22 10 -50 10q-56 0 -110 -20t-78 -40l-26 -18l-74 170q64 32 136 56l-80 20q-28 6 -52 -9t-32 -43l-154 -646q-6 -28 9 -53t43 -31l186 -44q-66 72 -60 182q6 78 72 141t166 99zM938 728q8 28 -8 53t-44 31l-136 34q42 -58 44 -136
q4 -88 -54 -164t-186 -118q-152 -52 -158 -126q-6 -52 56 -72q24 -10 54 -8q58 2 102 17t60 29l16 14l58 -160q-80 -42 -176 -60l134 -32q28 -6 52 9t32 43z" />
</svg>
