<?xml version="1.0" standalone="no"?>
<!DOCTYPE svg PUBLIC "-//W3C//DTD SVG 1.1//EN" "http://www.w3.org/Graphics/SVG/1.1/DTD/svg11.dtd" >
<svg xmlns="http://www.w3.org/2000/svg" xmlns:xlink="http://www.w3.org/1999/xlink" version="1.1" viewBox="-10 0 1021 1000">
   <path fill="currentColor"
d="M0 500q0 -207 147 -354t353 -146t354 146t146 354t-146 354t-354 146t-353 -146t-147 -354zM238 762h524v-524h-524v524zM318 516h364q0 76 -53 128t-129 53t-129 -53t-53 -128zM354 394q0 -23 16 -40t40 -16t40 16t17 40t-17 40t-40 17t-40 -17t-16 -40zM529 394
q0 -23 17 -40t40 -16t40 16t17 40t-17 40t-40 17t-40 -17t-17 -40z" />
</svg>
