<?xml version="1.0" standalone="no"?>
<!DOCTYPE svg PUBLIC "-//W3C//DTD SVG 1.1//EN" "http://www.w3.org/Graphics/SVG/1.1/DTD/svg11.dtd" >
<svg xmlns="http://www.w3.org/2000/svg" xmlns:xlink="http://www.w3.org/1999/xlink" version="1.1" viewBox="-11 0 879 1000">
   <path fill="currentColor"
d="M714 641q0 -13 -12 -15q-38 -9 -66 -33t-45 -61q-4 -10 -4 -14q0 -8 11 -14t24 -10t24 -11t11 -19t-10 -19t-22 -7q-7 0 -18 4t-17 5l-7 -1q3 -53 3 -64q0 -44 -9 -63q-21 -44 -58 -68t-85 -24q-111 0 -153 92q-10 19 -10 63q0 11 3 64q-2 1 -8 1t-18 -4t-16 -4
q-12 0 -22 6t-10 18t11 20t24 11t24 10t11 14q0 4 -4 14q-35 77 -110 94q-13 2 -13 15q0 25 77 38q1 2 3 14t7 17t12 5t22 -2l22 -3q19 0 37 9t30 18t32 18t43.5 8.5t43.5 -8.5t32 -18t30 -18t37 -9q8 0 23 3t21 2q9 0 13 -6t6 -17t3 -13q77 -13 77 -38zM857 500
q0 117 -57 215t-156 156t-215 58t-216 -58t-155 -156t-58 -215t58 -215t155 -156t216 -58t215 58t156 156t57 215z" />
</svg>
