<?xml version="1.0" standalone="no"?>
<!DOCTYPE svg PUBLIC "-//W3C//DTD SVG 1.1//EN" "http://www.w3.org/Graphics/SVG/1.1/DTD/svg11.dtd" >
<svg xmlns="http://www.w3.org/2000/svg" xmlns:xlink="http://www.w3.org/1999/xlink" version="1.1" viewBox="-10 0 940 1000">
   <path fill="currentColor"
d="M473 71q75 0 134 39t92 107q15 32 15 100q0 26 -5 106q8 4 15 4q10 0 29 -7t28 -8q16 0 32 10t15 26q0 18 -18 30t-38 18t-39 16t-18 26q0 9 7 24q21 46 57 84t81 57q16 6 45 12q15 4 15 20q0 39 -122 57q-4 6 -6 22t-8 26t-17.5 10t-35.5 -3t-36 -4q-20 0 -34 3
q-18 3 -35 13t-33 21l-32 22q-16 11 -43 19t-55.5 8t-53.5 -8t-41 -19l-65 -43q-15 -10 -35 -13q-14 -3 -35 -3q-13 0 -36 4t-33 5q-14 0 -19 -11t-8 -26t-6 -23q-123 -18 -123 -57q0 -16 16 -20q29 -6 45 -12q43 -18 80 -57t58 -84q6 -15 6 -24q0 -15 -17 -26t-39 -17
t-39 -17t-18 -29q0 -15 15 -26t31 -10q8 0 26 7t29 7t19 -4q-5 -79 -5 -106q0 -68 15 -100q36 -76 96 -110t147 -36z" />
</svg>
