<?xml version="1.0" standalone="no"?>
<!DOCTYPE svg PUBLIC "-//W3C//DTD SVG 1.1//EN" "http://www.w3.org/Graphics/SVG/1.1/DTD/svg11.dtd" >
<svg xmlns="http://www.w3.org/2000/svg" xmlns:xlink="http://www.w3.org/1999/xlink" version="1.1" viewBox="-10 0 877 1000">
   <path fill="currentColor"
d="M714 641q0 -13 -12 -15q-37 -8 -66 -33t-44 -61q-4 -7 -4 -14.5t11 -13.5t23 -10t24 -11t11 -20q0 -11 -10 -18t-22 -7q-6 0 -17 4t-18 5l-7 -1q3 -35 3 -64q0 -44 -9 -64q-21 -43 -58 -68t-85 -24q-110 0 -153 92q-10 21 -10 64q0 21 3 64l-8 1q-6 0 -18 -5t-17 -4
q-11 0 -21 7t-10 18.5t11 19.5t24 11t24 10t11 14t-4 14q-36 77 -111 94q-12 2 -12 15q0 26 77 38q1 3 3 15t6 17t12 5t23 -3t21 -3q20 0 38 9t30 18t32 18t43.5 8.5t43.5 -8.5t32 -18t30 -18t38 -9q7 0 22 3t22.5 2.5t11.5 -5.5t7 -17t2 -14q77 -12 77 -38zM857 232v536
q0 66 -47 113t-114 48h-535q-67 0 -114 -48t-47 -113v-536q0 -66 47 -113t114 -48h535q67 0 114 48t47 113z" />
</svg>
