<?xml version="1.0" standalone="no"?>
<!DOCTYPE svg PUBLIC "-//W3C//DTD SVG 1.1//EN" "http://www.w3.org/Graphics/SVG/1.1/DTD/svg11.dtd" >
<svg xmlns="http://www.w3.org/2000/svg" xmlns:xlink="http://www.w3.org/1999/xlink" version="1.1" viewBox="-11 0 1020 1000">
   <path fill="currentColor"
d="M0 344q0 -90 64 -154t155 -65q17 0 31 2q43 -61 109 -93q68 -33 141 -33t139.5 32.5t110.5 93.5q13 -2 31 -2q90 0 154 65t64 154t-64 154t-154 65q-42 0 -78 -14q-88 76 -203 76t-203 -76q-37 14 -78 14q-90 0 -155 -65t-64 -154zM348 888q3 -15 15 -21l35 -21
q-3 -19 0 -37l-35 -20q-12 -8 -15 -21t2 -27q7 -12 21 -16t27 4l35 21q14 -14 32 -19v-41q0 -14 10 -25t25 -11t24 11t11 25v41q17 5 31 19l35 -21q14 -8 28 -4t20.5 16.5t2.5 26.5t-16 21l-35 20q4 18 0 37l35 21q12 6 16 21t-3 26.5t-21 15.5t-27 -4l-35 -20
q-14 12 -31 18v41q0 15 -11 25t-24 10t-25 -10t-10 -25v-41q-17 -6 -32 -18l-35 20q-13 7 -27 4t-20.5 -15.5t-2.5 -26.5zM465 827q0 15 10 25t25 9t23 -9q12 -10 12 -25t-11 -24t-24 -10t-25 10t-10 24z" />
</svg>
