<?xml version="1.0" standalone="no"?>
<!DOCTYPE svg PUBLIC "-//W3C//DTD SVG 1.1//EN" "http://www.w3.org/Graphics/SVG/1.1/DTD/svg11.dtd" >
<svg xmlns="http://www.w3.org/2000/svg" xmlns:xlink="http://www.w3.org/1999/xlink" version="1.1" viewBox="-10 0 938 1000">
   <path fill="currentColor"
d="M874 623l-93 19l104 59q12 8 16 22t-3.5 27t-21.5 16t-27 -3l-104 -59l31 89q7 21 -7 35t-34 12t-27 -24l-57 -167l-151 -87v175l116 132q9 11 10 22t-7 21t-15 14t-21 3t-20 -13l-63 -71v119q0 15 -11 25t-25 11t-25 -11t-10 -25v-119l-63 71q-9 10 -20 13t-21 -3
t-16 -14t-6 -21t10 -22l116 -132v-175l-152 87l-57 167q-7 21 -27 24t-33 -12t-7 -35l31 -89l-104 59q-13 7 -27 3t-21.5 -16.5t-3.5 -26.5t16 -22l104 -59l-93 -19q-16 -3 -24 -16t-4 -26t14 -22t28 -6l173 35l151 -88l-151 -88l-173 35h-8q-15 0 -24 -10t-11 -22t6 -24
t23 -14l93 -19l-104 -60q-13 -7 -16 -21t3 -27t22 -17t27 4l104 59l-31 -89q-7 -21 7 -35t33 -12t27 24l57 167l152 87v-175l-116 -132q-9 -11 -10 -22t6 -21t16 -14t21 -3t20 13l63 71v-119q0 -15 10 -25t25 -11t25 11t11 25v119l63 -71q8 -10 20 -13t21 3t15 14t7 21
t-10 22l-116 132v175l151 -87l57 -167q7 -21 27 -24t34 12t7 35l-31 89l104 -59q13 -7 27 -4t21.5 16.5t3.5 27.5t-16 21l-104 60l93 19q15 2 22 14t6 24t-10 22t-25 10h-7l-173 -35l-151 88l151 88l173 -35q16 -3 28 6t14 22t-5 26t-23 16z" />
</svg>
