<?xml version="1.0" standalone="no"?>
<!DOCTYPE svg PUBLIC "-//W3C//DTD SVG 1.1//EN" "http://www.w3.org/Graphics/SVG/1.1/DTD/svg11.dtd" >
<svg xmlns="http://www.w3.org/2000/svg" xmlns:xlink="http://www.w3.org/1999/xlink" version="1.1" viewBox="-11 0 1020 1000">
   <path fill="currentColor"
d="M0 344q0 -90 64 -154t155 -65q17 0 31 2q43 -61 109 -93q68 -33 141 -33t139.5 32.5t110.5 93.5q13 -2 31 -2q90 0 154 65t64 154t-64 154t-154 65q-42 0 -78 -14q-88 76 -203 76t-203 -76q-37 14 -78 14q-90 0 -155 -65t-64 -154zM60 736q-5 -19 14 -25l24 -6
q0 -12 6 -21l-18 -18q-14 -14 0 -28.5t29 -0.5l18 17q9 -3 21 -5l6 -24q6 -19 25 -13t14 25l-6 23q5 3 8 6l8 10l23 -8q20 -3 26 16t-16 25l-23 6q0 12 -6 21l17 18q16 14 1.5 28.5t-30.5 0.5l-16 -17l-21 6l-8 23q-4 20 -24.5 15t-14.5 -27l6 -23q-7 -4 -16 -16l-23 8
q-20 3 -24 -16zM144 725q14 13 28.5 -0.5t0 -28t-29 0t0.5 28.5zM348 888q3 -15 15 -21l35 -21q-3 -19 0 -37l-35 -20q-12 -8 -15 -21t2 -27q7 -12 21 -16t27 4l35 21q14 -14 32 -19v-41q0 -14 10 -25t25 -11t24 11t11 25v41q17 5 31 19l35 -21q14 -8 28 -4t20.5 16.5
t2.5 26.5t-16 21l-35 20q4 18 0 37l35 21q12 6 16 21t-3 26.5t-21 15.5t-27 -4l-35 -20q-14 12 -31 18v41q0 15 -11 25t-24 10t-25 -10t-10 -25v-41q-17 -6 -32 -18l-35 20q-13 7 -27 4t-20.5 -15.5t-2.5 -26.5zM465 827q0 15 10 25t25 9t23 -9q12 -10 12 -25t-11 -24
t-24 -10t-25 10t-10 24zM742 746q6 -19 25 -13l24 5q3 -5 6.5 -8.5t8.5 -6.5l-6 -24q-5 -19 14 -25t25 14l6 23q12 2 22 6l17 -18q15 -13 30 1q13 15 0 29l-18 17q6 10 6 22l23 6q20 5 15 24.5t-24 16.5l-24 -8q-8 12 -16 15l6 24q6 21 -14.5 26.5t-24.5 -14.5l-7 -24
q-13 -2 -22 -6l-16 18q-15 14 -29.5 -0.5t0.5 -29.5l18 -17q-6 -9 -6 -22l-24 -5q-21 -6 -15 -26zM827 787q14 14 28.5 0.5t-0.5 -27.5q-14 -16 -28.5 -1t0.5 28z" />
</svg>
