<?xml version="1.0" standalone="no"?>
<!DOCTYPE svg PUBLIC "-//W3C//DTD SVG 1.1//EN" "http://www.w3.org/Graphics/SVG/1.1/DTD/svg11.dtd" >
<svg xmlns="http://www.w3.org/2000/svg" xmlns:xlink="http://www.w3.org/1999/xlink" version="1.1" viewBox="-11 0 1020 1000">
   <path fill="currentColor"
d="M0 344q0 -90 64 -154t155 -65q17 0 31 2q43 -61 109 -93q68 -33 141 -33t139.5 32.5t110.5 93.5q13 -2 31 -2q90 0 154 65t64 154t-64 154t-154 65q-34 0 -67 -12q-3 -16 -11 -27q-9 -19 -31 -34q1 0 5 -5t9 -8t5 -6q41 29 90 29q64 0 110 -46t46 -110t-46 -110t-110 -46
q-31 0 -59 12q-32 -62 -91 -99.5t-131 -37.5t-131 37.5t-92 99.5q-27 -12 -58 -12q-65 0 -111 46t-45 110t45 110t111 46q48 0 89 -29q0 2 20 19q-22 15 -31 34q-8 11 -12 27q-33 12 -66 12q-90 0 -155 -65t-64 -154zM348 700q3 -14 15 -20l35 -22q-2 -9 -2 -18t2 -19
l-35 -19q-12 -8 -15 -22q-2 -5 -2 -9q0 -8 4 -17q7 -13 21 -17t27 4l35 22q14 -14 32 -20v-41q0 -13 10 -24t25 -11t24 11t11 24v41q17 6 31 20l35 -22q14 -8 28 -4t20 17q4 8 4 17q0 4 -1 9q-4 14 -16 22l-35 19q2 10 2 19t-2 18l35 22q12 6 16 20q1 6 1 11q0 8 -4 16
q-7 12 -21 15t-27 -4l-35 -19q-14 12 -31 17v41q0 16 -11 26t-24 10t-25 -10t-10 -26v-41q-17 -5 -32 -17l-35 19q-13 8 -27 4t-21 -15q-4 -8 -4 -16q0 -5 2 -11zM465 640q0 14 10 24t25 10t23 -10q12 -10 12 -24t-11 -25t-24 -9t-25 9t-10 25z" />
</svg>
