<?xml version="1.0" standalone="no"?>
<!DOCTYPE svg PUBLIC "-//W3C//DTD SVG 1.1//EN" "http://www.w3.org/Graphics/SVG/1.1/DTD/svg11.dtd" >
<svg xmlns="http://www.w3.org/2000/svg" xmlns:xlink="http://www.w3.org/1999/xlink" version="1.1" viewBox="-11 0 1020 1000">
   <path fill="currentColor"
d="M0 344q0 -90 64 -154t155 -65q17 0 31 2q43 -61 109 -93q68 -33 141 -33t139.5 32.5t110.5 93.5q13 -2 31 -2q90 0 154 65t64 154t-64 154t-154 65q-42 0 -78 -14q-88 76 -203 76t-203 -76q-37 14 -78 14q-90 0 -155 -65t-64 -154zM63 344q0 64 45 110t111 46
q48 0 89 -29q77 92 192 92t191 -92q41 29 90 29q64 0 110 -46t46 -110t-46 -110t-110 -46q-31 0 -59 12q-32 -62 -91 -99.5t-131 -37.5t-131 37.5t-92 99.5q-27 -12 -58 -12q-65 0 -111 46t-45 110zM348 888q3 -15 15 -21l35 -21q-2 -10 -2 -19t2 -18l-35 -20
q-12 -8 -15 -21q-2 -5 -2 -10q0 -8 4 -17q7 -12 21 -16t27 4l35 21q14 -14 32 -19v-41q0 -14 10 -25t25 -11t24 11t11 25v41q17 5 31 19l35 -21q14 -8 28 -4t20 16q4 9 4 17q0 5 -1 10q-4 13 -16 21l-35 20q2 9 2 18t-2 19l35 21q12 6 16 21q1 5 1 10q0 9 -4 16
q-7 12 -21 16t-27 -4l-35 -20q-14 12 -31 18v41q0 15 -11 25t-24 10t-25 -10t-10 -25v-41q-17 -6 -32 -18l-35 20q-13 7 -27 4t-21 -16q-4 -7 -4 -16q0 -5 2 -10zM465 827q0 15 10 25t25 9t23 -9q12 -10 12 -25t-11 -24t-24 -10t-25 10t-10 24z" />
</svg>
