<?xml version="1.0" standalone="no"?>
<!DOCTYPE svg PUBLIC "-//W3C//DTD SVG 1.1//EN" "http://www.w3.org/Graphics/SVG/1.1/DTD/svg11.dtd" >
<svg xmlns="http://www.w3.org/2000/svg" xmlns:xlink="http://www.w3.org/1999/xlink" version="1.1" viewBox="-11 0 1020 1000">
   <path fill="currentColor"
d="M0 344q0 -90 64 -154t155 -65q17 0 31 2q43 -61 109 -93q68 -33 141 -33t139.5 32.5t110.5 93.5q13 -2 31 -2q90 0 154 65t64 154t-64 154t-154 65q-42 0 -78 -14q-88 76 -203 76t-203 -76q-37 14 -78 14q-90 0 -155 -65t-64 -154zM60 736q-1 -3 -1 -7q0 -14 15 -18
l24 -6q0 -12 6 -21l-18 -18q-7 -7 -7 -14t7 -14.5t14.5 -7.5t14.5 7l18 17q9 -3 21 -5l6 -24q5 -15 17 -15q4 0 8 2q16 4 16 17q0 3 -2 8l-6 23q5 3 8 6l8 10l23 -8h6q15 0 20 16q1 4 1 8q0 13 -17 17l-23 6q0 12 -6 21l17 18q9 7 9 14t-7.5 14.5t-15.5 7.5t-15 -7l-16 -17
l-21 6l-8 23q-3 16 -16 16q-4 0 -8 -1q-16 -4 -16 -18q0 -4 1 -9l6 -23q-7 -4 -16 -16l-23 8q-3 1 -5 1q-16 0 -19 -17zM63 344q0 64 45 110t111 46q48 0 89 -29q77 92 192 92t191 -92q41 29 90 29q64 0 110 -46t46 -110t-46 -110t-110 -46q-31 0 -59 12q-32 -62 -91 -99.5
t-131 -37.5t-131 37.5t-92 99.5q-27 -12 -58 -12q-65 0 -111 46t-45 110zM144 725q7 7 14 7l15 -7q7 -7 7 -13.5t-7.5 -14.5t-15.5 -8l-13 7q-8 8 -8 15t8 14zM348 888q3 -15 15 -21l35 -21q-2 -10 -2 -19t2 -18l-35 -20q-12 -8 -15 -21q-2 -5 -2 -10q0 -8 4 -17
q7 -12 21 -16t27 4l35 21q14 -14 32 -19v-41q0 -14 10 -25t25 -11t24 11t11 25v41q17 5 31 19l35 -21q14 -8 28 -4t20.5 16.5t2.5 26.5t-16 21l-35 20q2 9 2 18t-2 19l35 21q12 6 16 21t-3 26.5t-21 15.5t-27 -4l-35 -20q-14 12 -31 18v41q0 15 -11 25t-24 10t-25 -10
t-10 -25v-41q-17 -6 -32 -18l-35 20q-13 7 -27 4t-21 -16q-4 -7 -4 -16q0 -5 2 -10zM465 827q0 15 10 25t25 9t23 -9q12 -10 12 -25t-11 -24t-24 -10t-25 10t-10 24zM742 746q4 -15 17 -15q4 0 8 2l24 5q3 -5 6.5 -8.5t8.5 -6.5l-6 -24q-1 -4 -1 -8q0 -13 15 -17q4 -1 8 -1
q13 0 17 15l6 23q12 2 22 6l17 -18q8 -6 15 -6t15 7q6 8 6 15t-6 14l-18 17q6 10 6 22l23 6q16 4 16 18q0 3 -1 7q-4 16 -19 16h-5l-24 -8q-8 12 -16 15l6 24q2 5 2 9q0 13 -16 17q-5 1 -8 1q-13 0 -17 -15l-7 -24q-13 -2 -22 -6l-16 18q-7 7 -14.5 7t-15 -7.5t-7.5 -14.5
t8 -15l18 -17q-6 -9 -6 -22l-24 -5q-17 -5 -17 -18q0 -3 2 -8zM827 787q7 7 14 7l15 -7q7 -7 7 -13.5t-7.5 -14t-15.5 -7.5l-13 7q-8 7 -8 14t8 14z" />
</svg>
