<?xml version="1.0" standalone="no"?>
<!DOCTYPE svg PUBLIC "-//W3C//DTD SVG 1.1//EN" "http://www.w3.org/Graphics/SVG/1.1/DTD/svg11.dtd" >
<svg xmlns="http://www.w3.org/2000/svg" xmlns:xlink="http://www.w3.org/1999/xlink" version="1.1" viewBox="-11 0 883 1000">
   <path fill="currentColor"
d="M818 664q22 5 35 23t7 40q-6 33 -40 42t-55 -15l-86 -98l21 76q6 24 -9 45t-42 22q-18 0 -31 -11t-19 -28l-21 -79q-33 26 -64 38l57 57q15 15 15 36t-15.5 37t-36 16t-36.5 -16l-37 -37h-12l34 104q7 21 -3 42t-32 28q-29 10 -55 -12t-14 -58l35 -104h-14l-36 37
q-15 15 -37 15t-37 -15t-15 -37t15 -36l58 -57q-32 -12 -64 -38l-21 79q-5 17 -19 28t-31 11q-28 0 -42 -22t-8 -45l20 -77l-87 99q-15 16 -38 17t-40 -14t-18 -37t14 -40q12 -13 30 -16l127 -27l-76 -21q-21 -6 -32 -25t-5 -39t23 -31t40 -5l79 20q-4 -19 -4 -36t4 -36
l-79 20q-10 2 -13 2q-18 0 -32 -11t-18 -28q-5 -20 5 -38t32 -25l76 -22l-127 -26q-23 -5 -35 -23t-8 -41q7 -32 40 -42t55 16l87 99l-20 -78q-7 -21 5 -40t31 -23q21 -7 40 5t24 31l21 79q32 -27 64 -38l-58 -57q-15 -15 -15 -37t15 -36t37 -15t37 15l56 56l-41 -123
q-8 -22 3 -42t32 -28q29 -10 54 12t15 58l-42 123l57 -56q15 -15 37 -15t36 15t15 36t-15 37l-57 57q31 11 64 38l21 -79q5 -20 24 -31t40 -5t32 25t5 38l-21 77l86 -98q15 -16 38 -17t40 13.5t18 37.5t-13 40q-13 12 -30 16l-128 26l78 22q20 5 31 23t5 40q-5 18 -19 28
t-31 11q-4 0 -14 -2l-79 -20q4 18 4 36t-4 36l79 -20q21 -6 40 5t24 31q6 22 -5 40t-31 24l-78 21zM431 630q54 0 92 -38t38 -92t-38 -92t-92 -38t-92 38t-39 92t39 92t92 38z" />
</svg>
