<?xml version="1.0" standalone="no"?>
<!DOCTYPE svg PUBLIC "-//W3C//DTD SVG 1.1//EN" "http://www.w3.org/Graphics/SVG/1.1/DTD/svg11.dtd" >
<svg xmlns="http://www.w3.org/2000/svg" xmlns:xlink="http://www.w3.org/1999/xlink" version="1.1" viewBox="-10 0 870 1000">
   <path fill="currentColor"
d="M425 75q-115 0 -214 58q-96 57 -153 153q-58 99 -58 214t58 214q57 96 153 153q99 58 214 58t214 -58q96 -57 153 -153q58 -99 58 -214t-58 -214q-57 -96 -153 -153q-99 -58 -214 -58zM425 150q98 0 182 51q81 49 126 132l-53 32q-27 17 -39 28q-16 15 -16 32v50
q0 21 11 40q13 22 39 35l88 42q-14 50 -47 102l-66 -44q-69 -46 -100 -25l-75 50q-23 15 -28 37q-3 14 3 38l23 97q-22 3 -48 3q-50 0 -100 -14v-86q0 -33 -16 -59q-9 -16 -34 -41t-41 -34q-26 -16 -59 -16h-86q-14 -50 -14 -100q0 -95 48 -177q46 -79 125 -125
q82 -48 177 -48zM275 325l-25 100q0 -1 -9 28q-5 17 -4 26q1 13 13 21l75 50q14 10 26 14t22 4t19 -2q7 -3 17 -7q41 -21 16 -9l50 -25q22 -11 29 -17q12 -8 16.5 -20.5t4.5 -37.5v-100q0 -16 -2 -22q-3 -10 -13.5 -16.5t-34.5 -11.5l-125 -25q-27 -6 -40 -3.5t-20.5 14.5
t-14.5 39z" />
</svg>
