<?xml version="1.0" standalone="no"?>
<!DOCTYPE svg PUBLIC "-//W3C//DTD SVG 1.1//EN" "http://www.w3.org/Graphics/SVG/1.1/DTD/svg11.dtd" >
<svg xmlns="http://www.w3.org/2000/svg" xmlns:xlink="http://www.w3.org/1999/xlink" version="1.1" viewBox="-10 0 1021 1000">
   <path fill="currentColor"
d="M0 567v-134l3 -59q3 -59 7 -62t14 -53t23 -55t36 -47t50 -47q146 -110 356 -110h16v777h124v-208l39 63q32 52 51 80q29 40 64 53t91 13h36v-118q-45 0 -63 -7t-42 -41q-14 -18 -37 -57t-26 -43l171 -238h-148l-136 189v-453q135 22 238 100q29 22 51 47t35 47t24 55
t14 53t7 62t2 59v134l-2 59q-2 59 -7 61t-14 53t-24 56t-35 46t-51 48q-146 110 -367 110t-367 -110q-29 -22 -50 -48t-36 -46t-23 -56t-14 -53t-7 -61t-3 -59zM81 716q66 67 192 67q80 0 138 -41t57 -118q0 -51 -18 -85t-45 -45t-58 -20t-59 -9t-45 -11t-18 -30
q0 -47 70 -46q57 0 87 29l78 -78q-60 -60 -170 -60q-78 0 -131 41t-54 118q0 51 21 83t51 45t63 17t59 9t37 14q10 11 10 30q0 46 -72 46q-77 0 -113 -36z" />
</svg>
