<?xml version="1.0" standalone="no"?>
<!DOCTYPE svg PUBLIC "-//W3C//DTD SVG 1.1//EN" "http://www.w3.org/Graphics/SVG/1.1/DTD/svg11.dtd" >
<svg xmlns="http://www.w3.org/2000/svg" xmlns:xlink="http://www.w3.org/1999/xlink" version="1.1" viewBox="-11 0 1116 1000">
   <path fill="currentColor"
d="M157 761q-21 0 -37 -16t-15 -37v-332l-29 15q-20 10 -41 3t-30 -27t-2 -41t27 -29l103 -51q28 -14 52 3t25 43v416q0 21 -16 37t-37 16zM626 761h-260q-33 0 -48 -32t10 -57l209 -209q20 -20 20 -49.5t-20 -49.5t-49 -20t-50 19.5t-21 50.5q0 22 -15 37t-36 15t-37 -15
t-16 -37q0 -72 52 -123q50 -50 123 -50t123.5 50.5t50.5 122.5t-51 123l-120 120h135q21 0 37 15t15 36t-15 37t-37 16zM1040 468q55 51 55 124q0 70 -50 119t-119 50t-120 -50t-50 -119q0 -21 16 -37t36 -16t37 16t16 37q0 27 19 46t46 19t46 -19t19 -46t-19 -47t-46 -19
q-21 0 -37 -15t-16 -37t16 -36t37 -16q16 0 27 -11t12 -28t-12 -27t-27 -12q-25 0 -35 22q-10 18 -31 25t-39 -4t-26 -31t3 -39q42 -78 128 -78q59 0 101 43t41 101q0 46 -28 85z" />
</svg>
