<?xml version="1.0" standalone="no"?>
<!DOCTYPE svg PUBLIC "-//W3C//DTD SVG 1.1//EN" "http://www.w3.org/Graphics/SVG/1.1/DTD/svg11.dtd" >
<svg xmlns="http://www.w3.org/2000/svg" xmlns:xlink="http://www.w3.org/1999/xlink" version="1.1" viewBox="-10 0 1274 1000">
   <path fill="currentColor"
d="M294 552l72 -144l72 144h-144zM679 824q-45 40 -105 40q-45 0 -82 -23t-57 -63l-10 -18h-119l-8 18q-20 40 -58 63t-82 23q-55 0 -95 -30t-54 -76q-21 -61 9 -120l208 -416q20 -39 58 -62t82 -22t83 22t57 62l94 188q26 -15 53 -15h13q-40 -43 -40 -103q0 -65 46 -111
t111 -46h312q45 0 83 24t57 63q43 87 -15 163l-125 167q65 0 111 45t45 111t-45 111t-111 45h-312q-60 0 -104 -40zM574 760q30 0 45 -25t2 -50l-208 -417q-14 -26 -47 -26t-46 26l-209 417q-12 25 2 50t45.5 25t45.5 -28l39 -75h247l38 75q13 28 46 28zM653 552h52
q21 0 36 -15t15 -37t-15 -36t-36 -16h-52q-22 0 -37 16t-16 36t16 37t37 15zM1095 760q21 0 37 -15t16 -37t-16 -36t-37 -15h-209l250 -334q20 -28 5 -56t-46 -28h-312q-22 0 -37 16t-16 37t16 37t37 15h208l-250 333q-20 28 -4 56t46 27h312z" />
</svg>
