<?xml version="1.0" standalone="no"?>
<!DOCTYPE svg PUBLIC "-//W3C//DTD SVG 1.1//EN" "http://www.w3.org/Graphics/SVG/1.1/DTD/svg11.dtd" >
<svg xmlns="http://www.w3.org/2000/svg" xmlns:xlink="http://www.w3.org/1999/xlink" version="1.1" viewBox="-11 0 593 1000">
   <path fill="currentColor"
d="M571 607q0 15 -10 25l-250 250q-11 11 -25 11t-25 -11l-250 -250q-11 -10 -11 -25t11 -25t25 -11h500q14 0 25 11t10 25zM571 393q0 14 -10 25t-25 11h-500q-15 0 -25 -11t-11 -25t11 -25l250 -250q10 -11 25 -11t25 11l250 250q10 10 10 25z" />
</svg>
