<?xml version="1.0" standalone="no"?>
<!DOCTYPE svg PUBLIC "-//W3C//DTD SVG 1.1//EN" "http://www.w3.org/Graphics/SVG/1.1/DTD/svg11.dtd" >
<svg xmlns="http://www.w3.org/2000/svg" xmlns:xlink="http://www.w3.org/1999/xlink" version="1.1" viewBox="-10 0 1168 1000">
   <path fill="currentColor"
d="M516 685q12 25 -2 50t-44 25q-33 0 -47 -29l-37 -75h-249l-37 75q-9 20 -30 27t-40.5 -2.5t-26.5 -29.5t3 -41l209 -417q13 -27 47 -27t46 27zM190 551h143l-72 -143zM1095 760h-313q-30 0 -45 -27t4 -57l250 -332h-209q-21 0 -37 -16t-15 -37t15 -36t37 -16h313
q30 0 45 28t-4 56l-250 333h209q21 0 37 15t15 37t-15 37t-37 15zM678 551h-105q-21 0 -36 -15t-15 -36t15 -37t36 -15h105q22 0 37 15t15 37t-15 36t-37 15z" />
</svg>
