<?xml version="1.0" standalone="no"?>
<!DOCTYPE svg PUBLIC "-//W3C//DTD SVG 1.1//EN" "http://www.w3.org/Graphics/SVG/1.1/DTD/svg11.dtd" >
<svg xmlns="http://www.w3.org/2000/svg" xmlns:xlink="http://www.w3.org/1999/xlink" version="1.1" viewBox="-10 0 867 1000">
   <path fill="currentColor"
d="M751 161q0 -35 -24 -65t-58 -29q-29 0 -46 21t-17 52t20 53t58 21q28 0 48 -15t19 -38zM411 804q0 6 -6 13l-178 178q-5 5 -12 5t-13 -5l-179 -179q-8 -9 -4 -19.5t17 -10.5h107v-768q0 -8 5 -13t13 -5h107q8 0 13 5t5 13v768h107q8 0 13 5t5 13zM813 936v64h-262v-64h93
v-251q0 -6 1 -10v-9h-2l-3 7q-5 7 -15 17l-35 33l-45 -48l107 -104h68v365h93zM829 194q0 34 -7 67t-23 64t-38 53t-55 37t-71 14q-35 0 -60 -9l-24 -9l22 -63q9 4 17 6q21 8 42 8q47 0 75 -33t37 -81h-1q-11 13 -34 20t-47 8q-59 0 -97 -40t-37 -96q0 -59 40 -99t101 -41
q69 0 115 53t45 141z" />
</svg>
