<?xml version="1.0" standalone="no"?>
<!DOCTYPE svg PUBLIC "-//W3C//DTD SVG 1.1//EN" "http://www.w3.org/Graphics/SVG/1.1/DTD/svg11.dtd" >
<svg xmlns="http://www.w3.org/2000/svg" xmlns:xlink="http://www.w3.org/1999/xlink" version="1.1" viewBox="-10 0 1306 1000">
   <path fill="currentColor"
d="M438 766l8 -135l-8 -292q-1 -5 -5 -9t-9 -4t-9 4t-4 9l-7 292l7 135q1 5 5 9t8 3q12 0 14 -12zM603 749l6 -117l-7 -327q0 -9 -7 -14q-5 -3 -9 -3t-9 3q-7 5 -7 14l-1 3l-5 323l6 132q0 6 3 10q5 6 12 6t12 -4.5t5 -11.5zM20 560l11 71l-11 70q-2 5 -5 5t-5 -5l-10 -70
l10 -71q1 -5 5 -5t5 5zM68 516l14 115l-14 113q-2 5 -6.5 5t-4.5 -5l-13 -113l13 -115q0 -5 4.5 -5t6.5 5zM224 768zM119 494l14 137l-14 132q0 6 -6 6t-7 -6l-12 -132l12 -137q1 -6 7 -6t6 6zM171 490l13 141l-13 136q-1 8 -8 8t-7 -8l-11 -136l11 -141q0 -7 7 -7t8 7z
M224 501l12 130l-12 137q-1 9 -9 9q-3 0 -6 -2t-2 -7l-12 -137l12 -130q0 -4 2 -6t6 -3q8 0 9 9zM438 766zM276 419l12 212l-12 137q0 4 -3 7t-6 3q-9 0 -10 -10l-10 -137l10 -212q1 -10 10 -10q4 0 6 3t3 7zM329 371l10 261l-10 136q0 5 -3 8t-8 3q-10 0 -11 -11l-9 -136
l9 -261q1 -11 11 -11q5 0 8 4t3 7zM383 349l10 282l-10 135q-1 12 -11.5 12t-12.5 -12l-9 -135l9 -282q0 -5 4 -9t8.5 -4t8.5 4t3 9zM602 763zM492 346l8 285l-8 133q0 6 -5 10t-9 4t-10 -3t-4 -11l-8 -133l8 -285q0 -6 4 -10t10 -3t9 3t5 10zM547 357l8 275l-8 131
q0 6 -5 11t-10 4t-11 -4t-5 -11l-6 -131l6 -275q1 -7 5 -11t11 -5t10 5zM665 632l-8 129q0 7 -5 12t-12 5t-12 -5t-6 -12l-6 -129l6 -357q1 -8 6.5 -12.5t11 -4.5t8.5 3q8 4 9 14zM1286 621q0 65 -47 111t-111 46h-439q-7 -1 -12 -6t-5 -12v-502q0 -13 16 -18
q47 -19 101 -19q108 0 188 73t89 181q30 -12 62 -12q65 0 111 46t47 112z" />
</svg>
