<?xml version="1.0" standalone="no"?>
<!DOCTYPE svg PUBLIC "-//W3C//DTD SVG 1.1//EN" "http://www.w3.org/Graphics/SVG/1.1/DTD/svg11.dtd" >
<svg xmlns="http://www.w3.org/2000/svg" xmlns:xlink="http://www.w3.org/1999/xlink" version="1.1" viewBox="-10 0 1172 1000">
   <path fill="currentColor"
d="M0 629q0 -16 4 -44t9 -31q6 3 11 32t4.5 43t-4.5 42t-11 32q-13 -7 -13 -74zM64 629q0 -25 5 -74l6 -61q0 -6 5 -6t7 6q12 129 12 135q0 24 -5 71t-7 59q-2 7 -7 7t-5 -7l-6 -59q-5 -48 -5 -71zM145 629q0 -24 5 -74t5 -54q0 -9 7.5 -9t7.5 9q11 113 11 128t-11 136
q0 8 -7.5 8t-7.5 -7.5t-5 -59.5t-5 -77zM237 629q0 -38 2 -81l7 -176q0 -10 9.5 -10t9.5 10l6 111q5 95 4 146q0 26 -5 77t-5 58q0 10 -9.5 10t-9.5 -10zM331 629q0 -55 3 -160l4 -128q2 -12 12 -12t12 12l5 133q4 101 3 155q0 25 -3 72t-5 60t-12 13t-12 -12q0 -11 -3 -59
t-4 -74zM426 629q0 -40 1 -85t3 -100t2 -85q2 -15 14 -15t14 15l3 85q2 55 2 100t1 85l-6 131v-1q-2 15 -14 15t-14 -14zM521 630q0 -3 6 -351q2 -18 16 -18t16 18l6 351l-6 127q-2 17 -16 17t-16 -17zM601 417q0 -82 1 -155q-1 -10 13 -18t32 -12t35 -5t24 -2q97 0 169 72
t80 179q28 -13 55 -13q58 0 100 45t42 111t-42 110t-100 46h-393q-6 0 -10 -6t-5 -13v-156q0 -101 -1 -183z" />
</svg>
