<?xml version="1.0" standalone="no"?>
<!DOCTYPE svg PUBLIC "-//W3C//DTD SVG 1.1//EN" "http://www.w3.org/Graphics/SVG/1.1/DTD/svg11.dtd" >
<svg xmlns="http://www.w3.org/2000/svg" xmlns:xlink="http://www.w3.org/1999/xlink" version="1.1" viewBox="-10 0 1069 1000">
   <path fill="currentColor"
d="M0 686q0 20 14 30t30 7t22 -11t6 -26v-141q0 -15 -11 -26t-25.5 -10.5t-24.5 10.5t-11 26v141zM112 747q0 14 10 21t26 7t26 -7t10 -21v-330q0 -15 -10 -25t-25.5 -10.5t-25.5 10.5t-11 25v330zM224 762q0 14 10 22t27 7q15 0 25 -7t10 -22v-301q0 -15 -10 -26t-25 -10.5
t-26 10.5t-11 26v301zM336 764q0 27 36 27t37 -27v-488q0 -41 -25 -47q-16 -4 -32 10t-16 37v488zM450 778v-531q0 -25 16 -30q32 -8 65 -8q74 0 139 35t104 96t46 134q30 -13 63 -13q69 0 117 49t48.5 116.5t-48.5 115.5t-116 49l-425 -1q-4 -1 -6 -5z" />
</svg>
