<?xml version="1.0" standalone="no"?>
<!DOCTYPE svg PUBLIC "-//W3C//DTD SVG 1.1//EN" "http://www.w3.org/Graphics/SVG/1.1/DTD/svg11.dtd" >
<svg xmlns="http://www.w3.org/2000/svg" xmlns:xlink="http://www.w3.org/1999/xlink" version="1.1" viewBox="-10 0 1022 1000">
   <path fill="currentColor"
d="M0 687q0 -39 27 -66l98 -98v-429q0 -30 16 -53t43 -33q15 -8 35 -8q39 0 66 27l688 688q45 45 19 101q-10 28 -33 43t-53 16h-429l-98 98q-27 27 -66 27t-67 -27l-219 -219q-27 -27 -27 -67zM63 687q0 14 9 22l219 219q8 10 22 10t21 -10l98 -98h2l-264 -264v2l-98 98
q-9 8 -9 21zM186 537l277 277l14 -2h377l-666 -666v377zM188 104l708 708h10q22 0 30 -19t-8 -33l-688 -688q-8 -9 -21 -9q-6 0 -12 1q-19 8 -19 30v10zM531 31q0 -13 9 -22t23 -9q181 0 309 128t128 309q0 14 -9 23t-22 9t-23 -9t-9 -23q0 -154 -110 -264t-264 -110
q-14 0 -23 -9t-9 -23zM547 141q0 -16 16 -16q128 0 220 92t92 220q0 16 -16 16t-15 -16q0 -117 -82 -199t-199 -82q-16 0 -16 -15z" />
</svg>
