<?xml version="1.0" standalone="no"?>
<!DOCTYPE svg PUBLIC "-//W3C//DTD SVG 1.1//EN" "http://www.w3.org/Graphics/SVG/1.1/DTD/svg11.dtd" >
<svg xmlns="http://www.w3.org/2000/svg" xmlns:xlink="http://www.w3.org/1999/xlink" version="1.1" viewBox="-10 0 958 1000">
   <path fill="currentColor"
d="M0 500q0 -95 37 -182t100 -149t150 -100t182 -37t182 37t149 100t100 149t37 182t-37 182t-100 150t-149 100t-182 37t-182 -37t-150 -100t-100 -150t-37 -182zM165 586q0 11 8 17t17.5 4t12.5 -6t3 -15v-82q0 -9 -5 -15t-15 -6t-15 6t-6 15v82zM230 621q0 8 6 12t14 5
q10 0 16 -5t6 -12v-191q0 -8 -6 -15t-16 -6q-8 0 -14 6t-6 15v191zM294 630q0 16 21 16t21 -16v-175q0 -8 -6 -14t-14.5 -6t-14.5 6t-7 14v175zM360 631q0 15 21 15t21 -15v-283q0 -23 -15 -26q-9 -3 -18 5t-9 21v283zM426 638q-1 6 5 8h245q40 0 68 -27t28.5 -67.5
t-28.5 -68.5t-68 -28q-18 0 -36 8q-6 -65 -54 -109t-114 -45q-19 0 -38 5q-8 3 -8 17v307z" />
</svg>
