<?xml version="1.0" standalone="no"?>
<!DOCTYPE svg PUBLIC "-//W3C//DTD SVG 1.1//EN" "http://www.w3.org/Graphics/SVG/1.1/DTD/svg11.dtd" >
<svg xmlns="http://www.w3.org/2000/svg" xmlns:xlink="http://www.w3.org/1999/xlink" version="1.1" viewBox="-11 0 958 1000">
   <path fill="currentColor"
d="M0 500q1 -30 22 -51t51 -21h128q29 0 51 21t21 51t-21 51t-51 21h-128q-30 0 -52 -21t-21 -51zM116 780q0 -29 22 -50l91 -91q21 -21 51 -21t50 20q21 22 21 52t-21 50l-91 91q-21 21 -51 21t-51 -21t-21 -51zM116 220q0 -30 21 -51t51 -21t51 21l91 91q21 21 21 51
t-21 51t-50 21t-51 -21l-92 -91q-21 -21 -21 -51zM397 897v-129q0 -30 21 -51t51 -21t51 21t21 51v129q0 29 -21 51t-51 21t-51 -21t-21 -51zM397 232v-128q0 -30 21 -51t51 -21t51 21t21 51v128q0 30 -21 51t-51 21.5t-51 -20.5t-21 -52zM587 690q0 -30 21 -51.5t50 -21.5
t51 21l91 91q21 21 21 51t-21 51t-51 21t-51 -21l-90 -91q-21 -21 -21 -50zM587 311q0 -30 21 -51l90 -91q21 -21 51 -21t51 21t21 51t-21 51l-91 91q-21 21 -51 21t-50 -21t-21 -51zM664 500q0 -30 22 -51t51 -21h128q30 0 51 21t21 51t-21 51t-51 21h-128q-30 0 -52 -21
t-21 -51z" />
</svg>
