<?xml version="1.0" standalone="no"?>
<!DOCTYPE svg PUBLIC "-//W3C//DTD SVG 1.1//EN" "http://www.w3.org/Graphics/SVG/1.1/DTD/svg11.dtd" >
<svg xmlns="http://www.w3.org/2000/svg" xmlns:xlink="http://www.w3.org/1999/xlink" version="1.1" viewBox="-11 0 1022 1000">
   <path fill="currentColor"
d="M855 841q-69 69 -164 104q-90 33 -189.5 30t-189.5 -40q-94 -39 -162 -107q-93 -93 -130 -220q-35 -123 -9 -248q26 -128 111 -227l16 -19q10 -10 19 -15q27 -17 60 -13.5t56 26.5t27 54t-10 58q-7 13 -16 22q-69 74 -95 170q-25 94 -3 185q23 94 90 161q74 74 179 94
q98 18 197 -16.5t166 -111.5q53 -61 81.5 -137t27.5 -156q0 -82 -32 -158q-41 -97 -124 -161q-80 -61 -182.5 -78t-203.5 17v-1q117 -41 236 -22q117 19 209 89q96 73 143 185q35 82 37 171q2 87 -26 170t-83 152q-16 22 -36 42z" />
</svg>
