<?xml version="1.0" standalone="no"?>
<!DOCTYPE svg PUBLIC "-//W3C//DTD SVG 1.1//EN" "http://www.w3.org/Graphics/SVG/1.1/DTD/svg11.dtd" >
<svg xmlns="http://www.w3.org/2000/svg" xmlns:xlink="http://www.w3.org/1999/xlink" version="1.1" viewBox="-10 0 1020 1000">
   <path fill="currentColor"
d="M46 706v0h-1q-11 -24 -20.5 -54t-15.5 -59q-14 -75 -5.5 -151t40.5 -147q2 -4 6.5 -5.5t8.5 0.5q2 0 2 1l80 59q4 2 5 6t-1 8q-7 16 -12.5 36.5t-8.5 40.5q-8 50 -2 101.5t25 99.5q3 8 -4 13l-80 56q-4 3 -8.5 2t-7.5 -5q-1 0 -1 -2v0zM166 132v0v-1q21 -19 46 -37
q29 -20 51 -31q67 -38 143 -53.5t154 -6.5q10 2 10 13l-1 2l-31 94q-1 4 -5 6t-8 1h-40q-26 2 -40 4q-51 8 -98.5 29.5t-87.5 54.5q-3 2 -7 2t-7 -2l-79 -58q-4 -2 -4.5 -7t2.5 -9zM754 67v0h1q24 14 50 32q16 12 46 38q56 52 94 119t54 143q2 5 -1 8.5t-8 4.5l-102 -1
q-4 0 -7 -2.5t-4 -6.5q-1 -7 -12 -38q-11 -27 -17 -36q-48 -94 -137 -150q-7 -4 -5 -13l31 -92q1 -4 5.5 -6.5t9.5 -0.5zM998 602v0v0q-6 30 -15 57q-12 32 -22 55q-33 70 -85.5 126.5t-119.5 94.5q-4 2 -9 1t-7 -5l-1 -2l-30 -94q-1 -4 0.5 -8t5.5 -6q16 -10 32.5 -23.5
t29.5 -26.5q75 -73 101 -176q3 -8 11 -8l98 1q5 0 8 3t3 8v3zM560 997v0v0q-30 3 -60 3q-34 0 -59 -4q-77 -9 -147.5 -40.5t-128.5 -84.5q-4 -3 -4 -7.5t4 -8.5l82 -59q4 -2 8.5 -1.5t7.5 3.5q20 16 32 23q22 14 34 20q94 47 200 41q9 0 12 8l29 92q2 4 0 8t-7 6q-1 1 -3 1
v0z" />
</svg>
