<?xml version="1.0" standalone="no"?>
<!DOCTYPE svg PUBLIC "-//W3C//DTD SVG 1.1//EN" "http://www.w3.org/Graphics/SVG/1.1/DTD/svg11.dtd" >
<svg xmlns="http://www.w3.org/2000/svg" xmlns:xlink="http://www.w3.org/1999/xlink" version="1.1" viewBox="-11 0 1021 1000">
   <path fill="currentColor"
d="M496 0q-130 0 -243 62q-109 60 -178 164q-26 39 -46 85q-17 40 -28 92v3q0 5 3 8.5t8 3.5h101q4 0 7 -2.5t4 -6.5q22 -84 78.5 -151t135.5 -102q26 -13 63 -23q49 -11 95 -11v0v0v0q40 0 74 7l14 3l8 2l6 2q4 1 8 -0.5t5 -5.5l52 -89q2 -5 -0.5 -9.5t-6.5 -5.5
q-38 -12 -65 -17l-13 -2q-38 -7 -82 -7v0v0zM823 114q-8 0 -11 6l-50 87q-2 3 -1.5 7t3.5 7q45 45 73 101l11 22q30 73 30 151v0v0q0 57 -16 110.5t-46 98.5q-14 22 -24 33q-13 16 -28 31v0v0v0q-3 3 -3.5 7t1.5 7l50 87q0 1 2.5 4t7 3t8.5 -3q89 -79 134 -190
q10 -25 15 -44q21 -69 21 -144q0 -80 -24 -155q-24 -74 -68 -136q-17 -24 -37 -46q-26 -28 -41 -41v0q-1 -1 -2 -1q-4 -2 -5 -2zM12 582v0h-3q-4 1 -7 5t-2 9q25 124 105.5 221t196.5 145q42 17 93 28q53 10 100 10v0v0q58 0 117 -14q5 -1 22 -5l23 -8q5 -2 6 -7t-2 -9
l-50 -87q-5 -8 -13 -6q-21 6 -42 9l-8 2q-27 3 -53 3v0v0q-94 0 -178 -44q-80 -42 -133 -116h-1q-20 -29 -35 -60.5t-24 -65.5q-1 -4 -4 -7t-7 -3h-101z" />
</svg>
