<?xml version="1.0" standalone="no"?>
<!DOCTYPE svg PUBLIC "-//W3C//DTD SVG 1.1//EN" "http://www.w3.org/Graphics/SVG/1.1/DTD/svg11.dtd" >
<svg xmlns="http://www.w3.org/2000/svg" xmlns:xlink="http://www.w3.org/1999/xlink" version="1.1" viewBox="-10 0 1020 1000">
   <path fill="currentColor"
d="M462 0q-4 0 -7.5 3t-3.5 8v183q0 4 3.5 7.5t7.5 3.5h70q5 0 8.5 -3t3.5 -8v-183q0 -5 -3.5 -8t-8.5 -3h-70zM712 47q-6 -1 -10 5l-91 158q-3 4 -2 9t6 7l60 34v1q4 2 9 1t7 -5l91 -158q2 -5 1 -9.5t-5 -6.5l-61 -35q-1 -1 -5 -1zM284 49q-2 0 -6 2l-61 35q-4 2 -5 7t1 9
l91 157v0q2 4 6.5 5.5t9.5 -0.5l61 -35q4 -3 5 -7.5t-1 -8.5l-91 -157v-1q-3 -6 -10 -6zM904 212q-4 0 -6 1l-157 91v0q-4 2 -5.5 6.5t0.5 9.5l35 61q3 4 7.5 5t8.5 -1l157 -91h1q4 -2 5 -7t-1 -9l-35 -61q-3 -7 -10 -5zM94 216q-8 0 -11 6l-35 61q-2 4 -1 8.5t5 6.5l158 91
q4 3 9 2t7 -6l35 -60v0q2 -4 1 -9t-5 -7l-158 -91q-4 -2 -5 -2zM806 451v0q-4 0 -7.5 3t-3.5 8v70q0 5 3 8.5t8 3.5h183q5 0 8 -3.5t3 -8.5v-70q0 -5 -3 -8t-8 -3h-183zM12 456v0q-5 0 -8.5 3.5t-3.5 8.5v70q0 5 3.5 8t8.5 3h182q5 0 8 -3.5t3 -7.5v-70q0 -5 -3 -8.5
t-8 -3.5h-182zM784 609q-7 0 -10 6l-34 60h-1q-2 4 -1 9t5 7l158 91q4 2 9 1t7 -5l35 -61q2 -4 1 -8.5t-5 -6.5l-158 -92q-2 -1 -6 -1zM218 614q-3 0 -5 1l-157 91h-1q-4 2 -5 7t1 9l35 61q2 4 7 5t9 -1l157 -91v0q4 -2 5.5 -6.5t-0.5 -9.5l-35 -61q-6 -6 -11 -5zM686 735
q-4 0 -6 1l-61 35q-4 3 -5 7.5t1 8.5l91 157v1q2 4 7 5t9 -1l61 -35q4 -2 5 -7t-1 -9l-91 -157v0q-3 -6 -10 -6zM319 737q-7 0 -10 6l-91 158q-2 4 -1 9t5 7l61 35q4 2 8.5 1t6.5 -5l92 -158q2 -5 0.5 -9.5t-5.5 -6.5l-60 -35v0zM468 795q-5 0 -8.5 3t-3.5 8v183q0 5 3.5 8
t8.5 3h70q5 0 8 -3.5t3 -7.5v-183q0 -5 -3 -8t-8 -3h-70z" />
</svg>
