<?xml version="1.0" standalone="no"?>
<!DOCTYPE svg PUBLIC "-//W3C//DTD SVG 1.1//EN" "http://www.w3.org/Graphics/SVG/1.1/DTD/svg11.dtd" >
<svg xmlns="http://www.w3.org/2000/svg" xmlns:xlink="http://www.w3.org/1999/xlink" version="1.1" viewBox="-10 0 1020 1000">
   <path fill="currentColor"
d="M494 0q-131 0 -244 64q-109 62 -176 169q-69 110 -74 239q0 8 2.5 12.5t6.5 6.5l4 1h84q19 0 19 -18q5 -98 58 -181q51 -81 134 -128q87 -49 186 -49q79 0 150 31t123 87l-58 57q-9 9 -8 18.5t13 12.5l247 50q11 3 21 -1.5t15 -15.5t1 -27l-58 -227q-2 -8 -11 -13.5
t-18 0.5l-65 60q-68 -70 -158 -108q-92 -40 -194 -40zM903 508q-19 0 -19 18q-5 98 -58 181q-51 81 -134 128q-86 49 -185 49q-80 0 -152 -32q-69 -30 -122 -86l59 -57q8 -9 7 -18.5t-12 -12.5l-248 -50q-11 -3 -21 1.5t-15 15.5t-1 27l58 227q2 8 11 13.5t19 -0.5l64 -60
q68 70 158 108q93 40 195 40q130 0 243 -64q110 -62 176 -169q69 -110 74 -240q0 -8 -2.5 -12t-6.5 -6l-4 -1h-84z" />
</svg>
