<?xml version="1.0" standalone="no"?>
<!DOCTYPE svg PUBLIC "-//W3C//DTD SVG 1.1//EN" "http://www.w3.org/Graphics/SVG/1.1/DTD/svg11.dtd" >
<svg xmlns="http://www.w3.org/2000/svg" xmlns:xlink="http://www.w3.org/1999/xlink" version="1.1" viewBox="-10 0 900 1000">
   <path fill="currentColor"
d="M440 60q182 0 311 129t129 311q0 110 -51 205t-139 157q-100 -170 -310 -176q-162 -6 -272 104q-108 -124 -108 -290q0 -184 128 -312t312 -128zM654 656q16 -22 -8 -38q-172 -106 -422 -48q-26 8 -20 33t32 21q228 -54 382 40q22 14 36 -8zM708 532q18 -30 -12 -48
q-100 -62 -235 -77t-251 19q-32 10 -24 44q12 32 42 22q104 -32 225 -18t209 68q28 20 46 -10zM712 402q34 20 55 -14t-13 -56q-116 -68 -288 -82t-282 24q-14 4 -22 19t-4 31q10 38 50 28q94 -34 249 -22t255 72zM376 816q120 6 172 110q-64 14 -108 14q-114 0 -214 -56
q58 -72 150 -68z" />
</svg>
