<?xml version="1.0" standalone="no"?>
<!DOCTYPE svg PUBLIC "-//W3C//DTD SVG 1.1//EN" "http://www.w3.org/Graphics/SVG/1.1/DTD/svg11.dtd" >
<svg xmlns="http://www.w3.org/2000/svg" xmlns:xlink="http://www.w3.org/1999/xlink" version="1.1" viewBox="-10 0 1020 1000">
   <path fill="currentColor"
d="M0 500q0 -136 67 -251t182 -182t251 -67t251 67t182 182t67 251q0 101 -38 192t-107 160q-60 -73 -145 -114t-183 -41q-107 0 -199 49t-151 135q-83 -71 -130 -170t-47 -211zM164 356q0 17 12 29t30 13q6 0 9 -1q144 -58 298 -58t298 58h4q3 0 5 1q17 0 30 -13t12 -29
q0 -25 -23 -37q-159 -63 -326 -63q-170 0 -329 64q-20 13 -20 36zM210 505l6 16q8 13 23 13q3 0 9 -2q127 -55 265.5 -55t266.5 56q4 2 7 2q15 0 23 -13l5 -17q0 -13 -10 -21q-138 -62 -291.5 -62t-293.5 62q-10 10 -10 21zM258 649q10 25 31 16q108 -51 224 -51
q112 0 219 48q24 13 35 -12q5 -13 0 -23t-14 -15q-106 -53 -240 -53q-128 0 -244 55q-19 10 -11 35zM319 966q37 -48 92 -76t116 -28q114 0 193 86q-104 52 -220 52q-94 0 -181 -34z" />
</svg>
