<?xml version="1.0" standalone="no"?>
<!DOCTYPE svg PUBLIC "-//W3C//DTD SVG 1.1//EN" "http://www.w3.org/Graphics/SVG/1.1/DTD/svg11.dtd" >
<svg xmlns="http://www.w3.org/2000/svg" xmlns:xlink="http://www.w3.org/1999/xlink" version="1.1" viewBox="-11 0 879 1000">
   <path fill="currentColor"
d="M629 675q0 -18 -17 -28q-107 -64 -249 -64q-74 0 -160 19q-24 5 -24 29q0 11 8 19t20 8q2 0 20 -5q74 -15 136 -15q126 0 221 58q11 6 20 6t17 -8t8 -19zM683 555q0 -22 -20 -34q-132 -79 -306 -79q-85 0 -169 24q-27 7 -27 36q0 14 10 23t24 10q4 0 20 -4
q69 -19 141 -19q155 0 272 69q13 8 21 8q14 0 24 -10t10 -24zM743 417q0 -26 -23 -39q-70 -41 -163 -62t-191 -21q-114 0 -204 26q-12 4 -21 15t-9 27.5t12 28.5t28 11q7 0 23 -4q74 -21 171 -21q89 0 173 19t141 53q12 7 23 7q16 0 28 -11t12 -29zM857 500q0 117 -57 215
t-156 156t-215 58t-216 -58t-155 -156t-58 -215t58 -215t155 -156t216 -58t215 58t156 156t57 215z" />
</svg>
