<?xml version="1.0" standalone="no"?>
<!DOCTYPE svg PUBLIC "-//W3C//DTD SVG 1.1//EN" "http://www.w3.org/Graphics/SVG/1.1/DTD/svg11.dtd" >
<svg xmlns="http://www.w3.org/2000/svg" xmlns:xlink="http://www.w3.org/1999/xlink" version="1.1" viewBox="-10 0 980 1000">
   <path fill="currentColor"
d="M480 20q198 0 339 140t141 340q0 120 -56 224t-152 170q-108 -186 -338 -192q-176 -6 -296 114q-118 -138 -118 -316q0 -200 140 -340t340 -140zM714 670q14 -26 -10 -40q-188 -114 -460 -54q-30 8 -22 37t36 21q246 -58 416 46q26 14 40 -10zM772 534q18 -34 -12 -50
q-110 -68 -256 -85t-276 21q-34 10 -24 45t46 27q112 -34 244 -19t228 73q32 20 50 -12zM776 392q38 24 62 -14q20 -38 -16 -62q-126 -74 -314 -89t-306 27q-18 4 -27 21t-3 34t22 26t34 3q102 -36 271 -23t277 77zM412 846q130 4 186 118q-60 16 -118 16q-126 0 -234 -62
q66 -74 166 -72z" />
</svg>
