<?xml version="1.0" standalone="no"?>
<!DOCTYPE svg PUBLIC "-//W3C//DTD SVG 1.1//EN" "http://www.w3.org/Graphics/SVG/1.1/DTD/svg11.dtd" >
<svg xmlns="http://www.w3.org/2000/svg" xmlns:xlink="http://www.w3.org/1999/xlink" version="1.1" viewBox="-11 0 951 1000">
   <path fill="currentColor"
d="M662 534l143 -140l-198 -29l-37 -5l-106 -213v537l33 17l178 94l-40 -235zM914 388l-202 197l48 279q2 19 -4 29t-19 11q-9 0 -22 -7l-251 -132l-250 132q-13 7 -24 7t-18 -11t-3 -29l48 -279l-203 -197q-18 -18 -13 -33t30 -20l280 -40l126 -254q11 -23 27 -23t28 23
l125 254l280 40q25 4 31 20t-14 33z" />
</svg>
