<?xml version="1.0" standalone="no"?>
<!DOCTYPE svg PUBLIC "-//W3C//DTD SVG 1.1//EN" "http://www.w3.org/Graphics/SVG/1.1/DTD/svg11.dtd" >
<svg xmlns="http://www.w3.org/2000/svg" xmlns:xlink="http://www.w3.org/1999/xlink" version="1.1" viewBox="-10 0 1070 1000">
   <path fill="currentColor"
d="M1050 386q0 15 -29 38l-275 200l105 323q5 17 5 30q0 24 -17.5 24t-38.5 -17l-275 -199l-275 199q-23 17 -40 17t-17 -23q0 -11 6 -31l105 -323l-275 -200q-29 -21 -29 -37q0 -23 49 -23l340 1l104 -324q12 -40 31.5 -40t31.5 40l106 324l339 -1q49 0 49 22z" />
</svg>
