<?xml version="1.0" standalone="no"?>
<!DOCTYPE svg PUBLIC "-//W3C//DTD SVG 1.1//EN" "http://www.w3.org/Graphics/SVG/1.1/DTD/svg11.dtd" >
<svg xmlns="http://www.w3.org/2000/svg" xmlns:xlink="http://www.w3.org/1999/xlink" version="1.1" viewBox="-10 0 997 1000">
   <path fill="currentColor"
d="M741 968q-19 0 -39 -12l-213 -121l-215 121q-44 24 -84 -3q-41 -29 -31 -79l50 -243l-84 -75l-99 -90q-37 -35 -21 -82t66 -54l244 -26l102 -225q22 -47 72 -47q47 0 71 47l101 225l245 27q48 4 65 52t-21 83l-183 166l50 242q7 35 -16 64t-60 30zM316 625q-1 4 -7 36
t-17 84l-20 92l190 -107q27 -14 52 0l190 107l-44 -213q-6 -29 16 -49l161 -148l-217 -23q-30 -4 -41 -30l-90 -199l-90 199q-13 26 -43 30l-216 23l161 148q21 19 15 50z" />
</svg>
