<?xml version="1.0" standalone="no"?>
<!DOCTYPE svg PUBLIC "-//W3C//DTD SVG 1.1//EN" "http://www.w3.org/Graphics/SVG/1.1/DTD/svg11.dtd" >
<svg xmlns="http://www.w3.org/2000/svg" xmlns:xlink="http://www.w3.org/1999/xlink" version="1.1" viewBox="-11 0 1019 1000">
   <path fill="currentColor"
d="M3 414q-12 -31 16 -50t91 -18h242l74 -222v-1q14 -45 33 -68t39.5 -23t39.5 23t33 68l1 1l73 222h242q63 0 91 18t16 50t-64 68l-5 4l-190 135l75 224q19 60 11 91t-40 32q-37 0 -88 -38l-2 -2l-3 -1l-189 -136l-195 139q-52 39 -88 39q-31 0 -40 -32t11 -92l75 -224
l-190 -135l-2 -3l-3 -1q-51 -37 -64 -68zM168 440l203 145l-78 238l206 -147l205 147l-78 -238l203 -145h-251l-21 -65l-58 -175l-80 240h-251z" />
</svg>
