<?xml version="1.0" standalone="no"?>
<!DOCTYPE svg PUBLIC "-//W3C//DTD SVG 1.1//EN" "http://www.w3.org/Graphics/SVG/1.1/DTD/svg11.dtd" >
<svg xmlns="http://www.w3.org/2000/svg" xmlns:xlink="http://www.w3.org/1999/xlink" version="1.1" viewBox="-10 0 949 1000">
   <path fill="currentColor"
d="M635 560l170 -166l-235 -34l-106 -213l-105 213l-236 34l171 166l-41 235l211 -111l211 111zM929 361q0 12 -15 27l-202 197l48 279v12q0 28 -23 28q-10 0 -22 -7l-251 -132l-250 132q-12 7 -23 7t-17 -9t-6 -19q0 -4 1 -12l48 -279l-203 -197q-14 -15 -14 -27
q0 -21 31 -26l280 -40l126 -254q11 -23 27 -23t28 23l125 254l280 40q32 5 32 26z" />
</svg>
