<?xml version="1.0" standalone="no"?>
<!DOCTYPE svg PUBLIC "-//W3C//DTD SVG 1.1//EN" "http://www.w3.org/Graphics/SVG/1.1/DTD/svg11.dtd" >
<svg xmlns="http://www.w3.org/2000/svg" xmlns:xlink="http://www.w3.org/1999/xlink" version="1.1" viewBox="-10 0 1020 1000">
   <path fill="currentColor"
d="M0 379h94l285 2l96 -270l29 -90l29 92l88 272l379 8l-309 220l82 274l28 92l-76 -57l-231 -168l-232 162l-78 53l29 -90l90 -270l-227 -174zM189 443l168 129l20 14l-8 21l-66 203l176 -123l17 -11l190 138l-67 -224l18 -14l174 -125l-215 -4l-22 -2l-8 -21l-64 -201
l-70 199l-8 21h-235z" />
</svg>
