<?xml version="1.0" standalone="no"?>
<!DOCTYPE svg PUBLIC "-//W3C//DTD SVG 1.1//EN" "http://www.w3.org/Graphics/SVG/1.1/DTD/svg11.dtd" >
<svg xmlns="http://www.w3.org/2000/svg" xmlns:xlink="http://www.w3.org/1999/xlink" version="1.1" viewBox="-11 0 1022 1000">
   <path fill="currentColor"
d="M4 393q14 -41 57 -47l262 -39l113 -235q19 -41 64 -41t65 41l113 235l262 39q43 6 56 47t-15 70l-192 191l43 264q8 43 -29 68q-18 14 -41 14q-18 0 -35 -8l-227 -123l-226 123q-18 8 -35 8q-24 0 -41 -14q-38 -25 -30 -68l43 -264l-189 -191q-32 -29 -18 -70zM73 414
l191 191q25 26 19 61l-44 264l226 -123q16 -8 35 -8t35 8l227 123l-45 -264q-6 -35 20 -61l191 -191l-260 -37q-39 -6 -54 -41l-114 -234l-113 234q-16 35 -55 39z" />
</svg>
