<?xml version="1.0" standalone="no"?>
<!DOCTYPE svg PUBLIC "-//W3C//DTD SVG 1.1//EN" "http://www.w3.org/Graphics/SVG/1.1/DTD/svg11.dtd" >
<svg xmlns="http://www.w3.org/2000/svg" xmlns:xlink="http://www.w3.org/1999/xlink" version="1.1" viewBox="-10 0 952 1000">
   <path fill="currentColor"
d="M2 390q11 -37 101 -37h225l69 -207v-1q19 -56 44 -75t49 0t43 75l1 1l68 207h226q58 0 85 17t14 47t-59 63l-5 4l-176 126l67 207l2 2q27 85 -4 109t-105 -29l-5 -3l-177 -127l-179 128l-2 2q-73 52 -105 29t-4 -109l1 -1v-2l68 -206l-177 -126l-4 -4q-73 -52 -61 -90z
" />
</svg>
