<?xml version="1.0" standalone="no"?>
<!DOCTYPE svg PUBLIC "-//W3C//DTD SVG 1.1//EN" "http://www.w3.org/Graphics/SVG/1.1/DTD/svg11.dtd" >
<svg xmlns="http://www.w3.org/2000/svg" xmlns:xlink="http://www.w3.org/1999/xlink" version="1.1" viewBox="-10 0 1098 1000">
   <path fill="currentColor"
d="M0 418q0 -122 93 -210q58 -55 134 -75t153 2t137 84q44 46 63 107t15 116t-24 102q-19 41 -3 93t40 89t51 68t26 33l-11 -9q-10 -10 -21 -20t-31 -26t-38 -27t-43 -25t-45 -18t-44 -8t-43 7q-47 19 -103 20t-117 -22t-103 -69q-86 -91 -86 -212zM132 398q-9 69 34 125
t111 64t124 -33t64 -112t-33 -124t-111 -64t-124 33t-65 111zM610 104q21 -59 74 -87t113 -9q58 18 87 72t8 116q-24 72 -114 104q-31 11 -55 34t-35 38t-23 40q22 -94 -24 -159q-55 -80 -31 -149zM648 599q2 -92 63 -155t151 -63t153 62t63 156q0 110 -110 195
q-38 29 -62 71t-30 68t-13 67q-4 -40 -10 -67t-30 -69t-65 -74q-111 -83 -110 -191zM686 127q-11 27 1 55t38 38t54 0t38.5 -38t-0.5 -55t-38 -38t-54 0t-39 38zM753 642q18 45 64.5 64.5t92.5 0.5t65 -66t0 -91t-65 -66q-46 -19 -92 0t-65 65.5t0 92.5z" />
</svg>
