<?xml version="1.0" standalone="no"?>
<!DOCTYPE svg PUBLIC "-//W3C//DTD SVG 1.1//EN" "http://www.w3.org/Graphics/SVG/1.1/DTD/svg11.dtd" >
<svg xmlns="http://www.w3.org/2000/svg" xmlns:xlink="http://www.w3.org/1999/xlink" version="1.1" viewBox="-10 0 1021 1000">
   <path fill="currentColor"
d="M883 325q0 56 -40 96t-96 40t-97 -40t-39 -96t39 -97t97 -39t96 39t40 97zM453 739q0 -58 -41 -99t-98 -41q-15 0 -30 4l58 23q43 17 61 59t0.5 85t-59.5 61t-85 0q-12 -4 -35 -13t-34 -14q18 34 51 54t73 20q58 0 98 -40t41 -99zM916 325q0 -70 -50 -120t-120.5 -50
t-120.5 50t-50 120.5t50 120.5t120.5 49.5t120.5 -49.5t50 -121zM1000 325q0 106 -74 180t-180 74l-244 178q-6 72 -61 122t-127 50q-68 0 -120 -43t-66 -107l-128 -51v-240l217 88q44 -27 97 -27q7 0 19 1l159 -227q1 -104 75 -178t179 -74t180 75t74 179z" />
</svg>
