<?xml version="1.0" standalone="no"?>
<!DOCTYPE svg PUBLIC "-//W3C//DTD SVG 1.1//EN" "http://www.w3.org/Graphics/SVG/1.1/DTD/svg11.dtd" >
<svg xmlns="http://www.w3.org/2000/svg" xmlns:xlink="http://www.w3.org/1999/xlink" version="1.1" viewBox="-10 0 1332 1000">
   <path fill="currentColor"
d="M0 380q0 -55 39 -94t93 -39q47 0 84 29t46 75l502 202q32 -19 68 -19h7q5 0 7 1l110 -159q1 -73 53 -125t125.5 -51.5t125.5 52.5t52 126t-52 126t-126 52l-170 124q-5 51 -43 85t-89 35q-48 0 -84 -30t-46 -75l-502 -201q-32 19 -68 19q-55 0 -93 -39t-39 -94zM35 380
q0 40 29 68t68 29q9 0 21 -2l-41 -16v-1q-28 -13 -40 -42q-6 -14 -6 -28.5t6 -29.5q12 -30 40 -42q15 -7 31 -6q13 0 27 5v-1l49 20q-29 -52 -87 -52q-40 0 -68 28t-29 70zM745 713q29 52 87 52q40 0 69 -29t29 -69t-28 -69t-70 -28q-14 0 -21 2l40 16q30 12 43 42
q7 15 7 29.5t-6 29.5q-12 31 -42 43q-15 6 -29.5 6t-29.5 -6q-8 -3 -24 -10t-25 -9zM1015 378q0 49 35 84t84.5 35t84.5 -35t35 -84t-35 -84t-84.5 -35t-84.5 35t-35 84zM1040 377q0 40 28 68t67 28t67 -28t28 -67.5t-28 -67.5t-67.5 -28t-66.5 28t-28 67z" />
</svg>
