<?xml version="1.0" standalone="no"?>
<!DOCTYPE svg PUBLIC "-//W3C//DTD SVG 1.1//EN" "http://www.w3.org/Graphics/SVG/1.1/DTD/svg11.dtd" >
<svg xmlns="http://www.w3.org/2000/svg" xmlns:xlink="http://www.w3.org/1999/xlink" version="1.1" viewBox="-10 0 958 1000">
   <path fill="currentColor"
d="M855 313q83 117 83 265q0 194 -138 331t-331 138t-331 -138t-138 -331q0 -180 120 -313t298 -152v-1l-2 -3v-51h-51q-21 0 -37 -16t-15 -37t15 -36t37 -16h208q21 0 36 16t16 36t-16 37t-36 16h-52v51l-1 1v3q156 17 270 125l6 -9l27 -26q15 -15 36 -15t37 15t15 37
t-15 37l-26 26q-5 5 -15 10zM469 943q151 0 258 -107t107 -258t-107 -258t-258 -106t-258 106t-107 258t107 258t258 107zM521 527h104q21 0 37 15t16 36t-16 37t-37 15h-156q-21 0 -37 -15t-16 -37v-156q0 -22 16 -37t37 -15t37 15t15 37v105zM469 265q129 0 220 92t92 221
t-92 221t-220 92t-221 -92t-92 -221t92 -221t221 -92zM469 839q107 0 184 -77t76 -184t-76 -184t-184 -76t-184 76t-76 184t76 184t184 77z" />
</svg>
