<?xml version="1.0" standalone="no"?>
<!DOCTYPE svg PUBLIC "-//W3C//DTD SVG 1.1//EN" "http://www.w3.org/Graphics/SVG/1.1/DTD/svg11.dtd" >
<svg xmlns="http://www.w3.org/2000/svg" xmlns:xlink="http://www.w3.org/1999/xlink" version="1.1" viewBox="-11 0 868 1000">
   <path fill="currentColor"
d="M786 857q0 35 -35 64t-91 45t-126 25t-141 9t-142 -9t-125 -25t-92 -45t-34 -64q0 -27 18 -49t51 -37t66 -25t73 -17q15 -2 27 6t14.5 23t-5.5 27t-24 15q-32 5 -59 13t-42 14t-27 13t-16 11t-5 7q2 6 16 15t40 18t64 18t89 14t113 6t112 -6t90 -14t64 -18t40 -19t15 -15
q0 -3 -4 -7t-16 -10l-27 -13q-15 -7 -43 -14t-59 -13q-14 -3 -23 -15t-6 -26.5t15 -23.5t27 -6q39 7 73 17t66 25t50 37t19 49zM571 357v214q0 15 -10 25t-25 11h-36v214q0 15 -11 25t-25 11h-143q-14 0 -25 -11t-10 -25v-214h-36q-14 0 -25 -11t-11 -25v-214q0 -29 21 -50
t51 -21h214q30 0 51 21t20 50zM518 143q0 52 -37 88t-88 37t-89 -37t-36 -88t36 -89t89 -36t88 36t37 89z" />
</svg>
