<?xml version="1.0" standalone="no"?>
<!DOCTYPE svg PUBLIC "-//W3C//DTD SVG 1.1//EN" "http://www.w3.org/Graphics/SVG/1.1/DTD/svg11.dtd" >
<svg xmlns="http://www.w3.org/2000/svg" xmlns:xlink="http://www.w3.org/1999/xlink" version="1.1" viewBox="-10 0 688 1000">
   <path fill="currentColor"
d="M1 338q-11 -151 126 -252q63 -47 145 -70q78 -23 175 -11t181 59q-2 40 0 76q6 119 -10 153q-9 -1 -52 -14q-36 -11 -66.5 -16.5t-60.5 -7.5q-70 -6 -99 38q8 44 38 65.5t82 37.5q49 14 69 26q113 70 139 219v85q0 81 -45 142t-118 93q-105 44 -245 38t-239 -59
q3 -41 0 -79q-3 -42 -2 -81q2 -43 12 -69q18 3 48 11q53 15 74 19q165 36 177 -40q3 -22 -11 -41t-34 -29q-28 -14 -48 -22q-29 -12 -37 -17q-44 -23 -59 -32q-57 -34 -80 -68q-54 -77 -60 -154z" />
</svg>
