<?xml version="1.0" standalone="no"?>
<!DOCTYPE svg PUBLIC "-//W3C//DTD SVG 1.1//EN" "http://www.w3.org/Graphics/SVG/1.1/DTD/svg11.dtd" >
<svg xmlns="http://www.w3.org/2000/svg" xmlns:xlink="http://www.w3.org/1999/xlink" version="1.1" viewBox="-10 0 1020 1000">
   <path fill="currentColor"
d="M982 500q8 0 13 5t5 13v36q0 7 -5 12t-13 5h-964q-8 0 -13 -5t-5 -12v-36q0 -8 5 -13t13 -5h964zM270 464q-16 -19 -29 -44q-27 -55 -27 -105q0 -101 74.5 -172.5t219.5 -71.5q28 0 94 11q36 7 98 27q6 21 12 66q8 68 8 102q0 10 -3 25l-7 2l-54 -5q-28 -83 -58 -114
q-49 -51 -117 -51q-64 0 -101.5 32.5t-37.5 81.5q0 41 37 78t156 72q38 12 96 37q33 16 53 29h-414zM553 607h229q4 22 4 51q0 62 -23 119q-13 31 -40 58q-20 19 -61 45q-44 27 -85 37q-45 12 -113 12q-64 0 -109 -13l-78 -23q-32 -8 -40 -15q-5 -5 -5 -12v-8q0 -60 -1 -87
v-38l1 -20v-25l57 -1l17 40q9 21 12 31t7 15q20 32 44.5 52t58.5 32t74 12q36 0 78.5 -14.5t68 -48.5t25.5 -72q0 -47 -45 -87q-19 -16 -76 -40z" />
</svg>
