<?xml version="1.0" standalone="no"?>
<!DOCTYPE svg PUBLIC "-//W3C//DTD SVG 1.1//EN" "http://www.w3.org/Graphics/SVG/1.1/DTD/svg11.dtd" >
<svg xmlns="http://www.w3.org/2000/svg" xmlns:xlink="http://www.w3.org/1999/xlink" version="1.1" viewBox="-10 0 992 1000">
   <path fill="currentColor"
d="M0 501q4 -203 148 -344t338 -143q149 2 274 84v467q-2 26 -19 41t-40 16q-25 -2 -42 -18t-18 -39v-140q-2 -122 -78 -149q-24 -10 -51 -10h-239q-68 2 -111 39q-47 43 -47 104q0 45 20 74q31 41 90 53q9 2 37 6t41 8q25 9 25 35q-2 25 -29 33q-20 4 -72 4h-211
q-16 -65 -16 -121zM53 721h213q70 -2 120 -41t50 -101q0 -78 -55 -111q-26 -16 -102 -30l-7 -1l-25 -6q-4 -1 -7 -3l-6 -4q-3 -2 -4 -5t-4 -6t-1 -8q2 -43 70 -43h146q41 2 61 10q29 14 29 41v146q4 78 53 121q49 39 117 41q72 -2 117 -41q51 -46 51 -121v-357
q80 107 98 238t-33 248q-61 135 -183 216t-265 81q-138 -2 -255 -73t-178 -191z" />
</svg>
