<?xml version="1.0" standalone="no"?>
<!DOCTYPE svg PUBLIC "-//W3C//DTD SVG 1.1//EN" "http://www.w3.org/Graphics/SVG/1.1/DTD/svg11.dtd" >
<svg xmlns="http://www.w3.org/2000/svg" xmlns:xlink="http://www.w3.org/1999/xlink" version="1.1" viewBox="-10 0 1020 1000">
   <path fill="currentColor"
d="M900 200q42 0 71 30t29 70v550q0 42 -29 71t-71 29h-50v-750h50zM0 300q0 -40 30 -70t70 -30h50v750h-50q-40 0 -70 -29t-30 -71v-550zM670 96v104h110v750h-560v-750h110v-104q98 -46 170 -46t170 46zM610 200v-66q-52 -24 -110 -24q-54 0 -110 24v66h220z" />
</svg>
