<?xml version="1.0" standalone="no"?>
<!DOCTYPE svg PUBLIC "-//W3C//DTD SVG 1.1//EN" "http://www.w3.org/Graphics/SVG/1.1/DTD/svg11.dtd" >
<svg xmlns="http://www.w3.org/2000/svg" xmlns:xlink="http://www.w3.org/1999/xlink" version="1.1" viewBox="-10 0 1020 1000">
   <path fill="currentColor"
d="M357 214h286v-71h-286v71zM161 214v715h-36q-51 0 -88 -37t-37 -88v-465q0 -51 37 -88t88 -37h36zM786 214v715h-572v-715h72v-89q0 -22 15 -38t38 -16h322q22 0 38 16t15 38v89h72zM1000 339v465q0 51 -37 88t-88 37h-36v-715h36q51 0 88 37t37 88z" />
</svg>
