<?xml version="1.0" standalone="no"?>
<!DOCTYPE svg PUBLIC "-//W3C//DTD SVG 1.1//EN" "http://www.w3.org/Graphics/SVG/1.1/DTD/svg11.dtd" >
<svg xmlns="http://www.w3.org/2000/svg" xmlns:xlink="http://www.w3.org/1999/xlink" version="1.1" viewBox="-10 0 1010 1000">
   <path fill="currentColor"
d="M94 500q0 -13 9 -22t22 -9h62q14 0 23 9t9 22t-9 23t-23 8h-62q-14 0 -22 -8t-9 -23zM213 787q-11 -11 -11 -22t11 -23l45 -43q10 -12 22 -12l21 11q10 12 10 23t-10 21l-43 45q-12 11 -23 11t-22 -11zM213 258q-11 -12 -11 -23t11 -22t22 -10t23 10l43 45q10 11 10 22
t-10 21t-22 11l-21 -11zM281 500q0 -90 65 -154t154 -64t154 64t64 154t-64 154t-154 65t-154 -65t-65 -154zM344 500q0 65 45 111t111 45t109 -44q47 -47 47 -112t-46 -110t-110 -46t-111 46t-45 110zM469 875v-62q0 -14 8 -23t23 -9t22 9t9 23v62q0 14 -9 23t-22 8t-23 -8
t-8 -23zM469 188v-63q0 -13 8 -22t23 -9t22 9t9 22v63q0 14 -9 22t-22 9t-23 -9t-8 -22zM699 742q-11 -10 -11 -21t11 -22t21 -10l22 10l45 43q10 12 10 23t-10 22t-22 11t-23 -11zM699 301q-11 -11 -11 -21t11 -22l43 -45q12 -10 23 -10t22 10t10 22t-10 23l-45 43
q-11 11 -22 11zM781 500q0 -13 9 -22t22 -9h63q13 0 22 9t9 22t-9 23t-22 8h-63q-14 0 -22 -8t-9 -23z" />
</svg>
