<?xml version="1.0" standalone="no"?>
<!DOCTYPE svg PUBLIC "-//W3C//DTD SVG 1.1//EN" "http://www.w3.org/Graphics/SVG/1.1/DTD/svg11.dtd" >
<svg xmlns="http://www.w3.org/2000/svg" xmlns:xlink="http://www.w3.org/1999/xlink" version="1.1" viewBox="-11 0 1002 1000">
   <path fill="currentColor"
d="M542 84l-51 152l-53 -152q-7 -22 3 -42t31 -28q30 -10 56 11t14 59zM73 447l153 53l-153 52q-21 8 -42 -3t-28 -32q-10 -30 12 -56t58 -14zM438 916l53 -152l51 152q7 21 -3 42t-31 28q-30 10 -56 -12t-14 -58zM907 552l-153 -52l153 -53q21 -7 42 3t28 32q10 30 -12 57
t-58 13zM232 169l71 145l-145 -72q-21 -10 -28 -31t3 -42q16 -32 50 -30t49 30zM158 757l145 -71l-71 145q-10 21 -31 28t-43 -3q-31 -16 -30 -50t30 -49zM748 831l-71 -145l145 71q21 10 28 32t-3 42q-16 31 -50 30t-49 -30zM822 242l-145 72l71 -145q10 -22 31 -29t43 4
q31 16 30 50t-30 48zM491 735q-97 0 -166 -70t-69 -165t69 -166t166 -69t165 69t68 166t-68 165t-165 70zM491 370q-54 0 -93 38t-39 92t39 92t93 38t92 -38t38 -92t-38 -92t-92 -38z" />
</svg>
