<?xml version="1.0" standalone="no"?>
<!DOCTYPE svg PUBLIC "-//W3C//DTD SVG 1.1//EN" "http://www.w3.org/Graphics/SVG/1.1/DTD/svg11.dtd" >
<svg xmlns="http://www.w3.org/2000/svg" xmlns:xlink="http://www.w3.org/1999/xlink" version="1.1" viewBox="-10 0 938 1000">
   <path fill="currentColor"
d="M465 388q-46 0 -79 33t-33 79t33 78t79 33t78 -33t33 -78t-33 -79t-78 -33zM465 276q92 0 158 66t65 158t-65 158t-158 65t-158 -65t-66 -158t66 -158t158 -66zM409 108q0 -55 56 -55t56 56t-56 56t-56 -57zM130 220q0 -55 55.5 -55t55.5 55.5t-55.5 55.5t-55.5 -56z
M74 443q23 0 40 16t16 40t-16 40t-40 16t-40 -16t-15.5 -40t15.5 -40t40 -16zM130 778q0 -55 55.5 -55t55.5 55.5t-55.5 55.5t-55.5 -56zM409 890q0 -22 17 -39t38 -17q24 0 41 17t16 39t-17 40t-39 17t-39 -17t-17 -40zM705 818q-16 -16 -16 -39t16 -39t39 -17t40 17t15 39
t-15 39t-40 15t-39 -15zM856 555q-24 0 -40 -16t-16.5 -40t16.5 -40t40 -16t39 16t16 40t-16 40t-39 16zM784 260q-16 16 -40 16t-39 -16t-16 -40t16 -40t39 -17t40 17t15 40t-15 40z" />
</svg>
