<?xml version="1.0" standalone="no"?>
<!DOCTYPE svg PUBLIC "-//W3C//DTD SVG 1.1//EN" "http://www.w3.org/Graphics/SVG/1.1/DTD/svg11.dtd" >
<svg xmlns="http://www.w3.org/2000/svg" xmlns:xlink="http://www.w3.org/1999/xlink" version="1.1" viewBox="-10 0 1020 1000">
   <path fill="currentColor"
d="M822 518q4 -65 -18 -126t-63 -105t-99 -74t-124 -32q-64 -4 -125 18t-108 62t-75 97t-33 124q-4 65 18 126t63 105t99 74t124 32q87 5 164 -33t125 -109t52 -159zM1000 0l-195 194q67 65 101 152t28 179q-6 102 -57 189t-134 143t-185 69l-558 74l194 -194
q-67 -64 -101 -151t-28 -180q6 -102 57 -189t134 -143t186 -69q93 -13 279 -37t279 -37z" />
</svg>
