<?xml version="1.0" standalone="no"?>
<!DOCTYPE svg PUBLIC "-//W3C//DTD SVG 1.1//EN" "http://www.w3.org/Graphics/SVG/1.1/DTD/svg11.dtd" >
<svg xmlns="http://www.w3.org/2000/svg" xmlns:xlink="http://www.w3.org/1999/xlink" version="1.1" viewBox="-10 0 870 1000">
   <path fill="currentColor"
d="M556 175q-9 0 -28 8l-200 97q-20 9 -26 33t7 42l61 82l-223 174l103 33l134 -44q8 -3 15.5 -3t16.5 3l134 44l70 -24l-192 -278l152 -76q33 -16 25 -57q-3 -12 -15 -22q-15 -12 -34 -12zM650 325q-41 0 -70.5 29.5t-29.5 70.5t29.5 70.5t70.5 29.5t70.5 -29.5t29.5 -70.5
t-29.5 -70.5t-70.5 -29.5zM100 675q-4 0 -16 3l-84 28v103l100 -34l134 47q9 3 16 3q3 0 8 -1q10 -2 8 -2l134 -47l134 47q9 3 16 3q3 0 8 -1q10 -2 8 -2l134 -47l150 50v-103l-134 -44q-7 -3 -15 -3t-17 3l-134 44l-134 -44q-9 -3 -16 -3q-3 0 -8 1q-10 2 -8 2l-134 44
l-134 -44q-10 -3 -16 -3z" />
</svg>
