<?xml version="1.0" standalone="no"?>
<!DOCTYPE svg PUBLIC "-//W3C//DTD SVG 1.1//EN" "http://www.w3.org/Graphics/SVG/1.1/DTD/svg11.dtd" >
<svg xmlns="http://www.w3.org/2000/svg" xmlns:xlink="http://www.w3.org/1999/xlink" version="1.1" viewBox="-11 0 950 1000">
   <path fill="currentColor"
d="M286 768v-107q0 -8 -5 -13t-13 -5h-179q-7 0 -12 5t-6 13v107q0 8 6 13t12 5h179q8 0 13 -5t5 -13zM286 554v-108q0 -7 -5 -12t-13 -5h-179q-7 0 -12 5t-6 12v108q0 7 6 12t12 5h179q8 0 13 -5t5 -12zM571 768v-107q0 -8 -5 -13t-12 -5h-179q-8 0 -13 5t-5 13v107
q0 8 5 13t13 5h179q7 0 12 -5t5 -13zM286 339v-107q0 -8 -5 -13t-13 -5h-179q-7 0 -12 5t-6 13v107q0 8 6 13t12 5h179q8 0 13 -5t5 -13zM571 554v-108q0 -7 -5 -12t-12 -5h-179q-8 0 -13 5t-5 12v108q0 7 5 12t13 5h179q7 0 12 -5t5 -12zM857 768v-107q0 -8 -5 -13t-13 -5
h-178q-8 0 -13 5t-5 13v107q0 8 5 13t13 5h178q8 0 13 -5t5 -13zM571 339v-107q0 -8 -5 -13t-12 -5h-179q-8 0 -13 5t-5 13v107q0 8 5 13t13 5h179q7 0 12 -5t5 -13zM857 554v-108q0 -7 -5 -12t-13 -5h-178q-8 0 -13 5t-5 12v108q0 7 5 12t13 5h178q8 0 13 -5t5 -12z
M857 339v-107q0 -8 -5 -13t-13 -5h-178q-8 0 -13 5t-5 13v107q0 8 5 13t13 5h178q8 0 13 -5t5 -13zM929 161v607q0 37 -27 63t-63 26h-750q-36 0 -63 -26t-26 -63v-607q0 -37 26 -63t63 -27h750q37 0 63 27t27 63z" />
</svg>
