<?xml version="1.0" standalone="no"?>
<!DOCTYPE svg PUBLIC "-//W3C//DTD SVG 1.1//EN" "http://www.w3.org/Graphics/SVG/1.1/DTD/svg11.dtd" >
<svg xmlns="http://www.w3.org/2000/svg" xmlns:xlink="http://www.w3.org/1999/xlink" version="1.1" viewBox="-10 0 981 1000">
   <path fill="currentColor"
d="M944 20q36 106 -8 199t-128 157l18 24q16 28 6 54l-48 158q-12 30 -36 46l-464 328q-42 30 -64 -4l-210 -304q-12 -18 -9 -39t21 -33l464 -328q26 -18 54 -18h158q30 0 48 26l28 40q168 -130 114 -286q-10 -28 18 -40q32 -8 38 20zM728 488q40 -32 34 -80l-32 16
q-8 4 -12 4q-18 0 -28 -18q-12 -30 16 -40l24 -14q-48 -34 -92 0q-28 18 -34 51t14 61q18 26 51 32t59 -12z" />
</svg>
