<?xml version="1.0" standalone="no"?>
<!DOCTYPE svg PUBLIC "-//W3C//DTD SVG 1.1//EN" "http://www.w3.org/Graphics/SVG/1.1/DTD/svg11.dtd" >
<svg xmlns="http://www.w3.org/2000/svg" xmlns:xlink="http://www.w3.org/1999/xlink" version="1.1" viewBox="-10 0 837 1000">
   <path fill="currentColor"
d="M665 309l-10 233l-242 420q-8 15 -24.5 19.5t-30.5 -3.5l-336 -195q-15 -8 -20 -24.5t3 -31.5l243 -420l197 -124l95 54q4 -11 6 -18l3 -18q9 -40 12 -48q9 -32 26 -58q22 -34 57 -61q19 -16 47 -16.5t56 13.5q28 11 50 40q17 25 20 57q-4 52 -65 81q-28 13 -58 20
q-20 4 -50.5 8t-39.5 6q-18 4 -31 13zM655 51q-46 35 -67 82q-12 27 -19 70q0 5 -2 15q-1 3 -1 8.5t-2 9.5q16 -10 35 -14q14 -3 41 -5q30 -4 49 -8q29 -7 54 -18t38.5 -27.5t15.5 -35.5q0 -21 -14.5 -42t-38.5 -34q-2 -2 -6 -4q-23 -11 -44.5 -10.5t-38.5 13.5zM437 451
q32 17 67.5 8t53.5 -41q15 -25 11.5 -53t-21.5 -49l-43 -27q-28 -9 -56.5 2t-44.5 38q-18 32 -8.5 67.5t41.5 54.5z" />
</svg>
