<?xml version="1.0" standalone="no"?>
<!DOCTYPE svg PUBLIC "-//W3C//DTD SVG 1.1//EN" "http://www.w3.org/Graphics/SVG/1.1/DTD/svg11.dtd" >
<svg xmlns="http://www.w3.org/2000/svg" xmlns:xlink="http://www.w3.org/1999/xlink" version="1.1" viewBox="-10 0 1022 1000">
   <path fill="currentColor"
d="M0 750v-500q0 -51 36 -88t89 -37h594q68 0 105 59l156 250q43 66 0 132l-156 250q-37 59 -105 59h-594q-53 0 -89 -36t-36 -89zM63 750q0 25 18 44t44 18h594q35 0 52 -29l157 -250q21 -33 0 -66l-157 -250q-17 -29 -52 -29h-594q-25 0 -44 18t-18 44v500zM625 500
q0 -39 27 -66t67 -28t66 28t27 66t-27 66t-66 28t-67 -28t-27 -66zM656 500q0 25 19 44t44 18t44 -18t18 -44t-18 -44t-44 -19t-44 19t-19 44z" />
</svg>
