<?xml version="1.0" standalone="no"?>
<!DOCTYPE svg PUBLIC "-//W3C//DTD SVG 1.1//EN" "http://www.w3.org/Graphics/SVG/1.1/DTD/svg11.dtd" >
<svg xmlns="http://www.w3.org/2000/svg" xmlns:xlink="http://www.w3.org/1999/xlink" version="1.1" viewBox="-10 0 938 1000">
   <path fill="currentColor"
d="M521 443v-162q60 16 103 60t59 102h-162zM521 556h162q-16 59 -59 103t-103 59v-162zM408 443h-162q16 -59 59 -102t103 -60v162zM408 556v162q-60 -16 -103 -59t-59 -103h162zM521 166v-113q152 19 261 128t129 262h-113q-18 -107 -95 -183t-182 -94zM131 443h-113
q19 -152 128 -261t262 -129v113q-106 18 -182 94t-95 183zM408 833v114q-154 -19 -262 -129t-128 -262h113q18 107 95 183t182 94zM798 556h113q-21 153 -129 262t-261 129v-114q105 -18 182 -94t95 -183z" />
</svg>
