<?xml version="1.0" standalone="no"?>
<!DOCTYPE svg PUBLIC "-//W3C//DTD SVG 1.1//EN" "http://www.w3.org/Graphics/SVG/1.1/DTD/svg11.dtd" >
<svg xmlns="http://www.w3.org/2000/svg" xmlns:xlink="http://www.w3.org/1999/xlink" version="1.1" viewBox="-10 0 878 1000">
   <path fill="currentColor"
d="M668 571h-61q-14 0 -25 -10t-11 -25v-72q0 -14 11 -25t25 -10h61q-18 -61 -63 -106t-105 -62v60q0 15 -11 25t-25 11h-71q-15 0 -25 -11t-11 -25v-60q-60 17 -105 62t-63 106h61q15 0 25 10t11 25v72q0 14 -11 25t-25 10h-61q18 61 63 106t105 62v-60q0 -15 11 -26
t25 -10h71q15 0 25 10t11 26v60q60 -18 105 -62t63 -106zM857 464v72q0 14 -10 25t-26 10h-79q-21 90 -87 156t-155 86v80q0 14 -11 25t-25 11h-71q-15 0 -25 -11t-11 -25v-80q-90 -21 -155 -86t-86 -156h-80q-15 0 -25 -10t-11 -25v-72q0 -14 11 -25t25 -10h80
q20 -90 86 -156t155 -86v-80q0 -14 11 -25t25 -11h71q15 0 25 11t11 25v80q90 21 155 86t87 156h79q15 0 26 10t10 25z" />
</svg>
