<?xml version="1.0" standalone="no"?>
<!DOCTYPE svg PUBLIC "-//W3C//DTD SVG 1.1//EN" "http://www.w3.org/Graphics/SVG/1.1/DTD/svg11.dtd" >
<svg xmlns="http://www.w3.org/2000/svg" xmlns:xlink="http://www.w3.org/1999/xlink" version="1.1" viewBox="-10 0 750 1000">
   <path fill="currentColor"
d="M365 864q-151 0 -258 -106t-107 -258t107 -258t258 -107t258 107t106 258t-106 258t-258 106zM313 245q-78 17 -132 71t-71 132h99q21 0 36 16t15 36t-15 37t-36 15h-99q16 77 71 132t132 71v-98q0 -22 15 -37t37 -16t36 16t15 37v98q77 -16 132 -71t72 -132h-99
q-21 0 -37 -15t-15 -37t15 -36t37 -16h99q-16 -76 -71 -131t-133 -72v99q0 21 -15 36t-36 15t-37 -15t-15 -36v-99z" />
</svg>
