<?xml version="1.0" standalone="no"?>
<!DOCTYPE svg PUBLIC "-//W3C//DTD SVG 1.1//EN" "http://www.w3.org/Graphics/SVG/1.1/DTD/svg11.dtd" >
<svg xmlns="http://www.w3.org/2000/svg" xmlns:xlink="http://www.w3.org/1999/xlink" version="1.1" viewBox="-10 0 1020 1000">
   <path fill="currentColor"
d="M1000 501q0 136 -67 251t-182 182t-251 67t-251 -67t-182 -182t-67 -251t67 -251t182 -182t251 -67t251 67t182 182t67 251zM848 560h-142v-118h142q-19 -110 -99 -190t-190 -99v142h-118v-142q-110 19 -190 99t-99 190h142v118h-142q19 110 99 190t190 99v-142h118v142
q110 -19 190 -99t99 -190z" />
</svg>
