<?xml version="1.0" standalone="no"?>
<!DOCTYPE svg PUBLIC "-//W3C//DTD SVG 1.1//EN" "http://www.w3.org/Graphics/SVG/1.1/DTD/svg11.dtd" >
<svg xmlns="http://www.w3.org/2000/svg" xmlns:xlink="http://www.w3.org/1999/xlink" version="1.1" viewBox="-11 0 906 1000">
   <path fill="currentColor"
d="M443 57q182 0 312 130t130 313t-130 312t-312 131t-313 -131t-130 -312t130 -313t313 -130zM443 837q140 0 239 -98t99 -239t-99 -239t-239 -100t-240 100t-99 239t99 239t240 98zM625 447q-21 0 -37 16t-15 37t15 36t37 15h46q-15 66 -63 114t-113 62v-45q0 -21 -16 -36
t-36 -16t-37 16t-16 36v45q-65 -15 -112 -62t-63 -114h45q21 0 37 -15t16 -36t-16 -37t-37 -16h-45q15 -66 63 -113t112 -63v46q0 22 16 37t37 16t36 -16t16 -37v-46q65 15 113 63t63 113h-46zM594 599q-33 -10 -53 -38t-20 -61t20 -61t53 -38q-21 -31 -53 -52
q-10 32 -37 52t-61 20t-62 -20t-37 -52q-31 21 -53 52q33 10 53 38t21 61t-21 61t-53 38q19 30 53 51q10 -33 37 -53t62 -20t61 20t37 53q34 -21 53 -51z" />
</svg>
