<?xml version="1.0" standalone="no"?>
<!DOCTYPE svg PUBLIC "-//W3C//DTD SVG 1.1//EN" "http://www.w3.org/Graphics/SVG/1.1/DTD/svg11.dtd" >
<svg xmlns="http://www.w3.org/2000/svg" xmlns:xlink="http://www.w3.org/1999/xlink" version="1.1" viewBox="-11 0 1153 1000">
   <path fill="currentColor"
d="M1000 696v-535q0 -8 -5 -13t-13 -5h-893q-7 0 -12 5t-6 13v535q0 8 6 13t12 5h893q7 0 13 -5t5 -13zM1071 161v535q0 37 -26 63t-63 27h-411v71h197q8 0 13 5t5 13v36q0 8 -5 13t-13 5h-464q-8 0 -13 -5t-5 -13v-36q0 -8 5 -13t13 -5h196v-71h-411q-36 0 -63 -27t-26 -63
v-535q0 -37 26 -63t63 -27h893q37 0 63 27t26 63z" />
</svg>
