<?xml version="1.0" standalone="no"?>
<!DOCTYPE svg PUBLIC "-//W3C//DTD SVG 1.1//EN" "http://www.w3.org/Graphics/SVG/1.1/DTD/svg11.dtd" >
<svg xmlns="http://www.w3.org/2000/svg" xmlns:xlink="http://www.w3.org/1999/xlink" version="1.1" viewBox="-10 0 724 1000">
   <path fill="currentColor"
d="M470 319q0 45 -32 76t-76 32q-33 0 -62 -20q-34 38 -64 82q-138 207 -113 479q1 13 -7 22t-19 10h-3q-11 0 -19 -7t-10 -19q-7 -70 -2 -138t17 -121t30 -104t38 -87t42 -70q34 -50 73 -92q-8 -19 -8 -43q0 -44 31 -76t76 -32t76 32t32 76zM683 325q0 88 -44 163t-119 119
t-163 43q-36 0 -73 -8q-12 -3 -18 -13t-3.5 -21.5t12.5 -17.5t22 -5q28 8 60 8q54 0 104 -22t85 -57t57 -85t21 -104t-21 -104t-57 -85t-85 -57t-104 -21t-104 21t-85 57t-57 85t-21 104q0 64 29 122q5 11 2 22t-14 17t-22 2t-17 -15q-36 -68 -36 -148q0 -66 26 -126
t69 -104t104 -69t126 -26q88 0 163 43t119 119t44 163z" />
</svg>
