<?xml version="1.0" standalone="no"?>
<!DOCTYPE svg PUBLIC "-//W3C//DTD SVG 1.1//EN" "http://www.w3.org/Graphics/SVG/1.1/DTD/svg11.dtd" >
<svg xmlns="http://www.w3.org/2000/svg" xmlns:xlink="http://www.w3.org/1999/xlink" version="1.1" viewBox="-10 0 1019 1000">
   <path fill="currentColor"
d="M973 786q19 0 24 10t-6 25l-71 90q-11 15 -27 15t-27 -15l-71 -90q-11 -15 -6 -25t24 -10h44v-572h-44q-19 0 -24 -10t6 -25l71 -90q11 -15 27 -15t27 15l71 90q11 15 6 25t-24 10h-44v572h44zM45 72l30 15q7 3 118 3q25 0 74 -1t73 -1h307l9 -1q7 -1 10 -5l8 -10l24 -1
l7 1q5 1 8 0q1 62 1 187q0 45 -2 61q-22 8 -38 10q-14 -24 -31 -71l-6 -27q-5 -22 -8 -41t-4 -20q-3 -4 -7 -7t-8 -3t-8 -1t-10 -1t-9 1l-37 -1q-28 -1 -41 0t-36 1t-40 3q-5 46 -4 76l1 217q1 164 1 254l-1 40q-1 31 0 51t7 38q22 12 69 24t67 21q2 22 2 29t-1 15l-19 1
q-43 1 -122 -5t-115 -5q-28 0 -85 5t-84 5l-2 -34q9 -15 34 -24t55 -17t44 -15q10 -23 10 -213q0 -57 -1 -170t-2 -169v-74q0 -8 1 -14t-1 -14t-2 -13t-2 -8q-7 -7 -91 -7q-18 0 -52 7t-44.5 14.5t-18.5 40.5t-18 62t-24 30q-23 -15 -31 -25v-214h45z" />
</svg>
