<?xml version="1.0" standalone="no"?>
<!DOCTYPE svg PUBLIC "-//W3C//DTD SVG 1.1//EN" "http://www.w3.org/Graphics/SVG/1.1/DTD/svg11.dtd" >
<svg xmlns="http://www.w3.org/2000/svg" xmlns:xlink="http://www.w3.org/1999/xlink" version="1.1" viewBox="-10 0 877 1000">
   <path fill="currentColor"
d="M45 72l30 15q7 3 118 3q25 0 74 -1t73 -1l138 -1q98 -1 170 0l138 2q18 1 31 -17l23 -1q3 0 8 1t8 0q1 62 1 187q0 45 -3 61q-21 8 -38 10q-13 -24 -30 -71l-6 -27q-5 -22 -8 -41t-4 -20q-6 -7 -15 -10q-3 -1 -37 -1q-17 0 -52 -1t-57 -1t-53 2l-53 3q-5 46 -5 76l1 85
v-29v86q0 55 1 101t0 85l-1 40q-1 31 0 51t7 38q22 12 69 24t67 21q3 22 3 29t-2 15l-19 1q-42 1 -121 -5t-116 -5q-28 0 -84 5t-85 5l-2 -34q10 -15 35 -24t55 -17t43 -15q4 -9 7 -41t3 -81t1 -87t-1 -85t0 -50q0 -4 -1 -12t-2 -12l1 -25q1 -21 0 -41t0 -42t-1 -38t-4 -18
q-6 -7 -90 -7q-23 0 -91 8t-78 14t-18 39t-18 63t-24 30q-23 -15 -31 -25v-214h45zM731 787q7 0 24 11t32 23t33 28t20 17q14 11 14 27t-14 27l-20 17l-33 27q-15 12 -32 23t-24 11t-11 -5t-6 -16t-1 -19t0 -18t1 -11h-571l1 11q1 10 1 18t-2 19t-5 16t-11 5t-24 -11
t-32 -23t-34 -27l-20 -17q-14 -11 -14 -27t14 -27q3 -2 20 -17t34 -28t32 -23t22.5 -10.5t12.5 5.5t5 16t2 19t-1 18t-1 11h571l-1 -11q-1 -10 0 -18t1 -19t6 -16t11 -6z" />
</svg>
