<?xml version="1.0" standalone="no"?>
<!DOCTYPE svg PUBLIC "-//W3C//DTD SVG 1.1//EN" "http://www.w3.org/Graphics/SVG/1.1/DTD/svg11.dtd" >
<svg xmlns="http://www.w3.org/2000/svg" xmlns:xlink="http://www.w3.org/1999/xlink" version="1.1" viewBox="-10 0 869 1000">
   <path fill="currentColor"
d="M160 190v161h-160v-161h160zM391 190v161h-161v-161h161zM160 420v162h-160v-162h160zM391 420v162h-161v-162h161zM160 650v160h-160v-160h160zM391 650v160h-161v-160h161zM620 190v161h-161v-161h161zM849 190v161h-160v-161h160zM620 419v162h-161v-162h161zM620 650
v160h-161v-160h161zM849 419v162h-160v-162h160zM849 647v163h-160v-163h160z" />
</svg>
