<?xml version="1.0" standalone="no"?>
<!DOCTYPE svg PUBLIC "-//W3C//DTD SVG 1.1//EN" "http://www.w3.org/Graphics/SVG/1.1/DTD/svg11.dtd" >
<svg xmlns="http://www.w3.org/2000/svg" xmlns:xlink="http://www.w3.org/1999/xlink" version="1.1" viewBox="-10 0 1062 1000">
   <path fill="currentColor"
d="M885 812h-364q-21 0 -37 16t-15 37t15 36t37 15h364q21 0 37 -15t16 -36t-16 -37t-37 -16zM885 708q65 0 111 46t45 111t-45 110t-111 46h-364q-65 0 -110 -46t-46 -110t46 -111t110 -46h364zM885 447h-364q-21 0 -37 16t-15 37t15 37t37 15h364q21 0 37 -15t16 -37
t-16 -37t-37 -16zM885 343q65 0 111 46t45 111t-45 110t-111 46h-364q-65 0 -110 -46t-46 -110t46 -111t110 -46h364zM885 83h-364q-21 0 -37 15t-15 37t15 37t37 15h364q21 0 37 -15t16 -37t-16 -37t-37 -15zM885 -22q65 0 111 46t45 111t-45 110t-111 46h-364
q-65 0 -110 -46t-46 -110t46 -111t110 -46h364zM209 708q44 0 74 31t30 73v104q0 44 -31 74t-73 31h-105q-43 0 -73 -31t-31 -74v-104q0 -42 30 -73t74 -31h105zM209 916v-104h-105v104h105zM209 343q44 0 74 31t30 73v105q0 43 -30 73t-74 31h-105q-44 0 -74 -31t-30 -73
v-105q0 -42 30 -73t74 -31h105zM209 552v-105h-105v105h105zM209 -22q42 0 73 31t31 74v104q0 43 -30 73t-74 31h-105q-44 0 -74 -31t-30 -73v-104q0 -43 31 -74t73 -31h105zM209 187v-104h-105v104h105z" />
</svg>
