<?xml version="1.0" standalone="no"?>
<!DOCTYPE svg PUBLIC "-//W3C//DTD SVG 1.1//EN" "http://www.w3.org/Graphics/SVG/1.1/DTD/svg11.dtd" >
<svg xmlns="http://www.w3.org/2000/svg" xmlns:xlink="http://www.w3.org/1999/xlink" version="1.1" viewBox="-10 0 957 1000">
   <path fill="currentColor"
d="M0 788q0 30 21 51t51 21h32q30 0 51 -21t21 -51t-21 -51t-51 -21h-32q-30 0 -51 21t-21 51zM0 500q0 30 21 51t51 21h32q30 0 51 -21t21 -51t-21 -51t-51 -21h-32q-30 0 -51 21t-21 51zM0 212q0 30 21 51t51 21h32q30 0 51 -21t21 -51t-21 -51t-51 -21h-32q-30 0 -51 21
t-21 51zM234 788q0 30 21 51t51 21h559q30 0 51 -21t21 -51t-21 -51t-51 -21h-559q-30 0 -51 21t-21 51zM234 500q0 30 21 51t51 21h559q30 0 51 -21t21 -51t-21 -51t-51 -21h-559q-30 0 -51 21t-21 51zM234 212q0 30 21 51t51 21h559q30 0 51 -21t21 -51t-21 -51t-51 -21
h-559q-30 0 -51 21t-21 51z" />
</svg>
