<?xml version="1.0" standalone="no"?>
<!DOCTYPE svg PUBLIC "-//W3C//DTD SVG 1.1//EN" "http://www.w3.org/Graphics/SVG/1.1/DTD/svg11.dtd" >
<svg xmlns="http://www.w3.org/2000/svg" xmlns:xlink="http://www.w3.org/1999/xlink" version="1.1" viewBox="-10 0 1020 1000">
   <path fill="currentColor"
d="M286 696v108q0 22 -16 37t-38 16h-178q-23 0 -38 -16t-16 -37v-108q0 -22 16 -38t38 -15h178q23 0 38 15t16 38zM286 411v107q0 22 -16 38t-38 15h-178q-23 0 -38 -15t-16 -38v-107q0 -23 16 -38t38 -16h178q23 0 38 16t16 38zM1000 696v108q0 22 -16 37t-38 16h-535
q-23 0 -38 -16t-16 -37v-108q0 -22 16 -38t38 -15h535q23 0 38 15t16 38zM286 125v107q0 22 -16 38t-38 16h-178q-23 0 -38 -16t-16 -38v-107q0 -22 16 -38t38 -16h178q23 0 38 16t16 38zM1000 411v107q0 22 -16 38t-38 15h-535q-23 0 -38 -15t-16 -38v-107q0 -23 16 -38
t38 -16h535q23 0 38 16t16 38zM1000 125v107q0 22 -16 38t-38 16h-535q-23 0 -38 -16t-16 -38v-107q0 -22 16 -38t38 -16h535q23 0 38 16t16 38z" />
</svg>
