<?xml version="1.0" standalone="no"?>
<!DOCTYPE svg PUBLIC "-//W3C//DTD SVG 1.1//EN" "http://www.w3.org/Graphics/SVG/1.1/DTD/svg11.dtd" >
<svg xmlns="http://www.w3.org/2000/svg" xmlns:xlink="http://www.w3.org/1999/xlink" version="1.1" viewBox="-10 0 949 1000">
   <path fill="currentColor"
d="M429 571v215q0 29 -22 50t-50 21h-286q-29 0 -50 -21t-21 -50v-215q0 -29 21 -50t50 -21h286q29 0 50 21t22 50zM429 143v214q0 29 -22 50t-50 22h-286q-29 0 -50 -22t-21 -50v-214q0 -29 21 -50t50 -22h286q29 0 50 22t22 50zM929 571v215q0 29 -22 50t-50 21h-286
q-29 0 -50 -21t-21 -50v-215q0 -29 21 -50t50 -21h286q29 0 50 21t22 50zM929 143v214q0 29 -22 50t-50 22h-286q-29 0 -50 -22t-21 -50v-214q0 -29 21 -50t50 -22h286q29 0 50 22t22 50z" />
</svg>
