<?xml version="1.0" standalone="no"?>
<!DOCTYPE svg PUBLIC "-//W3C//DTD SVG 1.1//EN" "http://www.w3.org/Graphics/SVG/1.1/DTD/svg11.dtd" >
<svg xmlns="http://www.w3.org/2000/svg" xmlns:xlink="http://www.w3.org/1999/xlink" version="1.1" viewBox="-10 0 985 1000">
   <path fill="currentColor"
d="M860 760q43 0 73 31t30.5 74t-30.5 73t-73 31h-365q-44 0 -74 -31t-31 -73t31 -74t74 -31h365zM860 396q43 0 73 31t31 73t-31 73t-73 31h-365q-44 0 -74 -31t-31 -73t31 -73t74 -31h365zM860 31q43 0 73 31t31 73q0 44 -31 74t-73 31h-365q-42 0 -74 -31t-31 -74t31 -73
t74 -31h365zM0 865q0 -130 130 -130t130 130t-130 130t-130 -130zM0 500q0 -130 130 -130t130 130t-130 130t-130 -130zM0 135q0 -130 130 -130t130 130t-130 130t-130 -130z" />
</svg>
