<?xml version="1.0" standalone="no"?>
<!DOCTYPE svg PUBLIC "-//W3C//DTD SVG 1.1//EN" "http://www.w3.org/Graphics/SVG/1.1/DTD/svg11.dtd" >
<svg xmlns="http://www.w3.org/2000/svg" xmlns:xlink="http://www.w3.org/1999/xlink" version="1.1" viewBox="-10 0 958 1000">
   <path fill="currentColor"
d="M0 187q0 -65 46 -110t110 -46h104q65 0 111 46t45 110v104q0 65 -45 111t-111 45h-104q-65 0 -110 -45t-46 -111v-104zM521 187q0 -65 46 -110t111 -46h103q65 0 111 46t46 110v104q0 65 -46 111t-111 45h-103q-65 0 -111 -45t-46 -111v-104zM0 708q0 -65 46 -110
t110 -46h104q65 0 111 46t45 110v104q0 65 -45 111t-111 46h-104q-65 0 -110 -46t-46 -111v-104zM521 708q0 -65 46 -110t111 -46h103q65 0 111 46t46 110v104q0 65 -46 111t-111 46h-103q-65 0 -111 -46t-46 -111v-104z" />
</svg>
