<?xml version="1.0" standalone="no"?>
<!DOCTYPE svg PUBLIC "-//W3C//DTD SVG 1.1//EN" "http://www.w3.org/Graphics/SVG/1.1/DTD/svg11.dtd" >
<svg xmlns="http://www.w3.org/2000/svg" xmlns:xlink="http://www.w3.org/1999/xlink" version="1.1" viewBox="-10 0 1062 1000">
   <path fill="currentColor"
d="M209 708q44 0 74 31t30 73v104q0 44 -31 74t-73 31h-105q-43 0 -73 -31t-31 -74v-104q0 -42 30 -73t74 -31h105zM209 916v-104h-105v104h105zM209 343q44 0 74 31t30 73v105q0 43 -30 73t-74 31h-105q-44 0 -74 -31t-30 -73v-105q0 -42 30 -73t74 -31h105zM209 552v-105
h-105v105h105zM209 -22q42 0 73 31t31 74v104q0 43 -30 73t-74 31h-105q-44 0 -74 -31t-30 -73v-104q0 -43 31 -74t73 -31h105zM209 187v-104h-105v104h105zM573 708q43 0 74 31t31 73v104q0 44 -32 74t-73 31h-104q-43 0 -73 -31t-31 -74v-104q0 -42 30 -73t74 -31h104z
M573 916v-104h-104v104h104zM573 343q43 0 74 31t31 73v105q0 43 -31 73t-74 31h-104q-44 0 -74 -31t-30 -73v-105q0 -42 30 -73t74 -31h104zM573 552v-105h-104v105h104zM573 -22q42 0 73 31t32 74v104q0 43 -31 73t-74 31h-104q-44 0 -74 -31t-30 -73v-104q0 -43 31 -74
t73 -31h104zM573 187v-104h-104v104h104zM938 708q42 0 73 31t30 73v104q0 44 -30 74t-73 31h-104q-44 0 -75 -31t-30 -74v-104q0 -42 30 -73t75 -31h104zM938 916v-104h-104v104h104zM938 343q42 0 73 31t30 73v105q0 43 -30 73t-73 31h-104q-44 0 -75 -31t-30 -73v-105
q0 -42 30 -73t75 -31h104zM938 552v-105h-104v105h104zM938 -22q42 0 73 31t30 74v104q0 43 -30 73t-73 31h-104q-44 0 -75 -31t-30 -73v-104q0 -43 30 -74t75 -31h104zM938 187v-104h-104v104h104z" />
</svg>
