<?xml version="1.0" standalone="no"?>
<!DOCTYPE svg PUBLIC "-//W3C//DTD SVG 1.1//EN" "http://www.w3.org/Graphics/SVG/1.1/DTD/svg11.dtd" >
<svg xmlns="http://www.w3.org/2000/svg" xmlns:xlink="http://www.w3.org/1999/xlink" version="1.1" viewBox="-10 0 958 1000">
   <path fill="currentColor"
d="M0 916v-286q0 -22 15 -37t37 -16h285q22 0 37 16t15 37v286q0 21 -15 36t-37 15h-285q-22 0 -37 -15t-15 -36zM0 370v-286q0 -21 15 -36t37 -15h285q22 0 37 15t15 36v286q0 22 -15 37t-37 16h-285q-22 0 -37 -16t-15 -37zM547 916v-286q0 -22 15 -37t37 -16h286
q21 0 37 16t15 37v286q0 21 -15 36t-37 15h-286q-21 0 -37 -15t-15 -36zM547 370v-286q0 -21 15 -36t37 -15h286q22 0 37 15t15 36v286q0 22 -15 37t-37 16h-286q-21 0 -37 -16t-15 -37z" />
</svg>
