<?xml version="1.0" standalone="no"?>
<!DOCTYPE svg PUBLIC "-//W3C//DTD SVG 1.1//EN" "http://www.w3.org/Graphics/SVG/1.1/DTD/svg11.dtd" >
<svg xmlns="http://www.w3.org/2000/svg" xmlns:xlink="http://www.w3.org/1999/xlink" version="1.1" viewBox="-10 0 870 1000">
   <path fill="currentColor"
d="M50 50q-18 0 -34 15.5t-16 34.5v350q0 63 20 114q25 62 76 96q60 40 154 40q26 0 50 -3v-147h-200l4 -10q5 -13 13 -25q11 -17 26 -30q19 -16 43 -25q29 -10 64 -10q17 0 29 3q6 1 21 6v-109q0 -35 13 -61.5t37 -38.5t41 -14q16 -3 31 2q9 3 28 12l50 25v-175
q0 -19 -16 -34.5t-33 -15.5t-39 8l-43 17q-29 12 -53 17q-32 8 -66 8t-66 -8q-24 -5 -53 -17l-43 -17q-22 -8 -38 -8zM138 225q26 0 44 18t18 44t-18 44.5t-44 18.5t-44.5 -18.5t-18.5 -44.5t18.5 -44t44.5 -18zM400 300q-18 0 -34 15.5t-16 34.5v350q0 63 20 114
q25 62 76 96q60 40 154 40t154 -40q51 -34 76 -96q20 -51 20 -114v-350q0 -19 -16 -34.5t-33 -15.5t-39 8l-43 17q-29 12 -53 17q-32 8 -66 8t-66 -8q-24 -5 -53 -17l-43 -17q-22 -8 -38 -8zM488 475q26 0 44 18t18 44t-18 44.5t-44 18.5t-44.5 -18.5t-18.5 -44.5t18.5 -44
t44.5 -18zM713 475q26 0 44 18t18 44t-18 44.5t-44 18.5t-44.5 -18.5t-18.5 -44.5t18.5 -44t44.5 -18zM450 750h300l-4 10q-5 13 -13 25q-11 17 -26 30q-19 16 -43 25q-29 10 -64 10t-64 -10q-24 -9 -43 -25q-15 -13 -26 -30q-8 -12 -13 -25z" />
</svg>
