<?xml version="1.0" standalone="no"?>
<!DOCTYPE svg PUBLIC "-//W3C//DTD SVG 1.1//EN" "http://www.w3.org/Graphics/SVG/1.1/DTD/svg11.dtd" >
<svg xmlns="http://www.w3.org/2000/svg" xmlns:xlink="http://www.w3.org/1999/xlink" version="1.1" viewBox="-10 0 1020 1000">
   <path fill="currentColor"
d="M475 172q0 17 -9 30t-25 13t-25 -13t-10 -30t10 -29t25 -13t25 13t9 29zM384 940v-63q0 -17 -11 -29t-29 -12t-28 12t-11 29v63q0 17 12 29t27 13q17 0 29 -13t11 -29zM480 940v-63q0 -17 -11 -29t-28 -12t-28 12t-12 29v63q0 17 12 29t28 12.5t28 -12.5t11 -29zM577 940
v-63q0 -17 -11 -29t-29 -12t-28 12t-11 29v63q0 17 11 29t28 13t29 -13t11 -29zM674 940v-63q0 -17 -11 -29t-28 -12t-29 12t-11 29v63q0 17 11 29t29 13t28 -13t11 -29zM824 559q-47 89 -130 144t-180 56q-69 0 -128 -29t-100 -76t-63 -111t-23 -129q0 -49 12 -97
q-58 98 -58 218q0 90 36 174t104 140q16 -32 49 -32t49 28q18 -28 49 -28t48 28q18 -28 48 -28t49 28q17 -28 48 -28q16 0 29 9t21 22q63 -52 99 -129t41 -160zM740 542q0 -41 -40 -41q-10 0 -26 3q-53 10 -84 10q-126 0 -126 -135q0 -48 17 -114q-46 71 -46 154t49 145
t132 62q62 0 117 -40q7 -26 7 -44zM493 175q0 -28 -18 -50t-45 -22t-45 22t-18 50t18 50t45 22t46 -22t17 -50zM844 364q0 -54 -21 -100t-63 -77t-96 -30q-43 0 -84 20t-70 52q-27 89 -27 150q0 58 25 87t82 30q30 0 80 -11q20 -3 29 -3q29 0 44 16t14 44q0 15 -2 26
q42 -38 66 -92t23 -112zM1000 485q0 62 -19 139t-51.5 113.5t-109.5 80.5t-127 58l-2 1v63q0 24 -17 42t-40 18q-31 0 -48 -28q-18 28 -49 28t-48 -28q-17 28 -48 28t-49 -28q-16 28 -48 28q-26 0 -41 -19t-16 -45q-50 38 -111 38q-65 0 -117 -45q30 0 59 -11
q-63 -17 -102 -71q18 4 40 4q50 0 91 -26q-107 -107 -134 -170q-13 -32 -13 -90q0 -32 5 -70t18 -82t30 -78t49 -59t67 -23q33 0 45 29q10 -16 23 -30q1 -2 7 -8t7 -9q6 -8 13 -21t14 -23l16 -22q48 -62 118 -99t145 -37q20 0 35 3q32 -36 81 -36q46 0 78 32q3 3 3 6t-3 8
t-7 9l-15 15q9 4 20 10t11 14q0 3 -9 14q87 77 110 211q13 -17 33 -17q25 0 56 27q50 45 50 156z" />
</svg>
