<?xml version="1.0" standalone="no"?>
<!DOCTYPE svg PUBLIC "-//W3C//DTD SVG 1.1//EN" "http://www.w3.org/Graphics/SVG/1.1/DTD/svg11.dtd" >
<svg xmlns="http://www.w3.org/2000/svg" xmlns:xlink="http://www.w3.org/1999/xlink" version="1.1" viewBox="-10 0 878 1000">
   <path fill="currentColor"
d="M143 750q0 -15 -11 -25t-25 -11t-25 11t-11 25t11 25t25 11t25 -11t11 -25zM786 429q0 -29 -22 -50t-50 -22h-196q0 -32 27 -89t26 -89q0 -55 -17 -81t-72 -27q-14 15 -21 48t-17 70t-33 61q-13 13 -43 51q-2 3 -13 16t-18 23t-19 24l-22 25q-10 11 -22 19l-22 15
q-10 7 -20 6h-18v357h18q7 0 18 1t18 4t21 6t20 7t20 6t16 6q118 41 191 41h67q107 0 107 -93q0 -15 -2 -31q16 -9 26 -30t10 -41t-10 -38q29 -28 29 -67q0 -14 -5 -31t-14 -26q18 -1 30 -26t12 -45zM857 428q0 50 -27 91q5 18 5 38q0 43 -21 81q1 12 1 24q0 56 -33 99
q0 78 -48 123t-126 45h-72q-54 0 -106 -13t-121 -36q-65 -23 -77 -23h-161q-29 0 -50 -21t-21 -50v-357q0 -30 21 -51t50 -21h153q20 -13 77 -86q32 -42 60 -72q13 -14 19 -48t17 -70t35 -60q22 -21 50 -21q47 0 84 18t57 57t20 104q0 51 -27 107h98q58 0 101 42t42 100z
" />
</svg>
