<?xml version="1.0" standalone="no"?>
<!DOCTYPE svg PUBLIC "-//W3C//DTD SVG 1.1//EN" "http://www.w3.org/Graphics/SVG/1.1/DTD/svg11.dtd" >
<svg xmlns="http://www.w3.org/2000/svg" xmlns:xlink="http://www.w3.org/1999/xlink" version="1.1" viewBox="-11 0 795 1000">
   <path fill="currentColor"
d="M28 363q-16 -32 -7 -65q9 -30 34 -49q-21 -64 16 -97q31 -29 102 -35q60 -4 140 8q68 10 129 28q57 17 69 29v-58q0 -12 9 -21t20 -9h204q12 0 21 9t9 21v482q0 11 -9 19.5t-21 8.5h-204q-11 0 -20 -8.5t-9 -19.5v-33q-44 29 -82 87q-27 42 -49 95q-15 37 -17 48
q-13 50 -40 76.5t-68 26.5q-29 0 -56 -18q-29 -20 -46 -57q-19 -41 -19 -97q0 -23 7 -51q8 -32 22 -56h-19q-40 0 -72 -13q-37 -15 -53 -44q-18 -34 -5 -84q-13 -23 -14 -49q-1 -23 7.5 -43t20.5 -31zM138 366q8 0 11 4t0 7.5t-11 3.5q-25 0 -40 11t-16 26.5t11.5 27
t35.5 12.5q7 0 9.5 4t0 7.5t-9.5 3.5q-23 0 -34 12.5t-8.5 29t18 29t39.5 12.5h75q18 0 27.5 9.5t9.5 22.5q0 10 -8 28l-17 37q-12 25 -18 40q-8 23 -8 40q0 30 9 55q7 21 18.5 33.5t22.5 12.5q15 0 24.5 -11t11.5 -27q7 -49 42 -114.5t82 -117.5q50 -56 96 -76v-226
q-86 -43 -182 -61q-55 -9 -125 -12q-30 -1 -53.5 8.5t-31.5 24.5t3 29t42 21q9 1 12 5.5t0 9t-10 4.5q-31 0 -51 10q-17 10 -20.5 24t8.5 26t35 15z" />
</svg>
