<?xml version="1.0" standalone="no"?>
<!DOCTYPE svg PUBLIC "-//W3C//DTD SVG 1.1//EN" "http://www.w3.org/Graphics/SVG/1.1/DTD/svg11.dtd" >
<svg xmlns="http://www.w3.org/2000/svg" xmlns:xlink="http://www.w3.org/1999/xlink" version="1.1" viewBox="-10 0 795 1000">
   <path fill="currentColor"
d="M746 637q16 32 7 65q-9 30 -34 49q20 64 -16 97q-31 29 -102 35q-60 5 -140 -8q-68 -10 -129 -28q-57 -17 -69 -29v58q0 12 -9 21t-20 9h-205q-11 0 -20 -9t-9 -21v-482q0 -11 9 -19.5t20 -8.5h205q11 0 20 8.5t9 19.5v33q33 -22 64 -62q24 -32 46 -75q16 -31 28 -64
q9 -23 10 -29q11 -49 39 -76t68 -27q30 0 57 19q29 20 46 56q19 42 19 97q0 22 -8 52t-21 55h18q41 0 73 13q36 15 52 44q18 34 5 84q14 23 15 49q1 23 -7.5 43t-20.5 31zM636 636q-8 -1 -11 -5.5t0 -8t11 -3.5q25 0 40 -11t16 -26.5t-11.5 -27t-35.5 -12.5q-7 0 -9.5 -4
t0 -7.5t9.5 -3.5q23 0 34 -12.5t8.5 -29t-17.5 -28.5q-16 -13 -41 -13h-74q-18 0 -28.5 -9.5t-10.5 -22.5q0 -10 8 -28l19 -37q12 -25 18 -40q8 -23 8 -40q0 -30 -9 -55q-7 -21 -19 -33.5t-23 -12.5q-16 0 -24.5 10.5t-10.5 27.5q-7 50 -42 115t-82 117q-50 56 -96 76v226
q86 43 182 61q51 9 125 13q31 1 54 -9t31 -25t-3 -29t-42 -21q-9 -1 -12.5 -5.5t-0.5 -9t9 -4.5q31 0 51 -10q18 -10 21.5 -24t-8 -25t-34.5 -14z" />
</svg>
