<?xml version="1.0" standalone="no"?>
<!DOCTYPE svg PUBLIC "-//W3C//DTD SVG 1.1//EN" "http://www.w3.org/Graphics/SVG/1.1/DTD/svg11.dtd" >
<svg xmlns="http://www.w3.org/2000/svg" xmlns:xlink="http://www.w3.org/1999/xlink" version="1.1" viewBox="-10 0 938 1000">
   <path fill="currentColor"
d="M143 321q0 15 -11 25t-25.5 10.5t-24.5 -10.5t-10.5 -25.5t10.5 -24.5t25.5 -10t24.5 10t11 25zM232 607v-357q0 -15 -10 -25t-26 -11h-160q-15 0 -25 11t-11 25v357q0 15 11 25t25 11h160q15 0 26 -11t10 -25zM862 524q31 34 31 83q-1 44 -32 75t-75 32h-155q2 8 5 14
l26 54q5 11 11 32t6 43q0 14 -1 22t-2 25t-7 28l-14 25q-8 14 -22 23t-33 14t-46 6q-15 0 -26 -11t-18 -27t-11 -29t-7 -35q-5 -23 -8 -33t-10 -27t-17 -27q-18 -19 -56 -67q-28 -36 -57 -68t-42.5 -33t-23.5 -11t-10 -24v-358q0 -15 11 -25t25 -11q19 0 88 -24
q43 -15 67 -22t68 -17t80 -8h72q74 1 110 43q32 39 27 101q22 21 31 54t0 64q25 34 24 77q0 17 -9 42z" />
</svg>
