<?xml version="1.0" standalone="no"?>
<!DOCTYPE svg PUBLIC "-//W3C//DTD SVG 1.1//EN" "http://www.w3.org/Graphics/SVG/1.1/DTD/svg11.dtd" >
<svg xmlns="http://www.w3.org/2000/svg" xmlns:xlink="http://www.w3.org/1999/xlink" version="1.1" viewBox="-11 0 1022 1000">
   <path fill="currentColor"
d="M0 906v-500q0 -39 27 -66t67 -28h94q32 0 60 24l33 -16q123 -64 125 -226q0 -39 28 -67t66 -27q57 0 105 64t49 147q0 66 -8 103q237 6 266 14q43 12 66 43t22 63v23q-2 39 -27 68q17 34 11 75q-7 54 -41 86q16 37 0 83q-17 59 -52 83q7 27 0 54q-6 18 -14 34
q-33 60 -111 60h-172q-92 0 -186 -21l-127 -30h-2q0 -2 -3 -2h-4v-2q-28 55 -84 55h-94q-39 0 -67 -27t-27 -67zM63 906q0 14 8 23t23 9h94q13 0 22 -9t9 -23v-500q0 -13 -9 -22t-22 -9h-94q-14 0 -23 9t-8 22v500zM94 859q0 -19 13 -33t34 -14t33 14t14 33t-14 34t-33 13
t-34 -13t-13 -34zM125 859q0 16 16 16t15 -16t-15 -15t-16 15zM250 856q0 23 27 27q22 6 145 35q88 20 172 20h172q41 0 56 -28q6 -15 8 -23q6 -12 -2 -28t-29 -15h-49q-16 0 -16 -16t16 -16h51q31 0 49 -10t22 -20t11 -30q21 -65 -39 -65h-63q-15 0 -15 -15t15 -16h74
q57 0 69 -66q2 -22 -9 -40t-42 -19h-61q-15 0 -15 -15t15 -16h63q61 0 62 -45v-21q0 -38 -37 -47q-45 -12 -337 -12q19 -59 24 -84t5 -81t-32 -102t-60 -45q-31 0 -31 31q-2 92 -46 173t-142 122q-2 0 -4 1l-2 1q-25 7 -25 33v432z" />
</svg>
