<?xml version="1.0" standalone="no"?>
<!DOCTYPE svg PUBLIC "-//W3C//DTD SVG 1.1//EN" "http://www.w3.org/Graphics/SVG/1.1/DTD/svg11.dtd" >
<svg xmlns="http://www.w3.org/2000/svg" xmlns:xlink="http://www.w3.org/1999/xlink" version="1.1" viewBox="-10 0 877 1000">
   <path fill="currentColor"
d="M143 250q0 -15 -11 -25t-25 -11t-25 11t-11 25t11 25t25 11t25 -11t11 -25zM786 571q0 -19 -12 -45t-30 -26q8 -10 14 -27t5 -31q0 -38 -29 -66q10 -17 10 -38t-10 -41t-26 -30q2 -16 2 -31q0 -47 -27 -70t-76 -23h-71q-73 0 -191 41l-16 5q-13 4 -20 7t-20 7l-21 6
l-18 4q-10 2 -18 1h-18v357h18q9 0 20 5t22 15l22 20q11 10 22 25t19 24t18 22l13 17q30 38 43 51q23 24 33 61t17 70t21 48q54 0 72 -27t17 -81q0 -33 -26 -89t-27 -89h196q28 0 50 -22t22 -50zM857 572q0 57 -42 100t-101 42h-98q27 55 27 107q0 66 -19.5 104.5
t-57.5 56.5t-84 18q-28 0 -50 -21q-19 -18 -30 -45t-14 -51t-10 -47t-17 -36q-27 -28 -60 -71q-57 -73 -77 -86h-153q-29 0 -50 -21t-21 -51v-357q0 -29 21 -50t50 -21h161q12 0 77 -23q72 -24 125 -36t111 -13h63q78 0 126 44t48 121v3q33 43 33 99q0 12 -1 24q21 38 21 80
q0 21 -5 39q27 41 27 91z" />
</svg>
