<?xml version="1.0" standalone="no"?>
<!DOCTYPE svg PUBLIC "-//W3C//DTD SVG 1.1//EN" "http://www.w3.org/Graphics/SVG/1.1/DTD/svg11.dtd" >
<svg xmlns="http://www.w3.org/2000/svg" xmlns:xlink="http://www.w3.org/1999/xlink" version="1.1" viewBox="-10 0 1017 1000">
   <path fill="currentColor"
d="M0 638v-552q2 -34 35 -34h147q35 2 35 34v552q-2 16 -12 26t-23 10h-147q-13 -2 -24 -12t-11 -24zM277 615v-502q2 -21 16 -35t33 -14h459q35 2 70 22q55 33 71 88l70 429q2 26 -13 43t-36 18h-248q8 58 22 117q6 90 -94 158q-20 14 -43 6q-20 -6 -31 -29l-112 -252h-115
q-21 -2 -35 -16t-14 -33z" />
</svg>
