<?xml version="1.0" standalone="no"?>
<!DOCTYPE svg PUBLIC "-//W3C//DTD SVG 1.1//EN" "http://www.w3.org/Graphics/SVG/1.1/DTD/svg11.dtd" >
<svg xmlns="http://www.w3.org/2000/svg" xmlns:xlink="http://www.w3.org/1999/xlink" version="1.1" viewBox="-10 0 1019 1000">
   <path fill="currentColor"
d="M0 913v-552q0 -16 10 -25t25 -11h147q33 0 35 36v552q0 14 -10 24t-25 12h-147q-13 0 -23 -10t-12 -26zM277 886v-500q0 -22 14 -35t37 -16h113l114 -252q13 -31 41 -31q37 -2 93 61q18 25 25 55t6 48t-9 64t-10 55h248q26 0 38 17t11 44l-70 429q-12 42 -53 74t-88 38
h-459q-21 0 -35 -14t-16 -37z" />
</svg>
