<?xml version="1.0" standalone="no"?>
<!DOCTYPE svg PUBLIC "-//W3C//DTD SVG 1.1//EN" "http://www.w3.org/Graphics/SVG/1.1/DTD/svg11.dtd" >
<svg xmlns="http://www.w3.org/2000/svg" xmlns:xlink="http://www.w3.org/1999/xlink" version="1.1" viewBox="-10 0 938 1000">
   <path fill="currentColor"
d="M143 750q0 -15 -11 -25t-25.5 -10.5t-24.5 10.5t-10.5 25.5t10.5 24.5t25.5 10.5t24.5 -10.5t11 -25zM232 464v357q0 15 -10 25t-26 11h-160q-15 0 -25 -11t-11 -25v-357q0 -14 11 -25t25 -10h160q15 0 26 10t10 25zM893 464q0 48 -31 83q9 25 9 43q1 42 -24 76
q9 31 0 66q-9 31 -31 52q5 62 -27 101q-36 43 -110 44h-72q-37 0 -80 -9t-68 -16t-67 -22q-69 -24 -88 -25q-15 0 -25 -11t-11 -25v-357q0 -14 10 -25t23.5 -11.5t42.5 -32.5t57 -67q38 -49 56 -67q10 -10 17 -27t10 -27t8 -34q4 -22 7 -34t11 -29t18.5 -28t25.5 -11
q25 0 46 6t33 15t22 22t14 25t7 28t2 25t1 22q0 21 -6 43t-10 33t-16 31q-1 4 -5 10t-6 13t-5 13h155q43 0 75 32t32 75z" />
</svg>
