<?xml version="1.0" standalone="no"?>
<!DOCTYPE svg PUBLIC "-//W3C//DTD SVG 1.1//EN" "http://www.w3.org/Graphics/SVG/1.1/DTD/svg11.dtd" >
<svg xmlns="http://www.w3.org/2000/svg" xmlns:xlink="http://www.w3.org/1999/xlink" version="1.1" viewBox="-10 0 820 1000">
   <path fill="currentColor"
d="M582 370q2 6 58 13t108 24t52 47q0 72 -61 284t-107 212q-144 0 -288 -42t-144 -88v-342q0 -14 15 -34t46 -45t53 -41t62 -43l46 -31q50 -34 104 -100l85 -104q31 -38 41 -26q48 76 29 137t-59 119t-40 60zM150 374q14 0 0 14q-50 50 -50 104v318q0 50 52 104
q10 10 -2 10q-26 0 -55 -8t-62 -45t-33 -99v-242q0 -62 33 -100t63 -47t54 -9z" />
</svg>
