<?xml version="1.0" standalone="no"?>
<!DOCTYPE svg PUBLIC "-//W3C//DTD SVG 1.1//EN" "http://www.w3.org/Graphics/SVG/1.1/DTD/svg11.dtd" >
<svg xmlns="http://www.w3.org/2000/svg" xmlns:xlink="http://www.w3.org/1999/xlink" version="1.1" viewBox="-10 0 905 1000">
   <path fill="currentColor"
d="M811 380q38 13 58 51t15 77l-35 312q-6 39 -32 70t-58 44q-5 1 -26 9l-29 11q-8 3 -30 7t-45 6t-56 2q-83 0 -174 -26t-130 -56l-3 -2q-2 -1 -4 -4l-3 -4q-46 40 -103 40q-65 0 -110 -45t-46 -111v-313q0 -65 46 -110t110 -46q77 0 124 63q44 -44 64 -85t21 -108
q0 -54 38 -92t92 -39t92 39t38 92q0 94 -16 188q170 17 202 30zM156 812q22 0 37 -15t16 -36v-313q0 -21 -16 -36t-37 -16t-37 16t-15 36v313q0 21 15 36t37 15zM746 805l35 -312q3 -12 -6 -16q-15 -4 -107 -15l-119 -14l-69 10l16 -73q25 -117 25 -223q0 -10 -8 -18t-18 -8
t-18 8t-8 18q0 54 -11 98t-32 78t-37 51l-40 43q-36 36 -36 69v260q0 30 18 44q24 17 99 38t143 22q26 0 45 -1t35 -5t23 -5t23 -9t24 -9q6 -3 14 -13t9 -18z" />
</svg>
