<?xml version="1.0" standalone="no"?>
<!DOCTYPE svg PUBLIC "-//W3C//DTD SVG 1.1//EN" "http://www.w3.org/Graphics/SVG/1.1/DTD/svg11.dtd" >
<svg xmlns="http://www.w3.org/2000/svg" xmlns:xlink="http://www.w3.org/1999/xlink" version="1.1" viewBox="-11 0 907 1000">
   <path fill="currentColor"
d="M729 82q65 0 111 46t45 110v313q0 65 -45 111t-111 45q-76 0 -124 -62q-42 42 -63 84t-21 109q0 54 -38 92t-92 39t-92 -39t-39 -92q0 -95 16 -188q-173 -19 -201 -29q-37 -14 -59 -52t-15 -78l35 -311q7 -38 32 -70t58 -44q5 -1 26 -9l29 -11q8 -3 30 -8t45 -6t57 -1
q82 0 174 26t131 55q2 1 5 5t3 5q47 -40 103 -40zM416 837q0 -54 11 -97t33 -78t36 -52t40 -43q37 -36 37 -69v-260q0 -11 -7 -25t-12 -18q-24 -18 -99 -39t-142 -21q-27 0 -46 1t-35 4t-23 6l-23 9q-16 6 -23 8.5t-15 12.5t-9 19l-34 311q-2 12 5 16q15 4 108 15l118 14
l69 -10l-15 74q-25 122 -25 222q0 10 8 18t17 9t18 -9t8 -18zM781 551v-313q0 -21 -15 -36t-37 -15t-36 15t-15 36v313q0 21 15 37t36 15t37 -15t15 -37z" />
</svg>
