<?xml version="1.0" standalone="no"?>
<!DOCTYPE svg PUBLIC "-//W3C//DTD SVG 1.1//EN" "http://www.w3.org/Graphics/SVG/1.1/DTD/svg11.dtd" >
<svg xmlns="http://www.w3.org/2000/svg" xmlns:xlink="http://www.w3.org/1999/xlink" version="1.1" viewBox="-11 0 1089 1000">
   <path fill="currentColor"
d="M1023 294q45 45 45 111t-46 110l-476 469q-48 45 -110 45q-65 0 -112 -46l-280 -279q-45 -45 -44 -111t46 -110l476 -469q44 -44 111 -43t110 44zM949 440q15 -15 15 -36t-15 -36l-66 -66q-31 28 -72 28t-72 -31t-30 -71t28 -73l-68 -66q-15 -15 -36.5 -15t-36.5 15
l-477 469q-15 15 -15 36t14 36l66 67q32 -29 73 -29t70.5 30.5t30.5 71.5t-26 73l66 66q15 15 38 16t37 -15zM508 762l-242 -243l293 -282l243 242zM339 520l170 169l219 -211l-169 -169z" />
</svg>
