<?xml version="1.0" standalone="no"?>
<!DOCTYPE svg PUBLIC "-//W3C//DTD SVG 1.1//EN" "http://www.w3.org/Graphics/SVG/1.1/DTD/svg11.dtd" >
<svg xmlns="http://www.w3.org/2000/svg" xmlns:xlink="http://www.w3.org/1999/xlink" version="1.1" viewBox="-10 0 591 1000">
   <path fill="currentColor"
d="M286 643q0 -20 -11 -39q-1 0 -9 -12l-14 -21q-6 -9 -14 -25t-12 -28q-2 -9 -12 -9t-11 9q-4 13 -12 28t-14 25t-14 21l-9 12q-11 19 -11 39q0 29 21 50t50 21t51 -21t21 -50zM571 571q0 119 -83 202t-202 84t-202 -84t-84 -202q0 -81 45 -153q4 -5 35 -51l56 -84
q25 -38 56 -99t46 -113q5 -16 19 -26t29 -9t29 9t18 26q16 52 47 113t55 99t56 84t35 51q45 71 45 153z" />
</svg>
