<?xml version="1.0" standalone="no"?>
<!DOCTYPE svg PUBLIC "-//W3C//DTD SVG 1.1//EN" "http://www.w3.org/Graphics/SVG/1.1/DTD/svg11.dtd" >
<svg xmlns="http://www.w3.org/2000/svg" xmlns:xlink="http://www.w3.org/1999/xlink" version="1.1" viewBox="-10 0 725 1000">
   <path fill="currentColor"
d="M0 646q2 -106 57 -190q17 -27 55 -80t54 -78q90 -139 127 -256q16 -45 59 -41q46 -2 58 41q37 119 129 256q18 29 55 80t54 78q55 88 57 190q-4 148 -103 250q-106 101 -250 103q-149 -4 -248 -103q-104 -108 -104 -250zM154 724q2 37 28 62t60 26q37 -2 63 -28t25 -60
q0 -27 -14 -47q-17 -23 -27 -41q-25 -41 -33 -63q-2 -13 -14 -11q-11 -2 -15 11q-8 28 -30 63q-6 10 -15 22l-14 19q-14 20 -14 47z" />
</svg>
