<?xml version="1.0" standalone="no"?>
<!DOCTYPE svg PUBLIC "-//W3C//DTD SVG 1.1//EN" "http://www.w3.org/Graphics/SVG/1.1/DTD/svg11.dtd" >
<svg xmlns="http://www.w3.org/2000/svg" xmlns:xlink="http://www.w3.org/1999/xlink" version="1.1" viewBox="-11 0 1021 1000">
   <path fill="currentColor"
d="M25 921q-10 11 -18 8t-7 -18v-822q0 -14 7 -18t18 8l396 396q5 5 8 10v-396q0 -14 7 -18t18 8l396 396q5 5 7 10v-378q0 -14 11 -25t25 -11h71q15 0 25 11t11 25v786q0 14 -11 25t-25 11h-71q-15 0 -25 -11t-11 -25v-379q-2 6 -7 11l-396 396q-11 11 -18 8t-7 -18v-397
q-3 6 -8 11z" />
</svg>
