<?xml version="1.0" standalone="no"?>
<!DOCTYPE svg PUBLIC "-//W3C//DTD SVG 1.1//EN" "http://www.w3.org/Graphics/SVG/1.1/DTD/svg11.dtd" >
<svg xmlns="http://www.w3.org/2000/svg" xmlns:xlink="http://www.w3.org/1999/xlink" version="1.1" viewBox="-11 0 871 1000">
   <path fill="currentColor"
d="M475 0q-10 0 -17.5 7t-7.5 18v950q0 10 7.5 17.5t18 7.5t17.5 -7.5t7 -17.5v-950q0 -11 -7 -18t-18 -7zM200 50q-41 0 -70.5 29.5t-29.5 70.5t29.5 70.5t70.5 29.5t70.5 -29.5t29.5 -70.5t-29.5 -70.5t-70.5 -29.5zM725 50q-41 0 -70.5 29.5t-29.5 70.5t29.5 70.5
t70.5 29.5t70.5 -29.5t29.5 -70.5t-29.5 -70.5t-70.5 -29.5zM125 300l-124 375q-4 9 5 17t20 8h74v225q0 10 7.5 17.5t18 7.5t17.5 -7.5t7 -17.5v-225h100v225q0 10 7.5 17.5t18 7.5t17.5 -7.5t7 -17.5v-225h75q11 0 20 -8t5 -17l-125 -375h-150zM650 300q-21 0 -35.5 14.5
t-14.5 35.5v575q0 10 7.5 17.5t18 7.5t17.5 -7.5t7 -17.5v-275h150v275q0 10 7.5 17.5t18 7.5t17.5 -7.5t7 -17.5v-575q0 -21 -14.5 -35.5t-35.5 -14.5h-150z" />
</svg>
