<?xml version="1.0" standalone="no"?>
<!DOCTYPE svg PUBLIC "-//W3C//DTD SVG 1.1//EN" "http://www.w3.org/Graphics/SVG/1.1/DTD/svg11.dtd" >
<svg xmlns="http://www.w3.org/2000/svg" xmlns:xlink="http://www.w3.org/1999/xlink" version="1.1" viewBox="-11 0 1022 1000">
   <path fill="currentColor"
d="M155 344q-8 8 -11 22t-3 25t-2 11l-17 15q-15 13 -19 17q-16 14 -28 -4l-70 -76q-11 -12 2 -24q2 -2 18 -14t20 -16q6 -6 27 -6t36 -14t19 -38t10 -30q2 0 9 -7t26 -22t41 -31q134 -90 186 -96q122 0 148 2q12 0 -8 8q-120 52 -152 76q-80 56 -36 114q34 46 38 48
q8 8 -2 14l-76 70q-14 8 -18 4q-42 -48 -71 -60t-67 12zM441 370l410 476q18 22 -2 38l-48 42q-22 14 -38 -4l-414 -472q-8 -8 0 -20l72 -62q12 -8 20 2zM995 168q16 104 -16 166q-50 88 -154 62q-56 -12 -100 32l-82 78l-68 -78l68 -70q24 -24 31 -53t6 -65t5 -58
q12 -56 140 -112q12 -6 18 3t2 15q-12 12 -46 80q-14 10 -12 35t40 53q58 40 96 -22q6 -12 26 -41t22 -33q4 -10 13 -9t11 17zM137 852l254 -248l76 86l-246 242q-20 20 -38 4l-46 -46q-22 -18 0 -38z" />
</svg>
