<?xml version="1.0" standalone="no"?>
<!DOCTYPE svg PUBLIC "-//W3C//DTD SVG 1.1//EN" "http://www.w3.org/Graphics/SVG/1.1/DTD/svg11.dtd" >
<svg xmlns="http://www.w3.org/2000/svg" xmlns:xlink="http://www.w3.org/1999/xlink" version="1.1" viewBox="-10 0 971 1000">
   <path fill="currentColor"
d="M475 50l-375 250h750zM150 350q-21 0 -35.5 14.5t-14.5 35.5v350l-87 150l-11 18q-2 4 -2 7q0 16 18 22q11 3 32 3h850q22 0 32 -3q18 -6 18 -22q0 -4 -3 -10q10 18 -9 -15l-88 -150v-350q0 -21 -14.5 -35.5t-35.5 -14.5h-650zM250 450q20 0 33 14t17 36v300h-100v-300
q0 -21 14.5 -35.5t35.5 -14.5zM475 450q21 0 35.5 14.5t14.5 35.5v300h-100v-300q0 -21 14.5 -35.5t35.5 -14.5zM700 450q21 0 35.5 14.5t14.5 35.5v300h-100v-300q0 -21 14.5 -35.5t35.5 -14.5z" />
</svg>
