<?xml version="1.0" standalone="no"?>
<!DOCTYPE svg PUBLIC "-//W3C//DTD SVG 1.1//EN" "http://www.w3.org/Graphics/SVG/1.1/DTD/svg11.dtd" >
<svg xmlns="http://www.w3.org/2000/svg" xmlns:xlink="http://www.w3.org/1999/xlink" version="1.1" viewBox="-11 0 983 1000">
   <path fill="currentColor"
d="M480 604q-90 0 -156 -27t-70 -65l56 -158q10 28 59 46t112 18t111 -18t58 -46l56 158q-4 38 -70 65t-156 27zM480 270q-96 0 -124 -44l52 -142q10 -34 72 -34t74 34q12 38 50 142q-28 44 -124 44zM920 654q40 16 41 41t-37 47l-352 188q-38 22 -91 22t-91 -22l-354 -188
q-38 -20 -36 -46t42 -42l188 -76l-22 60q0 48 80 82t192 34t192 -34t82 -82l-22 -60z" />
</svg>
