<?xml version="1.0" standalone="no"?>
<!DOCTYPE svg PUBLIC "-//W3C//DTD SVG 1.1//EN" "http://www.w3.org/Graphics/SVG/1.1/DTD/svg11.dtd" >
<svg xmlns="http://www.w3.org/2000/svg" xmlns:xlink="http://www.w3.org/1999/xlink" version="1.1" viewBox="-10 0 878 1000">
   <path fill="currentColor"
d="M607 0q103 0 177 52t73 127v500q0 72 -70 123t-170 55l119 112q8 9 4 20t-17 11h-589q-12 0 -17 -11t5 -20l119 -112q-101 -3 -171 -55t-70 -123v-500q0 -75 73 -127t177 -52h357zM429 750q44 0 76 -31t31 -76t-31 -76t-76 -31t-76 31t-32 76t32 76t76 31zM750 429v-286
h-643v286h643z" />
</svg>
