<?xml version="1.0" standalone="no"?>
<!DOCTYPE svg PUBLIC "-//W3C//DTD SVG 1.1//EN" "http://www.w3.org/Graphics/SVG/1.1/DTD/svg11.dtd" >
<svg xmlns="http://www.w3.org/2000/svg" xmlns:xlink="http://www.w3.org/1999/xlink" version="1.1" viewBox="-10 0 1010 1000">
   <path fill="currentColor"
d="M714 18q0 -8 5 -13t13 -5h161q14 0 25 11t11 25v160q0 8 -5 13t-13 5h-36q-8 0 -13 -5t-5 -13v-74l-142 142q71 88 71 200q0 124 -83 215t-203 104v74h54q7 0 12 5t5 13v36q0 8 -5 13t-12 5h-54v53q0 8 -5 13t-13 5h-36q-7 0 -12 -5t-5 -13v-53h-54q-8 0 -13 -5t-5 -13
v-36q0 -8 5 -13t13 -5h54v-74q-121 -13 -204 -104t-82 -215q0 -112 70 -200l-29 -30l-56 62q-5 6 -12 6t-13 -4l-27 -25q-6 -4 -6 -12t5 -13l58 -64l-62 -62v74q0 8 -5 13t-12 5h-36q-8 0 -13 -5t-5 -13v-160q0 -15 11 -25t25 -11h160q8 0 13 5t5 13v36q0 7 -5 12t-13 5h-74
l59 60l48 -52q5 -6 13 -6t13 4l26 25q6 4 6 12t-5 13l-50 55l32 31q88 -70 200 -70t201 70l142 -142h-75q-8 0 -13 -5t-5 -12v-36zM464 714q104 0 177 -73t73 -177t-73 -176t-177 -74t-176 74t-74 176t74 177t176 73z" />
</svg>
