<?xml version="1.0" standalone="no"?>
<!DOCTYPE svg PUBLIC "-//W3C//DTD SVG 1.1//EN" "http://www.w3.org/Graphics/SVG/1.1/DTD/svg11.dtd" >
<svg xmlns="http://www.w3.org/2000/svg" xmlns:xlink="http://www.w3.org/1999/xlink" version="1.1" viewBox="-10 0 834 1000">
   <path fill="currentColor"
d="M769 111q18 0 31.5 13t13.5 32t-13.5 32t-31.5 13h-6l-135 688h-438l-134 -688h-11q-19 0 -32 -13t-13 -32t13 -32t32 -13h724zM373 218l-19 -17h-118l-18 17l77 78zM179 476l25 129l60 -60l-78 -77zM218 436l77 77l78 -77l-78 -76zM404 468l-76 77l76 77l77 -77z
M436 436l77 77l77 -77l-77 -76zM404 405l77 -78l-77 -76l-76 76zM186 251l-43 42l17 85l26 27l78 -78zM295 577l-77 78l77 76l78 -76zM404 686l-76 77l57 58h38l58 -58zM513 731l77 -76l-77 -78l-77 78zM613 613l25 -128l-17 -17l-76 77zM661 366l13 -64l-53 -51l-76 76
l76 78zM590 218l-19 -17h-117l-18 17l77 78zM133 241l40 -40h-48zM229 728l17 93h75zM593 716l-107 105h85zM684 248l10 -47h-59z" />
</svg>
