<?xml version="1.0" standalone="no"?>
<!DOCTYPE svg PUBLIC "-//W3C//DTD SVG 1.1//EN" "http://www.w3.org/Graphics/SVG/1.1/DTD/svg11.dtd" >
<svg xmlns="http://www.w3.org/2000/svg" xmlns:xlink="http://www.w3.org/1999/xlink" version="1.1" viewBox="-10 0 905 1000">
   <path fill="currentColor"
d="M0 166q0 -37 59 -67t161 -49t222.5 -18.5t222.5 18.5t161 49t59 67q-10 80 -39 227l-55 276q-26 129 -29 138q-6 36 -39 68t-81 51t-100 31t-100 12t-100 -12t-99 -31t-81 -51t-39 -68q-4 -21 -33 -160t-56 -278t-34 -203zM126 389l38 183l87 -75zM132 196q0 31 91 54
t219.5 22.5t219.5 -22.5t91 -54t-91 -55t-220 -22t-219 22t-91 55zM187 684l21 102l49 -42zM195 372l101 87l71 -62q-95 -6 -172 -25zM200 618l101 88l96 -83l-101 -87zM249 827q72 31 149 38l-97 -83zM340 497l101 88l96 -83l-99 -89zM346 744l102 88l95 -83l-102 -88z
M486 623l101 87l92 -80l-98 -89zM500 864q71 -8 134 -36l-47 -41zM508 398l73 66l106 -91q-79 20 -179 25zM625 503l93 84l41 -199zM632 749l44 39l20 -96z" />
</svg>
