<?xml version="1.0" standalone="no"?>
<!DOCTYPE svg PUBLIC "-//W3C//DTD SVG 1.1//EN" "http://www.w3.org/Graphics/SVG/1.1/DTD/svg11.dtd" >
<svg xmlns="http://www.w3.org/2000/svg" xmlns:xlink="http://www.w3.org/1999/xlink" version="1.1" viewBox="-10 0 770 1000">
   <path fill="currentColor"
d="M275 25q-10 0 -17.5 7t-7.5 18v75h-200q-21 0 -35.5 14.5t-14.5 35.5t14.5 35.5t35.5 14.5h650q21 0 35.5 -14.5t14.5 -35.5t-14.5 -35.5t-35.5 -14.5h-200v-75q0 -11 -7 -18t-18 -7h-200zM300 75h150v50h-150v-50zM50 275q-22 0 -37.5 15t-11.5 35l99 600q4 22 17 36
t33 14h450q20 0 33 -14t17 -36l99 -600q4 -20 -11.5 -35t-37.5 -15h-650z" />
</svg>
