<?xml version="1.0" standalone="no"?>
<!DOCTYPE svg PUBLIC "-//W3C//DTD SVG 1.1//EN" "http://www.w3.org/Graphics/SVG/1.1/DTD/svg11.dtd" >
<svg xmlns="http://www.w3.org/2000/svg" xmlns:xlink="http://www.w3.org/1999/xlink" version="1.1" viewBox="-10 0 938 1000">
   <path fill="currentColor"
d="M688 165h223v111h-112v502q0 69 -48 119t-119 50h-334q-70 0 -119 -50t-49 -119v-502h-112v-111h223q0 -46 33 -79t79 -33h223q46 0 79 33t33 79zM353 723q24 0 40 -17t16 -40t-16 -39t-40 -16t-39 16t-15.5 39.5t15.5 40.5t39 16zM353 499q24 0 40 -16t16 -40t-16 -39
t-40 -16t-39 16t-16 39q0 24 16 40t39 16zM576 723q24 0 40 -17t16 -40t-16 -39t-40 -16t-39 16t-15.5 39.5t15.5 40.5t39 16zM576 499q24 0 40 -16t16 -40t-16 -39t-40 -16t-39 16t-16 39q0 24 16 40t39 16z" />
</svg>
