<?xml version="1.0" standalone="no"?>
<!DOCTYPE svg PUBLIC "-//W3C//DTD SVG 1.1//EN" "http://www.w3.org/Graphics/SVG/1.1/DTD/svg11.dtd" >
<svg xmlns="http://www.w3.org/2000/svg" xmlns:xlink="http://www.w3.org/1999/xlink" version="1.1" viewBox="-10 0 1306 1000">
   <path fill="currentColor"
d="M363 556q0 22 -15 37t-36.5 15.5t-37.5 -15.5t-15.5 -37t15.5 -36t37 -15.5t37 15.5t15 36zM1007 556q0 22 -15 37t-37 15t-37 -15t-16 -37t16 -37t37 -15t37 15t15 37zM427 556q0 -44 -32 -76t-76 -31t-76 31t-31 76t31 76t76 32t76 -32t32 -76zM1070 556q0 -45 -31 -76
t-75.5 -31.5t-76.5 31.5t-32 76t31 76t77 31t76 -31t31 -76zM474 556q0 65 -45 111t-109.5 45.5t-110.5 -46.5t-45 -110t45 -109t110 -46t110 46t45 109zM1118 556q0 64 -45 109t-110 45.5t-110 -45.5t-45 -109t45 -110t110 -45q64 0 110 45t45 110zM580 557
q0 -106 -75 -182t-182 -75q-70 0 -129 34t-94 94t-35 129t35 130t94 94t129 34q106 0 182 -75t75 -183zM953 238q-142 -62 -310 -62q-178 0 -320 61q65 0 125 26t101 68t69 102t25 124q0 -64 24 -122t66 -101t99 -68t121 -28zM1220 557q0 -106 -75 -182t-182 -75t-182 75
t-76 182t76 183t182 75t182 -75t75 -183zM1072 242h214q-25 28 -42 63t-22 64q61 85 61 188q0 87 -43 161t-117 116t-160 43q-74 0 -139 -31t-109 -87q-26 32 -72 100q-6 -12 -30 -46t-42 -54q-44 55 -109 87t-139 31q-87 0 -161 -43t-116 -116t-43 -161q0 -103 61 -188
q-5 -28 -22 -64t-42 -63h204q83 -56 198 -88t240.5 -31.5t235.5 31.5t194 88z" />
</svg>
