<?xml version="1.0" standalone="no"?>
<!DOCTYPE svg PUBLIC "-//W3C//DTD SVG 1.1//EN" "http://www.w3.org/Graphics/SVG/1.1/DTD/svg11.dtd" >
<svg xmlns="http://www.w3.org/2000/svg" xmlns:xlink="http://www.w3.org/1999/xlink" version="1.1" viewBox="-11 0 1021 1000">
   <path fill="currentColor"
d="M0 531v-343q0 -40 27 -67t67 -27h469q39 0 66 27t27 67v62h125q51 0 78 41l125 187q16 24 16 53v188q0 39 -27 66t-67 27h-35q-12 42 -45 68t-76 26t-76 -26t-45 -68h-164q-12 42 -45 68t-76 26t-76 -26t-45 -68h-35q-40 0 -67 -27t-27 -66v-94q-39 0 -67 -27t-27 -67z
M63 531q0 14 8 23t23 8h469q13 0 22 -8t9 -23v-343q0 -14 -9 -23t-22 -9h-469q-14 0 -23 9t-8 23v343zM156 719q0 13 9 22t23 9h35q11 -41 45 -67t76 -27t76 27t45 67h164q12 -41 45 -67t76 -27t76 27t45 67h35q14 0 23 -9t8 -22v-188q0 -10 -5 -17l-125 -188
q-8 -14 -26 -14h-125v219q0 39 -27 67t-66 27h-407v94zM281 781q0 26 19 44t44 19t44 -19t18 -44t-18 -44t-44 -18t-44 18t-19 44zM688 781q0 26 18 44t44 19t44 -19t18 -44t-18 -44t-44 -18t-44 18t-18 44zM688 562v-187q0 -14 8 -22t23 -9h31q18 0 25 13l94 141q6 8 6 18
v46q0 14 -9 23t-22 9h-125q-14 0 -23 -9t-8 -23zM719 562h125v-46l-94 -141h-31v187z" />
</svg>
