<?xml version="1.0" standalone="no"?>
<!DOCTYPE svg PUBLIC "-//W3C//DTD SVG 1.1//EN" "http://www.w3.org/Graphics/SVG/1.1/DTD/svg11.dtd" >
<svg xmlns="http://www.w3.org/2000/svg" xmlns:xlink="http://www.w3.org/1999/xlink" version="1.1" viewBox="-10 0 1020 1000">
   <path fill="currentColor"
d="M250 732v107q0 8 -5 13t-13 5h-107q-8 0 -13 -5t-5 -13v-107q0 -8 5 -13t13 -5h107q8 0 13 5t5 13zM143 518v107q0 8 -5 13t-13 5h-107q-8 0 -13 -5t-5 -13v-107q0 -8 5 -13t13 -5h107q8 0 13 5t5 13zM464 732v107q0 8 -5 13t-13 5h-107q-7 0 -12 -5t-6 -13v-107
q0 -8 6 -13t12 -5h107q8 0 13 5t5 13zM357 518v107q0 8 -5 13t-13 5h-107q-8 0 -13 -5t-5 -13v-107q0 -8 5 -13t13 -5h107q8 0 13 5t5 13zM37 429q-16 0 -26 -11t-11 -26v-72h287v72q0 15 -11 26t-25 11h-214zM679 732v107q0 8 -5 13t-13 5h-107q-8 0 -13 -5t-5 -13v-107
q0 -8 5 -13t13 -5h107q8 0 13 5t5 13zM571 518v107q0 8 -5 13t-12 5h-108q-7 0 -12 -5t-5 -13v-107q0 -8 5 -13t12 -5h108q7 0 12 5t5 13zM893 732v107q0 8 -5 13t-13 5h-107q-8 0 -13 -5t-5 -13v-107q0 -8 5 -13t13 -5h107q8 0 13 5t5 13zM786 518v107q0 8 -5 13t-13 5
h-107q-8 0 -13 -5t-5 -13v-107q0 -8 5 -13t13 -5h107q8 0 13 5t5 13zM1000 290v7h-287v-5q0 -58 -213 -57.5t-213 57.5v5h-287v-7q0 -9 5 -24t19 -36t36 -42t62 -42t89 -38t125 -26t164 -11t164 11t125 26t89 38t62 42t36 42t19 36t5 24zM1000 518v107q0 8 -5 13t-13 5h-107
q-8 0 -13 -5t-5 -13v-107q0 -8 5 -13t13 -5h107q8 0 13 5t5 13zM1000 320v72q0 15 -11 26t-25 11h-215q-15 0 -25 -11t-11 -26v-72h287z" />
</svg>
