<?xml version="1.0" standalone="no"?>
<!DOCTYPE svg PUBLIC "-//W3C//DTD SVG 1.1//EN" "http://www.w3.org/Graphics/SVG/1.1/DTD/svg11.dtd" >
<svg xmlns="http://www.w3.org/2000/svg" xmlns:xlink="http://www.w3.org/1999/xlink" version="1.1" viewBox="-10 0 1019 1000">
   <path fill="currentColor"
d="M499 0q-28 0 -43 1q-113 9 -210.5 66.5t-160.5 149.5q-65 95 -80 209q-14 108 15 211q27 98 89.5 177t148.5 127q88 49 187 57q148 12 265 -43q97 -46 175 -139q64 -76 93 -175q31 -107 15 -219q-10 -71 -46 -141q-35 -66 -87.5 -122t-113.5 -92q-116 -67 -247 -67z
M501 96q79 0 156 29q114 62 175 143q71 97 72 228q0 107 -46.5 197t-129.5 146q-85 57 -191 66q-88 8 -175 -23.5t-151 -93.5q-69 -66 -99 -154q-33 -96 -15 -204q15 -92 72.5 -168.5t142.5 -120.5q88 -45 189 -45zM685 342q-34 0 -64.5 14.5t-47.5 40.5q-18 29 -16 68
q46 -30 119 -34.5t136 18.5q-2 -51 -41 -81q-36 -27 -86 -26zM310 343q-49 0 -83 26q-38 29 -41 80q14 -1 38 -8q28 -8 38 -10q21 -4 36 -1q-16 37 -20 49q-11 28 -15 55q-15 -15 -31 -12.5t-25.5 17t-7 31.5t21.5 26q-18 4 -22 22t7 34t30 13q8 -3 18 -10q18 -14 17 -13
q10 23 27 23q15 1 27.5 -14t11.5 -31q-2 -19 -23 -28q21 -9 23 -26q2 -14 -9.5 -28t-27 -17t-25.5 9q5 -11 14 -38.5t16 -39.5q11 -18 27.5 -22t36.5 4q9 3 36 16q22 12 36 15q4 -38 -15 -67q-17 -27 -48.5 -41.5t-67.5 -13.5zM267 581q6 0 16 15q-13 13 -20 9.5t-5 -14
t9 -10.5z" />
</svg>
