<?xml version="1.0" standalone="no"?>
<!DOCTYPE svg PUBLIC "-//W3C//DTD SVG 1.1//EN" "http://www.w3.org/Graphics/SVG/1.1/DTD/svg11.dtd" >
<svg xmlns="http://www.w3.org/2000/svg" xmlns:xlink="http://www.w3.org/1999/xlink" version="1.1" viewBox="-11 0 960 1000">
   <path fill="currentColor"
d="M593 687v-65q-33 21 -62 21q-12 0 -27 -7t-15 -18q-5 -10 -5 -45v-102h95v-64h-95v-102h-56q-8 38 -15 54t-27.5 32t-39.5 24v56h44v141q0 66 63 90q27 8 47 8q50 0 93 -23zM469 969q-194 0 -331 -138t-138 -331t138 -332t331 -137t331 137t138 332t-138 331t-331 138z
M469 135q-151 0 -258 107t-107 258t107 258t258 107t258 -107t107 -258t-107 -258t-258 -107z" />
</svg>
