<?xml version="1.0" standalone="no"?>
<!DOCTYPE svg PUBLIC "-//W3C//DTD SVG 1.1//EN" "http://www.w3.org/Graphics/SVG/1.1/DTD/svg11.dtd" >
<svg xmlns="http://www.w3.org/2000/svg" xmlns:xlink="http://www.w3.org/1999/xlink" version="1.1" viewBox="-10 0 591 1000">
   <path fill="currentColor"
d="M527 742l44 132q-12 19 -61 37t-99 18q-58 1 -107 -15t-79 -41t-53 -59t-31 -67t-9 -66v-304h-94v-120q40 -14 72 -39t51 -50t32 -57t19 -55t8 -49q1 -3 3 -5t4 -2h136v237h186v140h-186v289q0 17 3 31t13 30t28 23t45 8q44 -1 75 -16z" />
</svg>
