<?xml version="1.0" standalone="no"?>
<!DOCTYPE svg PUBLIC "-//W3C//DTD SVG 1.1//EN" "http://www.w3.org/Graphics/SVG/1.1/DTD/svg11.dtd" >
<svg xmlns="http://www.w3.org/2000/svg" xmlns:xlink="http://www.w3.org/1999/xlink" version="1.1" viewBox="-10 0 1020 1000">
   <path fill="currentColor"
d="M1000 89v824q0 36 -26 62t-62 26h-824q-36 0 -62 -26t-26 -62v-824q0 -36 26 -62t62 -26h824q36 0 62 26t26 62zM544 453h183l-1 -119h-184l2 -181h-112q-3 68 -37 118l-9 16q-6 11 -11 19t-11 12q-19 15 -76 15h-15v120l91 3v303q0 39 15 65t41 38t50 15t55 3h45
q50 0 81 -3t43 -8t26 -12v-128q-54 35 -105 35q-27 0 -49 -13t-22 -25v-273z" />
</svg>
