<?xml version="1.0" standalone="no"?>
<!DOCTYPE svg PUBLIC "-//W3C//DTD SVG 1.1//EN" "http://www.w3.org/Graphics/SVG/1.1/DTD/svg11.dtd" >
<svg xmlns="http://www.w3.org/2000/svg" xmlns:xlink="http://www.w3.org/1999/xlink" version="1.1" viewBox="-10 0 580 1000">
   <path fill="currentColor"
d="M560 908q-48 26 -106 40q-48 12 -102 12q-58 0 -110 -16q-54 -20 -82 -46q-36 -32 -46 -64q-14 -30 -14 -96v-322h-100v-130q54 -18 92 -50t62 -80q24 -52 30 -116h130v232h216v144h-216v236q0 84 8 102q10 24 32 36q28 20 68 20q68 0 138 -46v144z" />
</svg>
