<?xml version="1.0" standalone="no"?>
<!DOCTYPE svg PUBLIC "-//W3C//DTD SVG 1.1//EN" "http://www.w3.org/Graphics/SVG/1.1/DTD/svg11.dtd" >
<svg xmlns="http://www.w3.org/2000/svg" xmlns:xlink="http://www.w3.org/1999/xlink" version="1.1" viewBox="-10 0 1020 1000">
   <path fill="currentColor"
d="M36 803q-72 -303 0 -606q10 -43 53 -47q205 -25 410 -25t410 25q45 4 55 47q72 303 0 606q-12 43 -55 47q-94 11 -197 17q6 4 6 8q0 14 -65 23t-154 8t-154 -8t-65 -23q0 -4 6 -8q-103 -6 -197 -17q-43 -4 -53 -47zM97 787q402 51 806 0q69 -287 0 -574q-404 -51 -806 0
q-69 287 0 574zM157 703q-66 -207 0 -412q6 -18 24 -21q129 -26 256 -26t255 26q18 3 24 21q33 102 33 205t-33 207q-6 18 -24 22q-129 25 -255 25t-256 -25q-18 -4 -24 -22zM189 693q248 51 498 0q64 -197 0 -392q-250 -53 -498 0q-65 195 0 392zM251 484l8 -88
q4 -13 19 -15l143 -12q16 0 16 16t-16 15l-117 8q-16 2 -18 18l-6 58q0 16 -15 16t-14 -16zM749 703q0 -16 16 -16h93q16 0 16 16t-16 16h-93q-16 0 -16 -16zM780 609q0 -15 16 -15h94q15 0 15 15t-15 16h-94q-16 0 -16 -16zM780 516q0 -16 16 -16h94q15 0 15 16t-15 15h-94
q-16 0 -16 -15zM780 328q0 -19 14 -33t33 -14t33 14t14 33t-14 33t-33 14t-33 -14t-14 -33zM812 328q0 16 15 16t16 -16t-16 -16t-15 16z" />
</svg>
