<?xml version="1.0" standalone="no"?>
<!DOCTYPE svg PUBLIC "-//W3C//DTD SVG 1.1//EN" "http://www.w3.org/Graphics/SVG/1.1/DTD/svg11.dtd" >
<svg xmlns="http://www.w3.org/2000/svg" xmlns:xlink="http://www.w3.org/1999/xlink" version="1.1" viewBox="-10 0 1251 1000">
   <path fill="currentColor"
d="M1231 118q-51 77 -126 131q1 14 1 32q0 102 -29.5 203.5t-90.5 194t-145 164.5t-201.5 114.5t-252.5 42.5q-210 0 -387 -113q31 3 60 3q176 0 314 -108q-82 -2 -146.5 -51t-89.5 -125q24 5 48 5q34 0 66 -9q-87 -17 -144.5 -86.5t-57.5 -160.5v-4q53 30 114 32
q-52 -34 -82 -89.5t-30 -120.5q0 -68 34 -127q95 117 230 186.5t290 77.5q-6 -28 -6 -58q0 -104 74 -178t178 -74q110 0 185 80q85 -17 160 -62q-29 91 -111 140q76 -9 145 -40z" />
</svg>
