<?xml version="1.0" standalone="no"?>
<!DOCTYPE svg PUBLIC "-//W3C//DTD SVG 1.1//EN" "http://www.w3.org/Graphics/SVG/1.1/DTD/svg11.dtd" >
<svg xmlns="http://www.w3.org/2000/svg" xmlns:xlink="http://www.w3.org/1999/xlink" version="1.1" viewBox="-10 0 1250 1000">
   <path fill="currentColor"
d="M0 887q30 3 60 3q176 0 314 -108q-82 -1 -147 -50t-89 -125q20 4 47 4q35 0 67 -9q-88 -17 -145 -87t-58 -160v-3q53 30 115 31q-52 -34 -82 -90t-31 -120q0 -68 35 -127q94 117 230 186t290 78q-7 -33 -7 -58q0 -104 74 -178t179 -74q109 0 184 80q87 -18 160 -62
q-28 91 -110 140q73 -9 144 -40q-48 75 -125 131v33q0 101 -29 202t-90 194t-145 165t-201 115t-253 42q-209 0 -387 -113z" />
</svg>
