<?xml version="1.0" standalone="no"?>
<!DOCTYPE svg PUBLIC "-//W3C//DTD SVG 1.1//EN" "http://www.w3.org/Graphics/SVG/1.1/DTD/svg11.dtd" >
<svg xmlns="http://www.w3.org/2000/svg" xmlns:xlink="http://www.w3.org/1999/xlink" version="1.1" viewBox="-10 0 904 1000">
   <path fill="currentColor"
d="M715 191h169v21l-133 85q4 27 -3 52q-6 19 -19 36q-9 12 -21 21l-10 7l4 15q5 20 7 41q3 30 0 58q-4 36 -17 69q-15 38 -43 70q-73 84 -166 91q-45 4 -94 -13q-9 -2 -13 0t-6 6v3q17 69 3 102q-14 29 -55 33q-20 2 -32 -11q-10 -11 -14 -31q-3 -14 -3 -31l1 -14
q-35 30 -62 42q-24 10 -40 6q-13 -4 -19 -16.5t-3 -25.5q6 -22 25 -50q14 -20 33 -41l17 -17q-51 0 -92 -14q-36 -12 -64 -34q-22 -17 -39 -39q-12 -17 -20 -34l-6 -14l25 5q31 6 58 8q38 3 65 -3q51 -10 89 -47q44 -42 59 -111q7 -31 27 -57q16 -21 39 -39q17 -12 36 -22
l15 -7q0 -63 31 -107q26 -37 70 -56q37 -16 74 -16t65 12q23 10 39 27q11 13 18 28zM558 244q0 21 14.5 35.5t35.5 14.5t35.5 -14.5t14.5 -35.5t-15 -35.5t-35 -14.5t-35 15t-15 35z" />
</svg>
