<?xml version="1.0" standalone="no"?>
<!DOCTYPE svg PUBLIC "-//W3C//DTD SVG 1.1//EN" "http://www.w3.org/Graphics/SVG/1.1/DTD/svg11.dtd" >
<svg xmlns="http://www.w3.org/2000/svg" xmlns:xlink="http://www.w3.org/1999/xlink" version="1.1" viewBox="-10 0 958 1000">
   <path fill="currentColor"
d="M0 500q0 -95 37 -182t100 -149t150 -100t182 -37t182 37t149 100t100 149t37 182t-37 182t-100 150t-149 100t-182 37t-182 -37t-150 -100t-100 -150t-37 -182zM190 699q0 5 4 8q7 5 27 16q73 37 153 37q100 0 181 -51q39 -25 70 -60t48 -73t26 -76t9 -73v-11
q35 -26 54 -58q2 -3 2 -6.5t-3 -6.5t-7 -3l-7 3l-22 8q8 -10 16 -25t8 -21q0 -3 -3 -6t-6 -3t-6 1q-36 19 -64 26q-36 -36 -87 -36t-87 37t-36 87q0 6 1 15q-105 -10 -181 -79q-14 -13 -34 -35q-4 -4 -9 -4t-7 5q-18 24 -18 62q0 44 29 78q-1 0 -10 -4q-6 -3 -10.5 -3
t-7.5 3t-4 8q0 32 17 60t43 45h-4q-1 -1 -4.5 -1t-6.5 3t-3 6l1 4q10 31 34 53t55 29q-52 33 -115 33l-14 -1q-3 0 -7 -1t-6.5 -0.5t-5.5 3.5t-3 7z" />
</svg>
