<?xml version="1.0" standalone="no"?>
<!DOCTYPE svg PUBLIC "-//W3C//DTD SVG 1.1//EN" "http://www.w3.org/Graphics/SVG/1.1/DTD/svg11.dtd" >
<svg xmlns="http://www.w3.org/2000/svg" xmlns:xlink="http://www.w3.org/1999/xlink" version="1.1" viewBox="-10 0 958 1000">
   <path fill="currentColor"
d="M456 311q0 -80 57 -135t137 -56q85 0 139 59q60 -13 122 -45q-20 67 -83 106q53 -8 110 -31q-39 58 -97 101v24q0 136 -60 256t-190 205t-296 85q-162 0 -295 -86q20 2 48 2q133 0 237 -81q-65 -1 -113 -40t-66 -95q13 5 35 5t50 -6q-65 -14 -108 -67t-44 -125
q36 20 86 24q-86 -60 -86 -161q0 -48 26 -95q158 191 398 199q-7 -22 -7 -43z" />
</svg>
