<?xml version="1.0" standalone="no"?>
<!DOCTYPE svg PUBLIC "-//W3C//DTD SVG 1.1//EN" "http://www.w3.org/Graphics/SVG/1.1/DTD/svg11.dtd" >
<svg xmlns="http://www.w3.org/2000/svg" xmlns:xlink="http://www.w3.org/1999/xlink" version="1.1" viewBox="-10 0 877 1000">
   <path fill="currentColor"
d="M714 340q-31 14 -67 19q38 -22 52 -65q-37 21 -75 28q-34 -36 -84 -36t-84 34t-35 83q0 16 3 27q-72 -4 -135 -37t-107 -86q-16 28 -16 59q0 64 51 98q-27 -1 -56 -15v1q0 42 28 75t68 40q-16 5 -28 5q-7 0 -22 -3q12 36 42 59t67 23q-64 50 -145 50q-15 0 -28 -2
q82 53 180 53q62 0 117 -20t94 -53t67 -76t42 -91t13 -94v-15q35 -25 58 -61zM857 232v536q0 66 -47 113t-114 48h-535q-67 0 -114 -48t-47 -113v-536q0 -66 47 -113t114 -48h535q67 0 114 48t47 113z" />
</svg>
