<?xml version="1.0" standalone="no"?>
<!DOCTYPE svg PUBLIC "-//W3C//DTD SVG 1.1//EN" "http://www.w3.org/Graphics/SVG/1.1/DTD/svg11.dtd" >
<svg xmlns="http://www.w3.org/2000/svg" xmlns:xlink="http://www.w3.org/1999/xlink" version="1.1" viewBox="-10 0 1020 1000">
   <path fill="currentColor"
d="M0 824q162 19 305 -88q-67 2 -117 -39t-77 -105q18 3 43 1q34 -1 49 -5q-99 -34 -139 -108q-23 -51 -23 -103q57 29 92 27q-80 -68 -90 -146q-6 -63 25 -135q114 125 239 180q93 39 185 39q-12 -94 26 -159q45 -70 128 -93q55 -14 106 3t86 55q60 -6 133 -49
q-30 86 -92 118q62 -10 121 -36q-10 20 -37 53t-68 57q1 10 1 17q4 110 -42 233q-81 201 -243 302q-160 90 -382 69q-141 -16 -229 -88z" />
</svg>
