<?xml version="1.0" standalone="no"?>
<!DOCTYPE svg PUBLIC "-//W3C//DTD SVG 1.1//EN" "http://www.w3.org/Graphics/SVG/1.1/DTD/svg11.dtd" >
<svg xmlns="http://www.w3.org/2000/svg" xmlns:xlink="http://www.w3.org/1999/xlink" version="1.1" viewBox="-10 0 1023 1000">
   <path fill="currentColor"
d="M1003 501q-41 46 -114 46h-6q-37 152 -177 244t-305 92q-121 0 -225 -53t-176 -151q75 72 181 72q113 0 191 -83q-6 1 -12 1l-36 -8q-24 -12 -24 -35q0 -27 41 -45q-10 1 -19 1q-29 0 -54 -12q-33 -16 -51 -51q22 -25 69 -28q-98 -24 -112 -102q27 -8 53 -8h8
q-37 -20 -62 -52t-24 -69l1 -8q155 59 257 116q30 17 76 63q32 -87 68 -151t89 -98q-1 16 -15 31q33 -32 78 -38q-3 23 -53 41q7 -2 26 -10t33 -11t25 -4q15 0 15 11q0 8 -16 16t-43 15t-28 9q10 -1 19 -1q69 0 123 52q60 60 76 143q18 6 36 6q50 0 83 -19q-13 30 -43 47
t-67 19q34 15 83 15q16 0 31 -3z" />
</svg>
