<?xml version="1.0" standalone="no"?>
<!DOCTYPE svg PUBLIC "-//W3C//DTD SVG 1.1//EN" "http://www.w3.org/Graphics/SVG/1.1/DTD/svg11.dtd" >
<svg xmlns="http://www.w3.org/2000/svg" xmlns:xlink="http://www.w3.org/1999/xlink" version="1.1" viewBox="-10 0 957 1000">
   <path fill="currentColor"
d="M0 782q0 7 7 13q13 8 44 24q119 62 250 62q163 0 296 -84q63 -40 113 -96t78 -118t43 -123t14 -119v-17q57 -41 89 -94q3 -6 3 -9q0 -6 -5 -11t-10 -5t-13 4l-14 5q-8 3 -15 5t-8 3q13 -15 26 -39t14 -35q0 -6 -5 -11t-10 -5t-9 3q-56 29 -104 40q-59 -56 -142 -56
t-142 59t-59 141q0 15 2 24q-83 -7 -159 -39t-138 -88q-14 -14 -55 -57q-6 -6 -12.5 -6t-13.5 8q-12 19 -20 46t-7 54q0 73 45 127l-14 -7q-12 -5 -19 -5t-13 5t-5 12q0 52 26 97t71 74l-5 -1q-1 0 -3 -1t-3 -1h-1q-7 0 -11 5t-5 11l1 5q17 51 55 86t90 48q-84 52 -187 52
q-7 0 -22 -1l-22 -1q-7 0 -11 5t-5 11z" />
</svg>
