<?xml version="1.0" standalone="no"?>
<!DOCTYPE svg PUBLIC "-//W3C//DTD SVG 1.1//EN" "http://www.w3.org/Graphics/SVG/1.1/DTD/svg11.dtd" >
<svg xmlns="http://www.w3.org/2000/svg" xmlns:xlink="http://www.w3.org/1999/xlink" version="1.1" viewBox="-10 0 940 1000">
   <path fill="currentColor"
d="M920 214q-36 54 -94 98v24q0 130 -60 250t-186 203t-290 83q-160 0 -290 -84q14 2 46 2q132 0 234 -80q-62 -2 -110 -38t-66 -94q10 4 35 4t49 -6q-66 -14 -108 -66t-42 -120v-2q36 20 84 24q-84 -58 -84 -158q0 -48 26 -94q154 188 390 196q-6 -18 -6 -42q0 -78 55 -133
t136 -55t135 58q60 -12 120 -44q-20 66 -82 104q56 -8 108 -30z" />
</svg>
