<?xml version="1.0" standalone="no"?>
<!DOCTYPE svg PUBLIC "-//W3C//DTD SVG 1.1//EN" "http://www.w3.org/Graphics/SVG/1.1/DTD/svg11.dtd" >
<svg xmlns="http://www.w3.org/2000/svg" xmlns:xlink="http://www.w3.org/1999/xlink" version="1.1" viewBox="-10 0 958 1000">
   <path fill="currentColor"
d="M475 442q0 -35 25 -60t61 -25t62 26q27 -6 53 -20q-10 30 -36 47q30 -4 49 -14q-16 24 -44 45v11q0 133 -111 205q-56 38 -131 38q-72 0 -132 -39q4 1 22 1q58 0 106 -36q-29 -1 -51 -18t-29 -42q5 2 15 2q15 0 22 -2q-28 -6 -48 -29t-19 -56q14 7 39 10q-39 -28 -39 -71
q0 -20 12 -43q69 85 177 89q-3 -10 -3 -19zM469 969q-195 0 -333 -138q-136 -136 -136 -332t135.5 -332t333.5 -136q195 0 331 136q138 138 138 332t-138 332t-331 138zM469 135q-153 0 -259 106t-106 259q0 150 106 257t259 108q150 0 257 -108t108 -257q0 -153 -108 -259
t-257 -106z" />
</svg>
