<?xml version="1.0" standalone="no"?>
<!DOCTYPE svg PUBLIC "-//W3C//DTD SVG 1.1//EN" "http://www.w3.org/Graphics/SVG/1.1/DTD/svg11.dtd" >
<svg xmlns="http://www.w3.org/2000/svg" xmlns:xlink="http://www.w3.org/1999/xlink" version="1.1" viewBox="-11 0 950 1000">
   <path fill="currentColor"
d="M500 462v324q0 58 -42 100t-101 43t-100 -43t-43 -100q0 -15 11 -25t25 -11t25 11t11 25q0 28 22 49t49 22t50 -22t22 -49v-324q18 -6 35 -6t36 6zM929 477q0 7 -6 13t-12 5.5t-13 -6.5q-27 -25 -52 -38t-57 -13q-38 0 -71 21t-58 54q-4 5 -10 15l-8 14q-6 9 -15.5 9
t-15.5 -9q-3 -4 -9 -14l-9 -15q-24 -34 -58 -54t-71 -21t-71 21t-57 54q-4 5 -10 15l-8 14q-6 9 -16 9t-16 -9l-8 -14q-6 -10 -10 -15q-24 -34 -57 -54t-71 -21q-33 0 -57 13t-52 38q-7 6 -13.5 6t-12.5 -5t-5 -13q0 -3 1 -4q25 -102 96 -178t166 -114t201 -38q78 0 154 22
t137 63t109 105t64 140q1 1 1 4zM500 71v55q-23 -1 -36 -1t-35 1v-55q0 -14 10 -25t25 -10t25 10t11 25z" />
</svg>
