<?xml version="1.0" standalone="no"?>
<!DOCTYPE svg PUBLIC "-//W3C//DTD SVG 1.1//EN" "http://www.w3.org/Graphics/SVG/1.1/DTD/svg11.dtd" >
<svg xmlns="http://www.w3.org/2000/svg" xmlns:xlink="http://www.w3.org/1999/xlink" version="1.1" viewBox="-10 0 877 1000">
   <path fill="currentColor"
d="M27 124q-21 -1 -25 -2l-2 -49q7 -1 22 -1q34 0 63 3q74 4 93 4q47 0 93 -2q65 -2 82 -3q31 0 48 -1l-1 8l1 41q-33 5 -69 5q-33 0 -44 14q-7 7 -7 73l1 160l8 157q3 69 28 112q20 33 54 52q49 26 98 26q59 0 107 -16q31 -10 55 -28q27 -20 37 -36q20 -31 29 -63
q12 -41 12 -128q0 -44 -2 -72t-6 -68t-8 -89l-2 -33q-3 -37 -13 -49q-19 -20 -43 -19l-56 1l-8 -2l1 -48h47l114 6q43 2 110 -6l10 1q3 22 3 29q0 4 -2 17q-25 7 -47 8q-41 6 -44 9q-8 8 -8 23v15q0 11 1 17q5 11 13 221q3 109 -9 170q-8 42 -23 68q-21 36 -62 69
q-42 31 -102.5 49.5t-141.5 18.5q-93 0 -159 -26t-99.5 -68t-46.5 -109q-9 -45 -9 -132v-186q0 -105 -9 -119q-14 -20 -82 -22zM857 911v-36q0 -8 -5 -13t-13 -5h-821q-8 0 -13 5t-5 13v36q0 8 5 13t13 5h821q8 0 13 -5t5 -13z" />
</svg>
