<?xml version="1.0" standalone="no"?>
<!DOCTYPE svg PUBLIC "-//W3C//DTD SVG 1.1//EN" "http://www.w3.org/Graphics/SVG/1.1/DTD/svg11.dtd" >
<svg xmlns="http://www.w3.org/2000/svg" xmlns:xlink="http://www.w3.org/1999/xlink" version="1.1" viewBox="-10 0 1021 1000">
   <path fill="currentColor"
d="M0 500q0 -207 147 -354t353 -146t354 146t146 354t-146 354t-354 146t-353 -146t-147 -354zM66 500q0 180 127 307t307 127t307 -127t127 -307t-127 -307t-307 -127t-307 127t-127 307zM229 498q-20 -27 2 -47l167 -146q12 -8 22 -11t25 -3h110q15 0 25 3t22 11
q9 7 71 62t97 84q21 22 1 47q-21 23 -46 4q-20 -18 -63 -54t-64 -57q0 2 -3 0l-7 -4q-4 -2 -6 -2q-6 0 -6 13v58l4 67q2 22 2 26l49 271q4 41 -33 49q-18 4 -33 -7t-16 -26q-39 -221 -39 -225q-6 -23 -10 -22t-6 4t-2 7t-1 7l-1 4q0 2 -10 59l-19 111l-10 55q-6 18 -18 26
t-31 7q-39 -10 -33 -49l49 -273q6 -37 6 -147q0 -15 -6 -15t-16 8l-127 109q-27 19 -46 -4zM428 198q0 -30 21 -52t52 -21t52 21t21 52t-21 52t-52 21t-52 -21t-21 -52z" />
</svg>
