<?xml version="1.0" standalone="no"?>
<!DOCTYPE svg PUBLIC "-//W3C//DTD SVG 1.1//EN" "http://www.w3.org/Graphics/SVG/1.1/DTD/svg11.dtd" >
<svg xmlns="http://www.w3.org/2000/svg" xmlns:xlink="http://www.w3.org/1999/xlink" version="1.1" viewBox="-10 0 1020 1000">
   <path fill="currentColor"
d="M767 367q-4 -15 -16 -22t-27 -5q-146 35 -224 35t-224 -35q-14 -3 -27 5t-16 22t4 27t23 16q108 25 169 32q-1 88 -9 150t-15 87t-23 64l-5 12q-5 14 1 27t20 19q5 3 13 3q24 0 33 -23l5 -12q30 -77 39 -144h24q9 67 39 144l5 12q9 23 33 23q8 0 13 -3q14 -5 20 -19
t1 -27l-5 -12q-16 -39 -23 -64t-15 -87t-9 -150q61 -7 170 -32q14 -4 22 -16t4 -27zM571 286q0 -30 -20 -51t-51 -21t-50 21t-21 51t21 50t50 21t51 -21t20 -50zM893 500q0 80 -31 153t-84 125t-125 84t-153 31t-153 -31t-125 -84t-84 -125t-31 -153t31 -153t84 -125
t125 -84t153 -31t153 31t125 84t84 125t31 153zM500 71q-87 0 -166 34t-137 92t-91 137t-35 166t35 166t91 137t137 92t166 34t166 -34t137 -92t92 -137t34 -166t-34 -166t-92 -137t-137 -92t-166 -34zM1000 500q0 102 -40 194t-106 160t-160 106t-194 40t-194 -40
t-160 -106t-106 -160t-40 -194t40 -194t106 -160t160 -106t194 -40t194 40t160 106t106 160t40 194z" />
</svg>
