<?xml version="1.0" standalone="no"?>
<!DOCTYPE svg PUBLIC "-//W3C//DTD SVG 1.1//EN" "http://www.w3.org/Graphics/SVG/1.1/DTD/svg11.dtd" >
<svg xmlns="http://www.w3.org/2000/svg" xmlns:xlink="http://www.w3.org/1999/xlink" version="1.1" viewBox="-10 0 949 1000">
   <path fill="currentColor"
d="M245 709l-143 143q-6 5 -13 5t-12.5 -5.5t-5.5 -12.5t6 -13l142 -142q6 -5 13 -5t12.5 5t5.5 12t-5 13zM339 732v179q0 8 -5 13t-13 5t-12 -5t-5 -13v-179q0 -8 5 -13t12 -5t13 5t5 13zM214 607q0 8 -5 13t-13 5h-178q-8 0 -13 -5t-5 -13t5 -13t13 -5h178q8 0 13 5t5 13z
M920 679q0 66 -48 113l-82 81q-46 47 -113.5 47t-113.5 -48l-186 -187q-12 -12 -24 -31l134 -10l152 153q15 15 38 15t38 -15l82 -81q16 -16 16 -38t-16 -37l-153 -154l10 -133q20 11 31 23l188 188q47 48 47 114zM575 275l-133 10l-152 -153q-16 -16 -38 -16t-38 15l-82 82
q-16 15 -16 37t16 38l153 153l-10 134q-20 -12 -32 -24l-187 -187q-47 -48 -47 -114.5t47 -112.5l82 -82q47 -46 114 -46t114 47l186 187q12 12 23 32zM929 321q0 8 -5 13t-13 5h-179q-8 0 -13 -5t-5 -13t5 -12t13 -5h179q8 0 13 5t5 12zM625 18v178q0 8 -5 13t-13 5t-13 -5
t-5 -13v-178q0 -8 5 -13t13 -5t13 5t5 13zM852 102l-143 143q-6 5 -13 5t-12 -5.5t-5 -12.5t5 -13l143 -143q5 -5 12 -5t12.5 5.5t5.5 12.5t-5 13z" />
</svg>
