<?xml version="1.0" standalone="no"?>
<!DOCTYPE svg PUBLIC "-//W3C//DTD SVG 1.1//EN" "http://www.w3.org/Graphics/SVG/1.1/DTD/svg11.dtd" >
<svg xmlns="http://www.w3.org/2000/svg" xmlns:xlink="http://www.w3.org/1999/xlink" version="1.1" viewBox="-10 0 877 1000">
   <path fill="currentColor"
d="M714 893q0 -15 -10 -25t-25 -11t-25 11t-11 25t11 25t25 11t25 -11t10 -25zM786 466q0 -105 -93 -105q-15 0 -32 3q-9 -17 -29 -27t-41 -9t-38 10q-28 -30 -67 -30q-14 0 -31 6t-26 14v-185q0 -29 -22 -50t-50 -21.5t-50 21.5t-21 50v321q-11 0 -27 -8t-31 -19t-38 -18
t-47 -8q-37 0 -55 24t-17 65q0 13 78 50q25 14 36 21q36 22 81 62t59 57q32 38 32 78v18h357v-18q0 -40 18 -93t36 -108t18 -101zM857 464q0 74 -38 179q-33 92 -33 125v161q0 29 -21 50t-51 21h-357q-29 0 -50 -21t-21 -50v-161q0 -6 -3 -12t-8 -13t-10 -13t-12 -13
l-12 -12q-5 -5 -12 -10t-10 -8q-41 -36 -72 -56q-11 -7 -34 -18t-40 -21t-36 -23t-27 -30t-10 -39q0 -70 37 -115t106 -46q38 0 71 13v-209q0 -58 43 -101t100.5 -42.5t100.5 42.5t42 101v94q35 2 66 21q12 -2 24 -2q57 0 100 34q77 -1 122 47t45 127z" />
</svg>
