<?xml version="1.0" standalone="no"?>
<!DOCTYPE svg PUBLIC "-//W3C//DTD SVG 1.1//EN" "http://www.w3.org/Graphics/SVG/1.1/DTD/svg11.dtd" >
<svg xmlns="http://www.w3.org/2000/svg" xmlns:xlink="http://www.w3.org/1999/xlink" version="1.1" viewBox="-10 0 1021 1000">
   <path fill="currentColor"
d="M500 74l260 244h-164v256h-190v-256h-166zM968 652q18 10 27 32t3 40l-28 154q-4 20 -22 33t-40 13h-816q-22 0 -40 -13t-22 -33l-28 -154q-10 -48 32 -72l158 -108h98l-170 130h178q8 0 12 8l40 110h300l40 -110q8 -8 12 -8h178l-170 -130h98z" />
</svg>
