<?xml version="1.0" standalone="no"?>
<!DOCTYPE svg PUBLIC "-//W3C//DTD SVG 1.1//EN" "http://www.w3.org/Graphics/SVG/1.1/DTD/svg11.dtd" >
<svg xmlns="http://www.w3.org/2000/svg" xmlns:xlink="http://www.w3.org/1999/xlink" version="1.1" viewBox="-10 0 958 1000">
   <path fill="currentColor"
d="M936 722l2 260q0 21 -16 37t-37 15h-832q-22 0 -37 -15t-16 -37q0 -260 1 -260q0 -12 2 -17l105 -312q12 -36 48 -36h209v103h-171l-86 262h722l-86 -262h-171v-103h208q37 0 49 36l105 312q1 5 1 17zM678 299q-24 0 -38 -14l-119 -120v348q0 21 -15 37t-37 15t-37 -15
t-16 -37v-348l-118 120q-14 14 -37 14t-37.5 -14.5t-14.5 -35.5t15 -37l245 -247l245 247q15 15 15 37t-14.5 36t-36.5 14z" />
</svg>
