<?xml version="1.0" standalone="no"?>
<!DOCTYPE svg PUBLIC "-//W3C//DTD SVG 1.1//EN" "http://www.w3.org/Graphics/SVG/1.1/DTD/svg11.dtd" >
<svg xmlns="http://www.w3.org/2000/svg" xmlns:xlink="http://www.w3.org/1999/xlink" version="1.1" viewBox="-11 0 1093 1000">
   <path fill="currentColor"
d="M714 482q0 -8 -5 -13l-196 -196q-5 -5 -13 -5t-13 5l-196 196q-5 6 -5 13.5t5 12.5t13 5h125v196q0 8 5 13t12 5h108q7 0 12 -5t5 -13v-196h125q8 0 13 -5t5 -13zM1071 643q0 89 -62 151t-152 63h-607q-103 0 -177 -73t-73 -177q0 -72 39 -134t105 -92l-1 -24
q0 -118 84 -202t202 -84q87 0 159 49t105 129q40 -35 93 -35q59 0 101 42t42 101q0 43 -23 77q72 17 119 76t46 133z" />
</svg>
