<?xml version="1.0" standalone="no"?>
<!DOCTYPE svg PUBLIC "-//W3C//DTD SVG 1.1//EN" "http://www.w3.org/Graphics/SVG/1.1/DTD/svg11.dtd" >
<svg xmlns="http://www.w3.org/2000/svg" xmlns:xlink="http://www.w3.org/1999/xlink" version="1.1" viewBox="-10 0 1306 1000">
   <path fill="currentColor"
d="M1277 449q9 5 9 15t-9 15l-179 107q-4 3 -9 3t-9 -2q-9 -6 -9 -16v-71h-478q20 32 46 92q9 21 14 31l13 27q8 17 15 26l15 19q8 10 18 15t18 4h54v-53q0 -8 5 -13t13 -5h178q8 0 13 5t5 13v178q0 8 -5 13t-13 5h-178q-8 0 -13 -5t-5 -13v-53h-54q-18 0 -34 -6t-28 -13
t-25 -23t-21 -25t-19 -32t-16 -32t-15 -34q-13 -30 -21 -45l-20 -37q-12 -22 -25 -30t-26 -9h-201q-12 47 -50 77t-88 30q-59 0 -101 -42t-42 -101t42 -101t101 -42q49 0 88 31t50 77h58q14 0 26 -10t25 -30t20 -36l36 -79q5 -11 16 -32t19 -32t21 -26t25 -22t28 -14t34 -5
h60q12 -32 39 -52t62 -20q45 0 76 32t31 76t-31 75t-76 32q-35 0 -62 -20t-39 -52h-60q-9 0 -18 5t-18 14t-15 19l-15 26q-9 16 -13 28t-14 30q-26 60 -46 93h621v-72q0 -10 9 -16t18 1z" />
</svg>
