<?xml version="1.0" standalone="no"?>
<!DOCTYPE svg PUBLIC "-//W3C//DTD SVG 1.1//EN" "http://www.w3.org/Graphics/SVG/1.1/DTD/svg11.dtd" >
<svg xmlns="http://www.w3.org/2000/svg" xmlns:xlink="http://www.w3.org/1999/xlink" version="1.1" viewBox="-10 0 1015 1000">
   <path fill="currentColor"
d="M0 969q0 -9 1 -23t11 -45t26.5 -48.5t65.5 -37.5t111 -43t91 -37q32 -17 52 -47t24 -65h-81l-5 -24q-3 -15 -10 -59t-12 -87t-7 -96t1 -97t15 -81t33 -57q18 -19 42 -26t33 1q1 0 2 -1l2 -8q13 -33 42 -47q17 -10 62 -8h15q25 2 56 11q27 8 50 20t46 35t40 53t25 75
t6 100q-3 67 -9 122t-12 86l-10 52q-4 21 -8 28l-4 8h-81q4 34 24 65t52 47q29 15 91 37t111 43t66 38t26 46t11 49l1 21h-995z" />
</svg>
