<?xml version="1.0" standalone="no"?>
<!DOCTYPE svg PUBLIC "-//W3C//DTD SVG 1.1//EN" "http://www.w3.org/Graphics/SVG/1.1/DTD/svg11.dtd" >
<svg xmlns="http://www.w3.org/2000/svg" xmlns:xlink="http://www.w3.org/1999/xlink" version="1.1" viewBox="-10 0 807 1000">
   <path fill="currentColor"
d="M214 750q0 14 -10 25t-25 11t-25 -11t-11 -25t11 -25t25 -11t25 11t10 25zM786 784q0 68 -41 106t-108 39h-488q-67 0 -108 -39t-41 -106q0 -38 3 -73t14 -77t26 -74t45 -58t67 -33q-12 29 -12 67v113q-32 11 -52 39t-20 62q0 45 32 76t76 31t76 -31t31 -76
q0 -34 -20 -62t-52 -39v-113q0 -35 14 -52q74 58 165 58t165 -58q13 17 13 52v35q-59 0 -101 42t-41 101v50q-18 16 -18 39t15 38t38 16t38 -16t16 -37q0 -24 -18 -40v-50q0 -29 21 -50t50 -21t51 21t21 50v50q-18 16 -18 39t16 38t38 16t38 -16t15 -37q0 -24 -18 -40v-50
q0 -38 -19 -71t-52 -52v-51q0 -9 -1 -23t-4 -26t-7 -22q38 8 67 33t45 58t26 74t14 77t3 73zM607 286q0 88 -63 151t-151 63t-152 -63t-62 -151t62 -152t152 -63t151 63t63 152z" />
</svg>
