<?xml version="1.0" standalone="no"?>
<!DOCTYPE svg PUBLIC "-//W3C//DTD SVG 1.1//EN" "http://www.w3.org/Graphics/SVG/1.1/DTD/svg11.dtd" >
<svg xmlns="http://www.w3.org/2000/svg" xmlns:xlink="http://www.w3.org/1999/xlink" version="1.1" viewBox="-10 0 997 1000">
   <path fill="currentColor"
d="M0 969q0 -9 1 -23t11 -44t26.5 -47.5t64.5 -37.5t108 -42t90 -36q36 -18 55 -54t20 -73q0 -27 -31 -62q-18 -21 -31 -59q-44 -18 -44 -72q0 -41 15 -59q-4 -27 -9 -80l-2 -21q-1 -13 2 -44t15 -53q19 -33 47 -45t47 -5h1q1 -5 4 -13t14 -22t25 -20q8 -4 25 -6t43 -1t52 8
t54 21t49 38t35 59t15 84v20q-4 45 -9 80q14 18 14 59q0 54 -44 72q-13 38 -31 59q-31 35 -31 62q0 38 20 73t55 54q29 15 90 36t109 42t64 37q18 17 27 46t10 49l1 20h-977z" />
</svg>
