<?xml version="1.0" standalone="no"?>
<!DOCTYPE svg PUBLIC "-//W3C//DTD SVG 1.1//EN" "http://www.w3.org/Graphics/SVG/1.1/DTD/svg11.dtd" >
<svg xmlns="http://www.w3.org/2000/svg" xmlns:xlink="http://www.w3.org/1999/xlink" version="1.1" viewBox="-11 0 1092 1000">
   <path fill="currentColor"
d="M331 500q-90 3 -148 71h-75q-45 0 -77 -22t-31 -66q0 -197 69 -197q4 0 25 11t54 24t66 12q38 0 75 -13q-3 21 -3 37q0 78 45 143zM929 856q0 66 -41 105t-108 39h-488q-68 0 -108 -39t-41 -105q0 -30 2 -58t8 -61t14 -61t24 -54t35 -45t48 -30t62 -11q6 0 24 12t41 26
t59 27t76 12t75 -12t60 -27l41 -26q16 -10 24 -12q34 0 62 11t47 30t35 45t24 54t15 61t8 61zM357 143q0 59 -42 101t-101 42t-101 -42t-42 -101t42 -101t101 -42t101 42t42 101zM750 357q0 89 -63 152t-151 62t-152 -62t-63 -152t63 -151t152 -63t151 63t63 151zM1071 483
q0 43 -31 66t-77 22h-75q-57 -68 -147 -71q45 -65 45 -143q0 -16 -3 -37q37 13 74 13q33 0 67 -12t54 -24t24 -11q69 0 69 197zM1000 143q0 59 -42 101t-101 42t-101 -42t-42 -101t42 -101t101 -42t101 42t42 101z" />
</svg>
