<?xml version="1.0" standalone="no"?>
<!DOCTYPE svg PUBLIC "-//W3C//DTD SVG 1.1//EN" "http://www.w3.org/Graphics/SVG/1.1/DTD/svg11.dtd" >
<svg xmlns="http://www.w3.org/2000/svg" xmlns:xlink="http://www.w3.org/1999/xlink" version="1.1" viewBox="-10 0 720 1000">
   <path fill="currentColor"
d="M240 652q0 -14 -6 -32q-5 -12 -13 -25l-6 -11l-1 3q-2 4 -5.5 5.5t-10.5 -1.5q-10 -5 -19.5 -17.5t-12.5 -24.5q-1 -10 -7.5 -27t-10.5 -22q-5 -9 0.5 -20t21.5 -13l-3 -10q-3 -11 2 -17l-6 -1q-7 -1 -10 -5.5t2 -14.5l-7 -3q-9 -5 -13 -11q-7 -9 -5 -18q2 -13 16 -27
l-6 -8q-5 -9 -5 -15q2 -9 16 -11l-6 -9q-7 -11 -9 -21q-4 -14 2 -25q8 -13 30 -21l-7 -22q-8 -27 -9 -49q-1 -32 11 -51q16 -24 52 -26q25 -3 50 5q18 5 46 20q34 18 47 23l19 -14q23 -16 43 -25q28 -13 45 -10q34 7 52 29t17.5 52t-20.5 59q20 -5 32 10t10 36.5t-18 33.5
l4 7q5 9 5 17q0 13 -9 24l6 12q6 13 5 24q-2 16 -19 24l-4 14q-5 15 -11 22h4q5 0 10 2t7 8q6 12 5.5 22.5t-8.5 24.5q-8 12 -13 24q-9 23 -7 19q1 -2 -3 10q-3 8 -6.5 13t-10 6t-15.5 -5q-29 35 -36 86t11 99l6 11q111 22 134 27q75 16 107 30v58h-700v-48q28 -18 89 -37
q42 -12 120 -30q4 -14 13 -34t13 -35q5 -24 5 -64z" />
</svg>
