<?xml version="1.0" standalone="no"?>
<!DOCTYPE svg PUBLIC "-//W3C//DTD SVG 1.1//EN" "http://www.w3.org/Graphics/SVG/1.1/DTD/svg11.dtd" >
<svg xmlns="http://www.w3.org/2000/svg" xmlns:xlink="http://www.w3.org/1999/xlink" version="1.1" viewBox="-10 0 1218 1000">
   <path fill="currentColor"
d="M599 577q-108 0 -184 -76t-76 -184t76 -183t184 -77t184 77t77 183t-77 184t-184 76zM599 161q-65 0 -111 46t-45 110t45 111t111 46t110 -46t46 -111t-46 -110t-110 -46zM1015 630q-55 0 -92 -38t-38 -92t38 -92t92 -38t93 38t38 92t-38 92t-93 38zM1015 421
q-31 0 -54 23t-23 55t22 55t55 23t56 -23t23 -54t-23 -55t-56 -24zM1015 661q80 0 131 34t52 79q0 22 -53 40t-130 17q-42 0 -82 -6v7q0 5 1 7q0 41 -96 72t-239 32q-150 0 -242 -32t-92 -72q0 -3 1 -8t0 -7q-50 7 -83 7q-82 0 -132 -17t-51 -40q0 -45 50 -79t133 -34
q98 0 151 50q99 -81 265 -81t265 81q52 -50 151 -50zM183 779q60 0 102 -12l13 -17q-38 -38 -115 -38q-98 0 -127 49q44 18 127 18zM599 839q131 0 216 -30q-25 -30 -82 -53t-134 -22q-81 0 -138 22t-80 53q84 30 218 30zM1015 779q84 0 126 -19q-12 -19 -45 -33t-81 -15
q-76 0 -115 37q5 6 13 18q40 12 102 12zM183 630q-55 0 -93 -38t-37 -92t38 -92t92 -38t91 38t39 92t-38 92t-92 38zM183 421q-33 0 -56 24t-23 55t23 54t56 23t55 -23t22 -55t-23 -55t-54 -23z" />
</svg>
