<?xml version="1.0" standalone="no"?>
<!DOCTYPE svg PUBLIC "-//W3C//DTD SVG 1.1//EN" "http://www.w3.org/Graphics/SVG/1.1/DTD/svg11.dtd" >
<svg xmlns="http://www.w3.org/2000/svg" xmlns:xlink="http://www.w3.org/1999/xlink" version="1.1" viewBox="-10 0 1221 1000">
   <path fill="currentColor"
d="M0 801q20 -7 60 -22l69 -26q29 -11 50 -22q37 -19 57 -56t21 -76q0 -27 -31 -64q-19 -21 -33 -60q-45 -18 -45 -76q0 -43 14 -61q-5 -39 -9 -82q-5 -55 26 -108t84 -84t110 -32q43 0 85 19t73 50t48 72t14 83q-4 55 -8 82q14 19 14 61q0 58 -45 76q-15 41 -32 60
q-32 37 -32 64q0 39 20 76t58 56q29 15 92 38t113 43t66 38q18 17 28 47t10 51l1 21h-878v-168zM705 502q0 -34 12 -50q-5 -32 -7 -67q-4 -45 21 -89t69 -72t90 -27t89 27t69 72t22 89q-2 35 -8 67q12 16 12 50q0 48 -36 62q-12 33 -27 50q-9 10 -13 16t-9 16t-4 20
q0 32 17 62t47 46q17 9 42 19t60 22t50 19v135h-254v-11q0 -7 -3 -26t-7 -36t-15 -38t-23 -33q-23 -25 -53 -44t-79 -37q27 -34 27 -78q0 -10 -5 -20l-8 -16q-3 -6 -12 -16q-14 -15 -27 -49q-37 -16 -37 -63z" />
</svg>
