<?xml version="1.0" standalone="no"?>
<!DOCTYPE svg PUBLIC "-//W3C//DTD SVG 1.1//EN" "http://www.w3.org/Graphics/SVG/1.1/DTD/svg11.dtd" >
<svg xmlns="http://www.w3.org/2000/svg" xmlns:xlink="http://www.w3.org/1999/xlink" version="1.1" viewBox="-10 0 1024 1000">
   <path fill="currentColor"
d="M4 955q-14 -43 25 -70q119 -78 291 -116q-84 -105 -119 -255q-10 -55 -11 -122t23 -149t66 -138q84 -105 223 -105t222 105q43 57 67 138t22 149t-11 122q-35 150 -119 255q172 38 291 116q39 27 26 71t-61 44h-875q-21 0 -38 -13t-22 -32zM64 938h875
q-109 -73 -267 -108l-79 -16q-45 30 -91 30t-92 -30l-78 16q-160 35 -268 108zM257 336q-13 103 16 208t96 186l10 14q56 65 123 65t123 -65l9 -14q67 -82 96 -186t16 -208q-14 -113 -76 -193t-168 -80t-168 80t-77 193z" />
</svg>
