<?xml version="1.0" standalone="no"?>
<!DOCTYPE svg PUBLIC "-//W3C//DTD SVG 1.1//EN" "http://www.w3.org/Graphics/SVG/1.1/DTD/svg11.dtd" >
<svg xmlns="http://www.w3.org/2000/svg" xmlns:xlink="http://www.w3.org/1999/xlink" version="1.1" viewBox="-10 0 1090 1000">
   <path fill="currentColor"
d="M1070 938q0 21 -2 63h-1067v-31q0 -21 -1 -32q0 -30 1 -37q12 -49 64 -85t112 -53t125 -47t97 -65q17 -22 17 -38q0 -22 -11 -73q-4 -21 -10 -37t-16 -33t-16 -31q-15 -35 -33 -132q-6 -38 -6 -75q0 -105 54 -168t157 -63t158 63t53 168q0 31 -7 75q-14 89 -32 132
q-6 14 -15 31t-16 33t-11 37q-11 51 -11 73q0 18 17 38q31 36 97 65t125 47t111 53t64 85q2 8 2 37z" />
</svg>
