<?xml version="1.0" standalone="no"?>
<!DOCTYPE svg PUBLIC "-//W3C//DTD SVG 1.1//EN" "http://www.w3.org/Graphics/SVG/1.1/DTD/svg11.dtd" >
<svg xmlns="http://www.w3.org/2000/svg" xmlns:xlink="http://www.w3.org/1999/xlink" version="1.1" viewBox="-10 0 867 1000">
   <path fill="currentColor"
d="M321 857l54 -250l-54 -71l-71 -36zM464 857l72 -357l-72 36l-53 71zM554 293q-1 -2 -3 -3q-5 -4 -53 -4q-39 0 -93 10q-4 1 -12 1t-12 -1q-54 -10 -93 -10q-48 0 -54 4l-2 3q1 11 2 16l5 3q3 2 4 6l8 23q1 3 4 9l5 10q2 4 5 8t7 7t7 6t10 4l12 2q5 1 13 1q20 0 33 -7
t18 -16t8 -20t7 -16t10 -7h6q6 0 10 7t6 16t9 20t18 16t33 7q7 0 13 -1l12 -2q6 -1 9 -4t8 -6t7 -7t5 -8t5 -10t4 -9t4 -12t4 -11q1 -4 4 -6l4 -3q2 -5 3 -16zM786 784q0 68 -41 106t-108 39h-488q-67 0 -108 -39t-41 -106q0 -34 3 -66t10 -70t21 -69t36 -58t52 -41
l-51 -123h120q-12 -36 -12 -71q0 -7 1 -18q-109 -23 -109 -54.5t118 -54.5q9 -35 28 -75t40 -63q18 -21 42 -21q17 0 47 17t47 18t47 -18t47 -17q24 0 42 21q20 23 39 63t29 75q117 23 117 54.5t-108 54.5q4 45 -11 89h119l-45 126q35 18 60 54t36 80t16 84t5 83z" />
</svg>
