<?xml version="1.0" standalone="no"?>
<!DOCTYPE svg PUBLIC "-//W3C//DTD SVG 1.1//EN" "http://www.w3.org/Graphics/SVG/1.1/DTD/svg11.dtd" >
<svg xmlns="http://www.w3.org/2000/svg" xmlns:xlink="http://www.w3.org/1999/xlink" version="1.1" viewBox="-10 0 1158 1000">
   <path fill="currentColor"
d="M393 500q-89 0 -152 -63t-62 -151t62 -152t152 -63t151 63t63 152t-63 151t-151 63zM994 679l139 138q5 5 5 13t-5 13l-76 76q-5 5 -12.5 5t-12.5 -5l-139 -139l-139 139q-5 5 -12.5 5t-12.5 -5l-76 -76q-5 -5 -5 -13t5 -13l139 -138l-139 -139q-5 -5 -5 -13t5 -13
l76 -75q5 -5 12.5 -5t12.5 5l139 139l139 -139q5 -5 12.5 -5t12.5 5l76 75q5 5 5 13t-5 13zM716 679l-101 101q-21 20 -21 50t21 51l46 46q-11 2 -24 2h-488q-67 0 -108 -39t-41 -106q0 -30 2 -58t8 -61t15 -60t24 -55t34 -45t48 -30t62 -11q11 0 22 10q86 68 178 68
t178 -68q11 -10 22 -10q15 0 31 4q-15 15 -22 27t-8 32q0 30 21 51z" />
</svg>
