<?xml version="1.0" standalone="no"?>
<!DOCTYPE svg PUBLIC "-//W3C//DTD SVG 1.1//EN" "http://www.w3.org/Graphics/SVG/1.1/DTD/svg11.dtd" >
<svg xmlns="http://www.w3.org/2000/svg" xmlns:xlink="http://www.w3.org/1999/xlink" version="1.1" viewBox="-10 0 1044 1000">
   <path fill="currentColor"
d="M0 969q0 -9 1 -23t11 -47t27 -49.5t68 -37.5t115 -43t93 -38q38 -19 59 -56t20 -76q0 -27 -32 -63q-33 -38 -53 -102t-20 -149q0 -64 18 -113t49 -80t71 -45t85 -15t85 15t71 45t49 80t18 113q0 84 -20 149t-52.5 102t-32.5 63q0 39 21 76t59 56q29 15 93 38t114 43
t67.5 37.5t27.5 47.5t11 51l1 21h-1024z" />
</svg>
