<?xml version="1.0" standalone="no"?>
<!DOCTYPE svg PUBLIC "-//W3C//DTD SVG 1.1//EN" "http://www.w3.org/Graphics/SVG/1.1/DTD/svg11.dtd" >
<svg xmlns="http://www.w3.org/2000/svg" xmlns:xlink="http://www.w3.org/1999/xlink" version="1.1" viewBox="-10 0 960 1000">
   <path fill="currentColor"
d="M736 722q204 72 204 122v106h-940v-106q0 -50 204 -122q94 -34 128 -69t34 -95q0 -22 -22 -49t-32 -73q-2 -12 -9 -18t-14 -8t-14 -17t-9 -43q0 -16 5 -26t9 -12l4 -4q-8 -50 -12 -88q-4 -54 41 -112t157 -58t158 58t40 112l-12 88q18 8 18 42q-2 28 -9 43t-14 17t-14 8
t-9 18q-8 48 -31 74t-23 48q0 60 35 95t127 69z" />
</svg>
