<?xml version="1.0" standalone="no"?>
<!DOCTYPE svg PUBLIC "-//W3C//DTD SVG 1.1//EN" "http://www.w3.org/Graphics/SVG/1.1/DTD/svg11.dtd" >
<svg xmlns="http://www.w3.org/2000/svg" xmlns:xlink="http://www.w3.org/1999/xlink" version="1.1" viewBox="-10 0 918 1000">
   <path fill="currentColor"
d="M897 891h-895l-1 -13q-1 -21 1 -58q22 -12 99 -36q48 -15 133 -40q70 -20 74 -22l1 -45l19 -5l4 -36q3 -38 3 -45l-15 -32q-16 -36 -20 -57l-6 -1q-7 -2 -12 -6q-7 -6 -8.5 -16.5t-1.5 -32.5q-1 -18 -4 -29t5 -22.5t16 -8.5l-6 -35q-5 -41 -5 -71q0 -42 11 -58
q23 -32 58 -57q58 -40 140 -54l17 -1q18 -1 23.5 1.5t4 6t-12.5 15.5l18 13q20 16 36 36q23 27 32 55t8 81q-1 48 -8 68h5q5 0 9 4.5t3 15.5q2 -15 -3 33q-2 22 -4 35q-4 17 -10 25t-16 3l-1 21q-2 25 -7 43q-6 25 -17 32l-1 16q-2 19 -1 31q1 17 6 18h16l5 28q6 29 14 37
l70 19q81 23 136 41q76 26 88 39q1 21 0 44v20z" />
</svg>
