<?xml version="1.0" standalone="no"?>
<!DOCTYPE svg PUBLIC "-//W3C//DTD SVG 1.1//EN" "http://www.w3.org/Graphics/SVG/1.1/DTD/svg11.dtd" >
<svg xmlns="http://www.w3.org/2000/svg" xmlns:xlink="http://www.w3.org/1999/xlink" version="1.1" viewBox="-11 0 1012 1000">
   <path fill="currentColor"
d="M938 577h-313q-21 0 -37 -15t-15 -36t15 -37t37 -15h313q21 0 36 15t16 37t-16 36t-36 15zM313 57q107 0 183 77t77 183t-77 184t-183 76t-184 -76t-76 -184t76 -183t184 -77zM313 630q136 0 224 63t88 146q0 41 -89 72t-223 32q-140 0 -227 -32t-86 -72q0 -83 86 -146
t227 -63z" />
</svg>
