<?xml version="1.0" standalone="no"?>
<!DOCTYPE svg PUBLIC "-//W3C//DTD SVG 1.1//EN" "http://www.w3.org/Graphics/SVG/1.1/DTD/svg11.dtd" >
<svg xmlns="http://www.w3.org/2000/svg" xmlns:xlink="http://www.w3.org/1999/xlink" version="1.1" viewBox="-10 0 910 1000">
   <path fill="currentColor"
d="M7 722q-16 16 5 57t58 79t77 59t58 4l223 -224q-55 -38 -107 -90q-24 -23 -46 -50l-34 -42l-11 -15zM278 485q-8 -23 3.5 -34t23.5 -41t17 -61l4 -20q5 -31 30 -62t53 -43l396 -178q29 -12 34 -5t-18 30l-203 202l-52 53q-21 -10 -46 -6t-42 21q-23 22 -23 54t23 54.5
t54 22.5t55 -23q17 -17 21 -41t-6 -45q14 -15 52 -54l203 -203q23 -22 30 -17t-6 34l-177 397q-12 28 -43 52t-63 30l-20 4q-30 5 -60 17t-41 23t-35 3t-45 -30l-89 -88q-22 -22 -30 -46z" />
</svg>
