<?xml version="1.0" standalone="no"?>
<!DOCTYPE svg PUBLIC "-//W3C//DTD SVG 1.1//EN" "http://www.w3.org/Graphics/SVG/1.1/DTD/svg11.dtd" >
<svg xmlns="http://www.w3.org/2000/svg" xmlns:xlink="http://www.w3.org/1999/xlink" version="1.1" viewBox="-11 0 1022 1000">
   <path fill="currentColor"
d="M999 295q7 87 -29 163t-104 125t-152 58v145h125q8 0 13 5t5 13v35q0 8 -5 13t-13 5h-125v125q0 8 -5 13t-13 5h-35q-8 0 -13 -5t-5 -13v-125h-286v125q0 8 -5 13t-13 5h-35q-8 0 -13 -5t-5 -13v-125h-125q-8 0 -13 -5t-5 -13v-35q0 -8 5 -13t13 -5h125v-145
q-84 -9 -152 -58t-104 -125t-29 -163q10 -115 92 -199t197 -95t210 53q95 -64 210 -53t197 95t92 199zM500 496q71 -73 71 -175t-71 -174q-71 73 -71 174t71 175zM321 571q65 0 122 -31q-86 -93 -86 -218.5t86 -218.5q-57 -32 -122 -32q-103 0 -176 74t-74 176t74 177
t176 73zM643 786v-145q-77 -9 -143 -53q-66 44 -143 53v145h286zM679 571q103 0 176 -73t74 -177t-74 -176t-176 -74q-65 0 -122 32q86 93 86 218.5t-86 218.5q57 31 122 31z" />
</svg>
