<?xml version="1.0" standalone="no"?>
<!DOCTYPE svg PUBLIC "-//W3C//DTD SVG 1.1//EN" "http://www.w3.org/Graphics/SVG/1.1/DTD/svg11.dtd" >
<svg xmlns="http://www.w3.org/2000/svg" xmlns:xlink="http://www.w3.org/1999/xlink" version="1.1" viewBox="-11 0 1164 1000">
   <path fill="currentColor"
d="M929 18q0 -8 5 -13t12 -5h161q15 0 25 11t11 25v160q0 8 -5 13t-13 5h-36q-7 0 -12 -5t-6 -13v-74l-141 142q42 53 60 119t5 138q-18 101 -92 173t-175 88q-124 19 -228 -50q-65 43 -143 51v74h54q8 0 13 5t5 13v36q0 8 -5 13t-13 5h-54v53q0 8 -5 13t-13 5h-35
q-8 0 -13 -5t-5 -13v-53h-54q-8 0 -13 -5t-5 -13v-36q0 -8 5 -13t13 -5h54v-74q-87 -9 -156 -61t-105 -132t-22 -172q14 -104 89 -179t179 -92q125 -19 229 50q82 -54 179 -54q112 0 200 70l142 -142h-75q-7 0 -12 -5t-5 -12v-36zM500 639q71 -73 71 -175t-71 -174
q-71 73 -71 174t71 175zM71 464q0 103 74 177t176 73q66 0 122 -32q-86 -93 -86 -218t86 -218q-56 -32 -122 -32q-103 0 -176 74t-74 176zM679 714q103 0 176 -73t74 -177t-74 -176t-176 -74q-66 0 -122 32q86 93 86 218t-86 218q56 32 122 32z" />
</svg>
