<?xml version="1.0" standalone="no"?>
<!DOCTYPE svg PUBLIC "-//W3C//DTD SVG 1.1//EN" "http://www.w3.org/Graphics/SVG/1.1/DTD/svg11.dtd" >
<svg xmlns="http://www.w3.org/2000/svg" xmlns:xlink="http://www.w3.org/1999/xlink" version="1.1" viewBox="-10 0 877 1000">
   <path fill="currentColor"
d="M586 581q0 -44 -16 -82q-23 14 -47 19q12 28 12 63q0 66 -43 111t-107 46t-108 -46t-44 -111t44 -111t108 -47q29 0 54 11q2 -24 15 -49q-33 -12 -69 -12q-86 0 -144 61t-58 147t58 146t144 59t143 -60t58 -145zM487 383q1 13 1 39q0 36 -3 69t-11 74t-23 73t-38 59
t-56 39q11 2 23 2h6q122 -78 122 -230q0 -64 -21 -125zM487 383q-3 -45 -25 -96t-55 -73q52 87 80 169zM674 324q0 -57 -29 -97q-23 48 -69 61q-39 10 -61 30t-22 55q0 23 13 43q41 -9 79 -37t53 -64q-2 29 -42 62t-77 54q29 29 61 29q29 0 51 -20t33 -51q10 -23 10 -65z
M857 232v536q0 66 -47 113t-114 48h-535q-67 0 -114 -48t-47 -113v-536q0 -66 47 -113t114 -48h535q67 0 114 48t47 113z" />
</svg>
