<?xml version="1.0" standalone="no"?>
<!DOCTYPE svg PUBLIC "-//W3C//DTD SVG 1.1//EN" "http://www.w3.org/Graphics/SVG/1.1/DTD/svg11.dtd" >
<svg xmlns="http://www.w3.org/2000/svg" xmlns:xlink="http://www.w3.org/1999/xlink" version="1.1" viewBox="-10 0 733 1000">
   <path fill="currentColor"
d="M586 617q0 120 -82.5 209.5t-211 89.5t-210.5 -89.5t-82 -209.5q0 -82 38 -151t105 -109t150 -41q54 0 102 17q-18 35 -22 70q-37 -15 -80 -15q-93 0 -157 68t-63.5 163t63.5 161t157 66t157 -66t62 -161q0 -50 -18 -93q37 -7 69 -27q23 55 23 118zM472 512
q0 107 -44 192t-133 141l-8 1q-16 0 -35 -3q47 -18 82 -57t56 -86t32 -106t17 -107t4 -100q0 -38 -2 -57q31 89 31 182zM441 329v1q-40 -120 -114 -246q49 33 79 104t35 141zM578 442q-47 0 -90 -42q122 -67 162 -138q11 -20 12 -31q-24 52 -78 93t-114 54q-20 -30 -20 -63
q0 -20 10 -44t24 -38q26 -24 87 -41q33 -9 60 -33t41 -56q41 59 41 141q0 61 -13 95q-18 43 -50 73t-72 30z" />
</svg>
