<?xml version="1.0" standalone="no"?>
<!DOCTYPE svg PUBLIC "-//W3C//DTD SVG 1.1//EN" "http://www.w3.org/Graphics/SVG/1.1/DTD/svg11.dtd" >
<svg xmlns="http://www.w3.org/2000/svg" xmlns:xlink="http://www.w3.org/1999/xlink" version="1.1" viewBox="-10 0 903 1000">
   <path fill="currentColor"
d="M0 1000v-1000h883v1000h-883zM45 881h109v-82h-109v82zM45 697h109v-84h-109v84zM45 512h109v-82h-109v82zM45 326h109v-82h-109v82zM45 143h109v-83h-109v83zM201 969h481v-436h-481v436zM201 502h481v-436h-481v436zM729 881h109v-82h-109v82zM729 697h109v-84h-109v84
zM729 512h109v-82h-109v82zM729 326h109v-82h-109v82zM729 143h109v-83h-109v83z" />
</svg>
