<?xml version="1.0" standalone="no"?>
<!DOCTYPE svg PUBLIC "-//W3C//DTD SVG 1.1//EN" "http://www.w3.org/Graphics/SVG/1.1/DTD/svg11.dtd" >
<svg xmlns="http://www.w3.org/2000/svg" xmlns:xlink="http://www.w3.org/1999/xlink" version="1.1" viewBox="-10 0 978 1000">
   <path fill="currentColor"
d="M471 880q-15 0 -25.5 -10.5t-15.5 -28.5l-55 -201h175l69 240h-148zM838 270l120 -88v347l-120 -89v-170zM793 271v169h-144v65q0 34 -23 57.5t-58 23.5q9 0 -71 2t-138 2q-82 -1 -114 -5q-36 -5 -88 -23q-65 -23 -105 -50q-52 -36 -52 -73v-169q0 -37 48 -71
q39 -28 103 -49q53 -19 95 -24q39 -5 121 -5q57 -1 133 1q79 2 68 2q34 0 57.5 23.5t23.5 56.5v67h144zM224 467q30 0 51 -21t21 -51t-21 -51.5t-51 -21.5t-51.5 21.5t-21.5 51.5t21.5 51t51.5 21z" />
</svg>
