<?xml version="1.0" standalone="no"?>
<!DOCTYPE svg PUBLIC "-//W3C//DTD SVG 1.1//EN" "http://www.w3.org/Graphics/SVG/1.1/DTD/svg11.dtd" >
<svg xmlns="http://www.w3.org/2000/svg" xmlns:xlink="http://www.w3.org/1999/xlink" version="1.1" viewBox="-10 0 1133 1000">
   <path fill="currentColor"
d="M0 686v-373q0 -62 43 -106t104 -44h549q59 0 102 42t45 101l208 -133q26 -17 44 -6t18 43v578q0 33 -18 44t-44 -6l-208 -133q-2 60 -45 102t-102 41h-549q-61 0 -104 -44t-43 -106zM636 333q0 18 13 31t31 13t31 -13t13 -31t-13 -31t-31 -13t-31 13t-13 31z" />
</svg>
