<?xml version="1.0" standalone="no"?>
<!DOCTYPE svg PUBLIC "-//W3C//DTD SVG 1.1//EN" "http://www.w3.org/Graphics/SVG/1.1/DTD/svg11.dtd" >
<svg xmlns="http://www.w3.org/2000/svg" xmlns:xlink="http://www.w3.org/1999/xlink" version="1.1" viewBox="-10 0 1020 1000">
   <path fill="currentColor"
d="M1000 196v608q0 23 -22 32q-7 3 -14 3q-15 0 -25 -10l-225 -225v92q0 67 -47 114t-113 47h-393q-67 0 -114 -47t-47 -114v-392q0 -67 47 -114t114 -47h393q66 0 113 47t47 114v92l225 -225q10 -10 25 -10q7 0 14 2q22 10 22 33z" />
</svg>
