<?xml version="1.0" standalone="no"?>
<!DOCTYPE svg PUBLIC "-//W3C//DTD SVG 1.1//EN" "http://www.w3.org/Graphics/SVG/1.1/DTD/svg11.dtd" >
<svg xmlns="http://www.w3.org/2000/svg" xmlns:xlink="http://www.w3.org/1999/xlink" version="1.1" viewBox="-10 0 1000 1000">
   <path fill="currentColor"
d="M980 250h-100v100h100v100h-100v100h100v100h-100v100h100v60q0 16 -12 28t-28 12h-900q-16 0 -28 -12t-12 -28v-60h100v-100h-100v-100h100v-100h-100v-100h100v-100h-100v-60q0 -18 12 -29t28 -11h900q16 0 28 11t12 29v60zM380 650l250 -150l-250 -150v300z" />
</svg>
