<?xml version="1.0" standalone="no"?>
<!DOCTYPE svg PUBLIC "-//W3C//DTD SVG 1.1//EN" "http://www.w3.org/Graphics/SVG/1.1/DTD/svg11.dtd" >
<svg xmlns="http://www.w3.org/2000/svg" xmlns:xlink="http://www.w3.org/1999/xlink" version="1.1" viewBox="-10 0 854 1000">
   <path fill="currentColor"
d="M209 317h416v365h-416v-365zM573 630v-260h-313v260h313zM678 5q65 0 110 46t46 110v678q0 65 -46 110t-110 46h-157v-104h-208v104h-157q-65 0 -110 -46t-46 -110v-678q0 -65 46 -110t110 -46h157v105h208v-105h157zM729 214v-53q0 -21 -15 -36t-36 -15h-53v104h-416
v-104h-53q-21 0 -37 15t-15 36v53q21 0 37 15t15 37t-15 36t-37 15v53q21 0 37 16t15 36t-15 37t-37 15v52q21 0 37 16t15 37t-15 36t-37 15v52q21 0 37 16t15 37t-15 36t-37 15v53q0 21 15 37t37 15h53v-105h416v105h53q21 0 36 -15t15 -37v-53q-21 0 -36 -15t-15 -36
t15 -37t36 -16v-52q-21 0 -36 -15t-15 -36t15 -37t36 -16v-52q-21 0 -36 -15t-15 -37t15 -36t36 -16v-53q-21 0 -36 -15t-15 -36t15 -37t36 -15z" />
</svg>
