<?xml version="1.0" standalone="no"?>
<!DOCTYPE svg PUBLIC "-//W3C//DTD SVG 1.1//EN" "http://www.w3.org/Graphics/SVG/1.1/DTD/svg11.dtd" >
<svg xmlns="http://www.w3.org/2000/svg" xmlns:xlink="http://www.w3.org/1999/xlink" version="1.1" viewBox="-10 0 1380 1000">
   <path fill="currentColor"
d="M1360 1v1000h-1360v-1000h1360zM1160 161h120v-80h-120v80zM960 161h120v-80h-120v80zM720 161h120v-80h-120v80zM960 761h320v-520h-320v520zM520 161h120v-80h-120v80zM1160 921h120v-80h-120v80zM280 161h120v-80h-120v80zM520 761h320v-520h-320v520zM960 921h120
v-80h-120v80zM80 161h120v-80h-120v80zM720 921h120v-80h-120v80zM80 761h320v-520h-320v520zM520 921h120v-80h-120v80zM280 921h120v-80h-120v80zM80 921h120v-80h-120v80z" />
</svg>
