<?xml version="1.0" standalone="no"?>
<!DOCTYPE svg PUBLIC "-//W3C//DTD SVG 1.1//EN" "http://www.w3.org/Graphics/SVG/1.1/DTD/svg11.dtd" >
<svg xmlns="http://www.w3.org/2000/svg" xmlns:xlink="http://www.w3.org/1999/xlink" version="1.1" viewBox="-11 0 960 1000">
   <path fill="currentColor"
d="M493 446q6 -36 38 -66t67 -29q77 0 62 84q-12 78 -75 155q-57 68 -107 103q-15 8 -29 8q-34 0 -55 -44q-5 -10 -33 -104t-31.5 -98.5t-8.5 -4.5q-20 0 -38 18l-15 -21l17 -21q59 -63 100 -71h10q18 0 29 17t15 36t7 47t7 37q18 81 32 81q18 0 55 -72q13 -21 8 -44
t-27 -22q-8 0 -28 11zM469 969q-194 0 -331 -138t-138 -331t138 -332t331 -137t331 137t138 332t-138 331t-331 138zM469 135q-151 0 -258 107t-107 258t107 258t258 107t258 -107t107 -258t-107 -258t-258 -107z" />
</svg>
