<?xml version="1.0" standalone="no"?>
<!DOCTYPE svg PUBLIC "-//W3C//DTD SVG 1.1//EN" "http://www.w3.org/Graphics/SVG/1.1/DTD/svg11.dtd" >
<svg xmlns="http://www.w3.org/2000/svg" xmlns:xlink="http://www.w3.org/1999/xlink" version="1.1" viewBox="-10 0 1010 1000">
   <path fill="currentColor"
d="M954 289q-6 132 -186 363q-185 241 -313 241q-79 0 -134 -147q-25 -89 -74 -269q-40 -146 -87 -146q-10 0 -71 42l-43 -54l133 -119q87 -77 134 -81q53 -5 85 31t46 113q24 160 37 208q30 139 66 139q29 0 86 -89.5t61 -137.5q8 -77 -61 -77q-31 0 -67 14
q67 -219 256 -213q140 5 132 182z" />
</svg>
