<?xml version="1.0" standalone="no"?>
<!DOCTYPE svg PUBLIC "-//W3C//DTD SVG 1.1//EN" "http://www.w3.org/Graphics/SVG/1.1/DTD/svg11.dtd" >
<svg xmlns="http://www.w3.org/2000/svg" xmlns:xlink="http://www.w3.org/1999/xlink" version="1.1" viewBox="-10 0 1166 1000">
   <path fill="currentColor"
d="M0 272q55 -65 110 -116t96 -78t72 -43t48 -21l17 -4q12 -2 24 -2q19 0 35 6q26 10 43 34t29 55t21 72t15 78t14 79l14 71q32 125 52 177t41 53q24 0 67 -56t93 -151q26 -48 26 -91q0 -13 -2 -23q-9 -52 -51 -65q-11 -4 -24 -4q-35 0 -83 26q22 -130 134 -209
q85 -60 174 -60q12 0 24 1q102 8 139 90q18 38 18 88q0 29 -6 61q-18 102 -69 208t-113 187t-133 155t-123 118t-91 68q-42 24 -78 24t-70 -21t-56 -48t-38 -57q-18 -38 -97 -299t-97 -280q-1 -2 -4 -4t-13 -5t-24 0t-37 14t-50 33z" />
</svg>
