<?xml version="1.0" standalone="no"?>
<!DOCTYPE svg PUBLIC "-//W3C//DTD SVG 1.1//EN" "http://www.w3.org/Graphics/SVG/1.1/DTD/svg11.dtd" >
<svg xmlns="http://www.w3.org/2000/svg" xmlns:xlink="http://www.w3.org/1999/xlink" version="1.1" viewBox="-10 0 877 1000">
   <path fill="currentColor"
d="M721 356q6 -121 -90 -124q-129 -4 -174 146q25 -11 46 -11q47 0 41 54q-2 32 -41 93t-59 61q-24 0 -46 -94q-7 -30 -25 -142q-16 -106 -89 -99q-33 4 -91 56l-46 40l-45 40l29 37q43 -29 49 -29q32 0 59 100l26 92q17 61 25 92q38 100 91 100q88 0 214 -164
q123 -158 126 -248zM857 232v536q0 66 -47 113t-114 48h-535q-67 0 -114 -48t-47 -113v-536q0 -66 47 -113t114 -48h535q67 0 114 48t47 113z" />
</svg>
