<?xml version="1.0" standalone="no"?>
<!DOCTYPE svg PUBLIC "-//W3C//DTD SVG 1.1//EN" "http://www.w3.org/Graphics/SVG/1.1/DTD/svg11.dtd" >
<svg xmlns="http://www.w3.org/2000/svg" xmlns:xlink="http://www.w3.org/1999/xlink" version="1.1" viewBox="-10 0 1179 1000">
   <path fill="currentColor"
d="M1158 231q-8 169 -236 463q-236 306 -400 306q-101 0 -171 -187l-94 -343q-52 -187 -112 -187q-13 0 -90 55l-55 -70q86 -76 169 -151q114 -99 171 -104q135 -13 166 185q34 212 47 264q39 177 86 177q36 0 109 -114.5t78 -173.5q10 -99 -78 -99q-42 0 -86 18
q86 -278 327 -270q180 5 169 231z" />
</svg>
