<?xml version="1.0" standalone="no"?>
<!DOCTYPE svg PUBLIC "-//W3C//DTD SVG 1.1//EN" "http://www.w3.org/Graphics/SVG/1.1/DTD/svg11.dtd" >
<svg xmlns="http://www.w3.org/2000/svg" xmlns:xlink="http://www.w3.org/1999/xlink" version="1.1" viewBox="-10 0 750 1000">
   <path fill="currentColor"
d="M725 332q-26 153 -136.5 285t-200.5 193q-53 26 -92.5 1.5t-61.5 -69.5q-13 -23 -62 -193t-59 -182q-9 -16 -41 -1t-43 26l-29 -37l33 -39q38 -41 91 -82t94 -49q55 -11 81 54q16 37 31 135q3 18 14 63q36 152 57 152q32 0 103 -135q32 -62 4 -102t-90 -1q10 -62 53 -106
q82 -86 177 -64q100 19 77 151z" />
</svg>
