<?xml version="1.0" standalone="no"?>
<!DOCTYPE svg PUBLIC "-//W3C//DTD SVG 1.1//EN" "http://www.w3.org/Graphics/SVG/1.1/DTD/svg11.dtd" >
<svg xmlns="http://www.w3.org/2000/svg" xmlns:xlink="http://www.w3.org/1999/xlink" version="1.1" viewBox="-10 0 921 1000">
   <path fill="currentColor"
d="M896 292q-32 186 -171 351t-245 237q-42 28 -81 17t-66 -38t-43 -60t-78 -240t-74 -223q-16 -12 -38 -5t-44 21l-20 14l-36 -50l46 -52q28 -32 100 -89t124 -67q30 -6 53 7t36 35t23 60t15 70l12 75q7 43 13 67l21 80q7 26 17 54t18 39t18 11q40 0 126 -166
q42 -76 6 -124t-112 -2q22 -126 140 -188q104 -54 183 -8t57 174z" />
</svg>
