<?xml version="1.0" standalone="no"?>
<!DOCTYPE svg PUBLIC "-//W3C//DTD SVG 1.1//EN" "http://www.w3.org/Graphics/SVG/1.1/DTD/svg11.dtd" >
<svg xmlns="http://www.w3.org/2000/svg" xmlns:xlink="http://www.w3.org/1999/xlink" version="1.1" viewBox="-10 0 980 1000">
   <path fill="currentColor"
d="M480 20q200 0 340 140t140 339t-140 340t-339 141t-340 -141t-141 -340t141 -339t339 -140zM700 406q14 -82 -48 -94q-60 -14 -110 40q-28 28 -34 66q38 -24 56 1t-2 63q-44 84 -64 84q-14 0 -36 -94q-4 -14 -8 -40t-8 -45t-12 -39t-20 -29t-30 -5q-26 6 -60 32t-56 50
l-20 24l18 24q4 -4 10 -8t22 -10t21 2t36 113t39 121q14 28 38 43t58 -1q54 -36 124 -120t86 -178z" />
</svg>
