<?xml version="1.0" standalone="no"?>
<!DOCTYPE svg PUBLIC "-//W3C//DTD SVG 1.1//EN" "http://www.w3.org/Graphics/SVG/1.1/DTD/svg11.dtd" >
<svg xmlns="http://www.w3.org/2000/svg" xmlns:xlink="http://www.w3.org/1999/xlink" version="1.1" viewBox="-10 0 867 1000">
   <path fill="currentColor"
d="M835 461v111q-56 13 -110 13q-36 76 -92 151t-102 120t-71 60q-45 25 -91 -2q-15 -9 -33 -24t-48 -47t-57 -72t-60 -102t-59 -136t-51 -176t-39 -218h158q14 122 39 223t58 177t68 131t78 109q94 -94 160 -227q-79 -40 -124 -122t-45 -186q0 -107 58 -176t157.5 -68.5
t152.5 59.5t53 166q0 89 -32 159l-11 2q-7 1 -25 1t-36 -3t-34 -14t-28 -29q17 -58 17 -103q0 -48 -16 -73t-44 -26q-30 0 -48 28t-18 78q0 104 59 164t149 60q35 0 67 -8z" />
</svg>
