<?xml version="1.0" standalone="no"?>
<!DOCTYPE svg PUBLIC "-//W3C//DTD SVG 1.1//EN" "http://www.w3.org/Graphics/SVG/1.1/DTD/svg11.dtd" >
<svg xmlns="http://www.w3.org/2000/svg" xmlns:xlink="http://www.w3.org/1999/xlink" version="1.1" viewBox="-10 0 1020 1000">
   <path fill="currentColor"
d="M40 186q-16 0 -28 11.5t-12 28.5v548q0 16 12 28t28 12h920q17 0 28.5 -12t11.5 -28v-548q0 -17 -11.5 -28.5t-28.5 -11.5h-920zM597 373q31 0 57 10l-9 54l-6 -3q-22 -10 -47 -9q-17 0 -26 6.5t-9.5 14.5t9.5 15q7 5 26 15q27 14 40 30t12 37q0 39 -29.5 62t-79.5 23
q-46 -2 -70 -13l9 -56l8 4q16 8 28 10.5t31 2.5q15 0 26.5 -6t11.5 -18q0 -8 -7 -14.5t-26 -15.5q-55 -28 -55 -67q1 -36 30.5 -59t75.5 -23zM88 381h102q23 0 28 20l22 112v0l7 34l61 -166h67l-99 243h-67l-53 -196q55 29 74 63q-6 -14 -16 -28q-7 -9 -32 -31
q-39 -32 -94 -46v-5zM401 381h65l-40 243h-65zM769 381h49l52 243h-59l-8 -36h-82l-13 36h-67l95 -223q8 -20 33 -20zM774 447q-4 11 -9 23l-25 67h53z" />
</svg>
