<?xml version="1.0" standalone="no"?>
<!DOCTYPE svg PUBLIC "-//W3C//DTD SVG 1.1//EN" "http://www.w3.org/Graphics/SVG/1.1/DTD/svg11.dtd" >
<svg xmlns="http://www.w3.org/2000/svg" xmlns:xlink="http://www.w3.org/1999/xlink" version="1.1" viewBox="-10 0 1240 1000">
   <path fill="currentColor"
d="M0 196q10 -8 24.5 -12t25.5 -4h9q10 0 24 1q22 1 32 1q6 0 38 -2q16 -1 29 -1t23 1q20 2 32 8q6 3 13 13t12 19t11 25t10 22q38 82 94 163l7 11q5 8 9 12t9 12t10 11t11 8t11 6t12 0q28 -5 31 -117q1 -19 1 -35q0 -74 -15 -102q-6 -11 -15 -18t-25 -12t-23 -10
q14 -28 50 -37t96 -9h79q26 0 27 3l22 6l20 9q20 9 12 14q9 18 11 42q0 7 1 14q0 20 -3 52q-4 42 -4 52q-3 23 -3 46q0 18 2 38q4 44 30 61q9 -1 17 -4t15 -11l11 -12q4 -4 13 -16t10 -14q47 -62 94 -163l9 -23l12 -26q12 -26 12 -20t15 -13q16 -7 38 -7h9q20 0 46 2
q32 2 47 2q9 0 28 -1l32 -2q13 -1 30 1t25 6t14 13q3 6 3 13q0 29 -35 87q-17 29 -34 52t-46 58t-37 47q-2 2 -14 18t-17 24t-12 22t-5 27q0 8 3 15t10 15l10 12q3 4 13 13l12 11q71 65 111.5 117t40.5 75q0 33 -51 41q-26 4 -53 4q-21 0 -43 -3q-20 -2 -37 -2q-26 0 -45 5
h-6q-66 -11 -139 -94q-4 -4 -17 -21t-22 -25t-23 -17t-27 -6q-23 4 -30 29t-9 59t-10 49q-13 24 -79 24q-28 0 -66 -4q-78 -8 -141 -40t-101 -68t-81 -92q-104 -133 -197 -322l-23 -48q-4 -8 -9 -24t-8 -28t-3 -26z" />
</svg>
