<?xml version="1.0" standalone="no"?>
<!DOCTYPE svg PUBLIC "-//W3C//DTD SVG 1.1//EN" "http://www.w3.org/Graphics/SVG/1.1/DTD/svg11.dtd" >
<svg xmlns="http://www.w3.org/2000/svg" xmlns:xlink="http://www.w3.org/1999/xlink" version="1.1" viewBox="-11 0 1093 1000">
   <path fill="currentColor"
d="M1070 290q13 36 -84 164q-13 18 -36 48l-31 40q-9 12 -17 27t-7 24t8 19t18 24t32 30q2 1 2 2q79 73 107 123l4 7q2 4 4 15t-1 19t-14 15t-33 7l-142 3q-14 2 -32 -3t-29 -13l-11 -6q-17 -12 -39 -36t-38 -43t-34 -33t-32 -8q-1 0 -4 2t-10 8t-12 16t-9 29t-4 44
q0 8 -2 15t-4 10l-2 3q-10 11 -30 12h-64q-40 3 -81 -9t-74 -29t-57 -37t-40 -32l-14 -14q-5 -5 -15 -17t-40 -50t-59 -85t-68 -117t-73 -152q-4 -9 -4 -15t2 -9l2 -3q9 -11 32 -11l153 -1q7 1 13 3t9 5l3 2q9 6 13 18q11 28 26 57t23 46l9 16q16 34 31 58t27 38t23 22t19 8
t15 -3l3 -3q2 -2 7 -12t7 -26l5 -46q3 -30 0 -69q-1 -23 -5 -41t-7 -26l-4 -6q-14 -19 -47 -24q-8 -2 3 -14q8 -10 21 -17q29 -14 133 -13q46 1 75 7q12 3 19 8t12 13t5 18t2 25t0 31t-2 40v46l-1 23q-1 17 0 27l2 22q1 12 6 22t13 14l9 2q5 1 15 -6t21 -19t29 -38t38 -60
q33 -58 60 -125q2 -6 5 -10t6 -6l5 -3l8 -2q8 -2 11 0l160 -1q22 -3 36 1t17 10z" />
</svg>
