<?xml version="1.0" standalone="no"?>
<!DOCTYPE svg PUBLIC "-//W3C//DTD SVG 1.1//EN" "http://www.w3.org/Graphics/SVG/1.1/DTD/svg11.dtd" >
<svg xmlns="http://www.w3.org/2000/svg" xmlns:xlink="http://www.w3.org/1999/xlink" version="1.1" viewBox="-10 0 1020 1000">
   <path fill="currentColor"
d="M196 0q-53 0 -98 26.5t-71.5 71.5t-26.5 98v608q0 53 26.5 98t71.5 71.5t98 26.5h608q53 0 98 -26.5t71.5 -71.5t26.5 -98v-608q0 -53 -26.5 -98t-71.5 -71.5t-98 -26.5h-608zM308 226h197q66 0 94 4q31 4 59 20q30 17 45 43.5t15 61.5q0 41 -20.5 73t-56.5 47v3
q52 11 83 44t31 91q0 42 -16 73q-16 33 -42 52q-32 26 -70 36q-36 10 -95 10h-224v-558zM448 328v118h17q41 0 51.5 -0.5t29.5 -7.5q17 -10 23 -23t6 -31q0 -15 -7 -28q-6 -15 -21 -21t-33 -6q-13 -1 -57 -1h-9zM448 542v140l83 -1q22 -2 43 -10q19 -9 27.5 -24t8.5 -36
q0 -27 -10 -41t-32 -22q-12 -4 -35 -6h-85z" />
</svg>
