<?xml version="1.0" standalone="no"?>
<!DOCTYPE svg PUBLIC "-//W3C//DTD SVG 1.1//EN" "http://www.w3.org/Graphics/SVG/1.1/DTD/svg11.dtd" >
<svg xmlns="http://www.w3.org/2000/svg" xmlns:xlink="http://www.w3.org/1999/xlink" version="1.1" viewBox="-10 0 663 1000">
   <path fill="currentColor"
d="M429 196v608q0 14 -11 25t-25 10t-25 -10l-186 -186h-146q-15 0 -25 -11t-11 -25v-214q0 -15 11 -25t25 -11h146l186 -186q10 -10 25 -10t25 10t11 25zM643 500q0 42 -24 79t-63 52q-5 3 -14 3q-14 0 -25 -10t-10 -26q0 -12 6 -20t17 -14t19 -12t16 -21t6 -31t-6 -32
t-16 -20t-19 -13t-17 -13t-6 -20q0 -15 10 -26t25 -10q9 0 14 3q39 15 63 52t24 79z" />
</svg>
