<?xml version="1.0" standalone="no"?>
<!DOCTYPE svg PUBLIC "-//W3C//DTD SVG 1.1//EN" "http://www.w3.org/Graphics/SVG/1.1/DTD/svg11.dtd" >
<svg xmlns="http://www.w3.org/2000/svg" xmlns:xlink="http://www.w3.org/1999/xlink" version="1.1" viewBox="-11 0 808 1000">
   <path fill="currentColor"
d="M344 943q0 -7 -7 -33t-17 -60l-11 -38q-1 -2 -3 -15t-5 -20t-7 -12q-9 -8 -29 -8q-13 0 -39 3t-40 3q-19 0 -26 -6q-3 -3 -6 -8t-4 -12t-4 -13t-3 -10q-20 -72 -20 -143t20 -142q1 -2 3 -10l4 -14l4 -11q2 -5 6 -8q7 -7 26 -7q14 0 40 3t39 4q20 0 29 -8q5 -5 7 -12
l5 -20q3 -13 3 -15q1 -5 11 -39l17 -59q7 -25 7 -33q0 -12 -24 -29t-42 -24q-11 -4 -25 -4q-19 0 -55 10q-32 9 -54 22t-39 37t-26 39t-25 53q-4 7 -5 11q-28 59 -38 120t-11 136t11 137t38 120q31 68 46 90q35 51 100 71l3 1q36 10 55 10q14 0 25 -4q18 -7 42 -24t24 -29z
M433 433q-14 0 -25 -11t-11 -25t11 -25q21 -21 21 -50.5t-21 -50.5q-11 -11 -11 -26t11 -25t25 -10t25 10q42 42 42 101t-42 101q-12 11 -25 11zM534 534q-15 0 -25.5 -10.5t-10.5 -25.5t11 -25q62 -63 62 -152t-62 -151q-11 -11 -11 -26t11 -25t25 -10t25 10q84 84 84 202
t-84 202q-10 11 -25 11zM635 635q-15 0 -25.5 -10.5t-10.5 -25.5t11 -25q50 -51 77 -116t27 -137t-27 -136t-77 -116q-11 -11 -11 -26t11 -25t25 -10t25 10q61 61 93 139t33 164t-33 164t-93 139q-10 11 -25 11z" />
</svg>
