<?xml version="1.0" standalone="no"?>
<!DOCTYPE svg PUBLIC "-//W3C//DTD SVG 1.1//EN" "http://www.w3.org/Graphics/SVG/1.1/DTD/svg11.dtd" >
<svg xmlns="http://www.w3.org/2000/svg" xmlns:xlink="http://www.w3.org/1999/xlink" version="1.1" viewBox="-10 0 949 1000">
   <path fill="currentColor"
d="M429 196v608q0 14 -11 25t-25 10t-25 -10l-186 -186h-146q-15 0 -25 -11t-11 -25v-214q0 -15 11 -25t25 -11h146l186 -186q10 -10 25 -10t25 10t11 25zM643 500q0 42 -24 79t-63 52q-5 3 -14 3q-14 0 -25 -10t-10 -26q0 -12 6 -20t17 -14t19 -12t16 -21t6 -31t-6 -32
t-16 -20t-19 -13t-17 -13t-6 -20q0 -15 10 -26t25 -10q9 0 14 3q39 15 63 52t24 79zM786 500q0 85 -48 158t-125 105q-7 3 -14 3q-15 0 -26 -11t-10 -25q0 -22 21 -33q32 -16 43 -25q41 -30 64 -75t23 -97t-23 -97t-64 -75q-11 -9 -43 -25q-21 -11 -21 -33q0 -14 10 -25
t25 -11q8 0 15 3q78 33 125 105t48 158zM929 500q0 128 -71 236t-189 158q-7 3 -14 3q-15 0 -25 -11t-11 -25q0 -20 22 -33l25 -12q25 -14 46 -28q68 -51 107 -127t38 -161t-38 -161t-107 -127q-21 -15 -46 -28q-4 -3 -13 -6t-12 -6q-22 -13 -22 -33q0 -15 11 -25t25 -11
q7 0 14 3q118 51 189 158t71 236z" />
</svg>
