<?xml version="1.0" standalone="no"?>
<!DOCTYPE svg PUBLIC "-//W3C//DTD SVG 1.1//EN" "http://www.w3.org/Graphics/SVG/1.1/DTD/svg11.dtd" >
<svg xmlns="http://www.w3.org/2000/svg" xmlns:xlink="http://www.w3.org/1999/xlink" version="1.1" viewBox="-10 0 1020 1000">
   <path fill="currentColor"
d="M0 299h305l345 -282v965l-345 -279h-229zM713 582q0 -4 2 -6l76 -76l-76 -76q-2 -2 -2 -6t2 -6l53 -53q2 -2 5 -2t6 2l76 76l77 -76q4 -2 6 -2t5 2l55 53q2 2 2 6t-2 6l-76 76l76 76q2 4 2 7t-2 5l-55 54q-2 2 -5 2t-6 -2l-77 -78l-76 78q-2 2 -5 2t-6 -2l-53 -54
q-2 -2 -2 -6z" />
</svg>
