<?xml version="1.0" standalone="no"?>
<!DOCTYPE svg PUBLIC "-//W3C//DTD SVG 1.1//EN" "http://www.w3.org/Graphics/SVG/1.1/DTD/svg11.dtd" >
<svg xmlns="http://www.w3.org/2000/svg" xmlns:xlink="http://www.w3.org/1999/xlink" version="1.1" viewBox="-10 0 1145 1000">
   <path fill="currentColor"
d="M0 203h77l107 363l72 -244l-35 -119h77l107 363l107 -363h290v36l-109 188q58 20 86 67q30 50 30 114q0 82 -43 137t-112 55q-51 0 -90 -33.5t-56 -88.5l60 -25q13 34 35 54q20 19 51 19t52.5 -34t21.5 -85t-23 -82q-27 -34 -83 -34h-30v-36l103 -178h-124l-7 12
l-152 511h-7l-110 -370l-111 370h-7zM818 620l18 50q15 33 33 58q42 58 94 67q45 9 88 -18q19 -12 35 -31q20 -20 28 -36l11 -20l-11 -59q-8 16 -16 28t-12 17l-4 4q-34 37 -61 49q-33 15 -68 11q-27 -2 -60 -24q-36 -31 -43 -43q-13 -18 -32 -53zM845 425q0 -84 33 -146
q16 -30 38 -48t42 -20q35 -4 70 26q18 15 37 50l44 -87l12 76l-44 85q-8 -16 -19 -30t-18 -20l-8 -6q-31 -22 -64 -15q-24 5 -47 30t-35 59q-19 55 -19 106q-1 40 5 63q-12 -22 -19 -53t-7 -51z" />
</svg>
