<?xml version="1.0" standalone="no"?>
<!DOCTYPE svg PUBLIC "-//W3C//DTD SVG 1.1//EN" "http://www.w3.org/Graphics/SVG/1.1/DTD/svg11.dtd" >
<svg xmlns="http://www.w3.org/2000/svg" xmlns:xlink="http://www.w3.org/1999/xlink" version="1.1" viewBox="-10 0 1020 1000">
   <path fill="currentColor"
d="M0 766v-766h1000v766l-500 234zM84 305l63 275q3 14 17 14h47q14 0 18 -14l23 -113l21 113q4 14 18 14h49q14 0 17 -14l61 -275q2 -10 -3 -16t-13 -6h-50q-14 0 -16 14l-23 121l-26 -121q-4 -14 -17 -14h-38q-13 0 -15 14l-26 121l-25 -121q-2 -14 -16 -14h-50
q-20 0 -16 22zM428 547q37 51 103 53q45 -2 76 -30t32 -68q-2 -43 -34 -68q30 -28 30 -63q-2 -45 -32 -68t-72 -24q-64 0 -99 51q-8 12 2 23l27 26q14 12 25 -2q18 -24 41 -24q20 0 24 10q6 12 0 26q-8 9 -45 9q-20 0 -20 16v41q2 21 20 18q45 0 49 9t4 16q0 25 -28.5 25
t-46.5 -25q-11 -16 -25 -2l-29 29q-10 10 -2 22zM660 439q0 73 36 117t95 44q70 0 104 -75q3 -19 -10 -23l-37 -18q-6 -2 -14 1t-10 9q-12 29 -33 29t-35 -23t-14 -62t14 -61t35 -24q21 2 33 28q8 13 24 10l37 -18q17 -10 10 -25q-34 -71 -104 -71q-59 0 -95 45t-36 117z
" />
</svg>
