<?xml version="1.0" standalone="no"?>
<!DOCTYPE svg PUBLIC "-//W3C//DTD SVG 1.1//EN" "http://www.w3.org/Graphics/SVG/1.1/DTD/svg11.dtd" >
<svg xmlns="http://www.w3.org/2000/svg" xmlns:xlink="http://www.w3.org/1999/xlink" version="1.1" viewBox="-10 0 1020 1000">
   <path fill="currentColor"
d="M0 828v-625q0 -70 51 -121t121 -51h640q40 0 67 28t27 66v281q94 71 94 188t-94 187v47q0 70 -51 121t-121 51h-562q-70 0 -121 -51t-51 -121zM63 828q0 45 32 77t77 33h562q45 0 78 -33t32 -77v-47h-281q-65 0 -111 -46t-46 -110t46 -110t111 -46h281v-63q0 -13 -9 -22
t-23 -9h-640q-63 0 -109 -39v492zM63 203q0 45 31 76v-123q0 -13 9 -22t22 -9h656q14 0 23 9t9 22v156q15 0 31 6v-193q0 -14 -9 -22t-23 -9h-640q-45 0 -77 32t-32 77zM125 301q23 11 47 11h609v-31h-656v20zM125 250h656v-31h-656v31zM125 188h656v-32h-656v32zM469 625
q0 39 27 66t67 28h320q54 -51 54 -125q0 -59 -35 -104v2l-7 14q-20 25 -51 25h-281q-40 0 -67 28t-27 66zM500 625q0 -25 19 -44t44 -19t43 19t19 44t-19 44t-43 18t-44 -18t-19 -44z" />
</svg>
