<?xml version="1.0" standalone="no"?>
<!DOCTYPE svg PUBLIC "-//W3C//DTD SVG 1.1//EN" "http://www.w3.org/Graphics/SVG/1.1/DTD/svg11.dtd" >
<svg xmlns="http://www.w3.org/2000/svg" xmlns:xlink="http://www.w3.org/1999/xlink" version="1.1" viewBox="-11 0 1048 1000">
   <path fill="currentColor"
d="M991 664q64 107 12 199.5t-177 92.5h-625q-126 0 -177 -93q-53 -92 11 -199l309 -513q62 -107 169 -107t170 107zM514 776q34 0 57 -23t23 -57t-23 -58t-57 -24t-58 24t-23 58t23 57t58 23zM599 389q5 -13 5 -32q0 -38 -26 -64t-64 -27t-65 27t-26 64q0 17 6 34l72 178
q5 9 13 9t11 -9q74 -178 74 -180z" />
</svg>
