<?xml version="1.0" standalone="no"?>
<!DOCTYPE svg PUBLIC "-//W3C//DTD SVG 1.1//EN" "http://www.w3.org/Graphics/SVG/1.1/DTD/svg11.dtd" >
<svg xmlns="http://www.w3.org/2000/svg" xmlns:xlink="http://www.w3.org/1999/xlink" version="1.1" viewBox="-10 0 749 1000">
   <path fill="currentColor"
d="M521 825q-113 0 -193 -80q-50 -50 -120 -50t-119 50q-15 15 -37 15t-37 -15t-15 -37t15 -37q80 -80 193 -80t193 80q50 50 120 50t119 -50q15 -15 37 -15t37 15t15 37t-15 37q-80 80 -193 80zM521 616q-113 0 -193 -80q-50 -50 -120 -50t-119 50q-15 15 -37 15t-37 -15
t-15 -37t15 -37q80 -80 193 -80t193 80q50 50 120 50t119 -50q15 -15 37 -15t37 15t15 37t-15 37q-80 80 -193 80zM521 407q-113 0 -193 -80q-50 -50 -120 -50t-119 50q-15 15 -37 15t-37 -15t-15 -36t15 -36q80 -80 193 -80t193 80q50 50 120 50t119 -50q15 -15 37 -15
t37 15t15 36t-15 36q-80 80 -193 80z" />
</svg>
