<?xml version="1.0" standalone="no"?>
<!DOCTYPE svg PUBLIC "-//W3C//DTD SVG 1.1//EN" "http://www.w3.org/Graphics/SVG/1.1/DTD/svg11.dtd" >
<svg xmlns="http://www.w3.org/2000/svg" xmlns:xlink="http://www.w3.org/1999/xlink" version="1.1" viewBox="-11 0 959 1000">
   <path fill="currentColor"
d="M781 135q64 0 110 47t47 110q0 60 -40 103q40 44 40 104.5t-40 104.5q40 44 40 104q0 65 -47 111q-110 110 -266 110t-266 -110q-19 -19 -46 -19t-47 19q-45 45 -109 45t-111 -46t-46 -110q0 -60 40 -104q-40 -44 -40 -104.5t40 -104.5q-40 -43 -40 -103q0 -64 46 -110
q112 -112 267 -112t266 112q19 18 46 18t46 -18q47 -47 110 -47zM818 745q15 -15 15 -36t-15 -37t-37 -15t-36 15q-49 48 -120 48t-120 -48q-80 -80 -192 -80t-193 80q-15 15 -15 37t15 36t36 15t37 -15q50 -50 120 -50t120 50q80 80 192 80t193 -80zM120 255q-15 15 -15 37
t15 36q16 16 36 16t37 -16q48 -49 120 -49t120 49q80 80 192 80t193 -80q15 -15 15 -36t-16 -37t-36 -16t-36 16q-49 49 -120 49t-120 -49q-80 -80 -192 -80t-193 80zM818 537q15 -15 15 -37t-15 -37t-37 -15t-36 15q-50 50 -120 50t-120 -50q-80 -80 -192 -80t-193 80
q-15 15 -15 37t15 37t36 15t37 -15q48 -49 120 -49t120 49q80 80 192 80t193 -80z" />
</svg>
