<?xml version="1.0" standalone="no"?>
<!DOCTYPE svg PUBLIC "-//W3C//DTD SVG 1.1//EN" "http://www.w3.org/Graphics/SVG/1.1/DTD/svg11.dtd" >
<svg xmlns="http://www.w3.org/2000/svg" xmlns:xlink="http://www.w3.org/1999/xlink" version="1.1" viewBox="-10 0 1163 1000">
   <path fill="currentColor"
d="M324 257q0 -23 -14 -37t-37.5 -14t-41.5 15t-18.5 36.5t18.5 35.5t42 14t37 -13t14 -37zM738 540q0 -15 -14 -28t-36 -12q-16 0 -28 13t-13 27q0 16 13 28t28 13q22 0 36 -12t14 -29zM607 257q0 -23 -14 -37t-37.5 -14t-41.5 15t-18 36.5t18 35.5t41.5 14t37.5 -13
t14 -37zM961 540q0 -15 -15 -28t-36 -12q-15 0 -27 13t-13 27q0 16 13 28t27 13q22 0 36 -12t15 -29zM813 319q-18 -3 -40 -3q-94 0 -173 43t-125 117t-45 160q0 44 13 85q-20 2 -38 2q-15 0 -28 -1t-31 -4l-25 -4q-7 -1 -30 -6t-28 -5l-141 70l40 -121q-162 -114 -162 -274
q0 -94 54 -173t148 -125t203 -45q98 0 185 36t146 102t77 146zM1143 632q0 65 -38 124t-104 108l31 101l-111 -60q-84 20 -122 20q-94 0 -173 -39t-125 -107t-46 -147t46 -148t125 -107t173 -39q90 0 169 39t127 108t48 147z" />
</svg>
