<?xml version="1.0" standalone="no"?>
<!DOCTYPE svg PUBLIC "-//W3C//DTD SVG 1.1//EN" "http://www.w3.org/Graphics/SVG/1.1/DTD/svg11.dtd" >
<svg xmlns="http://www.w3.org/2000/svg" xmlns:xlink="http://www.w3.org/1999/xlink" version="1.1" viewBox="-11 0 1022 1000">
   <path fill="currentColor"
d="M377 716q11 -19 6 -38t-24.5 -27.5t-41.5 -0.5t-33 25q-13 19 -8 38t24 29t42 1t35 -27zM429 649q5 -7 2 -15t-10 -10.5t-16 0.5t-12 10q-9 18 8 26q8 2 16 -1t12 -10zM526 709q-25 57 -88 83t-124 7t-83 -71t4 -104t84 -78t117 -10q62 16 89 66t1 107zM700 619
q-5 -53 -49 -94t-117 -61t-153 -12q-124 13 -206 79t-74 148q5 53 50 94t116 61t153 12q125 -13 206 -79t74 -148zM872 622q0 38 -20 77t-61 77t-94 65t-126 47t-151 17t-154 -19t-134 -52t-96 -84t-36 -111q0 -64 39 -137t110 -144q94 -94 191 -131t137 3q36 36 11 117
q-2 8 0 11t5 4t8 0l11 -3q78 -33 138 -33t85 34.5t0 98.5q-1 7 -3 11t3 7t7 5t9 3q32 10 58 26t44 46t19 65zM831 273q23 27 30 61t-3 66q-5 12 -17 18t-25 3q-12 -5 -19 -17t-2 -25q11 -35 -13 -62t-60 -19q-13 3 -25 -5t-14 -20q-3 -14 5 -25t20 -14q34 -7 67 3t56 36z
M932 182q49 54 63 125t-8 134q-5 15 -19 23t-29 2t-22 -19t-3 -29q16 -46 6 -96t-45 -88.5t-83 -53.5t-96 -4q-16 3 -29 -6t-17 -24t5 -29t25 -16q68 -15 136 6t116 75z" />
</svg>
