<?xml version="1.0" standalone="no"?>
<!DOCTYPE svg PUBLIC "-//W3C//DTD SVG 1.1//EN" "http://www.w3.org/Graphics/SVG/1.1/DTD/svg11.dtd" >
<svg xmlns="http://www.w3.org/2000/svg" xmlns:xlink="http://www.w3.org/1999/xlink" version="1.1" viewBox="-11 0 1256 1000">
   <path fill="currentColor"
d="M0 672q0 -161 184 -347q117 -116 236 -162q56 -23 97 -23q45 0 71.5 26.5t26.5 72.5q0 31 -12 72q-4 14 3 17t16 1l10 -4q96 -40 170 -40t106 42q15 22 15 52.5t-16 70.5q-7 10 -2 17t8 9t14 5q62 19 106 62t44 107q0 59 -41 120t-111 113t-178 84t-229 33
q-131 0 -247 -38t-194 -116t-77 -174zM125 720q10 101 125 161q92 49 209 49q29 0 60 -3q153 -15 255 -97q92 -75 92 -165q0 -9 -1 -18q-10 -100 -125 -160q-93 -49 -210 -49q-29 0 -59 3q-101 10 -183 51t-126 101q-38 53 -38 109q0 9 1 18zM285 782q-13 -29 -13 -59
q0 -35 18 -70q31 -64 104 -96q45 -20 91 -20q27 0 54 7q76 20 109 82q17 32 17 65t-15 66q-31 71 -109 104q-44 19 -88 19q-34 0 -67 -11q-73 -23 -101 -87zM341 763q6 25 30 35q13 6 26 6t25 -4q28 -9 43 -33q10 -16 10 -32q0 -7 -3 -15q-6 -24 -30 -34q-13 -5 -25.5 -5
t-25.5 4q-27 9 -41 32q-11 16 -11 33q0 7 2 13zM482 684q3 9 13 13q5 2 10 2t9 -2q11 -4 16 -13t2 -18t-12 -12.5t-19 -0.5t-16 13q-3 6 -3 12v6zM803 63q-1 -5 -1 -10q0 -13 8 -25q10 -16 29 -21q34 -7 68 -7q51 0 100 15q83 27 143 93t78 153q7 35 7 68q0 51 -16 98v1
q-6 18 -23 27q-11 5 -22 5q-7 0 -15 -2q-19 -6 -27 -23q-5 -11 -5 -20t2 -16v-1q11 -34 11 -70q0 -23 -4 -48q-13 -62 -56 -109t-102 -66q-35 -10 -70 -10q-24 0 -49 5q-5 1 -10 1q-14 0 -26 -8q-16 -11 -20 -30zM843 220q-1 -5 -1 -10q0 -10 6 -21q9 -14 27 -18t36 -4
q67 0 115 53q29 33 38 75q3 17 3 33q0 24 -8 48q-5 16 -20 23q-9 5 -17 5t-14 -2q-16 -5 -24 -20q-4 -9 -4 -17t2 -14q4 -14 4 -26q0 -28 -21 -50q-22 -26 -54 -26q-10 0 -20 2q-5 1 -9 1q-11 0 -21 -7q-14 -9 -18 -25z" />
</svg>
