<?xml version="1.0" standalone="no"?>
<!DOCTYPE svg PUBLIC "-//W3C//DTD SVG 1.1//EN" "http://www.w3.org/Graphics/SVG/1.1/DTD/svg11.dtd" >
<svg xmlns="http://www.w3.org/2000/svg" xmlns:xlink="http://www.w3.org/1999/xlink" version="1.1" viewBox="-10 0 878 1000">
   <path fill="currentColor"
d="M550 543q7 0 54 25t50 30q1 2 1 8q0 18 -9 41t-40 38t-57 15q-32 0 -106 -35q-55 -25 -95 -66t-82 -103q-41 -60 -40 -108v-5q2 -50 41 -88q14 -12 29 -12q4 0 10 1t11 1q11 0 15 3t8 16q5 11 19 49t14 41q0 12 -19 33t-20 26q0 3 3 8q19 41 57 76q31 30 84 57q7 4 14 4
t29 -27t29 -28zM436 839q71 0 136 -28t112 -74t75 -112t28 -136t-28 -136t-75 -112t-112 -75t-136 -28t-135 28t-112 75t-75 112t-28 136q0 113 67 205l-44 130l135 -43q88 58 192 58zM436 68q86 0 164 34t134 89t90 135t33 163t-33 163t-90 134t-134 90t-164 34
q-108 0 -203 -53l-233 75l76 -226q-60 -99 -60 -217q0 -86 33 -163t90 -135t134 -89t163 -34z" />
</svg>
