<?xml version="1.0" standalone="no"?>
<!DOCTYPE svg PUBLIC "-//W3C//DTD SVG 1.1//EN" "http://www.w3.org/Graphics/SVG/1.1/DTD/svg11.dtd" >
<svg xmlns="http://www.w3.org/2000/svg" xmlns:xlink="http://www.w3.org/1999/xlink" version="1.1" viewBox="-10 0 867 1000">
   <path fill="currentColor"
d="M803 454q18 19 16 45l-25 308q-2 23 -19 39t-40 16q-3 0 -5 -1q-25 -2 -40 -20t-15 -44l20 -239l-80 4q31 64 31 134q0 121 -83 208l-76 -76q50 -57 50 -132q0 -81 -57 -138t-138 -57q-75 0 -132 51l-76 -77q67 -64 158 -79l148 -167l-83 -49l-101 90q-19 17 -43 15
t-41 -19t-15 -43t19 -41l134 -119q14 -13 33 -15t36 8l272 158q20 12 27 38q10 38 -14 65l-115 130l207 -11q28 -2 47 18zM692 199q-41 0 -70 -29t-29 -71t29 -70t70 -29t71 29t29 70t-29 71t-71 29zM342 892q59 0 110 -34l77 77q-81 65 -187 65q-82 0 -152 -41t-111 -110
t-41 -153q0 -105 65 -187l77 77q-33 50 -33 110q0 81 57 138t138 58z" />
</svg>
