<?xml version="1.0" standalone="no"?>
<!DOCTYPE svg PUBLIC "-//W3C//DTD SVG 1.1//EN" "http://www.w3.org/Graphics/SVG/1.1/DTD/svg11.dtd" >
<svg xmlns="http://www.w3.org/2000/svg" xmlns:xlink="http://www.w3.org/1999/xlink" version="1.1" viewBox="-10 0 938 1000">
   <path fill="currentColor"
d="M571 662l57 114q-33 100 -117 162t-190 62q-87 0 -161 -43t-117 -117t-43 -161q0 -101 58 -185t154 -117l9 73q-68 30 -109 92t-41 137q0 103 74 176t176 74q71 0 130 -37t92 -98t28 -132zM877 718l32 64l-143 71q-7 4 -16 4q-22 0 -32 -19l-133 -267h-264q-13 0 -23 -9
t-12 -22l-54 -435q-1 -10 4 -24q7 -28 31 -46t54 -17q37 0 64 26t26 63q0 39 -29 66t-67 23l20 161h236v72h-227l9 71h254q23 0 32 19l127 254z" />
</svg>
