<?xml version="1.0" standalone="no"?>
<!DOCTYPE svg PUBLIC "-//W3C//DTD SVG 1.1//EN" "http://www.w3.org/Graphics/SVG/1.1/DTD/svg11.dtd" >
<svg xmlns="http://www.w3.org/2000/svg" xmlns:xlink="http://www.w3.org/1999/xlink" version="1.1" viewBox="-10 0 1152 1000">
   <path fill="currentColor"
d="M571 850q-11 0 -51 -41t-41 -52q0 -18 35 -30t57 -13t58 13t35 30q0 11 -41 52t-52 41zM722 699q-1 0 -22 -14t-57 -28t-72 -14t-71 14t-57 28l-22 14q-10 0 -52 -42t-42 -52q0 -7 5 -13q44 -43 109 -67t130 -25t131 25t109 67q5 6 5 13q0 10 -42 52t-52 42zM874 547
q-6 0 -12 -5q-76 -58 -141 -86t-150 -27q-47 0 -95 12t-83 29t-63 35t-44 30t-18 12q-9 0 -51 -42t-42 -52q0 -7 6 -12q74 -74 178 -115t212 -40t213 40t178 115q6 5 6 12q0 10 -42 52t-52 42zM1026 396q-6 0 -13 -5q-99 -88 -207 -132t-235 -45t-234 45t-207 132
q-7 5 -13 5q-9 0 -51 -42t-43 -52q0 -7 6 -13q104 -104 248 -161t294 -57t295 57t248 161q5 6 5 13q0 10 -42 52t-51 42z" />
</svg>
