<?xml version="1.0" standalone="no"?>
<!DOCTYPE svg PUBLIC "-//W3C//DTD SVG 1.1//EN" "http://www.w3.org/Graphics/SVG/1.1/DTD/svg11.dtd" >
<svg xmlns="http://www.w3.org/2000/svg" xmlns:xlink="http://www.w3.org/1999/xlink" version="1.1" viewBox="-11 0 1307 1000">
   <path fill="currentColor"
d="M834 915l-165 -388l-88 170q-74 143 -111 218h-15q-14 0 -15 -1q-46 -108 -143 -328t-145 -332q-11 -28 -37 -60t-57 -56t-57 -24l-1 -14q-1 -11 0 -15h325v28q-21 1 -44 9t-37 24t-6 36q15 33 121 278t132 302q17 -34 78 -149l73 -138q-11 -22 -71 -157t-75 -165
q-22 -38 -113 -39v-28h287v27q-34 1 -52 14t-7 38q18 39 48 106t48 105q61 -120 97 -203q13 -31 -6 -44t-72 -15q1 -4 1 -14v-14h195q40 0 52 -1v28q-35 1 -67 18t-50 45l-119 247l71 162q63 144 68 153l246 -568q-7 -21 -27 -35t-37 -17l-30 -5v-28l256 3l1 1l-1 24
q-77 2 -112 81q-293 679 -312 721h-27z" />
</svg>
