<?xml version="1.0" standalone="no"?>
<!DOCTYPE svg PUBLIC "-//W3C//DTD SVG 1.1//EN" "http://www.w3.org/Graphics/SVG/1.1/DTD/svg11.dtd" >
<svg xmlns="http://www.w3.org/2000/svg" xmlns:xlink="http://www.w3.org/1999/xlink" version="1.1" viewBox="-10 0 1126 1000">
   <path fill="currentColor"
d="M0 173v-21l2 -2h249l2 2v20q0 8 -10 8l-26 1q-33 1 -33 20q0 13 7 28q50 122 222 484l6 1l111 -221q-13 -30 -22 -49l-96 -190q-26 -51 -34 -61t-33 -13q-14 -2 -14 -7v-21l3 -2h197l5 1v21q0 8 -10 8l-15 2q-13 2 -19 5t-5 12t4 17t14 31l73 150l81 -162q16 -32 5 -43
q-6 -8 -37 -11l-9 -1q-4 0 -7 -2t-3 -7v-19l3 -2q57 -1 186 0l2 2v20q0 8 -9 8q-22 1 -30 4t-17 16q-23 34 -30 48l-105 196l-3 7l128 262l8 3l202 -481q12 -28 -3 -41q-13 -12 -39 -13l-19 -1q-3 0 -6.5 -2.5t-3.5 -6.5v-20l3 -2h229l2 2v20q0 7 -9 9q-46 2 -66 18.5
t-34 49.5l-250 567q-10 23 -22 30t-24 -1t-23 -30q-38 -75 -122 -263q-105 216 -131 264q-41 71 -71 1q-32 -75 -130 -285t-130 -286q-16 -42 -27.5 -52t-52.5 -13q-14 -2 -14 -7z" />
</svg>
