<?xml version="1.0" standalone="no"?>
<!DOCTYPE svg PUBLIC "-//W3C//DTD SVG 1.1//EN" "http://www.w3.org/Graphics/SVG/1.1/DTD/svg11.dtd" >
<svg xmlns="http://www.w3.org/2000/svg" xmlns:xlink="http://www.w3.org/1999/xlink" version="1.1" viewBox="-10 0 1020 1000">
   <path fill="currentColor"
d="M0 532q0 -12 9 -21t22 -9h250q14 0 23 9t8 21q0 14 -9 23t-22 10h-250q-13 0 -22 -10t-9 -23zM0 408q0 -13 9 -22t22 -9h125q14 0 23 9t8.5 22t-9.5 22t-22 10h-125q-13 0 -22 -10t-9 -22zM63 283q0 -13 8 -22t23 -9h125q13 0 22 9t9 22t-9 22t-22 10h-125q-13 0 -22 -10
t-9 -22zM271 332q0 -77 54 -133t132 -60q74 -76 178 -76t179 76q78 4 132 60t53 133q0 82 -56 139t-139 57q-17 0 -33 -2q-62 39 -136 39t-135 -39q-16 2 -35 2q-80 0 -137 -57t-57 -139zM334 332q0 55 38 94t93 39q26 0 46 -8q56 45 124 45t122 -45q23 8 47 8q55 0 94 -39
t39 -94t-39 -92t-94 -38h-17q-57 -77 -152 -77t-151 77h-19q-55 0 -93 38t-38 92zM437 750q0 -35 63 -125l15 24q18 26 32 54q15 32 15 47q0 25 -18 44t-44 19t-44 -19t-19 -44zM687 875q0 -35 63 -125l15 24q18 26 31 54q16 32 16 47q0 25 -18 44t-44 19t-44 -19t-19 -44z
" />
</svg>
