<?xml version="1.0" standalone="no"?>
<!DOCTYPE svg PUBLIC "-//W3C//DTD SVG 1.1//EN" "http://www.w3.org/Graphics/SVG/1.1/DTD/svg11.dtd" >
<svg xmlns="http://www.w3.org/2000/svg" xmlns:xlink="http://www.w3.org/1999/xlink" version="1.1" viewBox="-10 0 1253 1000">
   <path fill="currentColor"
d="M0 893l105 -371q35 -20 86 -31t83 -13l34 -1q50 0 104 10q101 20 144 61l-104 370q-36 -28 -79 -45t-69 -21l-26 -4q-34 -3 -65 -3q-16 0 -42 1t-84 14t-87 33zM126 416l105 -371q35 -20 86 -32t84 -12l33 -1q51 0 104 10q101 20 144 61l-104 371q-36 -28 -79 -46
t-69 -20l-26 -4q-35 -3 -64 -3q-16 0 -42 1t-84 13t-88 33zM557 929l104 -371q37 28 81 45t68 21l25 4q34 3 65 3q16 0 43 -2t84 -13t86 -32l-104 371q-35 20 -86 31t-84 12l-33 2q-51 0 -104 -10q-101 -20 -145 -61zM677 454l104 -370q37 28 81 45t68 21l25 4q34 3 65 3
q16 0 43 -2t83 -13t87 -32l-104 370q-35 20 -86 31t-85 13l-33 2q-52 0 -103 -11q-101 -19 -145 -61z" />
</svg>
