<?xml version="1.0" standalone="no"?>
<!DOCTYPE svg PUBLIC "-//W3C//DTD SVG 1.1//EN" "http://www.w3.org/Graphics/SVG/1.1/DTD/svg11.dtd" >
<svg xmlns="http://www.w3.org/2000/svg" xmlns:xlink="http://www.w3.org/1999/xlink" version="1.1" viewBox="-11 0 1165 1000">
   <path fill="currentColor"
d="M143 857h428v-286h-428v286zM714 571h286v-428h-429v143h54q37 0 63 26t26 63v196zM1143 89v536q0 37 -26 63t-63 26h-340v197q0 37 -26 63t-63 26h-536q-36 0 -63 -26t-26 -63v-536q0 -37 26 -63t63 -26h340v-197q0 -37 26 -63t63 -26h536q36 0 63 26t26 63z" />
</svg>
