<?xml version="1.0" standalone="no"?>
<!DOCTYPE svg PUBLIC "-//W3C//DTD SVG 1.1//EN" "http://www.w3.org/Graphics/SVG/1.1/DTD/svg11.dtd" >
<svg xmlns="http://www.w3.org/2000/svg" xmlns:xlink="http://www.w3.org/1999/xlink" version="1.1" viewBox="-11 0 1022 1000">
   <path fill="currentColor"
d="M71 500q0 -91 37 -175l205 561q-109 -53 -176 -157t-66 -229zM790 478q0 11 -2 22l-5 27q-3 16 -7 25t-9 33t-10 32l-43 143l-155 -461l49 -4q11 -2 15 -11t-2 -17t-15 -8l-115 6q-42 -1 -113 -6q-6 0 -11 3t-6 9t-1 10t5 9t11 5l44 4l67 183l-94 281l-156 -464l49 -4
q11 -2 15 -11t-2 -17t-15 -8l-115 6h-13q-9 0 -14 -1q58 -89 153 -141t205 -52q82 0 157 29t133 84h-6q-31 0 -51 22t-21 53q0 7 1 14l2 12q1 5 5 13t5 11t7 13l23 38q35 60 35 118zM507 537l133 361q0 4 2 7q-70 24 -142 24q-62 0 -121 -18zM876 294q53 97 53 206
q0 117 -58 215t-156 156l132 -379q33 -94 33 -154q0 -23 -4 -44zM500 0q102 0 194 40t160 106t106 160t40 194t-40 194t-106 160t-160 106t-194 40t-194 -40t-160 -106t-106 -160t-40 -194t40 -194t106 -160t160 -106t194 -40zM500 977q97 0 185 -38t152 -102t102 -152
t38 -185t-38 -185t-102 -152t-152 -102t-185 -38t-185 38t-152 102t-102 152t-38 185t38 185t102 152t152 102t185 38z" />
</svg>
