<?xml version="1.0" standalone="no"?>
<!DOCTYPE svg PUBLIC "-//W3C//DTD SVG 1.1//EN" "http://www.w3.org/Graphics/SVG/1.1/DTD/svg11.dtd" >
<svg xmlns="http://www.w3.org/2000/svg" xmlns:xlink="http://www.w3.org/1999/xlink" version="1.1" viewBox="-10 0 1020 1000">
   <path fill="currentColor"
d="M0 500q0 -136 67 -251t182 -182t251 -67t251 67t182 182t67 251t-67 251t-182 182t-251 67t-251 -67t-182 -182t-67 -251zM39 500q0 135 72 247t188 168l-220 -603q-40 89 -40 188zM114 247h30q48 0 123 -6q12 -1 18 8t1 19t-16 11l-53 5l168 499l101 -302l-72 -197
q-24 -3 -48 -5q-12 -1 -16 -11t2 -19t17 -8l121 6q49 0 123 -6q12 -1 18 8t1 19t-16 11l-52 5l166 496l46 -154q36 -117 36 -149q0 -64 -39 -128l-12 -21q-10 -18 -14 -24t-9 -19t-8 -23t-2 -21q0 -33 23 -58t55 -24h3q2 0 3 1q-131 -121 -312 -121q-119 0 -221 56t-165 152
zM370 943q62 18 130 18q80 0 153 -26l-3 -6l-142 -389zM732 899q105 -61 167 -168t62 -231q0 -120 -56 -221q3 21 3 47q0 63 -35 165z" />
</svg>
