<?xml version="1.0" standalone="no"?>
<!DOCTYPE svg PUBLIC "-//W3C//DTD SVG 1.1//EN" "http://www.w3.org/Graphics/SVG/1.1/DTD/svg11.dtd" >
<svg xmlns="http://www.w3.org/2000/svg" xmlns:xlink="http://www.w3.org/1999/xlink" version="1.1" viewBox="-11 0 1017 1000">
   <path fill="currentColor"
d="M502 0q-97 0 -188 36.5t-162 103.5q-73 69 -115 160h238v26q-34 -4 -49 5q-13 8 -14 27q0 13 7 38l156 391l115 -269l-53 -126l-12 -25q-7 -15 -15 -23q-10 -11 -25 -15q-18 -6 -46 -5l1 -24l349 1v27q2 0 -25 0q-14 1 -23 3q-11 2 -17 9.5t-6 22t7 38.5l141 371l77 -216
q18 -62 7 -134q-8 -52 -35 -130q-14 -47 -1 -76q14 -35 67 -48q-83 -85 -183 -128q-95 -40 -196 -40zM977 342l-227 590q14 -12 48 -37q31 -22 49 -39q28 -25 52 -57q29 -38 56 -91q37 -87 40 -182q3 -80 -18 -184zM13 352q-12 93 -13 141q-1 56 10 106q10 47 38 120
q26 49 51 84q23 32 49 56q21 20 50 41l55 37zM511 573l-168 404q173 50 320 -8z" />
</svg>
