<?xml version="1.0" standalone="no"?>
<!DOCTYPE svg PUBLIC "-//W3C//DTD SVG 1.1//EN" "http://www.w3.org/Graphics/SVG/1.1/DTD/svg11.dtd" >
<svg xmlns="http://www.w3.org/2000/svg" xmlns:xlink="http://www.w3.org/1999/xlink" version="1.1" viewBox="-10 0 1020 1000">
   <path fill="currentColor"
d="M0 500q4 -209 151 -354t349 -146q207 4 353 151t147 349q-4 207 -151 353t-349 147q-209 -4 -353 -151t-147 -349zM35 500q2 193 140 328t325 137q193 -4 328 -141t137 -324q-4 -193 -141 -328t-324 -137q-193 4 -329 141t-136 324zM76 530q-8 -108 33 -200l205 553
q-109 -55 -173 -155q-57 -89 -65 -198zM145 266q62 -90 157 -140t198 -52q168 4 287 111q-47 -1 -70 40l-6 39q-2 14 7 35l14 33q5 12 18 31l18 30q33 62 7 144l-62 219l-154 -459l46 -4q12 -4 15 -14t-7 -15q-6 -6 -11 -6l-94 8h-70q-4 0 -27 -4t-37 -2t-17 13q-3 16 14 20
l47 6l68 179l-93 278l-157 -459q43 -4 49 -4q18 -2 16 -20q-4 -15 -20 -15q-70 10 -136 8zM379 908l129 -367l133 359q-131 45 -262 8zM713 869q6 -19 21 -62l120 -346q15 -49 23 -111q2 -28 -2 -49q76 162 33 312q-51 172 -195 256z" />
</svg>
