<?xml version="1.0" standalone="no"?>
<!DOCTYPE svg PUBLIC "-//W3C//DTD SVG 1.1//EN" "http://www.w3.org/Graphics/SVG/1.1/DTD/svg11.dtd" >
<svg xmlns="http://www.w3.org/2000/svg" xmlns:xlink="http://www.w3.org/1999/xlink" version="1.1" viewBox="-11 0 1011 1000">
   <path fill="currentColor"
d="M209 735q0 -53 52 -53t52 52t-52 52t-52 -51zM314 364q0 -3 -1 -10t0 -10q0 -140 98 -239q100 -100 240 -100q109 0 200 66q15 15 15 36t-15 37q15 -15 37 -15t36 15q66 91 66 200q0 140 -100 240q-99 98 -239 98h-10q-7 0 -10 -1q-137 180 -172 222q-76 92 -199 92
q-107 0 -184 -76t-76 -184q0 -118 93 -199q107 -91 221 -172zM104 735q0 64 46 110t110 46q73 0 119 -56q51 -59 120 -151q65 -87 90 -115q36 10 62 10q97 0 165 -70t69 -165q0 -28 -10 -65l-146 143l-130 -26l-26 -130l148 -145q-37 -11 -70 -11q-96 0 -165 69t-70 165
q0 26 10 62q-33 28 -116 90q-75 56 -150 119q-56 49 -56 120zM854 227q-29 -50 -83 -82l-141 139l14 67l69 15z" />
</svg>
