<?xml version="1.0" standalone="no"?>
<!DOCTYPE svg PUBLIC "-//W3C//DTD SVG 1.1//EN" "http://www.w3.org/Graphics/SVG/1.1/DTD/svg11.dtd" >
<svg xmlns="http://www.w3.org/2000/svg" xmlns:xlink="http://www.w3.org/1999/xlink" version="1.1" viewBox="-10 0 982 1000">
   <path fill="currentColor"
d="M951 389q11 10 11 24.5t-11 25.5l-67 68q-10 10 -24.5 10t-25.5 -10l-15 -16q-8 -7 -11.5 -19t1.5 -18q9 -6 5 -20.5t-19 -29.5q-21 -23 -48 -27q-24 -3 -36 10q-4 3 -15 15l-11 12l-92 -92l15 -15l11 -12q13 -13 13 -29q-1 -11 -7 -23l-7 -9q-28 -28 -65 -46
q-30 -15 -63 -24q-24 -6 -48 -8l-19 -1l-2 -29q80 -21 146 -18q56 2 101 20q35 14 64 38q12 9 36 33l66 66q5 5 7 17q1 5 2 23q1 16 3 26q4 14 12 22.5t18 12.5t19 4q10 -8 22.5 -6.5t20.5 10.5zM545 557l220 198q23 23 22.5 56t-24.5 57t-57 24t-56 -25l-201 -212l-188 226
q-13 14 -33 14t-34 -14l-49 -50q-14 -13 -14 -33.5t14 -33.5l215 -200l-104 -100q-25 -25 -42.5 -33t-38.5 -1q-22 8 -48 6q-29 -3 -55 -20t-43 -44q-14 -21 -22 -47q-5 -18 -7 -38v-15l6 -10l79 50q14 12 34 10q28 -2 51 -37q16 -24 17 -47q1 -17 -8 -32q-6 -11 -13 -15
l-78 -51l6 -10l14 -6q17 -6 36 -9q26 -4 50 -1q31 5 57 20q0 1 11 8l16 12q33 29 41 67q6 29 -1 65q-6 26 1 42q5 13 27 38l104 104l124 -126l90 92zM736 841q13 -11 13 -29.5t-13 -30.5t-29.5 -12t-30.5 12q-11 12 -11 30t11 29q14 12 31 13t29 -12z" />
</svg>
