<?xml version="1.0" standalone="no"?>
<!DOCTYPE svg PUBLIC "-//W3C//DTD SVG 1.1//EN" "http://www.w3.org/Graphics/SVG/1.1/DTD/svg11.dtd" >
<svg xmlns="http://www.w3.org/2000/svg" xmlns:xlink="http://www.w3.org/1999/xlink" version="1.1" viewBox="-10 0 854 1000">
   <path fill="currentColor"
d="M804 253q30 9 30 90q0 108 -77 184t-184 76q-28 0 -53 -5q-31 39 -90 117t-109 136q-55 65 -138 65q-75 0 -129 -53t-54 -128q0 -84 64 -140q59 -50 137 -108t118 -91q-6 -31 -6 -53q0 -107 76 -183t184 -77q38 0 77 13q14 4 18 18t-7 26l-138 135l20 98l100 20l136 -132
q11 -11 25 -8zM183 786q21 0 36 -15t16 -36t-16 -37t-36 -16t-37 16t-16 37t16 36t37 15z" />
</svg>
