<?xml version="1.0" standalone="no"?>
<!DOCTYPE svg PUBLIC "-//W3C//DTD SVG 1.1//EN" "http://www.w3.org/Graphics/SVG/1.1/DTD/svg11.dtd" >
<svg xmlns="http://www.w3.org/2000/svg" xmlns:xlink="http://www.w3.org/1999/xlink" version="1.1" viewBox="-10 0 806 1000">
   <path fill="currentColor"
d="M333 372q-5 10 -143 255q-15 25 -36 25h-134q-12 0 -17 -9t0 -20l141 -250q1 0 0 -1l-90 -156q-7 -12 0 -20q5 -9 17 -9h134q22 0 37 26zM783 14q6 9 0 21l-295 521l188 344q6 11 0.5 20t-17.5 9h-134q-23 0 -37 -25l-189 -348l296 -525q14 -25 36 -25h135q12 0 17 8z
" />
</svg>
