<?xml version="1.0" standalone="no"?>
<!DOCTYPE svg PUBLIC "-//W3C//DTD SVG 1.1//EN" "http://www.w3.org/Graphics/SVG/1.1/DTD/svg11.dtd" >
<svg xmlns="http://www.w3.org/2000/svg" xmlns:xlink="http://www.w3.org/1999/xlink" version="1.1" viewBox="-10 0 1395 1000">
   <path fill="currentColor"
d="M0 209l6 19q4 6 8 10l7 7l19 10h111l287 344q11 12 11 25v192q0 8 -2 12t-6 5h-3q-112 0 -142 3q-10 0 -10 9v55h516v-57q0 -3 -2 -5t-5 -2h-146q-9 0 -9 -15v-202q-1 -3 2 -7l5 -7l3 -3q11 -11 264 -249h133q9 0 18 -7l17 -19q6 -7 6 -18v-14q-1 -3 -3 -5t-3 -1h-438
l-7 6q-1 6 2 12l7 14l23 23l18 7h115l-207 195l-228 -291h41q13 1 22 -4l68 -21q1 0 3 -1t5 -5t2 -9v-14q0 -3 -2 -5t-4 -2h-492q-8 1 -10 7v8zM1190 100l185 7l-83 567l-61 -3zM1203 863l4 -110l110 4l-4 110z" />
</svg>
