<?xml version="1.0" standalone="no"?>
<!DOCTYPE svg PUBLIC "-//W3C//DTD SVG 1.1//EN" "http://www.w3.org/Graphics/SVG/1.1/DTD/svg11.dtd" >
<svg xmlns="http://www.w3.org/2000/svg" xmlns:xlink="http://www.w3.org/1999/xlink" version="1.1" viewBox="-10 0 867 1000">
   <path fill="currentColor"
d="M479 534l8 395q-35 -7 -58.5 -7t-59.5 7l8 -395q-23 -39 -94 -165t-121 -209t-101 -160q32 8 60 8q25 0 62 -8q35 62 75 128l93 154q53 88 77 127l61 -99q40 -65 66 -106t58 -98l60 -106q30 8 60.5 8t62.5 -8l-33 49q-18 27 -28 44l-31 54q-21 37 -28 47
q-81 138 -197 340z" />
</svg>
