<?xml version="1.0" standalone="no"?>
<!DOCTYPE svg PUBLIC "-//W3C//DTD SVG 1.1//EN" "http://www.w3.org/Graphics/SVG/1.1/DTD/svg11.dtd" >
<svg xmlns="http://www.w3.org/2000/svg" xmlns:xlink="http://www.w3.org/1999/xlink" version="1.1" viewBox="-11 0 602 1000">
   <path fill="currentColor"
d="M456 544h-68q-57 0 -102 -23q-50 -24 -77 -72q-31 -53 -31 -129q0 -80 29 -135q26 -50 72 -76q43 -24 95 -24h82v459zM563 0h-185q-93 0 -167 37q-77 39 -121 112q-46 78 -46 184q0 99 53.5 170.5t153.5 107.5l-248 368q-6 9 -1.5 15t14.5 6h115q15 0 19 -9l225 -362h81
v362q0 3 3.5 6t7.5 3h101q13 0 13 -11v-976q0 -13 -18 -13z" />
</svg>
