<?xml version="1.0" standalone="no"?>
<!DOCTYPE svg PUBLIC "-//W3C//DTD SVG 1.1//EN" "http://www.w3.org/Graphics/SVG/1.1/DTD/svg11.dtd" >
<svg xmlns="http://www.w3.org/2000/svg" xmlns:xlink="http://www.w3.org/1999/xlink" version="1.1" viewBox="-10 0 867 1000">
   <path fill="currentColor"
d="M431 736v71q0 163 -3 170q-7 18 -28 22q-31 6 -102 -21t-90 -49q-8 -9 -10 -20q0 -7 2 -15q3 -6 19 -26t101 -121q1 0 34 -39q8 -11 22 -14t27.5 2.5t20.5 16.5t7 23zM348 596q-1 31 -29 39l-67 22q-153 49 -163 49q-19 -1 -30 -20q-6 -14 -9 -42q-5 -42 0 -93t17 -69
t31 -18q8 0 113 43l111 45q13 5 20 17t6 27zM809 762q-4 30 -51 90t-75 70q-21 8 -36 -3q-7 -6 -102 -161l-27 -43q-7 -11 -6 -25t11 -26q19 -24 46 -14q1 0 67 22l135 44q22 7 26 12q16 12 12 34zM434 409q3 57 -29.5 67.5t-64.5 -39.5l-210 -333q-5 -20 10 -35
q23 -24 116 -50t125 -17q23 5 28 25l12 170q11 160 13 212zM804 469q1 22 -15 33q-8 6 -183 48q-38 9 -51 13v-1q-13 3 -25 -2t-21 -18q-17 -26 0 -49q1 0 42 -57l84 -114q14 -19 19 -21q15 -11 36 -1q27 12 68 74t46 94v1z" />
</svg>
