<?xml version="1.0" standalone="no"?>
<!DOCTYPE svg PUBLIC "-//W3C//DTD SVG 1.1//EN" "http://www.w3.org/Graphics/SVG/1.1/DTD/svg11.dtd" >
<svg xmlns="http://www.w3.org/2000/svg" xmlns:xlink="http://www.w3.org/1999/xlink" version="1.1" viewBox="-10 0 761 1000">
   <path fill="currentColor"
d="M0 588v13q0 43 6 69q5 18 19 26t29 2l204 -63q22 -7 31 -26q5 -10 5 -20t-5 -19q-9 -19 -32 -26l-204 -82q-14 -3 -27 8t-17 30q-8 36 -9 88zM87 111q-5 -8 -5 -16.5t6 -17.5q12 -17 38 -27q81 -31 171 -46h5q45 0 49 38q25 313 25 393q0 33 -27 40q-6 2 -12 2
q-21 0 -37 -25q-148 -232 -213 -341zM156 877l139 -167q19 -21 38 -21q8 0 16 3q25 11 25 45q0 5 -1 10v222q-2 14 -17 22q-9 5 -17.5 5t-16.5 -3q-36 -6 -85 -26t-73 -37q-18 -14 -18 -30q0 -11 10 -23zM450 539q-6 -12 -6 -23q0 -17 15 -33l130 -179q7 -8 20 -8q3 0 7 1
q17 2 29 18q25 26 53 71t37 73q3 8 3 16t-4 15q-8 13 -23 16l-209 53q-8 2 -16 2q-23 0 -36 -22zM462 664q-9 12 -9 24q0 16 13 32l114 191q7 9 24 9h3q19 -1 33 -15q27 -24 56 -63t41 -70q4 -11 4 -21q0 -7 -3 -13q-5 -14 -19 -19l-205 -70q-10 -4 -19 -4q-21 0 -33 19z
" />
</svg>
