<?xml version="1.0" standalone="no"?>
<!DOCTYPE svg PUBLIC "-//W3C//DTD SVG 1.1//EN" "http://www.w3.org/Graphics/SVG/1.1/DTD/svg11.dtd" >
<svg xmlns="http://www.w3.org/2000/svg" xmlns:xlink="http://www.w3.org/1999/xlink" version="1.1" viewBox="-10 0 593 1000">
   <path fill="currentColor"
d="M337 857h-96q-8 0 -13 -5t-5 -13v-184h-161q-7 0 -13 -5t-5 -13v-57q0 -8 5 -13t13 -5h161v-48h-161q-7 0 -13 -5t-5 -12v-58q0 -8 5 -13t13 -5h119l-179 -323q-4 -9 1 -18t15 -9h108q11 0 16 10l120 238q11 21 32 69q5 -13 17 -38t15 -34l107 -234q4 -11 16 -11h106
q10 0 15 8.5t1 18.5l-175 323h120q7 0 13 5t5 13v58q0 7 -5 12t-13 5h-162v48h162q7 0 13 5t5 13v57q0 8 -5 13t-13 5h-162v184q0 7 -5 13t-12 5z" />
</svg>
