<?xml version="1.0" standalone="no"?>
<!DOCTYPE svg PUBLIC "-//W3C//DTD SVG 1.1//EN" "http://www.w3.org/Graphics/SVG/1.1/DTD/svg11.dtd" >
<svg xmlns="http://www.w3.org/2000/svg" xmlns:xlink="http://www.w3.org/1999/xlink" version="1.1" viewBox="-11 0 1022 1000">
   <path fill="currentColor"
d="M450 140q-25 0 -44 13q-13 9 -25 32q-9 15 -21 46q-14 38 -19 48l-20 48q-13 28 -21 45q-10 23 -20 39q-18 -21 -40 -60l-37 -74q-23 -45 -40 -71q-23 -35 -46 -53q-16 -13 -45.5 -12.5t-46 13t-22 28.5t-2.5 36q3 16 12 36q7 14 19 34q32 54 17 28q144 249 80 137
q45 80 73 132q-5 13 -27.5 59t-32.5 74q-17 43 -18 72q-2 36 20 53q24 20 78 17q17 -11 31 -28q12 -15 23 -37q9 -16 20 -42q21 -51 18 -43l150 -336q4 -9 29 -56q20 -39 29 -64q11 -35 6.5 -59t-27.5 -39.5t-51 -15.5zM916 186q-22 0 -40.5 10t-27.5 28q-30 35 -65 65
q-16 21 -37 37l-23 26q-14 15 -28 22v-133q0 -26 -22 -41q-19 -13 -46.5 -13t-46.5 13q-21 15 -21 41v378q5 22 15 34q12 14 32 16h41q42 -6 48 -50v-82v-23q-1 -15 0 -22q1 -10 4 -11.5t9 8.5q15 14 48 43q38 31 54 46q10 9 34 35q21 23 34 34q18 15 34 19q35 8 59 -9
q22 -15 28 -42.5t-8 -53.5q-10 -18 -30 -37q-14 -14 -41 -34q-34 -25 -42 -32q-22 -18 -34 -33q6 -15 25 -31q10 -8 39 -30q27 -20 40 -33q21 -19 31 -39q11 -24 8 -51t-23.5 -41.5t-47.5 -13.5z" />
</svg>
