<?xml version="1.0" standalone="no"?>
<!DOCTYPE svg PUBLIC "-//W3C//DTD SVG 1.1//EN" "http://www.w3.org/Graphics/SVG/1.1/DTD/svg11.dtd" >
<svg xmlns="http://www.w3.org/2000/svg" xmlns:xlink="http://www.w3.org/1999/xlink" version="1.1" viewBox="-10 0 883 1000">
   <path fill="currentColor"
d="M0 727q0 -54 6 -162q4 -53 38 -87t87 -36q100 -5 301 -5t301 5q53 3 87 36t38 87q5 90 5 162t-5 162q-4 53 -38 87t-87 36q-100 5 -301 5t-301 -5q-53 -3 -87 -36t-38 -87q-6 -108 -6 -162zM67 586h61v326h59v-326h61v-55h-181v55zM132 -17h60l38 152h4l36 -152h60
l-46 148q-23 73 -23 75v158h-59v-151q-2 -14 -5 -26t-9 -26t-9 -25zM248 868q0 48 36 48q32 0 61 -35v31h52v-281h-52v214q-21 21 -31 21q-14 0 -14 -19v-216h-52v237zM327 293v-146q0 -34 22 -53t55.5 -18.5t54.5 20.5t20 53v145q0 36 -20 56t-55.5 20.5t-55.5 -21.5
t-21 -56zM381 300q0 23 22.5 23t22.5 -25v-153q0 -9 -7 -15t-16 -6t-15 5t-7 15v156zM448 912h53v-21q20 25 50 25q47 0 47 -62v-156q0 -71 -51 -71q-25 0 -46 27v-123h-53v381zM501 859v-176q11 -11 22 -11q22 0 22 28v148q0 24 -19 24q-14 0 -25 -13zM524 320v-237h52v215
q0 19 13.5 19t31.5 -21v-213h52v281h-52v-31q-29 35 -61 35q-36 0 -36 -48zM638 833q0 38 19 63t57 24q78 0 78 -87v-21h-54l1 13q1 11 -1 17t-2 14t-7 12t-14 3q-23 0 -23 -40v-53h100v-72q0 -38 -18 -60t-57 -22q-36 0 -57 23t-22 59v127zM692 734v-30q0 -31 23 -31t23 31
v30h-46z" />
</svg>
