<?xml version="1.0" standalone="no"?>
<!DOCTYPE svg PUBLIC "-//W3C//DTD SVG 1.1//EN" "http://www.w3.org/Graphics/SVG/1.1/DTD/svg11.dtd" >
<svg xmlns="http://www.w3.org/2000/svg" xmlns:xlink="http://www.w3.org/1999/xlink" version="1.1" viewBox="-10 0 877 1000">
   <path fill="currentColor"
d="M513 727v-88q0 -27 -16 -27q-10 0 -19 8v125q9 9 19 9q16 0 16 -27zM616 659h36v-19q0 -28 -18 -28t-18 28v19zM297 511v39h-45v236h-41v-236h-44v-39h130zM409 581v205h-37v-23q-22 25 -43 25q-18 0 -23 -15q-3 -10 -3 -30v-162h36v151q0 13 1 14q0 8 8 8q11 0 24 -17
v-156h37zM550 643v81q0 29 -4 41q-7 23 -30 23q-19 0 -38 -22v20h-37v-275h37v89q18 -22 38 -22q23 0 30 24q4 11 4 41zM690 715v5q0 16 -1 24q-2 12 -9 22q-15 22 -44 22t-46 -21q-11 -15 -11 -48v-72q0 -33 11 -48q16 -21 45 -21t43 21q12 16 12 48v43h-74v36q0 28 19 28
q13 0 16 -14l1 -4q1 -3 0 -9v-12h38zM438 255v87q0 28 -18 28t-18 -28v-87q0 -29 18 -29t18 29zM736 653q0 -99 -11 -145q-6 -25 -24 -41t-42 -20q-76 -8 -230 -8t-230 8q-24 3 -42 20t-24 41q-11 48 -11 145.5t11 144.5q5 24 24 41t42 19q76 9 230 9t230 -9q24 -2 42 -19
t23 -41q12 -47 12 -145zM314 290l50 -166h-41l-29 109l-29 -109h-44q4 13 13 39l13 38q20 58 26 89v112h41v-112zM475 335v-73q0 -32 -11 -48q-16 -22 -44 -22t-43 22q-12 16 -12 48v73q0 32 12 48q15 22 43 22t44 -22q11 -15 11 -48zM577 402h37v-207h-37v158
q-13 17 -24 17q-8 0 -9 -8v-167h-38v164q0 20 4 30q6 16 25 16t42 -26v23zM857 232v536q0 66 -47 113t-114 48h-535q-67 0 -114 -48t-47 -113v-536q0 -66 47 -113t114 -48h535q67 0 114 48t47 113z" />
</svg>
