<?xml version="1.0" standalone="no"?>
<!DOCTYPE svg PUBLIC "-//W3C//DTD SVG 1.1//EN" "http://www.w3.org/Graphics/SVG/1.1/DTD/svg11.dtd" >
<svg xmlns="http://www.w3.org/2000/svg" xmlns:xlink="http://www.w3.org/1999/xlink" version="1.1" viewBox="-10 0 867 1000">
   <path fill="currentColor"
d="M542 694v118q0 37 -22 37q-13 0 -25 -12v-168q12 -12 25 -12q22 0 22 37zM731 695v25h-51v-25q0 -38 25 -38t26 38zM191 573h60v-52h-174v52h59v318h55v-318zM352 891h50v-276h-50v211q-17 23 -32 23q-10 0 -11 -11q-1 -2 -1 -20v-203h-50v218q0 28 5 41q7 21 33 21
t56 -34v30zM592 808v-110q0 -41 -5 -55q-10 -31 -39 -31t-53 30v-121h-50v370h50v-27q25 31 52 31q30 0 40 -31q5 -15 5 -56zM780 802v-7h-51q0 29 -1 34q-4 20 -22 20q-26 0 -26 -38v-49h100v-57q0 -44 -15 -65q-22 -28 -59.5 -28t-59.5 28q-15 21 -15 65v96q0 44 16 65
q22 29 61 29t59 -30q10 -15 12 -30q1 -5 1 -33zM441 293v-117q0 -39 -24 -39t-24 39v117q0 39 24 39t24 -39zM842 712q0 131 -14 195q-8 33 -33 56t-57 25q-102 12 -309 12t-310 -12q-32 -3 -57 -25t-32 -56q-15 -62 -15 -194t15 -196q7 -33 32 -56t57 -26q103 -11 310 -11
t309 11q33 4 58 26t32 56q14 62 14 195zM285 0h57l-67 223v151h-56v-151q-8 -42 -34 -119q-21 -57 -37 -104h60l39 147zM492 186v97q0 46 -16 66q-21 29 -58.5 29t-59.5 -29q-15 -21 -15 -66v-97q0 -45 15 -66q22 -28 59.5 -28t58.5 28q16 21 16 66zM679 95v279h-51v-31
q-30 35 -58 35q-25 0 -33 -21q-4 -13 -4 -42v-220h51v225q2 12 12 12q15 0 32 -24v-213h51z" />
</svg>
