<?xml version="1.0" standalone="no"?>
<!DOCTYPE svg PUBLIC "-//W3C//DTD SVG 1.1//EN" "http://www.w3.org/Graphics/SVG/1.1/DTD/svg11.dtd" >
<svg xmlns="http://www.w3.org/2000/svg" xmlns:xlink="http://www.w3.org/1999/xlink" version="1.1" viewBox="-10 0 1010 1000">
   <path fill="currentColor"
d="M807 111v313h-64v-35q-37 39 -74 39q-45 0 -45 -56v-261h64v240q0 21 17 21t38 -24v-237h64zM570 184v162q0 42 -25 64t-67 22t-67 -24t-26 -63v-162q0 -39 28 -60t66.5 -20.5t64.5 22.5t26 59zM505 351v-171q0 -10 -9 -17t-19 -6t-18 6t-8 17v171q0 26 27 26t27 -26z
M315 0h73l-55 165q-4 12 -10 27t-10 28l-8 28v176h-72v-168q-2 -12 -29 -85l-57 -171h73l46 169h5zM926 739q0 49 -6 145q-4 50 -38 80t-85 31q-99 5 -297.5 5t-296.5 -5q-50 -2 -84 -31t-39 -80q-6 -96 -6 -145t6 -145q4 -50 39 -80t84 -31q98 -5 297 -5t297 5q50 2 85 31
t38 80q6 96 6 145zM855 830v-19h-53l1 13q1 11 0 15l-3 12q-2 8 -7 10t-14.5 2.5t-14.5 -5.5t-6 -12t-1 -17v-48h98v-64q0 -35 -19 -55t-53.5 -20t-56.5 20t-23 55v113q0 36 20 58t55 21q77 0 77 -79zM664 849v-140q0 -63 -50 -63q-25 0 -46 23v-110h-52v343h52v-20
q22 23 49 23q47 0 47 -56zM414 902h51v-253h-51v192q-17 19 -30.5 19t-13.5 -17v-194h-52v213q0 44 36 44q30 0 60 -32v28zM258 609h61v-50h-179v50h60v293h58v-293zM802 714v28h-45v-28q0 -27 22.5 -27t22.5 27zM611 711v133q0 21 -18 21q-14 0 -25 -11v-158q10 -10 22 -10
q21 0 21 25z" />
</svg>
