<?xml version="1.0" standalone="no"?>
<!DOCTYPE svg PUBLIC "-//W3C//DTD SVG 1.1//EN" "http://www.w3.org/Graphics/SVG/1.1/DTD/svg11.dtd" >
<svg xmlns="http://www.w3.org/2000/svg" xmlns:xlink="http://www.w3.org/1999/xlink" version="1.1" viewBox="-11 0 1022 1000">
   <path fill="currentColor"
d="M397 629l270 -139l-270 -141v280zM500 148q94 0 181 3t128 5l41 2l9 1q9 1 13 2t13 2t16 5t16 7t17 11t16 15q4 3 9 10t16 33t15 56q4 36 7 76t3 64v98q1 81 -10 162q-4 30 -14 55t-18 35l-8 9q-7 8 -16 15t-17 10t-16 7t-16 5l-35 5q-140 11 -350 11l-201 -4
q-86 -2 -111 -4l-48 -5q-20 -3 -30 -5t-29 -12t-31 -23q-4 -3 -9 -10t-16 -33t-15 -56q-4 -36 -7 -76t-3 -64v-98q-1 -81 10 -162q4 -31 14 -55t18 -35l8 -9q8 -9 16 -15t17 -11t16 -7l16 -5q9 -3 13 -2t13 -2t9 -1q140 -10 350 -10z" />
</svg>
