<?xml version="1.0" standalone="no"?>
<!DOCTYPE svg PUBLIC "-//W3C//DTD SVG 1.1//EN" "http://www.w3.org/Graphics/SVG/1.1/DTD/svg11.dtd" >
<svg xmlns="http://www.w3.org/2000/svg" xmlns:xlink="http://www.w3.org/1999/xlink" version="1.1" viewBox="-99 0 809 1000">
   <path fill="currentColor"
d="M0 584q-58 -58 -79 -137q-20 -76 0 -153q21 -79 79 -137t137 -78q76 -20 153 0q78 20 136 78q54 54 74 132q19 73 3 148t-62 129l114 40l129 130q17 22 15 50t-22.5 48.5t-48 22t-49.5 -14.5l-130 -130l-40 -112q-55 46 -130 61.5t-148 -3.5q-77 -20 -131 -74zM369 527
q43 -42 58 -99.5t0 -114.5t-57.5 -99.5t-99.5 -58t-114.5 0t-100 58t-57.5 99.5t0 114.5t57.5 100t100 57.5t114.5 0t99 -58zM79 320h266v95h-266v-95z" />
</svg>
