<?xml version="1.0" standalone="no"?>
<!DOCTYPE svg PUBLIC "-//W3C//DTD SVG 1.1//EN" "http://www.w3.org/Graphics/SVG/1.1/DTD/svg11.dtd" >
<svg xmlns="http://www.w3.org/2000/svg" xmlns:xlink="http://www.w3.org/1999/xlink" version="1.1" viewBox="-11 0 1067 1000">
   <path fill="currentColor"
d="M11 474q-24 -91 0 -181t92 -158q51 -51 115 -77t133.5 -26t134.5 26t115 77q54 53 80 124t23 143t-38 139q31 10 52 31l181 182q38 37 38 89t-38 89t-89 37t-88 -37l-182 -182q-23 -22 -31 -52q-76 37 -157 37q-69 0 -134 -26t-115 -77q-68 -68 -92 -158zM118 383
q0 98 68 166q34 33 76 51t90 18t90 -18t75.5 -51t51.5 -76t18 -89q0 -98 -69 -167q-33 -32 -76 -50t-90 -18q-97 0 -166 68t-68 166zM742 183q0 -12 9 -21t21 -8h244q12 0 21 8t9 21t-9 21t-21 8h-244q-12 0 -21 -8.5t-9 -20.5z" />
</svg>
