<svg width="105" height="105" viewBox="0 0 105 105" fill="none" xmlns="http://www.w3.org/2000/svg">
<path d="M86.3352 20.8462C86.3514 20.8374 86.3644 20.8237 86.3724 20.807C86.3804 20.7904 86.3829 20.7716 86.3797 20.7534C86.3765 20.7353 86.3676 20.7186 86.3543 20.7057C86.3411 20.6929 86.3241 20.6845 86.3059 20.6818L84.9668 20.3881C84.8633 20.1738 84.7287 19.9759 84.5674 19.8008C84.4402 19.6643 84.2984 19.5422 84.1446 19.4367C84.0858 19.3897 84.0271 19.3545 83.9742 19.3192L83.9096 19.2781C83.8022 19.2151 83.6903 19.1601 83.5749 19.1137C83.1987 18.9782 82.7932 18.9458 82.4002 19.0197C83.4339 14.9613 81.4312 10.6211 81.4312 10.6211L76.3509 19.6129L67.7585 13.0408C67.4169 14.3827 67.3037 15.7725 67.4237 17.152V17.3752C67.6026 19.3093 68.4186 21.1292 69.7436 22.5494C69.7436 22.5494 69.8728 22.6787 70.0901 22.8783C70.3832 23.1483 70.6931 23.3994 71.0181 23.6301C71.4849 23.987 71.989 24.2923 72.5216 24.5404C71.8403 25.0455 71.347 25.4508 71.0474 25.6681L70.1312 26.3552L68.3693 27.7061L65.8027 29.6442C65.8027 29.6442 67.1066 29.8791 67.7291 29.3447C67.7291 29.3447 66.9304 30.1963 67.1418 31.0244L69.5909 29.0451L72.2632 26.8897C72.794 27.261 73.3537 27.5889 73.937 27.8705C74.0897 27.9488 74.2424 28.0193 74.3951 28.0819H74.4539C74.7534 28.2053 75.0412 28.311 75.329 28.3991H75.3818C75.6579 28.481 75.9383 28.5476 76.2217 28.5988H76.2687C76.5323 28.6493 76.7993 28.6807 77.0674 28.6927H77.1144C77.3648 28.7075 77.6158 28.7075 77.8662 28.6927H77.9132C78.1518 28.6763 78.3891 28.6449 78.6238 28.5988H78.6649C78.894 28.5518 79.1171 28.4989 79.3344 28.4343H79.3756C79.5869 28.3667 79.7947 28.2883 79.9981 28.1994H80.0392C80.2467 28.1133 80.4425 28.0193 80.6265 27.9175H80.6677L80.9437 27.7589L81.1962 27.5945H81.2374L81.4899 27.4183L81.7189 27.2421L81.7542 27.2127C81.8364 27.154 81.9128 27.0894 81.9891 27.0248L82.1947 26.8368L82.412 26.6371C82.4825 26.5784 82.5412 26.5138 82.6058 26.4492L82.7996 26.2436L82.9699 26.0498L83.1461 25.8443L83.3987 25.486L83.5572 25.2863C83.892 24.8517 84.1446 24.4641 84.3442 24.1704C84.766 23.5372 85.0446 22.8197 85.1606 22.0678C85.1892 21.9506 85.203 21.8302 85.2017 21.7096C85.2046 21.6744 85.2046 21.639 85.2017 21.6039L86.3352 20.8462Z" fill="#FB8959"/>
<path d="M45.1641 39.887L58.9013 15.3726C58.9013 15.3726 72.3508 44.4563 46.0215 53.8592L45.1641 39.887Z" fill="#A73E27"/>
<path d="M50.709 43.8748L21.9306 21.8623C21.9306 21.8623 15.1648 44.9085 36.2611 53.6184L50.709 43.8748Z" fill="#FB8959"/>
<path d="M49.335 43.2053C49.335 43.2053 36.7782 50.2179 27.2402 47.6572C27.2402 47.6572 31.8272 52.2441 36.2614 53.6184L49.335 43.2053Z" fill="#F86937"/>
<path d="M30.1816 56.5667C30.1816 56.5667 57.016 35.0475 64.7333 38.3599C70.2599 40.7092 70.2365 46.8055 66.8711 52.0032C63.5058 57.201 51.3954 74.4856 30.1816 56.5667Z" fill="#FB8959"/>
<path d="M32.6072 54.7108L16.4443 66.9211C16.4443 66.9211 19.9682 67.5612 21.6597 66.0988C21.6597 66.0988 19.4984 68.4187 20.0974 70.6623L35.8551 57.9234L32.6072 54.7108Z" fill="#FB8959"/>
<path d="M67.9053 41.6254L72.1281 42.5651C72.1757 42.5748 72.2193 42.5984 72.2536 42.6329C72.2878 42.6674 72.3111 42.7113 72.3205 42.7589C72.3299 42.8066 72.3251 42.856 72.3065 42.901C72.2879 42.9459 72.2565 42.9843 72.2162 43.0114L68.9448 45.2315C69.1904 44.5995 69.2217 43.9044 69.0339 43.2529C68.8461 42.6014 68.4496 42.0296 67.9053 41.6254Z" fill="#A73E27"/>
<path d="M69.1271 46.2828C69.1271 46.2828 62.8605 52.156 58.1972 49.3427C56.0418 48.033 55.5719 42.9175 59.4247 42.9939C64.2231 43.0937 64.7105 38.3717 64.7105 38.3717C64.7105 38.3717 70.1256 40.3979 69.1271 46.2828Z" fill="#7E9FFC"/>
<path d="M65.421 43.8924C65.8945 43.8924 66.2784 43.5085 66.2784 43.035C66.2784 42.5614 65.8945 42.1775 65.421 42.1775C64.9474 42.1775 64.5635 42.5614 64.5635 43.035C64.5635 43.5085 64.9474 43.8924 65.421 43.8924Z" fill="#0A0851"/>
<path d="M33.9352 59.4387C33.9352 59.4387 30.4114 56.972 30.1823 56.5668L28.2324 58.0174L33.9352 59.4387Z" fill="#F86937"/>
<path opacity="0.55" d="M67.2704 79.3369L65.8433 78.5147C65.8697 78.3829 65.8697 78.2471 65.8433 78.1153C65.7587 77.8972 65.6315 77.6982 65.4691 77.5298C65.3068 77.3614 65.1125 77.227 64.8977 77.1345C64.1394 76.7726 63.3287 76.5327 62.4956 76.4238C61.6394 76.3081 60.775 76.2629 59.9114 76.2888C62.2607 74.2097 64.5629 71.6901 59.9114 69.9105C56.4286 71.5433 52.1706 73.0233 49.9975 74.9497L48.03 76.277L47.243 76.8115L29.0657 71.5256C29.0657 71.5256 24.0383 77.9861 39.1264 80.6995C37.6581 81.1106 36.5422 81.4395 35.9549 81.6098L24.7959 84.7989C24.7959 84.7989 27.5504 84.9869 28.8601 84.5581C28.8601 84.5581 27.1745 85.2453 27.6444 85.9031L38.4392 82.6024C53.1221 86.4199 61.6205 81.8506 64.0813 80.4117C64.4544 80.1973 64.8047 79.9454 65.1268 79.6599L67.2704 79.3369Z" fill="#F5A278"/>
<path d="M21.002 33.0389C21.002 33.0389 24.796 36.5628 29.4945 36.0988C29.4945 36.0988 24.9428 37.2206 21.1723 34.284L21.002 33.0389Z" fill="#A73E27"/>
<path d="M21.8242 37.6846C21.8242 37.6846 26.0764 41.0146 30.8512 39.5287C29.4619 40.0829 27.9658 40.3179 26.4735 40.2162C24.9812 40.1145 23.5308 39.6789 22.2295 38.9414L21.8242 37.6846Z" fill="#A73E27"/>
<path d="M55.724 56.3845C53.1398 61.4413 42.5858 62.0697 38.498 62.1226C52.6347 68.9707 61.5971 59.4386 65.5145 53.9883C64.7569 51.4335 58.6077 50.7405 55.724 56.3845Z" fill="#F86937"/>
<path d="M26.7282 65.3001L20.0974 70.6623C19.5101 68.4188 21.6597 66.0989 21.6597 66.0989C19.98 67.5613 16.4443 66.9211 16.4443 66.9211L23.3923 61.6705C23.3923 61.6705 22.758 65.1592 26.7282 65.3001Z" fill="#A73E27"/>
<path d="M69.2391 45.3079C69.2391 45.3079 62.8432 51.3278 58.1976 48.4735C57.7255 48.1264 57.3355 47.6798 57.0554 47.1652C56.7753 46.6506 56.6118 46.0807 56.5766 45.4958C56.4239 46.97 57.0817 48.6614 58.1976 49.3427C62.8608 52.1677 69.1275 46.2828 69.1275 46.2828C69.1992 45.9627 69.2366 45.6359 69.2391 45.3079Z" fill="#0A0851"/>
<path d="M42.8743 20.3823C43.0211 20.3353 43.1621 20.2824 43.303 20.2237C43.444 20.1591 43.5791 20.0945 43.7083 20.024L43.9021 19.9124L44.0783 19.8008L44.2545 19.6775L44.413 19.5541L44.5775 19.4249L44.7184 19.2957L44.8359 19.1841C47.8606 21.1516 52.0892 19.4073 52.0892 19.4073L46.7564 16.1242V16.0361C46.7647 15.9521 46.7647 15.8676 46.7564 15.7836C46.7564 15.7836 46.7564 15.7307 46.7564 15.7072L47.5317 15.1786C47.5414 15.173 47.5495 15.1648 47.5551 15.155C47.5608 15.1452 47.5637 15.1341 47.5637 15.1229C47.5637 15.1116 47.5608 15.1005 47.5551 15.0907C47.5495 15.0809 47.5414 15.0727 47.5317 15.0671L46.592 14.8556C46.4483 14.4584 46.1725 14.1225 45.8108 13.9042C45.0473 13.5753 43.5556 14.1978 42.005 15.0788C41.6915 14.9347 41.3367 14.9077 41.0049 15.0025C40.6731 15.0973 40.3862 15.3077 40.1961 15.5956L39.4385 16.735C38.0348 17.71 37.0011 18.5557 37.0011 18.5557H37.0305L33.1836 19.237C33.5465 19.5306 34.0034 19.6829 34.4698 19.6657C34.4698 19.6657 33.7063 19.9359 33.5771 20.5173L37.4475 19.7127L35.8911 22.062C35.8911 22.062 39.8026 23.3306 42.4397 20.4997L42.839 20.3999L42.8743 20.3823ZM46.9385 15.4253C46.9264 15.2943 46.9028 15.1646 46.868 15.0377C46.9219 15.1595 46.9461 15.2924 46.9385 15.4253Z" fill="#FB8959"/>
</svg>
