<svg width="99" height="99" viewBox="0 0 99 99" fill="none" xmlns="http://www.w3.org/2000/svg">
<path opacity="0.71" d="M51.7042 82.0873C70.2161 82.0873 85.2229 80.3841 85.2229 78.283C85.2229 76.182 70.2161 74.4788 51.7042 74.4788C33.1924 74.4788 18.1855 76.182 18.1855 78.283C18.1855 80.3841 33.1924 82.0873 51.7042 82.0873Z" fill="#06035B"/>
<path d="M44.1009 61.9363H28.3965V77.8788H44.1009V61.9363Z" fill="#6A90E5"/>
<path d="M59.7777 40.3621H44.0732V77.8733H59.7777V40.3621Z" fill="#6A90E5"/>
<path d="M75.4994 72.3302H59.7949V77.8733H75.4994V72.3302Z" fill="#6A90E5"/>
<path opacity="0.45" d="M60.2425 32.4766C60.2425 32.4766 57.59 24.5746 51.7866 20.51C51.7866 20.51 48.2592 15.709 43.951 18.965C43.6299 19.2032 47.1794 21.54 46.8527 21.8778C43.8237 24.9843 46.299 25.5159 47.7221 28.4896C48.2759 29.6746 43.8458 31.1033 44.1227 32.3659C45.8781 39.8249 37.6881 55.2636 36.9904 56.5538L32.3887 64.1513L36.6193 65.8569L39.6705 56.061C44.1504 54.9036 53.0824 51.786 58.3431 44.4875C61.7321 39.7751 60.5027 36.1203 60.2425 32.4766Z" fill="#0A0851"/>
<path d="M57.6406 20.233L67.2372 10.2267C67.2372 10.2267 69.5297 25.178 58.8146 31.7178" fill="#FB8959"/>
<path d="M54.0518 15.5372C54.0518 15.5372 50.4414 9.67853 45.3192 14.1362C40.7396 18.1233 44.7654 22.1767 45.4354 26.7341C46.6205 34.6362 36.2764 50.3351 36.2764 50.3351C36.2764 50.3351 50.5853 49.3716 58.6092 39.9688C62.3748 35.5388 61.45 31.812 61.4943 28.1573C61.4943 28.1573 59.4897 20.0614 54.0518 15.5372Z" fill="#FB8959"/>
<path d="M46.3048 24.3863L43.3921 24.7518L24.0107 27.1606C24.0107 27.1606 38.0041 43.967 47.8498 35.9044C47.8498 35.9044 51.5489 32.8089 51.643 28.7886C51.653 28.1242 51.5134 27.4661 51.2345 26.863C50.9557 26.2599 50.5447 25.7272 50.0321 25.3044C49.5194 24.8816 48.9182 24.5796 48.2731 24.4207C47.6279 24.2618 46.9552 24.25 46.3048 24.3863Z" fill="#FB8959"/>
<path d="M53.0771 14.9172L56.4827 13.5051C56.5411 13.4816 56.6053 13.4764 56.6667 13.4902C56.7281 13.5041 56.7839 13.5363 56.8265 13.5826C56.8692 13.6288 56.8968 13.687 56.9056 13.7493C56.9144 13.8117 56.9041 13.8752 56.8759 13.9315L55.0042 17.3094C55.0042 17.3094 54.5501 17.1599 53.0771 14.9172Z" fill="#3539FA"/>
<path d="M60.2372 24.5968C59.4398 22.5091 56.3166 22.0052 54.5945 23.4228C54.487 23.5022 54.3869 23.5912 54.2955 23.6886C50.4524 28.3623 57.9502 41.6192 50.5576 46.2098C50.5576 46.2098 66.478 40.9657 60.2372 24.5968Z" fill="url(#paint0_linear_129_713)"/>
<path d="M58.0059 19.9174C59.8932 22.8541 61.1037 26.1736 61.5499 29.6358C61.5499 29.6358 65.4262 24.2256 60.0437 17.7135L58.0059 19.9174Z" fill="#A73E27"/>
<path d="M36.9967 49.3329L31.127 57.4343L35.2026 59.4832L40.4522 46.4977" fill="#FB8959"/>
<path d="M50.5632 31.8066C43.6413 37.4715 34.676 30.8541 29.9525 26.4186L24.0107 27.1606C24.0107 27.1606 38.0041 43.967 47.8498 35.9044C49.2807 34.6275 50.4034 33.0428 51.1336 31.2695C50.7902 31.6183 50.5632 31.8066 50.5632 31.8066Z" fill="#A73E27"/>
<path d="M44.7988 24.4638C46.1796 23.165 47.8431 22.2044 49.6583 21.6576C51.4734 21.1109 53.3907 20.9929 55.2592 21.3129C55.2592 21.3129 58.0279 21.8667 58.0279 20.0282L54.3233 15.4044C53.8234 14.6721 53.1971 14.0346 52.4738 13.5216C51.5611 12.8604 50.4774 12.4759 49.3521 12.414C48.2268 12.3521 47.1074 12.6156 46.1278 13.1728C44.4665 14.1861 42.3844 16.1686 42.9659 19.2641L44.7988 24.4638Z" fill="#FF9D7B"/>
<path d="M48.8293 17.7856C49.5419 17.7856 50.1196 17.2079 50.1196 16.4953C50.1196 15.7827 49.5419 15.2051 48.8293 15.2051C48.1167 15.2051 47.5391 15.7827 47.5391 16.4953C47.5391 17.2079 48.1167 17.7856 48.8293 17.7856Z" fill="#A73E27"/>
<path d="M48.8246 17.0213C49.0998 17.0213 49.3229 16.7982 49.3229 16.5229C49.3229 16.2477 49.0998 16.0245 48.8246 16.0245C48.5493 16.0245 48.3262 16.2477 48.3262 16.5229C48.3262 16.7982 48.5493 17.0213 48.8246 17.0213Z" fill="white"/>
<path d="M40.1416 25.178L46.615 24.3307C46.615 24.3307 50.4913 23.8268 51.5323 27.6533C51.5323 27.6533 49.7105 24.4083 46.5485 24.7405L40.1416 25.178Z" fill="#A73E27"/>
<defs>
<linearGradient id="paint0_linear_129_713" x1="48.3787" y1="35.4655" x2="62.2105" y2="32.6514" gradientUnits="userSpaceOnUse">
<stop stop-color="#FFF3E9"/>
<stop offset="1" stop-color="#FCC9B2"/>
</linearGradient>
</defs>
</svg>
