<svg width="97" height="96" viewBox="0 0 97 96" fill="none" xmlns="http://www.w3.org/2000/svg">
<path opacity="0.55" d="M44.3792 85.1964C54.4046 85.1964 62.5318 83.872 62.5318 82.2382C62.5318 80.6045 54.4046 79.28 44.3792 79.28C34.3538 79.28 26.2266 80.6045 26.2266 82.2382C26.2266 83.872 34.3538 85.1964 44.3792 85.1964Z" fill="#F5A278"/>
<path d="M47.665 71.793H39.5918V82.7168H47.665V71.793Z" fill="#3D60F2"/>
<path opacity="0.76" d="M47.665 75.1169L39.5918 77.9676V71.793H47.665V75.1169Z" fill="#06035B"/>
<path d="M61.1979 72.0296H25.5811L22.7305 36.4128H64.0485L61.1979 72.0296Z" fill="#3D60F2"/>
<path d="M69.5072 36.6493H16.792L43.2115 12.4297L69.5072 36.6493Z" fill="#3D60F2"/>
<path opacity="0.76" d="M50.8055 59.1427C54.6375 59.1427 57.7439 56.0363 57.7439 52.2043C57.7439 48.3724 54.6375 45.266 50.8055 45.266C46.9736 45.266 43.8672 48.3724 43.8672 52.2043C43.8672 56.0363 46.9736 59.1427 50.8055 59.1427Z" fill="#06035B"/>
<path opacity="0.76" d="M23.0797 41.9688L64.2849 36.6494H22.9668L23.0797 41.9688Z" fill="#06035B"/>
<path opacity="0.51" d="M33.9445 72.0727H39.8609C41.5551 70.6261 42.9138 68.8278 43.8427 66.8029C44.7715 64.7781 45.2482 62.5752 45.2395 60.3474C45.2395 60.014 45.2395 59.7235 45.2395 59.3954C45.2481 57.9941 44.8763 56.6166 44.1638 55.4099C43.5237 54.3175 42.6105 53.4103 41.5138 52.7775C40.4171 52.1448 39.1746 51.8082 37.9085 51.8009C35.9251 51.832 34.0353 52.6496 32.6545 54.0737C31.2738 55.4978 30.5151 57.412 30.5453 59.3954C30.5453 59.5622 30.5453 59.7235 30.5453 59.8849L26.7803 59.4815L33.9445 72.0727ZM33.014 61.918C33.7998 61.7393 34.5711 61.5019 35.3214 61.208C34.5577 62.601 34.8696 63.4401 34.8696 63.4401L33.014 61.918Z" fill="#06035B"/>
<path d="M20.8203 67.9418L14.1348 79.7423C14.1348 79.7423 21.7347 81.1676 26.5054 71.1904L20.8203 67.9418Z" fill="#FB8959"/>
<path d="M26.167 72.0726C26.167 72.0726 20.9498 72.2232 19.4492 70.3999L20.5733 68.3076L26.167 72.0726Z" fill="#EF5F32"/>
<path d="M38.908 55.098C38.4562 58.4381 32.131 59.4009 32.131 59.4009L30.5175 57.1957C30.5175 57.0343 30.5175 56.873 30.5175 56.7062C30.4873 54.7228 31.246 52.8086 32.6267 51.3845C34.0075 49.9604 35.8973 49.1428 37.8807 49.1117C39.1458 49.1179 40.3875 49.4529 41.4842 50.0837C42.5808 50.7145 43.4946 51.6195 44.136 52.7099C42.431 52.5862 39.263 52.6669 38.908 55.098Z" fill="url(#paint0_linear_129_916)"/>
<path d="M15.926 55.6411L30.5341 57.1955L34.837 60.7508C34.837 60.7508 34.4336 59.6751 35.6438 57.9485C36.2085 57.131 38.7364 56.1682 38.8709 55.0979C39.199 52.6668 42.3938 52.5861 44.0988 52.7206C44.8114 53.9273 45.1832 55.3047 45.1746 56.7061C45.1746 57.0342 45.1746 57.3246 45.1746 57.6581C45.1746 66.0486 38.5858 72.8579 30.4535 72.8579C22.3211 72.8579 15.7969 66.0486 15.7969 57.6581C15.7962 56.9837 15.8393 56.31 15.926 55.6411Z" fill="url(#paint1_linear_129_916)"/>
<path d="M45.2389 56.7061C45.2389 56.7061 48.0896 54.8075 48.0896 54.3341C48.0896 53.8608 44.7656 54.3341 44.7656 54.3341L45.2389 56.7061Z" fill="#B5BAFE"/>
<path d="M15.856 55.4475C15.8184 55.8617 15.7969 56.2812 15.7969 56.7061C15.7969 63.5261 21.1109 69.0768 27.6673 69.0768C33.7021 69.0768 38.688 64.3974 39.441 58.3197L15.856 55.4475Z" fill="#F86937"/>
<path d="M43.1305 51.2738C43.1305 51.2738 36.8107 51.2738 35.3262 57.7765L36.7784 57.954C36.7784 57.954 42.4743 53.3445 45.2335 58.3305C45.2335 58.3305 45.7767 53.9201 43.1305 51.2738Z" fill="#FF6008"/>
<path d="M41.2049 54.5708C41.7307 54.5708 42.1569 54.1445 42.1569 53.6188C42.1569 53.093 41.7307 52.6667 41.2049 52.6667C40.6792 52.6667 40.2529 53.093 40.2529 53.6188C40.2529 54.1445 40.6792 54.5708 41.2049 54.5708Z" fill="#0A0851"/>
<path d="M34.1857 61.5092C34.1857 61.5576 34.1857 61.6113 34.1857 61.6598C34.1805 62.023 34.3147 62.3745 34.5608 62.6418C34.8069 62.9091 35.1461 63.0719 35.5085 63.0967C35.871 63.1215 36.2292 63.0065 36.5094 62.7752C36.7896 62.5439 36.9705 62.214 37.0148 61.8534L34.1857 61.5092Z" fill="url(#paint2_linear_129_916)"/>
<path d="M33.3849 58.8253C33.3821 58.8755 33.3821 58.9258 33.3849 58.9759C33.3812 59.3387 33.5165 59.689 33.763 59.9552C34.0095 60.2213 34.3485 60.383 34.7105 60.4071C35.0724 60.4312 35.4299 60.3158 35.7095 60.0847C35.9891 59.8536 36.1696 59.5242 36.214 59.1642L33.3849 58.8253Z" fill="url(#paint3_linear_129_916)"/>
<path d="M30.0499 60.4226C30.0472 60.4728 30.0472 60.523 30.0499 60.5732C30.0464 60.7632 30.0803 60.9521 30.1497 61.129C30.2191 61.3059 30.3228 61.4674 30.4546 61.6042C30.5865 61.7411 30.744 61.8506 30.9182 61.9266C31.0924 62.0025 31.2799 62.0434 31.4699 62.0469C31.8174 62.0413 32.1509 61.9094 32.4083 61.6758C32.6656 61.4422 32.8291 61.1229 32.8683 60.7776L30.0499 60.4226Z" fill="url(#paint4_linear_129_916)"/>
<path d="M31.3243 63.5476C31.3216 63.5996 31.3216 63.6516 31.3243 63.7036C31.3206 64.0663 31.4559 64.4167 31.7024 64.6829C31.9489 64.949 32.2879 65.1107 32.6499 65.1348C33.0118 65.1589 33.3693 65.0435 33.6489 64.8124C33.9284 64.5812 34.109 64.2519 34.1534 63.8918L31.3243 63.5476Z" fill="url(#paint5_linear_129_916)"/>
<path d="M28.3184 65.0806C28.3157 65.1307 28.3157 65.181 28.3184 65.2312C28.3132 65.5945 28.4475 65.9459 28.6935 66.2132C28.9396 66.4805 29.2788 66.6433 29.6413 66.6682C30.0037 66.693 30.3619 66.5779 30.6421 66.3466C30.9223 66.1153 31.1032 65.7854 31.1475 65.4248L28.3184 65.0806Z" fill="url(#paint6_linear_129_916)"/>
<path d="M30.0768 71.68C42.7702 71.04 45.2175 57.9378 45.2175 58.2713C45.2175 66.6672 38.6503 72.8579 30.5179 72.8579C27.4072 72.8269 24.3856 71.8151 21.8834 69.9667C19.3812 68.1183 17.526 65.5275 16.582 62.5634C18.8572 67.9312 24.0475 71.9866 30.0768 71.68Z" fill="white"/>
<defs>
<linearGradient id="paint0_linear_129_916" x1="43.3238" y1="49.542" x2="35.412" y2="54.0062" gradientUnits="userSpaceOnUse">
<stop stop-color="#FFF3E9"/>
<stop offset="1" stop-color="#FCC9B2"/>
</linearGradient>
<linearGradient id="paint1_linear_129_916" x1="878.624" y1="2407.31" x2="2487.35" y2="2407.31" gradientUnits="userSpaceOnUse">
<stop stop-color="#FFF3E9"/>
<stop offset="1" stop-color="#FCC9B2"/>
</linearGradient>
<linearGradient id="paint2_linear_129_916" x1="35.057" y1="62.3213" x2="40.3925" y2="62.3213" gradientUnits="userSpaceOnUse">
<stop stop-color="#FCC9B2" stop-opacity="0"/>
<stop offset="1" stop-color="#FCC9B2"/>
</linearGradient>
<linearGradient id="paint3_linear_129_916" x1="640.28" y1="234.087" x2="608.165" y2="239.591" gradientUnits="userSpaceOnUse">
<stop stop-color="#FCC9B2" stop-opacity="0"/>
<stop offset="1" stop-color="#FCC9B2"/>
</linearGradient>
<linearGradient id="paint4_linear_129_916" x1="660.7" y1="245.352" x2="602.035" y2="245.352" gradientUnits="userSpaceOnUse">
<stop stop-color="#FCC9B2" stop-opacity="0"/>
<stop offset="1" stop-color="#FCC9B2"/>
</linearGradient>
<linearGradient id="paint5_linear_129_916" x1="640.664" y1="253.844" x2="608.503" y2="259.282" gradientUnits="userSpaceOnUse">
<stop stop-color="#FCC9B2" stop-opacity="0"/>
<stop offset="1" stop-color="#FCC9B2"/>
</linearGradient>
<linearGradient id="paint6_linear_129_916" x1="655.526" y1="259.966" x2="609.491" y2="259.966" gradientUnits="userSpaceOnUse">
<stop stop-color="#FCC9B2" stop-opacity="0"/>
<stop offset="1" stop-color="#FCC9B2"/>
</linearGradient>
</defs>
</svg>
