<svg width="55" height="54" viewBox="0 0 55 54" fill="none" xmlns="http://www.w3.org/2000/svg">
<path d="M39.9072 40.5527C40.0782 40.5527 40.2421 40.4861 40.363 40.3674C40.4839 40.2487 40.5518 40.0878 40.5518 39.9199V36.2285C40.5518 36.0607 40.4839 35.8997 40.363 35.781C40.2421 35.6624 40.0782 35.5957 39.9072 35.5957C39.7363 35.5957 39.5723 35.6624 39.4515 35.781C39.3306 35.8997 39.2627 36.0607 39.2627 36.2285V39.9199C39.2627 40.0878 39.3306 40.2487 39.4515 40.3674C39.5723 40.4861 39.7363 40.5527 39.9072 40.5527Z" fill="#22409A"/>
<path d="M35.6104 40.5527C35.7813 40.5527 35.9452 40.4861 36.0661 40.3674C36.187 40.2487 36.2549 40.0878 36.2549 39.9199V36.2285C36.2549 36.0607 36.187 35.8997 36.0661 35.781C35.9452 35.6624 35.7813 35.5957 35.6104 35.5957C35.4394 35.5957 35.2755 35.6624 35.1546 35.781C35.0337 35.8997 34.9658 36.0607 34.9658 36.2285V39.9199C34.9658 40.0878 35.0337 40.2487 35.1546 40.3674C35.2755 40.4861 35.4394 40.5527 35.6104 40.5527Z" fill="#22409A"/>
<path d="M44.2041 40.5527C44.375 40.5527 44.539 40.4861 44.6599 40.3674C44.7807 40.2487 44.8486 40.0878 44.8486 39.9199V36.2285C44.8486 36.0607 44.7807 35.8997 44.6599 35.781C44.539 35.6624 44.375 35.5957 44.2041 35.5957C44.0332 35.5957 43.8692 35.6624 43.7483 35.781C43.6275 35.8997 43.5596 36.0607 43.5596 36.2285V39.9199C43.5596 40.0878 43.6275 40.2487 43.7483 40.3674C43.8692 40.4861 44.0332 40.5527 44.2041 40.5527Z" fill="#22409A"/>
<path d="M48.501 40.5527C48.6719 40.5527 48.8359 40.4861 48.9567 40.3674C49.0776 40.2487 49.1455 40.0878 49.1455 39.9199V36.2285C49.1455 36.0607 49.0776 35.8997 48.9567 35.781C48.8359 35.6624 48.6719 35.5957 48.501 35.5957C48.33 35.5957 48.1661 35.6624 48.0452 35.781C47.9244 35.8997 47.8564 36.0607 47.8564 36.2285V39.9199C47.8564 40.0878 47.9244 40.2487 48.0452 40.3674C48.1661 40.4861 48.33 40.5527 48.501 40.5527Z" fill="#22409A"/>
<path d="M38.0027 8.22656H37.3765C37.2055 8.22656 37.0416 8.29323 36.9207 8.41191C36.7998 8.53058 36.7319 8.69154 36.7319 8.85938C36.7319 9.02721 36.7998 9.18817 36.9207 9.30684C37.0416 9.42552 37.2055 9.49219 37.3765 9.49219H38.0027C38.1737 9.49219 38.3376 9.42552 38.4585 9.30684C38.5794 9.18817 38.6473 9.02721 38.6473 8.85938C38.6473 8.69154 38.5794 8.53058 38.4585 8.41191C38.3376 8.29323 38.1737 8.22656 38.0027 8.22656Z" fill="#22409A"/>
<path d="M35.4514 8.22656H21.7529C21.582 8.22656 21.418 8.29323 21.2972 8.41191C21.1763 8.53058 21.1084 8.69154 21.1084 8.85938C21.1084 9.02721 21.1763 9.18817 21.2972 9.30684C21.418 9.42552 21.582 9.49219 21.7529 9.49219H35.4514C35.6223 9.49219 35.7862 9.42552 35.9071 9.30684C36.028 9.18817 36.0959 9.02721 36.0959 8.85938C36.0959 8.69154 36.028 8.53058 35.9071 8.41191C35.7862 8.29323 35.6223 8.22656 35.4514 8.22656Z" fill="#22409A"/>
<path d="M53.2242 32.8957C53.223 32.8841 53.2209 32.8729 53.2191 32.8616C53.2177 32.8527 53.2167 32.8437 53.215 32.835C53.2123 32.8219 53.2086 32.8092 53.2052 32.7965C53.2033 32.7893 53.2018 32.7821 53.1995 32.7754C53.196 32.7638 53.1914 32.7526 53.1873 32.7413C53.1842 32.7332 53.1816 32.7249 53.1782 32.7169C53.1749 32.7089 53.1693 32.6983 53.1648 32.689C53.1603 32.6797 53.156 32.6699 53.1509 32.6607C53.1469 32.6532 53.1421 32.6461 53.1377 32.6388C53.1314 32.6282 53.1254 32.6177 53.1184 32.6071C53.1142 32.601 53.1095 32.5953 53.1051 32.5893C53.0972 32.5788 53.0895 32.5682 53.0809 32.5577C53.0749 32.5505 53.0682 32.544 53.0619 32.5371C53.0556 32.5303 53.047 32.5201 53.0388 32.5121C53.0238 32.4973 53.008 32.4834 52.9915 32.4699L52.9906 32.4691L43.1469 24.58C43.5457 24.4476 43.9105 24.2317 44.2161 23.9474C44.5217 23.663 44.7609 23.3169 44.917 22.933C44.9809 22.7773 44.9792 22.603 44.9123 22.4484C44.8453 22.2939 44.7186 22.1718 44.56 22.109C44.4014 22.0462 44.2238 22.0478 44.0664 22.1136C43.909 22.1793 43.7847 22.3037 43.7207 22.4595C43.6007 22.7566 43.3924 23.0114 43.123 23.1908C42.8536 23.3703 42.5355 23.4661 42.2099 23.4657C41.7737 23.4657 41.3554 23.2956 41.047 22.9928C40.7386 22.69 40.5653 22.2793 40.5653 21.851C40.5653 21.4228 40.7386 21.0121 41.047 20.7092C41.3554 20.4064 41.7737 20.2363 42.2099 20.2363C42.3809 20.2363 42.5448 20.1696 42.6657 20.0509C42.7865 19.9323 42.8545 19.7713 42.8545 19.6035V14.7656H45.4573C45.6282 14.7656 45.7922 14.699 45.913 14.5803C46.0339 14.4616 46.1018 14.3006 46.1018 14.1328V11.629H47.4553C47.5402 11.629 47.6242 11.6125 47.7026 11.5806C47.781 11.5486 47.8522 11.5017 47.912 11.4427C47.9719 11.3837 48.0193 11.3136 48.0516 11.2365C48.0838 11.1594 48.1002 11.0769 48.0999 10.9935L48.0816 6.64717C48.0808 6.49637 48.0251 6.35081 47.9247 6.23673C47.8242 6.12264 47.6856 6.04752 47.5337 6.0249V6.02427L14.4167 1.06196V1.0626C14.3847 1.05762 14.3524 1.05498 14.32 1.05469H7.12637C7.03792 1.05466 6.95043 1.07258 6.86937 1.10732C6.78831 1.14206 6.71544 1.19286 6.65532 1.25655L1.94541 6.21833C1.83398 6.33533 1.77213 6.48962 1.77246 6.6498V10.9962C1.77246 11.164 1.84037 11.325 1.96124 11.4436C2.08211 11.5623 2.24605 11.629 2.41699 11.629H6.48506L6.48184 48.3638C5.48632 48.4643 4.56412 48.9237 3.8935 49.653C3.22287 50.3824 2.85143 51.3299 2.85098 52.3125C2.85098 52.4803 2.91888 52.6413 3.03976 52.76C3.16063 52.8786 3.32457 52.9453 3.49551 52.9453H17.8675C18.0384 52.9453 18.2024 52.8786 18.3232 52.76C18.4441 52.6413 18.512 52.4803 18.512 52.3125C18.5107 51.3445 18.1496 50.4103 17.4966 49.6851C16.8435 48.9599 15.9434 48.4936 14.9651 48.3737L14.9713 11.629H38.1885V14.1328C38.1885 14.3006 38.2564 14.4616 38.3773 14.5803C38.4981 14.699 38.6621 14.7656 38.833 14.7656H41.5658V19.0413C40.9628 19.1781 40.4192 19.4983 40.0126 19.9564C39.606 20.4144 39.357 20.9868 39.3013 21.5919C39.2457 22.1971 39.3861 22.804 39.7025 23.3262C40.0189 23.8484 40.4953 24.2591 41.0635 24.4998L31.1208 32.4688L31.1197 32.4697C31.1035 32.4827 31.088 32.4964 31.0733 32.511C31.0643 32.5197 31.0562 32.5291 31.0478 32.5383C31.0421 32.5446 31.036 32.5505 31.0305 32.5571C31.0217 32.5677 31.0139 32.5782 31.0058 32.5894C31.0016 32.5952 30.997 32.6007 30.9929 32.6066C30.9859 32.6172 30.9798 32.6277 30.9735 32.6383C30.9691 32.6455 30.9645 32.6525 30.9604 32.66C30.9553 32.6692 30.951 32.6788 30.9465 32.6882C30.942 32.6977 30.9372 32.7067 30.9331 32.7162C30.929 32.7257 30.9271 32.7324 30.9241 32.7406C30.9199 32.7518 30.9154 32.763 30.9118 32.7746C30.9096 32.7818 30.9081 32.7892 30.9061 32.7965C30.9027 32.809 30.899 32.8216 30.8965 32.8345C30.8945 32.8438 30.8936 32.8532 30.8921 32.8625C30.8903 32.873 30.8882 32.8842 30.8871 32.8954C30.885 32.9161 30.8839 32.937 30.8839 32.9578V43.1895C30.8839 43.3573 30.9518 43.5182 31.0727 43.6369C31.1935 43.7556 31.3575 43.8223 31.5284 43.8223H52.5831C52.7541 43.8223 52.918 43.7556 53.0389 43.6369C53.1597 43.5182 53.2276 43.3573 53.2276 43.1895V32.9577C53.2276 32.937 53.2264 32.9163 53.2242 32.8957ZM38.9423 6.01699H14.9687L14.9656 2.4243L38.9423 6.01699ZM13.6796 6.01699H9.15471L13.6772 2.90345L13.6796 6.01699ZM7.7694 2.32031H12.2783L7.76198 5.43006L7.7694 2.32031ZM6.47754 3.29896L6.4711 6.01699H3.89856L6.47754 3.29896ZM17.1468 51.6797H4.21556C4.36102 51.0896 4.70417 50.5646 5.18996 50.189C5.67574 49.8133 6.27598 49.6088 6.89434 49.6083H14.4687C15.0869 49.6091 15.6869 49.8137 16.1726 50.1893C16.6582 50.5649 17.0013 51.0898 17.1468 51.6797ZM12.8613 16.2738L7.77348 18.573V13.976L12.8613 16.2738ZM7.77402 12.5824V11.629H13.6822L13.6816 15.2512L7.77402 12.5824ZM13.6813 17.2969L13.6804 22.09L8.3759 19.6943L13.6813 17.2969ZM12.8278 23.0977L7.77294 25.3806V20.8149L12.8278 23.0977ZM13.6801 24.1059L13.6793 28.6921L8.60385 26.3988L13.6801 24.1059ZM12.8111 29.6931L7.7723 31.9699V27.4165L12.8111 29.6931ZM13.679 30.6943L13.6781 35.4147L8.45561 33.0539L13.679 30.6943ZM12.843 36.4305L7.77176 38.7224V34.1388L12.843 36.4305ZM13.6778 37.4465L13.6771 42.2514L8.35968 39.8498L13.6778 37.4465ZM12.8121 43.2538L7.77122 45.5309V40.9766L12.8121 43.2538ZM13.6767 44.2565L13.676 48.3427H7.7709V46.9248L13.6767 44.2565ZM39.4775 13.5V11.629H40.7666C40.9375 11.629 41.1015 11.5623 41.2224 11.4436C41.3432 11.325 41.4111 11.164 41.4111 10.9962C41.4111 10.8283 41.3432 10.6674 41.2224 10.5487C41.1015 10.43 40.9375 10.3634 40.7666 10.3634H3.06152V7.28262H46.7957L46.8085 10.3634H43.1299C42.9589 10.3634 42.795 10.43 42.6741 10.5487C42.5533 10.6674 42.4854 10.8283 42.4854 10.9962C42.4854 11.164 42.5533 11.325 42.6741 11.4436C42.795 11.5623 42.9589 11.629 43.1299 11.629H44.8132V13.5H39.4775ZM42.0557 25.3383L50.7742 32.3262H33.3371L42.0557 25.3383ZM51.9385 42.5566H32.1729V33.5918H51.9385V42.5566Z" fill="#22409A"/>
</svg>
