<svg width="47" height="47" viewBox="0 0 47 47" fill="none" xmlns="http://www.w3.org/2000/svg">
<g clip-path="url(#clip0_150_436)">
<path d="M42.147 33.6705L35.9903 27.5142C35.9886 27.5124 35.9867 27.5111 35.985 27.5093L34.6757 26.2002C33.9297 25.4532 33.0855 24.8098 32.1668 24.2881L30.91 23.5739C30.4756 23.3272 30.0601 23.0481 29.6652 22.7409L34.7424 17.664C35.6922 18.0094 36.7044 18.1959 37.7476 18.2082C37.7847 18.2086 37.8215 18.2088 37.8585 18.2088C40.2974 18.2088 42.5881 17.2594 44.3193 15.5283C46.6777 13.1698 47.5664 9.7199 46.6386 6.52473C46.5249 6.13285 46.2215 5.83845 45.8273 5.7372C45.4348 5.63632 45.0285 5.74776 44.7411 6.03508L41.3232 9.45286L39.3544 9.45755L37.5426 7.64584L37.5472 5.67717L40.965 2.25957C41.2525 1.97215 41.3639 1.56604 41.2631 1.17315C41.1619 0.779161 40.8678 0.476048 40.4763 0.362311C37.2497 -0.574843 33.7779 0.335507 31.4157 2.73783C29.7553 4.42662 28.8276 6.66967 28.8036 9.05382C28.7924 10.1623 28.9773 11.2422 29.3416 12.252L25.445 16.1485C24.4882 15.193 22.9322 15.1935 21.9759 16.1498L20.5484 17.5773L9.39477 6.42421C9.12589 6.15534 8.68995 6.15534 8.42117 6.42421C8.1523 6.69308 8.1523 7.12893 8.42117 7.39781L19.5748 18.5509L18.5509 19.5747L1.46765 2.49209L2.49146 1.46828L6.34629 5.32292C6.61516 5.5918 7.0511 5.5918 7.31988 5.32292C7.58876 5.05405 7.58876 4.6182 7.31988 4.34933L3.31102 0.340647C2.85911 -0.111269 2.12381 -0.111269 1.6719 0.340647L0.339923 1.67253C-0.111993 2.12444 -0.111993 2.85974 0.339923 3.31156L17.5773 20.5483L16.1497 21.9757C15.1934 22.932 15.1929 24.4878 16.1485 25.4447L12.2522 29.3408C11.5933 29.1003 10.9058 28.9339 10.2021 28.8519C9.82438 28.8079 9.48262 29.0785 9.43865 29.4561C9.39468 29.8338 9.6652 30.1756 10.0429 30.2195C11.8179 30.4262 13.4763 31.2535 14.7125 32.5493C16.0916 33.995 16.84 35.9065 16.8195 37.9316C16.799 39.9576 16.0116 41.8629 14.6023 43.2962C12.692 45.2391 9.92783 46.0336 7.30327 45.4185L10.6272 42.0946C10.7559 41.9659 10.8285 41.7915 10.8289 41.6095L10.8349 39.0705C10.8353 38.8873 10.7627 38.7116 10.6332 38.5821L8.41686 36.366C8.2877 36.2368 8.11264 36.1643 7.93006 36.1643H7.9285L5.38939 36.1703C5.20736 36.1707 5.03295 36.2431 4.90425 36.3719L1.58028 39.6957C0.971853 37.0966 1.748 34.3512 3.65453 32.4448C4.67421 31.4252 5.94954 30.7108 7.34274 30.3791C7.71259 30.291 7.94098 29.9197 7.85295 29.5499C7.76491 29.18 7.39369 28.9516 7.02375 29.0397C5.3826 29.4305 3.8809 30.2714 2.68102 31.4712C0.322298 33.8296 -0.566387 37.2795 0.361404 40.4747C0.475232 40.8666 0.778437 41.161 1.17261 41.2622C1.56532 41.3631 1.97134 41.2518 2.25885 40.9643L5.67681 37.5466L7.64558 37.5419L9.45737 39.3536L9.45269 41.3223L6.03491 44.7399C5.7474 45.0274 5.63596 45.4335 5.73685 45.8264C5.83801 46.2204 6.13203 46.5235 6.52354 46.6372C7.36312 46.8811 8.21894 46.9999 9.06788 46.9998C11.4815 46.9997 13.8367 46.0391 15.5843 44.2616C17.2446 42.5729 18.1723 40.3298 18.1963 37.9456C18.2075 36.8372 18.0226 35.7573 17.6583 34.7474L22.7412 29.6647C23.0485 30.0597 23.3276 30.4753 23.5744 30.9097L24.2884 32.1661C24.8101 33.0848 25.4535 33.9288 26.2003 34.6747L27.5093 35.9838C27.5112 35.9857 27.5127 35.9878 27.5146 35.9897L33.7518 42.2266L37.4068 45.8816C38.1503 46.6246 39.127 46.9961 40.1038 46.9961C41.0805 46.9961 42.0575 46.6245 42.8011 45.8814L45.8828 42.7998C47.3688 41.3127 47.3688 38.893 45.8826 37.4057L42.147 33.6705ZM32.3977 3.70317C33.8825 2.19292 35.8828 1.37676 37.9328 1.37676C38.5202 1.37676 39.112 1.44377 39.6966 1.58082L36.3726 4.9047C36.244 5.0334 36.1715 5.2079 36.171 5.38984L36.165 7.92885C36.1646 8.11199 36.2372 8.28778 36.3666 8.41721L38.5831 10.6336C38.7122 10.7627 38.8873 10.8352 39.0699 10.8352H39.0716L41.6107 10.8293C41.7927 10.8288 41.9672 10.7564 42.0959 10.6276L45.4198 7.30372C46.0282 9.90294 45.2521 12.6482 43.3456 14.5548C41.8526 16.0478 39.866 16.8551 37.7639 16.8315C36.7509 16.8196 35.7728 16.6131 34.8688 16.2332C34.8466 16.2228 34.8242 16.2137 34.8013 16.2058C33.8663 15.8022 33.013 15.2106 32.2874 14.4501C30.9083 13.0044 30.16 11.0929 30.1804 9.06787C30.201 7.04173 30.9883 5.13657 32.3977 3.70317ZM31.2912 15.4005C31.9222 16.062 32.6352 16.6151 33.4083 17.0509L28.6337 21.8253L25.8666 19.0576C26.1407 18.5531 26.2255 17.9725 26.1201 17.421L29.9525 13.5888C30.3175 14.2403 30.7652 14.8491 31.2912 15.4005ZM17.1234 22.9493L22.9496 17.1234C23.1596 16.9135 23.4354 16.8085 23.7111 16.8085C23.987 16.8085 24.2629 16.9135 24.4729 17.1234C24.5776 17.2281 24.6561 17.3492 24.7086 17.4786C24.7089 17.4791 24.7091 17.4798 24.7093 17.4803C24.8664 17.8692 24.7875 18.3319 24.4729 18.6466L18.6467 24.4725C18.3318 24.7873 17.869 24.8661 17.4801 24.7089C17.4796 24.7087 17.4792 24.7085 17.4789 24.7084C17.3494 24.6559 17.2283 24.5773 17.1234 24.4725C16.7035 24.0526 16.7035 23.3693 17.1234 22.9493ZM15.7088 31.599C15.0839 30.9439 14.3669 30.3912 13.587 29.9533L17.4208 26.1196C17.5741 26.1489 17.7296 26.1637 17.8851 26.1637C18.2892 26.1637 18.6932 26.0641 19.0576 25.8661L21.8255 28.6332L17.0477 33.4108C16.6826 32.7593 16.2348 32.1505 15.7088 31.599ZM28.4883 34.0395C28.6187 33.909 28.7921 33.8372 28.9765 33.8372C29.161 33.8372 29.3343 33.909 29.4648 34.0395L37.6556 42.2299C37.7862 42.3604 37.858 42.5338 37.858 42.7182C37.858 42.9026 37.7862 43.076 37.6557 43.2065C37.6556 43.2065 37.6556 43.2065 37.6556 43.2065C37.5253 43.3369 37.3519 43.4087 37.1674 43.4087C36.9829 43.4087 36.8095 43.3369 36.6792 43.2065L34.6827 41.2101L28.4828 35.01C28.2195 34.7404 28.221 34.3068 28.4883 34.0395ZM44.909 41.8264L41.8275 44.9077C40.8771 45.8574 39.3306 45.8574 38.3802 44.9078L38.0559 44.5835C38.2656 44.4834 38.46 44.3494 38.6292 44.1802C39.0197 43.7897 39.2348 43.2706 39.2348 42.7183C39.2348 42.1661 39.0197 41.6469 38.6293 41.2564L30.4384 33.0659C29.6323 32.2599 28.3207 32.2599 27.5145 33.0659C27.3435 33.2368 27.2112 33.4312 27.1127 33.6379C26.4795 32.9947 25.9317 32.2716 25.4855 31.4859L24.7714 30.2294C24.2515 29.314 23.6083 28.4698 22.8594 27.7198L20.1024 24.9638L24.9641 20.1024L27.7206 22.8596C28.4701 23.608 29.3143 24.2512 30.2297 24.771L31.4865 25.4852C32.2722 25.9314 32.9952 26.479 33.6385 27.1124C33.4317 27.2108 33.2373 27.3432 33.0662 27.5142C32.2603 28.3202 32.2603 29.6317 33.0662 30.4379L37.5178 34.8892C37.7868 35.158 38.2227 35.1582 38.4915 34.8892C38.7604 34.6204 38.7604 34.1845 38.4915 33.9156L34.0399 29.4643C33.7707 29.1951 33.7706 28.7569 34.0398 28.4878C34.3075 28.2201 34.742 28.2188 35.0115 28.4833L40.9861 34.4571L43.2075 36.6784C43.338 36.8088 43.4097 36.9822 43.4097 37.1667C43.4097 37.3511 43.338 37.5245 43.2075 37.6549C43.077 37.7853 42.9037 37.8571 42.7191 37.8571C42.5347 37.8571 42.3613 37.7853 42.231 37.6549L40.5672 35.9914C40.2985 35.7226 39.8625 35.7226 39.5936 35.9914C39.3248 36.2603 39.3248 36.6962 39.5937 36.965L41.2573 38.6285C41.6478 39.019 42.167 39.234 42.7191 39.234C43.2713 39.234 43.7906 39.0189 44.181 38.6285C44.3503 38.4592 44.4843 38.2648 44.5845 38.055L44.9086 38.3791C45.8586 39.3296 45.8586 40.8761 44.909 41.8264Z" fill="#22409A"/>
</g>
<defs>
<clipPath id="clip0_150_436">
<rect width="47" height="47" fill="white"/>
</clipPath>
</defs>
</svg>
