<svg width="21" height="21" viewBox="0 0 21 21" fill="none" xmlns="http://www.w3.org/2000/svg">
<path d="M6.5 10.5005H6.50825M10.1584 10.5005H10.1666M13.825 10.5005H13.8333" stroke="white" stroke-width="1.5" stroke-linecap="round" stroke-linejoin="round"/>
<path d="M10.1666 19.6667C15.2291 19.6667 19.3332 15.5626 19.3332 10.5001C19.3332 5.43751 15.2291 1.3335 10.1666 1.3335C5.10402 1.3335 1 5.43751 1 10.5001C1 11.9665 1.34432 13.3524 1.9565 14.5815C2.11918 14.9081 2.17333 15.2815 2.07902 15.6339L1.53305 17.6745C1.29603 18.5603 2.10642 19.3706 2.99222 19.1336L5.03274 18.5877C5.38523 18.4933 5.75857 18.5475 6.08519 18.7101C7.31428 19.3224 8.70021 19.6667 10.1666 19.6667Z" stroke="white" stroke-width="1.5"/>
</svg>
