<svg width="37" height="37" viewBox="0 0 37 37" fill="none" xmlns="http://www.w3.org/2000/svg">
<g clip-path="url(#clip0_150_46)">
<path d="M36.2291 37H26.2085C25.8968 37 25.6148 36.8126 25.4963 36.5244C25.3766 36.2362 25.4429 35.9048 25.6634 35.6843L28.2017 33.146L23.3509 28.2951C23.0494 27.9937 23.0494 27.5064 23.3509 27.2049C23.6524 26.9037 24.1396 26.9037 24.4408 27.2049L29.8367 32.6009C30.1382 32.9024 30.1382 33.3896 29.8367 33.6908L28.069 35.4585H35.4585V28.069L33.6908 29.8367C33.3896 30.1382 32.9024 30.1382 32.6009 29.8367L27.2049 24.4408C26.9037 24.1396 26.9037 23.6524 27.2049 23.3509C27.5064 23.0494 27.9937 23.0494 28.2951 23.3509L33.146 28.2017L35.6843 25.6634C35.9048 25.4429 36.2362 25.3766 36.5244 25.4963C36.8126 25.6148 37 25.8968 37 26.2085V36.2291C37 36.6554 36.6554 37 36.2291 37Z" fill="#22409A"/>
<path d="M9.25 13.875C9.05268 13.875 8.85536 13.7993 8.7049 13.6492L3.85407 8.79834L1.31574 11.3367C1.09471 11.5571 0.76387 11.6218 0.475655 11.5038C0.188003 11.3844 0 11.1032 0 10.7916V0.770927C0 0.345238 0.345238 0 0.770927 0H10.7916C11.1032 0 11.3844 0.188003 11.5038 0.475655C11.6235 0.76387 11.5571 1.09528 11.3367 1.31574L8.79834 3.85407L13.6492 8.7049C13.9507 9.00639 13.9507 9.49361 13.6492 9.7951C13.3477 10.0963 12.8605 10.0963 12.5593 9.7951L7.16333 4.39917C6.86185 4.09769 6.86185 3.61046 7.16333 3.30926L8.93102 1.54157H1.54157V8.93102L3.30926 7.16333C3.61046 6.86185 4.09769 6.86185 4.39917 7.16333L9.7951 12.5593C10.0963 12.8605 10.0963 13.3477 9.7951 13.6492C9.64464 13.7993 9.44732 13.875 9.25 13.875Z" fill="#22409A"/>
<path d="M27.75 13.875C27.5527 13.875 27.3554 13.7993 27.2049 13.6492C26.9037 13.3477 26.9037 12.8605 27.2049 12.5593L32.6009 7.16333C32.9024 6.86185 33.3896 6.86185 33.6908 7.16333L35.4585 8.93102V1.54157H28.069L29.8367 3.30926C30.1382 3.61046 30.1382 4.09769 29.8367 4.39917L24.4408 9.7951C24.1396 10.0963 23.6524 10.0963 23.3509 9.7951C23.0494 9.49361 23.0494 9.00639 23.3509 8.7049L28.2017 3.85407L25.6634 1.31574C25.4429 1.09528 25.3766 0.76387 25.4963 0.475655C25.6148 0.188003 25.8968 0 26.2085 0H36.2291C36.6554 0 37 0.345238 37 0.770927V10.7916C37 11.1032 36.8126 11.3844 36.5244 11.5038C36.237 11.6235 35.9048 11.558 35.6843 11.3367L33.146 8.79834L28.2951 13.6492C28.1447 13.7993 27.9474 13.875 27.75 13.875Z" fill="#22409A"/>
<path d="M10.7916 37H0.770927C0.345238 37 0 36.6554 0 36.2291V26.2085C0 25.8968 0.188003 25.6148 0.475655 25.4963C0.76387 25.376 1.09471 25.4421 1.31574 25.6634L3.85407 28.2017L8.7049 23.3509C9.00639 23.0494 9.49361 23.0494 9.7951 23.3509C10.0963 23.6524 10.0963 24.1396 9.7951 24.4408L4.39917 29.8367C4.09769 30.1382 3.61046 30.1382 3.30926 29.8367L1.54157 28.069V35.4585H8.93102L7.16333 33.6908C6.86185 33.3896 6.86185 32.9024 7.16333 32.6009L12.5593 27.2049C12.8605 26.9037 13.3477 26.9037 13.6492 27.2049C13.9507 27.5064 13.9507 27.9937 13.6492 28.2951L8.79834 33.146L11.3367 35.6843C11.5571 35.9048 11.6235 36.2362 11.5038 36.5244C11.3844 36.8126 11.1032 37 10.7916 37Z" fill="#22409A"/>
<path d="M18.5001 18.5C16.375 18.5 14.646 16.771 14.646 14.6459V13.1041C14.646 10.979 16.375 9.25 18.5001 9.25C20.6251 9.25 22.3541 10.979 22.3541 13.1041V14.6459C22.3541 16.771 20.6251 18.5 18.5001 18.5ZM18.5001 10.7916C17.225 10.7916 16.1876 11.8293 16.1876 13.1041V14.6459C16.1876 15.9207 17.225 16.9584 18.5001 16.9584C19.7752 16.9584 20.8126 15.9207 20.8126 14.6459V13.1041C20.8126 11.8293 19.7752 10.7916 18.5001 10.7916Z" fill="#22409A"/>
<path d="M20.8139 26.2084H16.1861C13.5845 26.2075 11.86 24.5132 11.7883 24.4407C11.6435 24.2967 11.5625 24.1008 11.5625 23.8959V21.2249C11.5625 20.7069 11.8191 20.2273 12.2502 19.9413L16.1875 17.3166V16.9584H17.7291V17.729C17.7291 17.9865 17.6003 18.227 17.3861 18.3704L13.1041 21.2249V23.5436C13.5667 23.9089 14.7029 24.666 16.1867 24.6665H20.8139C22.3117 24.666 23.4372 23.912 23.8959 23.5467V21.2249L19.6139 18.3704C19.3997 18.227 19.2709 17.9865 19.2709 17.729V16.9584H20.8125V17.3166L24.7507 19.9422C25.1809 20.229 25.4375 20.7083 25.4375 21.2249V23.8959C25.4375 24.1008 25.3565 24.2967 25.2117 24.4407C25.1391 24.5132 23.4155 26.2075 20.8139 26.2084Z" fill="#22409A"/>
<path d="M17.729 0H19.2709V1.54157H17.729V0Z" fill="#22409A"/>
<path d="M17.729 3.08337H19.2709V4.62495H17.729V3.08337Z" fill="#22409A"/>
<path d="M17.729 6.16663H19.2709V7.70848H17.729V6.16663Z" fill="#22409A"/>
<path d="M17.729 29.2916H19.2709V30.8335H17.729V29.2916Z" fill="#22409A"/>
<path d="M17.729 32.375H19.2709V33.9166H17.729V32.375Z" fill="#22409A"/>
<path d="M17.729 35.4584H19.2709V36.9999H17.729V35.4584Z" fill="#22409A"/>
<path d="M0 17.7291H1.54157V19.271H0V17.7291Z" fill="#22409A"/>
<path d="M3.0835 17.7291H4.62507V19.271H3.0835V17.7291Z" fill="#22409A"/>
<path d="M6.1665 17.7291H7.70836V19.271H6.1665V17.7291Z" fill="#22409A"/>
<path d="M29.2915 17.7291H30.8334V19.271H29.2915V17.7291Z" fill="#22409A"/>
<path d="M32.375 17.7291H33.9166V19.271H32.375V17.7291Z" fill="#22409A"/>
<path d="M35.4585 17.7291H37.0001V19.271H35.4585V17.7291Z" fill="#22409A"/>
</g>
<defs>
<clipPath id="clip0_150_46">
<rect width="37" height="37" fill="white"/>
</clipPath>
</defs>
</svg>
