<svg width="46" height="42" viewBox="0 0 46 42" fill="none" xmlns="http://www.w3.org/2000/svg">
<path fill-rule="evenodd" clip-rule="evenodd" d="M29.8782 6.04898C29.8782 2.5819 26.1732 0.270508 23.2782 0.270508C21.2632 0.270508 21.1057 1.68508 20.7957 4.47723C20.6582 5.70227 20.4932 7.1908 20.1282 8.93821C19.1632 13.5656 15.8282 19.4781 12.6382 21.2464V34.9413C12.6282 40.1419 14.5032 41.8755 22.6282 41.8755H32.0607C37.5007 41.8755 38.8182 38.5633 39.3082 37.3359L39.3407 37.2527C39.6257 36.5454 40.2357 35.9884 40.9357 35.3574C41.7107 34.6501 42.5957 33.848 43.2532 32.6299C44.0307 31.1899 43.9282 29.9094 43.8357 28.7699C43.7782 28.0788 43.7257 27.4409 43.8782 26.8515C44.0382 26.2274 44.2432 25.7536 44.4407 25.3005C44.7982 24.4777 45.1282 23.7149 45.1282 22.2287C45.1282 18.7616 43.2582 16.4548 39.3407 16.4548H28.8782C28.8782 16.4548 29.8782 9.51606 29.8782 6.04898ZM3.87817 18.7616C2.88361 18.7616 1.92978 19.1269 1.22652 19.7771C0.523261 20.4273 0.128174 21.3092 0.128174 22.2287V38.4084C0.128174 39.3279 0.523261 40.2098 1.22652 40.86C1.92978 41.5102 2.88361 41.8755 3.87817 41.8755C4.87274 41.8755 5.82656 41.5102 6.52982 40.86C7.23309 40.2098 7.62817 39.3279 7.62817 38.4084V22.2287C7.62817 21.3092 7.23309 20.4273 6.52982 19.7771C5.82656 19.1269 4.87274 18.7616 3.87817 18.7616Z" fill="#00FF99"/>
</svg>
