<svg width="50" height="50" viewBox="0 0 50 50" fill="none" xmlns="http://www.w3.org/2000/svg">
<g clip-path="url(#clip0_150_82)">
<path d="M48.9583 46.8743H1.0417C0.466699 46.8743 0 47.341 0 47.916C0 48.491 0.466699 48.9577 1.0417 48.9577H48.9584C49.5334 48.9577 50.0001 48.491 50.0001 47.916C50 47.341 49.5333 46.8743 48.9583 46.8743Z" fill="#22409A"/>
<path d="M3.1251 44.7909C4.53135 44.7909 5.71055 43.8514 6.1001 42.5701C8.42715 42.3826 10.7521 41.9681 13.0396 41.3368C13.6021 42.1618 14.5501 42.7076 15.6251 42.7076C17.348 42.7076 18.7501 41.3056 18.7501 39.5826C18.7501 39.4431 18.7271 39.3097 18.7084 39.1743C21.6021 37.816 24.2876 36.0889 26.7126 34.0223C27.1397 34.239 27.6147 34.3743 28.1251 34.3743C29.848 34.3743 31.2501 32.9723 31.2501 31.2493C31.2501 30.7389 31.1147 30.2639 30.898 29.8368C32.9668 27.4098 34.6918 24.7264 36.0501 21.8326C36.1856 21.8514 36.3189 21.8743 36.4584 21.8743C38.1814 21.8743 39.5834 20.4723 39.5834 18.7493C39.5834 17.6743 39.0376 16.7243 38.2084 16.1618C39.1063 12.9639 39.5834 9.63682 39.5834 6.24932V4.59717L44.0542 9.06797C44.2584 9.27217 44.525 9.37422 44.7917 9.37422C45.0584 9.37422 45.325 9.27217 45.5292 9.07002C45.9355 8.66377 45.9355 8.00332 45.5292 7.59707L39.2813 1.34922C39.1856 1.25342 39.0689 1.17627 38.9418 1.12217C38.6876 1.01592 38.4001 1.01592 38.146 1.12217C38.0168 1.17422 37.9022 1.25137 37.8064 1.34922L31.5585 7.59717C31.1522 8.00342 31.1522 8.66387 31.5585 9.07012C31.9647 9.47637 32.6252 9.47637 33.0314 9.07012L37.5001 4.59717V6.24922C37.5001 9.46592 37.0459 12.62 36.1897 15.6513C34.5938 15.7908 33.3334 17.118 33.3334 18.7492C33.3334 19.5784 33.6647 20.3305 34.1939 20.8909C32.9272 23.6034 31.3147 26.1201 29.3876 28.3972C29.0001 28.2242 28.5751 28.1242 28.1251 28.1242C26.4022 28.1242 25.0001 29.5263 25.0001 31.2492C25.0001 31.6992 25.1001 32.1242 25.2709 32.5117C22.9939 34.4388 20.4771 36.0513 17.7647 37.318C17.2063 36.7888 16.4542 36.4575 15.6251 36.4575C13.9938 36.4575 12.6646 37.72 12.5271 39.3158C10.3792 39.9138 8.19795 40.3033 6.0167 40.4866C5.54795 39.3471 4.43125 38.5408 3.125 38.5408C1.40205 38.5408 0 39.9429 0 41.6658C9.76563e-05 43.3888 1.40215 44.7909 3.1251 44.7909ZM36.4584 17.7075C37.0314 17.7075 37.5001 18.1763 37.5001 18.7492C37.5001 19.3222 37.0314 19.7909 36.4584 19.7909C35.8855 19.7909 35.4167 19.3222 35.4167 18.7492C35.4168 18.1763 35.8856 17.7075 36.4584 17.7075ZM28.1251 30.2075C28.698 30.2075 29.1668 30.6763 29.1668 31.2492C29.1668 31.8222 28.698 32.2909 28.1251 32.2909C27.5522 32.2909 27.0834 31.8222 27.0834 31.2492C27.0834 30.6763 27.5522 30.2075 28.1251 30.2075ZM15.6251 38.5409C16.198 38.5409 16.6668 39.0097 16.6668 39.5826C16.6668 40.1556 16.198 40.6243 15.6251 40.6243C15.0522 40.6243 14.5834 40.1556 14.5834 39.5826C14.5834 39.0097 15.0522 38.5409 15.6251 38.5409ZM3.1251 40.6242C3.69805 40.6242 4.1668 41.093 4.1668 41.6659C4.1668 42.2389 3.69805 42.7076 3.1251 42.7076C2.55215 42.7076 2.0834 42.2389 2.0834 41.6659C2.0834 41.093 2.55215 40.6242 3.1251 40.6242Z" fill="#22409A"/>
</g>
<defs>
<clipPath id="clip0_150_82">
<rect width="50" height="50" fill="white"/>
</clipPath>
</defs>
</svg>
