<svg width="40" height="40" viewBox="0 0 40 40" fill="none" xmlns="http://www.w3.org/2000/svg">
<path d="M39.5548 7.64857C39.1716 3.79444 36.0888 0.711771 32.2344 0.328175L31.0651 0.207808C31.0012 0.207808 30.9398 0.200439 30.876 0.200439C29.9204 0.200439 29.0975 0.930026 29.0017 1.89782C28.901 2.93441 29.6551 3.86051 30.6942 3.96119L31.8634 4.08156C33.9391 4.28789 35.5997 5.94847 35.806 8.02411L35.9264 9.19338C36.0271 10.2251 36.9335 10.9989 37.9897 10.8859C39.0263 10.7851 39.783 9.85417 39.6822 8.82249L39.5618 7.65321L39.5548 7.64857Z" fill="#00FF99"/>
<path d="M10.689 0.630545C10.35 0.352966 9.93486 0.203125 9.50008 0.203125C9.43622 0.203125 9.3748 0.203124 9.31094 0.215406L8.14166 0.335773C4.28753 0.718973 1.20486 3.80178 0.821264 7.65617L0.700896 8.82545C0.59281 9.86204 1.35433 10.7881 2.39337 10.8888C3.44964 11.0018 4.35606 10.228 4.45674 9.19634L4.57711 8.02706C4.78345 5.95137 6.44403 4.29084 8.51966 4.08451L9.68894 3.96415C10.7255 3.85606 11.4822 2.93246 11.3814 1.90078C11.3323 1.39721 11.0866 0.945245 10.6961 0.630822L10.689 0.630545Z" fill="#00FF99"/>
<path d="M0.81659 31.7457C1.1998 35.5999 4.2826 38.6825 8.13699 39.0661L9.30626 39.1865C10.3625 39.2946 11.269 38.5257 11.3696 37.494C11.4188 36.9905 11.2689 36.5016 10.9545 36.1111C10.6327 35.7205 10.1807 35.4822 9.68454 35.4331L8.51526 35.3127C6.43957 35.1064 4.77904 33.4458 4.57271 31.3702L4.45235 30.2009C4.359 29.2331 3.53366 28.5035 2.57807 28.5035C2.5142 28.5035 2.45279 28.5035 2.38893 28.5109C1.35724 28.6116 0.595708 29.5426 0.696449 30.5743L0.816817 31.7436L0.81659 31.7457Z" fill="#00FF99"/>
<path d="M37.7933 28.501C36.8378 28.501 36.0149 29.2306 35.9141 30.1984L35.7938 31.3676C35.5874 33.4433 33.9269 35.1039 31.8512 35.3102L30.6819 35.4306C29.6454 35.5313 28.8887 36.4622 28.9895 37.4939C29.0902 38.5256 30.0015 39.292 31.0528 39.1864L32.2221 39.066C36.0762 38.6828 39.1589 35.6 39.5425 31.7456L39.6629 30.5764C39.7636 29.5398 39.0094 28.6137 37.9704 28.513C37.9065 28.513 37.8451 28.5056 37.7813 28.5056L37.7933 28.501Z" fill="#00FF99"/>
<path d="M7.427 15.7474C6.01945 18.1817 6.01945 21.2129 7.427 23.6451C9.37743 27.0104 13.1677 31.0145 20.1857 31.0145C27.2036 31.0145 30.9961 27.0081 32.9443 23.6451C34.3519 21.2107 34.3519 18.1795 32.9443 15.7474C30.9939 12.382 27.2036 8.37793 20.1857 8.37793C13.1677 8.37793 9.37516 12.3844 7.427 15.7474ZM29.6749 17.6413C30.4119 18.9112 30.4119 20.4907 29.6749 21.7607C27.5379 25.4527 24.4305 27.2509 20.1781 27.2509C15.9257 27.2509 12.8212 25.4576 10.6813 21.7607C9.94433 20.4908 9.94433 18.9113 10.6813 17.6413C12.8183 13.9493 15.9257 12.1511 20.1781 12.1511C24.4305 12.1511 27.535 13.9444 29.6749 17.6413Z" fill="#00FF99"/>
</svg>
