<svg width="55" height="61" viewBox="0 0 55 61" fill="none" xmlns="http://www.w3.org/2000/svg">
<path d="M43.897 44.1709C44.7817 43.8383 45.4372 43.3152 45.8409 42.6178C46.1638 42.056 46.3123 41.4037 46.2703 40.6772C46.238 40.0346 46.054 39.3308 45.7279 38.5816C45.1337 37.2028 44.0553 35.6627 42.5345 34.0062C41.6207 33.0118 40.5713 32.0043 39.409 30.9937C40.5713 29.9863 41.6175 28.9757 42.5345 27.9812C44.0585 26.3216 45.1305 24.7846 45.7279 23.4058C46.0507 22.6567 46.2348 21.9528 46.2703 21.3102C46.3091 20.587 46.1637 19.9347 45.8409 19.3696C45.4373 18.6722 44.7851 18.1523 43.897 17.8166C43.1286 17.526 42.1729 17.3774 41.0588 17.3774C38.7986 17.3774 35.8635 17.9812 32.5573 19.1243C32.2667 17.6132 31.9148 16.1989 31.5112 14.9105C30.8363 12.7633 30.0389 11.0618 29.1444 9.85732C28.6601 9.20186 28.1403 8.69166 27.601 8.33978C26.9939 7.94262 26.3546 7.74243 25.7056 7.74243C25.0566 7.74243 24.4173 7.94262 23.8102 8.33978C23.2742 8.6885 22.7512 9.19869 22.2668 9.85732C21.3724 11.0649 20.5748 12.7633 19.9 14.9105C19.4964 16.1989 19.1445 17.6131 18.8539 19.1243C15.5475 17.9813 12.6092 17.3774 10.3524 17.3774C9.23835 17.3774 8.28264 17.526 7.51416 17.8166C6.62945 18.1491 5.97396 18.6723 5.57356 19.3696C5.24744 19.9315 5.10214 20.5838 5.14089 21.3102C5.17641 21.9528 5.35722 22.6567 5.68334 23.4058C6.28069 24.7846 7.35587 26.3247 8.87672 27.9812C9.79052 28.9757 10.8399 29.9863 12.0022 30.9937C10.8399 32.0012 9.79044 33.0118 8.87672 34.0062C7.35265 35.6659 6.28072 37.2028 5.68334 38.5816C5.36046 39.3307 5.17641 40.0346 5.14089 40.6772C5.10214 41.4005 5.24744 42.0527 5.57356 42.6178C5.97395 43.3152 6.62937 43.8383 7.51416 44.1709C8.28586 44.4615 9.23835 44.61 10.3524 44.61C12.6094 44.61 15.5477 44.003 18.8539 42.8632C19.1445 44.3743 19.4964 45.7886 19.9 47.0769C20.5749 49.2241 21.3723 50.9257 22.2668 52.1301C22.7511 52.7856 23.2743 53.2958 23.8102 53.6477C24.4173 54.0448 25.0566 54.245 25.7056 54.245C26.3546 54.245 26.9939 54.0448 27.601 53.6477C28.1402 53.2989 28.66 52.7887 29.1444 52.1301C30.0388 50.9258 30.8364 49.2241 31.5112 47.0769C31.9148 45.7853 32.2667 44.3743 32.5573 42.8632C35.8637 44.0062 38.7988 44.61 41.0588 44.61C42.1729 44.6068 43.1286 44.4615 43.897 44.1709ZM41.0588 19.1408C41.9597 19.1408 42.7056 19.2505 43.2771 19.4637C43.7711 19.6509 44.123 19.9157 44.3136 20.2483C44.7204 20.9522 44.4298 21.9725 44.1134 22.7055C43.6032 23.884 42.6087 25.2983 41.2364 26.79C40.3097 27.7975 39.2345 28.8242 38.0398 29.8478C36.6385 28.7176 35.1015 27.594 33.4677 26.5091C33.345 24.5491 33.1416 22.657 32.8607 20.8779C36.0315 19.7607 38.8761 19.1408 41.0588 19.1408ZM28.7798 36.3149C27.753 36.9058 26.7262 37.4644 25.7092 37.9875C24.6888 37.4644 23.662 36.9058 22.6385 36.3149C21.615 35.724 20.6172 35.1138 19.6518 34.4906C19.5937 33.3444 19.5678 32.1755 19.5678 30.9937C19.5678 29.8119 19.5969 28.643 19.6518 27.4968C20.6172 26.8769 21.615 26.2666 22.6385 25.6725C23.6621 25.0816 24.6889 24.5231 25.7092 24C26.7295 24.5231 27.7563 25.0817 28.7798 25.6725C29.8034 26.2666 30.8011 26.8736 31.7665 27.4968C31.8246 28.643 31.8537 29.8119 31.8537 30.9937C31.8537 32.1755 31.8246 33.3444 31.7665 34.4906C30.8011 35.1106 29.8001 35.7241 28.7798 36.3149ZM31.6212 36.6636C31.5114 37.9778 31.3629 39.2532 31.1821 40.4802C30.0391 40.0282 28.8573 39.5147 27.6626 38.9529C28.331 38.5945 28.9961 38.2232 29.6581 37.8421C30.3232 37.4547 30.9787 37.0608 31.6212 36.6636ZM23.7524 38.9497C22.5578 39.5115 21.3792 40.0249 20.2297 40.477C20.0489 39.2532 19.9004 37.9778 19.7906 36.6604C20.4332 37.0608 21.0886 37.4515 21.7538 37.8358C22.4189 38.22 23.0841 38.5912 23.7524 38.9497ZM17.8372 33.2797C16.7523 32.5274 15.7222 31.7622 14.7536 30.9937C15.7222 30.2252 16.7523 29.4567 17.8372 28.7077C17.8146 29.4632 17.8016 30.2252 17.8016 30.9937C17.8016 31.7622 17.8146 32.5242 17.8372 33.2797ZM19.7907 25.3238C19.9004 24.0063 20.0457 22.7342 20.2298 21.5104C21.376 21.9625 22.5546 22.4727 23.7525 23.0377C23.0841 23.3961 22.4189 23.7675 21.757 24.1485C21.0886 24.5327 20.4364 24.9234 19.7907 25.3238ZM27.6626 23.0377C28.8573 22.4727 30.0391 21.9625 31.1821 21.5104C31.3662 22.7342 31.5115 24.0096 31.6212 25.3238C30.9787 24.9266 30.3232 24.5327 29.6581 24.1484C28.9962 23.7642 28.3278 23.3962 27.6626 23.0377ZM33.5747 28.7044C34.6596 29.4568 35.6928 30.222 36.6583 30.9905C35.6928 31.759 34.6596 32.5242 33.5747 33.2765C33.5973 32.521 33.6102 31.759 33.6102 30.9905C33.6102 30.2252 33.5973 29.46 33.5747 28.7044ZM23.6779 10.907C24.1525 10.2677 24.892 9.50572 25.7056 9.50572C26.5225 9.50572 27.2587 10.2677 27.7333 10.907C28.4986 11.9403 29.2251 13.5063 29.8321 15.4404C30.2422 16.7481 30.5941 18.1914 30.8847 19.7413C29.1992 20.3935 27.4557 21.162 25.7056 22.0305C23.9555 21.1619 22.2119 20.3902 20.5265 19.7413C20.8171 18.1914 21.169 16.7481 21.5791 15.4436C22.1861 13.5063 22.9126 11.9403 23.6779 10.907ZM10.1746 26.7901C8.80563 25.2983 7.80784 23.8841 7.29767 22.7055C6.98124 21.9758 6.69064 20.9555 7.09748 20.2483C7.29122 19.9125 7.63993 19.6477 8.13717 19.4637C8.70868 19.2473 9.45459 19.1408 10.3554 19.1408C12.5381 19.1408 15.3828 19.7607 18.5504 20.8812C18.2727 22.6603 18.0693 24.5524 17.9433 26.5124C16.3095 27.5973 14.7726 28.7209 13.3713 29.8511C12.1734 28.8243 11.0981 27.7974 10.1746 26.7901ZM10.3522 42.8475C9.4514 42.8475 8.70548 42.7377 8.13397 42.5246C7.63672 42.3373 7.28803 42.0726 7.09428 41.74C6.68744 41.0329 6.97804 40.0158 7.29447 39.2828C7.80464 38.101 8.79912 36.69 10.1714 35.1982C11.0981 34.1908 12.1701 33.1641 13.368 32.1405C14.7694 33.2706 16.3063 34.3943 17.9401 35.4792C18.0628 37.4391 18.2695 39.328 18.5471 41.1104C15.3796 42.2276 12.535 42.8475 10.3522 42.8475ZM27.733 51.0779C27.2584 51.7172 26.5222 52.4824 25.7053 52.4824C24.8916 52.4824 24.1522 51.7204 23.6776 51.0779C22.9123 50.0446 22.1858 48.4787 21.5788 46.5445C21.1687 45.2401 20.8168 43.7935 20.5262 42.2437C22.2117 41.5946 23.952 40.8229 25.7053 39.9544C27.4554 40.823 29.199 41.5947 30.8844 42.2469C30.5938 43.7967 30.2451 45.2401 29.8318 46.5445C29.2248 48.4786 28.4983 50.0479 27.733 51.0779ZM33.4707 35.4759C35.1046 34.3878 36.6415 33.2673 38.0428 32.1372C39.2375 33.1608 40.3127 34.1908 41.2394 35.195C42.6084 36.6867 43.603 38.1009 44.1164 39.2795C44.4328 40.0092 44.7234 41.0296 44.3166 41.7367C44.1228 42.0693 43.7741 42.3341 43.2801 42.5213C42.7086 42.7377 41.9627 42.8442 41.0619 42.8442C38.8791 42.8442 36.0345 42.2243 32.8669 41.1038C33.1446 39.328 33.348 37.4359 33.4707 35.4759Z" fill="#00FF99"/>
<path d="M28.3022 30.6098C28.3022 34.2746 22.8066 34.2746 22.8066 30.6098C22.8066 26.945 28.3022 26.945 28.3022 30.6098Z" fill="#00FF99"/>
<path d="M54.1813 0.687866L51.4012 2.0634L48.6211 0.687866L49.9966 3.46795L48.6211 6.24804L51.4012 4.8725L54.1813 6.24804L52.8025 3.46795L54.1813 0.687866Z" fill="#00FF99"/>
<path d="M38.9697 13.5967L41.0007 14.6042L39.9965 12.57L41.0007 10.5391L38.9697 11.5465L36.9355 10.5391L37.943 12.57L36.9355 14.6042L38.9697 13.5967Z" fill="#00FF99"/>
<path d="M8.44996 11.4236L9.91585 12.1469L9.18934 10.6842L9.91585 9.22156L8.44996 9.94483L6.9873 9.22156L7.71381 10.6842L6.9873 12.1469L8.44996 11.4236Z" fill="#00FF99"/>
<path d="M46.4233 56.4863L43.6787 55.127L45.0348 57.8683L43.6787 60.6096L46.4233 59.2503L49.1613 60.6096L47.8052 57.8683L49.1613 55.127L46.4233 56.4863Z" fill="#00FF99"/>
<path d="M2.16121 48.8981L0.136719 47.8939L1.13764 49.9184L0.136719 51.9429L2.16121 50.942L4.18893 51.9429L3.18479 49.9184L4.18893 47.8939L2.16121 48.8981Z" fill="#00FF99"/>
</svg>
