<svg width="31" height="19" viewBox="0 0 31 19" fill="none" xmlns="http://www.w3.org/2000/svg">
<path d="M21.3877 10.979H3.19188C1.9734 10.979 0.958008 10.4054 0.958008 9.7172C0.958008 9.02896 1.9734 8.45542 3.19188 8.45542H21.4284C22.6468 8.45542 23.6622 9.02896 23.6622 9.7172C23.6216 10.4054 22.6468 10.979 21.3877 10.979Z" fill="#F5F7FA"/>
<path d="M13.5083 18.5203H3.19188C1.9734 18.5203 0.958008 17.9468 0.958008 17.2585C0.958008 16.5703 1.9734 15.9967 3.19188 15.9967H13.5083C14.7268 15.9967 15.7422 16.5703 15.7422 17.2585C15.7422 17.9697 14.7268 18.5203 13.5083 18.5203Z" fill="#F5F7FA"/>
<path d="M28.4955 3.43766H3.19188C1.9734 3.43766 0.958008 2.86412 0.958008 2.17588C0.958008 1.48763 1.9734 0.914095 3.19188 0.914095H28.5361C29.7546 0.914095 30.77 1.48763 30.77 2.17588C30.7294 2.86412 29.7546 3.43766 28.4955 3.43766Z" fill="#F5F7FA"/>
</svg>
