<svg width="18" height="19" viewBox="0 0 18 19" fill="none" xmlns="http://www.w3.org/2000/svg">
<path fill-rule="evenodd" clip-rule="evenodd" d="M2.25173 8.47993C2.25173 6.93375 2.84482 5.4509 3.90052 4.35759C4.95622 3.26428 6.38806 2.65006 7.88105 2.65006C9.37404 2.65006 10.8059 3.26428 11.8616 4.35759C12.9173 5.4509 13.5104 6.93375 13.5104 8.47993C13.5104 10.0261 12.9173 11.509 11.8616 12.6023C10.8059 13.6956 9.37404 14.3098 7.88105 14.3098C6.38806 14.3098 4.95622 13.6956 3.90052 12.6023C2.84482 11.509 2.25173 10.0261 2.25173 8.47993ZM7.88105 0.318115C6.63229 0.318115 5.40139 0.625434 4.28981 1.21475C3.17823 1.80406 2.21778 2.65849 1.48761 3.70763C0.757444 4.75678 0.278462 5.97059 0.0901368 7.24906C-0.0981881 8.52752 0.0095357 9.83403 0.404431 11.0609C0.799326 12.2878 1.47009 13.4 2.36144 14.3057C3.25279 15.2115 4.33921 15.8849 5.53118 16.2705C6.72314 16.6561 7.98653 16.7428 9.21722 16.5236C10.4479 16.3043 11.6107 15.7853 12.6097 15.0094C12.6417 15.0535 12.6767 15.0952 12.7144 15.1341L16.092 18.6321C16.3043 18.8445 16.5887 18.962 16.8839 18.9593C17.1791 18.9567 17.4615 18.834 17.6702 18.6179C17.879 18.4017 17.9974 18.1092 18 17.8035C18.0025 17.4978 17.889 17.2033 17.684 16.9834L14.3064 13.4855C14.2687 13.4464 14.2285 13.4102 14.1859 13.377C15.0641 12.1644 15.5988 10.7225 15.7303 9.21291C15.8617 7.70329 15.5846 6.18558 14.9301 4.82986C14.2755 3.47413 13.2694 2.33395 12.0244 1.53708C10.7793 0.740201 9.34466 0.318115 7.88105 0.318115Z" fill="white"/>
</svg>
