<svg width="24" height="24" viewBox="0 0 24 24" fill="none" xmlns="http://www.w3.org/2000/svg">
<path fill-rule="evenodd" clip-rule="evenodd" d="M17.7875 23.0297C15.6143 22.4852 11.1654 20.9502 7.13211 16.917C3.09886 12.8837 1.56388 8.4348 1.01939 6.26161C0.706487 5.01272 1.26995 3.80757 2.22537 3.12512L4.73007 1.33604C6.19559 0.28925 8.23432 0.644464 9.25946 2.12522L10.8363 4.40293C11.5057 5.36978 11.2748 6.69494 10.3179 7.37844L9.06054 8.27655C9.25084 9.00444 9.84269 10.4992 11.6963 12.3528C13.5499 14.2064 15.0447 14.7982 15.7725 14.9885L16.6706 13.7311C17.3542 12.7743 18.6793 12.5433 19.6461 13.2127L21.9239 14.7896C23.4046 15.8148 23.7598 17.8534 22.713 19.319L20.924 21.8237C20.2415 22.7791 19.0364 23.3426 17.7875 23.0297ZM8.6535 15.3956C12.3213 19.0634 16.3689 20.4562 18.3103 20.9427C18.5941 21.0137 18.9372 20.9034 19.1731 20.5731L20.9622 18.0684C21.3111 17.58 21.1928 16.9004 20.6991 16.5586L18.4215 14.9817L17.4577 16.3311C17.0638 16.8825 16.3354 17.315 15.4872 17.132C14.4287 16.9036 12.4718 16.1711 10.1749 13.8742C7.87799 11.5773 7.14548 9.62043 6.91707 8.56186C6.73408 7.71371 7.16659 6.9853 7.71801 6.59142L9.06732 5.62763L7.49044 3.34992C7.14873 2.85633 6.46915 2.73792 5.98065 3.08686L3.47595 4.87593C3.14564 5.11186 3.03536 5.45493 3.10646 5.7387C3.59291 7.68023 4.98573 11.7278 8.6535 15.3956Z" fill="white"/>
</svg>
