<?xml version="1.0" encoding="UTF-8"?> <svg xmlns="http://www.w3.org/2000/svg" width="35" height="20" viewBox="0 0 35 20" fill="none"><path d="M0.4917 19.4828C0.163906 19.1667 0 18.7715 0 18.2974C0 17.8233 0.163906 17.4138 0.4917 17.069L11.2197 6.63793C11.3985 6.49426 11.5922 6.37931 11.8008 6.2931C12.0094 6.2069 12.2329 6.16379 12.4713 6.16379C12.7097 6.16379 12.9406 6.2069 13.1641 6.2931C13.3876 6.37931 13.5739 6.49426 13.7228 6.63793L19.6232 12.3276L28.9208 3.44828H26.06C25.5535 3.44828 25.1288 3.28305 24.7861 2.95259C24.4435 2.62212 24.272 2.21264 24.272 1.72414C24.272 1.23564 24.4435 0.826155 24.7861 0.495689C25.1288 0.165224 25.5535 0 26.06 0H33.212C33.7187 0 34.1434 0.165224 34.486 0.495689C34.8287 0.826155 35 1.23564 35 1.72414V8.62069C35 9.10914 34.8287 9.51862 34.486 9.84914C34.1434 10.1797 33.7187 10.3448 33.212 10.3448C32.7055 10.3448 32.2808 10.1797 31.9381 9.84914C31.5955 9.51862 31.424 9.10914 31.424 8.62069V5.86207L20.8748 16.0345C20.696 16.2069 20.5024 16.329 20.2937 16.4009C20.0852 16.4728 19.8617 16.5086 19.6232 16.5086C19.3849 16.5086 19.1614 16.4728 18.9527 16.4009C18.7442 16.329 18.5504 16.2069 18.3716 16.0345L12.4713 10.3448L2.9502 19.5259C2.62241 19.8419 2.22011 20 1.7433 20C1.26649 20 0.8493 19.8276 0.4917 19.4828Z" fill="#00FF99"></path></svg> 