<?xml version="1.0" encoding="UTF-8"?> <svg xmlns="http://www.w3.org/2000/svg" width="25" height="31" viewBox="0 0 25 31" fill="none"><path fill-rule="evenodd" clip-rule="evenodd" d="M12.5 20.535C13.9583 20.535 15.2734 20.173 16.4453 19.449C17.6172 18.7251 18.5417 17.7707 19.2187 16.586C18.3073 15.8226 17.2786 15.2367 16.1328 14.8287C14.987 14.4206 13.7761 14.2166 12.5 14.2166C11.2239 14.2166 10.013 14.4206 8.86719 14.8287C7.72136 15.2367 6.6927 15.8226 5.78125 16.586C6.45833 17.7707 7.38281 18.7251 8.55469 19.449C9.72656 20.173 11.0417 20.535 12.5 20.535ZM12.5 12.6369C13.3594 12.6369 14.095 12.3276 14.707 11.7089C15.3191 11.0902 15.625 10.3465 15.625 9.47771C15.625 8.60892 15.3191 7.86519 14.707 7.2465C14.095 6.62781 13.3594 6.31847 12.5 6.31847C11.6406 6.31847 10.905 6.62781 10.293 7.2465C9.68094 7.86519 9.375 8.60892 9.375 9.47771C9.375 10.3465 9.68094 11.0902 10.293 11.7089C10.905 12.3276 11.6406 12.6369 12.5 12.6369ZM12.5 27.4064C15.677 24.4577 18.0339 21.779 19.5703 19.3701C21.1067 16.9611 21.875 14.822 21.875 12.9529C21.875 10.0832 20.97 7.73354 19.1602 5.90382C17.3503 4.0741 15.1302 3.15924 12.5 3.15924C9.86984 3.15924 7.64973 4.0741 5.83984 5.90382C4.02995 7.73354 3.125 10.0832 3.125 12.9529C3.125 14.822 3.89323 16.9611 5.42969 19.3701C6.96614 21.779 9.32292 24.4577 12.5 27.4064ZM12.5 31C12.2917 31 12.0833 30.9605 11.875 30.8815C11.6667 30.8025 11.4844 30.6972 11.3281 30.5656C7.52605 27.1694 4.6875 24.0168 2.8125 21.1076C0.9375 18.1985 0 15.4803 0 12.9529C0 9.00382 1.25652 5.85774 3.76953 3.51465C6.28255 1.17156 9.1927 0 12.5 0C15.8073 0 18.7175 1.17156 21.2305 3.51465C23.7434 5.85774 25 9.00382 25 12.9529C25 15.4803 24.0625 18.1985 22.1875 21.1076C20.3125 24.0168 17.4739 27.1694 13.6719 30.5656C13.5156 30.6972 13.3333 30.8025 13.125 30.8815C12.9167 30.9605 12.7083 31 12.5 31Z" fill="#00FF99"></path></svg> 