<?xml version="1.0" encoding="UTF-8"?> <svg xmlns="http://www.w3.org/2000/svg" width="26" height="32" viewBox="0 0 26 32" fill="none"><path fill-rule="evenodd" clip-rule="evenodd" d="M13 32C12.7021 32 12.4244 31.9797 12.1672 31.9391C11.91 31.8985 11.6729 31.8376 11.4563 31.7563C8.09791 30.5109 5.34896 28.2911 3.20937 25.0965C1.06979 21.9018 0 18.3825 0 14.5381V6.86294C0 6.18613 0.196349 5.577 0.589063 5.03553C0.981777 4.49408 1.48959 4.10152 2.1125 3.85787L11.8625 0.203046C12.2416 0.0676873 12.6209 0 13 0C13.3791 0 13.7584 0.0676873 14.1375 0.203046L23.8875 3.85787C24.5104 4.10152 25.0182 4.49408 25.4109 5.03553C25.8037 5.577 26 6.18613 26 6.86294V14.5381C26 18.3825 24.9303 21.9018 22.7906 25.0965C20.651 28.2911 17.9021 30.5109 14.5437 31.7563C14.3271 31.8376 14.09 31.8985 13.8328 31.9391C13.5756 31.9797 13.2979 32 13 32ZM13 28.8325C15.6271 28.0203 17.8209 26.4162 19.5812 24.0203C21.3416 21.6244 22.3709 18.951 22.6688 16H13V3.20812L3.25 6.86294V15.269C3.25 15.4586 3.27709 15.7023 3.33125 16H13V28.8325Z" fill="#00FF99"></path></svg> 