<?xml version="1.0" encoding="UTF-8"?> <svg xmlns="http://www.w3.org/2000/svg" width="56" height="47" viewBox="0 0 56 47" fill="none"><path d="M26.0263 35.4971H4.24903C3.03062 35.4971 2.04772 34.504 2.04772 33.2958V4.24903C2.04772 3.03062 3.03062 2.04772 4.24903 2.04772H39.7463C40.9647 2.04772 41.9476 3.04084 41.9476 4.24903V17.1598C41.9476 17.7229 42.4083 18.1837 42.9715 18.1837C43.5346 18.1837 43.9953 17.7229 43.9953 17.1598V4.24903C43.9953 1.90441 42.091 0 39.7463 0H4.24903C1.90441 0 0 1.90434 0 4.24903V33.2853C0 35.63 1.90434 37.5344 4.24903 37.5344H26.0263C26.5894 37.5344 27.0501 37.0736 27.0501 36.5105C27.0501 35.9474 26.5894 35.4867 26.0263 35.4867V35.4971Z" fill="#00FF99"></path><path d="M40.7696 7.48431C40.7696 6.92118 40.3089 6.46045 39.7457 6.46045H4.24847C3.68534 6.46045 3.22461 6.92118 3.22461 7.48431C3.22461 8.04743 3.68534 8.50817 4.24847 8.50817H39.7457C40.3089 8.50817 40.7696 8.04743 40.7696 7.48431Z" fill="#00FF99"></path><path d="M5.07806 5.27282C5.64118 5.27282 6.10192 4.81208 6.10192 4.24896C6.10192 3.68583 5.64118 3.2251 5.07806 3.2251C4.51493 3.2251 4.0542 3.68583 4.0542 4.24896C4.0542 4.81208 4.51493 5.27282 5.07806 5.27282Z" fill="#00FF99"></path><path d="M9.3275 4.24847C9.3275 3.68534 8.86677 3.22461 8.30364 3.22461C7.74052 3.22461 7.27979 3.68534 7.27979 4.24847C7.27979 4.81159 7.74052 5.27233 8.30364 5.27233C8.86677 5.27233 9.3275 4.81159 9.3275 4.24847Z" fill="#00FF99"></path><path d="M12.5526 4.24847C12.5526 3.68534 12.0919 3.22461 11.5287 3.22461C10.9656 3.22461 10.5049 3.68534 10.5049 4.24847C10.5049 4.81159 10.9656 5.27233 11.5287 5.27233C12.0919 5.27233 12.5526 4.81159 12.5526 4.24847Z" fill="#00FF99"></path><path d="M54.2643 29.4668H52.3395C52.1654 28.9037 51.9402 28.3508 51.674 27.8287L53.0255 26.4772C53.22 26.2826 53.3224 26.0267 53.3224 25.7502C53.3224 25.4737 53.22 25.2178 53.0255 25.0233L49.6263 21.624C49.2269 21.2247 48.5819 21.2247 48.1826 21.624L46.8209 22.9858C46.2987 22.7093 45.7561 22.4841 45.193 22.31V20.3852C45.193 19.8221 44.7322 19.3613 44.1691 19.3613H39.3569C38.7938 19.3613 38.3331 19.8221 38.3331 20.3852V22.31C37.7699 22.4841 37.2273 22.7094 36.7051 22.9858L35.3434 21.624C35.1489 21.4295 34.8929 21.3271 34.6164 21.3271C34.34 21.3271 34.084 21.4295 33.8997 21.624L30.5005 25.0233C30.091 25.4226 30.091 26.0778 30.5005 26.4772L31.852 27.8287C31.5858 28.3611 31.3605 28.9037 31.1763 29.4668H29.2617C28.6883 29.4668 28.2378 29.9173 28.2378 30.4907V35.2926C28.2378 35.8659 28.6883 36.3164 29.2617 36.3164H31.1763C31.3606 36.8796 31.5858 37.4222 31.852 37.9546L30.5005 39.3061C30.091 39.7054 30.091 40.3607 30.5005 40.76L33.8997 44.1592C34.084 44.3538 34.3502 44.4561 34.6164 44.4561C34.8827 44.4561 35.1489 44.3538 35.3434 44.1592L36.7051 42.7975C37.2273 43.0637 37.7699 43.2992 38.3331 43.4732V45.3981C38.3331 45.9612 38.7938 46.4219 39.3569 46.4219H44.1691C44.7322 46.4219 45.193 45.9612 45.193 45.3981V43.4732C45.7458 43.2889 46.2987 43.0637 46.8209 42.7975L48.1826 44.1592C48.3772 44.3538 48.6434 44.4561 48.8994 44.4561C49.1554 44.4561 49.4215 44.3538 49.6263 44.1592L53.0255 40.76C53.2201 40.5655 53.3224 40.2993 53.3224 40.0331C53.3224 39.7668 53.2201 39.5006 53.0255 39.3061L51.674 37.9546C51.9402 37.4222 52.1655 36.8796 52.3395 36.3164H54.2644C54.8275 36.3164 55.2882 35.8659 55.2882 35.2926V30.4907C55.2882 29.9173 54.8274 29.4668 54.2643 29.4668ZM46.0938 32.8866C46.0938 35.2824 44.1484 37.2277 41.7628 37.2277C39.3772 37.2277 37.4217 35.2824 37.4217 32.8866C37.4217 30.4908 39.367 28.5556 41.7628 28.5556C44.1586 28.5556 46.0938 30.501 46.0938 32.8866Z" fill="#00FF99"></path><path d="M12.2349 16.341C11.8356 15.9417 11.1905 15.9417 10.7912 16.341L5.94841 21.1838C5.5491 21.5831 5.5491 22.2282 5.94841 22.6274L10.9858 27.6648C11.1906 27.8696 11.4465 27.9617 11.7127 27.9617C11.979 27.9617 12.2349 27.8594 12.4397 27.6648C12.839 27.2655 12.839 26.6205 12.4397 26.2212L8.12928 21.9108L12.2452 17.7949C12.6445 17.3956 12.6445 16.7505 12.2452 16.3513L12.2349 16.341Z" fill="#00FF99"></path><path d="M21.8903 27.6649C22.095 27.8696 22.351 27.9618 22.6172 27.9618C22.8834 27.9618 23.1394 27.8594 23.3442 27.6649L28.3816 22.6275C28.5761 22.4329 28.6785 22.177 28.6785 21.9005C28.6785 21.6241 28.5659 21.3681 28.3816 21.1736L23.5387 16.3307C23.1394 15.9314 22.4944 15.9314 22.0951 16.3307C21.6959 16.73 21.6958 17.3751 22.0951 17.7744L26.211 21.8902L21.9006 26.2007C21.5012 26.6 21.5012 27.245 21.9006 27.6443L21.8903 27.6649Z" fill="#00FF99"></path><path d="M17.9996 15.7262L14.3547 27.6645C14.1909 28.2072 14.498 28.7805 15.0304 28.9443C15.1328 28.975 15.2352 28.9853 15.3273 28.9853C15.7676 28.9853 16.1771 28.6986 16.3102 28.2583L19.9551 16.32C20.119 15.7773 19.8118 15.204 19.2794 15.0402C18.7368 14.8763 18.1634 15.1835 17.9996 15.7262Z" fill="#00FF99"></path></svg> 