<?xml version="1.0" encoding="UTF-8"?> <svg xmlns="http://www.w3.org/2000/svg" width="53" height="42" viewBox="0 0 53 42" fill="none"><path d="M8.92461 7.35C9.79519 7.35 10.4996 6.88037 10.4996 6.3C10.4996 5.71963 9.79517 5.25 8.92461 5.25C8.05405 5.25 7.34961 5.71963 7.34961 6.3C7.34961 6.88037 8.05405 7.35 8.92461 7.35Z" fill="#00FF99"></path><path d="M14.7003 6.3C14.7003 6.88039 13.9959 7.35 13.1253 7.35C12.2547 7.35 11.5503 6.88037 11.5503 6.3C11.5503 5.71963 12.2547 5.25 13.1253 5.25C13.9959 5.25 14.7003 5.71963 14.7003 6.3Z" fill="#00FF99"></path><path d="M17.325 7.35C18.1956 7.35 18.9 6.88037 18.9 6.3C18.9 5.71963 18.1956 5.25 17.325 5.25C16.4544 5.25 15.75 5.71963 15.75 6.3C15.75 6.88037 16.4544 7.35 17.325 7.35Z" fill="#00FF99"></path><path fill-rule="evenodd" clip-rule="evenodd" d="M11.1996 14.7002C9.07409 14.7002 7.34961 16.4431 7.34961 18.5914V32.859C7.34961 35.0073 9.07409 36.7502 11.1996 36.7502H26.5996C28.7251 36.7502 30.4496 35.0073 30.4496 32.859V18.5914C30.4496 16.4431 28.7251 14.7002 26.5996 14.7002H11.1996ZM9.91628 18.5914C9.91628 17.8744 10.4903 17.2943 11.1996 17.2943H26.5996C27.309 17.2943 27.8829 17.8744 27.8829 18.5914V32.859C27.8829 33.576 27.309 34.1561 26.5996 34.1561H11.1996C10.4902 34.1561 9.91628 33.576 9.91628 32.859V18.5914Z" fill="#00FF99"></path><path d="M36.0154 17.8501C35.2609 17.8501 34.6504 18.3197 34.6504 18.9001C34.6504 19.4805 35.2609 19.9501 36.0154 19.9501H46.9354C47.6899 19.9501 48.3004 19.4805 48.3004 18.9001C48.3004 18.3197 47.6899 17.8501 46.9354 17.8501H36.0154Z" fill="#00FF99"></path><path d="M36.0154 21C35.2609 21 34.6504 21.4696 34.6504 22.05C34.6504 22.6304 35.2609 23.1 36.0154 23.1H46.9354C47.6899 23.1 48.3004 22.6304 48.3004 22.05C48.3004 21.4696 47.6899 21 46.9354 21H36.0154Z" fill="#00FF99"></path><path d="M36.0154 25.2002C35.2609 25.2002 34.6504 25.6698 34.6504 26.2502C34.6504 26.8306 35.2609 27.3002 36.0154 27.3002H46.9354C47.6899 27.3002 48.3004 26.8306 48.3004 26.2502C48.3004 25.6698 47.6899 25.2002 46.9354 25.2002H36.0154Z" fill="#00FF99"></path><path d="M36.0154 29.3999C35.2609 29.3999 34.6504 29.8695 34.6504 30.4499C34.6504 31.0303 35.2609 31.4999 36.0154 31.4999H46.9354C47.6899 31.4999 48.3004 31.0303 48.3004 30.4499C48.3004 29.8695 47.6899 29.3999 46.9354 29.3999H36.0154Z" fill="#00FF99"></path><path d="M35.8754 33.6001C35.1983 33.6001 34.6504 33.8349 34.6504 34.1251C34.6504 34.4153 35.1983 34.6501 35.8754 34.6501H40.7754C41.4525 34.6501 42.0004 34.4153 42.0004 34.1251C42.0004 33.8349 41.4525 33.6001 40.7754 33.6001H35.8754Z" fill="#00FF99"></path><path fill-rule="evenodd" clip-rule="evenodd" d="M6.5625 0C2.93777 0 0 2.93777 0 6.5625V35.4375C0 39.0622 2.93777 42 6.5625 42H45.9375C49.5622 42 52.5 39.0622 52.5 35.4375V6.5625C52.5 2.93777 49.5622 0 45.9375 0H6.5625ZM2.625 6.5625C2.625 4.38867 4.38867 2.625 6.5625 2.625H45.9375C48.1113 2.625 49.875 4.38867 49.875 6.5625V9.1875H2.625V6.5625ZM2.625 11.8125H49.875V35.4375C49.875 37.6113 48.1113 39.375 45.9375 39.375H6.5625C4.38867 39.375 2.625 37.6113 2.625 35.4375V11.8125Z" fill="#00FF99"></path></svg> 