<svg width="55" height="55" viewBox="0 0 55 55" fill="none" xmlns="http://www.w3.org/2000/svg">
<g clip-path="url(#clip0_150_402)">
<path d="M40.3267 53.6164L35.9789 38.7955C35.9787 38.7947 35.9783 38.7938 35.9781 38.7928L34.4266 33.5042C34.4265 33.5037 34.4263 33.5032 34.4262 33.5027L32.2823 26.1945C32.2819 26.1931 32.2815 26.1917 32.2811 26.1904L28.87 14.5626C30.3716 14.0048 31.4444 12.5577 31.4444 10.8644C31.4444 8.68978 29.6752 6.92065 27.5006 6.92065C25.3261 6.92065 23.5568 8.68989 23.5568 10.8644C23.5568 12.5577 24.6297 14.0049 26.1312 14.5626L19.0231 38.793C19.0229 38.7939 19.0226 38.7948 19.0223 38.7957L14.6745 53.6165C14.5067 54.1884 14.8344 54.7882 15.4063 54.9561C15.979 55.1237 16.578 54.7962 16.7459 54.2242L17.4069 51.9707L27.5007 45.3033L37.5945 51.9707L38.2556 54.2242C38.3936 54.6948 38.8241 55 39.2909 55C39.3915 55 39.4938 54.9858 39.5951 54.9561C40.1668 54.7882 40.4945 54.1884 40.3267 53.6164ZM25.7154 10.8642C25.7154 9.87991 26.5162 9.07908 27.5005 9.07908C28.4848 9.07908 29.2856 9.87991 29.2856 10.8642C29.2856 11.8485 28.4848 12.6494 27.5005 12.6494C26.5162 12.6494 25.7154 11.8486 25.7154 10.8642ZM27.5005 17.5632L29.8092 25.4334H25.1917L27.5005 17.5632ZM24.5584 27.5921H30.4426L31.9541 32.7449H23.0469L24.5584 27.5921ZM18.3482 48.7617L20.6837 40.8004L25.5423 44.0097L18.3482 48.7617ZM21.3194 38.6333L22.4136 34.9035H32.5875L33.6817 38.6333L27.5005 42.7162L21.3194 38.6333ZM29.4588 44.0098L34.3174 40.8005L36.653 48.7618L29.4588 44.0098Z" fill="#22409A"/>
<path d="M22.3694 5.73337C22.7909 5.31185 22.7909 4.62843 22.3694 4.20701C21.9479 3.78549 21.2646 3.78549 20.8429 4.20701C17.1724 7.87783 17.1725 13.8508 20.8431 17.5216C21.0538 17.7324 21.33 17.8378 21.6063 17.8378C21.8825 17.8378 22.1587 17.7323 22.3694 17.5216C22.7909 17.1001 22.7909 16.4167 22.3694 15.9953C19.5401 13.1661 19.5401 8.56254 22.3694 5.73337Z" fill="#22409A"/>
<path d="M34.1578 4.20726C33.7363 3.78573 33.0531 3.78573 32.6313 4.20726C32.2098 4.62878 32.2098 5.3122 32.6313 5.73361C35.4605 8.56278 35.4605 13.1663 32.6313 15.9955C32.2099 16.4168 32.2099 17.1004 32.6314 17.5218C32.8422 17.7325 33.1184 17.8379 33.3947 17.8379C33.671 17.8379 33.947 17.7324 34.1579 17.5218C37.8285 13.8509 37.8285 7.87797 34.1578 4.20726Z" fill="#22409A"/>
<path d="M18.4786 1.8425C18.9002 1.42098 18.9002 0.737559 18.4786 0.316143C18.0571 -0.105381 17.3738 -0.105381 16.9522 0.316143C14.1347 3.13371 12.583 6.87973 12.583 10.8644C12.583 14.849 14.1347 18.5952 16.9522 21.4127C17.163 21.6235 17.4391 21.7289 17.7155 21.7289C17.9919 21.7289 18.2679 21.6234 18.4788 21.4127C18.9003 20.9912 18.9003 20.3078 18.4788 19.8864C13.5038 14.9116 13.5038 6.81721 18.4786 1.8425Z" fill="#22409A"/>
<path d="M40.2102 3.04859C39.8976 2.54113 39.2327 2.38301 38.7251 2.6956C38.2177 3.00831 38.0597 3.67314 38.3722 4.1806C41.4821 9.22879 40.7212 15.6872 36.5222 19.8861C36.1007 20.3076 36.1007 20.9911 36.5222 21.4126C36.733 21.6233 37.0091 21.7287 37.2854 21.7287C37.5616 21.7287 37.8378 21.6233 38.0487 21.4126C40.4358 19.0253 41.9551 15.8663 42.3265 12.5174C42.6921 9.22041 41.9406 5.85757 40.2102 3.04859Z" fill="#22409A"/>
<path d="M37.2855 0C35.8965 0 35.8943 2.15864 37.2855 2.15864C38.6745 2.15864 38.6767 0 37.2855 0Z" fill="#22409A"/>
</g>
<defs>
<clipPath id="clip0_150_402">
<rect width="55" height="55" fill="white"/>
</clipPath>
</defs>
</svg>
