<svg width="56" height="56" viewBox="0 0 56 56" fill="none" xmlns="http://www.w3.org/2000/svg">
<g clip-path="url(#clip0_150_427)">
<path d="M30.7269 0.00374609C33.5501 0.275871 36.2456 0.960996 38.7542 1.99831C38.7704 2.00487 38.7866 2.01275 38.801 2.01887C41.3989 3.09906 43.7959 4.55243 45.9226 6.31118C46.2963 6.61962 46.3492 7.17087 46.0403 7.54362C46.0224 7.56593 46.0036 7.58606 45.9834 7.60443L41.4417 12.1382C41.1084 12.4707 40.5703 12.4786 40.2255 12.1627C38.836 11.0865 37.2964 10.1909 35.6409 9.50581C35.6265 9.49968 35.6125 9.494 35.5981 9.48787C33.9854 8.82462 32.2604 8.36656 30.4592 8.14781C30.0121 8.09356 29.6848 7.71468 29.6866 7.27675H29.6848V0.867371C29.6848 0.383059 30.0786 -0.0102539 30.5646 -0.0102539C30.6189 -0.0102539 30.6736 -0.00631641 30.7269 0.00374609ZM38.0822 3.61575C35.9883 2.75037 33.7614 2.14618 31.444 1.84431V6.51593C33.1201 6.7815 34.7366 7.24175 36.2683 7.87218C36.2823 7.87831 36.2985 7.88225 36.3129 7.89056C37.8875 8.54068 39.3719 9.37412 40.7369 10.3607L44.0479 7.05712C42.2397 5.67112 40.2513 4.51568 38.1268 3.63193C38.1102 3.62625 38.0962 3.62187 38.0822 3.61575ZM25.5146 8.15175C23.7046 8.37487 21.9739 8.83906 20.3551 9.508C18.6834 10.1992 17.1259 11.1114 15.7176 12.2074C15.3646 12.4808 14.8667 12.4445 14.56 12.1365L14.5578 12.1382L10.0166 7.60662C9.67313 7.26406 9.67313 6.70887 10.0166 6.36631C10.0463 6.33568 10.0774 6.30943 10.1115 6.28318C12.2465 4.524 14.6471 3.07281 17.2454 1.99875C17.2616 1.99218 17.276 1.9865 17.2922 1.98037C19.8148 0.942621 22.5225 0.261871 25.3558 -0.00369141C25.8374 -0.0465664 26.264 0.308246 26.3069 0.789059C26.3086 0.815309 26.3108 0.841559 26.3108 0.867809H26.313V7.2785C26.313 7.73437 25.9613 8.1115 25.5146 8.15175ZM19.6914 7.89012C21.2349 7.25181 22.8642 6.78543 24.556 6.51593V1.84387C22.2526 2.144 20.0401 2.74162 17.9607 3.59737C17.9458 3.6035 17.9323 3.60918 17.9178 3.61575C15.7732 4.50343 13.7703 5.665 11.9521 7.05887L15.2631 10.3629C16.6281 9.37587 18.1125 8.54243 19.6914 7.89012ZM12.1979 15.7297C11.1191 17.1205 10.22 18.6566 9.53662 20.3024C8.86244 21.9256 8.39738 23.6607 8.17381 25.4767C8.11913 25.923 7.73937 26.2472 7.30275 26.2472H0.877625C0.392 26.2472 0 25.8561 0 25.3713C0 25.3149 0.004375 25.2619 0.0144375 25.2094C0.286563 22.3959 0.973 19.7061 2.01294 17.2036V17.1997C3.09575 14.5931 4.55788 12.1855 6.33369 10.047C6.64213 9.67425 7.19687 9.6235 7.56875 9.9315C7.59106 9.94768 7.61163 9.96781 7.63131 9.98618L12.1739 14.5182C12.5068 14.8503 12.5147 15.3876 12.1979 15.7297ZM7.91569 19.6374C8.57019 18.0646 9.4045 16.5828 10.3919 15.2209L7.08269 11.9173C5.6875 13.7316 4.522 15.7297 3.63212 17.8699C2.765 19.9577 2.1595 22.1789 1.85675 24.4937H6.53888C6.80925 22.8054 7.27606 21.1796 7.91569 19.6374ZM49.6947 10.0794C51.4557 12.2078 52.9086 14.6049 53.9871 17.201C55.0371 19.7306 55.7279 22.4488 55.9943 25.2926C56.0368 25.7729 55.6811 26.1986 55.2002 26.2411C55.1736 26.2432 55.1473 26.245 55.1228 26.245V26.2472H48.6977C48.2383 26.2472 47.8625 25.8963 47.8223 25.4505C47.5987 23.6445 47.1358 21.9199 46.4651 20.3064H46.4629C45.7682 18.6325 44.8542 17.0776 43.7574 15.675C43.4827 15.3228 43.5194 14.8262 43.8283 14.52L43.8257 14.5178L48.3682 9.984C48.7117 9.64143 49.2682 9.64143 49.6112 9.984C49.6418 10.0142 49.6707 10.0466 49.6947 10.0794ZM52.3679 17.866C51.4806 15.7301 50.3142 13.7312 48.9169 11.9177L45.6059 15.2213C46.5972 16.5854 47.432 18.0646 48.0839 19.6357H48.0821L48.0839 19.6396C48.7239 21.1801 49.1908 22.8058 49.4607 24.4937H54.1432C53.8405 22.1789 53.2332 19.9555 52.3679 17.866ZM55.986 30.6528C55.2956 37.7836 51.9356 44.1331 46.9166 48.6896C41.9217 53.2256 35.2835 55.9897 27.9996 55.9897C20.7174 55.9897 14.0796 53.2261 9.08425 48.6896C4.04425 44.1125 0.676375 37.7329 0.006125 30.5679C-0.03675 30.0871 0.31675 29.6623 0.798438 29.6194C0.824688 29.6172 0.851375 29.6151 0.877625 29.6151V29.6116H7.30275C7.75906 29.6116 8.13488 29.962 8.176 30.4078C8.792 35.3533 11.2206 39.7392 14.7779 42.8739C18.2976 45.9776 22.9272 47.8619 27.9996 47.8619C33.0732 47.8619 37.7024 45.9771 41.223 42.8739C44.7856 39.7331 47.2172 35.3389 47.8266 30.3833C47.8813 29.9375 48.2611 29.6111 48.6981 29.6129V29.6111H55.1228C55.6063 29.6111 56.0009 30.004 56.0009 30.4883C56 30.5461 55.9956 30.6007 55.986 30.6528ZM45.7358 47.3946C50.2368 43.3062 53.3168 37.6878 54.1437 31.3664H49.4611C48.6509 36.4396 46.0753 40.9271 42.3824 44.1838C38.549 47.5648 33.5121 49.6158 27.9991 49.6158C22.4858 49.6158 17.451 47.5648 13.6176 44.1838C9.92469 40.9271 7.34869 36.4396 6.53844 31.3664H1.85675C2.68362 37.6878 5.76319 43.3062 10.2646 47.3946C14.9459 51.6449 21.168 54.2371 27.9996 54.2371C34.832 54.2371 41.0541 51.6445 45.7358 47.3946Z" fill="#22409A"/>
<path d="M34.1052 25.5077C34.7755 27.1894 34.6998 28.9836 34.0379 30.524C33.3733 32.0618 32.1185 33.3507 30.4285 34.0218C28.741 34.6903 26.9429 34.6155 25.4007 33.9532C23.859 33.2895 22.5675 32.0378 21.8946 30.3534C21.2244 28.6686 21.2979 26.8748 21.962 25.337C22.6261 23.7966 23.8813 22.5095 25.5714 21.8388C27.2588 21.1694 29.0569 21.2425 30.5987 21.9053C32.1409 22.569 33.4324 23.8211 34.1052 25.5077ZM32.423 29.8306C32.9122 28.7001 32.969 27.3841 32.4777 26.1525V26.1503C31.986 24.9201 31.0397 24.004 29.9039 23.5175C28.7704 23.0292 27.4522 22.9723 26.2171 23.4632C24.982 23.9537 24.0637 24.8978 23.5764 26.0287C23.0872 27.1618 23.0299 28.4796 23.5217 29.7098C24.0134 30.9401 24.9602 31.858 26.0937 32.344C27.229 32.8327 28.5494 32.8874 29.7823 32.3987C31.0174 31.9087 31.9357 30.9637 32.423 29.8306Z" fill="#22409A"/>
<path d="M31.4006 22.5968L42.5105 20.3248C42.9287 20.2395 43.3351 20.3226 43.6786 20.5213C44.0133 20.7155 44.2836 21.0279 44.4324 21.405C44.5825 21.78 44.6004 22.1895 44.4932 22.5605C44.3816 22.9398 44.1419 23.278 43.7801 23.505L34.0991 29.5027C33.6865 29.7578 33.1462 29.6322 32.8903 29.2205C32.7743 29.0381 32.7376 28.829 32.766 28.6325C32.8273 28.2195 32.8356 27.7956 32.787 27.3716C32.738 26.9586 32.6365 26.547 32.4777 26.1497C32.3198 25.7568 32.1106 25.3876 31.8582 25.0538C31.6049 24.7112 31.3083 24.4089 30.981 24.1538C30.5991 23.8537 30.5343 23.3042 30.8327 22.9231C30.9788 22.739 31.184 22.6274 31.4015 22.5968H31.4006ZM42.8027 22.0499L33.2639 24.0011L33.2656 24.0029C33.599 24.4491 33.8834 24.9518 34.1048 25.507C34.324 26.0583 34.4644 26.6178 34.5291 27.173L42.8027 22.0499Z" fill="#22409A"/>
<path d="M30.7782 26.8288C31.0844 27.5945 31.0503 28.4113 30.7497 29.1113C30.4474 29.8104 29.8743 30.3962 29.1043 30.7025C28.3365 31.0061 27.5179 30.9737 26.817 30.6714C26.1162 30.3717 25.5295 29.8003 25.2223 29.0321L25.2184 29.0225C24.9152 28.2577 24.9498 27.4475 25.2508 26.7505C25.5531 26.0514 26.1262 25.4656 26.8962 25.1593L26.9045 25.1554C27.6719 24.8531 28.4848 24.8872 29.1835 25.1878C29.8843 25.4888 30.4715 26.061 30.7782 26.8288ZM29.1345 28.4178C29.2605 28.126 29.2766 27.7874 29.1511 27.4711C29.0246 27.1592 28.781 26.9238 28.4883 26.7978C28.2144 26.6783 27.8994 26.6582 27.5993 26.7597C27.5625 26.7781 27.5236 26.7943 27.4851 26.8061C27.1985 26.9356 26.9833 27.1666 26.8652 27.4427C26.7457 27.7161 26.7252 28.0302 26.8271 28.3286C26.8455 28.3667 26.8621 28.4051 26.8739 28.4458C27.006 28.7298 27.2375 28.945 27.5118 29.0618C27.8045 29.1878 28.1435 29.204 28.4607 29.078C28.7735 28.9529 29.0089 28.7097 29.1345 28.4178Z" fill="#22409A"/>
<path d="M15.1761 25.4205C15.0847 25.8948 14.6218 26.205 14.1462 26.1131C13.6711 26.0203 13.36 25.5601 13.4537 25.0854C13.5591 24.5508 13.6991 24.0096 13.8741 23.4601C14.0443 22.9215 14.2455 22.3983 14.4708 21.8912C14.6677 21.4515 15.1857 21.2529 15.6289 21.4493C16.069 21.6462 16.2681 22.1629 16.0712 22.6048C15.8665 23.0607 15.6897 23.5235 15.5414 23.9873C15.3975 24.4418 15.2754 24.9196 15.1761 25.4205ZM19.3481 18.1519C18.9845 18.4722 18.432 18.438 18.1108 18.0771C17.7897 17.7162 17.8243 17.1632 18.1857 16.8451C18.8196 16.2855 19.5043 15.7785 20.2358 15.3309C20.9445 14.8952 21.7084 14.5145 22.5208 14.1917C25.3987 13.0485 28.4214 12.8682 31.2332 13.4965C34.1251 14.1448 36.7947 15.6485 38.8461 17.8439C39.1747 18.1987 39.155 18.7522 38.8011 19.0803C38.4458 19.411 37.8911 19.39 37.5603 19.0357C35.7521 17.0997 33.4001 15.7728 30.8465 15.2027C28.3685 14.6471 25.7032 14.8059 23.1662 15.8148C22.4596 16.0943 21.785 16.433 21.1493 16.8241C20.4996 17.2218 19.8985 17.6654 19.3481 18.1519Z" fill="#22409A"/>
<path d="M24.0323 37.3616H31.9664C32.7915 37.3616 33.5409 37.698 34.0834 38.2392C34.6229 38.7786 34.9606 39.5259 34.9606 40.3493C34.9606 41.1678 34.6233 41.9133 34.0834 42.4549L34.0812 42.4576L34.0834 42.4593C33.5409 43.0005 32.7915 43.3348 31.9664 43.3348H24.0323C23.2115 43.3348 22.4639 43.0005 21.9214 42.4593L21.9179 42.4549C21.3749 41.9138 21.0398 41.1683 21.0398 40.3493C21.0398 39.5259 21.3749 38.7786 21.9179 38.2392C21.9358 38.2213 21.9537 38.2029 21.9743 38.1871C22.5111 37.6757 23.2378 37.3616 24.0323 37.3616ZM31.9655 39.1151H24.0319C23.709 39.1151 23.4145 39.2406 23.1932 39.4432C23.1827 39.455 23.1726 39.4677 23.1604 39.4773C22.9372 39.7026 22.7964 40.0111 22.7964 40.3493C22.7964 40.687 22.9342 40.9976 23.1582 41.2208C23.3839 41.4434 23.6924 41.5813 24.0314 41.5813H31.9655C32.3054 41.5813 32.6139 41.4413 32.8392 41.2181L32.8409 41.2208C33.0645 40.9976 33.2027 40.687 33.2027 40.3493C33.2027 40.0111 33.0623 39.7022 32.8392 39.4773C32.6139 39.2551 32.3054 39.1151 31.9655 39.1151Z" fill="#22409A"/>
</g>
<defs>
<clipPath id="clip0_150_427">
<rect width="56" height="56" fill="white"/>
</clipPath>
</defs>
</svg>
