<svg width="30" height="29" viewBox="0 0 30 29" fill="none" xmlns="http://www.w3.org/2000/svg">
<path fill-rule="evenodd" clip-rule="evenodd" d="M26.5451 8.05663C24.7745 5.0922 21.9696 3.065 18.8254 2.15517C20.535 3.11151 22.0162 4.50098 23.0748 6.27335C26.2959 11.6665 24.3844 18.5628 18.8052 21.6765C13.2261 24.7903 6.09203 22.9424 2.8709 17.5493C2.32486 16.635 1.92632 15.6776 1.66813 14.7027C1.70069 16.8269 2.27806 18.9729 3.45493 20.9434C7.13619 27.107 15.2894 29.2188 21.6656 25.6602C28.0417 22.1017 30.2264 14.2203 26.5451 8.05663ZM22.8579 13.3645C22.6975 12.4423 22.367 11.5317 21.8549 10.6743C19.5541 6.82196 14.4583 5.50208 10.4733 7.72621C6.48813 9.9503 5.12274 14.8762 7.42356 18.7285C7.93564 19.5859 8.5862 20.3179 9.3322 20.9132C7.29025 20.143 5.49521 18.7215 4.31404 16.7438C2.00916 12.8847 2.77025 8.12783 5.86674 5.10879C6.54866 4.49015 7.30837 3.93227 8.14198 3.44922C12.8984 0.909644 18.903 2.5101 21.6317 7.07877C22.8128 9.05645 23.1888 11.2699 22.8579 13.3645ZM17.972 20.2815C21.1601 18.5022 22.2524 14.5615 20.4118 11.4797C18.5711 8.39785 14.4945 7.34194 11.3065 9.12124C8.11836 10.9005 7.02604 14.8412 8.8667 17.923C10.7073 21.0049 14.7839 22.0608 17.972 20.2815ZM7.50126 1.94473C7.43723 1.98046 7.37357 2.01658 7.31029 2.05308C7.25355 2.08358 7.19693 2.11458 7.14048 2.14608C6.22793 2.6554 5.41348 3.26587 4.7036 3.95442C-0.242542 8.45947 -1.53381 15.8124 2.01179 21.7488C6.15323 28.6829 15.3256 31.0587 22.4988 27.0553C29.6719 23.0519 32.1297 14.1853 27.9882 7.25121C23.8468 0.317127 14.6744 -2.05867 7.50126 1.94473Z" fill="#00FF99"/>
</svg>
