<svg width="92" height="40" viewBox="0 0 92 40" fill="none" xmlns="http://www.w3.org/2000/svg">
<path d="M4.56 24.9909H13.96V28.6709H1.19209e-07V0.870919H4.56V24.9909ZM27.3334 29.0309C25.2534 29.0309 23.3734 28.5643 21.6934 27.6309C20.0134 26.6709 18.6934 25.3376 17.7334 23.6309C16.7734 21.8976 16.2934 19.8976 16.2934 17.6309C16.2934 15.3909 16.7868 13.4043 17.7734 11.6709C18.7601 9.93759 20.1068 8.60425 21.8134 7.67092C23.5201 6.73759 25.4268 6.27092 27.5334 6.27092C29.6401 6.27092 31.5468 6.73759 33.2534 7.67092C34.9601 8.60425 36.3068 9.93759 37.2934 11.6709C38.2801 13.4043 38.7734 15.3909 38.7734 17.6309C38.7734 19.8709 38.2668 21.8576 37.2534 23.5909C36.2401 25.3243 34.8534 26.6709 33.0934 27.6309C31.3601 28.5643 29.4401 29.0309 27.3334 29.0309ZM27.3334 25.0709C28.5068 25.0709 29.6001 24.7909 30.6134 24.2309C31.6534 23.6709 32.4934 22.8309 33.1334 21.7109C33.7734 20.5909 34.0934 19.2309 34.0934 17.6309C34.0934 16.0309 33.7868 14.6843 33.1734 13.5909C32.5601 12.4709 31.7468 11.6309 30.7334 11.0709C29.7201 10.5109 28.6268 10.2309 27.4534 10.2309C26.2801 10.2309 25.1868 10.5109 24.1734 11.0709C23.1868 11.6309 22.4001 12.4709 21.8134 13.5909C21.2268 14.6843 20.9334 16.0309 20.9334 17.6309C20.9334 20.0043 21.5334 21.8443 22.7334 23.1509C23.9601 24.4309 25.4934 25.0709 27.3334 25.0709ZM52.1613 6.27092C53.8679 6.27092 55.3746 6.61759 56.6813 7.31092C58.0146 7.97759 59.0546 8.81759 59.8013 9.83092V6.63092H64.4013V29.0309C64.4013 31.0576 63.9746 32.8576 63.1213 34.4309C62.2679 36.0309 61.0279 37.2843 59.4013 38.1909C57.8013 39.0976 55.8813 39.5509 53.6413 39.5509C50.6546 39.5509 48.1746 38.8443 46.2013 37.4309C44.2279 36.0443 43.1079 34.1509 42.8413 31.7509H47.3613C47.7079 32.8976 48.4413 33.8176 49.5613 34.5109C50.7079 35.2309 52.0679 35.5909 53.6413 35.5909C55.4813 35.5909 56.9613 35.0309 58.0813 33.9109C59.2279 32.7909 59.8013 31.1643 59.8013 29.0309V25.3509C59.0279 26.3909 57.9746 27.2709 56.6413 27.9909C55.3346 28.6843 53.8413 29.0309 52.1613 29.0309C50.2413 29.0309 48.4813 28.5509 46.8813 27.5909C45.3079 26.6043 44.0546 25.2443 43.1213 23.5109C42.2146 21.7509 41.7613 19.7643 41.7613 17.5509C41.7613 15.3376 42.2146 13.3776 43.1213 11.6709C44.0546 9.96425 45.3079 8.64425 46.8813 7.71092C48.4813 6.75092 50.2413 6.27092 52.1613 6.27092ZM59.8013 17.6309C59.8013 16.1109 59.4813 14.7909 58.8413 13.6709C58.2279 12.5509 57.4146 11.6976 56.4013 11.1109C55.3879 10.5243 54.2946 10.2309 53.1213 10.2309C51.9479 10.2309 50.8546 10.5243 49.8413 11.1109C48.8279 11.6709 48.0013 12.5109 47.3613 13.6309C46.7479 14.7243 46.4413 16.0309 46.4413 17.5509C46.4413 19.0709 46.7479 20.4043 47.3613 21.5509C48.0013 22.6976 48.8279 23.5776 49.8413 24.1909C50.8813 24.7776 51.9746 25.0709 53.1213 25.0709C54.2946 25.0709 55.3879 24.7776 56.4013 24.1909C57.4146 23.6043 58.2279 22.7509 58.8413 21.6309C59.4813 20.4843 59.8013 19.1509 59.8013 17.6309ZM79.9506 29.0309C77.8706 29.0309 75.9906 28.5643 74.3106 27.6309C72.6306 26.6709 71.3106 25.3376 70.3506 23.6309C69.3906 21.8976 68.9106 19.8976 68.9106 17.6309C68.9106 15.3909 69.404 13.4043 70.3906 11.6709C71.3773 9.93759 72.724 8.60425 74.4306 7.67092C76.1373 6.73759 78.044 6.27092 80.1506 6.27092C82.2573 6.27092 84.164 6.73759 85.8706 7.67092C87.5773 8.60425 88.924 9.93759 89.9106 11.6709C90.8973 13.4043 91.3906 15.3909 91.3906 17.6309C91.3906 19.8709 90.884 21.8576 89.8706 23.5909C88.8573 25.3243 87.4706 26.6709 85.7106 27.6309C83.9773 28.5643 82.0573 29.0309 79.9506 29.0309ZM79.9506 25.0709C81.124 25.0709 82.2173 24.7909 83.2306 24.2309C84.2706 23.6709 85.1106 22.8309 85.7506 21.7109C86.3906 20.5909 86.7106 19.2309 86.7106 17.6309C86.7106 16.0309 86.404 14.6843 85.7906 13.5909C85.1773 12.4709 84.364 11.6309 83.3506 11.0709C82.3373 10.5109 81.244 10.2309 80.0706 10.2309C78.8973 10.2309 77.804 10.5109 76.7906 11.0709C75.804 11.6309 75.0173 12.4709 74.4306 13.5909C73.844 14.6843 73.5506 16.0309 73.5506 17.6309C73.5506 20.0043 74.1506 21.8443 75.3506 23.1509C76.5773 24.4309 78.1106 25.0709 79.9506 25.0709Z" fill="#0084FF"/>
</svg>
