<svg width="55" height="48" viewBox="0 0 55 48" fill="none" xmlns="http://www.w3.org/2000/svg">
<path d="M10.2223 25.6791C10.0987 26.0413 10.0302 26.4301 10.0302 26.8387C10.0302 28.8287 11.6469 30.4454 13.6369 30.4454C14.6949 30.4454 15.638 29.9882 16.3005 29.2571L24.8943 31.9495C24.8943 31.9716 24.8876 31.9936 24.8876 32.0179C24.8876 34.0079 26.5044 35.6247 28.4944 35.6247C29.1327 35.6247 29.7268 35.4546 30.2481 35.1675L37.2937 42.0718C37.0508 42.5577 36.9094 43.1054 36.9094 43.6885C36.9094 45.6785 38.5261 47.2952 40.5161 47.2952C42.5061 47.2952 44.1229 45.6785 44.1229 43.6885C44.1229 43.0612 43.9638 42.4738 43.6811 41.9591L49.3132 35.9782C49.7704 36.188 50.2739 36.305 50.8062 36.305C52.7962 36.305 54.4129 34.6883 54.4129 32.6983C54.4129 31.0993 53.3616 29.7409 51.9193 29.2727L51.9215 21.2975C53.3682 20.8293 54.4151 19.4709 54.4151 17.8719C54.4151 15.8819 52.7984 14.2652 50.8084 14.2652C50.1745 14.2652 49.5804 14.4286 49.068 14.7179L39.1093 5.4813C39.3744 4.97773 39.5224 4.41233 39.5224 3.80717C39.5224 1.81719 37.9056 0.200439 35.9156 0.200439C34.2481 0.200439 32.8456 1.33789 32.4392 2.87955L16.9299 3.75639C16.3711 2.49523 15.1033 1.61398 13.639 1.61398C11.649 1.61398 10.0323 3.23073 10.0323 5.22071C10.0323 6.15274 10.3879 6.99645 10.971 7.63474L5.43608 15.144C5.08049 15.0248 4.69618 14.9585 4.29423 14.9585C2.30425 14.9585 0.6875 16.5752 0.6875 18.5652C0.6875 20.5552 2.30425 22.172 4.29423 22.172C4.9215 22.172 5.50897 22.0085 6.02361 21.7258L10.2223 25.6791ZM13.6325 28.2235C12.8683 28.2235 12.2477 27.6006 12.2477 26.8387C12.2477 26.0745 12.8705 25.4539 13.6325 25.4539C14.3967 25.4539 15.0173 26.0767 15.0173 26.8387C15.0239 27.6007 14.4011 28.2235 13.6325 28.2235ZM28.4921 33.4005C27.7279 33.4005 27.1073 32.7777 27.1073 32.0157C27.1073 31.2515 27.7302 30.6309 28.4921 30.6309C29.2564 30.6309 29.877 31.2538 29.877 32.0157C29.877 32.7799 29.2541 33.4005 28.4921 33.4005ZM28.4921 28.409C27.3172 28.409 26.2746 28.9744 25.6143 29.8513L17.2167 27.223C17.2278 27.0993 17.2388 26.969 17.2388 26.8387C17.2388 24.8487 15.6221 23.232 13.6321 23.232C12.8635 23.232 12.1457 23.4749 11.5626 23.8946L7.54722 20.1067C7.69962 19.7843 7.80784 19.4331 7.85864 19.0731L22.2083 16.5795C22.8135 17.7214 24.0128 18.5077 25.3976 18.5077C26.0823 18.5077 26.7206 18.3155 27.2639 17.982L34.0155 23.8018C33.8344 24.2325 33.7328 24.7074 33.7328 25.2044C33.7328 25.6218 33.8057 26.0238 33.9426 26.397L30.506 29.0209C29.9274 28.6344 29.2365 28.409 28.4921 28.409ZM24.013 14.8967C24.013 14.1325 24.6358 13.5119 25.3978 13.5119C26.162 13.5119 26.7826 14.1348 26.7826 14.8967C26.7826 15.6609 26.1597 16.2815 25.3978 16.2815C24.6358 16.2815 24.013 15.6587 24.013 14.8967ZM31.7586 33.5379C31.9728 33.0741 32.0987 32.5594 32.0987 32.0161C32.0987 31.5744 32.0148 31.157 31.8735 30.7661L35.2881 28.1642C35.7408 28.4757 36.2599 28.6899 36.8319 28.7694L38.8506 40.4842L31.7586 33.5379ZM35.9484 25.2025C35.9484 24.4383 36.5713 23.8177 37.3333 23.8177C38.0975 23.8177 38.7181 24.4406 38.7181 25.2025C38.7181 25.9668 38.0952 26.5874 37.3333 26.5874C36.5713 26.5896 35.9484 25.9734 35.9484 25.2025ZM40.5115 45.0673C39.7473 45.0673 39.1267 44.4444 39.1267 43.6825C39.1267 42.9182 39.7496 42.2976 40.5115 42.2976C41.2757 42.2976 41.8963 42.9205 41.8963 43.6825C41.8963 44.4445 41.2757 45.0673 40.5115 45.0673ZM52.1862 32.6943C52.1862 33.4585 51.5634 34.0791 50.8014 34.0791C50.0372 34.0791 49.4166 33.4562 49.4166 32.6943C49.4166 31.9301 50.0394 31.3095 50.8014 31.3095C51.5656 31.3095 52.1862 31.9323 52.1862 32.6943ZM50.797 16.4782C51.5612 16.4782 52.1818 17.101 52.1818 17.863C52.1818 18.6272 51.5589 19.2478 50.797 19.2478C50.0328 19.2478 49.4122 18.6249 49.4122 17.863C49.4122 17.101 50.0328 16.4782 50.797 16.4782ZM49.6883 21.2974V29.2641C48.2416 29.7324 47.1947 31.0907 47.1947 32.6898C47.1947 33.3347 47.3691 33.9443 47.6695 34.4699L42.0595 40.4288C41.7437 40.2764 41.3969 40.1682 41.0369 40.1174L39.0138 28.3918C40.1623 27.7867 40.942 26.5874 40.942 25.2025C40.942 24.9706 40.9199 24.7498 40.8801 24.5289L48.3142 20.4628C48.6985 20.8449 49.167 21.1274 49.6883 21.2974ZM35.9193 2.42218C36.6835 2.42218 37.3041 3.04504 37.3041 3.807C37.3041 4.57121 36.6812 5.19181 35.9193 5.19181C35.1551 5.19181 34.5345 4.56895 34.5345 3.807C34.5345 3.04499 35.1573 2.42218 35.9193 2.42218ZM34.234 6.99187C34.7376 7.25691 35.3074 7.4093 35.9127 7.4093C36.4891 7.4093 37.0325 7.26795 37.5117 7.02941L47.5388 16.3367C47.3179 16.8005 47.1942 17.3196 47.1942 17.8695C47.1942 18.0904 47.2163 18.3112 47.2561 18.5188L39.8084 22.5894C39.1635 21.9798 38.2933 21.5999 37.3369 21.5999C36.6523 21.5999 36.014 21.792 35.4706 22.1255L28.7207 16.2967C28.9018 15.866 29.0034 15.3911 29.0034 14.8942C29.0034 14.2559 28.8333 13.6551 28.5396 13.1361L34.234 6.99187ZM17.1591 5.96705L32.5553 5.09682C32.5951 5.19842 32.6393 5.30002 32.6901 5.40161L26.9121 11.628C26.4483 11.4137 25.9402 11.2878 25.3969 11.2878C24.6836 11.2878 24.0165 11.4977 23.4577 11.8599L16.9843 6.53258C17.0572 6.35147 17.1193 6.16583 17.1591 5.96705ZM13.6318 3.83131C14.3961 3.83131 15.0167 4.45417 15.0167 5.21612C15.0167 5.98034 14.3938 6.60094 13.6318 6.60094C12.8676 6.60094 12.247 5.97808 12.247 5.21612C12.247 4.45191 12.8677 3.83131 13.6318 3.83131ZM12.903 8.74997C13.1415 8.80077 13.3845 8.82286 13.6318 8.82286C14.3452 8.82286 15.0123 8.61304 15.5711 8.25083L22.0445 13.5781C21.9429 13.8387 21.87 14.1104 21.8302 14.3931L7.48058 16.8867C7.40107 16.7387 7.31714 16.5974 7.21995 16.4693L12.903 8.74997ZM4.29565 19.9458C3.53144 19.9458 2.91084 19.3229 2.91084 18.5609C2.91084 17.7967 3.5337 17.1761 4.29565 17.1761C5.05987 17.1761 5.68047 17.799 5.68047 18.5609C5.68047 19.323 5.05981 19.9458 4.29565 19.9458Z" fill="#00FF99"/>
</svg>
