<svg width="48" height="49" viewBox="0 0 48 49" fill="none" xmlns="http://www.w3.org/2000/svg">
<path d="M9.5933 9.54135H12.1901C13.0206 9.54135 13.6935 8.8684 13.6935 8.03789C13.6935 7.20737 13.0206 6.53442 12.1901 6.53442H9.5933C8.76279 6.53442 8.08984 7.20737 8.08984 8.03789C8.08984 8.8684 8.76279 9.54135 9.5933 9.54135Z" fill="#00FF99"/>
<path d="M9.5933 35.0929H14.7327C15.5632 35.0929 16.2362 34.4199 16.2362 33.5894C16.2362 32.7589 15.5632 32.0859 14.7327 32.0859H9.5933C8.76279 32.0859 8.08984 32.7589 8.08984 33.5894C8.08984 34.4199 8.76279 35.0929 9.5933 35.0929Z" fill="#00FF99"/>
<path d="M23.8166 38.0974H9.5933C8.76279 38.0974 8.08984 38.7704 8.08984 39.6009C8.08984 40.4314 8.76279 41.1043 9.5933 41.1043H23.8166C24.6472 41.1043 25.3201 40.4314 25.3201 39.6009C25.3201 38.7704 24.6472 38.0974 23.8166 38.0974Z" fill="#00FF99"/>
<path d="M13.2942 14.3423C13.219 14.3898 13.1487 14.4439 13.0825 14.5052C13.0579 14.5281 13.032 14.5485 13.0092 14.5732C12.9292 14.6574 12.8546 14.7488 12.7939 14.854L12.7933 14.8552C12.7325 14.9611 12.6898 15.0711 12.6567 15.1836C12.6477 15.2143 12.6429 15.2455 12.6357 15.2768C12.6153 15.367 12.6032 15.4566 12.5996 15.5474C12.599 15.5673 12.5918 15.5865 12.5918 15.6064V25.5683C12.5918 26.1053 12.8787 26.6015 13.3435 26.8703L21.9716 31.8516C21.989 31.8618 22.0083 31.8648 22.0263 31.8738C22.1069 31.9165 22.1917 31.9508 22.2801 31.9785C22.3102 31.9881 22.3396 31.9989 22.3703 32.0067C22.484 32.0344 22.6012 32.053 22.7233 32.053C22.8454 32.053 22.9627 32.0344 23.0763 32.0067C23.107 31.9995 23.1365 31.9881 23.1665 31.9785C23.2549 31.9508 23.3397 31.9165 23.4203 31.8738C23.4378 31.8648 23.4576 31.8612 23.4751 31.8516L32.1025 26.8703C32.5674 26.6015 32.8542 26.1053 32.8542 25.5683V15.6064C32.8542 15.5859 32.847 15.5673 32.8464 15.5474C32.8428 15.4566 32.8308 15.3664 32.8103 15.2762C32.8031 15.2449 32.7983 15.2137 32.7893 15.1836C32.7562 15.0711 32.7135 14.9605 32.6528 14.8546C32.5914 14.7482 32.5169 14.6562 32.4357 14.5714C32.414 14.5491 32.3906 14.5299 32.3677 14.5082C32.2992 14.4445 32.2264 14.3886 32.1482 14.3399C32.1314 14.3296 32.1194 14.314 32.1019 14.3044L23.4745 9.32311C23.0096 9.05489 22.4359 9.05489 21.971 9.32311L13.3429 14.3044C13.3243 14.3152 13.3111 14.3314 13.293 14.3429L13.2942 14.3423ZM15.5993 18.2104L21.2205 21.4554V27.9456L15.5993 24.7005V18.2104ZM24.2274 27.9456V21.4554L29.8479 18.2104V24.7005L24.2274 27.9456ZM22.7239 12.3613L28.3445 15.6064L22.7239 18.8514L17.1028 15.6064L22.7239 12.3613Z" fill="#00FF99"/>
<path d="M44.4252 30.5627H39.6743V5.63472C39.6743 2.81603 37.3812 0.522949 34.5625 0.522949H5.68403C2.86535 0.522949 0.572266 2.81603 0.572266 5.63472V42.3553C0.572266 42.754 0.73043 43.1358 1.01188 43.4179L5.7568 48.1688C6.03885 48.4515 6.42073 48.6097 6.82065 48.6097H34.5625C37.3812 48.6097 39.6743 46.3166 39.6743 43.4979V41.1044H44.4252C45.9173 41.1044 47.1315 39.8902 47.1315 38.3981V33.2689C47.1315 31.7769 45.9173 30.5627 44.4252 30.5627ZM36.6674 43.4979C36.6674 44.6586 35.7232 45.6027 34.5625 45.6027H7.44368L3.57919 41.7328V5.63472C3.57919 4.47405 4.52336 3.52987 5.68403 3.52987H34.5625C35.7232 3.52987 36.6674 4.47405 36.6674 5.63472V30.5627H33.317C31.825 30.5627 30.6108 31.7769 30.6108 33.2689V38.3981C30.6108 39.8902 31.825 41.1044 33.317 41.1044H36.6674V43.4979ZM44.1245 38.0975H33.6171V33.5696H44.1245V38.0975Z" fill="#00FF99"/>
</svg>
