<?xml version="1.0" encoding="UTF-8"?> <svg xmlns="http://www.w3.org/2000/svg" width="25" height="31" viewBox="0 0 25 31" fill="none"><path fill-rule="evenodd" clip-rule="evenodd" d="M5.65714 5.26263C7.57227 3.35201 10.167 2.27901 12.8723 2.27901C15.5775 2.27901 18.1723 3.35201 20.0874 5.26263C23.8989 9.07446 23.8756 15.1687 20.0311 19.7545L12.8724 28.2947L5.71341 19.7545C1.86923 15.1687 1.84598 9.07345 5.65714 5.26263ZM4.26085 20.9719L12.1453 30.3783C12.2342 30.4845 12.3454 30.5698 12.4708 30.6284C12.5963 30.687 12.7331 30.7173 12.8716 30.7173C13.0101 30.7173 13.1469 30.687 13.2723 30.6284C13.3978 30.5698 13.5089 30.4845 13.5979 30.3783L21.4823 20.9719C23.5401 18.5636 24.7132 15.5246 24.8073 12.3583C24.8447 10.7966 24.5644 9.24362 23.9835 7.79353C23.4025 6.34344 22.533 5.02649 21.4277 3.92261C19.1545 1.66163 16.0786 0.392456 12.8724 0.392456C9.66623 0.392456 6.59038 1.66163 4.31712 3.92261C3.21145 5.0263 2.34159 6.34317 1.76036 7.79328C1.17912 9.24339 0.898626 10.7965 0.9359 12.3583C1.03 15.5246 2.20312 18.5636 4.26085 20.9719ZM12.8724 8.45584C12.0927 8.45584 11.3305 8.68704 10.6822 9.12022C10.0339 9.5534 9.52866 10.1691 9.23029 10.8894C8.93191 11.6098 8.85384 12.4024 9.00595 13.1672C9.15806 13.9319 9.53352 14.6343 10.0849 15.1856C10.6362 15.737 11.3386 16.1124 12.1033 16.2645C12.8681 16.4167 13.6607 16.3386 14.3811 16.0402C15.1014 15.7418 15.7171 15.2365 16.1503 14.5883C16.5835 13.94 16.8147 13.1778 16.8147 12.3981C16.8132 11.353 16.3974 10.3511 15.6584 9.61206C14.9194 8.87306 13.9175 8.45726 12.8724 8.45584ZM12.8724 18.2376C14.0272 18.2376 15.156 17.8952 16.1162 17.2536C17.0763 16.6121 17.8246 15.7002 18.2665 14.6334C18.7084 13.5665 18.8241 12.3926 18.5988 11.26C18.3735 10.1275 17.8174 9.08714 17.0009 8.2706C16.1844 7.45407 15.144 6.898 14.0115 6.67272C12.8789 6.44744 11.705 6.56306 10.6381 7.00497C9.57126 7.44687 8.65941 8.19521 8.01786 9.15535C7.37631 10.1155 7.03389 11.2443 7.03389 12.3991C7.03567 13.947 7.65138 15.431 8.74593 16.5256C9.84048 17.6201 11.3245 18.2358 12.8724 18.2376Z" fill="white"></path></svg> 