<?xml version="1.0" encoding="UTF-8"?> <svg xmlns="http://www.w3.org/2000/svg" width="140" height="52" viewBox="0 0 140 52" fill="none"><g filter="url(#filter0_d_1396_1942)"><path d="M57.39 9.27737V6.97388H68.172V9.27737H57.39ZM61.359 24.3732V6.97388H64.202V24.3732H61.359Z" fill="#03FF99"></path><path d="M72.006 24.3732V22.0452H78.599V24.3732H72.006ZM72.2511 16.8743V14.5217H77.129V16.8743H72.2511ZM70.144 6.97388H72.987V24.3732H70.144V6.97388ZM72.2511 6.97388H78.354V9.27737H72.2511V6.97388Z" fill="#03FF99"></path><path d="M83.164 24.3732V22.0452H89.267V24.3732H83.164ZM81.057 24.3732V6.97388H83.9V24.3732H81.057Z" fill="#03FF99"></path><path d="M93.09 24.3732V22.0452H99.683V24.3732H93.09ZM93.336 16.8743V14.5217H98.212V16.8743H93.336ZM91.228 6.97388H94.07V24.3732H91.228V6.97388ZM93.336 6.97388H99.437V9.27737H93.336V6.97388Z" fill="#03FF99"></path><path d="M109.101 20.3542C109.101 19.7825 108.929 19.2841 108.586 18.8593C108.243 18.4182 107.794 18.0017 107.238 17.6095C106.699 17.2174 106.119 16.8254 105.498 16.4333C104.877 16.0248 104.289 15.5755 103.734 15.0854C103.195 14.5789 102.745 13.9908 102.386 13.321C102.043 12.6512 101.871 11.8669 101.871 10.9684H104.714C104.714 11.5238 104.886 12.0221 105.229 12.4632C105.588 12.9044 106.038 13.321 106.577 13.7131C107.132 14.1051 107.72 14.5054 108.341 14.9139C108.961 15.3059 109.542 15.7553 110.081 16.2617C110.636 16.7518 111.086 17.3318 111.429 18.0017C111.772 18.6551 111.943 19.4394 111.943 20.3542H109.101ZM101.871 10.9929C101.871 10.1107 102.091 9.34279 102.533 8.68929C102.974 8.01949 103.579 7.50479 104.346 7.14539C105.13 6.76959 106.021 6.58179 107.018 6.58179V8.90978C106.299 8.90978 105.735 9.09779 105.327 9.47349C104.918 9.83299 104.714 10.3394 104.714 10.9929H101.871ZM111.943 20.3297C111.943 21.2282 111.723 22.0043 111.282 22.6574C110.841 23.3114 110.236 23.8261 109.469 24.2014C108.7 24.5609 107.81 24.7411 106.797 24.7411V22.4372C107.516 22.4372 108.08 22.2496 108.488 21.8734C108.896 21.4978 109.101 20.9833 109.101 20.3297H111.943ZM109.101 10.9684C109.019 10.2822 108.782 9.76758 108.39 9.42448C108.014 9.08138 107.557 8.90978 107.018 8.90978V6.58179C107.851 6.58179 108.594 6.74518 109.247 7.07188C109.901 7.39858 110.432 7.85608 110.841 8.44418C111.265 9.01598 111.535 9.69409 111.649 10.4783L109.101 10.9684ZM104.102 19.276C104.183 20.2562 104.46 21.0322 104.934 21.604C105.408 22.1595 106.029 22.4372 106.797 22.4372V24.7411C105.31 24.7411 104.102 24.2998 103.17 23.4173C102.255 22.5357 101.708 21.31 101.528 19.7416L104.102 19.276Z" fill="#03FF99"></path><path d="M113.078 9.27737V6.97388H123.861V9.27737H113.078ZM117.048 24.3732V6.97388H119.891V24.3732H117.048Z" fill="#03FF99"></path><path d="M132.657 19.9867V11.336H135.5V19.9867H132.657ZM125.232 19.9867V11.336H128.075V19.9867H125.232ZM135.5 11.385H132.657C132.657 10.6008 132.453 9.99632 132.045 9.57162C131.636 9.13042 131.072 8.90992 130.354 8.90992V6.60632C131.367 6.60632 132.257 6.81052 133.025 7.21902C133.793 7.62742 134.397 8.19102 134.838 8.90992C135.28 9.62872 135.5 10.4537 135.5 11.385ZM125.232 11.385C125.232 10.4537 125.453 9.62872 125.894 8.90992C126.335 8.19102 126.939 7.62742 127.708 7.21902C128.492 6.81052 129.382 6.60632 130.378 6.60632V8.90992C129.659 8.90992 129.095 9.13042 128.688 9.57162C128.279 9.99632 128.075 10.6008 128.075 11.385H125.232ZM135.5 19.9621C135.5 20.8934 135.28 21.7184 134.838 22.4372C134.397 23.1563 133.793 23.7201 133.025 24.128C132.257 24.5367 131.367 24.7411 130.354 24.7411V22.4131C131.072 22.4131 131.636 22.2004 132.045 21.7756C132.453 21.3345 132.657 20.73 132.657 19.9621H135.5ZM125.232 19.9621H128.075C128.075 20.73 128.279 21.3345 128.688 21.7756C129.095 22.2004 129.659 22.4131 130.378 22.4131V24.7411C129.382 24.7411 128.492 24.5367 127.708 24.128C126.939 23.7201 126.335 23.1563 125.894 22.4372C125.453 21.7184 125.232 20.8934 125.232 19.9621Z" fill="#03FF99"></path><path d="M59.335 43.123V31.276H60.864V43.123H59.335Z" fill="#34A3FB"></path><path d="M68.363 43.123L63.625 31.276H65.12L69.859 43.123H68.363ZM63.339 43.123V31.276H64.868V43.123H63.339ZM68.766 43.123V31.276H70.295V43.123H68.766Z" fill="#34A3FB"></path><path d="M77.273 40.4679C77.273 40.0529 77.155 39.6899 76.92 39.3759C76.684 39.0509 76.382 38.7479 76.012 38.4679C75.642 38.1879 75.245 37.9019 74.819 37.6109C74.404 37.3199 74.012 36.9999 73.643 36.6529C73.273 36.3059 72.97 35.9139 72.735 35.4769C72.5 35.0289 72.382 34.5139 72.382 33.9309H73.911C73.911 34.3339 74.029 34.6979 74.264 35.0229C74.5 35.3369 74.802 35.6389 75.172 35.9309C75.542 36.2099 75.934 36.4969 76.349 36.7879C76.774 37.0789 77.172 37.3979 77.541 37.7449C77.911 38.0809 78.214 38.4729 78.449 38.9219C78.684 39.3579 78.802 39.8739 78.802 40.4679H77.273ZM72.382 33.9649C72.382 33.3489 72.522 32.8219 72.803 32.3849C73.083 31.9479 73.475 31.6119 73.979 31.3769C74.483 31.1409 75.06 31.0239 75.71 31.0239V32.3339C75.15 32.3339 74.707 32.4799 74.383 32.7709C74.068 33.0619 73.911 33.4599 73.911 33.9649H72.382ZM78.802 40.4339C78.802 41.0389 78.662 41.5659 78.381 42.0129C78.101 42.4509 77.709 42.7869 77.205 43.0219C76.712 43.2569 76.135 43.3749 75.474 43.3749V42.0479C76.035 42.0479 76.471 41.9079 76.785 41.6269C77.11 41.3359 77.273 40.9379 77.273 40.4339H78.802ZM77.29 33.8129C77.234 33.3089 77.054 32.9399 76.752 32.7049C76.46 32.4579 76.113 32.3339 75.71 32.3339V31.0239C76.236 31.0239 76.712 31.1309 77.138 31.3429C77.564 31.5559 77.917 31.8469 78.197 32.2169C78.476 32.5869 78.651 33.0229 78.718 33.5279L77.29 33.8129ZM73.458 39.7949C73.525 40.5009 73.733 41.0559 74.08 41.4599C74.438 41.8519 74.903 42.0479 75.474 42.0479V43.3749C74.522 43.3749 73.744 43.0839 73.139 42.5009C72.545 41.9179 72.186 41.1119 72.063 40.0819L73.458 39.7949Z" fill="#34A3FB"></path><path d="M79.824 32.604V31.276H86.797V32.604H79.824ZM82.545 43.123V31.276H84.075V43.123H82.545Z" fill="#34A3FB"></path><path d="M88.913 40.754V39.443H93.215V40.754H88.913ZM91.618 31.276L88.728 43.123H87.216L90.106 31.276H91.618ZM91.652 31.276L94.543 43.123H93.047L90.14 31.276H91.652Z" fill="#34A3FB"></path><path d="M101.167 43.123L96.428 31.276H97.923L102.663 43.123H101.167ZM96.142 43.123V31.276H97.671V43.123H96.142ZM101.57 43.123V31.276H103.099V43.123H101.57Z" fill="#34A3FB"></path><path d="M109.922 39.981V34.419H111.451V39.981H109.922ZM106.477 43.123V41.796H108.141V43.123H106.477ZM106.477 32.604V31.276H108.141V32.604H106.477ZM106.477 32.604V31.276H108.141V32.604H106.477ZM111.451 34.419H109.922C109.922 33.836 109.766 33.388 109.452 33.074C109.138 32.76 108.701 32.604 108.141 32.604V31.276C108.79 31.276 109.362 31.41 109.855 31.679C110.359 31.937 110.751 32.307 111.031 32.788C111.311 33.258 111.451 33.802 111.451 34.419ZM111.451 39.964C111.451 40.591 111.311 41.14 111.031 41.61C110.751 42.081 110.359 42.45 109.855 42.72C109.362 42.988 108.79 43.123 108.141 43.123V41.796C108.701 41.796 109.138 41.639 109.452 41.324C109.766 41 109.922 40.546 109.922 39.964H111.451ZM105.402 43.123V31.276H106.931V43.123H105.402Z" fill="#34A3FB"></path><path d="M114.656 40.754V39.443H118.958V40.754H114.656ZM117.362 31.276L114.472 43.123H112.959L115.85 31.276H117.362ZM117.395 31.276L120.286 43.123H118.79L115.883 31.276H117.395Z" fill="#34A3FB"></path><path d="M126.406 43.123L124.255 37.342H125.818L127.969 43.123H126.406ZM122.877 38.098V36.788H124.591V38.098H122.877ZM122.877 32.604V31.276H124.591V32.604H122.877ZM126.372 34.972V34.401H127.902V34.972H126.372ZM127.902 34.419H126.372C126.372 33.836 126.21 33.388 125.885 33.074C125.571 32.76 125.134 32.604 124.575 32.604V31.276C125.235 31.276 125.812 31.41 126.305 31.679C126.809 31.937 127.201 32.307 127.482 32.788C127.762 33.258 127.902 33.802 127.902 34.419ZM127.902 34.956C127.902 35.572 127.762 36.121 127.482 36.602C127.201 37.074 126.809 37.443 126.305 37.712C125.812 37.97 125.235 38.098 124.575 38.098V36.788C125.134 36.788 125.571 36.625 125.885 36.3C126.21 35.975 126.372 35.527 126.372 34.956H127.902ZM121.885 43.123V31.276H123.415V43.123H121.885Z" fill="#34A3FB"></path><path d="M128.635 32.604V31.276H135.608V32.604H128.635ZM131.357 43.123V31.276H132.887V43.123H131.357Z" fill="#34A3FB"></path></g><path d="M22.061 10.7899L31.607 16.0931L22.061 21.3963L12.5155 16.0931L22.061 10.7899Z" fill="#C4C4C4"></path><path d="M22.061 0.183594L31.607 5.48679L22.061 10.79L12.5155 5.48679L22.061 0.183594Z" fill="#03FF6A"></path><path d="M31.607 5.48669V16.0931L22.061 21.3963V10.7898L31.607 5.48669Z" fill="#1176FF"></path><path d="M12.5155 5.48669V16.0931L22.061 21.3963V10.7898L12.5155 5.48669Z" fill="#0F0F0F"></path><path d="M9.5458 17.7902L19.0915 23.0937L9.5458 28.396L0 23.0937L9.5458 17.7902Z" fill="#C4C4C4"></path><path d="M9.5458 7.18384L19.0915 12.4871L9.5458 17.7902L0 12.4871L9.5458 7.18384Z" fill="#03FF6A"></path><path d="M19.0915 12.4869V23.0936L9.54578 28.396V17.7901L19.0915 12.4869Z" fill="#1176FF"></path><path d="M0 12.4869V23.0936L9.5458 28.396V17.7901L0 12.4869Z" fill="#0F0F0F"></path><path d="M34.577 17.7902L44.123 23.0937L34.577 28.396L25.031 23.0937L34.577 17.7902Z" fill="#C4C4C4"></path><path d="M34.577 7.18384L44.123 12.4871L34.577 17.7902L25.031 12.4871L34.577 7.18384Z" fill="#03FF6A"></path><path d="M44.123 12.4869V23.0936L34.577 28.396V17.7901L44.123 12.4869Z" fill="#1176FF"></path><path d="M25.031 12.4869V23.0936L34.577 28.396V17.7901L25.031 12.4869Z" fill="#0F0F0F"></path><path d="M22.061 24.7903L31.607 30.094L22.061 35.397L12.5155 30.094L22.061 24.7903Z" fill="#C4C4C4"></path><path d="M22.061 14.1841L31.607 19.4872L22.061 24.7903L12.5155 19.4872L22.061 14.1841Z" fill="#03FF6A"></path><path d="M31.607 19.4872V30.094L22.061 35.397V24.7903L31.607 19.4872Z" fill="#1176FF"></path><path d="M12.5155 19.4872V30.094L22.061 35.397V24.7903L12.5155 19.4872Z" fill="#0F0F0F"></path><path d="M22.061 10.7899L31.607 16.0931L22.061 21.3963L12.5155 16.0931L22.061 10.7899Z" fill="#C4C4C4"></path><path d="M22.061 0.183594L31.607 5.48679L22.061 10.79L12.5155 5.48679L22.061 0.183594Z" fill="#03FF6A"></path><path d="M31.607 5.48669V16.0931L22.061 21.3963V10.7898L31.607 5.48669Z" fill="#1176FF"></path><path d="M12.5155 5.48669V16.0931L22.061 21.3963V10.7898L12.5155 5.48669Z" fill="#0F0F0F"></path><path d="M34.577 31.79L44.123 37.094L34.577 42.397L25.031 37.094L34.577 31.79Z" fill="#C4C4C4"></path><path d="M34.577 21.1842L44.123 26.488L34.577 31.79L25.031 26.488L34.577 21.1842Z" fill="#03FF6A"></path><path d="M44.123 26.4869V37.0939L34.577 42.3969V31.7899L44.123 26.4869Z" fill="#1176FF"></path><path d="M25.031 26.4869V37.0939L34.577 42.3969V31.7899L25.031 26.4869Z" fill="#0F0F0F"></path><path d="M34.577 17.7902L44.123 23.0937L34.577 28.396L25.031 23.0937L34.577 17.7902Z" fill="#C4C4C4"></path><path d="M34.577 7.18384L44.123 12.4871L34.577 17.7902L25.031 12.4871L34.577 7.18384Z" fill="#03FF6A"></path><path d="M44.123 12.4869V23.0936L34.577 28.396V17.7901L44.123 12.4869Z" fill="#1176FF"></path><path d="M25.031 12.4869V23.0936L34.577 28.396V17.7901L25.031 12.4869Z" fill="#0F0F0F"></path><path d="M9.5458 31.79L19.0915 37.094L9.5458 42.397L0 37.094L9.5458 31.79Z" fill="#C4C4C4"></path><path d="M9.5458 21.1842L19.0915 26.488L9.5458 31.79L0 26.488L9.5458 21.1842Z" fill="#03FF6A"></path><path d="M19.0915 26.4869V37.0939L9.54578 42.3969V31.7899L19.0915 26.4869Z" fill="#1176FF"></path><path d="M0 26.4869V37.0939L9.5458 42.3969V31.7899L0 26.4869Z" fill="#0F0F0F"></path><path d="M9.5458 17.7902L19.0915 23.0937L9.5458 28.396L0 23.0937L9.5458 17.7902Z" fill="#C4C4C4"></path><path d="M9.5458 7.18384L19.0915 12.4871L9.5458 17.7902L0 12.4871L9.5458 7.18384Z" fill="#03FF6A"></path><path d="M19.0915 12.4869V23.0936L9.54578 28.396V17.7901L19.0915 12.4869Z" fill="#1176FF"></path><path d="M0 12.4869V23.0936L9.5458 28.396V17.7901L0 12.4869Z" fill="#0F0F0F"></path><path d="M22.061 38.791L31.607 44.094L22.061 49.397L12.5155 44.094L22.061 38.791Z" fill="#C4C4C4"></path><path d="M22.061 28.184L31.607 33.488L22.061 38.791L12.5155 33.488L22.061 28.184Z" fill="#03FF6A"></path><path d="M31.607 33.488V44.094L22.061 49.397V38.791L31.607 33.488Z" fill="#1176FF"></path><path d="M12.5155 33.488V44.094L22.061 49.397V38.791L12.5155 33.488Z" fill="#0F0F0F"></path><path d="M22.061 24.7903L31.607 30.094L22.061 35.397L12.5155 30.094L22.061 24.7903Z" fill="#C4C4C4"></path><path d="M22.061 14.1841L31.607 19.4872L22.061 24.7903L12.5155 19.4872L22.061 14.1841Z" fill="#03FF99"></path><path d="M31.607 19.4872V30.094L22.061 35.397V24.7903L31.607 19.4872Z" fill="#1176FF"></path><path d="M12.5155 19.4872V30.094L22.061 35.397V24.7903L12.5155 19.4872Z" fill="#0F0F0F"></path><defs><filter id="filter0_d_1396_1942" x="53.39" y="6.58179" width="86.218" height="44.7931" filterUnits="userSpaceOnUse" color-interpolation-filters="sRGB"><feFlood flood-opacity="0" result="BackgroundImageFix"></feFlood><feColorMatrix in="SourceAlpha" type="matrix" values="0 0 0 0 0 0 0 0 0 0 0 0 0 0 0 0 0 0 127 0" result="hardAlpha"></feColorMatrix><feOffset dy="4"></feOffset><feGaussianBlur stdDeviation="2"></feGaussianBlur><feComposite in2="hardAlpha" operator="out"></feComposite><feColorMatrix type="matrix" values="0 0 0 0 0 0 0 0 0 0 0 0 0 0 0 0 0 0 0.25 0"></feColorMatrix><feBlend mode="normal" in2="BackgroundImageFix" result="effect1_dropShadow_1396_1942"></feBlend><feBlend mode="normal" in="SourceGraphic" in2="effect1_dropShadow_1396_1942" result="shape"></feBlend></filter></defs></svg> 