<svg width="19" height="19" viewBox="0 0 19 19" fill="none" xmlns="http://www.w3.org/2000/svg">
<path fill-rule="evenodd" clip-rule="evenodd" d="M18.4617 9.90137C18.4617 14.8719 14.4322 18.9014 9.46167 18.9014C4.4911 18.9014 0.46167 14.8719 0.46167 9.90137C0.46167 4.9308 4.4911 0.901367 9.46167 0.901367C14.4322 0.901367 18.4617 4.9308 18.4617 9.90137ZM13.0889 7.17407C13.3525 7.43767 13.3525 7.86506 13.0889 8.12864L8.58894 12.6286C8.32533 12.8922 7.89801 12.8922 7.63437 12.6286L5.83437 10.8286C5.57077 10.565 5.57077 10.1377 5.83437 9.8741C6.09797 9.61049 6.52537 9.61049 6.78897 9.8741L8.11167 11.1967L10.123 9.18542L12.1344 7.17407C12.398 6.91047 12.8253 6.91047 13.0889 7.17407Z" fill="#00FF99"/>
</svg>
