<svg width="38" height="38" viewBox="0 0 38 38" fill="none" xmlns="http://www.w3.org/2000/svg">
<g clip-path="url(#clip0_150_512)">
<path d="M19.0067 0.00402852C11.4044 0.00292042 4.53348 4.53451 1.54121 11.5232L1.30439 11.6017L1.39621 11.8772C-2.54357 21.5941 2.13967 32.6651 11.8566 36.6049C14.1261 37.5251 16.5521 37.9975 19.0011 37.9961C29.4923 37.9977 37.9984 29.4941 38 19.0029C38.0016 8.51172 29.498 0.00553238 19.0067 0.00402852ZM33.907 28.5776L32.9315 27.6027V25.3321C32.9326 25.2341 32.911 25.1372 32.8682 25.049L30.3987 20.117V17.7337C30.3987 17.522 30.2931 17.3243 30.117 17.2068L28.2174 15.9404C28.0685 15.841 27.8844 15.8093 27.7108 15.8531L25.3844 16.4343L21.4769 14.7576L20.9393 10.9913L22.4293 9.50205H25.6276L26.704 11.1199C26.8012 11.2654 26.9544 11.3642 27.127 11.3928L30.9262 12.026C31.028 12.0431 31.1323 12.0348 31.2301 12.0019L34.7292 10.8356C37.664 16.4675 37.3501 23.2413 33.907 28.5776ZM31.2953 6.2436L30.2658 6.92999L27.3955 6.35567L25.5332 5.73577C25.4192 5.69706 25.2966 5.69216 25.1799 5.72184L22.8256 6.31008L21.7935 5.96625L22.5584 4.43644H24.6999C24.7981 4.43652 24.895 4.4138 24.983 4.36995L27.1738 3.27451C28.6826 4.06206 30.0706 5.06188 31.2953 6.2436ZM12.0657 2.68437L13.5853 3.69749C13.6601 3.7472 13.7444 3.78044 13.8329 3.79501L16.9014 4.30663L16.6019 5.20261L15.0031 5.7364C14.8599 5.78405 14.7384 5.88125 14.6605 6.01058L12.842 9.04108L9.921 10.7938L5.61523 11.4086C5.30314 11.4527 5.07107 11.7197 5.07068 12.0349V13.9345C5.07068 14.1024 5.13748 14.2634 5.2562 14.3821L6.33708 15.463V16.5508L3.70296 14.7943L2.74746 11.9278C4.56538 7.77404 7.89737 4.46873 12.0657 2.68437ZM10.2629 23.4451L7.40086 22.8721L6.33708 20.7502V19.2622L8.69639 16.9029L9.56957 18.6499C9.67682 18.8646 9.8963 19.0002 10.1363 19.0001H14.2103L15.9256 21.859C16.0401 22.0495 16.246 22.166 16.4683 22.1661H18.2286L17.7854 24.3867L15.3881 26.784C15.2691 26.9027 15.2021 27.0637 15.2019 27.2317V28.8147L12.9224 30.5243C12.763 30.6439 12.6691 30.8316 12.6691 31.0309V33.318L11.8814 33.0571L10.7695 30.2761V24.0657C10.7696 23.7648 10.5578 23.5053 10.2629 23.4451ZM8.35952 33.1791C2.3893 28.7001 -0.135506 20.9611 2.04461 13.823L2.5708 15.401C2.61512 15.5345 2.70266 15.6495 2.81964 15.7277L5.97615 17.8318L5.2562 18.5524C5.13748 18.6711 5.07068 18.8321 5.07068 19.0001V20.8997C5.0706 20.9979 5.09331 21.0948 5.13716 21.1827L6.40356 23.7155C6.49126 23.8904 6.65487 24.015 6.84681 24.053L9.50625 24.5843V30.3977C9.50617 30.4781 9.52145 30.5579 9.55121 30.6326L10.8176 33.7986C10.8869 33.9716 11.0289 34.1053 11.2058 34.164L13.1054 34.7972C13.1688 34.8187 13.2353 34.8298 13.3023 34.8301C13.652 34.8301 13.9355 34.5466 13.9355 34.1969V31.3475L16.215 29.6379C16.3744 29.5183 16.4683 29.3306 16.4683 29.1313V27.4938L18.8156 25.1466C18.9038 25.0581 18.964 24.9455 18.9884 24.823L19.6216 21.657C19.6902 21.314 19.4678 20.9805 19.1248 20.9119C19.0841 20.9038 19.0427 20.8997 19.0011 20.8997H16.8267L15.1114 18.0408C14.9969 17.8503 14.791 17.7337 14.5687 17.7337H10.5276L9.43977 15.551C9.34866 15.3688 9.17548 15.2415 8.97436 15.2091C8.77332 15.1743 8.56808 15.2407 8.42538 15.3864L7.60348 16.2051V15.2009C7.60348 15.0329 7.53668 14.8719 7.41795 14.7532L6.33708 13.6723V12.5838L10.2262 12.0285C10.3097 12.0164 10.39 11.9878 10.4624 11.9443L13.6284 10.0447C13.7172 9.99136 13.7916 9.91695 13.8449 9.82815L15.6242 6.86287L17.3016 6.30312C17.491 6.24098 17.6396 6.09242 17.7018 5.90293L18.335 4.00333C18.4447 3.67129 18.2645 3.31314 17.9324 3.20344C17.9018 3.19331 17.8704 3.18555 17.8386 3.18017L14.1736 2.56913L13.5296 2.13982C17.5143 0.842862 21.83 1.00338 25.7073 2.59256L24.5505 3.17004H22.1671C21.9259 3.16869 21.705 3.30451 21.5972 3.5202L20.3308 6.053C20.1748 6.36596 20.302 6.7462 20.615 6.9022C20.6417 6.9155 20.6692 6.9269 20.6975 6.93632L22.5971 7.56952C22.711 7.60822 22.8337 7.61313 22.9504 7.58345L25.3046 6.99521L27.0295 7.56952C27.0542 7.57838 27.0796 7.58519 27.1054 7.58978L30.2715 8.22298C30.4361 8.25654 30.6074 8.22283 30.747 8.12927L32.1882 7.16807C32.8974 7.95807 33.5348 8.80972 34.0928 9.71291L30.9775 10.7514L27.6044 10.1891L26.49 8.51742C26.3732 8.34226 26.1769 8.23668 25.9663 8.23565H22.1671C21.9992 8.23565 21.8382 8.30245 21.7194 8.42118L19.8198 10.3208C19.6788 10.4617 19.6124 10.661 19.6406 10.8584L20.2738 15.2908C20.3057 15.5099 20.4498 15.6965 20.6538 15.7828L25.0862 17.6824C25.2131 17.7374 25.3548 17.7487 25.4889 17.7147L27.75 17.1492L29.1323 18.0724V20.2665C29.1312 20.3645 29.1529 20.4613 29.1957 20.5495L31.6651 25.4815V27.8649C31.6651 28.0328 31.7319 28.1938 31.8507 28.3126L33.1753 29.6379C27.3006 37.4684 16.1901 39.054 8.35952 33.1791Z" fill="#22409A"/>
</g>
<defs>
<clipPath id="clip0_150_512">
<rect width="38" height="38" fill="white"/>
</clipPath>
</defs>
</svg>
