<svg width="16" height="16" viewBox="0 0 16 16" fill="none" xmlns="http://www.w3.org/2000/svg">
<path fill-rule="evenodd" clip-rule="evenodd" d="M12.049 15.938C10.4954 15.5487 7.31505 14.4514 4.4318 11.5682C1.54858 8.68497 0.451267 5.50459 0.0620313 3.95105C-0.161652 3.05826 0.241149 2.19674 0.924144 1.70889L2.71467 0.429938C3.76232 -0.318378 5.21973 -0.0644485 5.95257 0.994092L7.0798 2.62235C7.5583 3.31351 7.39326 4.26082 6.7092 4.74943L5.81037 5.39146C5.94641 5.9118 6.3695 6.98038 7.69457 8.30544C9.01963 9.6305 10.0882 10.0536 10.6086 10.1896L11.2505 9.29074C11.7392 8.60676 12.6865 8.44164 13.3776 8.92014L15.0059 10.0474C16.0644 10.7803 16.3184 12.2376 15.57 13.2853L14.2911 15.0759C13.8032 15.7588 12.9418 16.1617 12.049 15.938ZM5.51939 10.4806C8.14139 13.1026 11.0348 14.0983 12.4227 14.446C12.6256 14.4968 12.8708 14.4179 13.0395 14.1818L14.3185 12.3913C14.5679 12.0421 14.4833 11.5563 14.1304 11.312L12.5022 10.1848L11.8132 11.1494C11.5316 11.5436 11.0109 11.8527 10.4046 11.7219C9.64787 11.5586 8.24898 11.035 6.60699 9.39302C4.96501 7.75104 4.44136 6.35215 4.27808 5.59542C4.14726 4.9891 4.45645 4.46839 4.85065 4.18682L5.81522 3.49784L4.68796 1.86958C4.44368 1.51673 3.95788 1.43209 3.60866 1.68153L1.81814 2.96048C1.58201 3.12914 1.50318 3.37438 1.55401 3.57724C1.90175 4.96517 2.89743 7.85863 5.51939 10.4806Z" fill="white"/>
</svg>
