<svg width="35" height="33" viewBox="0 0 35 33" fill="none" xmlns="http://www.w3.org/2000/svg">
<path fill-rule="evenodd" clip-rule="evenodd" d="M30.5397 4.54941C29.8927 4.04198 29.7919 3.12135 30.3145 2.49314C30.8371 1.86492 31.7853 1.767 32.4323 2.27443C33.0793 2.78186 33.1801 3.70245 32.6576 4.33071C32.1349 4.95892 31.1868 5.05684 30.5397 4.54941ZM30.1748 6.57821L28.4798 8.55311C31.9261 10.9693 34.1346 14.5944 34.1346 19.0827C34.1346 21.7082 33.3612 23.7063 31.892 25.1603C30.4487 26.5886 28.4434 27.3817 26.1958 27.8355C25.8668 27.9019 25.3638 28.1601 24.6883 28.6461C24.0389 29.1133 23.3429 29.7059 22.6296 30.3195L22.4876 30.4417C21.836 31.0027 21.167 31.5786 20.5613 32.0248C20.2347 32.2655 19.9003 32.4882 19.5739 32.6575C19.2616 32.8193 18.875 32.9758 18.4604 32.9977C17.9509 33.0246 17.5039 32.8173 17.2092 32.445C16.9643 32.1356 16.871 31.7716 16.826 31.5044C16.7418 31.004 16.7623 30.3766 16.7789 29.8664L16.7825 29.7549C16.8001 29.1943 16.8056 28.7632 16.7575 28.4636C12.4634 28.4559 8.37649 28.2792 5.33444 27.092C3.74718 26.4727 2.39023 25.5596 1.43834 24.2119C0.485861 22.8635 0 21.1662 0 19.0827C0 10.6138 7.86316 5.21822 17.0673 5.21822C20.6265 5.21822 23.9851 6.02501 26.7662 7.50437L28.6031 5.36405C27.7306 4.15052 27.7466 2.47721 28.7525 1.2681C29.9719 -0.197739 32.1843 -0.426217 33.6939 0.757784C35.2036 1.94178 35.439 4.08989 34.2196 5.55574C33.2251 6.75114 31.5703 7.12361 30.1748 6.57821ZM23.9543 12.3033C23.5283 11.9586 23.4708 11.344 23.8258 10.9304L25.4596 9.02671C23.0865 7.83434 20.2139 7.16782 17.0673 7.16782C8.52834 7.16782 2.00792 12.076 2.00792 19.0827C2.00792 20.8681 2.42105 22.1561 3.09425 23.1093C3.76811 24.0632 4.76354 24.7681 6.08319 25.2831C8.78184 26.3362 12.6027 26.5142 17.0673 26.5142C17.5616 26.5142 17.9901 26.7171 18.2872 27.0684C18.5459 27.3743 18.658 27.7365 18.7155 28.0199C18.8284 28.5769 18.8068 29.265 18.7899 29.8025L18.7895 29.8145C18.7763 30.2354 18.7656 30.581 18.7766 30.8554C18.9407 30.759 19.1309 30.6314 19.3476 30.4718C19.8894 30.0725 20.5032 29.5443 21.1763 28.965L21.298 28.8602C22.0016 28.255 22.7617 27.6057 23.4929 27.0796C24.1982 26.5722 25.0005 26.0855 25.787 25.9267C27.8443 25.5114 29.4086 24.8341 30.4587 23.7949C31.4829 22.7813 32.1267 21.3148 32.1267 19.0827C32.1267 15.3242 30.2505 12.1696 27.193 10.0524L25.3683 12.1785C25.0133 12.592 24.3803 12.6479 23.9543 12.3033ZM13.5535 14.9662C14.1079 14.9662 14.5574 15.4026 14.5574 15.941V18.378C14.5574 18.9164 14.1079 19.3528 13.5535 19.3528C12.999 19.3528 12.5495 18.9164 12.5495 18.378V15.941C12.5495 15.4026 12.999 14.9662 13.5535 14.9662ZM19.5772 15.941C19.5772 15.4026 19.1277 14.9662 18.5733 14.9662C18.0188 14.9662 17.5693 15.4026 17.5693 15.941V18.378C17.5693 18.9164 18.0188 19.3528 18.5733 19.3528C19.1277 19.3528 19.5772 18.9164 19.5772 18.378V15.941Z" fill="#00FF99"/>
</svg>
