<svg width="42" height="35" viewBox="0 0 42 35" fill="none" xmlns="http://www.w3.org/2000/svg">
<path d="M41.3002 16.5279H35.7001C35.3151 16.5279 35.0001 16.8247 35.0001 17.1876H7.00003C7.00003 16.8247 6.68503 16.5279 6.30002 16.5279H0.700003C0.314999 16.5279 0 16.8247 0 17.1876V30.382C0 30.7449 0.314999 31.0418 0.700003 31.0418H6.30002C6.68503 31.0418 7.00003 30.7449 7.00003 30.382V29.7223H10.227L15.4279 34.3072C15.8969 34.7558 16.5199 34.9999 17.1849 34.9999C17.8499 34.9999 18.4799 34.7558 18.9419 34.3072C19.2219 34.0433 19.4109 33.7267 19.5299 33.3968C19.9919 33.8125 20.5869 34.0368 21.2169 34.0368C21.8819 34.0368 22.5119 33.7927 22.9809 33.3441C23.2539 33.0802 23.4429 32.7701 23.5619 32.4402C24.0239 32.8493 24.619 33.0802 25.2559 33.0802C25.8929 33.0802 26.5439 32.8361 27.0129 32.3875C27.2789 32.1302 27.4679 31.8201 27.5869 31.4968H27.5939C28.0629 31.952 28.6859 32.1961 29.3509 32.1961C30.016 32.1961 30.6389 31.952 31.108 31.5034C31.577 31.0614 31.829 30.4677 31.829 29.8409V29.7222H35V30.3819C35 30.7447 35.315 31.0416 35.7 31.0416H41.3C41.685 31.0416 42 30.7447 42 30.3819V17.1874C42 16.8246 41.6852 16.5279 41.3002 16.5279ZM30.114 30.5798C29.708 30.9625 28.994 30.9625 28.588 30.5798L27.097 29.1614C27.097 29.1614 27.048 29.0889 27.013 29.0559C26.992 29.0427 26.971 29.0361 26.95 29.0163L23.597 25.8298C23.324 25.5659 22.883 25.5659 22.61 25.8232C22.33 26.0805 22.33 26.4962 22.603 26.7534L26.103 30.0916C26.432 30.494 26.411 31.0812 26.019 31.4572C25.606 31.8465 24.899 31.8465 24.493 31.4572L22.981 30.0191L20.097 27.2746C19.824 27.0173 19.383 27.0107 19.11 27.268C18.83 27.5253 18.83 27.941 19.103 28.2048L21.987 30.9493C22.407 31.3517 22.407 32.0114 21.987 32.4205C21.581 32.8097 20.874 32.8097 20.4681 32.4205L16.457 28.6007C16.184 28.3368 15.743 28.3368 15.463 28.5941C15.19 28.8514 15.19 29.267 15.456 29.5243L17.955 31.9059C18.165 32.1104 18.277 32.3743 18.277 32.6448C18.277 32.9152 18.165 33.1791 17.955 33.3771C17.549 33.7663 16.856 33.7861 16.415 33.3639L10.983 28.5809C10.857 28.4688 10.682 28.4028 10.507 28.4028H7.00697V18.5067H17.2201L14.21 21.337C13.713 21.812 13.433 22.4453 13.433 23.1248C13.433 23.8043 13.713 24.4377 14.21 24.9127C15.2601 25.8956 16.954 25.8956 18.0041 24.9127L20.5941 22.4651H23.5061L30.1213 29.1083C30.1913 29.1743 30.2613 29.2601 30.3103 29.359C30.3173 29.359 30.3173 29.359 30.3243 29.3722C30.4013 29.5174 30.4363 29.6691 30.4363 29.8406C30.4363 30.1177 30.3243 30.3816 30.1213 30.5795L30.114 30.5798ZM34.9999 28.4028H31.3179C31.2549 28.3236 31.1849 28.251 31.1219 28.1917L24.3109 21.3567C24.1779 21.2182 23.9959 21.1456 23.7999 21.1456H20.2999C20.1109 21.1456 19.9359 21.2182 19.8029 21.3369L17.0029 23.9758C16.5059 24.4508 15.6939 24.4508 15.1969 23.9758C14.9589 23.7515 14.8259 23.4481 14.8259 23.1248C14.8259 22.8015 14.9589 22.4981 15.1969 22.2738L19.1869 18.5067H35L34.9999 28.4028Z" fill="#00FF99"/>
<path d="M21.5 14.5833C25.6385 14.5833 29 11.3154 29 7.29167C29 3.26789 25.6387 0 21.5 0C17.3613 0 14 3.26789 14 7.29167C14 11.3154 17.3613 14.5833 21.5 14.5833ZM17.6069 6.82119C17.8728 6.56268 18.3092 6.56268 18.5751 6.82119L20.1364 8.34579L24.084 4.50121C24.3499 4.24269 24.7863 4.24269 25.0522 4.50121C25.3181 4.75973 25.3181 5.18396 25.0522 5.44249L20.6206 9.75097C20.4843 9.87691 20.3138 9.9432 20.1365 9.9432C19.9593 9.9432 19.7888 9.87691 19.6524 9.75097L17.6071 7.76239C17.3411 7.50387 17.341 7.07972 17.6069 6.82119Z" fill="#00FF99"/>
</svg>
