<svg width="47" height="45" viewBox="0 0 47 45" fill="none" xmlns="http://www.w3.org/2000/svg">
<path fill-rule="evenodd" clip-rule="evenodd" d="M38.2508 34.3605C38.8439 34.8277 38.9442 35.6875 38.477 36.2785C34.2825 41.5908 27.6131 44.8058 20.3468 44.2875C8.6872 43.4555 -0.0897521 33.3302 0.742065 21.6706C1.33089 13.412 6.58335 6.60176 13.7349 3.62786C14.4325 3.33771 15.2305 3.66627 15.5206 4.36394C15.8108 5.05943 15.4801 5.85952 14.7845 6.14751C8.55055 8.74182 3.97856 14.6749 3.46625 21.8647C2.74088 32.0201 10.3851 40.8397 20.5406 41.5628C26.8664 42.0151 32.676 39.2202 36.3326 34.5866C36.7998 33.9935 37.6599 33.8933 38.2508 34.3605Z" fill="#00FF99"/>
<path fill-rule="evenodd" clip-rule="evenodd" d="M27.541 20.6423C26.8861 20.3906 26.2034 20.1943 25.4972 20.0599C25.4502 20.0513 25.4012 20.0407 25.3521 20.0321C24.9126 19.9553 24.9126 19.3238 25.3521 19.247C25.4012 19.2385 25.4502 19.2278 25.4972 19.2193C26.2034 19.0849 26.8861 18.8886 27.541 18.6368C27.9229 18.4918 28.2942 18.3275 28.6547 18.144C30.9333 16.9919 32.7894 15.1358 33.9415 12.8572C34.125 12.4967 34.2893 12.1255 34.4343 11.7436C34.6861 11.0886 34.8824 10.4059 35.0168 9.69967C35.0253 9.65274 35.036 9.60367 35.0445 9.5546C35.1213 9.1151 35.7528 9.1151 35.8296 9.5546C35.8382 9.60367 35.8488 9.65274 35.8574 9.69967C35.9918 10.4059 36.188 11.0886 36.4398 11.7436C36.5849 12.1254 36.7491 12.4967 36.9326 12.8572C38.0847 15.1358 39.9408 16.9919 42.2194 18.144C42.5799 18.3275 42.9511 18.4918 43.3331 18.6368C43.988 18.8886 44.6708 19.0849 45.377 19.2193C45.4239 19.2278 45.473 19.2385 45.522 19.247C45.9615 19.3238 45.9615 19.9553 45.522 20.0321C45.473 20.0407 45.4239 20.0513 45.377 20.0599C44.6708 20.1943 43.988 20.3906 43.3331 20.6423C42.9512 20.7874 42.58 20.9517 42.2194 21.1351C39.9408 22.2872 38.0847 24.1433 36.9326 26.4219C36.7491 26.7825 36.5849 27.1537 36.4398 27.5356C36.188 28.1906 35.9918 28.8733 35.8574 29.5795C35.8488 29.6264 35.8382 29.6755 35.8296 29.7245C35.7528 30.164 35.1213 30.164 35.0445 29.7245C35.036 29.6755 35.0253 29.6264 35.0168 29.5795C34.8824 28.8733 34.6861 28.1906 34.4343 27.5356C34.2893 27.1537 34.125 26.7825 33.9415 26.4219C32.7894 24.1433 30.9333 22.2872 28.6547 21.1351C28.2942 20.9517 27.923 20.7874 27.541 20.6423Z" fill="#00FF99"/>
<path fill-rule="evenodd" clip-rule="evenodd" d="M23.2698 7.08197C22.5977 6.67021 21.8446 6.37152 21.0403 6.21793C21.0126 6.21367 20.987 6.2094 20.9593 6.203C20.7161 6.16033 20.7161 5.81044 20.9593 5.76777C20.987 5.76137 21.0126 5.7571 21.0403 5.75283C21.8447 5.59922 22.5978 5.30054 23.2698 4.88879C23.5258 4.73092 23.7712 4.5581 24.0037 4.36822C24.3472 4.08661 24.663 3.77082 24.9446 3.42733C25.1345 3.19479 25.3073 2.94944 25.4652 2.69339C25.877 2.02133 26.1757 1.26821 26.3292 0.463924C26.3335 0.436189 26.3378 0.410587 26.3442 0.382851C26.3869 0.139636 26.7367 0.139636 26.7794 0.382851C26.7858 0.410586 26.7901 0.436188 26.7944 0.463924C26.948 1.26827 27.2466 2.02138 27.6584 2.69339C27.8163 2.94941 27.9891 3.19476 28.179 3.42733C28.4606 3.77083 28.7764 4.08656 29.1198 4.36822C29.3524 4.5581 29.5977 4.73091 29.8538 4.88879C30.5259 5.30056 31.279 5.59925 32.0833 5.75283C32.111 5.7571 32.1366 5.76137 32.1643 5.76777C32.4075 5.81044 32.4075 6.16033 32.1643 6.203C32.1366 6.2094 32.111 6.21367 32.0833 6.21793C31.2789 6.37154 30.5258 6.67023 29.8538 7.08197C29.5978 7.23985 29.3524 7.41266 29.1198 7.60255C28.7764 7.88416 28.4606 8.19995 28.179 8.54343C27.9891 8.77598 27.8163 9.02133 27.6584 9.27738C27.2466 9.94944 26.9479 10.7026 26.7944 11.5068C26.7901 11.5346 26.7858 11.5602 26.7794 11.5879C26.7367 11.8311 26.3869 11.8311 26.3442 11.5879C26.3378 11.5602 26.3335 11.5346 26.3292 11.5068C26.1756 10.7025 25.877 9.94939 25.4652 9.27738C25.3073 9.02136 25.1345 8.77601 24.9446 8.54343C24.663 8.19994 24.3472 7.88421 24.0037 7.60255C23.7712 7.41266 23.5259 7.23986 23.2698 7.08197Z" fill="#00FF99"/>
<path fill-rule="evenodd" clip-rule="evenodd" d="M42.1768 9.83413C42.4819 10.28 42.7016 10.7921 42.8061 11.3468C42.8104 11.3617 42.8125 11.3788 42.8168 11.3958C42.8424 11.5409 43.0515 11.5409 43.0771 11.3958C43.0814 11.3788 43.0835 11.3617 43.0878 11.3468C43.1923 10.7921 43.4121 10.28 43.7171 9.83413C43.8217 9.68479 43.9347 9.53971 44.0585 9.4053C44.1417 9.3157 44.2291 9.22822 44.3188 9.14502C44.4532 9.02128 44.5982 8.90821 44.7476 8.80366C45.1935 8.49858 45.7055 8.27883 46.2602 8.17431C46.2751 8.17004 46.2922 8.16791 46.3093 8.16364C46.4543 8.13804 46.4543 7.92896 46.3093 7.90336C46.2922 7.89909 46.2751 7.89696 46.2602 7.89269C45.7055 7.78815 45.1935 7.5684 44.7476 7.26334C44.5982 7.1588 44.4532 7.04573 44.3188 6.92198C44.2291 6.83878 44.1417 6.75131 44.0585 6.6617C43.9347 6.5273 43.8217 6.38222 43.7171 6.23287C43.412 5.78697 43.1923 5.27494 43.0878 4.72025C43.0835 4.70532 43.0814 4.68825 43.0771 4.67118C43.0515 4.52611 42.8424 4.52611 42.8168 4.67118C42.8125 4.68825 42.8104 4.70532 42.8061 4.72025C42.7016 5.27494 42.4819 5.78698 42.1768 6.23287C42.0723 6.38222 41.9592 6.52729 41.8354 6.6617C41.7522 6.75131 41.6648 6.83878 41.5752 6.92198C41.4408 7.04573 41.2957 7.1588 41.1463 7.26334C40.7004 7.56843 40.1884 7.78818 39.6337 7.89269C39.6188 7.89696 39.6017 7.89909 39.5846 7.90336C39.4396 7.92896 39.4396 8.13804 39.5846 8.16364C39.6017 8.16791 39.6188 8.17004 39.6337 8.17431C40.1884 8.27885 40.7004 8.4986 41.1463 8.80366C41.2957 8.90821 41.4407 9.02128 41.5752 9.14502C41.6648 9.22822 41.7522 9.3157 41.8354 9.4053C41.9592 9.53971 42.0723 9.68479 42.1768 9.83413Z" fill="#00FF99"/>
</svg>
