<svg width="45" height="56" viewBox="0 0 45 56" fill="none" xmlns="http://www.w3.org/2000/svg">
<path fill-rule="evenodd" clip-rule="evenodd" d="M36.8735 12.5885C31.3982 15.8484 27.2233 20.9711 24.4954 24.3191C23.5778 25.4434 22.8559 26.3334 22.2606 26.9368C21.9299 27.273 21.3871 27.2813 21.0481 26.9506L15.5425 21.6076L14.0242 24.5864L22.4124 32.5859C26.7056 25.8761 31.2301 18.4718 36.8735 12.5885ZM34.8234 17.5128C35.5316 19.1661 35.9008 20.96 35.9008 22.7704C35.9008 26.1707 34.4459 28.7445 32.7622 31.723C31.5057 33.9439 30.0949 36.4433 29.0422 39.6837H16.0962C15.0464 36.4431 13.6327 33.9439 12.3762 31.723C10.6926 28.7441 9.23765 26.1705 9.23765 22.7704C9.23765 15.4184 15.2173 9.43921 22.5688 9.43921C26.2888 9.43921 29.791 10.9713 32.3101 13.6718C28.3889 16.8131 25.3302 20.5662 23.1586 23.231C22.5799 23.9419 22.0536 24.5868 21.6072 25.0993L15.8976 19.5633C15.4815 19.1582 14.7926 19.2767 14.5308 19.7892L12.1913 24.3773C12.0205 24.7162 12.0894 25.1295 12.3649 25.3913L21.9707 34.5534C22.362 34.9282 22.9986 34.851 23.2907 34.3964C26.9722 28.6813 30.5824 22.7294 34.8234 17.5128ZM28.9596 44.0326C29.6843 44.0326 30.274 43.4429 30.274 42.7182C30.274 41.9934 29.6843 41.4037 28.9596 41.4037H16.1793C15.4547 41.4037 14.8649 41.9934 14.8649 42.7182C14.8649 43.4429 15.4546 44.0326 16.1793 44.0326H28.9596ZM28.9596 45.7548H16.1793C15.4547 45.7548 14.8649 46.3445 14.8649 47.0692C14.8649 47.7939 15.4546 48.3837 16.1793 48.3837H28.9596C29.6843 48.3837 30.274 47.794 30.274 47.0692C30.274 46.3446 29.6843 45.7548 28.9596 45.7548ZM26.7882 50.1059H18.3506C18.7942 52.0238 20.5302 53.4677 22.5694 53.4677C24.6086 53.4677 26.3445 52.0237 26.7882 50.1059ZM41.8942 10.2683C39.8083 11.9768 37.8711 13.9332 36.0441 16.0522C37.0774 18.1272 37.6231 20.4363 37.6231 22.7703C37.6231 26.6226 36.0662 29.3809 34.2613 32.5722C33.046 34.7216 31.6821 37.1382 30.679 40.2191C32.258 41.3075 32.4509 43.5561 31.0758 44.8953C31.6435 45.4464 31.9962 46.2179 31.9962 47.0694C31.9962 48.742 30.635 50.106 28.9596 50.106H28.5435C28.0778 53.0214 25.5509 55.1901 22.5694 55.1901C19.5878 55.1901 17.0637 53.0214 16.5952 50.106H16.1791C14.5038 50.106 13.1425 48.7448 13.1425 47.0694C13.1425 46.2179 13.4952 45.4463 14.0629 44.8953C12.6878 43.5588 12.8807 41.3075 14.4597 40.2191C13.4594 37.1383 12.0926 34.7217 10.8774 32.5722C9.07252 29.3813 7.51565 26.6257 7.51565 22.7703C7.51565 14.4702 14.2695 7.71648 22.5695 7.71648C26.8296 7.71648 30.8364 9.49381 33.6884 12.6241C35.9066 11.0232 38.3701 9.65366 41.0813 8.78288C41.9823 8.49354 42.6245 9.66755 41.8942 10.2683ZM8.28695 11.9161C9.04747 11.9161 9.43877 10.9902 8.89593 10.4474L6.58403 8.13551C6.24785 7.79933 5.70224 7.79933 5.36604 8.13551C5.02986 8.47169 5.02986 9.01729 5.36604 9.3535L7.68069 11.6654C7.84602 11.8335 8.0665 11.9161 8.28695 11.9161ZM35.6886 37.2395C35.3524 36.9034 34.8068 36.9034 34.4706 37.2395C34.1344 37.5757 34.1344 38.1213 34.4706 38.4575L37.1022 41.0864C37.4384 41.4226 37.984 41.4226 38.3174 41.0864C38.6536 40.7502 38.6536 40.2046 38.3174 39.8684L35.6886 37.2395ZM9.4502 37.2395L6.82135 39.8684C6.2785 40.4112 6.6698 41.3371 7.43033 41.3371C7.65078 41.3371 7.87122 41.2544 8.03931 41.0836L10.6709 38.4547C11.0071 38.1185 11.0071 37.5729 10.6709 37.2367C10.332 36.9033 9.7864 36.9034 9.4502 37.2395ZM44.1375 24.4784H40.6985C40.2218 24.4784 39.836 24.8641 39.836 25.3409C39.836 25.8176 40.2218 26.2034 40.6985 26.2034H44.1375C44.6142 26.2034 45 25.8176 45 25.3409C45 24.8642 44.6142 24.4784 44.1375 24.4784ZM4.44096 24.4784H0.999245C0.525282 24.4784 0.136719 24.8641 0.136719 25.3409C0.136719 25.8176 0.522503 26.2034 0.999245 26.2034H4.44096C4.91767 26.2034 5.30348 25.8176 5.30348 25.3409C5.30348 24.8642 4.9177 24.4784 4.44096 24.4784ZM21.7098 4.22765V1.03672C21.7098 0.560007 22.0956 0.174194 22.5723 0.174194C23.0463 0.174194 23.4349 0.559979 23.4349 1.03672V4.22765C23.4349 4.70436 23.0491 5.09018 22.5723 5.09018C22.0956 5.09018 21.7098 4.70439 21.7098 4.22765Z" fill="#00FF99"/>
</svg>
