<svg width="32" height="46" viewBox="0 0 32 46" fill="none" xmlns="http://www.w3.org/2000/svg">
<path fill-rule="evenodd" clip-rule="evenodd" d="M22.5917 14.4743C24.4682 15.5574 25.1183 17.9834 24.0326 19.8632C22.9494 21.7397 20.5274 22.3866 18.647 21.3035C16.7743 20.221 16.1203 17.7989 17.2034 15.9191C18.2892 14.042 20.7151 13.3918 22.5917 14.4743ZM20.8584 4.90063C16.9235 8.1638 13.7532 11.945 11.532 16.2154C8.72467 21.6115 8.75672 25.8388 8.90847 29.4624C8.93332 30.0105 8.97715 30.505 9.03471 30.9674L10.1591 31.6182L12.2233 27.3098C12.6014 26.4615 13.2757 25.6949 14.3759 25.8316L9.98507 34.3574C9.51872 35.2398 11.0074 36.1189 11.5895 35.2843L13.0036 33.2599L14.924 34.3673C15.3766 34.1998 15.8541 34.0062 16.3688 33.7707C19.6686 32.2585 23.2863 30.017 26.5325 24.8773C29.1919 20.6671 30.9808 15.7072 31.6695 11.1431C29.7381 10.7821 27.7144 10.039 25.7521 8.90552C23.7912 7.77528 22.1358 6.39192 20.8584 4.90063Z" fill="white"/>
<path fill-rule="evenodd" clip-rule="evenodd" d="M26.1401 28.7162C26.2113 29.1224 26.2702 29.4867 26.3278 29.8778C26.7712 32.9912 26.454 35.147 25.3198 36.9909C23.7527 39.5378 21.0174 41.1187 17.9628 42.8827C17.3729 43.2163 16.641 42.7735 16.675 42.0965L16.9843 35.5597C20.2815 34.6395 23.3105 32.3541 26.1401 28.7162Z" fill="white"/>
<path fill-rule="evenodd" clip-rule="evenodd" d="M30.6267 0.458807C30.163 0.32603 29.711 0.462077 29.3081 0.568037C26.8658 1.20576 24.5739 2.30852 22.4619 3.73244C23.5719 4.99218 25.0193 6.19895 26.7402 7.19314C28.4637 8.18733 30.2277 8.83813 31.8734 9.16844C32.05 6.62409 31.8596 4.08629 31.1925 1.65511C31.0826 1.25547 30.9707 0.792384 30.6267 0.458807Z" fill="white"/>
<path fill-rule="evenodd" clip-rule="evenodd" d="M8.40478 18.4773C8.01626 18.6133 7.66895 18.7461 7.30071 18.8966C4.38485 20.0673 2.67511 21.42 1.64625 23.3207C0.22495 25.9533 0.22168 29.1106 0.22168 32.6399C0.22495 33.3182 0.978441 33.7303 1.54683 33.362L7.05085 29.8235C6.20056 26.5126 6.66691 22.7451 8.40478 18.4773Z" fill="white"/>
<path d="M7.21987 32.1841C4.95481 33.4922 3.52436 35.9581 3.01679 38.4795C2.50989 41.0029 3.47922 44.4532 4.79522 45.2126C6.1086 45.9687 9.58041 45.087 11.5119 43.3844C13.444 41.6838 14.864 39.2147 14.864 36.5951L13.4813 35.7978C13.4264 39.3782 8.98455 42.4471 6.5115 42.2398C5.09478 40.2024 5.5304 34.8206 8.60715 32.9814L7.21987 32.1841Z" fill="white"/>
</svg>
