<svg width="39" height="39" viewBox="0 0 39 39" fill="none" xmlns="http://www.w3.org/2000/svg">
<path d="M19.5747 3.04726C19.1535 3.04421 18.81 3.38318 18.8069 3.80365C18.8039 4.22412 19.1421 4.56765 19.5633 4.5707C19.9838 4.57375 20.3273 4.23554 20.3303 3.81507C20.3334 3.39461 19.9952 3.05107 19.5747 3.04726Z" fill="#22409A"/>
<path d="M19.5401 7.61757C16.599 7.5967 14.1904 9.96937 14.1681 12.9095C14.146 15.8495 16.5199 18.2593 19.4601 18.2815C19.4737 18.2816 19.4873 18.2816 19.5009 18.2816C22.4223 18.2816 24.8099 15.916 24.832 12.9895C24.8542 10.0497 22.4803 7.63973 19.5401 7.61757ZM19.5008 16.7583C19.4912 16.7583 19.4811 16.7582 19.4715 16.7581C17.3714 16.7423 15.6756 15.0209 15.6915 12.921C15.7073 10.8304 17.4126 9.14078 19.4994 9.14078C19.509 9.14078 19.519 9.14085 19.5286 9.14093C21.6288 9.15677 23.3245 10.8781 23.3087 12.9781C23.2928 15.0686 21.5876 16.7583 19.5008 16.7583Z" fill="#22409A"/>
<path d="M22.8236 3.62493C22.4273 3.48432 21.9917 3.69189 21.8511 4.08844C21.7106 4.48499 21.9181 4.92031 22.3146 5.06093C25.6697 6.25005 27.9058 9.44553 27.879 13.0124C27.8758 13.4331 28.2143 13.7767 28.635 13.7799C28.6369 13.7799 28.6388 13.7799 28.6408 13.7799C29.0587 13.7799 29.3992 13.4426 29.4024 13.0239C29.4341 8.80797 26.7902 5.03084 22.8236 3.62493Z" fill="#22409A"/>
<path d="M24.1737 28.6743C29.2401 22.1528 32.4064 18.7521 32.4491 13.0466C32.5027 5.8679 26.677 0 19.4988 0C12.4045 0 6.6049 5.74549 6.55097 12.8523C6.5074 18.7126 9.73244 22.1087 14.8338 28.6732C9.75888 29.4316 6.55097 31.3372 6.55097 33.668C6.55097 35.2293 7.99413 36.6303 10.6147 37.6129C12.9998 38.5073 16.1554 38.9999 19.5 38.9999C22.8447 38.9999 26.0002 38.5073 28.3854 37.6129C31.006 36.6302 32.4491 35.2292 32.4491 33.6679C32.4491 31.3384 29.2442 29.4333 24.1737 28.6743ZM8.07433 12.8638C8.12187 6.59268 13.2387 1.52344 19.499 1.52344C25.8333 1.52344 30.973 6.70221 30.9257 13.0352C30.8852 18.4536 27.5274 21.7928 22.1667 28.781C21.2105 30.0269 20.3324 31.2048 19.5012 32.3571C18.6724 31.2041 17.8118 30.0473 16.8413 28.7806C11.259 21.4997 8.03305 18.413 8.07433 12.8638ZM19.5 37.4766C12.9606 37.4766 8.07433 35.4659 8.07433 33.668C8.07433 32.3347 10.9954 30.6503 15.9068 30.0671C16.9925 31.4916 17.9443 32.7857 18.8779 34.1075C19.0205 34.3093 19.2522 34.4295 19.4994 34.4297C19.4996 34.4297 19.4998 34.4297 19.5 34.4297C19.747 34.4297 19.9786 34.3099 20.1214 34.1085C21.0462 32.804 22.0241 31.4779 23.1005 30.0679C28.0073 30.6518 30.9257 32.3356 30.9257 33.668C30.9257 35.4659 26.0395 37.4766 19.5 37.4766Z" fill="#22409A"/>
</svg>
