<svg width="14" height="18" viewBox="0 0 14 18" fill="none" xmlns="http://www.w3.org/2000/svg">
<path d="M6.56641 0C2.94663 0 1.57946e-06 2.94664 0 6.56641C-2.25638e-06 12.9356 6.19622 17.7778 6.19622 17.7778C6.30199 17.8622 6.4333 17.9081 6.56861 17.9081C6.70393 17.9081 6.83523 17.8622 6.941 17.7778C6.941 17.7778 13.1372 12.9356 13.1372 6.56641C13.1372 2.94664 10.1862 0 6.56641 0ZM6.56641 1.19429C9.5409 1.19429 11.9429 3.59192 11.9429 6.56641C11.9429 11.777 7.22471 15.8937 6.57082 16.4513C5.92004 15.8965 1.19429 11.779 1.19429 6.56641C1.19429 3.59192 3.59192 1.19429 6.56641 1.19429Z" fill="white"/>
<path d="M6.56654 3.58301C4.92504 3.58301 3.58301 4.92505 3.58301 6.56654C3.583 8.20805 4.92503 9.55447 6.56654 9.55447C8.20804 9.55447 9.55448 8.20805 9.55447 6.56654C9.55447 4.92505 8.20803 3.58301 6.56654 3.58301ZM6.56654 4.7773C7.56275 4.7773 8.36018 5.57032 8.36018 6.56654C8.36019 7.56275 7.56275 8.36018 6.56654 8.36018C5.57032 8.36018 4.77729 7.56275 4.7773 6.56654C4.7773 5.57032 5.57033 4.7773 6.56654 4.7773Z" fill="white"/>
</svg>
