<svg width="40" height="40" viewBox="0 0 40 40" fill="none" xmlns="http://www.w3.org/2000/svg">
<path d="M34.0101 0.0748291H11.3892C8.72064 0.0748291 6.52396 2.12575 6.28711 4.73419H8.74797C8.97025 3.47582 10.0689 2.51626 11.3898 2.51626H34.0107C35.4913 2.51626 36.6962 3.72118 36.6962 5.20183V17.4065C36.6962 18.7281 35.7361 19.8261 34.4789 20.0496V22.5098C37.0867 22.2724 39.1371 20.0757 39.1371 17.4071V5.20122C39.1358 2.37475 36.8365 0.0748291 34.0101 0.0748291Z" fill="#00FF99"/>
<path d="M27.8846 6.19653H5.26797C2.43846 6.19653 0.136719 8.49888 0.136719 11.3229V23.5301C0.136719 26.3541 2.43846 28.6552 5.26797 28.6552H5.62021V39.2894L8.06225 36.848L16.255 28.6552H27.8846C30.7147 28.6552 33.0097 26.3541 33.0097 23.5301V11.3229C33.0097 8.49888 30.7147 6.19653 27.8846 6.19653ZM30.5689 23.5301C30.5689 25.0113 29.3664 26.2144 27.8846 26.2144H15.2402L12.7987 28.6558L8.06164 33.3935V26.215H5.26736C3.78611 26.215 2.57693 25.0125 2.57693 23.5307V11.3235C2.57693 9.84653 3.7855 8.63917 5.26736 8.63917H27.884C29.3652 8.63917 30.5683 9.84653 30.5683 11.3235L30.5689 23.5301Z" fill="#00FF99"/>
</svg>
