<svg width="44" height="48" viewBox="0 0 44 48" fill="none" xmlns="http://www.w3.org/2000/svg">
<path d="M10.2871 40.9265C10.9531 40.9265 11.6094 40.863 12.248 40.738C13.6304 44.8308 17.4492 47.6096 21.8594 47.6096C26.2695 47.6096 30.0884 44.8308 31.4707 40.738C32.1094 40.863 32.7656 40.9265 33.4316 40.9265C39.0288 40.9265 43.582 36.3704 43.582 30.7698C43.582 28.3137 42.6777 25.9314 41.0728 24.0925C42.6777 22.2537 43.582 19.8713 43.582 17.4153C43.582 11.8147 39.0288 7.25854 33.4316 7.25854C32.7656 7.25854 32.1094 7.32202 31.4707 7.44702C30.0884 3.35425 26.2695 0.575439 21.8594 0.575439C17.4492 0.575439 13.6304 3.35425 12.248 7.44702C11.6094 7.32202 10.9531 7.25854 10.2871 7.25854C4.68994 7.25854 0.136719 11.8147 0.136719 17.4153C0.136719 19.8713 1.04102 22.2537 2.646 24.0925C1.04102 25.9314 0.136719 28.3137 0.136719 30.7698C0.136719 36.3704 4.68994 40.9265 10.2871 40.9265ZM21.8594 45.6096C18.2891 45.6096 15.2021 43.342 14.1157 40.0125L25.999 33.1521C26.3086 32.9734 26.499 32.6433 26.499 32.2859L26.4995 26.197L26.5 26.1941V23.7239L29.7744 25.6155V39.4016C28.8828 43.0608 25.6436 45.6096 21.8594 45.6096ZM19.2188 25.616V22.5671L21.8594 21.0427L22.2632 21.2756L24.5 22.5681L24.4995 25.6165L21.8589 27.1404L21.1509 26.7322L19.2188 25.616ZM41.582 30.7698C41.582 35.2673 37.9258 38.9265 33.4316 38.9265C32.8643 38.9265 32.314 38.8494 31.7744 38.7371V25.0383C31.7744 24.6814 31.584 24.3513 31.2744 24.1726L26.0088 21.1306C26.0059 21.1287 26.0034 21.1257 26 21.1238L23.8594 19.8879L27.1309 17.9998L39.0664 24.8904C40.6641 26.4221 41.582 28.5574 41.582 30.7698ZM41.582 17.4153C41.582 19.4148 40.8311 21.3503 39.5078 22.8357L27.6309 15.9788C27.3213 15.8 26.9404 15.8 26.6309 15.9788L19.2158 20.2581L19.2168 16.4163L30.9976 9.61401C31.0215 9.60864 31.0454 9.6145 31.0688 9.60718C31.8203 9.37573 32.6152 9.25854 33.4316 9.25854C37.9258 9.25854 41.582 12.9177 41.582 17.4153ZM21.8594 2.57544C25.4106 2.57544 28.4814 4.82007 29.584 8.12036L17.7168 14.9724C17.4072 15.1511 17.2168 15.4812 17.2168 15.8381L17.2144 24.4578L13.9443 22.5691V8.78345C14.8359 5.12427 18.0752 2.57544 21.8594 2.57544ZM2.13672 17.4153C2.13672 12.9177 5.79297 9.25854 10.2871 9.25854C10.8545 9.25854 11.4048 9.33569 11.9443 9.448V23.1462C11.9443 23.5037 12.1348 23.8337 12.4443 24.012L17.7095 27.053C17.7129 27.0549 17.7153 27.0583 17.7188 27.0603L19.8579 28.2952L16.583 30.1853L4.65723 23.2996C3.05664 21.7678 2.13672 19.6301 2.13672 17.4153ZM4.20898 25.3508L16.083 32.2063C16.2378 32.2957 16.4102 32.3401 16.583 32.3401C16.7554 32.3401 16.9282 32.2957 17.083 32.2063L22.3496 29.1667L22.354 29.1643L22.356 29.1633L22.3594 29.1619L24.4995 27.9265L24.499 31.7083L12.5684 38.5964C11.8403 38.8118 11.0747 38.9265 10.2871 38.9265C5.79297 38.9265 2.13672 35.2673 2.13672 30.7698C2.13672 28.7708 2.88672 26.8357 4.20898 25.3508Z" fill="#00FF99"/>
</svg>
