<svg width="43" height="42" viewBox="0 0 43 42" fill="none" xmlns="http://www.w3.org/2000/svg">
<path fill-rule="evenodd" clip-rule="evenodd" d="M1.5554 41.7506H7.51032C7.988 41.747 8.37475 41.3602 8.37653 40.8826V30.1011C8.37653 29.6217 7.98798 29.2349 7.51032 29.2349H1.57867C1.34518 29.2296 1.11883 29.3187 0.951285 29.4809C0.783743 29.6448 0.689279 29.8676 0.6875 30.1011V40.8826C0.691064 41.3603 1.07775 41.747 1.5554 41.7506ZM38.391 0.200699C39.8863 0.200699 41.1001 1.4145 41.1001 2.91165C41.1001 4.4088 39.8863 5.6226 38.391 5.6226C37.8206 5.6226 37.2663 5.44258 36.8064 5.10572L29.3011 12.6074C29.8376 13.3471 29.9641 14.3078 29.6397 15.1616C29.3136 16.0153 28.581 16.648 27.6881 16.8441C26.7951 17.0402 25.8647 16.7746 25.2106 16.1347C24.5583 15.4967 24.2713 14.5716 24.446 13.6751L18.1776 11.3616C17.8015 12.0318 17.1598 12.5094 16.4113 12.677C15.6627 12.8463 14.8784 12.6877 14.2528 12.2421L6.71507 19.9259C7.54564 21.0594 7.36563 22.6421 6.30156 23.56C5.23752 24.4779 3.64765 24.4262 2.64598 23.4406C1.64608 22.4532 1.56943 20.8634 2.47309 19.7868C3.37497 18.7103 4.95233 18.5071 6.09838 19.3199L13.6375 11.6397C13.0939 10.9036 12.9584 9.94114 13.2793 9.08383C13.6001 8.22653 14.3308 7.58846 15.2256 7.38701C16.1185 7.18739 17.0525 7.45118 17.7084 8.08928C18.3661 8.72912 18.6548 9.65596 18.4783 10.5542L24.7431 12.8624C25.1227 12.1922 25.7697 11.7146 26.5219 11.5488C27.2758 11.383 28.0636 11.5452 28.6892 11.9962L36.1945 4.49947C35.6028 3.67424 35.5208 2.58702 35.9825 1.68157C36.4441 0.776129 37.3727 0.205778 38.3904 0.200439L38.391 0.200699ZM35.4145 41.7506H41.3461C41.8256 41.747 42.2105 41.3602 42.2141 40.8826V11.5574C42.2105 11.0815 41.8238 10.6948 41.3461 10.6948H35.4145C34.9386 10.6948 34.55 11.0815 34.5483 11.5574V40.8826C34.55 41.3603 34.9368 41.747 35.4145 41.7506ZM24.127 41.7506H30.0586C30.5363 41.747 30.9231 41.3602 30.9248 40.8826V23.6082C30.9231 23.1306 30.5363 22.7438 30.0586 22.742H24.127C23.6493 22.7438 23.2626 23.1306 23.2608 23.6082V40.8826C23.2626 41.3603 23.6493 41.747 24.127 41.7506ZM12.8432 41.7506H18.7748C19.2525 41.747 19.6392 41.3602 19.6428 40.8826V19.4374C19.6392 18.9597 19.2525 18.5729 18.7748 18.5712H12.8432C12.3655 18.5729 11.9787 18.9597 11.9769 19.4374V40.8826C11.9787 41.3603 12.3655 41.747 12.8432 41.7506Z" fill="#00FF99"/>
</svg>
