<svg width="65" height="36" viewBox="0 0 65 36" fill="none" xmlns="http://www.w3.org/2000/svg">
<path fill-rule="evenodd" clip-rule="evenodd" d="M3.06283 23.9354C3.22342 25.4752 3.58553 26.467 4.02949 27.0149C4.40104 27.4337 4.98042 27.61 5.52832 27.4589H11.5897C12.2509 27.5219 12.8964 27.2668 13.331 26.7662L13.3562 26.7347C13.7907 26.0105 14.008 25.1697 13.9765 24.3259C13.9765 24.3259 13.9355 7.55849 13.9355 7.54318C13.8883 7.0992 13.6458 6.69615 13.2837 6.43796C12.654 6.11678 11.955 5.97194 11.2434 6.02547H3.83434C3.21403 5.99398 2.60949 6.21125 2.15921 6.63948C1.8034 7.05826 1.68375 7.78565 1.85378 8.91288L3.06291 23.9294L3.06283 23.9354ZM49.0661 7.60578L46.3424 5.77637C45.9488 5.51188 45.5206 5.21274 45.086 4.90733C43.5148 3.81783 41.9341 2.6906 40.1866 2.24032C39.1695 1.97583 38.1241 1.82783 37.0661 1.81209C36.0995 1.7869 35.1391 1.89395 34.1976 2.12696C33.6497 2.26551 33.127 2.46703 32.6264 2.72208C32.1824 2.95508 31.7793 3.24478 31.4173 3.58483L29.5469 5.77641C29.4902 5.88032 29.4083 5.97793 29.3139 6.05035L24.2349 12.0866C24.2979 12.4424 24.4522 12.773 24.6789 13.0532C24.9213 13.3523 25.252 13.5854 25.6141 13.7144C26.0423 13.8687 26.4926 13.9254 26.9366 13.875C27.7899 13.7932 28.596 13.4563 29.2572 12.9147L30.6679 11.7307C31.0237 11.441 31.3196 11.1671 31.6188 10.8931C32.2234 10.3043 32.8909 9.77215 33.6025 9.32187C35.1737 8.37722 36.7544 8.34578 38.3257 10.9592L46.3046 25.3808H49.022C49.022 25.3808 49.0377 7.85818 49.0692 7.60588L49.0661 7.60578ZM49.6643 6.05657C49.784 5.88653 49.9288 5.72594 50.0831 5.58111C50.9207 4.91357 51.985 4.5735 53.0587 4.64589H59.9828C61.4344 4.64589 62.612 4.90409 63.4338 5.53387C64.3438 6.23604 64.7721 7.30032 64.5863 8.84011L63.056 24.6974C63.0308 25.8908 62.6278 27.0433 61.9035 27.9847C61.1541 28.8317 60.0426 29.2662 58.9122 29.1529H52.6808C51.8747 29.2158 51.0781 28.9671 50.4484 28.4664C49.9635 28.0634 49.5793 27.5627 49.3211 26.9928H47.1611C47.435 27.758 47.4508 28.5893 47.202 29.3639C46.9595 30.0881 46.5093 30.7273 45.9047 31.2027C45.3159 31.6687 44.6137 31.9773 43.8738 32.097C43.1306 32.2166 42.3749 32.1379 41.6822 31.8545C40.9894 32.6291 40.0952 33.1928 39.1034 33.4982C38.1996 33.747 37.2424 33.6997 36.3544 33.3691C35.605 34.2728 34.5817 34.9089 33.4355 35.1828C32.2516 35.4001 31.0267 35.2143 29.9624 34.6601C29.6003 34.9498 29.1878 35.1922 28.7627 35.3686C28.1739 35.611 27.5379 35.7307 26.9018 35.7086C25.636 35.7338 24.4112 35.2898 23.4665 34.4523C22.6762 33.6714 22.0307 32.7677 21.5332 31.7853L18.0916 25.8026H15.4246C15.305 26.489 15.031 27.1408 14.6343 27.7045L14.5933 27.7611C13.8502 28.6711 12.7073 29.1624 11.5296 29.0585H5.71061C4.63062 29.3009 3.50331 28.9136 2.7917 28.0666C2.10527 27.2762 1.63924 25.9695 1.43772 24.0928V24.0298L0.228596 9.14226C-0.013858 7.53952 0.228596 6.39335 0.896131 5.61878C1.6298 4.82844 2.66258 4.39394 3.74258 4.42537H11.2146C12.2316 4.3624 13.2455 4.58596 14.1398 5.09291C14.7601 5.48651 15.2103 6.09109 15.4119 6.8027H20.4247C21.5709 5.9809 22.8336 5.33538 24.1655 4.87567C25.5604 4.45689 27.034 4.34353 28.4793 4.5356L30.1954 2.49524L30.2583 2.43227C30.7244 1.98829 31.2565 1.60103 31.8296 1.29553C32.4436 0.980654 33.0859 0.731897 33.7566 0.561861C34.8366 0.297369 35.9482 0.174563 37.0628 0.199753C38.2404 0.224943 39.4087 0.38553 40.5516 0.68466C42.5511 1.20736 44.2766 2.42596 45.9612 3.59414C46.3642 3.87753 46.7673 4.15777 47.1955 4.44117L49.6389 6.06278H49.6546L49.6643 6.05657ZM8.43151 20.525C9.2061 20.525 9.82644 21.1453 9.83272 21.9199C9.83272 22.6945 9.21242 23.3148 8.43779 23.3211C7.66319 23.3211 7.04286 22.7008 7.03658 21.9262V21.9167C7.03658 21.1516 7.65688 20.5313 8.43151 20.5218V20.525ZM45.4799 26.9107C45.2532 26.8131 45.0864 26.621 45.0202 26.388L36.928 11.7809C36.0337 10.2821 35.2182 10.2412 34.4373 10.7104C33.817 11.1229 33.2376 11.5889 32.696 12.1116C32.3402 12.4328 31.9781 12.7634 31.6884 13.0059L30.2526 14.1898C29.3426 14.933 28.228 15.3895 27.0534 15.5029C26.367 15.5659 25.6743 15.4714 25.0288 15.2384C24.3927 15.0054 23.8291 14.6023 23.3915 14.0702C22.9002 13.4499 22.6106 12.7005 22.5539 11.9101C22.5381 11.6771 22.6263 11.4441 22.7869 11.2741L27.1574 6.07549C26.3041 6.0503 25.4476 6.1731 24.6352 6.43131C23.3946 6.86583 22.217 7.47986 21.1527 8.26072C21.0078 8.38037 20.8126 8.43705 20.63 8.43075H15.5762V24.1744H18.5518C18.8573 24.1744 19.1406 24.3444 19.276 24.6184L22.9507 30.9947C23.3631 31.8259 23.8953 32.5974 24.5219 33.2743C25.1894 33.838 26.0459 34.1371 26.9244 34.1119C27.3369 34.1214 27.7462 34.049 28.1335 33.8947C28.376 33.7971 28.609 33.6617 28.82 33.5011L26.4489 29.0676C26.2632 28.6646 26.4489 28.1796 26.852 27.9971C27.2235 27.827 27.6581 27.9656 27.8753 28.3025L30.4699 33.1484C31.9939 34.1245 34.0154 33.7782 35.1301 32.3423L31.3988 26.4731C31.1563 26.1015 31.2602 25.604 31.6318 25.3521C32.0097 25.1191 32.5008 25.223 32.7527 25.6009L36.6855 31.7757C37.3059 32.0496 38.008 32.1157 38.6692 31.9457C39.3714 31.7284 39.9917 31.3159 40.4735 30.7681L36.9185 24.0612C36.7075 23.6676 36.8555 23.1732 37.2491 22.956C37.6427 22.745 38.1371 22.893 38.3544 23.2866L42.029 30.2265C42.5044 30.5005 43.0617 30.5886 43.6002 30.491C44.0662 30.4186 44.5102 30.2171 44.8912 29.9274C45.247 29.6629 45.5052 29.2976 45.6501 28.8788C45.8107 28.3561 45.7634 27.7988 45.5304 27.3076C45.4832 27.188 45.458 27.0652 45.4674 26.9361L45.4799 26.9107ZM56.1509 20.525C56.9255 20.525 57.5458 21.161 57.5364 21.9262C57.527 22.6914 56.9003 23.3211 56.1352 23.3117C55.37 23.3117 54.7497 22.6819 54.7497 21.9105C54.7497 21.1453 55.37 20.525 56.1446 20.5155H56.1604L56.1509 20.525Z" fill="#00FF99"/>
</svg>
