<svg width="51" height="47" viewBox="0 0 51 47" fill="none" xmlns="http://www.w3.org/2000/svg">
<path d="M44.2984 16.5061C43.8751 12.7862 42.2884 9.29483 39.7646 6.52955C37.2407 3.76427 33.9084 1.86619 30.2425 1.10582C26.5766 0.345452 22.7643 0.761591 19.3488 2.29493C15.9333 3.82827 13.0889 6.40057 11.2211 9.64523C8.10847 10.2006 5.29112 11.8351 3.26399 14.2615C1.23686 16.6879 0.129606 19.751 0.136753 22.9128C0.1439 26.0745 1.26499 29.1327 3.30307 31.5499C5.34115 33.9671 8.16585 35.5888 11.2809 36.1301C11.6941 36.201 12.1186 36.105 12.461 35.8632C12.8035 35.6213 13.0359 35.2534 13.1073 34.8403C13.1786 34.4272 13.083 34.0026 12.8415 33.6599C12.6 33.3172 12.2324 33.0844 11.8193 33.0127C9.38348 32.5887 7.18199 31.3013 5.61823 29.3862C4.05446 27.4711 3.23315 25.0566 3.30478 22.5852C3.37642 20.1138 4.3362 17.751 6.00827 15.9297C7.68033 14.1084 9.9527 12.9506 12.409 12.6684C12.667 12.639 12.9138 12.5465 13.1277 12.3992C13.3415 12.2518 13.5158 12.0541 13.6352 11.8234C15.1062 8.9675 17.477 6.67568 20.381 5.30227C23.2851 3.92886 26.5608 3.55034 29.7016 4.22525C32.8423 4.90015 35.6733 6.59088 37.7569 9.03605C39.8404 11.4812 41.0605 14.5447 41.2284 17.7527C41.2458 18.0837 41.3667 18.4009 41.5741 18.6593C41.7815 18.9178 42.0649 19.1046 42.3843 19.1933C43.8801 19.6126 45.1982 20.5086 46.1383 21.7453C47.0784 22.982 47.5892 24.4918 47.5931 26.0452C47.5807 27.0632 47.3543 28.0672 46.9286 28.9919C46.5028 29.9167 45.8873 30.7415 45.122 31.4129C44.3567 32.0842 43.4587 32.5871 42.4864 32.8887C41.514 33.1903 40.4891 33.284 39.4782 33.1637C39.0587 33.1637 38.6563 33.3304 38.3597 33.627C38.063 33.9237 37.8964 34.326 37.8964 34.7456C37.8964 35.1651 38.063 35.5675 38.3597 35.8641C38.6563 36.1608 39.0587 36.3274 39.4782 36.3274H40.4746C42.8635 36.3282 45.178 35.4969 47.0204 33.9764C48.8629 32.4559 50.1182 30.3412 50.5707 27.9956C51.0232 25.65 50.6446 23.22 49.5 21.1233C48.3553 19.0266 46.5161 17.394 44.2984 16.5061Z" fill="#00FF99"/>
<path d="M25.4471 46.6097C26.3208 46.6097 27.029 45.9014 27.029 45.0278C27.029 44.1542 26.3208 43.4459 25.4471 43.4459C24.5735 43.4459 23.8652 44.1542 23.8652 45.0278C23.8652 45.9014 24.5735 46.6097 25.4471 46.6097Z" fill="#00FF99"/>
<path d="M25.4464 37.1184C24.0688 37.1222 22.7159 37.484 21.5202 38.1683C20.3245 38.8526 19.3273 39.8359 18.6261 41.0217C18.5207 41.2007 18.4516 41.3987 18.4226 41.6044C18.3937 41.8101 18.4056 42.0195 18.4576 42.2206C18.5096 42.4217 18.6007 42.6106 18.7257 42.7765C18.8507 42.9425 19.0072 43.0821 19.1861 43.1875C19.3651 43.293 19.5631 43.3621 19.7688 43.3911C19.9745 43.42 20.1839 43.4081 20.385 43.3561C20.5861 43.3041 20.775 43.213 20.9409 43.088C21.1069 42.963 21.2465 42.8065 21.352 42.6276C21.7707 41.9136 22.3689 41.3215 23.0871 40.91C23.8054 40.4986 24.6187 40.2822 25.4464 40.2822C26.2742 40.2822 27.0875 40.4986 27.8058 40.91C28.524 41.3215 29.1222 41.9136 29.5409 42.6276C29.6464 42.8065 29.786 42.963 29.952 43.088C30.1179 43.213 30.3068 43.3041 30.5079 43.3561C30.709 43.4081 30.9184 43.42 31.1241 43.3911C31.3298 43.3621 31.5278 43.293 31.7068 43.1875C31.8857 43.0821 32.0422 42.9425 32.1672 42.7765C32.2922 42.6106 32.3833 42.4217 32.4353 42.2206C32.4873 42.0195 32.4992 41.8101 32.4703 41.6044C32.4413 41.3987 32.3722 41.2007 32.2667 41.0217C31.5656 39.8359 30.5684 38.8526 29.3727 38.1683C28.177 37.484 26.8241 37.1222 25.4464 37.1184Z" fill="#00FF99"/>
<path d="M25.4468 30.7909C22.959 30.7972 20.5158 31.452 18.3581 32.6905C16.2005 33.929 14.403 35.7086 13.1429 37.8537C12.9325 38.2157 12.8742 38.6464 12.9808 39.0512C13.0874 39.4561 13.3502 39.8022 13.7115 40.0137C14.0729 40.2252 14.5033 40.2848 14.9085 40.1795C15.3138 40.0742 15.6607 39.8125 15.8733 39.4518C16.8497 37.779 18.2474 36.3912 19.9271 35.4267C21.6068 34.4622 23.5099 33.9547 25.4468 33.9547C27.3838 33.9547 29.2869 34.4622 30.9666 35.4267C32.6463 36.3912 34.044 37.779 35.0204 39.4518C35.1249 39.6318 35.264 39.7894 35.4296 39.9155C35.5952 40.0416 35.784 40.1338 35.9853 40.1868C36.1866 40.2398 36.3964 40.2525 36.6026 40.2243C36.8089 40.1961 37.0075 40.1274 37.1871 40.0223C37.3668 39.9171 37.5239 39.7776 37.6495 39.6116C37.7751 39.4456 37.8667 39.2565 37.9191 39.055C37.9714 38.8535 37.9835 38.6437 37.9547 38.4376C37.9258 38.2315 37.8565 38.033 37.7508 37.8537C36.4907 35.7086 34.6932 33.929 32.5355 32.6905C30.3779 31.452 27.9347 30.7972 25.4468 30.7909Z" fill="#00FF99"/>
</svg>
