<svg width="11" height="14" viewBox="0 0 11 14" fill="none" xmlns="http://www.w3.org/2000/svg">
<path d="M5.5 0C2.46263 0 0 2.35069 0 5.25C0 6.39166 0.392104 7.43925 1.04385 8.29719C1.05554 8.31775 1.05737 8.34072 1.07067 8.36041L4.73733 13.6104C4.90738 13.8539 5.19383 14 5.5 14C5.80617 14 6.09263 13.8539 6.26267 13.6104L9.92933 8.36041C9.94285 8.34072 9.94446 8.31775 9.95615 8.29719C10.6079 7.43925 11 6.39166 11 5.25C11 2.35069 8.53738 0 5.5 0ZM5.5 7C4.48754 7 3.66667 6.21644 3.66667 5.25C3.66667 4.28356 4.48754 3.5 5.5 3.5C6.51246 3.5 7.33333 4.28356 7.33333 5.25C7.33333 6.21644 6.51246 7 5.5 7Z" fill="white"/>
</svg>
