<svg width="37" height="37" viewBox="0 0 37 37" fill="none" xmlns="http://www.w3.org/2000/svg">
<circle cx="18.5" cy="18.5" r="18" transform="matrix(-1 0 0 1 37 -0.00012207)" stroke="url(#paint0_linear_1255_613)"/>
<path d="M26.5303 19.5302C26.8232 19.2373 26.8232 18.7624 26.5303 18.4695L21.7574 13.6966C21.4645 13.4037 20.9896 13.4037 20.6967 13.6966C20.4038 13.9895 20.4038 14.4643 20.6967 14.7572L24.9393 18.9999L20.6967 23.2425C20.4038 23.5354 20.4038 24.0103 20.6967 24.3032C20.9896 24.5961 21.4645 24.5961 21.7574 24.3032L26.5303 19.5302ZM11 18.9999V19.7499H26V18.9999V18.2499H11V18.9999Z" fill="white"/>
<defs>
<linearGradient id="paint0_linear_1255_613" x1="37" y1="18.5" x2="0" y2="18.5" gradientUnits="userSpaceOnUse">
<stop stop-color="#F5F7FA" stop-opacity="0"/>
<stop offset="1" stop-color="#F5F7FA"/>
</linearGradient>
</defs>
</svg>
