<svg width="45" height="53" viewBox="0 0 45 53" fill="none" xmlns="http://www.w3.org/2000/svg">
<path d="M25.4017 49.1373C25.4017 49.6104 25.019 49.9905 24.5485 49.9905H20.4222C19.9491 49.9905 19.569 49.6079 19.569 49.1373C19.569 48.6668 19.9516 48.2841 20.4222 48.2841H24.5485C25.0216 48.2841 25.4017 48.6668 25.4017 49.1373ZM25.456 42.7127C25.9291 42.7127 26.3117 42.3275 26.3117 41.8595C26.3117 41.3864 25.9265 41.0063 25.456 41.0063C24.9854 41.0063 24.6028 41.3864 24.6028 41.8595C24.6028 42.3301 24.988 42.7127 25.456 42.7127ZM22.4828 42.7127C22.9533 42.7127 23.336 42.3275 23.336 41.8595C23.336 41.3864 22.9508 41.0063 22.4828 41.0063C22.0097 41.0063 21.6296 41.3864 21.6296 41.8595C21.6296 42.3301 22.0096 42.7127 22.4828 42.7127ZM19.5096 42.7127C19.9827 42.7127 20.3654 42.3275 20.3654 41.8595C20.3654 41.3864 19.9802 41.0063 19.5096 41.0063C19.0391 41.0063 18.6564 41.3864 18.6564 41.8595C18.6564 42.3301 19.0416 42.7127 19.5096 42.7127ZM12.8236 33.1469V29.3672C12.8236 28.894 13.2062 28.514 13.6767 28.514H20.3886C20.8617 28.514 21.2418 28.8966 21.2418 29.3672V33.1469C21.2418 33.6201 20.8592 34.0001 20.3886 34.0001H13.6767C13.2036 34.0001 12.8236 33.6175 12.8236 33.1469ZM14.5325 32.2912H19.5351V30.2203H14.5325V32.2912ZM42.4647 25.5462C41.2754 26.7355 39.8173 27.4981 38.2841 27.8368V48.3953C38.2841 50.9057 36.2417 52.9481 33.7313 52.9481H11.2283C8.71787 52.9481 6.67546 50.9057 6.67546 48.3953V38.3874H1.7322C1.25908 38.3874 0.879008 38.0048 0.879008 37.5342V25.3727C0.330914 24.7108 0 23.8628 0 22.9372V21.0215C0 20.8974 0.025854 20.7759 0.0801438 20.6621L2.84649 14.6951C2.98611 14.3926 3.28859 14.2013 3.62212 14.2013H6.68061V4.55283C6.68061 2.04241 8.72303 0 11.2334 0H33.7365C36.2469 0 38.2893 2.04241 38.2893 4.55283V11.1866C39.8224 11.5253 41.2805 12.288 42.4698 13.4772C45.7972 16.8045 45.7972 22.2183 42.4698 25.5481L42.4647 25.5462ZM41.2573 14.6852C40.6523 14.0802 39.9595 13.6123 39.2201 13.2839C39.2925 13.4339 39.3623 13.5916 39.4321 13.7596C39.9983 15.1506 40.3215 16.8801 40.399 18.6589H43.2015C43.0205 17.2059 42.3742 15.7994 41.2599 14.6852L41.2573 14.6852ZM37.8472 24.6209C38.3333 23.4291 38.6125 21.9218 38.6875 20.3654H34.1734C34.2484 21.9218 34.5276 23.4291 35.0137 24.6209C35.4997 25.8154 36.0349 26.2833 36.3736 26.3324C36.3942 26.3324 36.4123 26.335 36.433 26.335C36.4511 26.335 36.4718 26.3324 36.4899 26.3324C36.8286 26.2833 37.3638 25.8179 37.8498 24.6209H37.8472ZM29.6621 18.6591H32.4647C32.5422 16.8804 32.8654 15.1507 33.4316 13.7598C33.4988 13.5918 33.5712 13.4341 33.641 13.2841C32.9016 13.6125 32.2087 14.0804 31.6037 14.6854C30.4894 15.7997 29.8457 17.2061 29.6621 18.6591ZM29.6621 20.3654C29.8431 21.8184 30.4894 23.2248 31.6037 24.3391C32.2087 24.9441 32.9015 25.4095 33.641 25.7404C33.5686 25.5904 33.4988 25.4327 33.4316 25.2647C32.8654 23.8737 32.5422 22.1415 32.4647 20.3654L29.6621 20.3654ZM38.6878 18.6591C38.6128 17.1027 38.3336 15.5954 37.8476 14.4036C37.3641 13.2117 36.8315 12.7438 36.4928 12.6921H36.3661C36.0275 12.7438 35.4949 13.2143 35.0114 14.4036C34.5253 15.5954 34.2462 17.1027 34.1712 18.6591H38.6878ZM19.0466 1.70967C19.362 2.08456 19.6749 2.33275 20.0549 2.33275H25.1403C25.4738 2.33275 25.6755 2.14919 25.9754 1.70967H19.0466ZM3.8134 25.0453C4.97681 25.0453 5.92048 24.0991 5.92048 22.9382V21.8756H1.70633V22.9382C1.70633 24.1016 2.65 25.0453 3.81082 25.0453H3.8134ZM7.62939 22.9382C7.62939 24.1016 8.57306 25.0453 9.73388 25.0453C10.8947 25.0453 11.8384 24.0991 11.8384 22.9382V21.8756H7.62681V22.9382H7.62939ZM13.5473 22.9382C13.5473 24.1016 14.491 25.0453 15.6518 25.0453C16.8126 25.0453 17.7563 24.0991 17.7563 22.9382V21.8756H13.5447V22.9382H13.5473ZM19.4678 22.9382C19.4678 24.1016 20.4114 25.0453 21.5723 25.0453C22.7331 25.0453 23.6793 24.0991 23.6793 22.9382V21.8756H19.4652V22.9382H19.4678ZM23.1984 20.1693L21.2258 15.9112H18.3095L19.2946 20.1693H23.201H23.1984ZM13.5473 15.9086V20.1667H17.5365L16.5514 15.9086H13.5473ZM11.841 15.9086H8.83674L7.8517 20.1667H11.8409L11.841 15.9086ZM2.19246 20.1693H6.09892L7.08395 15.9112H4.16769L2.19246 20.1693ZM2.58802 36.6819H4.14444V29.3678C4.14444 28.8946 4.52707 28.5146 4.99763 28.5146H10.4114C10.8845 28.5146 11.2646 28.8972 11.2646 29.3678V36.6819H22.7954V26.5522C22.4102 26.6841 21.9991 26.7539 21.5699 26.7539C20.3781 26.7539 19.3103 26.2032 18.6096 25.3423C17.909 26.2032 16.8438 26.7539 15.6494 26.7539C14.4575 26.7539 13.3897 26.2032 12.6891 25.3423C11.9885 26.2032 10.9233 26.7539 9.72883 26.7539C8.53696 26.7539 7.46919 26.2032 6.76855 25.3423C6.06791 26.2032 5.00015 26.7539 3.8057 26.7539C3.37653 26.7539 2.96548 26.6815 2.58021 26.5496V36.6793L2.58802 36.6819ZM5.85334 36.6819H9.5582V30.2237H5.85334V36.6819ZM8.38699 38.3882V45.3271H36.578V28.0415C36.5263 28.0466 36.4772 28.0466 36.4306 28.0466C36.3712 28.0466 36.3091 28.044 36.2419 28.0389C34.1193 27.9923 32.0122 27.165 30.3938 25.5492C27.0665 22.2193 27.0665 16.8054 30.3938 13.4783C32.0097 11.8624 34.1193 11.0351 36.2419 10.9886C36.3091 10.9834 36.3711 10.9808 36.4306 10.9808C36.4771 10.9808 36.5263 10.9834 36.578 10.986V4.55359C36.578 2.98684 35.3034 1.70967 33.7341 1.70967H28.4005C28.1548 1.70967 27.9661 1.80791 27.8239 2.00957C27.7541 2.10781 27.6843 2.21898 27.6067 2.3379C27.1724 3.01525 26.5132 4.03907 25.1403 4.03907H20.0549C18.5683 4.03907 17.7435 2.86534 17.198 2.08971L17.1412 2.01215C16.999 1.8079 16.8128 1.71225 16.5672 1.71225H11.2284C9.66169 1.71225 8.38451 2.98685 8.38451 4.55617V14.2047H21.7665C22.1 14.2047 22.4025 14.3986 22.5422 14.6985L25.3085 20.6655C25.3602 20.7792 25.3887 20.9008 25.3887 21.0248V22.9406C25.3887 23.8661 25.0551 24.7167 24.5045 25.3786V37.5375C24.5045 38.0106 24.1219 38.3907 23.6513 38.3907H8.38762L8.38699 38.3882ZM36.578 48.3961V47.0362H8.38699V48.3961C8.38699 49.9629 9.66158 51.24 11.2309 51.24H33.7339C35.3007 51.24 36.578 49.9654 36.578 48.3961ZM41.2575 24.3391C42.3692 23.2248 43.0155 21.8183 43.1991 20.3653H40.3966C40.319 22.1415 39.9958 23.8737 39.4296 25.2646C39.3598 25.4326 39.29 25.5903 39.2202 25.7403C39.9597 25.412 40.6526 24.9441 41.2575 24.3391Z" fill="#00FF99"/>
</svg>
