<svg width="51" height="57" viewBox="0 0 51 57" fill="none" xmlns="http://www.w3.org/2000/svg">
<path d="M9.76033 24.8144C9.75359 26.9406 10.1829 29.0455 11.0217 30.9993C11.8606 32.953 13.0911 34.7139 14.6373 36.1733C16.0104 37.5097 16.949 39.2287 17.3309 41.1063C16.8793 41.2626 16.4875 41.5556 16.2099 41.9446C15.9324 42.3337 15.7828 42.7994 15.7819 43.2773V48.4094C15.7826 48.9968 16.0078 49.5617 16.4114 49.9884C16.815 50.4152 17.3665 50.6715 17.953 50.7048L18.9545 53.8898C19.2325 54.7911 19.7922 55.5795 20.5512 56.1393C21.3103 56.6991 22.2289 57.0008 23.1721 57.0001H27.6634C28.6066 57.0008 29.5252 56.6991 30.2843 56.1393C31.0434 55.5795 31.603 54.7911 31.881 53.8898L32.8826 50.7048C33.4679 50.6699 34.0178 50.413 34.4202 49.9864C34.8225 49.5598 35.0468 48.9958 35.0473 48.4094V43.2773C35.0463 42.807 34.9015 42.3482 34.6325 41.9624C34.3634 41.5767 33.9829 41.2823 33.5419 41.1188C33.9808 39.1565 34.9816 37.3646 36.4221 35.9618C38.5654 33.839 40.0498 31.1422 40.6969 28.1958C41.3439 25.2493 41.126 22.1787 40.0694 19.3532C39.0128 16.5276 37.1624 14.0675 34.7408 12.2686C32.3193 10.4697 29.4296 9.4086 26.4193 9.21296C24.2821 9.06367 22.1371 9.35919 20.1199 10.0808C18.1027 10.8025 16.2571 11.9346 14.6995 13.4057C13.1438 14.8716 11.9034 16.6394 11.0542 18.601C10.2049 20.5626 9.76469 22.6768 9.76033 24.8144ZM30.3943 53.4232C30.2124 54.0048 29.8492 54.513 29.3579 54.8734C28.8665 55.2338 28.2728 55.4275 27.6634 55.4263H23.1721C22.5627 55.4275 21.969 55.2338 21.4776 54.8734C20.9863 54.513 20.6231 54.0048 20.4412 53.4232L19.589 50.7235H31.2465L30.3943 53.4232ZM15.7633 14.5254C17.1678 13.1961 18.8328 12.1725 20.653 11.5193C22.4732 10.8662 24.4091 10.5977 26.3384 10.7308C29.0545 10.9052 31.6621 11.8618 33.8466 13.4853C36.0311 15.1088 37.6991 17.3297 38.6495 19.8801C39.5998 22.4305 39.7918 25.2014 39.2023 27.8585C38.6128 30.5156 37.267 32.9453 35.3273 34.8546C33.6277 36.5132 32.4641 38.6431 31.9868 40.9695H30.3943C30.2009 40.9868 30.0209 41.0759 29.8899 41.2192C29.7588 41.3626 29.6862 41.5497 29.6862 41.7439C29.6862 41.9381 29.7588 42.1253 29.8899 42.2686C30.0209 42.412 30.2009 42.5011 30.3943 42.5184H32.7581C32.857 42.5192 32.9547 42.5395 33.0457 42.5781C33.1367 42.6167 33.2192 42.6728 33.2886 42.7433C33.3579 42.8137 33.4126 42.8972 33.4497 42.9888C33.4868 43.0804 33.5054 43.1785 33.5046 43.2773V48.4094C33.5046 48.6096 33.4255 48.8017 33.2845 48.9438C33.1436 49.086 32.9521 49.1667 32.7519 49.1683H18.096C17.9958 49.1691 17.8965 49.1501 17.8037 49.1123C17.7109 49.0746 17.6265 49.0188 17.5554 48.9482C17.4842 48.8777 17.4278 48.7937 17.3892 48.7013C17.3507 48.6088 17.3309 48.5096 17.3309 48.4094V43.2773C17.33 43.1769 17.3493 43.0773 17.3875 42.9845C17.4258 42.8916 17.4822 42.8073 17.5535 42.7366C17.6248 42.6659 17.7095 42.6101 17.8027 42.5727C17.8959 42.5352 17.9956 42.5168 18.096 42.5184H26.9791C27.1854 42.5184 27.3831 42.4365 27.529 42.2907C27.6748 42.1448 27.7567 41.9471 27.7567 41.7408C27.7567 41.5346 27.6748 41.3368 27.529 41.191C27.3831 41.0452 27.1854 40.9632 26.9791 40.9632H18.8923C18.4646 38.7123 17.3523 36.6484 15.7073 35.0536C14.3124 33.7309 13.2025 32.1371 12.4457 30.37C11.6889 28.6029 11.3013 26.6998 11.3065 24.7774C11.3118 22.8551 11.7098 20.9541 12.4762 19.1912C13.2426 17.4282 14.3612 15.8405 15.7633 14.5254Z" fill="#00FF99"/>
<path d="M15.9933 26.9668C15.7148 27.3955 15.5246 27.8754 15.4338 28.3785C15.343 28.8816 15.3535 29.3977 15.4646 29.8967C15.5993 30.3066 15.8207 30.6827 16.1137 30.9993C16.4068 31.316 16.7646 31.5658 17.1628 31.7318C17.1153 32.5015 17.335 33.264 17.7849 33.8904C18.4505 34.7551 19.564 35.2341 21.0943 35.3025C21.7261 36.2607 22.6719 36.9689 23.7692 37.3055C24.3135 37.4241 24.8817 37.3607 25.3865 37.1251C25.8923 37.3572 26.4594 37.4205 27.0039 37.3055C28.1012 36.9689 29.047 36.2607 29.6788 35.3025C31.2091 35.2341 32.3226 34.7551 32.9882 33.8904C33.438 33.264 33.6578 32.5015 33.6102 31.7318C34.02 31.5733 34.39 31.3268 34.6942 31.0097C34.9984 30.6926 35.2293 30.3127 35.3707 29.8967C35.4818 29.3977 35.4923 28.8816 35.4015 28.3785C35.3107 27.8754 35.1205 27.3955 34.8419 26.9668C35.8932 25.6915 36.2914 24.4785 36.0425 23.365C35.8088 22.4872 35.2419 21.7352 34.4625 21.2687C34.5686 20.7589 34.5681 20.2327 34.461 19.7231C34.3539 19.2135 34.1427 18.7316 33.8404 18.3076C33.1161 17.4245 32.081 16.8523 30.9478 16.7089C30.6157 16.1611 30.1761 15.6863 29.6554 15.3132C29.1347 14.94 28.5438 14.6763 27.9183 14.5379C27.0481 14.4045 26.1582 14.5619 25.3865 14.9858C24.6149 14.5619 23.7249 14.4045 22.8547 14.5379C22.2293 14.6763 21.6383 14.94 21.1177 15.3132C20.597 15.6863 20.1573 16.1611 19.8252 16.7089C18.6921 16.8523 17.657 17.4245 16.9326 18.3076C16.6357 18.734 16.43 19.217 16.3283 19.7265C16.2266 20.236 16.2312 20.761 16.3417 21.2687C15.5622 21.7352 14.9954 22.4872 14.7616 23.365C14.5439 24.4785 14.942 25.7227 15.9933 26.9668ZM16.3106 23.7134C16.398 23.3651 16.5968 23.055 16.8767 22.83C16.9264 22.9171 16.9762 23.0042 17.0322 23.0913C17.0999 23.1959 17.1917 23.2828 17.3 23.3445C17.4082 23.4062 17.5297 23.441 17.6542 23.4459C17.7917 23.4394 17.925 23.3967 18.0408 23.3224C18.1565 23.248 18.2507 23.1444 18.3137 23.0221C18.3768 22.8998 18.4065 22.763 18.3999 22.6256C18.3934 22.4881 18.3507 22.3548 18.2763 22.2391C18.1297 22.0277 18.0222 21.7917 17.959 21.5424V21.4926C17.8239 21.1277 17.7722 20.7371 17.8077 20.3496C17.8433 19.9621 17.9651 19.5874 18.1643 19.2532C18.7307 18.6476 19.5131 18.2899 20.3416 18.2579C20.4664 18.2512 20.5879 18.2151 20.696 18.1523C20.8042 18.0896 20.8959 18.0021 20.9636 17.8971C21.5857 16.8582 22.3508 16.2548 23.1346 16.1179C23.6515 16.0388 24.1801 16.1305 24.64 16.3792V18.2081C24.4853 18.3752 24.2829 18.4905 24.0602 18.5384C23.8376 18.5863 23.6056 18.5643 23.3959 18.4756C23.2029 18.4022 22.9886 18.4084 22.8002 18.493C22.6118 18.5776 22.4647 18.7335 22.3913 18.9266C22.3179 19.1196 22.3241 19.3339 22.4087 19.5223C22.4933 19.7107 22.6492 19.8578 22.8423 19.9312C23.1581 20.0521 23.4932 20.1154 23.8314 20.1178C24.1021 20.1179 24.3711 20.0738 24.6276 19.9872V23.5454C20.099 23.4521 19.4396 26.8486 19.4271 26.8859C19.3924 27.0877 19.4381 27.2951 19.5544 27.4637C19.6706 27.6322 19.8482 27.7486 20.0492 27.7879H20.186C20.3655 27.7875 20.5394 27.7255 20.6787 27.6123C20.818 27.4991 20.9142 27.3415 20.9512 27.1658C20.9512 27.1658 21.3742 25.0259 24.6152 25.1006V27.34C24.6152 27.5463 24.6971 27.744 24.8429 27.8899C24.9887 28.0357 25.1865 28.1176 25.3927 28.1176C25.599 28.1176 25.7968 28.0357 25.9426 27.8899C26.0884 27.744 26.1703 27.5463 26.1703 27.34V25.1006C27.1202 25.0043 28.0753 25.2229 28.8888 25.7227C29.0192 25.8217 29.1791 25.8742 29.3429 25.8719C29.4644 25.8727 29.5843 25.8443 29.6926 25.7891C29.8008 25.7339 29.8942 25.6535 29.9649 25.5547C30.0841 25.3898 30.1339 25.1848 30.1037 24.9836C30.0735 24.7824 29.9656 24.6011 29.8032 24.4785C28.7408 23.7653 27.4721 23.4241 26.1952 23.5081V19.9561C26.4538 20.0439 26.7246 20.0901 26.9977 20.0929C27.8652 20.0499 28.6819 19.6705 29.2744 19.0354C29.4051 18.8823 29.4713 18.6844 29.4591 18.4835C29.4469 18.2825 29.3572 18.0942 29.209 17.958C29.0607 17.8218 28.8654 17.7484 28.6641 17.7533C28.4629 17.7582 28.2713 17.8409 28.1298 17.9841C27.831 18.2983 27.4292 18.4948 26.9977 18.5378C26.6982 18.5195 26.4154 18.3935 26.2014 18.1832V16.3543C26.6614 16.1057 27.19 16.0139 27.7068 16.0931C28.4906 16.2299 29.2247 16.8333 29.8778 17.8722C29.9463 17.9766 30.0382 18.0635 30.1462 18.1262C30.2542 18.1888 30.3753 18.2254 30.4999 18.233C31.3155 18.2824 32.0802 18.6458 32.6336 19.2469C32.8329 19.5823 32.9548 19.958 32.9903 20.3465C33.0258 20.7351 32.9741 21.1266 32.8389 21.4926V21.5361C32.729 21.9153 32.5403 22.2669 32.2852 22.5681C32.03 22.8694 31.7142 23.1133 31.3584 23.2842C31.2689 23.3335 31.19 23.4 31.1262 23.4799C31.0624 23.5598 31.015 23.6515 30.9867 23.7497C30.9584 23.8479 30.9497 23.9508 30.9612 24.0523C30.9727 24.1539 31.004 24.2522 31.0536 24.3417C31.1217 24.4635 31.2209 24.5651 31.3411 24.6362C31.4613 24.7072 31.5982 24.7451 31.7378 24.746C31.8684 24.7432 31.9964 24.7091 32.1111 24.6465C32.8904 24.2241 33.5366 23.5929 33.9773 22.8238C34.2563 23.0468 34.4551 23.3548 34.5433 23.7009C34.7051 24.4101 34.2821 25.3307 33.2992 26.3634C33.1761 26.4989 33.1044 26.6733 33.0964 26.8563C33.0884 27.0392 33.1448 27.2192 33.2557 27.3649C33.5045 27.6884 34.0892 28.6837 33.8777 29.4302C33.7721 29.6728 33.6123 29.8881 33.4107 30.0595C33.2091 30.2309 32.9709 30.354 32.7145 30.4193C31.5263 30.2948 30.8856 29.7972 30.8856 29.567C30.8856 29.3608 30.8037 29.163 30.6578 29.0172C30.512 28.8714 30.3142 28.7894 30.108 28.7894C29.9018 28.7894 29.704 28.8714 29.5582 29.0172C29.4124 29.163 29.3304 29.3608 29.3304 29.567C29.3304 30.6867 30.4688 31.6136 32.1173 31.906C32.1231 32.2674 32.0118 32.6209 31.8 32.9137C31.4035 33.3413 30.8629 33.6071 30.2822 33.6602C30.3004 33.1128 30.1577 32.5721 29.8716 32.1051C29.7611 31.9269 29.5843 31.7999 29.3801 31.7521C29.176 31.7042 28.9612 31.7395 28.783 31.85C28.6048 31.9605 28.4779 32.1373 28.43 32.3415C28.3822 32.5457 28.4174 32.7604 28.528 32.9386C28.64 33.1248 28.7044 33.3358 28.7152 33.5529C28.7261 33.7699 28.6831 33.9863 28.5902 34.1828C28.3102 34.6182 27.5202 35.6073 26.724 35.7815C26.5546 35.8252 26.377 35.8252 26.2077 35.7815V30.8858C26.2077 30.6796 26.1257 30.4818 25.9799 30.336C25.8341 30.1901 25.6363 30.1082 25.4301 30.1082C25.2238 30.1082 25.0261 30.1901 24.8802 30.336C24.7344 30.4818 24.6525 30.6796 24.6525 30.8858V35.7566C24.4832 35.8003 24.3055 35.8003 24.1362 35.7566C23.3213 35.5824 22.5312 34.5871 22.27 34.1517C21.7785 32.864 23.0289 32.1984 23.2839 32.0802C23.4538 31.9864 23.5825 31.8326 23.6447 31.6488C23.7069 31.4651 23.6982 31.2647 23.6203 31.0871C23.5424 30.9094 23.4009 30.7673 23.2235 30.6886C23.0462 30.61 22.8459 30.6004 22.6619 30.6619C22.0678 30.9098 21.558 31.3241 21.1938 31.8549C20.8296 32.3857 20.6265 33.0105 20.6091 33.654C20.0342 33.6024 19.4984 33.3411 19.1037 32.92C18.9578 32.6997 18.8579 32.4524 18.8098 32.1927C18.7617 31.9329 18.7664 31.6662 18.8237 31.4083C18.8753 31.2187 18.8525 31.0165 18.76 30.8431C18.6675 30.6697 18.5123 30.5381 18.3261 30.4752C17.592 30.2202 17.1504 29.8532 17.0197 29.4239C16.7958 28.6775 17.3805 27.6822 17.6418 27.3649C17.7531 27.2182 17.8097 27.0372 17.8018 26.8532C17.7938 26.6692 17.7218 26.4937 17.5983 26.3572C16.5781 25.3556 16.1551 24.4412 16.3106 23.732V23.7134Z" fill="#00FF99"/>
<path d="M5.9283 23.6201C6.13452 23.6201 6.3323 23.5382 6.47813 23.3924C6.62396 23.2465 6.70588 23.0488 6.70588 22.8425C6.70588 22.6363 6.62396 22.4385 6.47813 22.2927C6.3323 22.1469 6.13452 22.0649 5.9283 22.0649H0.777583C0.571356 22.0649 0.373574 22.1469 0.227749 22.2927C0.0819237 22.4385 0 22.6363 0 22.8425C0 23.0488 0.0819237 23.2465 0.227749 23.3924C0.373574 23.5382 0.571356 23.6201 0.777583 23.6201H5.9283Z" fill="#00FF99"/>
<path d="M50.0577 23.6201C50.2639 23.6201 50.4617 23.5382 50.6075 23.3924C50.7533 23.2465 50.8353 23.0488 50.8353 22.8425C50.8353 22.6363 50.7533 22.4385 50.6075 22.2927C50.4617 22.1469 50.2639 22.0649 50.0577 22.0649H44.907C44.7007 22.0649 44.503 22.1469 44.3571 22.2927C44.2113 22.4385 44.1294 22.6363 44.1294 22.8425C44.1294 23.0488 44.2113 23.2465 44.3571 23.3924C44.503 23.5382 44.7007 23.6201 44.907 23.6201H50.0577Z" fill="#00FF99"/>
<path d="M8.54079 6.70571C8.39227 6.57369 8.19885 6.50353 8.00024 6.50965C7.80162 6.51576 7.61289 6.59768 7.47278 6.73859C7.33267 6.87949 7.25182 7.06869 7.24683 7.26734C7.24184 7.46598 7.31309 7.659 7.44595 7.80677L11.1099 11.4459C11.1824 11.519 11.2686 11.5769 11.3637 11.6164C11.4587 11.656 11.5606 11.6762 11.6636 11.676C11.7656 11.6768 11.8668 11.6568 11.9609 11.6172C12.055 11.5776 12.1401 11.5193 12.211 11.4459C12.2832 11.3742 12.3405 11.2889 12.3796 11.1949C12.4188 11.101 12.4389 11.0002 12.4389 10.8984C12.4389 10.7967 12.4188 10.6959 12.3796 10.602C12.3405 10.508 12.2832 10.4227 12.211 10.351L8.54079 6.70571Z" fill="#00FF99"/>
<path d="M39.7249 37.9148C39.6547 37.8357 39.569 37.7718 39.4732 37.727C39.3774 37.6822 39.2734 37.6574 39.1677 37.6542C39.062 37.6509 38.9567 37.6693 38.8583 37.7081C38.76 37.7469 38.6705 37.8054 38.5955 37.88C38.5205 37.9546 38.4615 38.0437 38.4221 38.1418C38.3827 38.24 38.3638 38.3452 38.3665 38.4509C38.3691 38.5567 38.3933 38.6607 38.4376 38.7568C38.4818 38.8529 38.5452 38.9389 38.6239 39.0096L42.2692 42.6549C42.4177 42.7869 42.6111 42.8571 42.8097 42.851C43.0084 42.8449 43.1971 42.7629 43.3372 42.622C43.4773 42.4811 43.5582 42.2919 43.5632 42.0933C43.5682 41.8946 43.4969 41.7016 43.364 41.5539L39.7249 37.9148Z" fill="#00FF99"/>
<path d="M7.44627 42.655C7.59267 42.7979 7.78912 42.8779 7.99368 42.8779C8.19824 42.8779 8.3947 42.7979 8.5411 42.655L12.1864 39.0097C12.2783 38.9446 12.355 38.8603 12.4111 38.7627C12.4672 38.6651 12.5014 38.5564 12.5114 38.4442C12.5214 38.332 12.5069 38.219 12.4689 38.113C12.431 38.007 12.3704 37.9105 12.2915 37.8302C12.2125 37.7498 12.1171 37.6876 12.0117 37.6478C11.9063 37.608 11.7936 37.5916 11.6813 37.5996C11.5689 37.6077 11.4597 37.6401 11.3611 37.6945C11.2625 37.7489 11.1769 37.8241 11.1102 37.9149L7.47115 41.554C7.39708 41.6246 7.33767 41.7091 7.29632 41.8027C7.25497 41.8962 7.23249 41.9971 7.23018 42.0994C7.22787 42.2016 7.24577 42.3034 7.28285 42.3987C7.31993 42.4941 7.37546 42.5812 7.44627 42.655Z" fill="#00FF99"/>
<path d="M43.3895 6.70594C43.3178 6.63372 43.2325 6.5764 43.1385 6.53728C43.0446 6.49817 42.9438 6.47803 42.842 6.47803C42.7403 6.47803 42.6395 6.49817 42.5455 6.53728C42.4516 6.5764 42.3663 6.63372 42.2946 6.70594L38.6493 10.3513C38.5771 10.423 38.5198 10.5082 38.4806 10.6022C38.4415 10.6961 38.4214 10.7969 38.4214 10.8987C38.4214 11.0004 38.4415 11.1012 38.4806 11.1952C38.5198 11.2891 38.5771 11.3744 38.6493 11.4461C38.7202 11.5196 38.8052 11.5779 38.8994 11.6174C38.9935 11.657 39.0946 11.677 39.1967 11.6763C39.2996 11.6764 39.4016 11.6562 39.4966 11.6167C39.5917 11.5772 39.6779 11.5192 39.7504 11.4461L43.3895 7.807C43.4619 7.73477 43.5193 7.64897 43.5585 7.5545C43.5977 7.46003 43.6179 7.35875 43.6179 7.25647C43.6179 7.15419 43.5977 7.05292 43.5585 6.95845C43.5193 6.86398 43.4619 6.77818 43.3895 6.70594Z" fill="#00FF99"/>
<path d="M26.1953 5.9283V0.777583C26.1953 0.571356 26.1134 0.373574 25.9676 0.227749C25.8217 0.0819237 25.6239 0 25.4177 0C25.2115 0 25.0137 0.0819237 24.8679 0.227749C24.7221 0.373574 24.6401 0.571356 24.6401 0.777583V5.9283C24.6401 6.13452 24.7221 6.33231 24.8679 6.47813C25.0137 6.62396 25.2115 6.70588 25.4177 6.70588C25.6239 6.70588 25.8217 6.62396 25.9676 6.47813C26.1134 6.33231 26.1953 6.13452 26.1953 5.9283Z" fill="#00FF99"/>
</svg>
