<svg width="11" height="11" viewBox="0 0 11 11" fill="none" xmlns="http://www.w3.org/2000/svg">
<path fill-rule="evenodd" clip-rule="evenodd" d="M10.737 10.6393H8.74337V7.16483C8.74337 6.21171 8.32122 5.67994 7.56414 5.67994C6.74026 5.67994 6.25132 6.23405 6.25132 7.16483V10.6393H4.25768V4.18585H6.25132V4.91157C6.25132 4.91157 6.87682 3.81838 8.28633 3.81838C9.69633 3.81838 10.737 4.67537 10.737 6.44857V10.6393ZM1.98592 3.15375C1.31356 3.15375 0.768799 2.60673 0.768799 1.9321C0.768799 1.25797 1.31356 0.710938 1.98592 0.710938C2.65778 0.710938 3.20254 1.25797 3.20254 1.9321C3.20304 2.60673 2.65778 3.15375 1.98592 3.15375ZM0.768799 10.6393H3.26085V4.18585H0.768799V10.6393Z" fill="white"/>
</svg>
