<svg width="12" height="12" viewBox="0 0 12 12" fill="none" xmlns="http://www.w3.org/2000/svg">
<g clip-path="url(#clip0_153_573)">
<path fill-rule="evenodd" clip-rule="evenodd" d="M4.24514 10.1793C8.21495 10.1793 10.3863 6.9409 10.3863 4.13295C10.3863 4.04077 10.3863 3.94928 10.38 3.85813C10.8024 3.55776 11.1669 3.18481 11.4568 2.75808C11.0633 2.93002 10.6451 3.04277 10.2175 3.09249C10.6677 2.82682 11.0049 2.40943 11.1664 1.91692C10.7424 2.16447 10.279 2.33918 9.79561 2.43292C8.97819 1.57738 7.61108 1.53593 6.74159 2.34071C6.18139 2.85963 5.9431 3.63332 6.11721 4.3713C4.3819 4.28534 2.76494 3.47849 1.66873 2.15116C1.09591 3.12219 1.38889 4.36394 2.33729 4.98747C1.99381 4.97762 1.65769 4.88657 1.35733 4.72189V4.74886C1.35786 5.76028 2.08218 6.63117 3.08896 6.83159C2.77125 6.91704 2.43776 6.92943 2.11479 6.8678C2.39726 7.7337 3.20784 8.32678 4.13099 8.34387C3.3667 8.93529 2.42251 9.25643 1.45044 9.2554C1.27896 9.25488 1.10748 9.24503 0.936523 9.22484C1.92385 9.84837 3.07213 10.1793 4.24514 10.1777" fill="white"/>
</g>
<defs>
<clipPath id="clip0_153_573">
<rect width="10.5202" height="10.5202" fill="white" transform="translate(0.936523 0.710938)"/>
</clipPath>
</defs>
</svg>
